<svg width="1000" height="1000" viewBox="0 0 1000 1000" fill="none" xmlns="http://www.w3.org/2000/svg">
<rect width="1000" height="1000" fill="white"/>
<path d="M552.501 259.375V571.331C541.726 568.085 530.273 566.25 518.334 566.25C456.355 566.25 405.834 613.39 405.834 671.875C405.834 730.36 456.355 777.5 518.334 777.5C580.312 777.5 630.834 730.36 630.834 671.875V362.365C631.139 362.588 631.434 362.803 631.714 363.005L631.716 363.007C652.43 377.987 669.356 390.766 681.118 403.259C692.849 415.72 699.168 427.61 699.168 440.801C699.168 483.08 675.47 506.848 674.391 507.911C658.842 522.117 658.491 545.527 673.64 560.135C681.329 567.55 691.513 571.25 701.671 571.25C711.454 571.25 721.288 567.817 728.908 560.871C734.018 556.218 777.5 514.415 777.5 440.8C777.501 407.991 763.703 381.685 744.585 359.733C725.546 337.872 701.101 320.188 679.556 304.602L679.446 304.523L677.981 306.548L679.446 304.523C668.948 296.928 656.632 288.016 646.939 279.61C642.089 275.404 637.976 271.394 635.096 267.799C632.123 264.089 630.834 261.269 630.834 259.375C630.834 238.861 613.143 222.5 591.667 222.5C570.192 222.5 552.501 238.861 552.501 259.375ZM373.5 616.876V614.376H371H297.582V541V538.5H295.082H246.918H244.418V541V614.376H171H168.5V616.876V665.948V668.448H171H244.418V741V743.5H246.918H295.082H297.582V741V668.448H371H373.5V665.948V616.876ZM261.667 296.25H445C466.476 296.25 484.167 279.889 484.167 259.375C484.167 238.859 466.476 222.5 445 222.5H261.667C240.191 222.5 222.5 238.859 222.5 259.375C222.5 279.889 240.191 296.25 261.667 296.25ZM261.667 399.375H445C466.476 399.375 484.167 383.014 484.167 362.5C484.167 341.984 466.476 325.625 445 325.625H261.667C240.191 325.625 222.5 341.984 222.5 362.5C222.5 383.014 240.191 399.375 261.667 399.375ZM484.167 465.625C484.167 445.109 466.476 428.75 445 428.75H261.667C240.191 428.75 222.5 445.109 222.5 465.625C222.5 486.139 240.191 502.5 261.667 502.5H445C466.476 502.5 484.167 486.139 484.167 465.625Z" fill="#010101" stroke="#010101" stroke-width="5"/>
</svg>
