<svg width="24" height="24" viewBox="0 0 24 24" fill="none" xmlns="http://www.w3.org/2000/svg">
<path fillRule="evenodd" clipRule="evenodd" d="M4.86167 1.16391C4.24078 1.63652 4.14262 1.79913 4.46333 1.82355C5.1087 1.8727 5.07417 2.72243 4.42513 2.76536C4.10822 2.7863 3.90953 2.62705 3.91374 2.35538C3.91932 1.99729 3.65394 2.21576 3.29754 2.86261C3.17212 3.09034 3.17164 3.08798 3.39365 3.34081C3.99613 4.02712 4.18565 4.12256 4.21121 3.75272C4.23323 3.43396 4.4046 3.27924 4.73469 3.28029C5.30169 3.28209 5.46639 4.11032 4.91531 4.18892C4.86392 4.19625 4.78065 4.20806 4.73034 4.2152C4.41718 4.25969 4.76868 4.58933 5.5307 4.96563L5.66862 5.0338L5.84135 4.90816C5.93638 4.839 6.16404 4.63948 6.3473 4.46475L6.68052 4.14704V4.26659C6.68052 4.77009 7.43091 4.94724 7.7245 4.51309C7.97887 4.13704 7.70159 3.73892 7.20788 3.77124C6.9977 3.78497 6.99641 3.78317 7.11475 3.64143C7.24133 3.48969 7.62111 2.96743 7.67454 2.87149C7.73048 2.7712 7.73062 2.77145 7.38972 2.42864C6.83265 1.86848 6.72572 1.82846 6.72137 2.1786C6.71628 2.58131 6.33588 2.81016 5.95474 2.63972C5.47482 2.4251 5.56618 1.77502 6.07635 1.77502C6.29319 1.77502 6.34628 1.62863 6.18123 1.48609C6.0344 1.35933 5.20645 0.989301 5.09415 1.00024C5.08314 1.00136 4.97846 1.07499 4.86167 1.16391ZM11.4589 1.07865C11.1266 1.16397 10.9025 1.4365 10.9025 1.75514V1.84785H11.1415H11.3805V1.76166C11.3805 1.48845 11.7183 1.36685 11.8845 1.58029C11.9951 1.72214 11.9467 1.84797 11.6983 2.06533L11.5132 2.22732V2.39211C11.5132 2.53241 11.5195 2.55472 11.5552 2.54217C11.5784 2.53409 11.6614 2.52744 11.7399 2.52744C11.8821 2.52744 11.8826 2.52719 11.9002 2.44188C11.9098 2.39484 11.9492 2.33065 11.9876 2.29921C12.0261 2.26777 12.1137 2.19619 12.1824 2.14008C12.7457 1.67971 12.2052 0.886962 11.4589 1.07865ZM18.8683 1.27364C18.1781 1.51504 17.8909 1.74085 18.1853 1.81063C18.4931 1.88351 18.5838 2.17693 18.3615 2.38024C18.1153 2.60524 17.6734 2.47674 17.6734 2.18016C17.6734 1.97249 17.5368 2.08155 17.3378 2.44803C17.1958 2.70956 17.1961 2.71255 17.3783 2.96439C17.7868 3.52859 18.1161 3.72128 18.157 3.42004C18.2246 2.92276 18.9741 2.92052 18.9744 3.41761C18.9745 3.5724 18.8991 3.66542 18.6989 3.75732C18.6241 3.79162 18.5585 3.82343 18.5529 3.82803C18.5474 3.83257 18.5831 3.89365 18.6323 3.9638C18.709 4.07304 18.7232 4.1169 18.7317 4.27044L18.7416 4.44965L18.8643 4.43281C19.3964 4.35986 20.0658 3.97045 20.5925 3.42737L20.7504 3.26451L20.5025 2.95308C20.0999 2.44728 20.0562 2.34016 20.2641 2.36868C20.686 2.42653 20.9795 2.04377 20.7671 1.71251C20.516 1.32093 19.9131 1.45545 19.8605 1.91477L19.8434 2.06477L19.6861 1.88954C19.5996 1.79317 19.4396 1.59694 19.3305 1.4534C19.2214 1.30993 19.1236 1.19299 19.1131 1.19361C19.1026 1.19423 18.9924 1.23021 18.8683 1.27364ZM8.70581 1.58693C8.59548 1.7173 8.72573 1.85263 8.88608 1.77415C8.94427 1.74569 8.9561 1.63186 8.90559 1.58569C8.86386 1.54754 8.73851 1.54829 8.70581 1.58693ZM13.2632 1.6428C13.1403 1.67741 12.8938 1.85207 12.8939 1.90452C12.8939 1.92005 12.9567 1.98175 13.0333 2.04153C13.1099 2.10137 13.1766 2.15866 13.1815 2.16885C13.1863 2.17904 13.225 2.15567 13.2674 2.1169C13.4674 1.93416 13.8081 2.05601 13.7595 2.29287C13.7296 2.43821 13.6085 2.50942 13.3229 2.54969C13.1166 2.5787 13.0418 2.61561 12.9504 2.73318L12.8941 2.80563L12.9803 2.84608C13.0278 2.86832 13.0887 2.9089 13.1159 2.93636L13.1652 2.9862L13.2406 2.93525C13.2968 2.89722 13.3755 2.87982 13.5512 2.86652C13.8257 2.84571 13.9642 2.79121 14.0871 2.65557C14.5294 2.1676 13.9461 1.45054 13.2632 1.6428ZM15.5574 1.66908C15.5355 1.7214 15.5826 1.78714 15.6421 1.78714C15.7017 1.78714 15.7489 1.7214 15.7269 1.66908C15.7051 1.6172 15.5793 1.6172 15.5574 1.66908ZM9.85298 1.89153C9.45416 2.01761 9.28606 2.37694 9.46151 2.72852L9.51942 2.84459L9.70636 2.75853C9.90933 2.66514 9.90927 2.66514 9.85353 2.57603C9.75802 2.4233 9.85339 2.2362 10.0267 2.2362C10.2118 2.2362 10.3056 2.36222 10.2616 2.5518C10.2044 2.79873 10.2041 2.88044 10.2606 2.99701L10.3151 3.10973L10.4561 3.03187C10.5336 2.98899 10.6011 2.95165 10.6061 2.94885C10.6111 2.94599 10.6011 2.90741 10.5837 2.86304C10.5567 2.79357 10.5603 2.76536 10.6098 2.66097C10.8445 2.16574 10.4036 1.71755 9.85298 1.89153ZM11.5517 2.70838C11.4102 2.83775 11.5053 3.03715 11.7085 3.03715C11.9093 3.03715 12.0169 2.82216 11.8765 2.70161C11.7898 2.62711 11.6372 2.63034 11.5517 2.70838ZM12.7201 2.99968C12.5302 3.17323 12.8205 3.42128 13.0165 3.25295C13.0982 3.1828 13.0974 3.08599 13.0146 3.00428C12.9296 2.92046 12.8088 2.91853 12.7201 2.99968ZM10.502 3.13241C10.3791 3.24481 10.4661 3.4498 10.6369 3.4498C10.8439 3.4498 10.9084 3.12532 10.7109 3.07698C10.6085 3.05194 10.5825 3.05884 10.502 3.13241ZM12.2433 3.41451L12.0575 3.52132L11.7786 3.50784C10.0154 3.42221 9.18464 5.48398 10.7306 6.10895L10.8758 6.16767V6.68987V7.21201H11.6851H12.4943L12.5015 6.81843L12.5089 6.42492L12.947 6.29841C13.188 6.22875 13.406 6.17103 13.4316 6.17003C13.4996 6.16749 13.4924 6.13027 13.332 5.65641C13.1545 5.13216 13.1517 5.18752 13.3586 5.12458C13.5692 5.06052 13.5701 5.07878 13.3452 4.85366C13.243 4.75138 13.1594 4.65973 13.1594 4.64992C13.1594 4.59393 13.7533 4.68875 13.7913 4.75083C13.8082 4.77841 13.8347 4.74604 13.8965 4.62239C14.0126 4.39006 14.195 3.96479 14.195 3.92639C14.195 3.87345 13.5953 3.72513 13.1909 3.67803C13.0757 3.66461 12.9954 3.62869 12.7538 3.48286C12.5911 3.38456 12.4514 3.30496 12.4436 3.30589C12.4357 3.30689 12.3455 3.35573 12.2433 3.41451ZM12.5455 3.59961C12.5984 3.62857 12.7193 3.69841 12.8142 3.75477C12.983 3.855 12.993 3.85754 13.2656 3.87041C13.4945 3.88116 13.8749 3.94944 13.9149 3.98691C13.9202 3.99188 13.9067 4.07782 13.8849 4.17798L13.8451 4.35998L13.3894 4.36228C13.0636 4.36396 12.8285 4.37962 12.5646 4.41727C12.3615 4.44623 12.1883 4.46344 12.1796 4.45549C12.1133 4.39484 12.5173 4.19955 12.8208 4.14549C12.9049 4.13057 12.973 4.11262 12.9722 4.10566C12.9708 4.09161 12.4729 3.74837 12.3537 3.67921L12.2782 3.63547L12.3404 3.59172C12.4198 3.53586 12.4301 3.53623 12.5455 3.59961ZM12.0585 3.85158C12.1456 3.87227 12.27 3.91769 12.3349 3.95249L12.453 4.01575L12.3145 4.0639C11.6602 4.29114 11.78 4.74561 12.4948 4.74759L12.7727 4.74834L12.9528 5.29452C13.052 5.59483 13.13 5.85612 13.1263 5.87507C13.119 5.91285 12.9424 5.96691 12.3164 6.12306C12.0936 6.17861 11.9114 6.23391 11.9114 6.24597C11.9114 6.25802 11.9532 6.41964 12.0044 6.60518C12.0555 6.79072 12.0973 6.94855 12.0973 6.95588C12.0973 6.96328 11.8882 6.9693 11.6326 6.9693H11.1679V6.53509V6.10088L11.2624 6.08466C11.3689 6.06639 11.5485 5.93019 11.6104 5.8207C11.649 5.75254 11.6486 5.74968 11.6021 5.76801C11.3986 5.84829 11.2513 5.88066 11.1479 5.86774C10.526 5.79019 10.462 5.04486 11.0683 4.9419C11.2979 4.90294 11.0427 4.38204 10.7696 4.33208C10.6554 4.31121 10.6696 4.27324 10.8481 4.12219C11.1739 3.84642 11.619 3.74694 12.0585 3.85158ZM14.2304 4.46984L14.0153 4.95594L14.1384 5.02038C15.0151 5.47963 15.3822 6.06453 15.1112 6.57076C14.9027 6.96023 14.369 7.13937 13.2337 7.20082L12.9229 7.21766L12.8965 7.34225C12.8819 7.41079 12.8224 7.69388 12.7641 7.97139L12.6582 8.47594L12.779 8.57821C12.8454 8.63445 12.917 8.6895 12.9381 8.70056C12.9702 8.71753 12.9672 8.73486 12.9188 8.8098C12.8611 8.89897 12.358 9.73707 12.0056 10.331C11.9026 10.5045 11.8064 10.6455 11.7918 10.6443C11.7635 10.642 11.641 10.4672 10.9276 9.41048L10.4699 8.73263L10.5601 8.658C10.6096 8.61699 10.6764 8.56703 10.7086 8.54696L10.767 8.51055L10.6466 8.17078C10.5803 7.98388 10.4804 7.69985 10.4245 7.53966L10.3228 7.24842L10.2342 7.25395C8.75985 7.34585 7.50569 7.65262 6.76359 8.1028C5.54402 8.84267 5.16471 10.2082 5.83455 11.4475C6.04209 11.8314 6.00504 11.8205 6.27592 11.5778C6.50004 11.3771 6.80927 11.1339 6.90518 11.0829C6.94937 11.0594 6.94903 11.0498 6.89777 10.8981C6.5097 9.74968 7.2155 8.93376 8.81559 8.68118C9.10041 8.63619 9.04528 8.58163 9.23419 9.09575C9.75686 10.5184 9.89662 11.6725 9.73939 13.2679C9.68508 13.8191 9.68494 13.815 9.7538 13.7609C9.81927 13.7095 10.7288 13.2181 11.4922 12.8217L11.8297 12.6464L12.0764 12.7774C13.2424 13.3964 13.289 13.498 12.1431 12.9231L11.8305 12.7663L11.5855 12.8984C11.4508 12.9711 11.239 13.0849 11.1148 13.1515C10.7951 13.323 10.1756 13.6693 10.1541 13.6886C10.1442 13.6976 10.2009 13.8001 10.2801 13.9165C10.894 14.8192 11.3891 15.9816 11.5905 16.9929C11.6839 17.4622 11.7057 17.4156 11.2884 17.6394C11.0917 17.7448 10.9304 17.8428 10.9299 17.8571C10.9294 17.8714 11.0305 18.0785 11.1547 18.3173C11.4204 18.8286 11.4142 18.7625 11.2496 19.312C10.9273 20.3873 10.8861 20.5177 10.6609 21.1698C10.5893 21.3775 10.5306 21.5593 10.5306 21.5737C10.5306 21.6083 10.5943 21.618 11.2987 21.6914C11.6261 21.7255 11.9036 21.7588 11.9153 21.7654C11.9397 21.7792 11.9717 21.7127 12.1551 21.2657C13.3014 18.4732 13.4089 16.8843 12.6123 14.5114C12.5995 14.4733 12.6113 14.47 12.7127 14.4825C13.2689 14.5512 13.9165 14.6669 14.3543 14.7758C14.7698 14.8792 15.2837 15.0395 15.2837 15.0658C15.2837 15.1586 14.2827 15.9065 13.5468 16.3634C13.3161 16.5066 13.2544 16.5566 13.2619 16.594C13.267 16.6204 13.2772 16.9653 13.2844 17.3607L13.2973 18.0796L13.474 17.9945C15.0678 17.2265 16.6133 16.0544 16.9894 15.3285C17.1734 14.9732 17.09 14.5578 16.7739 14.2565C16.2768 13.7826 14.7153 13.1925 13.3797 12.9738L13.1086 12.9295L13.0912 12.8014C13.0549 12.5365 13.0985 10.8868 13.1561 10.3432C13.3064 8.92382 13.3639 8.4742 13.3952 8.4742C13.6811 8.4742 14.5445 8.30624 14.8987 8.18172C16.8346 7.50113 17.0074 5.4764 15.2234 4.37595C15.0486 4.26808 14.4933 3.98387 14.4574 3.98387C14.4508 3.98387 14.3487 4.20253 14.2304 4.46984ZM16.4029 4.00537C16.3506 4.03569 16.3771 4.11616 16.4423 4.12467C16.5088 4.13343 16.5466 4.06589 16.5024 4.01717C16.4674 3.97865 16.4521 3.97685 16.4029 4.00537ZM22.1672 4.54615C22.1198 4.58946 22.126 4.61064 22.2042 4.67204C22.2978 4.74567 22.2972 4.84875 22.2027 4.92307C22.0464 5.04591 21.8558 4.93935 21.8877 4.74704C21.9179 4.56522 21.7485 4.59468 21.4855 4.81706L21.337 4.94258L21.4278 5.1454C21.5349 5.38437 21.568 5.42352 21.608 5.35859C21.6988 5.21145 21.8505 5.17845 21.9631 5.28129C22.0787 5.38711 22.0142 5.56762 21.8607 5.56762C21.7572 5.56762 21.8489 5.8422 21.9766 5.91434C22.0977 5.98275 22.3673 5.86768 22.2837 5.78323C22.1811 5.67965 22.2813 5.49268 22.422 5.52499C22.5307 5.54991 22.5593 5.58359 22.5593 5.68667C22.5593 5.81523 22.6086 5.82648 22.802 5.74197C23.011 5.65069 23.0151 5.64454 22.9885 5.46689C22.96 5.27638 22.9311 5.24761 22.8364 5.31571C22.6301 5.46403 22.3889 5.22959 22.5739 5.06052C22.6278 5.01124 22.6562 5.00229 22.7133 5.01652C22.9225 5.06872 22.9348 5.02286 22.7922 4.72019L22.7027 4.52999L22.4513 4.52309C22.2785 4.51837 22.1897 4.52558 22.1672 4.54615ZM18.9021 5.27539C18.8211 5.31111 18.8064 5.36816 18.8121 5.62385C18.8178 5.88153 18.7711 5.95927 18.6425 5.9057C18.5574 5.87029 18.5575 5.79566 18.6427 5.76012C18.774 5.70544 18.6971 5.56153 18.5365 5.56153C18.394 5.56153 18.3274 5.6574 18.3473 5.83387L18.3629 5.97275L18.2951 5.94448C18.1766 5.89514 18.1316 6.08373 18.2208 6.25572C18.2694 6.34936 18.2768 6.35085 18.4511 6.30251C18.6108 6.25821 18.7091 6.28486 18.7091 6.37241C18.7091 6.41075 18.6901 6.4376 18.6559 6.44748C18.5729 6.47158 18.5788 6.65383 18.6626 6.65377C18.7587 6.65377 19.059 6.51266 19.1671 6.41678C19.2838 6.3132 19.2902 6.28971 19.2012 6.28971C19.0734 6.28971 19.0397 6.12865 19.1507 6.04874C19.2428 5.98257 19.3044 5.9853 19.4121 6.06036C19.5176 6.13387 19.5214 6.12989 19.5457 5.92068L19.5647 5.758L19.4887 5.7421C19.0692 5.65424 18.939 5.57855 19.1074 5.52045C19.1751 5.49703 19.187 5.48019 19.187 5.40724C19.187 5.27222 19.0516 5.20952 18.9021 5.27539ZM2.74618 5.6566C2.75311 5.76962 2.74237 5.86339 2.71321 5.94367C2.57576 6.32196 1.98083 6.42915 1.9807 6.07559C1.98056 5.7539 1.65509 5.58247 1.35239 5.74464C0.973761 5.94746 1.12916 6.48923 1.54809 6.42709C1.88424 6.37726 1.98559 6.85478 1.69057 7.09836C1.55312 7.21189 1.43022 7.24469 1.19468 7.2309L1 7.21947L1.13854 7.36748C1.21467 7.44888 1.39644 7.62317 1.54245 7.75478L1.8079 7.99407L1.95269 7.97853C2.13799 7.95858 2.5103 7.84463 2.7491 7.73471C2.98097 7.62795 2.98981 7.6282 2.98981 7.74092C2.98981 8.04005 3.28741 8.21248 3.57474 8.07981C3.95052 7.90627 3.86222 7.40625 3.45579 7.40625C3.32507 7.40625 3.3335 7.38574 3.56897 7.1321C3.6831 7.00919 3.81654 6.85677 3.86555 6.79339L3.95466 6.67807L3.86602 6.5628C3.54932 6.15083 2.85977 5.48876 2.74747 5.48876C2.74101 5.48876 2.74047 5.56426 2.74618 5.6566ZM5.63674 5.96567C5.62675 5.9748 5.61846 5.99959 5.61839 6.02072C5.61771 6.1952 5.48461 6.36782 5.28748 6.44977C5.214 6.48035 5.17525 6.50601 5.20142 6.50675C5.36993 6.51173 5.55605 6.68621 5.61988 6.89915L5.65183 7.00578L5.69717 6.8802C5.7746 6.66576 5.85569 6.58492 6.05677 6.52179L6.14928 6.49271L6.00422 6.43772C5.84067 6.37577 5.77222 6.29555 5.69955 6.08087C5.67501 6.00835 5.64673 5.95653 5.63674 5.96567ZM8.08655 6.01221C8.03917 6.0644 7.91647 6.11983 7.84842 6.11983C7.81036 6.11983 7.79479 6.13275 7.80064 6.15966C7.81648 6.23329 7.88975 6.25429 8.01966 6.22248C8.10225 6.20235 8.16078 6.20067 8.20836 6.2172C8.32535 6.25783 8.42636 6.24615 8.47211 6.18656C8.51303 6.13325 8.5116 6.13151 8.41324 6.11337C8.3577 6.10317 8.28028 6.06769 8.24119 6.03451C8.15806 5.96405 8.13345 5.96051 8.08655 6.01221ZM10.5774 7.22947C10.4854 7.24221 10.4856 7.24476 10.5968 7.52518C10.8991 8.28692 11.0507 8.68118 11.3675 9.53009C11.5618 10.0507 11.7348 10.5094 11.752 10.5495L11.7832 10.6223L11.8178 10.5616C11.8369 10.5283 11.8843 10.3863 11.9231 10.2461C11.962 10.1059 12.035 9.84923 12.0853 9.67568C12.4225 8.51316 12.7348 7.33964 12.7348 7.23525C12.7348 7.13918 12.6081 7.22226 12.5944 7.32734C12.5861 7.39078 12.5588 7.54463 12.5338 7.66921L12.4883 7.89583L12.2863 7.71743C12.1752 7.61932 12.034 7.49653 11.9726 7.44453L11.8609 7.34989L11.6805 7.49337C11.5814 7.57228 11.3924 7.73147 11.2608 7.84717L11.0215 8.05757L10.8625 7.63485C10.7751 7.40234 10.6915 7.21375 10.6769 7.21574C10.6624 7.21773 10.6175 7.22388 10.5774 7.22947ZM21.7867 7.26855C21.6081 7.35474 21.5178 7.50548 21.5028 7.74204L21.4909 7.93037L21.2686 7.82493C21.0509 7.72166 20.5462 7.51766 20.3488 7.45329C20.231 7.41489 20.2668 7.38208 19.9407 7.82741C19.605 8.2858 19.6051 8.35626 19.9416 8.36179C20.26 8.36707 20.4615 8.54354 20.4615 8.81695C20.4615 9.41943 19.5188 9.50791 19.4596 8.91096C19.4404 8.71802 19.3801 8.67869 19.2613 8.78153C19.1437 8.88318 18.7274 9.46342 18.7438 9.5025C18.7614 9.54445 19.0951 9.81424 19.4417 10.0667L19.7047 10.2582L19.572 10.2714C18.9169 10.3366 18.9788 11.2409 19.6383 11.2404C20.0031 11.24 20.2196 11.0148 20.1891 10.6673C20.1817 10.5825 20.1808 10.5131 20.1872 10.5131C20.1936 10.5131 20.3386 10.5831 20.5094 10.6686C21.1993 11.014 21.385 11.0878 21.4297 11.0342C21.5594 10.8788 21.952 10.3379 21.9747 10.2834C22.0261 10.1597 21.9756 10.1255 21.7651 10.1416C21.0724 10.1947 20.9452 9.31243 21.6285 9.19337C21.9036 9.1454 22.1866 9.38413 22.1873 9.6648C22.1877 9.82462 22.3154 9.82108 22.4494 9.65747C22.5723 9.50729 22.9044 9.01821 22.9044 8.98745C22.9044 8.95974 22.5562 8.65694 22.2605 8.42747C22.014 8.23621 21.9915 8.20726 22.0898 8.20726C22.1936 8.20726 22.4353 8.07981 22.4995 7.99121C22.8187 7.55072 22.2973 7.02206 21.7867 7.26855ZM17.8226 7.68121C17.7748 7.79572 17.6654 7.89005 17.5764 7.89365C17.5397 7.89514 17.5455 7.90297 17.5991 7.92472C17.7087 7.96921 17.8013 8.05943 17.8361 8.15581L17.8675 8.24286L17.9033 8.14618C17.9433 8.03812 18.0486 7.94025 18.1247 7.94025C18.2078 7.94025 18.2091 7.89862 18.1266 7.88352C18.0431 7.86824 17.9348 7.75422 17.8945 7.63901L17.8697 7.56843L17.8226 7.68121ZM5.06615 7.79945C4.98689 7.8719 5.07485 7.98537 5.17301 7.93733C5.23153 7.90869 5.235 7.80498 5.17817 7.78504C5.1189 7.76428 5.10231 7.7664 5.06615 7.79945ZM11.6473 7.93243C11.7812 8.09454 11.7775 8.0452 11.6858 8.43779C11.6453 8.61133 11.5858 8.87349 11.5535 9.02032C11.497 9.27726 11.4937 9.28415 11.4667 9.20238C11.4514 9.15565 11.3589 8.90468 11.2613 8.64464L11.0839 8.17184L11.292 7.9853C11.543 7.76037 11.5094 7.7654 11.6473 7.93243ZM12.4421 8.06509C12.4424 8.08696 12.395 8.28362 12.3368 8.50197C12.2786 8.72032 12.2308 8.9181 12.2306 8.94147C12.2304 8.96483 12.2183 8.98397 12.2037 8.98397C12.1891 8.98397 12.1772 8.9616 12.1772 8.93432C12.1772 8.90704 12.1354 8.71411 12.0842 8.50551C11.9696 8.03762 11.9686 8.06788 12.1019 7.91378L12.2125 7.78584L12.3271 7.90552C12.3901 7.97132 12.4419 8.04315 12.4421 8.06509ZM7.19218 9.07494C7.01204 9.24917 6.81471 9.5176 6.73511 9.69681C6.67386 9.83481 6.60711 9.8867 6.63871 9.7718C6.71322 9.50027 6.88431 9.25246 7.12808 9.06282C7.34343 8.89536 7.37232 8.90083 7.19218 9.07494ZM15.2943 9.63715C15.1107 10.0389 15.0579 10.3606 15.1776 10.3487C15.5073 10.3158 15.509 10.3159 15.5975 10.3666C15.8866 10.5325 15.7394 10.9989 15.398 10.9985C15.3057 10.9983 15.1683 10.9238 15.1097 10.8419C14.9953 10.6824 14.9439 10.7807 14.9072 11.2287C14.8699 11.6826 14.8324 11.6288 15.2929 11.7819C15.714 11.9221 15.769 11.9311 15.8465 11.873L15.9079 11.827L15.842 11.712C15.6922 11.4502 15.8495 11.1834 16.1539 11.1834C16.5514 11.1834 16.7174 11.6418 16.385 11.821C16.2722 11.8819 16.2685 11.9511 16.3741 12.0228C16.4317 12.062 16.5065 12.0712 16.8654 12.0834L17.2887 12.0977L17.4005 11.8091C17.6101 11.2679 17.609 11.2329 17.384 11.3012C17.1592 11.3695 16.963 11.2862 16.9007 11.0962C16.7925 10.7661 17.2057 10.5184 17.4667 10.757C17.6311 10.9073 17.6769 10.845 17.7269 10.4039C17.7435 10.257 17.7631 10.1174 17.7705 10.0937C17.7998 9.99966 16.9354 9.69879 16.7863 9.75111C16.7342 9.76938 16.7331 9.87315 16.7841 9.95486C16.9109 10.1575 16.7472 10.3917 16.4788 10.3917C16.1145 10.3917 15.9695 10.0489 16.2398 9.82704C16.4797 9.63026 16.3593 9.57191 15.6869 9.55905L15.3331 9.55228L15.2943 9.63715ZM8.33962 9.94007C8.2643 10.1204 8.29802 10.1561 8.41331 10.0181C8.529 9.87955 8.53777 9.83344 8.44832 9.83344C8.39693 9.83344 8.37524 9.85476 8.33962 9.94007ZM3.65863 9.87632C3.60934 9.89136 3.62083 9.96673 3.67984 10.0155C3.75808 10.0803 3.74781 10.1876 3.6553 10.2723C3.45728 10.4533 3.17715 10.2446 3.3112 10.0159C3.40134 9.86228 3.26865 9.84401 2.87323 9.95567L2.69737 10.0053V10.2699C2.69737 10.5627 2.70587 10.5798 2.81851 10.5119C2.92217 10.4494 2.96948 10.4523 3.06703 10.5274C3.28904 10.6981 3.04616 11.0152 2.8094 10.8636C2.7145 10.8028 2.69737 10.8399 2.69737 11.1055V11.3551L2.88988 11.4056C3.27653 11.507 3.46428 11.4917 3.36619 11.3667C3.18272 11.1327 3.46272 10.8691 3.68188 11.0695C3.77697 11.1565 3.78003 11.2307 3.69289 11.3387C3.56292 11.4996 3.71138 11.518 4.15948 11.3963C4.27925 11.3638 4.29387 11.3529 4.28014 11.3063C4.24791 11.1973 4.20108 10.8538 4.21651 10.8397C4.22528 10.8316 4.26885 10.8422 4.31331 10.8632C4.48277 10.9433 4.63334 10.8842 4.68582 10.717C4.7525 10.5043 4.47815 10.3487 4.28333 10.4888C4.24615 10.5155 4.20869 10.5374 4.20006 10.5374C4.17865 10.5374 4.18368 10.2629 4.20801 10.107L4.22779 9.98009L4.10646 9.94386C3.96466 9.90155 3.70458 9.86234 3.65863 9.87632ZM7.32582 10.0189C7.3142 10.0466 7.35084 10.0945 7.44614 10.1763C7.55912 10.2733 7.58318 10.2853 7.58318 10.2448C7.58318 10.0864 7.37436 9.90316 7.32582 10.0189ZM7.91416 10.2974C7.88799 10.3727 7.95426 10.4274 8.01925 10.384C8.05956 10.357 8.06255 10.3425 8.03699 10.2988C7.99777 10.2317 7.93713 10.2311 7.91416 10.2974ZM7.13685 10.7134L7.145 10.8165L7.9217 10.8229L8.6984 10.8294V10.7198V10.6102H7.91355H7.12869L7.13685 10.7134ZM7.08342 11.0044C7.08824 11.0354 7.12393 11.0728 7.16655 11.0913C7.23093 11.1195 7.23881 11.1338 7.22406 11.1952C7.18423 11.361 7.50297 11.5038 7.96249 11.5261C8.27368 11.5411 8.28606 11.5465 8.25968 11.6562C8.23099 11.7756 8.11516 11.8236 7.85536 11.8237C7.59922 11.8238 7.57679 11.8517 7.7279 11.982C7.91701 12.1451 8.20883 12.2217 8.53689 12.1945C8.71737 12.1796 8.73287 12.1972 8.61452 12.2828C8.13413 12.6303 7.25404 12.5017 6.80118 12.018C6.60269 11.806 6.59786 11.8313 6.88044 11.6033C7.16173 11.3764 7.15139 11.392 7.07723 11.3058L7.02271 11.2425L6.7918 11.4217C6.66475 11.5203 6.49678 11.6609 6.4184 11.7342L6.27599 11.8673L6.50331 12.1453C7.10177 12.8773 7.77025 13.0883 8.47972 12.769C9.18695 12.4508 9.37164 11.615 8.81355 11.2582C8.58502 11.1121 8.59521 11.1288 8.69174 11.0581C8.83646 10.9523 8.82021 10.95 7.92653 10.95H7.07492L7.08342 11.0044ZM11.9856 11.2913C11.9956 11.3985 11.9151 11.484 11.8041 11.484C11.5825 11.484 11.5487 11.1826 11.7653 11.1383C11.8628 11.1184 11.9768 11.1976 11.9856 11.2913ZM8.54172 11.3416C8.75278 11.4061 8.88275 11.5963 8.88371 11.842C8.88425 11.9848 8.88065 11.9937 8.82246 11.9937C8.76984 11.9937 8.7623 11.9836 8.77168 11.9253C8.79914 11.7541 8.62771 11.4911 8.4267 11.3961C8.29115 11.3321 8.37708 11.2914 8.54172 11.3416ZM11.9445 12.0703C12.0841 12.221 11.8795 12.4318 11.7032 12.3189C11.6198 12.2655 11.5868 12.1777 11.6229 12.1053C11.6809 11.9889 11.852 11.9702 11.9445 12.0703ZM1.98804 12.1869C1.84807 12.2649 1.77602 12.4512 1.81021 12.6467C1.83937 12.8133 1.9153 12.7827 1.93672 12.5956C1.96268 12.3683 2.07981 12.2372 2.28333 12.2074C2.31127 12.2033 2.3392 12.1864 2.34525 12.1697C2.36408 12.118 2.08776 12.1313 1.98804 12.1869ZM20.6204 12.312C20.6204 12.5474 20.8042 12.7021 21.0717 12.692C21.2397 12.6857 21.3112 12.6439 21.178 12.63C20.9632 12.6076 20.807 12.492 20.7564 12.3177C20.7253 12.211 20.6204 12.2066 20.6204 12.312ZM18.0103 12.4064C18.0029 12.4264 17.9817 12.4959 17.9633 12.5609C17.9219 12.7072 17.8285 12.8115 17.6877 12.8688C17.623 12.8951 17.6 12.9133 17.63 12.9143C17.7721 12.9192 17.9441 13.0928 17.98 13.2676C18.0005 13.3677 18.0444 13.4057 18.0452 13.3241C18.0469 13.1663 18.2275 12.9607 18.3938 12.9274L18.4788 12.9103L18.3439 12.8517C18.1862 12.7833 18.1303 12.7149 18.0688 12.5155C18.0441 12.4354 18.0178 12.3863 18.0103 12.4064ZM4.84733 13.1873C4.52941 13.2101 4.2609 13.2517 4.21719 13.2848C4.13521 13.347 4.17871 13.4354 4.32228 13.4986C4.86963 13.7393 4.54069 14.4706 3.95052 14.3253C3.65135 14.2517 3.50548 13.9729 3.61716 13.6882C3.73768 13.3807 3.31779 13.4808 2.63062 13.9234C2.39338 14.0761 2.3876 14.0854 2.43315 14.2354L2.46163 14.329L2.51655 14.2751C2.83115 13.9664 3.36035 14.1768 3.36035 14.6105C3.36035 14.9249 3.1089 15.0759 2.72014 14.995C2.59065 14.9681 2.57542 15.012 2.64748 15.2047C2.83061 15.6945 3.23921 16.3287 3.69058 16.824C3.87404 17.0254 3.81606 17.0196 4.28238 16.8824C4.82619 16.7223 4.92326 16.6019 4.60853 16.4778C4.28639 16.3507 4.18368 15.9927 4.40365 15.7637C4.80396 15.3469 5.54701 15.7273 5.32738 16.2365C5.23928 16.4409 5.26811 16.5083 5.44382 16.5083C5.50725 16.5083 6.612 16.0908 6.66128 16.0482C6.70581 16.0097 6.39454 14.9621 6.32235 14.9074C6.242 14.8464 6.16934 14.887 6.13474 15.012C5.99539 15.5159 5.16927 15.3162 5.16655 14.778C5.16505 14.4708 5.43594 14.2798 5.78106 14.345C6.10041 14.4053 6.09334 14.3067 5.73096 13.6482L5.46843 13.1709L5.28401 13.1701C5.18259 13.1696 4.98607 13.1773 4.84733 13.1873ZM19.4133 13.9029C19.347 14.059 19.1721 14.5417 19.1034 14.7587C19.0017 15.0799 18.9967 15.084 18.9089 14.9198C18.6565 14.4483 17.9059 14.6378 17.9059 15.1731C17.9059 15.5716 18.2894 15.7749 18.6916 15.5894C18.876 15.5044 18.8734 15.5005 18.8097 15.768C18.7811 15.8882 18.7303 16.1339 18.6969 16.3141L18.6362 16.6419L18.7716 16.7055C18.9605 16.7944 19.4853 16.9829 19.6809 17.0321C19.9845 17.1085 20.0764 17.0334 19.9541 16.8088C19.7533 16.4403 19.9597 16.0957 20.3812 16.0957C20.934 16.0957 21.1252 16.7447 20.6396 16.9724C20.5086 17.0338 20.4949 17.1364 20.6056 17.2276C20.6867 17.2944 21.2203 17.3832 21.7047 17.4106L21.8206 17.4171L21.9263 17.1872C22.2283 16.5303 22.2792 16.2519 22.0756 16.3709C21.7183 16.5796 21.3101 16.3603 21.3101 15.9597C21.3101 15.4933 21.9012 15.2894 22.181 15.6592C22.3137 15.8348 22.3974 15.7698 22.4626 15.4404C22.5248 15.1263 22.5898 14.6624 22.5761 14.63C22.5455 14.5568 21.5794 14.154 21.4348 14.154C21.2887 14.154 21.2425 14.2759 21.3409 14.4021C21.5148 14.6254 21.3528 14.9909 21.0573 15.0415C20.4796 15.1406 20.154 14.547 20.6187 14.2418C20.7864 14.1317 20.8008 14.0337 20.6594 13.9657C20.5069 13.8925 19.4406 13.8387 19.4133 13.9029ZM8.03611 14.1115C8.02387 14.1415 8.01925 14.1789 8.02571 14.1945C8.05772 14.2714 8.21937 14.2408 8.21937 14.1579C8.21937 14.056 8.0737 14.0191 8.03611 14.1115ZM16.2504 15.7862C16.0399 16.0002 15.9799 16.0552 15.9065 16.1014C15.8626 16.129 15.9341 16.0516 16.0652 15.9295C16.2996 15.7111 16.4028 15.6313 16.2504 15.7862ZM1.46278 16.4333C1.43967 16.4676 1.4759 16.5326 1.51812 16.5326C1.57141 16.5326 1.59609 16.4592 1.55149 16.4334C1.50391 16.4059 1.48134 16.4059 1.46278 16.4333ZM7.78099 16.8701C7.36185 16.9387 7.40624 16.8887 7.38462 17.316C7.37436 17.5192 7.35947 17.7101 7.35158 17.7401L7.33717 17.7947L7.28456 17.7335C6.99811 17.4006 6.48271 17.7346 6.67753 18.1269C6.76692 18.3069 6.94563 18.3491 7.1724 18.2439C7.24425 18.2106 7.30903 18.1833 7.3163 18.1832C7.32365 18.1832 7.32555 18.3468 7.32052 18.547C7.30991 18.9732 7.26287 18.9215 7.74116 19.0093C8.17689 19.0893 8.28524 19.0501 8.14888 18.8618C8.05929 18.738 8.07431 18.6139 8.19048 18.5181C8.49841 18.2644 8.91171 18.6168 8.63906 18.9006C8.47639 19.07 8.62172 19.113 9.13569 19.0475C9.47734 19.004 9.42935 19.0502 9.50719 18.6901C9.60711 18.2275 9.59542 18.161 9.4303 18.2542C9.19844 18.3852 8.90933 18.2429 8.90967 17.9979C8.91015 17.7137 9.21339 17.5714 9.44573 17.7464C9.60344 17.8652 9.62648 17.8205 9.62648 17.3954V17.048L9.4074 16.9844C8.81383 16.8119 8.54824 16.8319 8.72369 17.0357C8.82341 17.1516 8.77243 17.3672 8.63144 17.426C8.29394 17.5665 7.9909 17.2264 8.24017 16.9868C8.39475 16.8383 8.23059 16.7966 7.78099 16.8701ZM17.5179 17.387C17.4727 17.4283 17.4783 17.4653 17.537 17.5138C17.589 17.5569 17.6985 17.5011 17.6985 17.4316C17.6985 17.3751 17.5665 17.3425 17.5179 17.387ZM1.76643 17.819C1.76643 17.8514 1.78411 17.8676 1.81952 17.8676C1.85494 17.8676 1.87261 17.8514 1.87261 17.819C1.87261 17.7867 1.85494 17.7705 1.81952 17.7705C1.78411 17.7705 1.76643 17.7867 1.76643 17.819ZM3.66495 17.9938C3.63579 18.0215 3.43859 18.1804 3.22684 18.3467C2.77038 18.7052 2.79458 18.6628 2.79132 19.1105C2.78805 19.5578 2.81354 19.6042 2.98491 19.4628C3.11366 19.3564 3.23541 19.3305 3.36803 19.3812C3.68255 19.5013 3.59514 19.8822 3.25301 19.8822C3.09096 19.8822 3.08117 19.9183 3.21433 20.0252C3.45871 20.2213 4.03175 20.3857 4.17729 20.3015C4.57148 20.0731 4.66991 19.9447 4.64429 19.6927C4.60608 19.3165 5.08525 19.2239 5.20047 19.5851C5.27218 19.8099 5.43342 19.745 5.52594 19.454C5.65781 19.0393 5.22467 18.3668 4.85121 18.4062C4.77398 18.4144 4.7729 18.4211 4.80899 18.6741C4.82388 18.779 4.81837 18.7952 4.74503 18.8622C4.49746 19.0885 4.07702 18.772 4.30141 18.5283C4.41493 18.4049 4.38829 18.3553 4.15295 18.2521C4.00993 18.1894 3.92068 18.1307 3.84862 18.0519C3.73252 17.9249 3.73619 17.9261 3.66495 17.9938ZM15.9191 18.23C15.884 18.252 15.8847 18.264 15.9257 18.3302C16.0506 18.5326 15.8157 18.6977 15.6363 18.5336C15.5678 18.471 15.5643 18.4312 15.6143 18.2863C15.6371 18.2204 15.5684 18.215 15.3354 18.2647C15.1991 18.2938 15.1885 18.3013 15.1668 18.3851C15.1466 18.463 15.1337 18.4744 15.0654 18.4744C14.9102 18.4744 14.7961 18.659 14.8703 18.7901C14.9118 18.8634 15.0201 18.8916 15.0561 18.8385C15.0843 18.7967 15.2262 18.812 15.2818 18.8628C15.3982 18.9691 15.3102 19.1528 15.1424 19.1536C15.0451 19.1541 15.0493 19.1726 15.1853 19.3395C15.3857 19.5853 15.4453 19.6248 15.6068 19.6182C15.7709 19.6114 15.8119 19.5855 15.7657 19.5178C15.6431 19.3384 15.9454 19.1734 16.0986 19.3362C16.1637 19.4055 16.1685 19.4791 16.1161 19.6007C16.0875 19.6669 16.2572 19.6428 16.5315 19.5417C16.7715 19.4533 16.7656 19.4662 16.7144 19.1424C16.6801 18.9255 16.6563 18.9044 16.5576 19.0032C16.4484 19.1125 16.2991 19.1139 16.2002 19.0065C16.0507 18.844 16.1868 18.6468 16.416 18.694C16.4908 18.7095 16.5114 18.7031 16.5563 18.651L16.6088 18.5899L16.5317 18.5018C16.3106 18.2492 16.0632 18.1394 15.9191 18.23ZM12.827 18.4441C12.7998 18.6898 12.6867 19.1848 12.6149 19.3726C12.58 19.4639 12.5584 19.5449 12.5668 19.5526C12.5753 19.5603 12.5635 19.5666 12.5408 19.5666C12.504 19.5666 12.5049 19.5445 12.5491 19.3664C12.5763 19.2563 12.6355 19.0078 12.6807 18.8142C12.8148 18.2387 12.8633 18.1161 12.827 18.4441ZM18.2956 18.5834C17.9454 18.6958 17.8941 19.1006 18.2159 19.2112C18.4346 19.2863 18.4283 19.2797 18.4281 19.4362C18.4277 19.6002 18.3426 19.7486 18.0662 20.0665C17.9806 20.165 17.9106 20.2616 17.9106 20.2813C17.9106 20.4097 18.4606 21.2158 18.6039 21.2975C18.6364 21.316 18.7155 21.2897 18.9358 21.1869C19.4967 20.925 19.6361 20.9184 19.6317 21.1542C19.6256 21.479 19.8886 21.6367 20.2074 21.4993C20.6481 21.3093 20.5804 20.7802 20.1153 20.7802C19.8773 20.7802 20.138 20.2908 20.5678 19.9307L20.6981 19.8215L20.4041 19.4574C20.2424 19.2572 20.0942 19.0732 20.0748 19.0485C20.041 19.0055 20.0353 19.0064 19.9376 19.0672C19.4368 19.3791 18.7683 19.3324 18.8382 18.9904C18.9035 18.6711 18.6395 18.473 18.2956 18.5834ZM21.6324 19.1685C21.5436 19.2254 21.5612 19.3508 21.6626 19.3832C21.8109 19.4306 21.9354 19.2634 21.817 19.1757C21.7413 19.1197 21.7105 19.1184 21.6324 19.1685ZM19.4916 19.508C19.8107 19.6465 19.6853 20.0757 19.3254 20.0762C19.0376 20.0766 18.8979 19.7542 19.1074 19.573C19.2297 19.4673 19.3505 19.4469 19.4916 19.508ZM14.3884 20.8655C14.3651 20.921 14.4298 20.9821 14.4754 20.9475C14.5241 20.9106 14.5213 20.8616 14.4697 20.8436C14.4108 20.8229 14.4058 20.8242 14.3884 20.8655ZM5.73164 20.9179C5.63198 20.9366 5.49195 21.0776 5.43152 21.2202C5.31922 21.4851 5.21155 21.5299 4.68167 21.5317C4.37034 21.5327 4.32752 21.5438 4.35756 21.6155C4.37143 21.6484 4.43274 21.654 4.77589 21.6539C5.37537 21.6537 5.47863 21.6113 5.60282 21.3142C5.70336 21.0738 5.7886 21.0165 6.08076 20.993C6.13079 20.989 6.16043 20.973 6.16043 20.9502C6.16043 20.9134 5.87187 20.8917 5.73164 20.9179ZM6.54545 20.9623C6.54545 20.9823 6.5634 20.9987 6.58529 20.9987C6.60717 20.9987 6.62512 20.9823 6.62512 20.9623C6.62512 20.9423 6.60717 20.9259 6.58529 20.9259C6.5634 20.9259 6.54545 20.9423 6.54545 20.9623ZM8.13957 20.9729C8.10225 21.0366 8.1049 21.0615 8.15384 21.1062C8.25057 21.1946 8.4163 21.0858 8.35206 20.976C8.31318 20.9097 8.17777 20.9076 8.13957 20.9729ZM16.4381 21.2067C16.3488 21.2884 16.4145 21.4356 16.5402 21.4356C16.6129 21.4356 16.6885 21.3654 16.6885 21.2979C16.6885 21.1903 16.5224 21.1298 16.4381 21.2067ZM10.6078 21.8316C10.6078 21.8511 10.4195 22.6838 10.4139 22.6889C10.4012 22.7005 9.39564 22.7216 8.12502 22.737C7.40943 22.7456 6.78806 22.7554 6.74428 22.7587C6.70044 22.762 6.10897 22.7727 5.42989 22.7825C4.7508 22.7923 4.18755 22.8044 4.17824 22.8094C4.16899 22.8145 3.84638 22.8198 3.46136 22.8214C3.07627 22.8229 2.64177 22.8323 2.49575 22.8422L2.23024 22.8602L2.4825 22.8648C2.62124 22.8674 2.89607 22.8745 3.0932 22.8807C3.55768 22.8954 5.60969 22.9359 6.79737 22.9537C7.30855 22.9614 7.79846 22.9726 7.88608 22.9785C8.20727 23.0003 14.2749 23.0085 15.6531 22.989C17.6349 22.961 21.1704 22.8948 21.4417 22.8806C21.5658 22.8741 21.7869 22.867 21.9329 22.8649L22.1985 22.8611L21.986 22.8429C21.8692 22.8329 21.194 22.8176 20.4857 22.809C19.7774 22.8003 19.0486 22.7884 18.866 22.7825C18.408 22.768 16.0281 22.732 13.9167 22.7077L12.6451 22.6931L12.443 22.5956C11.5649 22.1721 11.5024 22.131 11.577 22.027C11.6234 21.9623 11.602 21.9224 11.5202 21.9214C11.5036 21.9212 11.3124 21.8993 11.0954 21.8727C10.7059 21.8249 10.6079 21.8167 10.6079 21.8316M11.2387 22.6503L11.3381 22.6998L11.221 22.6928C11.1334 22.6874 11.1023 22.6749 11.0973 22.6432C11.0886 22.5882 11.1169 22.5896 11.2387 22.6503Z"/>
</svg>
