<svg width="1000" height="1000" viewBox="0 0 1000 1000" fill="none" xmlns="http://www.w3.org/2000/svg">
<g id="Backward_-_Grey">
<path id="path0" fill-rule="evenodd" clip-rule="evenodd" d="M271.803 277.011C264.75 279.585 261.261 282.358 257.703 288.224C254.852 292.924 254.78 298.52 255.169 485.462L255.57 677.863L260.027 682.78C265.885 689.24 276.091 693.055 285.477 692.292C298.437 691.24 732.411 509.082 739.251 501.824C747.387 493.192 746.842 481.683 737.905 473.361C732.058 467.916 730.488 467.187 633.285 424.75C601.063 410.682 565.681 395.224 554.658 390.397C543.636 385.571 514.151 372.724 489.136 361.849C448.326 344.106 409.619 327.239 336.508 295.335C323.366 289.599 307.55 282.667 301.361 279.932C288.912 274.427 281.021 273.647 271.803 277.011ZM372.336 438.697L372.739 489.603L376.979 490.013L381.218 490.424V448.835C381.218 408.209 381.288 407.246 384.28 407.246C387.261 407.246 387.352 408.323 387.749 448.425L388.155 489.603L392.394 490.013L396.634 490.424V469.587C396.634 449.614 396.762 448.748 399.718 448.748C402.668 448.748 402.801 449.614 402.801 468.764C402.801 487.61 402.981 488.828 405.871 489.599C411.053 490.983 412.051 489.189 412.051 478.503C412.051 464.967 416.529 462.944 416.904 476.309C417.293 490.109 417.121 489.587 421.301 489.624C426.562 489.67 427.235 487.762 427.36 472.459C427.524 452.346 431.814 454.611 432.43 475.135L432.865 489.603H436.719C440.15 489.603 440.625 488.999 441.047 484.091C441.728 476.182 447.51 475.891 447.51 483.766C447.51 487.513 448.153 488.954 449.824 488.954C451.095 488.954 452.657 488.957 453.293 488.959C453.928 488.962 454.796 479.485 455.219 467.899C455.905 449.17 456.29 446.787 458.688 446.4C461.169 445.999 461.386 447.68 461.386 467.312V488.66L465.904 489.218C471.949 489.964 472.131 489.15 472.156 461.393C472.175 441.803 472.522 438.373 474.491 438.373C476.467 438.373 476.803 442.048 476.803 463.663C476.803 479.551 477.375 489.015 478.344 489.117C485.736 489.894 485.252 492.233 485.692 453.612C486.089 418.796 486.201 417.622 489.136 417.622C492.072 417.622 492.185 418.796 492.581 453.612L492.991 489.603H496.845C500.608 489.603 500.71 489.351 501.146 478.903C501.55 469.27 501.896 468.203 504.615 468.203C507.378 468.203 507.636 469.144 507.636 479.227C507.636 490.055 507.704 490.251 511.406 490.251C514.809 490.251 515.222 489.652 515.646 484.102C516.32 475.272 521.512 474.249 521.512 482.947C521.512 489.429 522.47 490.476 527.411 489.389C530.632 488.68 530.762 488.006 530.762 471.942C530.762 456.18 530.934 455.233 533.801 455.233C536.65 455.233 536.866 456.304 537.27 472.418L537.7 489.603L541.939 490.013L546.179 490.424V467.64C546.179 445.814 546.307 444.858 549.226 444.858C552.127 444.858 552.293 445.931 552.695 467.23L553.117 489.603H556.971C560.466 489.603 560.897 488.998 561.596 483.118C562.654 474.216 566.79 473.988 567.462 482.793C568.017 490.072 577.014 492.821 577.014 485.711C577.014 483.118 577.784 482.47 580.867 482.47C584.105 482.47 584.721 483.08 584.721 486.283C584.721 489.644 585.225 490.063 588.96 489.824L593.2 489.553L593.64 476.284C594.044 464.084 594.324 463.015 597.109 463.015C599.919 463.015 600.138 463.957 600.138 475.985V488.954H604.419C608.483 488.954 608.669 488.692 608.111 483.766C607.594 479.2 607.911 478.578 610.768 478.578C613.936 478.578 614.458 479.736 614.426 486.685C614.418 488.398 615.686 488.954 619.61 488.954C623.778 488.954 624.805 488.441 624.805 486.36C624.805 484.632 625.834 483.766 627.89 483.766C629.944 483.766 630.972 484.632 630.972 486.36C630.972 488.612 632 488.954 638.772 488.954C643.098 488.954 646.183 489.483 645.7 490.141C645.22 490.794 641.883 491.247 638.286 491.146C632.618 490.99 631.677 491.351 631.25 493.85C630.621 497.537 624.805 497.897 624.805 494.25C624.805 491.49 622.348 490.369 618.253 491.262C616.668 491.608 615.555 493.082 615.555 494.835C615.555 499.169 613.994 501.924 611.536 501.924C610.058 501.924 609.388 500.306 609.388 496.736C609.388 491.836 609.132 491.548 604.764 491.548H600.138V503.221C600.138 514.029 599.911 514.893 597.055 514.893C594.2 514.893 593.972 514.029 593.972 503.221V491.548H589.347C585.441 491.548 584.721 492.053 584.721 494.791C584.721 497.158 583.897 498.033 581.667 498.033C579.696 498.033 578.271 496.884 577.645 494.791C575.916 488.991 568.078 490.232 567.47 496.401C566.78 503.409 561.98 503.984 561.309 497.14C560.888 492.831 560.281 492.144 556.586 491.786L552.346 491.376V512.214C552.346 532.187 552.218 533.051 549.262 533.051C546.307 533.051 546.179 532.187 546.179 512.299V491.548H541.553H536.929V504.518C536.929 514.696 536.47 517.487 534.797 517.487C531.85 517.487 530.808 513.36 530.783 501.599L530.762 491.548H526.138C521.636 491.548 521.512 491.716 521.512 497.817C521.512 506.495 517.596 506.495 516.228 497.817C515.349 492.243 514.817 491.548 511.438 491.548C507.735 491.548 507.636 491.8 507.636 501.276C507.636 510.137 507.362 511.003 504.553 511.003C501.744 511.003 501.47 510.137 501.47 501.276V491.548H496.845H492.22V523.833C492.22 550.334 491.833 556.243 490.057 556.816C486.242 558.048 486.053 556.49 486.053 523.755V491.548H482.37C477.263 491.548 476.384 496.58 477.717 518.187C478.781 535.456 478.757 535.644 475.485 535.644C472.284 535.644 472.173 535.114 472.025 519.109C471.942 510.014 471.724 501.405 471.54 499.978C471.355 498.552 471.077 496.071 470.92 494.466C470.694 492.142 469.695 491.548 466.012 491.548H461.386V512.948C461.386 533.483 461.262 534.347 458.303 534.347C455.344 534.347 455.219 533.483 455.219 512.948V491.548H451.365C447.72 491.548 447.51 491.937 447.51 498.681C447.51 504.95 447.137 505.814 444.427 505.814C441.717 505.814 441.344 504.95 441.344 498.681C441.344 491.62 441.297 491.548 436.719 491.548H432.094V505.166C432.094 516.406 431.69 518.784 429.781 518.784C427.898 518.784 427.468 516.634 427.468 507.218C427.468 493.492 426.778 491.548 421.908 491.548C418.471 491.548 418.218 492.028 418.218 498.576C418.218 512.756 412.461 514.867 411.737 500.951C411.295 492.474 411.147 492.184 407.041 491.786L402.801 491.376V512.075C402.801 528.636 402.369 532.913 400.64 533.471C396.92 534.672 396.634 533.147 396.634 512.084V491.548H392.01H387.384V529.045C387.384 564.018 387.203 566.519 384.687 566.209C382.2 565.903 381.956 562.959 381.579 528.628L381.171 491.38L376.955 491.788L372.739 492.196L372.334 540.509C371.985 582.259 371.619 588.82 369.636 588.82C367.188 588.82 366.133 559.266 367.112 518.145C367.66 495.214 366.938 491.548 361.877 491.548H358.092V514.244C358.092 536.077 357.975 536.942 355.009 536.942C352.043 536.942 351.925 536.077 351.925 514.244V491.548H347.301H342.675V518.136C342.675 543.858 342.575 544.724 339.592 544.724C336.609 544.724 336.508 543.858 336.508 518.136V491.548H331.884H327.258V502.573C327.258 518.423 322.972 518.704 322.31 502.896C321.867 492.294 321.823 492.193 317.623 491.786C313.545 491.391 313.384 491.602 313.384 497.299C313.384 505.789 307.646 506.153 306.919 497.709C306.336 490.925 297.966 488.117 297.966 494.704C297.966 497.169 297.165 498.033 294.883 498.033C292.621 498.033 291.799 497.169 291.799 494.791C291.799 491.949 291.132 491.548 286.404 491.548C283.436 491.548 281.008 490.964 281.008 490.251C281.008 489.538 283.436 488.954 286.404 488.954C290.172 488.954 291.799 488.367 291.799 487.009C291.799 484.034 298.98 484.525 299.926 487.564C301.446 492.453 306.398 489.911 306.919 483.974C307.616 476.055 312.996 476.14 313.68 484.081C314.1 488.962 314.585 489.585 317.972 489.594C322.066 489.604 321.831 490.341 322.397 475.66C322.827 464.462 327.045 467.629 327.579 479.551C328.046 489.99 327.943 489.855 334.967 489.117C335.942 489.013 336.508 478.47 336.508 460.421C336.508 432.845 336.611 431.888 339.562 431.888C342.502 431.888 342.632 432.963 343.031 460.745L343.446 489.603H347.301H351.155L351.575 465.933C351.975 443.338 352.133 442.264 355.044 442.264C357.971 442.264 358.092 443.22 358.092 466.258C358.092 489.511 358.189 490.251 361.224 490.251C366.945 490.251 367.093 488.868 367.227 434.158C367.327 394.012 367.65 387.792 369.637 387.792C371.623 387.792 371.987 394.641 372.336 438.697ZM564.679 604.835C564.679 605.131 553.926 631.755 540.783 664.001C527.641 696.248 516.887 723.164 516.887 723.816C516.887 724.467 524.024 725 532.746 725H548.606L553.674 711.997L558.739 698.994L582.136 699.352L605.534 699.709L610.714 712.354L615.894 725H631.912C640.722 725 647.931 724.578 647.931 724.062C647.931 723.176 624.187 664.813 607.155 623.838L599.338 605.032L582.009 604.665C572.478 604.463 564.679 604.54 564.679 604.835ZM590.116 655.538C599.147 680.48 599.882 678.309 582.409 678.309C565.676 678.309 566.258 678.899 570.712 666.449C572.334 661.916 575.5 653.039 577.747 646.724C579.995 640.41 582.136 635.496 582.505 635.808C582.875 636.118 586.299 644.997 590.116 655.538Z" fill="black"/>
</g>
</svg>
