<svg width="24" height="24" fill="none" xmlns="http://www.w3.org/2000/svg">
<path fillRule="evenodd" clipRule="evenodd" d="M11.559 1.034c-.855.14-1.564.621-1.844 1.252-.096.216-.116.297-.283 1.171-.192 1.01-.03.923-1.745.94-1.564.015-1.63.03-1.67.396-.033.305.446.859.882 1.02l.168.062h4.927c4.907-.002 4.928-.002 5.08-.054.271-.093.579-.357.801-.688.172-.256.103-.542-.16-.666-.121-.057-.141-.058-1.42-.07-1.694-.017-1.532.073-1.737-.96-.19-.958-.235-1.103-.433-1.406-.479-.73-1.58-1.159-2.566-.997Zm.858.715c.864.337.553 1.28-.423 1.282-.537 0-.92-.282-.92-.682-.002-.528.71-.847 1.343-.6ZM1.837 2.803c-.323.061-.585.22-.739.449L1 3.398v18.958l.109.167c.134.206.338.352.591.423l.192.054 10.146-.006 10.146-.007.152-.053c.307-.107.521-.296.617-.545.047-.123.052-1.065.044-9.563l-.009-9.428-.078-.119a1.133 1.133 0 0 0-.535-.416l-.191-.071-3.645-.007c-2.005-.004-3.645.003-3.645.015s.017.085.037.162l.038.141.49.01c.794.015 1.248.278 1.331.771l.023.132 1.998.007 1.999.007.175.06c.203.07.388.212.49.38l.072.116v8.076c0 8.805.015 8.158-.19 8.384a1.195 1.195 0 0 1-.497.288c-.154.047-17.2.068-17.57.022-.368-.047-.6-.187-.772-.468l-.077-.125.005-8.09.004-8.089.073-.128c.09-.158.267-.291.488-.368l.168-.058 1.998-.007 1.998-.007.022-.141c.08-.507.502-.749 1.332-.763l.49-.009.023-.124a.874.874 0 0 1 .04-.162c.022-.041-7.028-.055-7.244-.014Zm6.353.632c-.357.081-.57.292-.57.564v.094h1.201l.034-.082c.019-.045.05-.167.072-.271.017-.087.035-.173.055-.26L9 3.411l-.363.002c-.2.001-.401.011-.447.022Zm6.804.005c0 .063.103.488.138.571l.035.082h1.227l-.017-.12c-.032-.227-.176-.395-.423-.493-.173-.068-.96-.101-.96-.04Zm1.916 1.757c.077.052.08.154.006.215-.053.044-.25.046-4.909.046H7.153l-.068-.055c-.038-.03-.068-.074-.068-.096 0-.023.03-.066.068-.097l.068-.055h4.848c4.464 0 4.853.003 4.91.042Zm-3.977 1.34c-.305.028-.92.17-1.08.25-.15.073-.131.26.032.316.091.031.095.484.006.717-.062.162-.061.166.033.166.085 0 .155.095.203.278.049.186.044.182.214.17.086-.007.19-.02.23-.03.062-.016.086-.005.135.061.125.17.105.168.396.058.147-.055.353-.126.46-.159l.193-.06-.026-.127c-.04-.205-.024-.315.088-.577.287-.676-.095-1.136-.884-1.063ZM9.457 7.539c-.68.145-.77.59-.227 1.117.495.48.538.735.195 1.162-.265.33-.24.448.232 1.093l.318.435.099-.062c.306-.195.875.124.923.517.019.152-.09.28-.268.317-.107.023-.15.056-.298.238a3.471 3.471 0 0 1-.503.468c-.51.395-.572.525-.54 1.155.023.457-.019.603-.292 1.025-.765 1.183-2.268 1.973-3.33 1.75-.19-.039-.202-.022-.071.102.227.216.349.444.387.723.084.619.325.739 1.112.553.599-.14.816-.062 1.145.412.296.429.717.494 1.071.166.607-.563.95-.604 1.495-.183.564.438.813.422 1.287-.082.239-.253.504-.342 1.16-.386.138-.01.31-.029.383-.043l.132-.025-.232-.093c-.99-.395-1.52-1.015-1.77-2.077-.174-.733-.173-.695-.102-2.928.012-.353.01-.794-.003-.98l-.024-.338h-.132c-.25 0-1.157-.418-1.646-.758-.324-.226-.329-.258-.017-.117 1.555.701 1.58.711 1.783.687.238-.029.89-.206 1.443-.392l.537-.181.402.093c.584.135.542.133.584.02.082-.22.083-.286.004-.349-.05-.04-.085-.116-.111-.24-.052-.253-.422-.504-.426-.29 0 .015.06.07.133.121.127.089.215.335.1.281-.018-.008-.033-.035-.033-.06 0-.09-.33-.256-.51-.256-.136 0-.278.125-.19.167.034.015.026.3-.01.326-.04.03-1.643.284-1.938.307-.237.02-.393-.065-1.156-.623-.295-.216-.59-.412-.654-.436-.064-.023-.097-.043-.072-.043.118-.002.545.207 1.059.518.697.42.773.458.844.413.171-.106-.04-.345-.49-.556-.563-.264-.802-.507-.83-.845-.024-.275.025-.328.323-.35.129-.01.249-.032.268-.049.04-.036.056-.313.023-.374-.015-.027.004-.06.053-.095l.076-.054-.139-.107a.49.49 0 0 1-.193-.27c-.146-.429-.74-.657-1.364-.524Zm-1.056.825c-.558.256.05 1.022.631.796.254-.1.24-.227-.064-.586-.244-.29-.327-.32-.567-.21Zm5.278.176c-.17.082-.254.169-.2.21.047.035.443-.178.443-.238 0-.065-.064-.057-.243.028Zm-.591.16-.211.104-.199-.082-.198-.082v.2c0 .26.033.284.249.181l.159-.076.177.076c.286.124.387.048.334-.25-.032-.185-.066-.193-.311-.071Zm.774.063c-.7.61-1.084 1.058-1.398 1.632-.157.287-.184.276.425.184.57-.085.598-.093.517-.155-.095-.072-.034-.26.128-.39a.676.676 0 0 0 .123-.138c.04-.062.08-.08.248-.108.28-.048.297-.046.477.045.287.146.372.221.412.37.045.161.167.24.775.502.207.09.362.162.344.162-.018 0-.227-.045-.464-.101-.237-.056-.44-.095-.451-.087-.025.019-.132.5-.135.606l-.003.076.796.168c1.13.238 1.053.24 1.182-.038.116-.248.116-.248-.334-.775-.64-.75-1.14-1.434-1.141-1.56 0-.036-.123-.087-.319-.134-.252-.06-.738-.243-.86-.324-.151-.1-.126-.106-.322.065Zm.07.43c-.22.26-.781.8-.781.752 0-.1.458-.61.694-.772.23-.159.236-.157.087.02Zm-1.949.082c-.31.156-.903.606-.863.654.011.013.137.075.28.138.392.171.611.371.611.558 0 .034.015.07.034.078.021.01.033-.103.033-.32 0-.41.036-.588.186-.927.177-.4.166-.407-.281-.181Zm1.871.708c0 .014.032.025.07.025.037 0 .06-.011.048-.025-.012-.014-.043-.026-.07-.026-.026 0-.047.012-.047.026Zm-.402 1.115c-.407.144-1.023.338-1.25.392l-.195.047.02.164c.065.537.08 1.127.043 1.864-.1 2.056.186 3.017 1.13 3.79l.15.122.008-.265c.012-.404.013-.4-.153-.691-.467-.82-.747-1.545-.839-2.175-.051-.353-.047-.38.029-.176.11.295.63 1.39.989 2.081.126.243.27.545.32.67.049.125.245.586.436 1.024.306.702.504 1.174.885 2.113l.104.257.187.022.187.021.128.262c.166.34.16.336.395.244.389-.154.49-.278.406-.504-.036-.099-.035-.1.117-.208.187-.131.24.058-.334-1.213l-.855-1.892c-.45-.994-.732-1.823-.912-2.673l-.014-.07h.213c.25 0 .242.015.147-.3-.55-1.81-.593-2.095-.378-2.438.06-.096.109-.177.109-.181 0-.005-.075-.027-.168-.05l-.167-.042.02-.098c.02-.092.016-.099-.075-.113a3.198 3.198 0 0 1-.213-.042 40.298 40.298 0 0 0-.151-.036 1.77 1.77 0 0 0-.319.094Zm1.121.075c-.034.042.043.09.09.055.038-.029.014-.083-.037-.083a.079.079 0 0 0-.053.028Zm-4.464.287c-.285.18-.202.643.116.645.078 0 .483-.156.54-.209.056-.053-.063-.27-.213-.39-.165-.129-.292-.142-.443-.046Zm.996 4.642c.021.13.045.5.052.819l.014.581-.082-.265c-.156-.503-.193-.815-.172-1.453.024-.76.056-.856.11-.327.022.224.058.514.078.645Zm-2.144-.61c-.261.5-.771 1.056-1.281 1.396-.49.327-.782.457-.456.203.38-.295 1.136-1.015 1.568-1.49.244-.27.258-.28.169-.109Zm1.21.272c-.1.721-.195 1.086-.429 1.65-.11.268-.208.432-.165.278.01-.035.035-.171.055-.303.089-.582.497-1.984.563-1.934.01.007-.002.146-.024.31Zm-2.987 2.67-.318.08-.156.243-.157.244-.212.018c-.288.024-.407.084-.518.26-.05.08-.159.222-.24.316-.183.21-.163.24.056.086.262-.185.378-.188.44-.013.05.136.022.236-.105.388-.144.17-.123.262.121.534.241.267.243.267.257-.075l.011-.286.161-.209c.089-.115.242-.35.341-.524.267-.465.709-1.007.86-1.054.064-.02-.062-.094-.153-.09a3.748 3.748 0 0 0-.388.082Zm5.878-.047c-.376.061-.46.104-.674.34-.209.233-.356.317-.618.35l-.144.019-.056.442c-.024.191-.05.383-.076.574l-.02.133h.201c.111 0 .202.007.202.016 0 .092-.414.312-.588.312-.059 0-.06.018-.011.125l.037.081.48-.008.481-.008.129-.095c.158-.116.167-.117.229-.005l.05.09.225-.008.225-.008.01-.239c.005-.14.025-.246.047-.256.024-.012.046-.198.063-.52l.05-.937c.013-.25.01-.435-.007-.434a6.311 6.311 0 0 0-.235.036Zm-2.956.207c-.203.075-.228.133-.162.37.077.284.075.489-.005.508-.235.056-.39.28-.335.486.018.067.052.225.075.35.044.24.055.24.114.003.1-.401.509-.192.509.26 0 .14.27.26.712.317.156.02.155.016-.007-.146-.19-.19-.226-.272-.286-.639-.03-.18-.083-.457-.12-.617a7.764 7.764 0 0 1-.106-.59c-.037-.278-.046-.301-.119-.322-.107-.03-.14-.028-.27.02Zm2.114 2.995a.176.176 0 0 1 .06.112v.06l4.376.006 4.378.007.064.06c.076.07.08.127.016.194-.047.048-.136.05-4.441.056l-4.394.006v.227c0 .245-.044.31-.23.346-.218.041-.349-.11-.328-.377l.015-.196H2.958l-.082-.062c-.1-.075-.103-.116-.019-.194l.064-.06 4.394-.007c4.175-.006 4.394-.009 4.394-.051 0-.175.356-.263.511-.127Z" />
</svg>