<svg width="1255" height="1074" viewBox="0 0 1255 1074" fill="none" xmlns="http://www.w3.org/2000/svg">
<path fill-rule="evenodd" clip-rule="evenodd" d="M50.7501 1.52139C40.9887 3.6467 38.6699 10.7433 44.0861 21.9124L46.2213 26.3084L36.1811 25.0984C9.59994 21.892 0.0153354 26.0668 0.511735 40.6368C2.09954 87.0229 2.00094 266.99 0.382535 276.865C-3.70086 301.781 26.1341 287.078 31.5129 261.525C32.4887 256.877 38.0103 244.3 43.7835 233.575C52.3617 217.639 54.3507 211.65 54.6703 200.815L55.0579 187.555L62.6195 186.775C68.0527 186.214 71.4289 184.457 74.6181 180.53C80.5409 173.245 101.356 161.081 122.667 152.455C155.528 139.15 162.75 127.484 153.087 103.315C150.374 96.5274 167.625 88.1634 180.62 89.9672C213.763 94.57 233.925 90.3726 250.31 75.4628C263.42 63.534 289.06 47.5574 299.882 44.5762C305.114 43.1348 311.35 40.1598 313.737 37.9648C317.773 34.2568 319.116 34.0357 332.719 34.8424C360.718 36.505 473.166 19.2486 489.19 10.8314C504.035 3.0345 499.496 2.53695 417.95 3.02221C327.456 3.56275 103.545 1.9227 77.9501 0.532451C65.9413 -0.118654 56.7545 0.215088 50.7501 1.52139ZM1143.93 1.16513C1114.03 2.60247 954.97 3.50747 836.313 2.91369C753.336 2.49805 748.699 3.09797 767.168 11.8469C784.161 19.8957 895.337 36.4784 921.545 34.8711C935.172 34.0357 936.484 34.2507 940.527 37.9648C942.913 40.1598 949.149 43.1245 954.382 44.5558C964.551 47.3342 991.751 64.4063 1006.63 77.3506C1021.95 90.6777 1053.34 95.7084 1081.76 89.396C1084.19 88.8555 1088.69 90.7412 1093.76 94.4328L1101.88 100.332L1099.16 113.552C1094.99 133.853 1101.3 141.063 1134.43 153.8C1152.87 160.891 1173.26 172.963 1179.66 180.583C1182.61 184.099 1186.68 186.251 1191.85 187.039L1199.63 188.221L1199.79 201.149C1199.92 211.849 1201.76 217.432 1210.46 233.575C1216.24 244.3 1221.77 256.877 1222.75 261.525C1228.27 287.743 1257.75 301.548 1253.84 276.085C1252.1 264.748 1252.04 221.474 1253.53 40.4669C1253.65 25.8088 1244.62 21.8961 1218.06 25.1004C1208.38 26.2675 1208.06 26.1753 1209.83 22.6946C1220.82 1.04637 1211.27 -2.07402 1143.93 1.16513ZM2.57214 3.31091C0.623935 6.37192 6.34614 18.3375 10.0861 19.0255C11.7929 19.3387 18.3073 20.0287 24.5633 20.557L35.9363 21.5214L34.2873 14.0582C31.9175 3.33957 7.76734 -4.84428 2.57214 3.31091ZM1227.27 3.78593C1223.57 5.62663 1221.06 9.15038 1219.99 14.003L1218.35 21.4129L1231.01 20.4382C1247.01 19.2077 1249.74 17.6106 1250.68 8.93334L1251.44 1.91451L1242.17 1.44564C1236.13 1.14056 1230.94 1.95751 1227.27 3.78593ZM514.915 6.20403C515.435 8.41737 517.417 9.64178 520.273 9.51893C522.769 9.41246 567.938 9.23637 620.655 9.1299C714.668 8.93744 716.504 8.87397 716.504 5.815C716.504 2.74785 714.777 2.69461 615.293 2.69461H514.085L514.915 6.20403ZM24.8455 11.3289C24.8455 12.5861 23.2407 13.6139 21.2789 13.6139C16.4917 13.6139 11.0313 9.47798 13.1223 7.43867C15.4275 5.19256 24.8455 8.31909 24.8455 11.3289ZM94.7019 7.19706C100.326 8.14096 99.1627 8.69379 84.9881 11.806C59.8349 17.3281 62.2829 21.1794 105.086 43.446C121.117 51.7834 121.722 52.3526 118.743 56.292C114.157 62.3526 111.45 61.6073 90.2479 48.4603C38.5101 16.3801 40.4821 -1.90408 94.7019 7.19706ZM305.669 9.21385C345.908 10.8334 442.131 10.2007 469.113 8.13891L479.473 7.34858L471.582 9.57626C467.24 10.8027 449.754 13.6221 432.723 15.8457C415.693 18.0672 391.852 21.7261 379.741 23.9784C348.322 29.8219 329.843 29.4984 287.778 22.3629C201.282 7.69051 156.582 6.90427 97.5749 19.0234C75.3355 23.5914 76.6547 23.444 76.6547 21.3596C76.6547 19.0582 97.4253 14.0009 118.998 11.0464C155.977 5.98085 211.788 5.43212 305.669 9.21385ZM1078.26 7.3752C1132.03 9.34489 1177.61 15.8355 1177.61 21.5255C1177.61 22.5062 1176.07 22.9526 1174.18 22.5165C1108.66 7.37725 1065.08 6.95341 976.846 20.6C913.361 30.4178 911.096 30.4894 874.523 23.8248C862.412 21.6176 838.608 18.0201 821.629 15.8314C780.666 10.5468 766.957 7.08855 792.923 8.58732C831.312 10.8048 976.135 9.27937 1032.54 6.06275C1034.68 5.94195 1055.25 6.53163 1078.26 7.3752ZM1198.5 7.42843C1211.23 11.5316 1197.88 27.4653 1164.24 48.3252C1142.79 61.6237 1140.11 62.3629 1135.5 56.2593C1132.49 52.2892 1133.04 51.7527 1147.82 44.1688C1191.55 21.7282 1194.46 17.3363 1169.28 11.806C1155.1 8.69379 1153.94 8.14096 1159.56 7.19706C1169.61 5.51197 1192.98 5.6512 1198.5 7.42843ZM1239.87 11.2081C1238.05 12.5308 1234.95 13.6139 1232.98 13.6139C1227.89 13.6139 1228.57 9.37765 1233.95 7.54923C1240.03 5.48331 1244.2 8.06316 1239.87 11.2081ZM228.2 16.7384C279.982 22.6639 306.814 29.8281 302.663 36.6237C300.562 40.0676 293.378 38.7838 253.931 27.9178C200.241 13.1246 201.493 13.4931 207.473 14.2794C210.326 14.6541 219.649 15.7597 228.2 16.7384ZM1045.49 15.5775C1041.93 16.5398 1021.58 22.109 1000.25 27.9505C960.706 38.79 953.556 40.0615 951.509 36.6237C947.963 30.6696 964.493 25.3891 1004.05 19.8486C1017.58 17.9505 1032.15 15.8355 1036.43 15.1475C1047.81 13.3129 1052.96 13.5566 1045.49 15.5775ZM212.655 20.6287C242.792 26.0525 267.769 33.5136 274.593 39.1299L280.009 43.5852L265.916 51.2204C248.858 60.4587 250.293 60.4218 242.728 51.8326C219.176 25.0984 160.23 15.5202 90.2547 27.0578C79.9799 28.7511 84.0123 24.9735 95.4363 22.2032C129.147 14.0255 172.718 13.4399 212.655 20.6287ZM1148.73 20.3359C1159.2 22.5328 1168.43 24.7278 1169.24 25.213C1173.02 27.4939 1166.46 27.625 1152.64 25.5468C1090 16.1324 1033.75 26.6094 1011.54 51.8326C1004.01 60.3727 1005.74 60.4136 988.596 51.2736L974.442 43.7265L979.083 39.4616C999.109 21.0566 1098.68 9.83015 1148.73 20.3359ZM137.158 31.9452C152.828 50.3829 137.44 71.9063 101.305 82.0946C82.0505 87.5225 48.1593 84.7216 48.1593 77.7048C48.1593 73.1307 50.7739 72.8542 68.5423 75.5488C113.371 82.3485 137.732 63.3743 124.527 31.9452C122.99 28.2904 123.52 27.6536 128.117 27.6536C131.391 27.6536 134.944 29.3408 137.158 31.9452ZM154.756 32.3342C161.502 37.7949 168.098 57.9812 165.959 66.6339C159.547 92.5839 125.608 102.77 73.2411 94.4595C47.1495 90.3194 44.5587 87.4632 67.5903 88.2351C121.423 90.0348 162.964 57.9792 142.764 30.2253C139.589 25.8662 148.752 27.4775 154.756 32.3342ZM1111.4 30.385C1091.1 58.0795 1133.47 90.1904 1187.79 88.2678C1210.58 87.4591 1207.52 90.2539 1181.02 94.4595C1136.41 101.54 1109.18 96.3022 1093.25 77.5737C1084.48 67.2666 1088.6 40.559 1100.33 31.5726C1106.33 26.9821 1114.54 26.1016 1111.4 30.385ZM1130.98 28.3314C1130.98 28.7061 1129.19 34.1463 1126.99 40.4218C1118.5 64.7093 1146.2 81.5438 1184.98 75.6614C1208.08 72.1581 1216.82 79.1933 1194.43 83.2576C1143.37 92.5225 1093.39 59.5189 1116.94 32.0906C1120.05 28.4726 1130.98 25.5468 1130.98 28.3314ZM50.0973 34.8547C72.0681 42.5369 106.99 67.1315 99.8087 69.8669C91.4821 73.0406 85.5389 71.163 71.4731 60.9214C39.2445 37.453 24.6959 36.0013 18.2291 55.6061C15.6247 63.5033 11.3849 57.9013 11.2047 46.3268C10.9293 28.8842 22.9143 25.3502 50.0973 34.8547ZM1080.88 43.2535C1073.2 58.3272 1057.23 62.9955 1037.93 55.8109C1028.09 52.1499 1056.47 34.394 1077.52 31.0361C1087.93 29.3756 1087.93 29.4002 1080.88 43.2535ZM1239.99 34.1954C1243.84 39.7974 1244.05 54.2056 1240.34 58.2023C1238.36 60.3276 1237.55 59.7216 1236.09 55.0226C1230.15 35.9747 1214.12 37.7908 1182.76 61.0668C1169.86 70.6491 1167.94 71.4947 1160.99 70.6593C1148.46 69.1503 1149.16 67.7785 1169.89 53.36C1199.99 32.412 1232.62 23.4911 1239.99 34.1954ZM115.547 35.5038C119.971 41.9349 117.71 42.6045 108.067 37.7191C98.3807 32.8113 97.8129 30.774 106.133 30.774C110.549 30.774 113.215 32.1131 115.547 35.5038ZM192.347 35.4198C217.044 43.9517 225.038 54.6561 208.684 57.3076C187.658 60.7167 180.542 58.0795 174.068 44.482C171.732 39.5803 169.135 34.4902 168.295 33.1716C165.765 29.2036 177.529 30.3031 192.347 35.4198ZM1154.29 32.195C1154.29 34.0746 1138.48 42.0496 1136.78 41.0279C1133.26 38.9087 1142.27 30.774 1148.13 30.774C1151.52 30.774 1154.29 31.4149 1154.29 32.195ZM238.78 52.9259C256.165 72.9075 215.953 93.6486 178.978 83.7715C175.67 82.887 179.889 82.7089 190.664 83.2781C231.94 85.4587 247.158 66.8162 222.658 44.0889L215.875 37.7949L225.497 43.2535C230.787 46.2572 236.764 50.6102 238.78 52.9259ZM1030.13 45.4136C1007.49 67.4775 1023.27 85.3522 1063.49 83.2064C1074.68 82.6085 1078.7 82.7867 1075.29 83.7285C1029.67 96.294 991.632 66.808 1025.59 45.2048C1035.74 38.7429 1036.93 38.7982 1030.13 45.4136ZM43.1171 69.4492C29.9251 100.567 49.2269 130.626 91.6657 145.049L105.878 149.879L94.5047 155.762C73.8429 166.445 72.2143 166.62 61.4329 159.287C28.6603 137 17.1377 78.4828 41.0329 55.6757C49.1419 47.9321 49.9579 53.3129 43.1171 69.4492ZM1220.56 65.6389C1234.49 92.6761 1220.28 140.659 1192.83 159.3C1182.04 166.628 1180.43 166.452 1159.6 155.68L1148.07 149.717L1158.31 146.566C1201.74 133.192 1224.34 101.198 1211.73 70.9296C1208.64 63.491 1206.14 55.8027 1206.19 53.8412L1206.27 50.2744L1211.35 53.9394C1214.13 55.9542 1218.28 61.2203 1220.56 65.6389ZM28.6841 66.12C17.5559 89.2588 14.8971 126.45 23.4039 139.992C24.2063 141.269 29.3913 155.868 34.9299 172.436L44.9973 202.557L38.9181 218.753C26.7699 251.116 15.4343 275.356 11.1911 278.034C9.61693 279.029 9.47413 278.18 10.8035 275.694C11.9493 273.55 12.9999 230.024 13.1393 178.974C13.4079 80.3256 13.7717 77.027 26.1987 60.6819C35.0829 48.9947 35.9805 50.9542 28.6841 66.12ZM1231.84 65.9583C1240.79 80.3706 1242.47 100.907 1241.82 188.335C1241.48 234.238 1242.17 273.55 1243.37 275.694C1244.82 278.292 1244.68 279.074 1242.95 278.034C1234.51 272.946 1208.43 205.08 1211.4 195.936C1212.63 192.185 1218.48 175.092 1224.42 157.954C1240.31 112.103 1239.4 88.8595 1220.38 54.955C1216.42 47.8952 1226.82 57.8829 1231.84 65.9583ZM64.5847 65.0942C68.2533 68.833 68.4471 69.7748 65.5469 69.7748C60.5489 69.7748 52.4467 64.1073 54.5343 62.0721C57.2849 59.3919 59.7091 60.1208 64.5847 65.0942ZM1200.03 62.8297C1201.64 65.3543 1194.46 69.6376 1188.47 69.7257C1185.96 69.7605 1186.28 68.5606 1189.68 65.0942C1194.8 59.8772 1197.74 59.2322 1200.03 62.8297ZM228.434 65.8866C232.606 75.8927 211.638 82.6249 186.747 79.2711C172.997 77.4181 172.504 77.1724 172.504 72.1929C172.504 65.1802 176.047 63.9538 196.807 63.7859C206.613 63.706 215.259 63.2658 216.021 62.8072C219.788 60.5385 226.945 62.3117 228.434 65.8866ZM1063.57 63.9456C1077.78 63.6999 1081.76 65.5037 1081.76 72.1929C1081.76 82.3198 1039.07 83.4623 1028.36 73.6221C1020.34 66.2511 1025.33 61.5869 1039.75 62.973C1046.47 63.618 1057.19 64.0561 1063.57 63.9456ZM84.3523 103.081C95.5587 106.22 101.818 123.782 93.5153 128.782C89.1531 131.407 55.9317 106.759 55.9317 100.899C55.9317 98.8411 74.2305 100.246 84.3523 103.081ZM1198.33 101.036C1198.33 106.851 1165.02 131.351 1160.67 128.735C1155.74 125.764 1156.56 110.95 1161.87 106.906C1168.73 101.695 1198.33 96.9287 1198.33 101.036ZM133.469 106.454C140.714 115.459 138.732 127.099 129.073 132.299C115.68 139.509 99.9923 138.004 105.052 129.994C106.531 127.649 107.741 120.559 107.741 114.236C107.741 102.897 107.84 102.733 114.864 102.076C126.818 100.96 129.572 101.609 133.469 106.454ZM1141.73 102.512C1145.28 102.531 1146.23 104.863 1147.29 116.183C1148 123.692 1148.99 131.239 1149.49 132.955C1150.99 138.04 1136.3 138.034 1126.25 132.942C1110.35 124.887 1115.21 98.8923 1132.09 101.624C1135.04 102.101 1139.38 102.502 1141.73 102.512ZM1112.38 110.051C1110.84 113.7 1109.07 116.38 1108.45 116.007C1107.83 115.635 1108.64 112.379 1110.25 108.774C1111.87 105.17 1113.63 102.488 1114.18 102.817C1114.73 103.145 1113.91 106.4 1112.38 110.051ZM145.331 111.894C147.779 119.034 145.328 117.512 141.778 109.687C140.255 106.329 140.01 104.222 141.234 105.006C142.462 105.792 144.305 108.892 145.331 111.894ZM101.159 139.953C113.473 142.402 125.788 139.883 136.107 132.805C144.444 127.086 145.903 127.045 141.095 132.668C127.767 148.249 100.553 148.286 74.7133 132.752C56.0201 121.517 57.5059 118.907 76.5493 129.523C85.0357 134.257 96.1129 138.95 101.159 139.953ZM1186.77 128.339C1164.13 146.214 1131.84 149.468 1116.18 135.455C1107.7 127.871 1108.87 126.435 1118.27 132.881C1135.42 144.648 1155.97 143.139 1180.09 128.341C1193.36 120.197 1197.08 120.194 1186.77 128.339ZM45.9901 154.195C62.9765 177.193 63.0717 177.414 55.9997 177.414C49.5159 177.414 44.8137 171.97 36.9257 155.33C23.0809 126.126 25.0733 125.876 45.9901 154.195ZM1220.56 148.217C1212.01 168.511 1205.28 177.414 1198.48 177.414C1191.31 177.414 1191.3 177.445 1206.34 157.064C1213.6 147.236 1220.63 137.518 1221.96 135.469C1227.27 127.31 1226.52 134.054 1220.56 148.217ZM1.53174 536.031V776.091L6.96154 776.946C20.4765 779.074 19.6639 794.446 19.6639 536.048V295.974H10.5995H1.53174V536.031ZM1234.6 536.031V776.091L1241.71 776.91C1245.62 777.36 1249.7 777.399 1250.77 777C1251.85 776.598 1252.73 668.204 1252.73 536.122V295.974H1243.66H1234.6V536.031ZM0.532137 797.905C2.15054 808.652 2.20494 903.382 0.668137 1032.7C0.484537 1048.18 9.17494 1052.15 36.0961 1048.9L46.0513 1047.7L43.9569 1052.87C35.6983 1073.24 42.1175 1075.4 103.855 1072.97C146.943 1071.28 289.947 1070.43 420.34 1071.1C503.222 1071.52 506.071 1071.13 486.776 1061.99C469.821 1053.96 359.382 1037.59 332.719 1039.15C319.248 1039.95 317.745 1039.71 313.9 1036.17C311.602 1034.06 305.369 1030.98 300.045 1029.32C288.794 1025.8 261.302 1009.12 253.139 1000.85C236.462 983.959 210.547 978.682 173.8 984.698C170.002 985.32 166.449 983.957 160.499 979.602L152.383 973.658L155.103 960.437C159.278 940.136 152.961 932.927 119.831 920.189C101.39 913.099 81.0067 901.027 74.6079 893.404C71.6567 889.891 67.5869 887.737 62.4087 886.948L54.6363 885.767L54.4765 872.841C54.3405 862.116 52.5147 856.594 43.7563 840.415C37.9491 829.69 32.3561 817.053 31.3259 812.333C25.5765 785.994 -3.29966 772.464 0.532137 797.905ZM1239.1 788.543C1230.32 794.07 1224.98 801.877 1222.75 812.462C1221.77 817.11 1216.24 829.69 1210.46 840.415C1201.76 856.557 1199.92 862.141 1199.79 872.841L1199.63 885.767L1191.85 886.942C1186.58 887.739 1182.66 889.85 1179.65 893.519C1173.69 900.771 1152.79 912.956 1131.6 921.535C1098.74 934.839 1091.51 946.506 1101.18 970.675C1103.85 977.366 1087.24 985.404 1073.92 983.857C1056.05 981.78 1035.65 982.135 1027.53 984.661C1019.79 987.071 998.864 1000.48 998.864 1003.03C998.864 1005.78 964.004 1026.33 954.219 1029.35C948.894 1030.99 942.662 1034.06 940.364 1036.17C936.508 1039.72 935.053 1039.94 921.545 1039.11C910.1 1038.4 898.136 1039.42 866.75 1043.78C782.804 1055.44 763.397 1059.87 759.773 1068.22L758.331 1071.53L835.208 1071.11C967.53 1070.37 1104.6 1071.2 1150.44 1073.02C1214.42 1075.55 1220.93 1073.17 1209.83 1051.29C1208.06 1047.81 1208.38 1047.72 1218.06 1048.89C1245.1 1052.15 1253.78 1048.2 1253.59 1032.7C1252.08 908.199 1252.14 808.607 1253.74 797.905C1256.08 782.327 1252.57 780.083 1239.1 788.543ZM20.5445 811.553C24.3593 819.276 31.4415 835.871 36.2865 848.431L45.0925 871.267L32.2745 908.49C13.8703 961.926 14.1899 983.926 33.8827 1019.03C37.8675 1026.15 27.4261 1016.08 22.3635 1007.93C13.6221 993.861 11.8405 971.701 12.4695 884.874C12.7959 839.399 12.0887 800.439 10.8953 798.294C9.52513 795.841 9.62714 794.973 11.1639 795.953C12.5069 796.811 16.7297 803.832 20.5445 811.553ZM1242.07 816.234C1241.08 827.389 1240.89 865.296 1241.65 900.474C1243.14 969.317 1240.96 993.349 1231.92 1007.9C1226.84 1016.07 1216.39 1026.16 1220.38 1019.03C1239.37 985.185 1240.28 962.016 1224.46 916.074C1218.55 898.914 1212.7 881.805 1211.45 878.052C1208.63 869.571 1224.21 827.184 1241.27 796.901C1243.69 792.602 1243.84 796.275 1242.07 816.234ZM61.1133 897.814C61.1133 898.496 55.1769 907.096 47.9213 916.924C40.6657 926.754 33.6379 936.471 32.3051 938.521C27.1609 946.43 27.8919 940.232 33.7977 925.867C42.1005 905.681 48.9345 896.574 55.7855 896.574C58.7163 896.574 61.1133 897.133 61.1133 897.814ZM1209.02 903.683C1214.96 911.758 1227.51 940.361 1225.62 941.498C1224.94 941.909 1223.29 940.57 1221.96 938.521C1220.63 936.471 1213.6 926.754 1206.34 916.924C1191.3 896.545 1191.31 896.574 1198.48 896.574C1202.31 896.574 1205.27 898.57 1209.02 903.683ZM88.7995 915.521C106.741 923.857 106.874 924.047 96.8167 927.122C51.9027 940.857 29.8673 972.253 42.8791 1003.97C49.8865 1021.05 49.1997 1026.25 40.9717 1018.31C17.4845 995.658 28.5413 937.722 60.6645 915.12C71.3541 907.601 71.7689 907.608 88.7995 915.521ZM1193.6 915.12C1225.72 937.722 1236.78 995.658 1213.29 1018.31C1205.03 1026.28 1204.38 1021.03 1211.49 1003.71C1224.18 972.775 1202.15 940.925 1158.83 927.583C1146.72 923.855 1146.35 924.671 1164.01 916.211C1182.1 907.548 1182.8 907.522 1193.6 915.12ZM125.798 931.33C131.976 933.214 144.009 942.388 144.009 945.22C144.009 945.98 140.401 944.131 135.995 941.107C118.516 929.119 101.346 930.273 75.1383 945.2C57.1421 955.45 56.7987 952.399 74.7133 941.416C92.4307 930.552 111.131 926.86 125.798 931.33ZM1155.41 931.054C1162.13 932.178 1170.29 935.654 1179.37 941.256C1197.41 952.38 1197.21 955.501 1179.13 945.2C1152.92 930.273 1135.75 929.119 1118.27 941.107C1108.88 947.548 1107.7 946.119 1116.16 938.558C1125.97 929.79 1136.18 927.839 1155.41 931.054ZM124.333 938.91C137.491 942.522 141.245 951.948 134.757 965.103C130.803 973.119 130.453 973.332 122.776 972.407C118.424 971.883 113.259 971.455 111.294 971.455C108.567 971.455 107.782 968.783 107.965 960.144C108.095 953.924 106.925 946.844 105.364 944.414C100.737 937.21 109.193 934.757 124.333 938.91ZM1150.27 938.564C1151.08 939.35 1150.46 941.981 1148.9 944.414C1147.34 946.844 1146.17 953.832 1146.29 959.94L1146.53 971.045L1136.98 971.979C1115.45 974.082 1107.28 950.66 1126.19 941.076C1133.88 937.176 1147.4 935.765 1150.27 938.564ZM96.1809 951.801C99.4041 964.741 92.9407 970.493 72.2755 973.076C55.0341 975.23 53.8951 974.684 59.6377 967.012C63.9659 961.236 88.1739 944.934 92.4273 944.934C93.5527 944.934 95.2391 948.023 96.1809 951.801ZM1177.98 953.904C1202.71 969.618 1204.01 975.828 1181.99 973.076C1161.32 970.493 1154.86 964.741 1158.08 951.801C1160.26 943.052 1161.03 943.134 1177.98 953.904ZM145.236 962.485C144.26 965.273 142.506 968.169 141.336 968.92C140.17 969.671 140.432 967.391 141.925 963.85C145.131 956.248 147.803 955.144 145.236 962.485ZM135.393 979.794C166.126 989.459 176.863 1023.76 154.756 1041.65C148.752 1046.51 139.589 1048.12 142.764 1043.76C162.848 1016.17 121.096 983.951 67.5903 985.75C44.6539 986.522 46.4185 983.807 71.4731 979.778C96.1265 975.812 122.752 975.82 135.393 979.794ZM1182.79 979.768C1207.84 983.709 1209.66 986.526 1186.65 985.748C1133.06 983.936 1091.38 1016.12 1111.5 1043.76C1114.67 1048.12 1105.51 1046.51 1099.51 1041.65C1075.6 1022.31 1091.63 982.814 1125.2 978.361C1129.09 977.843 1133.44 977.188 1134.86 976.901C1142.2 975.427 1163.18 976.682 1182.79 979.768ZM104.161 992.808C132.802 1001.25 147.004 1016.19 141.952 1032.56C138.725 1043 135.383 1046.33 128.148 1046.33C122.32 1046.33 122.398 1047.51 127.274 1033.57C135.76 1009.28 108.061 992.446 69.2869 998.326C52.6813 1000.85 47.1053 1000.08 48.5741 995.495C50.8419 988.396 83.7981 986.805 104.161 992.808ZM226.129 991.672C247.991 999.698 248.263 1017.99 226.7 1029.95L218.261 1034.63L223.912 1028.95C246.417 1006.35 231.042 988.633 190.776 990.783C179.583 991.379 175.564 991.203 178.978 990.261C188.892 987.53 217.153 988.375 226.129 991.672ZM1075.29 990.261C1078.7 991.203 1074.68 991.379 1063.49 990.783C1023.22 988.633 1007.85 1006.35 1030.35 1028.95L1036 1034.63L1027.56 1029.95C990.105 1009.18 1028.38 977.339 1075.29 990.261ZM1194.43 990.73C1216.82 994.796 1208.08 1001.83 1184.98 998.326C1146.2 992.446 1118.5 1009.28 1126.99 1033.57C1129.19 1039.84 1130.98 1045.28 1130.98 1045.66C1130.98 1048.38 1120.08 1045.54 1117.11 1042.04C1093.53 1014.3 1143.08 981.414 1194.43 990.73ZM215.592 995.839C235.275 1001.46 234.459 1012.93 214.511 1011.02C207.793 1010.37 197.073 1009.93 190.691 1010.04C176.503 1010.29 172.504 1008.48 172.504 1001.84C172.504 994.137 197.474 990.66 215.592 995.839ZM1070.25 995.04C1091.24 998.222 1085.81 1010.43 1063.57 1010.04C1057.19 1009.93 1046.47 1010.37 1039.75 1011.02C1028.21 1012.12 1027.44 1011.98 1025.93 1008.35C1021.39 997.442 1043.1 990.922 1070.25 995.04ZM99.8087 1004.12C106.942 1006.84 71.7145 1031.54 49.5601 1039.36C22.0643 1049.06 11.2523 1045.67 11.3135 1027.38C11.3543 1015.84 15.5873 1010.65 18.1781 1018.97C24.0975 1037.97 39.6389 1036.25 71.4731 1013.07C85.5389 1002.82 91.4821 1000.95 99.8087 1004.12ZM1182.93 1013.04C1212.17 1034.75 1226.6 1037.45 1234.16 1022.62C1239.7 1011.75 1242.81 1013.48 1243.16 1027.61C1243.47 1039.72 1238.22 1045.28 1227.48 1044.23C1198.94 1041.44 1137.73 1006.64 1156.24 1003.73C1166.61 1002.1 1169.57 1003.13 1182.93 1013.04ZM66.5261 1007.07C61.8749 1012.31 56.2207 1014.28 54.3439 1011.33C52.6269 1008.64 59.5323 1004.36 65.7373 1004.26C68.1649 1004.23 68.3791 1004.99 66.5261 1007.07ZM1196.71 1006.53C1199.52 1007.81 1200.92 1009.77 1200.03 1011.16C1197.74 1014.76 1194.8 1014.11 1189.68 1008.89C1184.58 1003.69 1187.98 1002.55 1196.71 1006.53ZM118.706 1017.65C121.559 1021.42 121.021 1022.14 111.529 1027.22C60.6679 1054.44 59.1073 1056.5 84.9881 1062.18C103.28 1066.2 100.55 1067.72 74.5433 1068.02C38.8739 1068.42 44.3683 1053.98 90.8429 1025.16C111.406 1012.41 114.177 1011.66 118.706 1017.65ZM1163.42 1025.16C1209.9 1053.98 1215.39 1068.42 1179.72 1068.02C1153.71 1067.72 1150.98 1066.2 1169.28 1062.18C1195.16 1056.5 1193.6 1054.44 1142.73 1027.22C1133.24 1022.14 1132.7 1021.42 1135.56 1017.65C1140.09 1011.66 1142.86 1012.41 1163.42 1025.16ZM209.544 1016.8C220.512 1018.63 220.75 1021.09 210.785 1029.61C202.951 1036.31 166.806 1047.31 167.37 1042.82C167.397 1042.61 170.111 1037.17 173.398 1030.73C181.11 1015.63 187.607 1013.13 209.544 1016.8ZM265.657 1022.6C288.543 1034.94 267.174 1045.27 197.113 1055.74C161.934 1060.99 98.7989 1057.07 85.0255 1048.77C81.2413 1046.5 87.7999 1046.36 101.628 1048.44C164.266 1057.86 220.509 1047.38 242.728 1022.16C250.286 1013.58 248.885 1013.55 265.657 1022.6ZM1011.54 1022.16C1033.69 1047.3 1090.19 1057.83 1152.64 1048.44C1179.82 1044.36 1175.18 1048.77 1146.52 1054.25C1108.33 1061.57 1067.18 1059.72 1018.71 1048.52C974.476 1038.3 968.706 1033.33 988.606 1022.6C1005.38 1013.55 1003.98 1013.58 1011.54 1022.16ZM1070.42 1017.9C1074.72 1020.01 1086.94 1039.12 1086.94 1043.74C1086.94 1045.27 1070.99 1041.81 1059.69 1037.82C1048.15 1033.75 1039.78 1027.94 1036.63 1021.83C1033.6 1015.96 1060.16 1012.87 1070.42 1017.9ZM118.104 1033.78C118.104 1038.15 111.62 1043.21 106.031 1043.21C98.2345 1043.21 98.3977 1042.03 106.932 1036.67C114.058 1032.19 118.104 1031.14 118.104 1033.78ZM1147.03 1036.49C1155.88 1041.59 1156.17 1043.21 1148.23 1043.21C1144.25 1043.21 1141.14 1041.85 1139.16 1039.24C1133.12 1031.26 1136.14 1030.2 1147.03 1036.49ZM302.986 1037.79C306.859 1043.87 284.068 1050.13 235.741 1056.27C218.833 1058.42 204.733 1060.02 204.406 1059.83C204.083 1059.63 218.047 1055.76 235.438 1051.23C252.826 1046.7 272.301 1041.32 278.713 1039.27C292.256 1034.95 300.844 1034.43 302.986 1037.79ZM1000.25 1046.08C1021.58 1051.95 1041.22 1057.23 1043.92 1057.82C1055.1 1060.25 1045.29 1059.87 1023.47 1057.02C967.285 1049.68 947.402 1044.24 951.601 1037.36C953.692 1033.94 960.665 1035.19 1000.25 1046.08ZM369.378 1048.45C404.18 1054.24 420.711 1056.76 447.095 1060.3C479.579 1064.66 485.338 1066.96 460.046 1065.48C430.024 1063.72 322.142 1064.07 263.169 1066.12C171.131 1069.31 76.6547 1062.48 76.6547 1052.63C76.6547 1050.48 75.7571 1050.38 101.764 1055.58C154.783 1066.2 196.206 1066.03 267.055 1054.88C342.062 1043.09 338.516 1043.31 369.378 1048.45ZM982.87 1054.31C1064.31 1066.96 1110.08 1066.28 1174.18 1051.47C1181.11 1049.87 1177.35 1054.13 1169.75 1056.5C1141.89 1065.18 1071.23 1068.97 991.095 1066.09C935.964 1064.11 825.124 1063.7 794.218 1065.36C767.742 1066.79 779.822 1063.43 817.902 1058.79C832.658 1056.99 854.058 1053.82 865.455 1051.75C901.899 1045.12 904.075 1044.87 918.111 1045.64C925.699 1046.05 954.841 1049.95 982.87 1054.31ZM19.0247 1053.71C7.98834 1054.41 4.85353 1056.89 3.64993 1065.93C2.66733 1073.27 15.9545 1075.7 26.9977 1070.2C33.8759 1066.78 38.2823 1052.4 32.3221 1052.84C30.3467 1052.98 24.3627 1053.37 19.0247 1053.71ZM1219.99 1059.98C1222.03 1069.23 1229.06 1073.21 1242.17 1072.54L1251.44 1072.08L1250.68 1065.05C1249.74 1056.38 1247.01 1054.78 1231.01 1053.55L1218.35 1052.58L1219.99 1059.98ZM24.8455 1062.66C24.8455 1065.67 15.4275 1068.8 13.1223 1066.55C11.0313 1064.51 16.4917 1060.37 21.2789 1060.37C23.2407 1060.37 24.8455 1061.4 24.8455 1062.66ZM1239.69 1062.65C1241.41 1063.9 1242.06 1065.65 1241.14 1066.55C1238.84 1068.8 1229.42 1065.67 1229.42 1062.66C1229.42 1059.72 1235.64 1059.71 1239.69 1062.65ZM525.703 1067.46C523.303 1071.23 520.943 1071.14 626.748 1071.38C729.812 1071.61 731.175 1071.56 728.561 1067.46C726.235 1063.81 528.029 1063.81 525.703 1067.46Z" fill="black"/>
</svg>
