<svg width="24" height="24" viewBox="0 0 24 24" fill="none" xmlns="http://www.w3.org/2000/svg">
<rect width="24" height="24" fill="white"/>
<path fill-rule="evenodd" clip-rule="evenodd" d="M12.6132 1.08393C12.2693 1.19974 12.0213 1.45154 11.9108 1.79698C11.7809 2.2036 11.7766 2.76237 11.9022 2.93165C11.9507 2.99698 12.0045 3.14825 12.0218 3.26777C12.0391 3.38734 12.1238 3.61818 12.2099 3.78075C12.4888 4.3071 12.5174 4.42509 12.4072 4.59459C12.312 4.74112 12.0506 4.95717 11.9687 4.95717C11.9443 4.95717 11.8263 5.01633 11.7062 5.08869C11.4416 5.24815 11.4125 5.24946 11.2145 5.11057C11.0236 4.97676 10.8062 4.97011 10.5291 5.08962C10.2347 5.21656 10.1324 5.20308 10.0145 5.02184C9.89046 4.83116 9.91389 4.76655 10.1482 4.65293C10.388 4.53669 10.401 4.50989 10.3129 4.31256C10.2721 4.2211 10.2319 4.03075 10.2238 3.88962C10.2108 3.66555 10.1885 3.61267 10.0478 3.47318C9.95914 3.38532 9.8405 3.22465 9.78422 3.11616C9.52753 2.62179 9.25653 2.4733 8.68215 2.51237C7.62309 2.58435 6.9701 3.58751 7.50922 4.31431C7.6452 4.49767 7.64543 4.49914 7.56228 4.62924C7.18366 5.22174 7.99286 5.83743 8.53663 5.37056L8.7189 5.2141L8.84088 5.44287C9.00052 5.74231 8.9733 5.79262 8.47846 6.11204C8.26081 6.25251 8.02812 6.43549 7.96133 6.51871C7.77619 6.74945 6.80494 7.56623 6.43258 7.80439C5.76873 8.22902 4.88109 8.4317 3.69598 8.42924C2.80461 8.42739 1.87401 8.57997 1.87401 8.72803C1.87401 8.76356 1.82733 8.82855 1.77024 8.87248C1.61904 8.98889 1.63879 9.05006 1.81636 9.01546C2.0761 8.96488 2.6499 8.90163 2.67058 8.92127C2.68149 8.93164 2.58455 8.99112 2.45517 9.05339C2.24952 9.15244 2.14897 9.25285 2.25538 9.25285C2.34192 9.25285 3.27154 9.03724 3.39616 8.98829C3.47225 8.95838 3.88738 8.91816 4.31866 8.8989C5.03827 8.86681 5.77827 8.785 6.23946 8.6865C6.46434 8.63848 7.12555 8.28948 7.94129 7.78829C8.7084 7.31695 8.79178 7.30565 9.01787 7.64198C9.34181 8.12391 9.5115 8.49402 9.43587 8.55372C9.37523 8.60153 9.37632 8.61757 9.44466 8.68934C9.51782 8.76618 9.51231 8.79417 9.34692 9.183C9.15288 9.63934 9.1314 10.0837 9.29512 10.2556C9.4036 10.3695 9.41842 10.354 8.78391 10.7915C5.71383 12.9085 2.14639 14.6909 0.155812 15.1025C-0.461637 15.2302 0.865891 16.0568 2.20944 16.3812C3.22801 16.6271 3.39857 16.767 3.28986 17.267C3.14268 17.9444 3.28963 18.1577 4.065 18.3925C4.47239 18.5158 5.08812 18.8256 5.97846 19.3551C7.4635 20.2384 7.90603 20.4443 8.76404 20.6511L8.9659 20.6997L8.82313 20.8171C8.7444 20.8818 8.63701 21.0426 8.58361 21.1756C8.53037 21.3082 8.44561 21.4836 8.39525 21.5655C8.23618 21.8242 8.3686 21.8435 8.5986 21.5952C8.92731 21.2402 9.13881 21.4246 9.13881 22.0662C9.13881 22.5366 9.1948 22.6538 9.47952 22.7798C9.86496 22.9504 10.0932 22.8948 9.85796 22.6877C9.704 22.552 9.70503 22.5347 9.92084 21.6675C10.0212 21.2643 10.1367 20.6881 10.1775 20.3869C10.3352 19.2246 10.5927 18.4002 11.3892 16.5073C11.7688 15.6053 11.9347 15.0764 12.1339 14.1321L12.3042 13.3252L12.5412 14.1273L12.7782 14.9293L11.9054 17.5812C11.4254 19.0397 10.9198 20.5523 10.782 20.9424C10.5955 21.47 10.5467 21.6571 10.5909 21.6733C10.6363 21.6898 10.6132 21.8125 10.4936 22.1914C10.3125 22.7647 10.3204 22.8642 10.5539 22.9569C10.7615 23.0393 10.8886 23.0109 11.2204 22.8077C11.465 22.6579 11.5783 22.5298 11.8795 22.0632C11.9975 21.8804 12.0045 21.8769 12.254 21.8769C12.5611 21.8769 12.4953 22.0112 12.8946 20.5683C13.2187 19.3966 13.5664 18.3048 13.79 17.7571L13.9239 17.4288L14.0887 17.9324C14.5646 19.3868 14.7749 20.2374 14.7831 20.7403L14.7892 21.116L14.4989 21.4416C14.0178 21.9813 14.1593 22.2344 14.8262 22.027C15.1743 21.9189 15.4059 21.8005 15.6544 21.6037C15.9045 21.4055 16.2794 21.2525 16.382 21.3067C16.4235 21.3286 16.5479 21.305 16.7034 21.2456C17.0351 21.119 17.0487 21.0125 16.8238 20.3056C16.7344 20.0246 16.4618 19.0945 16.2178 18.2387C15.9739 17.3829 15.6613 16.2902 15.5231 15.8104L15.272 14.9382L15.527 14.3701C15.8304 13.6948 16.1753 12.8014 16.2194 12.5773C16.2525 12.4088 16.3237 12.3668 16.578 12.3656C16.7729 12.3647 16.7731 12.332 16.5872 10.8405C16.4418 9.67448 16.4103 9.26306 16.3917 8.29112L16.3695 7.13216L16.5941 7.32006C17.5471 8.11725 18.8249 8.72765 19.8997 8.89917C20.9002 9.05874 20.9008 9.05879 20.9008 8.9282C20.9008 8.78904 20.8611 8.78784 21.4951 8.94632C22.221 9.12766 22.332 9.09792 21.9743 8.81769L21.8024 8.68301H21.9774C22.0736 8.68301 22.1972 8.70582 22.252 8.73371C22.5582 8.88946 22.9089 8.86975 22.8638 8.69932C22.8436 8.62254 22.8556 8.59536 22.9098 8.59536C23.1366 8.59536 22.9157 8.43525 22.4692 8.27601C22.0103 8.11234 21.9484 8.1017 21.2929 8.07365C20.5073 8.03998 20.3146 7.98475 19.646 7.60138C18.6765 7.04545 16.82 5.54121 16.5689 5.10812C16.4398 4.8853 16.3284 4.81774 16.0246 4.77768C14.9632 4.63781 13.8398 3.59144 14.2296 3.10574C14.3785 2.92019 14.4246 2.44377 14.302 2.35657C14.25 2.31957 14.2353 2.25299 14.2492 2.11798C14.3324 1.31461 13.4967 0.786459 12.6132 1.08393ZM14.2797 3.90125C14.3688 4.06496 14.3331 4.17498 14.066 4.56103C13.7721 4.98588 13.7623 5.06457 13.8033 6.66666L13.8365 7.95976L14.0468 8.92411C14.1625 9.4545 14.2576 9.90058 14.258 9.91542C14.2584 9.93026 14.1231 9.90669 13.9573 9.86298C13.6596 9.78456 13.654 9.78466 13.4941 9.87433C13.2983 9.98413 13.2774 9.9707 13.3405 9.77593C13.463 9.3984 13.3996 8.84089 12.9425 6.27221C12.728 5.06703 12.6747 4.83733 12.5965 4.78096C12.4473 4.67339 12.5169 4.44572 12.7069 4.42018C12.7867 4.40948 12.8874 4.38607 12.9307 4.36811C12.9907 4.34328 13.0166 4.36255 13.0395 4.4491C13.079 4.59874 13.0719 4.60174 13.3835 4.30563C13.5447 4.1525 13.7087 4.03822 13.7895 4.02283C13.8641 4.00864 13.9743 3.9395 14.0343 3.86916C14.1574 3.72487 14.1857 3.72858 14.2797 3.90125ZM14.6463 5.94799C14.6623 5.98772 14.7043 6.00748 14.7428 5.99345C14.8013 5.97211 14.9045 6.0782 14.9045 6.15973C14.9045 6.17338 14.78 6.18451 14.6277 6.18451C14.3299 6.18451 14.3017 6.15591 14.4317 5.98592C14.5259 5.86291 14.6062 5.84872 14.6463 5.94799ZM17.084 20.7224C16.9849 20.7604 17.0125 21.034 17.1186 21.066C17.2769 21.1137 17.3953 21.0506 17.3953 20.9184C17.3953 20.7324 17.2675 20.652 17.084 20.7224Z" fill="black"/>
</svg>
