<svg width="24" height="24" viewBox="0 0 24 24" fill="none" xmlns="http://www.w3.org/2000/svg">
<rect width="24" height="24" fill="white"/>
<path fill-rule="evenodd" clip-rule="evenodd" d="M19.7632 1.0933C19.6699 1.14769 19.2904 1.35083 18.92 1.54466C18.1879 1.92773 18.2849 1.85649 17.2183 2.79363C16.4992 3.42536 16.2683 3.65385 15.9737 4.02473C15.68 4.3945 15.267 4.82501 14.8104 5.23735C14.6434 5.38817 14.3677 5.63823 14.1977 5.79304C14.0278 5.94785 13.8848 6.07443 13.88 6.07443C13.864 6.07443 13.8771 5.60054 13.8975 5.44026C13.9197 5.2658 13.8972 5.28139 14.3395 5.13463C14.5746 5.05667 14.6184 5.0028 14.564 4.85856C14.5393 4.79301 14.5191 4.7084 14.5191 4.6705C14.5191 4.63259 14.5022 4.57628 14.4816 4.54539C14.4522 4.50128 14.4522 4.46832 14.4816 4.39213C14.5377 4.24693 14.5316 4.23562 14.3698 4.1853C14.2178 4.13808 14.1368 4.07172 13.9804 3.86629C13.4714 3.19747 12.2364 3.42566 12.2364 4.18848C12.2364 4.20909 12.1982 4.23481 12.1515 4.24552C11.6839 4.35326 11.7099 4.97361 12.1883 5.12133C12.2683 5.14609 12.3197 5.14335 12.4254 5.10899C12.7536 5.00199 13.0179 5.259 13.0177 5.68478C13.0174 6.14071 12.7364 6.45691 12.264 6.53273C11.8169 6.60448 11.7563 6.63308 10.8173 7.21618C9.95641 7.75082 9.68072 7.89181 8.93516 8.17874C8.68388 8.27547 8.27094 8.48467 7.59378 8.85843C7.35623 8.98952 6.95364 9.21084 6.6992 9.3502C5.60136 9.95164 5.55398 9.98762 5.00182 10.6372C4.5873 11.1246 4.5167 11.243 4.6271 11.2644C4.73663 11.2857 4.85643 11.2064 5.18771 10.8936C5.51054 10.5887 5.60483 10.521 5.55745 10.6279C5.48898 10.7824 5.50122 11.1023 5.57522 11.0924C5.69044 11.0768 6.09769 10.2922 6.09769 10.0859C6.09769 10.0079 6.18795 9.96006 6.72305 9.75419C7.36721 9.50634 8.1622 9.17603 8.84443 8.87277C9.43149 8.61184 11.0682 7.92972 11.6564 7.70086C12.1951 7.4913 12.4887 7.68113 12.6564 8.34737C12.8068 8.94541 12.6158 9.30624 12.0027 9.58201C10.951 10.0552 10.5908 11.0705 11.2585 11.6801C11.8153 12.1883 12.7583 12.1419 14.8893 11.5012C14.9317 11.4884 15.0219 11.456 15.0898 11.4292C15.2296 11.3737 15.2307 11.3726 14.9284 11.5994C14.6585 11.8017 14.3459 12.1211 13.8469 12.7041C13.4099 13.2146 13.4497 13.1945 13.0539 13.1026C12.4974 12.9734 12.2394 13.1029 12.2371 13.5126C12.2357 13.7464 12.1341 13.8816 11.7816 14.1186C11.1994 14.51 11.4444 14.7035 12.1603 14.4178C13.9923 13.6867 16.8546 11.9349 17.178 11.3469C17.6004 10.5786 16.5901 10.1141 14.4956 10.1138C13.9634 10.1137 13.8122 10.1057 13.8293 10.0786C13.8414 10.0592 13.9094 9.97203 13.9805 9.88469C14.2574 9.54418 14.577 8.88673 14.6573 8.49206C14.6935 8.31419 14.7115 8.28227 14.8286 8.18857C15.1679 7.91678 15.1795 7.6181 14.8645 7.26769C14.5513 6.91935 14.5643 6.8926 15.7827 5.38166C16.0195 5.088 16.2647 4.76567 16.3276 4.66554C16.3963 4.55611 16.4793 4.46529 16.5353 4.43817C16.7685 4.32533 17.0867 3.98431 17.5266 3.37556C17.6758 3.16917 17.9104 2.85445 18.0479 2.67621L18.298 2.35203L18.4522 2.35122C18.7829 2.34952 19.4248 2.15148 19.5587 2.0099C19.6915 1.86957 19.5336 1.82162 19.2079 1.90342C18.9733 1.96239 18.9638 1.95862 19.1021 1.86159C19.1688 1.81482 19.3264 1.70442 19.4523 1.61641C19.8756 1.32009 20.0309 1.15907 19.995 1.05333C19.9689 0.976106 19.9623 0.977215 19.7632 1.0933ZM9.59449 1.51347C9.4202 1.57931 9.4281 1.45184 9.42975 4.16919L9.43125 6.66618L6.78686 6.67357L4.14246 6.68096L4.07123 6.74355L4 6.80614V8.44772V10.0894L4.07573 10.1602C4.14688 10.2267 4.17184 10.231 4.48796 10.231H4.82453L4.91045 10.115C5.03727 9.94373 5.38995 9.64283 5.64376 9.48942C5.99992 9.27409 6.05473 9.24276 6.60665 8.93972C8.04067 8.15221 8.24907 8.04462 8.68886 7.86432C9.52531 7.52152 9.65814 7.45221 10.6037 6.86511C11.3858 6.37947 11.6842 6.23737 12.0803 6.16141C12.3971 6.10066 12.4413 6.07465 12.5392 5.89117C12.6851 5.61791 12.6265 5.52096 12.3118 5.51438C11.4612 5.49672 11.0543 4.47408 11.7188 4.02369C11.8087 3.9628 11.8647 3.89253 11.914 3.77895C12.1648 3.20161 12.9239 2.90447 13.5782 3.12749C13.68 3.16222 13.7876 3.19799 13.8173 3.20708C13.8679 3.22245 13.8713 3.17198 13.8713 2.41403V1.60451L13.79 1.54473C13.7029 1.48059 9.75922 1.45125 9.59449 1.51347ZM15.2075 6.82284L15.1432 6.96501L15.2782 7.13313C15.6024 7.53711 15.5788 7.99179 15.214 8.36851C15.1529 8.43154 15.0958 8.516 15.0872 8.55613C15.0471 8.74109 14.8723 9.20182 14.7527 9.43725L14.6207 9.69707L15.0403 9.71813C15.9201 9.76232 16.6724 9.91831 17.0936 10.1438L17.2566 10.231H18.4348C19.6869 10.231 19.6996 10.2297 19.7783 10.0873C19.847 9.96302 19.8484 6.92223 19.7797 6.79816C19.7125 6.67653 19.7935 6.68067 17.4532 6.68067H15.2717L15.2075 6.82284ZM11.8199 8.0543C11.7351 8.09362 11.3325 8.26357 10.9253 8.43198C9.83084 8.88466 9.65379 8.95952 9.02819 9.23456C8.71428 9.37252 8.11743 9.62125 7.70173 9.78722C7.28603 9.95319 6.86962 10.1207 6.77628 10.1595L6.60665 10.2299L8.01792 10.2305L9.4292 10.231V13.2576C9.4292 16.4628 9.42841 16.4452 9.5738 16.4969C9.61525 16.5116 9.99873 16.5236 10.426 16.5234L11.203 16.5231L11.4035 15.7524C11.6359 14.8586 11.6197 14.9536 11.5423 14.9424C10.8956 14.8492 10.8691 14.3047 11.4884 13.8345C11.7887 13.6065 11.7933 13.6004 11.8173 13.4099C11.8891 12.8381 12.3701 12.5521 13.0135 12.6984L13.2357 12.7489L13.3453 12.636C13.7419 12.2273 13.7373 12.2389 13.4844 12.294C11.7242 12.6781 10.5823 12.1839 10.5167 11.0097C10.4726 10.2219 11.0151 9.5141 11.9279 9.1685C12.2808 9.03489 12.3725 8.62056 12.1432 8.19515C12.0171 7.96127 12.0189 7.96201 11.8199 8.0543ZM13.2081 14.3888C12.9196 14.5297 12.5455 14.6965 12.3767 14.7596L12.0698 14.8744L11.8595 15.663C11.524 16.9209 11.5422 16.8187 11.5458 17.4329C11.5492 17.9968 11.6212 18.6278 11.7778 19.4659L11.8449 19.8247L11.7707 19.88C11.7299 19.9103 11.6276 19.9763 11.5433 20.0264C11.221 20.218 11.1645 20.4651 11.3726 20.7731C11.7306 21.303 11.7425 21.3389 11.7435 21.8868C11.7441 22.1896 11.7548 22.2754 11.8052 22.3793C11.8387 22.4485 11.8662 22.5102 11.8662 22.5164C11.8662 22.5226 11.4254 22.5279 10.8868 22.5282C8.44594 22.5293 5.24331 22.6329 5.00505 22.7184C4.94022 22.7417 4.94306 22.8078 5.01027 22.8406C5.39067 23.0256 16.1383 23.0614 18.4131 22.8851C18.8651 22.8502 18.8575 22.7129 18.4012 22.6702C17.7225 22.6066 14.9096 22.5309 13.0622 22.5265C12.1939 22.5244 12.0971 22.5142 12.1694 22.4326C12.2318 22.3623 12.3492 21.6376 12.4208 20.8824C12.5627 19.3825 12.6577 18.6639 12.8403 17.7072C12.9836 16.9568 13.1248 16.4075 13.6806 14.4382C13.7287 14.2675 13.7602 14.129 13.7503 14.1303C13.7405 14.1317 13.4965 14.2481 13.2081 14.3888ZM13.8089 15.6361C13.7903 15.7036 13.7272 15.9068 13.6689 16.0876C13.5395 16.4886 13.5373 16.5237 13.6413 16.5237C13.8327 16.5237 13.8713 16.4271 13.8713 15.9477C13.8713 15.4853 13.8626 15.4418 13.8089 15.6361ZM4.14396 22.6624C4.098 22.7054 4.12493 22.8439 4.18511 22.8741C4.31477 22.939 4.43789 22.7758 4.33317 22.6778C4.29329 22.6405 4.17745 22.631 4.14396 22.6624ZM19.3066 22.6778C19.195 22.7824 19.3407 22.9562 19.4573 22.8574C19.5544 22.7752 19.5149 22.6431 19.393 22.6431C19.3659 22.6431 19.327 22.6587 19.3066 22.6778Z" fill="black"/>
</svg>
