<svg width="24" height="24" viewBox="0 0 24 24" fill="none" xmlns="http://www.w3.org/2000/svg">
    <rect width="24" height="24" fill="white" />
    <path
        d="M7.33769 1.01396C7.33381 1.02095 7.32409 1.22693 7.31632 1.47132C7.30273 1.96707 7.28525 2.05086 7.18618 2.12592C7.14539 2.15734 7.12402 2.19051 7.1182 2.23939L7.10654 2.30747L6.90841 2.31794V2.46981C6.90841 2.59898 6.90258 2.62691 6.86762 2.66183C6.83071 2.69848 6.82877 2.71419 6.84043 2.84337C6.86179 3.04761 6.87539 3.08776 6.94532 3.15409C7.00359 3.2117 7.00942 3.22741 7.03661 3.4299C7.08712 3.81917 7.06186 5.7376 6.99388 6.8129C6.98222 6.99968 6.96474 7.2912 6.95697 7.45878C6.9492 7.62636 6.93172 7.88122 6.92007 8.0261C6.86374 8.70166 6.83654 8.9827 6.81129 9.16075C6.79575 9.26549 6.78021 9.41561 6.77438 9.49417C6.76273 9.66349 6.73942 9.72284 6.67726 9.74554C6.64035 9.75776 6.6287 9.77696 6.61705 9.84853C6.60345 9.94279 6.58985 9.95152 6.4733 9.95152C6.43834 9.95326 6.40532 9.95501 6.40143 9.96025C6.39366 9.96548 6.43834 10.1697 6.47136 10.2867C6.48107 10.3198 6.49467 10.3687 6.5005 10.3949C6.51021 10.4368 6.51992 10.4438 6.57625 10.4438C6.67726 10.4438 6.67726 10.47 6.57625 10.7231C6.5646 10.7562 6.52381 10.8662 6.48884 10.9675C6.38978 11.259 6.25575 11.6343 6.22856 11.7006C6.17611 11.8333 6.15669 11.8857 6.14115 11.9363C6.13143 11.9642 6.07899 12.1021 6.0246 12.2418C5.97021 12.3814 5.91777 12.5141 5.90805 12.5385C5.89834 12.563 5.85949 12.6607 5.82064 12.7567C5.73906 12.961 5.70798 13.0622 5.72352 13.0779C5.73129 13.0832 6.00906 13.0884 6.34122 13.0884H6.94726L6.97446 13.0378C6.98805 13.0098 7.00748 12.9435 7.01525 12.8894C7.02302 12.8353 7.0405 12.7445 7.0541 12.6869C7.08323 12.5525 7.12014 12.3622 7.16093 12.1545C7.17841 12.0637 7.20366 11.9276 7.2192 11.8525C7.23474 11.7792 7.26194 11.6535 7.27748 11.5732C7.29496 11.4946 7.32215 11.3742 7.33769 11.3079C7.35323 11.2398 7.36489 11.17 7.36489 11.1508C7.36489 11.1316 7.37654 11.0652 7.39208 11.0024C7.44258 10.7981 7.48143 10.5922 7.48143 10.545C7.48143 10.4577 7.52028 10.4438 7.76503 10.4438C7.92625 10.4438 7.99035 10.449 7.99424 10.4647C7.99812 10.4769 8.0156 10.5503 8.03503 10.6271C8.05251 10.7039 8.07971 10.8139 8.0933 10.8715C8.1069 10.9291 8.13409 11.039 8.15158 11.1158C8.16906 11.1927 8.19625 11.2991 8.20985 11.3515C8.22345 11.4039 8.25064 11.5104 8.26812 11.5872C8.2856 11.664 8.3128 11.7739 8.3264 11.8315C8.34193 11.8892 8.36719 11.9956 8.38467 12.0672C8.41769 12.1999 8.44877 12.3186 8.4915 12.4774C8.5051 12.5246 8.52258 12.5961 8.53035 12.6345C8.57697 12.8615 8.64884 13.0762 8.6838 13.0884C8.70129 13.0954 8.95186 13.0936 9.23934 13.0884C9.73078 13.0762 9.76575 13.0727 9.80848 13.0395C9.83179 13.0203 9.85121 12.9837 9.85121 12.9592C9.85121 12.9173 9.79488 12.7637 9.69582 12.5385C9.67251 12.4862 9.64726 12.4233 9.63754 12.3989C9.62783 12.3744 9.60258 12.3116 9.57927 12.2592C9.55596 12.2069 9.53071 12.144 9.521 12.1196C9.51129 12.0951 9.48603 12.0323 9.46272 11.9799C9.43941 11.9276 9.41416 11.8647 9.40445 11.8403C9.39474 11.8158 9.36949 11.753 9.34618 11.7006C9.32287 11.6483 9.29762 11.5854 9.2879 11.561C9.27819 11.5365 9.25294 11.4737 9.22963 11.4213C9.20632 11.369 9.18107 11.3061 9.17136 11.2817C9.16165 11.2572 9.13639 11.1944 9.11308 11.142C9.08978 11.0897 9.06452 11.0216 9.05481 10.9937C9.0451 10.964 9.01985 10.8976 8.99654 10.8453C8.97323 10.7929 8.94603 10.7248 8.93826 10.6969C8.92855 10.6672 8.90719 10.6096 8.8897 10.5677C8.8528 10.4769 8.86057 10.449 8.92272 10.4403C8.96352 10.4351 8.96934 10.4246 8.98294 10.2779C8.99071 10.1907 8.9946 10.0859 8.99265 10.0423L8.98683 9.96374L8.89359 9.95152C8.84114 9.94454 8.79452 9.93755 8.79064 9.93232C8.78675 9.92883 8.77704 9.88693 8.77121 9.8398C8.76344 9.79267 8.74791 9.74204 8.73431 9.72808C8.70323 9.69491 8.6469 9.48544 8.6469 9.40689C8.6469 9.37197 8.63524 9.28818 8.6197 9.21836C8.60416 9.14854 8.57697 9.01238 8.55949 8.91637C8.54201 8.82036 8.51481 8.68246 8.50121 8.61089C8.44488 8.34206 8.35553 7.79917 8.35553 7.7276C8.35553 7.69967 8.34388 7.60192 8.3264 7.51115C8.28366 7.25978 8.23899 6.87051 8.23899 6.74308C8.23704 6.68023 8.22539 6.51615 8.20985 6.3765C8.19431 6.23685 8.18071 6.05705 8.18071 5.97501C8.18071 5.89296 8.16711 5.73236 8.15158 5.61715C8.13604 5.50369 8.12244 5.36229 8.12244 5.30294C8.12244 5.24534 8.10884 5.07601 8.0933 4.92764C8.06222 4.63088 8.03114 4.27827 8.00589 3.91518C7.99618 3.786 7.9787 3.58875 7.96704 3.47877C7.94373 3.24835 7.94956 3.20122 8.01755 3.14711C8.06028 3.11045 8.06417 3.09299 8.06417 2.95684C8.06417 2.74038 8.04863 2.68103 7.99618 2.66881C7.95927 2.66008 7.94568 2.63913 7.92625 2.55709C7.9146 2.50298 7.89906 2.40348 7.89129 2.3354C7.87769 2.20447 7.88158 2.20622 7.72618 2.17829C7.6446 2.16258 7.55136 2.06308 7.52222 1.95834C7.50863 1.90947 7.4892 1.77505 7.48143 1.6581C7.47172 1.54114 7.45424 1.34563 7.44064 1.22169C7.41927 1.03142 7.40956 1 7.38043 1C7.36294 1 7.34352 1.00698 7.33769 1.01396ZM7.4387 3.84885C7.4523 3.86106 7.46201 3.91867 7.46201 3.98849C7.46201 4.09847 7.45812 4.10894 7.41539 4.1264C7.38431 4.14036 7.34935 4.14036 7.31244 4.12989C7.25999 4.11418 7.25805 4.1072 7.25222 3.99373C7.24834 3.92914 7.25028 3.86456 7.25611 3.85059C7.26971 3.82266 7.40568 3.81917 7.4387 3.84885ZM7.84078 3.93787C7.86215 4.11418 7.85438 4.13338 7.76503 4.13164C7.72424 4.12989 7.68345 4.11767 7.67373 4.10545C7.65431 4.07752 7.65042 3.85583 7.66985 3.84012C7.67568 3.83313 7.71453 3.8279 7.75532 3.8279H7.82719L7.84078 3.93787ZM7.78251 4.27128C7.80971 4.27827 7.83496 4.31318 7.85827 4.37428C7.91071 4.51567 7.901 4.53487 7.7728 4.53487C7.66985 4.53487 7.66596 4.53313 7.66014 4.486C7.65625 4.45807 7.67179 4.41268 7.69704 4.37602L7.73784 4.31492L7.69704 4.28001C7.65431 4.24335 7.64654 4.2259 7.66985 4.20495C7.67762 4.19797 7.69704 4.20844 7.71453 4.2259C7.73007 4.2451 7.76114 4.26605 7.78251 4.27128ZM7.46201 4.24859C7.46201 4.26779 7.45424 4.27827 7.44258 4.27303C7.43287 4.26779 7.42316 4.25034 7.42316 4.23637C7.42316 4.22241 7.43287 4.21193 7.44258 4.21193C7.45424 4.21193 7.46201 4.22764 7.46201 4.24859ZM7.3746 4.29223C7.41927 4.30794 7.48532 4.43363 7.47755 4.48774C7.47172 4.53313 7.46589 4.53487 7.36489 4.53487C7.26194 4.53487 7.25805 4.53313 7.25222 4.486C7.24445 4.43537 7.30079 4.28176 7.32798 4.28176C7.33575 4.28176 7.35712 4.28699 7.3746 4.29223ZM7.79222 4.71293C7.86215 4.77402 7.89323 4.81941 7.91265 4.87876C7.92431 4.92414 7.93014 4.96604 7.92431 4.97128C7.90683 4.98699 7.72424 4.98873 7.69899 4.97302C7.66596 4.95557 7.66985 4.90669 7.71453 4.81592C7.74366 4.75482 7.7456 4.73562 7.72618 4.73562C7.68733 4.73562 7.65042 4.68849 7.66402 4.65707C7.67956 4.61866 7.68733 4.62215 7.79222 4.71293ZM7.47172 4.68325C7.47172 4.69547 7.46007 4.70943 7.44841 4.71293C7.43287 4.71816 7.42316 4.70594 7.42316 4.68325C7.42316 4.66056 7.43287 4.64834 7.44841 4.65183C7.46007 4.65707 7.47172 4.67103 7.47172 4.68325ZM7.36294 4.69896C7.4251 4.74784 7.48143 4.85432 7.48143 4.9224V4.98H7.36489C7.24834 4.98 7.24834 4.98 7.24834 4.92764C7.24834 4.89971 7.26388 4.84908 7.28136 4.81592C7.3105 4.75831 7.3105 4.75133 7.28136 4.72165C7.26388 4.7042 7.24834 4.68325 7.24834 4.67801C7.24834 4.65357 7.32215 4.66754 7.36294 4.69896ZM7.31244 5.09521C7.32798 5.11093 7.29107 5.17202 7.26776 5.17202C7.25611 5.17202 7.24834 5.15282 7.24834 5.12838C7.24834 5.08823 7.2833 5.06903 7.31244 5.09521ZM7.48143 5.13536C7.48143 5.16329 7.47172 5.18948 7.45812 5.19297C7.44064 5.19821 7.44453 5.21741 7.46784 5.26279C7.48532 5.29771 7.50086 5.34484 7.50086 5.36753C7.50086 5.4391 7.47561 5.45307 7.36294 5.44783L7.25805 5.44259L7.25222 5.37626C7.24445 5.3012 7.30273 5.21392 7.37654 5.18948C7.40179 5.179 7.42316 5.15806 7.42316 5.1406C7.42316 5.12314 7.42899 5.1022 7.43676 5.09696C7.46395 5.07078 7.48143 5.08649 7.48143 5.13536ZM7.7728 5.11965C7.7728 5.13886 7.79611 5.16504 7.82913 5.179C7.87963 5.20344 7.96704 5.32738 7.96704 5.37626C7.96704 5.4199 7.90489 5.45132 7.82136 5.45132C7.73978 5.45132 7.67568 5.4199 7.67568 5.37975C7.67568 5.34484 7.73201 5.24185 7.75143 5.24185C7.79417 5.24185 7.77086 5.19297 7.72424 5.1825C7.68927 5.17377 7.67568 5.1598 7.67568 5.12838C7.67568 5.09347 7.68539 5.08474 7.72424 5.08474C7.7592 5.08474 7.7728 5.09347 7.7728 5.11965ZM7.94762 5.11093C7.94762 5.12489 7.93402 5.13711 7.91848 5.13711C7.90294 5.13711 7.88935 5.12489 7.88935 5.11093C7.88935 5.09696 7.90294 5.08474 7.91848 5.08474C7.93402 5.08474 7.94762 5.09696 7.94762 5.11093ZM7.31632 5.55606C7.32992 5.59272 7.29884 5.64334 7.26582 5.64334C7.25611 5.64334 7.24834 5.61541 7.24834 5.58224C7.24834 5.51416 7.29496 5.49671 7.31632 5.55606ZM7.76891 5.54908C7.79222 5.58748 7.77668 5.64334 7.74172 5.64334C7.72424 5.64334 7.71453 5.62239 7.71453 5.58224C7.71453 5.51765 7.73978 5.50194 7.76891 5.54908ZM7.94762 5.57351C7.94762 5.58224 7.93402 5.59621 7.92042 5.60319C7.89712 5.61541 7.901 5.63112 7.94956 5.70094C7.98453 5.75157 8.00589 5.80743 8.00589 5.84408V5.90693L7.72424 5.89645L7.71841 5.84059C7.71064 5.77775 7.81942 5.60843 7.86604 5.60843C7.87963 5.60843 7.89517 5.59621 7.901 5.58224C7.9146 5.55257 7.94762 5.54558 7.94762 5.57351ZM7.46784 5.64159C7.44841 5.66778 7.4523 5.68872 7.48338 5.74109C7.56107 5.879 7.52028 5.93311 7.35517 5.91391C7.25028 5.90344 7.24834 5.90169 7.24834 5.84408C7.24834 5.76379 7.30273 5.67476 7.38431 5.62065C7.45812 5.57177 7.50863 5.58399 7.46784 5.64159ZM7.84273 6.0169C7.87963 6.05007 7.84855 6.1164 7.78057 6.14433C7.73784 6.16179 7.73201 6.16004 7.7223 6.12164C7.70287 6.0553 7.72812 5.99246 7.77474 5.99246C7.79611 5.99246 7.82719 6.00294 7.84273 6.0169ZM7.32604 6.05181C7.32604 6.08847 7.27553 6.13735 7.25222 6.12513C7.22309 6.10942 7.22309 6.05705 7.25028 6.03261C7.27553 6.00992 7.32604 6.02214 7.32604 6.05181ZM7.96899 6.14433C8.00978 6.18797 8.06417 6.30144 8.06417 6.33984C8.06417 6.38173 8.02726 6.39395 7.901 6.39395C7.71258 6.39395 7.68733 6.32064 7.8233 6.18448C7.901 6.10767 7.92819 6.10069 7.96899 6.14433ZM7.47755 6.21765C7.54942 6.31715 7.55136 6.32937 7.50863 6.36602C7.45035 6.42014 7.20755 6.38697 7.21143 6.32762C7.21143 6.31016 7.22891 6.27351 7.25028 6.24558C7.27165 6.2159 7.29302 6.17924 7.29884 6.16179C7.30661 6.14433 7.33186 6.13211 7.36294 6.13211C7.40373 6.13211 7.42704 6.15131 7.47755 6.21765ZM7.33381 6.51964C7.37654 6.57375 7.3746 6.57724 7.29302 6.62088C7.21143 6.66452 7.19589 6.6523 7.20561 6.55106C7.21338 6.49171 7.2192 6.48123 7.25805 6.48123C7.2833 6.48123 7.31827 6.49869 7.33381 6.51964ZM7.84855 6.49694C7.89517 6.52313 7.84273 6.60692 7.7864 6.59994C7.75337 6.59644 7.74172 6.58073 7.73784 6.53709C7.73201 6.48822 7.73783 6.48123 7.77668 6.48123C7.80194 6.48123 7.83301 6.48822 7.84855 6.49694ZM8.0564 6.50742C8.06417 6.52138 8.06222 6.54582 8.0564 6.56153C8.04668 6.58423 8.03891 6.58597 8.0156 6.56851C8.00006 6.5563 7.98647 6.53186 7.98647 6.5144C7.98647 6.47425 8.04086 6.47076 8.0564 6.50742ZM8.00006 6.64183C8.05834 6.69769 8.11273 6.82861 8.08942 6.84956C8.05834 6.87749 7.84467 6.88971 7.79611 6.86702C7.74949 6.84432 7.73978 6.78148 7.77474 6.72038C7.81359 6.65405 7.87575 6.60343 7.91848 6.60343C7.94179 6.60343 7.9787 6.62088 8.00006 6.64183ZM7.49891 6.66627C7.52611 6.69769 7.53971 6.73784 7.53971 6.78846C7.53971 6.86003 7.53582 6.86352 7.47755 6.87225C7.44258 6.87749 7.36489 6.87749 7.30661 6.86876C7.16093 6.8513 7.15704 6.81814 7.28525 6.70642C7.39791 6.60866 7.44258 6.60168 7.49891 6.66627ZM7.26971 6.97001C7.31438 6.9927 7.31827 7.05205 7.27359 7.09569C7.2192 7.14981 7.19007 7.13409 7.19007 7.05205C7.19007 6.95255 7.20366 6.93859 7.26971 6.97001ZM7.53971 7.03285C7.53971 7.05729 7.52805 7.07474 7.51251 7.07474C7.47366 7.07474 7.45035 7.00492 7.48338 6.98572C7.52028 6.96652 7.53971 6.98223 7.53971 7.03285ZM8.09913 7.02761C8.10301 7.05903 8.09719 7.07474 8.07776 7.07474C8.03697 7.07474 8.00006 7.02761 8.01366 6.99445C8.03309 6.9508 8.0933 6.9735 8.09913 7.02761ZM7.84078 7.00666C7.86215 7.03459 7.83301 7.10966 7.80194 7.10966C7.78251 7.10966 7.7728 7.09045 7.7728 7.04856C7.7728 6.98746 7.81165 6.96302 7.84078 7.00666ZM7.47949 7.16202C7.52222 7.21963 7.54553 7.27025 7.54748 7.31389L7.54942 7.38023L7.41345 7.38546C7.25417 7.39245 7.19784 7.38197 7.1823 7.34357C7.17258 7.31913 7.19784 7.2528 7.22697 7.23185C7.23474 7.22661 7.26776 7.18995 7.30467 7.14806C7.33963 7.10791 7.37848 7.07474 7.39014 7.07474C7.40373 7.07474 7.44258 7.11315 7.47949 7.16202ZM8.03697 7.1533C8.12244 7.23534 8.1574 7.32437 8.1205 7.36452C8.10496 7.38023 8.05445 7.38895 7.96704 7.38895C7.79999 7.38895 7.7728 7.38023 7.7728 7.31913C7.7728 7.27025 7.90294 7.07474 7.93596 7.07474C7.94568 7.07474 7.99035 7.10966 8.03697 7.1533ZM7.26971 7.49369C7.31827 7.51813 7.31632 7.57224 7.26776 7.61588C7.20172 7.67524 7.17064 7.66127 7.17064 7.57574C7.17064 7.47449 7.19201 7.45703 7.26971 7.49369ZM7.90683 7.50067C7.92625 7.51988 7.92431 7.53733 7.89906 7.57923C7.85632 7.65603 7.81165 7.6508 7.81165 7.56701C7.81165 7.53035 7.81748 7.49369 7.82524 7.48845C7.84661 7.46925 7.88352 7.47449 7.90683 7.50067ZM7.53582 7.54431C7.54748 7.6089 7.50668 7.62985 7.48143 7.57399C7.47172 7.54781 7.46784 7.51813 7.47366 7.5094C7.49309 7.48147 7.52999 7.50242 7.53582 7.54431ZM8.12244 7.53908C8.12244 7.59319 8.07776 7.58795 8.06805 7.53209C8.06417 7.50591 8.07194 7.49369 8.09136 7.49369C8.11273 7.49369 8.12244 7.5094 8.12244 7.53908ZM7.46978 7.66651C7.53194 7.72411 7.54359 7.74506 7.54553 7.81838L7.54942 7.90391L7.35906 7.90915C7.14539 7.91439 7.12208 7.90042 7.17647 7.80267C7.21532 7.73109 7.34158 7.59843 7.37266 7.59843C7.38431 7.59843 7.42899 7.6281 7.46978 7.66651ZM8.09719 7.66651C8.17683 7.75379 8.22927 7.8498 8.21373 7.88471C8.20208 7.90915 8.171 7.91264 8.00201 7.90915C7.80388 7.90391 7.80194 7.90391 7.79611 7.86027C7.79028 7.80965 7.95927 7.59843 8.00589 7.59843C8.02143 7.59843 8.06222 7.62985 8.09719 7.66651ZM7.30273 8.06102C7.30856 8.10117 7.18035 8.23383 7.15122 8.21812C7.14151 8.21289 7.13762 8.17099 7.14151 8.1256C7.14539 8.08022 7.14928 8.03658 7.15122 8.0296C7.15122 8.02087 7.18424 8.01738 7.22503 8.02087C7.27942 8.02436 7.29884 8.03483 7.30273 8.06102ZM7.54553 8.04007C7.56107 8.07847 7.53776 8.15703 7.51057 8.15703C7.48143 8.15703 7.4523 8.06276 7.47172 8.03483C7.4892 8.01039 7.53388 8.01388 7.54553 8.04007ZM7.99424 8.03309C8.00006 8.04181 7.97287 8.08371 7.93402 8.12735C7.88546 8.18146 7.85632 8.20067 7.84661 8.1867C7.82913 8.16052 7.82719 8.04531 7.84467 8.0296C7.86215 8.01214 7.98258 8.01563 7.99424 8.03309ZM8.22539 8.09069L8.20596 8.13084L8.18265 8.08895C8.16129 8.05578 8.16129 8.04531 8.18265 8.03309C8.22345 8.01039 8.2487 8.04531 8.22539 8.09069ZM8.13409 8.16226C8.18848 8.21638 8.29726 8.37872 8.29726 8.40839C8.29726 8.43982 8.19237 8.45029 7.99229 8.43982C7.83884 8.43109 7.83107 8.42934 7.83107 8.38919C7.83107 8.34032 7.87186 8.28096 7.96704 8.18845C8.04474 8.11339 8.07776 8.10815 8.13409 8.16226ZM7.47561 8.21289C7.56107 8.29842 7.61352 8.39443 7.58632 8.41887C7.56496 8.43807 7.45035 8.44505 7.26388 8.43982C7.14539 8.43632 7.13179 8.43283 7.13179 8.40141C7.13179 8.33159 7.30467 8.13957 7.36683 8.13957C7.38431 8.13957 7.43287 8.17274 7.47561 8.21289ZM7.28525 8.57423C7.30273 8.60041 7.29302 8.61787 7.23668 8.67024C7.19978 8.70515 7.16093 8.73308 7.15122 8.73308C7.12985 8.73308 7.12402 8.57074 7.14539 8.55328C7.17258 8.5271 7.26776 8.54106 7.28525 8.57423ZM7.55525 8.6266C7.54748 8.7034 7.49503 8.71388 7.48532 8.64056C7.47561 8.57248 7.49309 8.53932 7.52999 8.55153C7.5533 8.56026 7.55913 8.58121 7.55525 8.6266ZM8.29337 8.62311C8.30114 8.70864 8.27589 8.71911 8.21762 8.65802C8.1574 8.59343 8.17294 8.53582 8.2487 8.54455C8.27978 8.54804 8.28949 8.5655 8.29337 8.62311ZM7.99424 8.58645C8.00783 8.61612 7.9515 8.69642 7.91654 8.69817C7.89129 8.69817 7.86798 8.61612 7.88352 8.58121C7.89712 8.54979 7.98064 8.55328 7.99424 8.58645ZM8.21956 8.76275C8.34388 8.8832 8.38467 8.94779 8.36524 8.99143C8.35747 9.01063 8.3128 9.01412 8.14186 9.00889C7.89517 9.0019 7.85632 8.98445 7.87769 8.88669C7.88935 8.83258 8.04668 8.6458 8.08359 8.6458C8.09136 8.6458 8.15352 8.69817 8.21956 8.76275ZM7.46589 8.74704C7.5669 8.84654 7.60186 8.90066 7.59409 8.95477L7.58827 9.00365L7.37266 9.00889C7.18618 9.01238 7.15122 9.00889 7.11237 8.98096L7.06769 8.94779L7.10848 8.88669C7.16676 8.8029 7.31632 8.68071 7.361 8.68071C7.38043 8.68071 7.42704 8.71039 7.46589 8.74704ZM8.02532 9.11188C8.08359 9.1241 8.12244 9.14854 8.12244 9.17647C8.12244 9.2009 7.93402 9.37896 7.90683 9.37896C7.89712 9.37896 7.88935 9.31088 7.88935 9.22883C7.88935 9.08046 7.88935 9.07871 7.93402 9.09093C7.95733 9.09617 7.99812 9.10664 8.02532 9.11188ZM7.58632 9.11537C7.60575 9.1433 7.60575 9.34404 7.58438 9.36325C7.57078 9.37547 7.54359 9.35277 7.49309 9.28295C7.39402 9.15028 7.40373 9.12584 7.56301 9.1014C7.57078 9.1014 7.5805 9.10664 7.58632 9.11537ZM7.19978 9.14504C7.22697 9.16075 7.24834 9.18519 7.24834 9.2009C7.24834 9.22883 7.11625 9.3615 7.08906 9.3615C7.06963 9.3615 7.06769 9.14504 7.08712 9.12933C7.10848 9.11013 7.14928 9.11537 7.19978 9.14504ZM8.40992 9.23582C8.41381 9.29517 8.40798 9.34404 8.39827 9.34404C8.3769 9.34404 8.27783 9.21836 8.27783 9.19218C8.27783 9.16075 8.33805 9.11537 8.37301 9.12061C8.39632 9.1241 8.40604 9.15028 8.40992 9.23582ZM7.4523 9.38245C7.51251 9.44354 7.57467 9.51861 7.59021 9.55003C7.63877 9.64778 7.61158 9.65825 7.32604 9.65825C7.18812 9.65825 7.06381 9.65302 7.04633 9.64778C7.00359 9.63382 7.00748 9.57621 7.05604 9.5221C7.12597 9.44005 7.30661 9.27422 7.32409 9.27422C7.33381 9.27422 7.39208 9.3231 7.4523 9.38245ZM8.27978 9.35626C8.42157 9.49242 8.47596 9.56574 8.46819 9.60938C8.46237 9.64778 8.45654 9.64953 8.22345 9.65476C7.94956 9.66 7.90877 9.64778 7.90877 9.56574C7.90877 9.5221 7.93596 9.48544 8.03114 9.39292C8.09719 9.32833 8.16129 9.27422 8.17294 9.27422C8.1846 9.27422 8.23316 9.31088 8.27978 9.35626ZM7.37266 10.47C7.38625 10.5031 7.35517 10.7074 7.32215 10.8104L7.29496 10.8889L6.99582 10.8942C6.83266 10.8959 6.68892 10.8907 6.6792 10.8819C6.66949 10.8732 6.67338 10.8261 6.69086 10.765C6.7064 10.7074 6.72971 10.6236 6.74136 10.5747C6.75496 10.5276 6.77438 10.4787 6.78604 10.4665C6.80158 10.449 6.88122 10.4438 7.08323 10.4438C7.31244 10.4438 7.36294 10.449 7.37266 10.47ZM8.72071 10.4577C8.7615 10.4822 8.85668 10.8435 8.83143 10.8802C8.82366 10.8907 8.69157 10.8976 8.53035 10.8976C8.19625 10.8976 8.22733 10.9151 8.16323 10.6899C8.1205 10.5363 8.11273 10.4752 8.13604 10.456C8.15352 10.4385 8.68963 10.442 8.72071 10.4577Z" />
    <path
        d="M12.9785 2.45759C12.5648 2.49425 12.0928 2.58676 11.7548 2.70197C11.4518 2.80497 11.1177 2.94287 10.937 3.04062C10.9001 3.06157 10.8574 3.08252 10.8419 3.0895C10.7894 3.11045 10.5427 3.25883 10.3893 3.36182C9.90754 3.6865 9.34035 4.25383 9.11308 4.63961C9.10143 4.65881 9.06647 4.71292 9.03539 4.7618C8.88776 4.98175 8.70711 5.34658 8.62165 5.5997C8.48956 5.99421 8.47208 6.07974 8.47208 6.31016C8.47208 6.66801 8.53035 7.2528 8.61193 7.72935C8.62359 7.79568 8.63913 7.89867 8.6469 7.95628C8.67215 8.1256 8.70517 8.31413 8.73625 8.44505C8.75179 8.51139 8.76345 8.58645 8.76345 8.60914C8.76345 8.63358 8.7751 8.69642 8.79064 8.74879C8.80618 8.8029 8.83143 8.90939 8.85085 8.98619C8.86834 9.063 8.89359 9.16425 8.90913 9.21312C8.92273 9.26025 8.94021 9.3231 8.94603 9.34928C8.96546 9.42609 8.99654 9.38594 8.99654 9.28644C8.99654 8.9635 9.24323 8.65278 9.5987 8.5236C9.75798 8.46774 9.75603 8.46949 9.83567 8.35079C9.90949 8.24081 9.92697 8.18496 9.89006 8.16575C9.88035 8.16052 9.87064 8.13782 9.87064 8.11688C9.87064 8.09593 9.85898 8.0488 9.84344 8.00865C9.7774 7.83583 9.72301 7.53035 9.70164 7.21788C9.68999 7.04332 9.73272 6.62437 9.78517 6.39395C9.8415 6.15306 9.92308 5.91915 10.0183 5.72189C10.0707 5.61366 10.1853 5.40593 10.2222 5.35531C10.2416 5.32564 10.265 5.29072 10.2727 5.27676C10.2941 5.23486 10.4514 5.03063 10.5272 4.94509C10.6612 4.79497 10.9875 4.5052 11.1662 4.37602C11.2634 4.30445 11.3488 4.24684 11.3566 4.24684C11.3624 4.24684 11.3974 4.22764 11.4304 4.20495C11.4654 4.18226 11.5373 4.14211 11.5897 4.11592C11.6441 4.09149 11.7218 4.05308 11.7645 4.03213C11.9044 3.96231 12.2074 3.85408 12.3958 3.8052C12.7882 3.70396 13.0426 3.67079 13.4331 3.67079C13.8526 3.67079 14.078 3.69872 14.4937 3.8052C14.6918 3.85408 14.9987 3.96755 15.1405 4.04086C15.191 4.06705 15.2376 4.08974 15.2415 4.08974C15.2667 4.08974 15.5639 4.26081 15.698 4.35158C16.0262 4.57502 16.5274 5.06903 16.6362 5.27676C16.6439 5.29072 16.6672 5.32564 16.6886 5.35531C16.7566 5.44957 16.9489 5.81266 17.0052 5.94882C17.0305 6.01341 17.048 6.06752 17.1237 6.30667C17.2208 6.62088 17.2675 7.08696 17.2344 7.41165C17.2208 7.5286 17.2034 7.66825 17.1917 7.72062C17.18 7.77299 17.1626 7.85154 17.1548 7.89518C17.1295 8.03483 16.9897 8.45727 16.9431 8.53582C16.9334 8.55328 16.8809 8.64929 16.8265 8.75054C16.7702 8.85178 16.71 8.95652 16.6886 8.98619C16.6672 9.01412 16.6439 9.05078 16.6362 9.06475C16.5468 9.23233 16.2321 9.57097 15.9097 9.84329C15.7718 9.96025 15.3872 10.2081 15.2124 10.2919C15.1754 10.3111 15.1094 10.3443 15.0647 10.3652C14.9598 10.4176 14.6685 10.5311 14.6374 10.5311C14.5947 10.5311 14.5908 10.559 14.6219 10.6428C14.6821 10.7981 14.6316 10.9884 14.5014 11.1089C14.3441 11.2555 14.0935 11.3218 13.8488 11.2817C13.6118 11.2415 13.4428 11.142 13.3088 10.9622C13.268 10.9064 13.2272 10.861 13.2194 10.861C13.2116 10.861 13.1864 10.8976 13.165 10.9448C13.0601 11.1595 12.7707 11.4562 12.4483 11.6744C12.3667 11.7286 12.2987 11.7879 12.2987 11.8036C12.2987 11.8193 12.3162 11.8665 12.3375 11.9084C12.3842 11.9991 12.388 12.1056 12.3473 12.2086C12.3298 12.2487 12.3239 12.2889 12.3317 12.2941C12.3414 12.3011 12.4347 12.3308 12.5415 12.3622C12.7455 12.4198 12.7765 12.4303 13.0271 12.5211C13.2719 12.6118 13.6157 12.7567 13.7847 12.8423C13.8274 12.8632 13.9245 12.9121 13.9983 12.9487C14.0741 12.9854 14.1615 13.0308 14.1926 13.0482C14.2256 13.0657 14.2683 13.0866 14.2897 13.0971C14.3111 13.1076 14.3557 13.1303 14.3868 13.1477C14.4198 13.1669 14.4839 13.2019 14.5325 13.2245C14.5811 13.249 14.651 13.2839 14.6879 13.3031C14.818 13.3729 15.1444 13.5108 15.2415 13.5388C15.3833 13.5789 15.6455 13.626 15.6883 13.6191C15.7349 13.6103 15.9893 13.2717 16.1603 12.9924C16.1739 12.9679 16.203 12.9243 16.2224 12.8964C16.2418 12.8667 16.2826 12.8039 16.3118 12.7567C16.405 12.6049 16.4186 12.5839 16.4555 12.5298C16.4749 12.5001 16.5157 12.4373 16.5449 12.3901C16.574 12.3413 16.6109 12.2837 16.6245 12.2592C16.6401 12.2348 16.6808 12.1685 16.7177 12.1108C16.7527 12.0532 16.8052 11.966 16.8343 11.9188C16.8615 11.87 16.9139 11.7844 16.9489 11.7268C17.1043 11.4702 17.2325 11.2503 17.3995 10.95C17.5627 10.6533 17.6152 10.5555 17.7492 10.2902C17.7744 10.2413 17.8172 10.1575 17.8424 10.1069C17.8677 10.058 17.9085 9.97247 17.9318 9.9201C17.9551 9.86773 17.9842 9.79965 17.9978 9.77172C18.0231 9.72284 18.0425 9.67571 18.1124 9.50988C18.1746 9.35801 18.2095 9.2812 18.2348 9.22534C18.2503 9.19392 18.262 9.15726 18.262 9.1433C18.262 9.12933 18.2736 9.09268 18.2892 9.06125C18.3494 8.93382 18.4698 8.53931 18.5223 8.29667C18.6718 7.61588 18.6718 6.78148 18.5223 6.18448C18.4679 5.96453 18.3572 5.63636 18.2892 5.49496C18.2756 5.46528 18.2329 5.37277 18.194 5.28723C18.1221 5.13013 17.9842 4.88749 17.9007 4.76704C17.8754 4.73213 17.8541 4.69721 17.8541 4.69372C17.8541 4.67801 17.6734 4.44759 17.5044 4.24684C17.18 3.86281 16.7605 3.50496 16.3215 3.23788C16.1913 3.15933 16.0826 3.09474 16.0787 3.09474C16.0729 3.09474 16.0068 3.06157 15.9272 3.01968C15.8495 2.97953 15.7543 2.93414 15.7174 2.91669C15.4105 2.78576 15.0978 2.67579 14.853 2.61469C14.1965 2.44886 13.6409 2.40173 12.9785 2.45759Z" />
    <path
        d="M13.7167 5.96453C13.7167 5.98722 13.6972 6.0169 13.6739 6.03261C13.6312 6.0588 13.6293 6.0588 13.6681 6.07101C13.8041 6.11291 13.9672 6.23685 14.0294 6.35031C14.0547 6.3957 14.0663 6.44632 14.0624 6.48996C14.0547 6.58073 14.0197 6.57899 13.841 6.47251C13.7108 6.3957 13.6526 6.37824 13.6312 6.40966C13.6254 6.41665 13.6467 6.44981 13.6798 6.48298C13.7128 6.51615 13.7788 6.5947 13.8274 6.65929C13.876 6.72562 13.9847 6.83734 14.0702 6.90891L14.2275 7.03809L14.2023 7.12188C14.177 7.19694 13.9323 7.64905 13.8371 7.79045C13.7808 7.87249 13.6875 8.0488 13.6467 8.14131C13.6234 8.19717 13.6118 8.30366 13.6021 8.5271C13.5943 8.69642 13.5826 8.84131 13.5749 8.84829C13.5671 8.85527 13.5283 8.86051 13.4855 8.85876C13.4331 8.85702 13.402 8.86575 13.3767 8.89018C13.3496 8.91637 13.3262 8.92335 13.2796 8.91462C13.2369 8.90764 13.2116 8.91288 13.1922 8.93208C13.1747 8.95303 13.1495 8.95826 13.1048 8.94954C13.0698 8.9443 13.0232 8.94779 12.9999 8.95826C12.9649 8.97572 12.9591 8.99492 12.9591 9.08744C12.9611 9.14679 12.9727 9.2428 12.9883 9.3004C13.0329 9.46449 13.0271 9.53955 12.9591 9.62858C12.8853 9.72808 12.6386 9.8974 12.4541 9.97247C12.2521 10.058 12.2404 10.0597 12.017 10.0597C11.8888 10.0597 11.7917 10.0667 11.7839 10.0772C11.7781 10.0877 11.7839 10.0982 11.7975 10.0999C12.0034 10.1488 12.2696 10.2465 12.5221 10.3705C12.592 10.4036 12.7552 10.573 12.8018 10.6585C12.8251 10.7004 12.8426 10.7685 12.8445 10.8121C12.8465 10.9448 12.8659 10.9605 12.9144 10.8662C12.9669 10.7615 13.0174 10.6253 13.0174 10.5869C13.0174 10.5311 13.132 10.3774 13.233 10.2989C13.3767 10.1872 13.3923 10.1854 13.4836 10.2902C13.5263 10.3373 13.5613 10.3844 13.5613 10.3949C13.5613 10.4036 13.5457 10.4333 13.5263 10.4577C13.4816 10.5154 13.4447 10.6096 13.4447 10.6637C13.4447 10.7789 13.5826 10.9465 13.7439 11.0216C13.8488 11.0705 14.0838 11.074 14.1829 11.0286C14.4665 10.8994 14.4684 10.648 14.1887 10.4839C14.144 10.456 14.1421 10.4543 14.1751 10.442C14.1965 10.4351 14.247 10.4281 14.2878 10.4281C14.4529 10.4246 14.7093 10.2308 14.8161 10.0283C14.8783 9.90788 14.8821 9.89217 14.8821 9.70888C14.8821 9.57097 14.8724 9.49591 14.8511 9.45227C14.7131 9.16425 14.5733 9.01063 14.4393 9.0019C14.3965 9.00016 14.3441 8.98969 14.3247 8.98096C14.3052 8.97048 14.2217 8.95826 14.1362 8.95128L13.9847 8.93732L13.9964 8.85178C14.0042 8.80465 14.0216 8.74181 14.0352 8.71039C14.0508 8.67896 14.076 8.60739 14.0935 8.54979C14.111 8.49218 14.1382 8.4049 14.1537 8.35777C14.2023 8.19718 14.2392 8.08022 14.2703 7.96501C14.2878 7.90217 14.3149 7.81139 14.3305 7.76252C14.346 7.71364 14.3577 7.65953 14.3577 7.64207C14.3577 7.62461 14.3693 7.5705 14.3849 7.52162C14.4004 7.47274 14.4257 7.38546 14.4412 7.32786C14.5655 6.87051 14.5675 6.88447 14.4082 6.60517C14.2761 6.36777 14.1906 6.22987 14.144 6.17226C14.111 6.13211 13.7691 5.92264 13.7361 5.92264C13.7264 5.92264 13.7167 5.94184 13.7167 5.96453Z" />
    <path
        d="M10.7331 6.69769C10.6787 6.72038 10.6262 6.74831 10.6204 6.75879C10.6127 6.76926 10.568 6.78672 10.5214 6.79719C10.4262 6.81814 10.3465 6.88622 10.265 7.01365C10.2106 7.09918 10.2106 7.10442 10.2125 7.38023C10.2125 7.53384 10.2242 7.73284 10.2378 7.82187C10.2591 7.97897 10.2591 7.98596 10.2086 8.09768C10.1562 8.21638 10.1581 8.25478 10.2145 8.27398C10.2999 8.30191 10.7039 8.5463 10.7855 8.61787C10.8302 8.65802 10.8613 8.65278 10.8613 8.6039C10.8613 8.54455 10.8807 8.50615 10.9098 8.50615C10.9234 8.50615 10.9856 8.53408 11.0458 8.56725C11.108 8.60041 11.1896 8.63358 11.2265 8.63882C11.3158 8.65453 11.3605 8.60914 11.4421 8.41887C11.5392 8.19019 11.5431 8.18496 11.6519 8.17448L11.7451 8.16575L11.7373 7.95454C11.7334 7.80441 11.7393 7.7311 11.7568 7.70142C11.7703 7.67873 11.7859 7.6089 11.7917 7.54781C11.8014 7.44656 11.8092 7.43434 11.8616 7.40816C11.9743 7.35404 12.0481 7.29644 12.0967 7.22836C12.1491 7.15504 12.1472 7.10966 12.0928 7.10966C12.019 7.10966 11.9102 7.06253 11.7062 6.94208C11.2362 6.66452 10.972 6.59819 10.7331 6.69769Z" />
    <path
        d="M10.0591 8.43982C10.0338 8.47124 9.98913 8.53583 9.95805 8.5847C9.89006 8.69119 9.88229 8.69817 9.77934 8.69817C9.68611 8.69817 9.63366 8.71213 9.6492 8.73483C9.65503 8.74355 9.68222 8.75054 9.71136 8.75054C9.75409 8.75054 9.83567 8.81512 10.1232 9.06998C10.3213 9.24629 10.5175 9.43307 10.5602 9.48719C10.6243 9.56923 10.6534 9.59018 10.735 9.61287C11.0322 9.69841 11.2517 9.76474 11.3469 9.79791C11.5839 9.8782 11.6111 9.88868 11.6771 9.90439C11.7626 9.92359 12.0656 9.90788 12.1821 9.87646C12.2307 9.86249 12.2909 9.85027 12.3162 9.84678C12.3434 9.84329 12.3667 9.83282 12.3706 9.82409C12.3744 9.81013 11.817 9.461 11.747 9.43307C11.7393 9.42958 11.6771 9.39467 11.6111 9.35452C11.547 9.31437 11.479 9.27597 11.4634 9.26898C11.4479 9.262 11.4091 9.24106 11.376 9.22185C11.2731 9.1625 11.0885 9.08395 11.073 9.09268C11.0633 9.09617 11.0652 9.12061 11.075 9.14505C11.0983 9.20091 11.1002 9.27946 11.0769 9.26724C11.0672 9.262 11.0244 9.2044 10.9798 9.13981C10.8477 8.9443 10.7486 8.8256 10.5952 8.68071C10.4437 8.53583 10.2144 8.38396 10.1465 8.38396C10.1232 8.38396 10.0862 8.4084 10.0591 8.43982Z" />
    <path
        d="M9.44913 8.8448C9.42388 8.86749 9.40445 8.89542 9.40445 8.9059C9.40445 8.91637 9.39668 8.9251 9.38697 8.9251C9.35783 8.9251 9.24905 9.16076 9.24905 9.22709C9.24905 9.24629 9.2646 9.25328 9.30344 9.25153C9.35006 9.24804 9.35589 9.25327 9.35006 9.29866C9.34618 9.32659 9.33064 9.37896 9.3151 9.41736C9.27625 9.51861 9.27819 9.87995 9.31898 10.0056C9.37726 10.1872 9.44913 10.346 9.59093 10.6149C9.6492 10.7231 9.69582 10.8139 9.69582 10.8191C9.69582 10.8243 9.72301 10.8802 9.75603 10.9448C9.84539 11.1263 9.86287 11.163 9.89589 11.238C9.91143 11.2764 9.93862 11.341 9.9561 11.3812C10.0552 11.6186 10.1057 11.7687 10.1931 12.1021C10.2455 12.2976 10.2455 12.8318 10.1931 12.9313C9.92502 13.4428 9.89783 13.4986 9.8551 13.6295C9.77157 13.8914 9.74049 14.2038 9.78323 14.3994C9.79682 14.4709 9.83956 14.4762 9.87841 14.4098C9.90172 14.3697 9.90754 14.3679 9.9192 14.3924C9.92697 14.4098 9.9192 14.457 9.90366 14.4971C9.88812 14.539 9.84733 14.6542 9.81236 14.7555C9.7774 14.8567 9.74049 14.9579 9.73078 14.9824C9.71913 15.0068 9.70359 15.0487 9.69582 15.0784C9.66862 15.1692 9.60841 15.3175 9.43359 15.7243C9.3287 15.9687 9.29373 16.049 9.25488 16.1432C9.2374 16.1816 9.21409 16.2357 9.20049 16.2654C9.18496 16.2933 9.14805 16.3771 9.11697 16.4487C8.89359 16.9532 8.91107 16.927 8.6469 17.1819C8.29143 17.5275 8.12827 17.6933 7.94568 17.8906C7.73589 18.1158 7.44064 18.4265 7.33769 18.526C7.29302 18.5696 7.17453 18.6901 7.07546 18.7966C6.97445 18.9013 6.88316 18.9956 6.87151 19.006C6.85985 19.0148 6.79964 19.0741 6.73942 19.137C6.65784 19.2225 6.63453 19.2591 6.64618 19.2766C6.68892 19.3377 6.66172 19.3778 6.43057 19.5821C6.30237 19.6973 6.15086 19.8457 6.09259 19.9138C5.98964 20.0342 5.86532 20.2384 5.84395 20.324C5.8323 20.3676 5.81676 20.3746 5.59726 20.4444C5.56036 20.4566 5.50403 20.4723 5.471 20.4811C5.43992 20.4898 5.36417 20.5125 5.3059 20.5334C5.24762 20.5544 5.18158 20.5753 5.16021 20.5806C5.08252 20.598 4.91741 20.6626 4.91741 20.6748C4.91741 20.6993 5.01647 20.708 5.41856 20.7202C5.83618 20.7307 6.18777 20.7167 6.72388 20.6644C7.06963 20.6312 7.65431 20.5963 7.71453 20.6068C7.7592 20.6137 7.76114 20.6155 7.72424 20.6295C7.70287 20.6364 7.67179 20.6539 7.65625 20.6644C7.64071 20.6766 7.60575 20.6906 7.57855 20.6958C7.52028 20.708 7.18424 20.8127 7.17258 20.8215C7.1415 20.8494 7.36294 20.9541 8.3264 21.3713C8.48762 21.4394 8.76733 21.5616 8.94798 21.6419C9.13057 21.7205 9.41805 21.8479 9.58898 21.9212C9.75992 21.9963 10.0843 22.1377 10.3077 22.2354C10.533 22.3349 10.9079 22.499 11.1429 22.602C11.378 22.705 11.6771 22.8359 11.8073 22.8935L12.0423 23L12.4288 22.8254C12.6406 22.7294 13.0155 22.5584 13.2602 22.4449C13.9167 22.1429 14.4393 21.902 15.0181 21.6384C15.3017 21.5075 15.6377 21.3539 15.766 21.2928C15.8942 21.2334 16.1739 21.1043 16.3875 21.0048C16.6012 20.9053 16.9081 20.7639 17.0674 20.6888C17.2286 20.6155 17.4675 20.5038 17.6016 20.4427L17.8444 20.3327H18.567C19.0972 20.3327 19.2954 20.3275 19.3129 20.3118C19.3303 20.296 19.3187 20.2891 19.2604 20.2821C19.2177 20.2768 19.1283 20.2594 19.0584 20.2454C18.9885 20.2315 18.9147 20.2192 18.8952 20.2192C18.8739 20.2192 18.8098 20.207 18.7495 20.1913C18.6893 20.1773 18.5941 20.1529 18.5398 20.1389C18.4834 20.125 18.4368 20.1058 18.4368 20.0953C18.4368 20.0866 18.53 20.0394 18.6466 19.9906C18.9244 19.8719 20.0005 19.3901 20.2918 19.2522C20.42 19.1928 20.6473 19.0846 20.7969 19.0148C20.9464 18.9449 21.2009 18.8262 21.3602 18.7512C21.5214 18.6779 21.7312 18.5801 21.8264 18.5347C21.9235 18.4893 22.1449 18.3863 22.3217 18.3043C22.8928 18.039 22.9705 18.0023 22.9899 17.9848C23.0229 17.9552 22.9744 17.9307 22.8539 17.915C22.7898 17.9063 22.7044 17.8923 22.6616 17.8836C22.6189 17.8731 22.5101 17.8522 22.4188 17.8365C22.3275 17.8208 22.1935 17.7981 22.1177 17.7841C22.0439 17.7701 21.908 17.7474 21.8167 17.7317C21.7254 17.716 21.5952 17.6933 21.5253 17.6794C21.4554 17.6637 21.3816 17.6532 21.3602 17.6532C21.3233 17.6532 21.2359 17.6375 20.929 17.5729C20.8629 17.5589 20.7891 17.5484 20.7639 17.5484C20.7405 17.5484 20.6629 17.5362 20.5929 17.5223C20.4064 17.4839 19.9985 17.414 19.68 17.3652C19.511 17.339 19.4411 17.3267 19.107 17.2674C19.0429 17.2552 18.9418 17.243 18.8836 17.2377C18.8253 17.2342 18.767 17.2238 18.7534 17.2133C18.7418 17.2046 18.6796 17.1941 18.6175 17.1888C18.4951 17.1801 18.2523 17.1435 18.0464 17.1016C17.9745 17.0893 17.9007 17.0771 17.8813 17.0771C17.8599 17.0771 17.7841 17.0667 17.7084 17.0527C17.6346 17.0387 17.4889 17.0143 17.3879 16.9986C17.2869 16.9829 17.1431 16.9602 17.0674 16.9462C16.8615 16.9095 16.6284 16.8694 16.5624 16.8607C16.4905 16.8519 16.2962 16.8205 16.1156 16.7891C15.8398 16.742 15.7426 16.7263 15.5736 16.7088C15.4785 16.7001 15.3988 16.6948 15.393 16.7001C15.3891 16.7036 15.4085 16.7263 15.4377 16.7507L15.4901 16.7943L15.4357 16.8258C15.4066 16.8415 15.3347 16.8607 15.2745 16.8642C15.1813 16.8711 15.1502 16.8834 15.0861 16.934C15.0434 16.9689 15.0065 17.0021 15.0026 17.0073C15.0006 17.0125 15.0783 17.0317 15.1774 17.0475C15.2765 17.0649 15.4202 17.0893 15.494 17.1016C15.7543 17.1487 15.9233 17.1801 16.067 17.2063C16.1467 17.2203 16.2865 17.2447 16.3778 17.2604C16.6265 17.3023 16.8984 17.3529 17.2422 17.4175C17.3277 17.435 17.419 17.4507 17.4462 17.4559C17.4889 17.4629 17.485 17.4681 17.3976 17.5065C17.3432 17.5292 17.2908 17.5484 17.2772 17.5484C17.2636 17.5484 17.2247 17.5589 17.1898 17.5729C17.1548 17.5851 17.0732 17.6095 17.0091 17.627C16.945 17.6445 16.8576 17.6671 16.8149 17.6794C16.6672 17.7213 16.5546 17.7509 16.203 17.84C15.9058 17.915 15.7562 17.9639 15.7562 17.9848C15.7562 17.9953 15.8806 18.0878 16.0962 18.2345C16.2049 18.3095 16.2011 18.3095 16.4847 18.2275C16.5818 18.1996 16.708 18.1646 16.7663 18.1489C16.8246 18.1332 16.9042 18.1105 16.9411 18.0983C16.978 18.0861 17.0616 18.0617 17.1257 18.0459C17.1898 18.0285 17.2655 18.0075 17.2947 17.9988C17.3218 17.9901 17.3743 17.9761 17.4112 17.9674C17.4462 17.9587 17.5239 17.936 17.5821 17.9168C17.7589 17.8557 18.0852 17.7579 18.1163 17.7579C18.1318 17.7579 18.1726 17.7474 18.2076 17.7335C18.3533 17.6794 18.5067 17.6462 18.6039 17.6479C18.701 17.6497 18.769 17.6619 19.0972 17.7317C19.2021 17.7544 19.3653 17.7858 19.6605 17.8382C19.7402 17.8522 19.8451 17.8731 19.8936 17.8836C19.9422 17.8941 20.0199 17.908 20.0685 17.915C20.117 17.922 20.1947 17.936 20.2433 17.9464C20.2918 17.9569 20.4006 17.9796 20.4861 17.9953C20.9367 18.0774 21.0416 18.1035 21.0533 18.1332C21.0591 18.1489 20.9892 18.1821 20.7677 18.2694C20.7192 18.2886 20.6085 18.334 20.5191 18.3706C20.4298 18.409 20.354 18.4387 20.3501 18.4387C20.3423 18.4387 20.117 18.5312 19.8645 18.6395C19.7907 18.6709 19.6547 18.7285 19.5634 18.7669C19.4022 18.835 19.2118 18.9135 19.039 18.9833C18.9904 19.0025 18.8952 19.0427 18.8253 19.0706C18.666 19.137 18.5747 19.1736 18.4271 19.233C18.2717 19.2941 18.2309 19.3115 17.9706 19.425C17.8482 19.4791 17.7103 19.535 17.6637 19.5489C17.5821 19.5751 17.5782 19.5751 17.518 19.5315C17.2947 19.3674 16.8265 19.0671 16.7954 19.0671C16.7916 19.0671 16.7352 19.0392 16.6692 19.0043C16.5779 18.9554 16.5526 18.9362 16.5624 18.91C16.5701 18.8856 16.4885 18.8158 16.1797 18.5853C15.9641 18.423 15.7621 18.2729 15.731 18.2537C15.7018 18.2327 15.6008 18.1542 15.5076 18.0774C15.3619 17.9569 15.2415 17.8627 15.0201 17.6968C14.9948 17.6776 14.9598 17.6497 14.9424 17.6357C14.9249 17.62 14.8219 17.5397 14.7131 17.4542L14.5131 17.3006L14.4024 17.339C14.0411 17.4577 13.8507 17.4961 13.6234 17.4961C13.5166 17.4961 13.4234 17.5031 13.4175 17.5118C13.402 17.5345 13.9886 18.025 14.5888 18.4893C14.9288 18.7512 15.0939 18.8873 15.393 19.1527C15.6242 19.3604 15.7038 19.4197 15.7252 19.4075C15.7776 19.3726 16.0185 19.2068 16.0437 19.1876C16.0806 19.1596 16.1001 19.1823 16.1467 19.3045C16.271 19.624 16.3953 19.7235 16.8013 19.8282C16.8693 19.8439 16.9275 19.8649 16.9334 19.8719C16.9411 19.8841 16.9023 19.9033 16.5818 20.0359C16.4963 20.0709 16.3662 20.1267 16.2904 20.1581C15.6921 20.4095 15.4435 20.516 15.0278 20.6906C14.9326 20.7307 14.7306 20.818 14.5811 20.8826C14.2003 21.0484 13.8798 21.1846 13.7652 21.2317C13.6526 21.2771 13.4933 21.3434 13.2893 21.4289C13.1339 21.4935 12.9397 21.5738 12.7649 21.6454C12.6561 21.6908 12.3239 21.8322 12.1569 21.9055C12.1044 21.9282 12.0481 21.9474 12.0306 21.9474C12.0132 21.9474 11.9374 21.9212 11.8636 21.888C11.7878 21.8549 11.6752 21.8077 11.615 21.7833C11.5528 21.7589 11.4518 21.717 11.3916 21.6925C11.3294 21.6681 11.2187 21.621 11.1429 21.5895C11.0089 21.5337 10.9448 21.5075 10.7156 21.415C10.6515 21.3888 10.5447 21.3452 10.4786 21.3172C10.4106 21.2893 10.3019 21.2439 10.2358 21.216C10.1678 21.1881 10.0649 21.1462 10.0066 21.1217C9.94833 21.0973 9.8415 21.0536 9.76963 21.024C9.69582 20.9943 9.57927 20.9454 9.5074 20.9157C9.43359 20.8861 9.3151 20.8354 9.23934 20.804C8.98683 20.6975 8.84114 20.6382 8.83143 20.6382C8.8256 20.6382 8.76539 20.6137 8.69546 20.5841C8.57697 20.5352 8.52841 20.4811 8.60028 20.4811C8.61776 20.4811 8.65855 20.4706 8.69157 20.4584C8.76733 20.4287 8.85085 20.4025 9.01596 20.3571C9.08589 20.3362 9.1733 20.31 9.21021 20.2978C9.36172 20.2489 9.41611 20.2332 9.47244 20.2192C9.50546 20.2123 9.55208 20.1983 9.57927 20.1896C9.65697 20.1616 9.75798 20.1302 9.82208 20.1145C9.8551 20.1058 9.91143 20.0901 9.94833 20.0778C9.98524 20.0674 10.0474 20.0482 10.0843 20.0359C10.1212 20.0237 10.2009 20.001 10.2591 19.9853C10.3174 19.9679 10.397 19.9434 10.4339 19.9312C10.4709 19.919 10.5932 19.8841 10.7059 19.8527C10.8185 19.823 10.939 19.7863 10.9739 19.7724C11.0089 19.7584 11.0497 19.7479 11.0652 19.7479C11.0808 19.7479 11.1216 19.7374 11.1565 19.7235C11.1915 19.7113 11.2692 19.6868 11.3275 19.6694C11.3857 19.6537 11.4654 19.631 11.5023 19.617C11.5392 19.6048 11.6227 19.5803 11.6868 19.5646C11.7509 19.5472 11.8403 19.5192 11.8869 19.5018C11.9782 19.4651 11.9801 19.4616 11.949 19.2766C11.9393 19.2138 11.9219 19.0444 11.9102 18.9013C11.8888 18.6098 11.8675 18.5138 11.817 18.5033C11.7995 18.4981 11.7237 18.4806 11.648 18.4649C11.5742 18.4492 11.4634 18.4265 11.4052 18.4125C11.3469 18.4003 11.2284 18.3759 11.1429 18.3602C11.0575 18.3444 10.9487 18.32 10.9001 18.306C10.8516 18.2921 10.7952 18.2816 10.7719 18.2816C10.7506 18.2816 10.7175 18.2711 10.6981 18.2589C10.669 18.2397 10.667 18.2327 10.6923 18.2153C10.7078 18.203 10.7583 18.1873 10.805 18.1786C10.8962 18.1629 11.0109 18.1385 11.2012 18.0948C11.6285 17.9971 11.7626 17.9622 11.7859 17.9464C11.8111 17.929 11.8034 17.7893 11.7606 17.5642L11.7315 17.3983L11.6557 17.3686C11.613 17.3529 11.5644 17.339 11.547 17.339C11.5295 17.339 11.4654 17.3285 11.4071 17.3145C11.3469 17.3006 11.2284 17.2779 11.1429 17.2622C11.0575 17.2447 10.9273 17.215 10.8516 17.1941L10.7156 17.1557L10.803 17.1417C10.9798 17.1138 11.2051 17.0736 11.3216 17.0492C11.3877 17.0352 11.4673 17.0248 11.5003 17.0248C11.6208 17.0248 11.646 16.9881 11.5916 16.8903C11.5761 16.8642 11.5508 16.8118 11.5334 16.7751C11.4984 16.6983 11.4615 16.6948 11.2401 16.735C11.1662 16.749 11.0303 16.7734 10.939 16.7891C10.366 16.8869 10.3038 16.8991 10.2378 16.9218C10.2047 16.934 10.1639 16.9829 10.1096 17.0736C10.0649 17.147 10.0144 17.2325 9.99495 17.2622C9.95028 17.3337 9.9697 17.3704 10.0591 17.3826C10.0998 17.3896 10.1601 17.4018 10.1911 17.4123C10.2242 17.421 10.2941 17.435 10.3465 17.442C10.4009 17.4507 10.4883 17.4664 10.5408 17.4786C10.5952 17.4891 10.6865 17.51 10.7447 17.5223C10.803 17.5345 10.8962 17.5554 10.9487 17.5676C11.0031 17.5781 11.0769 17.5921 11.1138 17.5956C11.1507 17.5991 11.2032 17.606 11.2284 17.6113C11.2711 17.62 11.2731 17.6218 11.2401 17.6532C11.2206 17.6724 11.174 17.6916 11.1352 17.6986C11.0963 17.7038 11.0225 17.7195 10.9681 17.7317C10.9157 17.744 10.8011 17.7684 10.7156 17.7841C10.6301 17.7998 10.5078 17.8242 10.4437 17.84C10.3796 17.8539 10.2786 17.8749 10.2203 17.8888C10.162 17.9011 10.0746 17.9203 10.026 17.9325C9.97747 17.943 9.89589 17.9587 9.8415 17.9674C9.78905 17.9744 9.72301 17.9883 9.69582 17.9988C9.66862 18.0075 9.59869 18.0215 9.54042 18.0285C9.46467 18.0372 9.41805 18.0547 9.3792 18.0878C9.29567 18.1559 9.12862 18.3654 9.14028 18.3828C9.15388 18.4038 9.22575 18.4265 9.38503 18.4649C9.45495 18.4806 9.55596 18.505 9.61035 18.519C9.66474 18.533 9.72495 18.5434 9.74244 18.5434C9.75992 18.5434 9.82208 18.5557 9.87646 18.5696C9.93279 18.5853 10.0241 18.608 10.0804 18.622C10.1348 18.636 10.228 18.6587 10.2844 18.6726C10.3388 18.6866 10.4378 18.7093 10.5019 18.7232C10.669 18.7616 10.8574 18.8053 10.9584 18.8315C11.007 18.8437 11.1021 18.8664 11.1721 18.8821C11.4188 18.9397 11.5003 18.9641 11.512 18.9798C11.5198 18.9903 11.512 19.0008 11.4984 19.0043C11.4634 19.0113 11.2614 19.0654 11.1429 19.0968C11.0905 19.1125 11.0147 19.1335 10.9778 19.1457C10.9409 19.1579 10.8574 19.1806 10.7933 19.1963C10.7292 19.2138 10.6515 19.2347 10.6185 19.2434C10.5874 19.2539 10.5175 19.2731 10.4631 19.2871C10.3757 19.3098 10.2824 19.336 10.1134 19.3813C9.95028 19.4267 9.6861 19.4965 9.56567 19.5297C9.51323 19.5419 9.44718 19.5611 9.41416 19.5716C9.38308 19.5803 9.30344 19.6013 9.23934 19.6187C9.17524 19.6345 9.09172 19.6571 9.05481 19.6694C9.0179 19.6816 8.93438 19.7043 8.87028 19.7217C8.80618 19.7374 8.7246 19.7619 8.68963 19.7758C8.65467 19.7898 8.60999 19.8003 8.58862 19.8003C8.56726 19.8003 8.52258 19.8108 8.48762 19.8247C8.45265 19.8387 8.36719 19.8631 8.29726 19.8788C8.22733 19.8946 8.14963 19.9172 8.12244 19.926C8.09524 19.9364 8.0428 19.9504 8.00589 19.9591C7.96899 19.9661 7.87769 19.9888 7.80194 20.0098C7.72812 20.029 7.6174 20.0586 7.55913 20.0726C7.50086 20.0883 7.40956 20.111 7.35517 20.125C7.30273 20.1407 7.22309 20.1581 7.18035 20.1651C7.13762 20.1738 7.06186 20.1896 7.01136 20.2035C6.9123 20.228 6.87733 20.2175 6.9123 20.1704C6.98222 20.0813 7.04827 19.9138 7.091 19.7217C7.12014 19.5873 7.14733 19.5315 7.17647 19.5524C7.18812 19.5611 7.29496 19.6135 7.4115 19.6676C7.52805 19.7235 7.63877 19.7776 7.65819 19.7881C7.67762 19.7985 7.69704 19.8038 7.70093 19.8003C7.7087 19.7916 7.75143 19.7374 8.03503 19.3639C8.33999 18.9624 8.5187 18.7337 8.62553 18.5993C8.67409 18.54 8.75373 18.4387 8.80229 18.3759C8.89942 18.2467 9.2879 17.7719 9.30539 17.7579C9.34423 17.73 9.63754 17.3425 9.69582 17.243C9.70747 17.2238 9.73272 17.1836 9.75409 17.1557C9.77546 17.126 9.80071 17.0876 9.81236 17.0684C9.82402 17.0492 9.86287 16.9864 9.89977 16.9287C9.96193 16.831 10.1873 16.426 10.2514 16.2951C10.2669 16.2654 10.2902 16.213 10.3057 16.1816C10.3213 16.1519 10.3621 16.0629 10.3951 15.9861C10.4301 15.9093 10.465 15.8325 10.4747 15.8168C10.4961 15.7784 10.5485 15.6544 10.5699 15.5846C10.5796 15.5549 10.6068 15.4764 10.634 15.4101C10.6806 15.2861 10.7117 15.1901 10.7719 14.9824C10.7914 14.9195 10.8185 14.8288 10.8341 14.7799C10.8496 14.731 10.8613 14.6717 10.8613 14.6455C10.8613 14.621 10.871 14.5791 10.8826 14.5512C10.8943 14.525 10.9098 14.4447 10.9196 14.3749C10.9351 14.2422 10.9681 14.1811 11.005 14.2143C11.0167 14.2248 11.0264 14.4395 11.0303 14.82C11.0322 15.143 11.0439 15.431 11.0536 15.4607C11.0633 15.4904 11.0769 15.5689 11.0847 15.637C11.1041 15.8116 11.1798 16.0542 11.2537 16.1781C11.2906 16.2375 11.4304 16.3614 11.5606 16.4487C11.6732 16.5238 11.7004 16.55 11.7412 16.6145C11.7878 16.6913 11.8655 16.8973 11.9102 17.0771C11.9199 17.1103 11.9355 17.1696 11.9471 17.208C11.984 17.3477 12.0267 17.634 12.0559 17.9674C12.0734 18.1542 12.0986 18.3933 12.1142 18.4998C12.2016 19.1055 12.2268 19.7532 12.1724 20.0726C12.1569 20.1669 12.1433 20.3083 12.1433 20.3851C12.1433 20.4619 12.1336 20.5561 12.1239 20.5945C12.1064 20.6661 12.0345 20.7324 11.9607 20.7482C11.9005 20.7604 11.7975 20.7953 11.6616 20.8511C11.5955 20.8773 11.5353 20.9 11.5256 20.9C11.4926 20.9018 11.4188 20.9716 11.4362 20.9873C11.446 20.996 11.5314 21.0152 11.6266 21.0309C11.8636 21.0676 12.895 21.0676 13.2019 21.0309C13.3204 21.017 13.4564 21.0048 13.5049 21.0048C13.6157 21.0048 13.7167 20.9873 13.7167 20.9681C13.7167 20.9454 13.5166 20.9157 13.2388 20.9C13.0232 20.8878 12.9669 20.8791 12.9475 20.8564C12.9339 20.8407 12.9164 20.7691 12.9106 20.6975C12.8989 20.5858 12.9028 20.5422 12.9475 20.3973C12.9766 20.3048 13.0057 20.207 13.0116 20.1791C13.0252 20.1145 12.9475 20.0115 12.829 19.9382C12.6697 19.8404 12.6328 19.7706 12.6308 19.5664C12.6289 19.3918 12.6716 19.1404 12.759 18.8315C12.8892 18.3602 12.9008 18.2991 12.9008 18.0878C12.9008 17.8661 12.8445 17.6078 12.7552 17.4175C12.6911 17.2814 12.6386 17.1871 12.6056 17.1417C12.5726 17.0998 12.5726 17.0946 12.5998 17.0946C12.6173 17.0946 12.6814 17.1155 12.7416 17.14C13.0446 17.2639 13.0951 17.2796 13.2971 17.3128C13.5011 17.3477 13.7322 17.3285 14.0003 17.2517C14.1226 17.2168 14.4082 17.0998 14.5228 17.037C14.7287 16.9253 14.9948 16.6983 15.1657 16.4923C15.325 16.3003 15.3347 16.2864 15.527 15.9442C15.8262 15.4153 15.9039 15.3402 16.3467 15.1377C16.5041 15.0662 16.6556 14.9981 16.6847 14.9841C16.7139 14.9702 16.8032 14.9003 16.8829 14.827C16.9975 14.7223 17.048 14.6594 17.1179 14.5285C17.2131 14.354 17.2461 14.2789 17.2713 14.1794C17.2811 14.1462 17.3005 14.0677 17.316 14.0048C17.3898 13.7255 17.3957 13.6906 17.3762 13.6732C17.3413 13.6418 17.0654 13.633 16.811 13.654C16.5721 13.6749 16.3953 13.7011 16.1642 13.7517C15.5581 13.8844 15.1599 13.8023 14.3674 13.3834C14.2392 13.3171 14.1207 13.256 14.1052 13.249C14.0896 13.242 14.0508 13.2211 14.0178 13.2036C13.8546 13.1093 13.369 12.8824 13.1048 12.7742C12.9125 12.6974 12.8756 12.6834 12.7843 12.652C12.6153 12.5944 12.559 12.5769 12.4444 12.5473C12.3803 12.5298 12.3045 12.5088 12.2773 12.5001C12.2501 12.4914 12.1588 12.4757 12.0734 12.4635L11.9199 12.4425L11.9141 12.3814C11.9102 12.3273 11.918 12.3151 11.9821 12.2802C12.0637 12.2348 12.1433 12.1266 12.1433 12.0602C12.1433 11.9799 12.0811 11.8682 11.9918 11.7844L11.9044 11.7024L11.951 11.6832C12.017 11.657 12.0539 11.6343 12.2404 11.5173C12.4191 11.4039 12.7183 11.1438 12.693 11.1246C12.6852 11.1176 12.6211 11.0966 12.5512 11.0757C12.2657 10.9919 12.1744 10.957 11.8422 10.8086C11.5256 10.6672 11.477 10.641 11.1507 10.4508C10.871 10.2884 10.2028 9.83282 10.1115 9.74379C10.0357 9.66873 9.95999 9.55352 9.84538 9.33532C9.64531 8.95652 9.6492 8.96001 9.52488 9.03333C9.48603 9.05777 9.43747 9.0822 9.41611 9.08744C9.38308 9.09966 9.38114 9.09268 9.39474 9.01936C9.40834 8.93906 9.42193 8.91462 9.48798 8.85877C9.52294 8.82909 9.53071 8.80291 9.5074 8.80291C9.49769 8.80291 9.47244 8.82211 9.44913 8.8448ZM18.767 17.2499C18.767 17.2587 18.7845 17.2726 18.8059 17.2779C18.868 17.2953 18.8505 17.3355 18.7729 17.3547C18.6816 17.3774 18.6039 17.3774 18.4174 17.3494C18.3028 17.3337 18.2698 17.3233 18.2659 17.2971C18.262 17.2796 18.2698 17.2587 18.2853 17.2499C18.3203 17.229 18.767 17.2307 18.767 17.2499ZM18.9341 19.4756C19.1827 19.5158 19.2701 19.6222 19.1186 19.7025C18.9554 19.7881 18.5029 19.7479 18.3785 19.6379C18.3086 19.5768 18.3086 19.5716 18.3611 19.528C18.4465 19.4581 18.6893 19.4355 18.9341 19.4756ZM12.8018 20.5771C12.8309 20.6521 12.8426 20.7202 12.8387 20.7813L12.8329 20.8738L12.6716 20.8791C12.4793 20.8843 12.4696 20.8738 12.5221 20.7272C12.5629 20.6207 12.5959 20.5631 12.6561 20.502C12.7221 20.4357 12.7552 20.4514 12.8018 20.5771Z" />
    <path
        d="M5.41467 13.2472C5.40885 13.263 5.40302 13.4323 5.40302 13.6243C5.40302 14.0031 5.40302 14.0066 5.26899 14.2056C5.24957 14.2335 5.19906 14.3173 5.15633 14.3889C5.11359 14.4604 5.05726 14.5547 5.03007 14.5983C5.00288 14.642 4.95431 14.7223 4.91935 14.7764C4.88633 14.8323 4.83194 14.923 4.79892 14.9771C4.76395 15.033 4.70568 15.129 4.67072 15.1919C4.63381 15.2547 4.57554 15.349 4.54252 15.4048C4.50755 15.4589 4.45899 15.5375 4.43374 15.5794C4.40849 15.6195 4.36381 15.6963 4.33273 15.7452C4.27446 15.8412 4.19288 15.9739 4.10158 16.1258C4.07245 16.1729 4.02 16.2602 3.98504 16.3178C3.95007 16.3736 3.8918 16.4731 3.85489 16.536C3.81799 16.5988 3.76942 16.6774 3.74806 16.7105C3.70727 16.7734 3.65094 16.8642 3.5441 17.0457C3.50914 17.1051 3.48 17.1627 3.48 17.1749C3.48 17.1958 3.62957 17.1993 4.33468 17.1993C5.31367 17.1993 5.20489 17.222 5.25539 17.0073C5.31755 16.7385 5.44575 16.4295 5.59144 16.2078C5.63805 16.1362 5.67496 16.0751 5.67496 16.0716C5.67496 16.0472 5.98575 15.6998 6.12561 15.5672C6.26741 15.4328 6.53741 15.2442 6.58985 15.2442C6.59956 15.2442 6.60733 15.2372 6.60733 15.2285C6.60733 15.2146 6.74719 15.1395 6.77244 15.1395C6.80546 15.1395 6.76661 15.1779 6.67143 15.2407C6.53546 15.3298 6.2033 15.63 6.06928 15.7854C5.98769 15.8814 5.89057 16.0123 5.77791 16.1781C5.76431 16.1973 5.73518 16.248 5.71381 16.2916C5.6905 16.3352 5.66331 16.3841 5.65359 16.3998C5.59921 16.4923 5.49043 16.8083 5.42439 17.0666C5.39719 17.1696 5.41467 17.1888 5.51957 17.1714C5.60309 17.1592 5.60698 17.1539 5.64582 16.9916C5.66331 16.9183 5.68856 16.8223 5.7041 16.7786C5.71964 16.7332 5.73323 16.6844 5.73323 16.6686C5.73323 16.6547 5.74683 16.6128 5.76431 16.5761C5.7818 16.5395 5.80705 16.4854 5.82064 16.4574C5.94108 16.1921 6.1023 15.9495 6.29654 15.7435C6.46942 15.5584 6.5646 15.4781 6.75302 15.3577C6.91035 15.2564 7.27553 15.0871 7.33575 15.0871C7.35323 15.0871 7.38431 15.0784 7.40568 15.0679C7.44647 15.0487 7.69899 15.0103 7.89906 14.9929C8.09719 14.9754 8.53424 15.0574 8.83143 15.1674C8.9305 15.2041 9.02373 15.2163 9.00625 15.1919C8.99654 15.1779 9.00431 15.1604 9.02567 15.1465C9.0587 15.1238 9.0587 15.1203 9.01014 15.0801C8.95186 15.0313 8.72265 14.93 8.67021 14.93C8.65273 14.93 8.58086 14.9178 8.51093 14.9038C8.441 14.8899 8.28949 14.8672 8.171 14.855L7.95733 14.834L7.9515 14.7764L7.94568 14.7205H8.04863C8.17294 14.7205 8.41963 14.7607 8.65661 14.8183C8.75373 14.8427 8.86445 14.8689 8.90719 14.8794C8.94798 14.8881 9.0179 14.9108 9.06064 14.93C9.16747 14.9771 9.20826 14.9771 9.16359 14.9318C9.12668 14.8951 9.13445 14.8392 9.18495 14.7869C9.20632 14.7642 9.20826 14.745 9.19272 14.6909C9.18301 14.6542 9.1597 14.5687 9.14222 14.5023C9.09949 14.3365 9.05675 14.1829 9.0315 14.1131C9.00042 14.0205 9.02373 14.0293 9.10337 14.1393C9.14416 14.1951 9.19855 14.2597 9.22575 14.2824L9.27431 14.326L9.26071 14.2772C9.24906 14.2318 9.28208 14.0275 9.3287 13.8565C9.34035 13.8181 9.35589 13.7587 9.36366 13.7255C9.37143 13.6924 9.38697 13.6487 9.39862 13.6295C9.44913 13.5388 9.48021 13.4689 9.48603 13.4305C9.48992 13.4061 9.50157 13.3851 9.51517 13.3817C9.54625 13.3712 9.56956 13.4445 9.54236 13.4689C9.53071 13.4794 9.52294 13.5353 9.52488 13.5946L9.52877 13.6994L9.53459 13.6068C9.54042 13.5475 9.55208 13.5108 9.5715 13.5038C9.58704 13.4986 9.60452 13.4637 9.61035 13.427C9.61812 13.3904 9.6356 13.3502 9.6492 13.3398C9.66474 13.3293 9.67639 13.3048 9.67639 13.2856C9.67639 13.2577 9.66668 13.2525 9.622 13.263C9.58316 13.2699 9.5579 13.2647 9.54042 13.2455C9.51906 13.2228 9.29179 13.2193 7.47172 13.2193C5.62446 13.2193 5.42633 13.2228 5.41467 13.2472ZM6.72388 14.1305C6.72388 14.1515 6.71223 14.2003 6.69669 14.2405C6.64035 14.3871 6.59956 14.5215 6.51992 14.8078C6.50244 14.8707 6.49079 14.9492 6.49467 14.9824C6.5005 15.0348 6.50633 15.0435 6.54712 15.0382C6.57237 15.0348 6.62482 15.0173 6.66366 14.9998C6.99388 14.848 7.40373 14.738 7.67568 14.7328C7.77668 14.7293 7.78251 14.731 7.78834 14.7747C7.79611 14.8323 7.73784 14.8532 7.52417 14.8707C7.44258 14.8776 7.35323 14.8899 7.32604 14.8986C7.29884 14.9073 7.23863 14.9213 7.19007 14.93C7.1415 14.937 7.07158 14.9545 7.03467 14.9649C6.77827 15.047 6.63841 15.1028 6.5141 15.1692C6.43446 15.2093 6.3587 15.2442 6.34316 15.2442C6.31791 15.2442 6.20913 15.1238 6.15863 15.0382C6.13532 14.9998 6.15863 14.9387 6.23827 14.8253C6.27518 14.7747 6.43251 14.5285 6.50438 14.4116C6.54323 14.3452 6.59179 14.2684 6.61122 14.2405C6.64618 14.1864 6.65978 14.1637 6.67532 14.1183C6.68892 14.0782 6.72388 14.0869 6.72388 14.1305ZM8.21568 14.518C8.22733 14.5983 8.1846 14.6507 8.11078 14.6507C8.07582 14.6507 8.02337 14.642 7.99618 14.6298C7.95539 14.6141 7.94762 14.5983 7.94762 14.5355C7.94762 14.4954 7.95733 14.4587 7.96704 14.4552C7.9787 14.4517 8.03697 14.4535 8.09913 14.4587C8.20402 14.4674 8.20985 14.4692 8.21568 14.518ZM7.7728 14.5355C7.7728 14.6245 7.75337 14.642 7.64265 14.6577C7.56496 14.6682 7.55913 14.6647 7.52999 14.6175C7.46589 14.5041 7.5028 14.4587 7.66014 14.4587H7.7728V14.5355ZM7.361 14.5914C7.36877 14.6786 7.33963 14.7048 7.21532 14.7171C7.11431 14.7275 7.07352 14.6978 7.07352 14.6175C7.07352 14.5826 7.08906 14.5652 7.14733 14.5425C7.18618 14.5268 7.25028 14.5146 7.28719 14.5163C7.35129 14.5198 7.35517 14.5233 7.361 14.5914ZM8.58862 14.5373C8.65661 14.5687 8.66632 14.6263 8.61193 14.6856C8.58086 14.7205 8.57309 14.7223 8.48373 14.7013C8.38078 14.6786 8.34193 14.6315 8.3633 14.5565C8.37496 14.5163 8.38661 14.5111 8.4546 14.5111C8.49733 14.5111 8.55755 14.5233 8.58862 14.5373ZM8.97711 14.6507C9.03927 14.6786 9.05481 14.6961 9.05481 14.7345C9.05481 14.834 8.94409 14.8567 8.84309 14.7799C8.77898 14.7328 8.77121 14.7031 8.80229 14.649C8.82949 14.6071 8.88193 14.6071 8.97711 14.6507ZM6.92784 14.6961C6.97057 14.7764 6.95892 14.7991 6.85014 14.8427C6.74136 14.8881 6.6928 14.8776 6.68115 14.8061C6.66949 14.7432 6.7064 14.6926 6.78798 14.6612C6.87927 14.6245 6.89093 14.628 6.92784 14.6961ZM6.1528 15.218C6.17805 15.2564 6.19748 15.3053 6.19942 15.3263C6.19942 15.3769 6.07122 15.5061 6.02072 15.5061C5.93331 15.5061 5.86921 15.3472 5.93719 15.2966C5.95273 15.2844 5.96633 15.2669 5.96633 15.2582C5.96633 15.2268 6.05374 15.1377 6.08093 15.143C6.09647 15.1465 6.12949 15.1796 6.1528 15.218ZM5.85755 15.5846C5.87309 15.6544 5.82647 15.7417 5.75072 15.7819C5.68662 15.8185 5.66719 15.7854 5.70604 15.7051C5.80122 15.5026 5.83618 15.4764 5.85755 15.5846Z" />
    <path
        d="M19.5906 13.5859C19.5809 13.5946 19.5071 13.6191 19.4275 13.6383C19.0817 13.7255 19.0759 13.7273 18.938 13.8512C18.8661 13.9158 18.7826 13.9752 18.7554 13.9804C18.7088 13.9909 18.5087 13.9664 18.2037 13.9141C18.1454 13.9036 18.0444 13.8896 17.9803 13.8826C17.9162 13.8757 17.8249 13.86 17.7764 13.8495C17.7278 13.8373 17.6404 13.8303 17.5841 13.8338C17.485 13.839 17.4772 13.8425 17.4617 13.8914C17.4034 14.0764 17.3704 14.1567 17.3005 14.2859C17.2636 14.3592 17.2675 14.436 17.3102 14.4273C17.3257 14.4238 17.4423 14.4133 17.5666 14.4046C17.6929 14.3976 17.8502 14.3819 17.9162 14.3714C17.9862 14.3627 18.3921 14.354 18.8544 14.354C19.6897 14.354 19.8548 14.3452 20.2044 14.2737C20.2744 14.2597 20.3482 14.2492 20.3676 14.2492C20.389 14.2492 20.4589 14.2388 20.523 14.2248C20.589 14.2108 20.6823 14.1951 20.7347 14.1881C20.8066 14.1794 20.826 14.1707 20.826 14.1445C20.826 14.0956 20.5735 13.8966 20.4298 13.8338C20.3152 13.7831 20.2841 13.7779 20.1306 13.7779C20.0335 13.7779 19.917 13.7901 19.8626 13.8041C19.8101 13.8181 19.7091 13.8303 19.6392 13.8303C19.5304 13.8303 19.5052 13.825 19.4682 13.7901L19.4255 13.7482L19.5537 13.6749C19.6236 13.6348 19.6761 13.5929 19.6703 13.5841C19.6547 13.5632 19.6159 13.5632 19.5906 13.5859Z" />
    <path
        d="M10.6476 16.1205C10.6476 16.1607 10.669 16.2043 10.6884 16.2043C10.7156 16.2043 10.7098 16.1624 10.6768 16.124C10.6534 16.0961 10.6496 16.0943 10.6476 16.1205Z" />
    <path
        d="M10.601 16.234C10.5952 16.2392 10.5893 16.2602 10.5893 16.2794C10.5893 16.2968 10.5719 16.3317 10.5505 16.3579C10.5 16.4138 10.5252 16.4417 10.6029 16.4173C10.636 16.4068 10.6437 16.3981 10.6243 16.3981C10.5816 16.3963 10.5777 16.3509 10.6185 16.337C10.634 16.3317 10.6476 16.3091 10.6476 16.2846C10.6476 16.241 10.6243 16.2148 10.601 16.234Z" />
    <path
        d="M8.26812 16.7908C8.21568 16.8031 8.14186 16.8153 8.10496 16.8153C8.06999 16.8153 7.98258 16.8258 7.91071 16.8397C7.7223 16.8764 7.54359 16.9061 7.43287 16.92C7.38043 16.927 7.27942 16.941 7.20949 16.9532C6.9492 16.9986 6.78604 17.0248 6.60733 17.0509C6.19748 17.1103 6.04985 17.1347 5.95273 17.1574C5.89834 17.1714 5.83036 17.1819 5.80122 17.1819C5.77208 17.1819 5.6905 17.1923 5.61863 17.2063C5.41273 17.2464 5.14273 17.2866 5.07669 17.2866C5.00676 17.2866 4.95626 17.3023 4.95626 17.3233C4.95626 17.332 5.04755 17.339 5.15827 17.339C5.38748 17.339 5.42244 17.346 5.42244 17.3931C5.42244 17.435 5.35834 17.4577 5.16993 17.4821C5.04755 17.4978 5.00676 17.4961 4.91352 17.4716C4.85137 17.4559 4.80086 17.435 4.80086 17.4262C4.80086 17.4175 4.83388 17.3966 4.87467 17.3791L4.94654 17.3494L4.86885 17.3425C4.82611 17.339 4.7387 17.3477 4.6746 17.3617C4.6105 17.3756 4.47065 17.4018 4.36381 17.4175C4.25698 17.4332 4.11518 17.4577 4.04914 17.4716C3.98309 17.4856 3.9054 17.4961 3.8782 17.4961C3.84906 17.4961 3.77331 17.5065 3.70727 17.5205C3.54993 17.5537 3.37705 17.5834 3.25662 17.6008C3.20417 17.6078 3.10317 17.6218 3.03324 17.634C2.96331 17.6462 2.84094 17.6671 2.7613 17.6794C2.68166 17.6933 2.54569 17.716 2.46022 17.73C2.37475 17.744 2.23489 17.7684 2.14943 17.7824C1.63079 17.8696 1.51036 17.8906 1.23065 17.9429C1.14907 17.9587 1.05972 17.9744 1.03446 17.9779C0.991731 17.9866 0.989789 17.9883 1.02281 18.0198C1.04223 18.039 1.11411 18.0809 1.18598 18.1123C1.30252 18.1664 1.39187 18.2083 1.84835 18.4265C1.99403 18.4963 2.19216 18.5888 2.73216 18.8402C2.89338 18.9153 3.09734 19.013 3.18863 19.0567C3.27993 19.1003 3.82187 19.3464 4.39295 19.603C4.96403 19.8596 5.46712 20.0883 5.50791 20.111C5.59338 20.1581 5.62252 20.1512 5.67496 20.0761C5.6905 20.0517 5.73323 19.9853 5.77014 19.9312C5.83618 19.8317 6.00518 19.6362 6.05956 19.596C6.12367 19.5489 6.09259 19.5315 5.37388 19.2242C5.30978 19.1963 5.20101 19.1509 5.13108 19.123C4.83388 19.0008 4.70374 18.9414 4.70374 18.9292C4.70374 18.9153 4.83194 18.8769 5.03007 18.8332C5.09611 18.8175 5.20489 18.7931 5.27288 18.7774C5.33892 18.7634 5.44187 18.7389 5.50014 18.7267C5.55841 18.7145 5.66136 18.6901 5.72935 18.6761C5.79539 18.6604 5.90223 18.636 5.96633 18.622C6.03043 18.608 6.13532 18.5836 6.19942 18.5696C6.26352 18.5557 6.37036 18.5312 6.43834 18.5155C6.50438 18.5015 6.61122 18.4771 6.67532 18.4631C6.73942 18.4492 6.83266 18.4265 6.88122 18.4125C6.93172 18.3986 6.98999 18.3863 7.0133 18.3863C7.10848 18.3863 7.18424 18.334 7.35517 18.1524C7.45035 18.0512 7.53582 17.9674 7.54359 17.9674C7.58438 17.9674 7.5533 17.8993 7.50668 17.8853C7.39402 17.8487 7.14345 17.7806 6.7433 17.6776C6.68503 17.6637 6.59762 17.6392 6.54906 17.6252C6.5005 17.6113 6.44223 17.6008 6.41892 17.6008C6.39561 17.6008 6.35287 17.5816 6.32179 17.5589L6.26741 17.517L6.3451 17.5065C6.38784 17.4996 6.47136 17.4856 6.52964 17.4769C6.58791 17.4664 6.66366 17.4542 6.69474 17.4507C6.78021 17.4402 7.27553 17.3547 7.50086 17.3128C7.57079 17.2988 7.70093 17.2761 7.79222 17.2604C7.88352 17.2447 8.01172 17.2203 8.07776 17.2063C8.14381 17.1923 8.21373 17.1819 8.23316 17.1819C8.27201 17.1801 8.49927 16.9968 8.47596 16.9846C8.46819 16.9811 8.41769 16.9672 8.36136 16.9549C8.2215 16.927 8.19819 16.8956 8.28172 16.8554C8.3264 16.8345 8.39632 16.824 8.51093 16.8205C8.60222 16.8188 8.68186 16.817 8.69157 16.817C8.69934 16.8153 8.70517 16.8031 8.70517 16.7891C8.70517 16.7681 8.67409 16.7629 8.53618 16.7647C8.441 16.7647 8.32251 16.7769 8.26812 16.7908ZM5.43216 17.7911C5.59338 17.8434 5.78762 17.9011 5.84007 17.915C5.9741 17.9482 6.26352 18.039 6.32179 18.0669C6.40338 18.1035 6.42086 18.0983 5.87892 18.2048C5.8051 18.2205 5.69827 18.2432 5.64388 18.2572C5.58949 18.2711 5.52928 18.2816 5.50985 18.2816C5.49043 18.2816 5.43021 18.2921 5.37582 18.306C5.32144 18.32 5.20683 18.3444 5.12136 18.3602C4.9718 18.3881 4.85913 18.4108 4.65518 18.4562C4.60273 18.4684 4.52309 18.4841 4.48036 18.4911C4.43762 18.4981 4.3677 18.512 4.32496 18.5225C4.28223 18.5312 4.17928 18.5539 4.0977 18.5714C3.95784 18.5993 3.94424 18.5993 3.89957 18.5731C3.87237 18.5557 3.84129 18.5434 3.82964 18.5434C3.81799 18.5434 3.75583 18.5207 3.68784 18.4928C3.6218 18.4649 3.52856 18.4265 3.48 18.4073C3.34209 18.3514 3.17892 18.2851 3.05849 18.2345C2.99633 18.21 2.92446 18.1838 2.89921 18.1769C2.87202 18.1716 2.84871 18.1577 2.84482 18.1472C2.83705 18.1262 2.99633 18.0721 3.0682 18.0721C3.09345 18.0721 3.16727 18.0599 3.23331 18.0459C3.29935 18.032 3.42755 18.0093 3.51885 17.9936C3.69561 17.9639 3.89568 17.9272 4.10158 17.8888C4.17151 17.8766 4.30748 17.8522 4.40266 17.8365C4.49978 17.8208 4.63964 17.7981 4.71345 17.7841C5.11748 17.709 5.11165 17.7108 5.24762 17.7422C5.31755 17.7597 5.40108 17.7824 5.43216 17.7911ZM4.09381 18.903C4.31137 18.999 4.08216 19.1195 3.6859 19.1195C3.52468 19.1195 3.48777 19.1143 3.43921 19.0828C3.37705 19.0444 3.3654 18.9798 3.41007 18.9467C3.42561 18.9345 3.4936 18.91 3.56158 18.8926C3.71892 18.8489 3.98309 18.8542 4.09381 18.903Z" />
    <path
        d="M13.0757 17.6043C13.0757 17.6252 13.0893 17.6951 13.1048 17.7579C13.1203 17.8208 13.1398 17.9237 13.1456 17.9901C13.1553 18.1001 13.1592 18.107 13.2078 18.1175C13.2369 18.1227 13.3224 18.1385 13.3962 18.1542C13.4719 18.1681 13.571 18.1873 13.6196 18.1978C13.8488 18.2467 13.8837 18.2327 13.7633 18.1385C13.7264 18.1088 13.5632 17.9691 13.402 17.8295C13.2427 17.6898 13.1029 17.5711 13.0932 17.5694C13.0834 17.5659 13.0757 17.5816 13.0757 17.6043Z" />
    <path
        d="M18.2872 18.0512C18.1804 18.0913 18.1688 18.1035 18.2348 18.1158C18.2659 18.121 18.3397 18.1367 18.398 18.1507C18.6718 18.2135 18.7049 18.2188 18.7573 18.1978C18.7845 18.1856 18.8272 18.1769 18.8505 18.1769C18.8739 18.1769 18.9069 18.1681 18.9224 18.1594C18.9729 18.1315 18.903 18.0913 18.7709 18.0721C18.7049 18.0617 18.6291 18.0459 18.6 18.0372C18.5262 18.011 18.3785 18.018 18.2872 18.0512Z" />
    <path
        d="M17.2228 18.2676C17.1917 18.2781 17.1334 18.2956 17.0965 18.3078C17.0596 18.32 16.9975 18.3392 16.9606 18.3497C16.9236 18.3619 16.8673 18.3794 16.8343 18.3863C16.7449 18.409 16.6129 18.4544 16.5468 18.4841L16.4885 18.512L16.5449 18.5539C16.6148 18.6045 16.6303 18.6045 16.7954 18.5504C16.8712 18.526 16.9586 18.4998 16.9897 18.4911C17.0227 18.4823 17.1043 18.4579 17.1723 18.437C17.2869 18.402 17.3083 18.4003 17.4345 18.4195C17.5103 18.4317 17.621 18.4527 17.6793 18.4649C17.8852 18.512 17.9454 18.512 18.1008 18.4649C18.1474 18.4509 18.1027 18.4038 18.0328 18.3951C17.992 18.3881 17.9182 18.3741 17.8638 18.3602C17.6501 18.3095 17.5685 18.2938 17.4656 18.2799C17.4073 18.2729 17.3413 18.2624 17.3199 18.2572C17.2985 18.2537 17.2558 18.2572 17.2228 18.2676Z" />
    <path
        d="M13.0582 18.6953C13.0426 18.7424 13.0252 18.814 13.0174 18.8577C13.0096 18.9013 12.9941 18.9711 12.9824 19.0148C12.9319 19.2068 12.9242 19.2522 12.9378 19.2644C12.9533 19.2783 13.0407 19.2574 13.2349 19.1963C13.3107 19.1719 13.3631 19.1771 13.6972 19.2504C13.7555 19.2626 13.874 19.2871 13.9595 19.3028C14.0449 19.3202 14.1673 19.3429 14.2314 19.3552C14.4373 19.3953 14.616 19.4302 14.7753 19.4599C14.8608 19.4756 14.9793 19.5 15.0375 19.5123C15.5406 19.624 15.5406 19.624 15.3328 19.4197C15.2473 19.336 15.09 19.1911 14.9851 19.0985L14.7947 18.9275L14.6393 18.8943C14.5539 18.8769 14.414 18.8489 14.3285 18.8332C14.2431 18.8175 14.1343 18.7948 14.0857 18.7843C14.0372 18.7739 13.9731 18.7616 13.9401 18.7582C13.909 18.7547 13.8255 18.7407 13.7555 18.7267C13.6331 18.7023 13.4467 18.6691 13.2349 18.6307C13.0854 18.6045 13.0854 18.6045 13.0582 18.6953Z"/>
    <path
        d="M16.5054 19.0782C16.3863 19.1084 16.3383 19.1724 16.4271 19.1831C16.4503 19.1866 16.5089 19.2008 16.5569 19.2168C16.6849 19.2577 16.8094 19.2542 16.9143 19.2044C17.0156 19.1582 17.0138 19.1564 16.8076 19.1102C16.6316 19.0693 16.5658 19.0622 16.5054 19.0782Z"/>
    <path
        d="M8.56759 19.2702C8.51425 19.2844 8.42537 19.3057 8.37203 19.3199C8.3187 19.3324 8.2387 19.3519 8.19425 19.3644C8.14981 19.3751 8.09292 19.3893 8.06625 19.3946C8.04137 19.3999 7.99514 19.4337 7.96314 19.4728C7.91692 19.5315 7.91337 19.5439 7.93648 19.5528C7.96492 19.5653 8.15159 19.5244 8.52314 19.4284C8.57292 19.4142 8.67781 19.3893 8.75959 19.3715C8.83959 19.3537 8.90359 19.3306 8.90003 19.3235C8.8947 19.3039 8.72759 19.2399 8.69203 19.2417C8.67781 19.2435 8.62092 19.2559 8.56759 19.2702Z" />
    <path
        d="M13.1987 19.9439C13.1596 19.9582 13.108 19.9777 13.0831 19.9866C13.0423 19.9991 12.9551 20.0346 12.8609 20.0737C12.8414 20.0826 12.7863 20.1057 12.7365 20.1253C12.6885 20.1448 12.6458 20.1679 12.644 20.1768C12.6369 20.1946 12.7951 20.2533 12.8503 20.2533C12.8698 20.2533 12.916 20.2408 12.9534 20.2248C13.1223 20.1519 13.124 20.1519 13.3463 20.0684C13.3818 20.0542 13.4351 20.0382 13.4618 20.0311C13.5187 20.0204 13.5116 19.9973 13.4423 19.9617C13.3623 19.9208 13.2751 19.9137 13.1987 19.9439Z"/>
    <path
        d="M9.87959 20.7955C9.8707 20.8044 9.73203 20.8595 9.63425 20.8933C9.60936 20.9022 9.54536 20.9253 9.49203 20.9466C9.4387 20.9679 9.37825 20.9893 9.3587 20.9946C9.33914 20.9999 9.30003 21.0142 9.26981 21.0266C9.24136 21.0408 9.20225 21.0551 9.18625 21.0604C9.13825 21.0746 9.14714 21.1031 9.20936 21.1351C9.28759 21.1742 9.39248 21.1599 9.60759 21.0817C9.81203 21.0053 9.82448 21.0017 10.0218 20.9324C10.1018 20.9039 10.1729 20.8755 10.18 20.8702C10.1978 20.8506 10.0254 20.7866 9.95603 20.7866C9.9187 20.7866 9.88492 20.7902 9.87959 20.7955Z"/>
</svg>