<svg width="28" height="70" viewBox="0 0 28 70" fill="none" xmlns="http://www.w3.org/2000/svg">
<g clip-path="url(#clip0_1764_61)">
<rect width="28" height="70" fill="white"/>
<path d="M26 -10.84C26 -8.49333 25.4244 -6.5 24.2732 -4.86C23.122 -3.22 21.7264 -2.4 20.0862 -2.4C19.4342 -2.4 18.6599 -2.62 17.7634 -3.06C16.164 -1.68667 14.4016 -1 12.4762 -1C10.8767 -1 9.43521 -1.47333 8.15159 -2.42C6.87816 -3.38 5.9511 -4.66667 5.37042 -6.28C4.0053 -6.88 2.93562 -7.84667 2.16137 -9.18C1.38712 -10.5133 1 -12.06 1 -13.82C1 -16.94 2.06459 -19.5667 4.19377 -21.7C6.32294 -23.8467 8.93602 -24.92 12.033 -24.92C13.7649 -24.92 15.5069 -24.5667 17.2592 -23.86C18.0334 -25.0333 18.8229 -26.0133 19.6278 -26.8C20.4326 -27.6 21.0438 -28 21.4615 -28C21.8181 -28 21.9963 -27.78 21.9963 -27.34C21.9963 -26.5533 20.9725 -25.12 18.9248 -23.04C21.0846 -21.7733 22.8011 -20.0333 24.0746 -17.82C25.3582 -15.62 26 -13.2933 26 -10.84ZM21.706 -27.34C21.706 -27.5533 21.6245 -27.66 21.4615 -27.66C21.1355 -27.66 20.5803 -27.2667 19.7958 -26.48C19.0216 -25.6933 18.283 -24.78 17.5801 -23.74L17.7023 -23.66L18.0232 -23.54L18.4205 -23.28L18.6192 -23.2C19.4138 -23.92 20.1269 -24.7 20.7586 -25.54C21.3902 -26.3933 21.706 -26.9933 21.706 -27.34ZM18.3594 -22.96C18.0232 -23.12 17.7023 -23.2667 17.3967 -23.4C16.9892 -22.76 16.6021 -22.04 16.2353 -21.24C16.7753 -21.5867 17.4833 -22.16 18.3594 -22.96ZM25.2512 -11.66C25.2512 -14.0067 24.6807 -16.1467 23.5397 -18.08C22.3987 -20.0133 20.7789 -21.5867 18.6803 -22.8C17.9672 -22.12 17.0809 -21.3933 16.0214 -20.62C15.563 -19.4467 15.186 -18.1267 14.8906 -16.66C15.4611 -16.7933 15.9603 -16.86 16.3881 -16.86C16.9892 -16.86 17.5546 -16.7467 18.0844 -16.52C18.4715 -17.5467 18.7211 -18.52 18.8331 -19.44C18.8739 -19.8133 18.9656 -20 19.1082 -20C19.2406 -20 19.3068 -19.8933 19.3068 -19.68C19.3068 -19.08 19.0216 -17.9733 18.4511 -16.36C20.295 -15.32 21.217 -13.44 21.217 -10.72C21.217 -7.81333 20.1626 -5.34 18.0538 -3.3C18.5937 -3.02 19.1438 -2.88 19.7042 -2.88C21.2221 -2.88 22.5261 -3.74 23.6161 -5.46C24.7062 -7.19333 25.2512 -9.26 25.2512 -11.66ZM17.9927 -16.24C17.4324 -16.4267 16.8975 -16.52 16.3881 -16.52C15.8991 -16.52 15.3796 -16.4267 14.8295 -16.24C14.534 -14.8267 14.3863 -13.16 14.3863 -11.24C14.3863 -10.7733 14.3965 -10.3667 14.4169 -10.02C15.9654 -11.8733 17.1573 -13.9467 17.9927 -16.24ZM20.6822 -11.24C20.6822 -13.48 19.8977 -15.0933 18.3288 -16.08C17.3509 -13.56 16.057 -11.3867 14.4474 -9.56C14.5799 -7.85333 15.0587 -6.39333 15.8839 -5.18C17.2592 -6.28667 17.9621 -7.58667 17.9927 -9.08C17.9927 -9.45333 18.0945 -9.64 18.2983 -9.64C18.5326 -9.64 18.6498 -9.48 18.6498 -9.16C18.6498 -8.58667 18.3849 -7.86 17.8551 -6.98C17.3356 -6.11333 16.7549 -5.43333 16.1131 -4.94C16.2557 -4.74 16.5562 -4.41333 17.0147 -3.96L17.1675 -3.82C18.2372 -4.87333 19.0878 -6.06667 19.7194 -7.4C20.3612 -8.73333 20.6822 -10.0133 20.6822 -11.24ZM17.0758 -23.58C15.6292 -24.18 14.1927 -24.48 12.7665 -24.48C9.90383 -24.48 7.37734 -23.3133 5.18704 -20.98C2.99674 -18.6467 1.90159 -15.96 1.90159 -12.92C1.90159 -10.04 2.99674 -8.00667 5.18704 -6.82C4.95273 -7.64667 4.83557 -8.46667 4.83557 -9.28C4.83557 -12.48 6.38407 -15.2267 9.48105 -17.52C10.296 -18.12 12.3794 -19.2533 15.7311 -20.92C16.0672 -21.6667 16.5155 -22.5533 17.0758 -23.58ZM15.456 -20.22C15.0892 -19.98 14.5442 -19.62 13.8209 -19.14C8.75774 -15.7933 6.22616 -11.9867 6.22616 -7.72C6.22616 -7.33333 6.26691 -6.88 6.34841 -6.36C6.96984 -6.28 7.38753 -6.24 7.60147 -6.24C8.27384 -6.24 9.01243 -6.38 9.81724 -6.66C9.50143 -7.43333 9.34352 -8.19333 9.34352 -8.94C9.34352 -10.5267 9.80196 -12.0133 10.7188 -13.4C11.6357 -14.7867 12.8174 -15.7867 14.2641 -16.4C14.4984 -17.4267 14.8957 -18.7 15.456 -20.22ZM14.1724 -15.96C12.9601 -15.2533 11.977 -14.24 11.2231 -12.92C10.4692 -11.6 10.0923 -10.22 10.0923 -8.78C10.0923 -8.18 10.1891 -7.55333 10.3826 -6.9C11.6357 -7.43333 12.7716 -8.24 13.7903 -9.32C13.6681 -10.1333 13.607 -10.8533 13.607 -11.48C13.607 -12.8 13.7954 -14.2933 14.1724 -15.96ZM15.5782 -4.98C14.7123 -6.23333 14.1367 -7.55333 13.8515 -8.94C12.8022 -7.9 11.6968 -7.1 10.5355 -6.54C11.1365 -5.11333 12.2011 -4.4 13.7292 -4.4C14.3201 -4.4 14.9364 -4.59333 15.5782 -4.98ZM16.923 -3.58C16.3932 -4.00667 16.0163 -4.39333 15.7922 -4.74C14.9976 -4.27333 14.2386 -4.04 13.5153 -4.04C12.0585 -4.04 10.8869 -4.8 10.0006 -6.32C9.12449 -6 8.33496 -5.84 7.63203 -5.84C7.31622 -5.84 6.91891 -5.88 6.4401 -5.96C6.8476 -4.61333 7.576 -3.52667 8.62531 -2.7C9.6848 -1.87333 10.8665 -1.46 12.1705 -1.46C13.7292 -1.46 15.3134 -2.16667 16.923 -3.58Z" stroke="black"/>
<path d="M15 24L14 20L16 21L15 24Z" stroke="black"/>
</g>
<defs>
<clipPath id="clip0_1764_61">
<rect width="28" height="70" fill="white"/>
</clipPath>
</defs>
</svg>
