<svg width="24" height="24" viewBox="0 0 24 24" fill="none" xmlns="http://www.w3.org/2000/svg">
<rect width="24" height="24" fill="white"/>
<path d="M1 1H21.2114L21.748 6.5325H20.9928C20.9001 5.44005 20.6748 4.60719 20.3171 4.03394C19.9594 3.44982 19.4692 3.02799 18.8465 2.76845C18.2239 2.50888 17.2368 2.3791 15.8855 2.3791H6.68431L10 12.5L5.55147 19.9823H15.7861C17.6409 19.9823 19.0585 19.7389 20.0389 19.2522C21.0193 18.7655 21.7546 17.7487 22.2448 16.202L23 16.348L21.8474 23H1.00107V22.4159L5.5 12.5L1.00107 1.58345L1 1Z"  />
<path d="M20.8295 10.2999H19.0659V11.2805H20.8295V10.2999ZM20.8295 11.5598H19.0659V12.5604H20.8295V11.5598ZM20.8295 9.03882H19.0659V10.0194H20.8295V9.03882ZM20.8295 14.0194H19.0659V15.02H20.8295V14.0194ZM21.6451 8.03945H17.4141C17.3699 8.03945 17.3258 8.03945 17.2816 8.05949V7L11 8.13964V15.8804L17.2595 17V15.9806C17.3037 16.0006 17.3478 16.0006 17.392 16.0006H21.623C21.8438 16.0006 21.9983 15.8403 21.9983 15.6412V8.39887C22.019 8.19975 21.8438 8.03945 21.6451 8.03945ZM15.2324 13.66L14.483 13.6199L13.9103 12.32L13.2935 13.5398L12.5883 13.4997L13.4922 12.0194L12.6767 10.3989L13.3818 10.3588L13.8662 11.5786H13.9545L14.483 10.2786L15.2324 10.2386L14.2843 11.958L15.2324 13.66ZM21.5347 15.5598H17.2595V15.02H18.6919V14.0194H17.2595V13.799H18.6919V12.8184H17.2595V12.5579H18.6919V11.5573H17.2595V11.2768H18.6919V10.2962H17.2595V10.0357H18.6919V9.0551H17.2595V8.4953H21.5347V15.5598ZM20.8295 12.8197H19.0659V13.8003H20.8295V12.8197Z"/>
</svg>
