<svg width="20" height="22" viewBox="0 0 20 22" fill="none" xmlns="http://www.w3.org/2000/svg">
<path fill-rule="evenodd" clip-rule="evenodd" d="M9.90925 0.0451054C9.80723 0.11181 9.80308 0.224305 9.89978 0.300539C9.96923 0.355348 9.96946 0.357458 9.94998 0.806993C9.92727 1.33116 9.88715 1.44814 9.72477 1.46316C9.61675 1.47314 9.52929 1.53262 9.52929 1.59606C9.52929 1.64978 10.4983 1.66897 10.5377 1.61608C10.5742 1.56683 10.4671 1.4709 10.3663 1.46265C10.1612 1.44596 10.0046 0.45371 10.1814 0.291777C10.3659 0.122874 10.1248 -0.0956581 9.90925 0.0451054ZM9.57656 1.7564C9.55054 1.77795 9.52921 1.80327 9.52913 1.81255C9.52898 1.82188 9.4884 1.84868 9.4389 1.87209C9.34073 1.91846 9.32826 1.99648 9.37399 2.27577L9.39393 2.39728L9.45121 2.34452C9.50542 2.29457 9.53722 2.29169 10.0361 2.29169H10.5636L10.6479 2.35885L10.7323 2.42593V2.1948C10.7323 1.95798 10.7031 1.86704 10.6268 1.86704C10.603 1.86704 10.5625 1.83327 10.5368 1.79208L10.4902 1.71713H10.057C9.70329 1.71713 9.61513 1.72429 9.57656 1.7564ZM9.45291 2.47863L9.3425 2.59055L9.42119 2.70215C9.46453 2.76355 9.51427 2.82111 9.53175 2.83006C9.57363 2.85161 9.51243 4.44753 9.4245 5.62685C9.41634 5.73672 9.40248 5.93345 9.39378 6.06404C9.23856 8.39031 8.97285 10.2795 8.61121 11.6277C8.60028 11.6686 8.56755 11.6867 8.48394 11.698C8.27051 11.7267 8.23602 11.749 8.23602 11.8579V11.9569L8.31871 11.921C8.44421 11.8666 11.6814 11.8674 11.775 11.9218C11.8348 11.9566 11.8392 11.9546 11.8512 11.887C11.8753 11.7504 11.8338 11.71 11.6694 11.71C11.5327 11.71 11.5205 11.7049 11.504 11.6413C11.4942 11.6035 11.4515 11.439 11.4092 11.2757C11.3008 10.8577 11.1715 10.2161 11.0662 9.57398C10.9857 9.08313 10.9494 8.79834 10.8524 7.89365C10.8264 7.6519 10.7116 6.2378 10.642 5.30202C10.5775 4.43506 10.5525 3.88889 10.5534 3.36593L10.5543 2.82885L10.6433 2.74232C10.7495 2.63909 10.7524 2.61115 10.6675 2.50792C10.5525 2.36812 10.5458 2.36665 10.0368 2.36665H9.56339L9.45291 2.47863ZM9.86013 4.32774C9.86013 4.37622 9.77975 4.42367 9.75472 4.38997C9.71507 4.33676 9.76704 4.2322 9.81624 4.26615C9.84034 4.28278 9.86013 4.31048 9.86013 4.32774ZM10.3413 4.31527C10.3413 4.3995 10.2984 4.41363 10.2536 4.34405C10.2331 4.31233 10.2346 4.28892 10.2585 4.2691C10.3156 4.22171 10.3413 4.23603 10.3413 4.31527ZM9.99379 4.71217C9.98725 4.71767 9.97239 4.70085 9.96084 4.67482C9.94929 4.64879 9.92188 4.61854 9.90001 4.60754C9.84589 4.58043 9.84989 4.54097 9.91272 4.48309C9.96376 4.43621 9.966 4.4389 9.98555 4.56847C9.99664 4.64208 10.0003 4.70674 9.99379 4.71217ZM10.2088 4.52792C10.2285 4.59341 10.1746 4.67495 10.1274 4.65078C10.1127 4.64323 10.1007 4.5984 10.1007 4.55114C10.1007 4.44798 10.1795 4.43103 10.2088 4.52792ZM10.3681 4.80542L10.3736 4.9708L10.2973 4.89553C10.2553 4.85409 10.221 4.8129 10.221 4.80401C10.221 4.78949 10.3456 4.64003 10.3577 4.64003C10.3604 4.64003 10.3651 4.71448 10.3681 4.80542ZM9.81463 4.7643C9.8569 4.83228 9.85643 4.8429 9.8087 4.8892C9.72939 4.96614 9.70976 4.95136 9.70976 4.81488C9.70976 4.67329 9.74679 4.65538 9.81463 4.7643ZM10.2058 5.03936C10.2506 5.1115 10.2215 5.2146 10.156 5.2146C10.1235 5.2146 10.0943 5.07089 10.1155 5.01532C10.1411 4.94855 10.1509 4.95117 10.2058 5.03936ZM9.98039 5.11662V5.24344L9.90525 5.16919C9.81586 5.081 9.81386 5.06795 9.88269 5.02453C9.96777 4.97093 9.98039 4.98289 9.98039 5.11662ZM10.4139 5.37199C10.4297 5.5526 10.4151 5.57006 10.3209 5.48314C10.2168 5.38715 10.215 5.36809 10.3011 5.27849C10.4024 5.17309 10.3962 5.16798 10.4139 5.37199ZM9.86013 5.37154C9.86013 5.4064 9.73933 5.53936 9.70768 5.53936C9.69228 5.53936 9.67966 5.46421 9.67966 5.37231V5.20526L9.76989 5.27708C9.81955 5.31654 9.86013 5.35907 9.86013 5.37154ZM10.0083 5.80797C10.0112 5.91298 9.98694 5.90889 9.86637 5.78392L9.76735 5.68134L9.86637 5.59628L9.96538 5.51128L9.98571 5.61898C9.99687 5.67827 10.007 5.76326 10.0083 5.80797ZM10.2204 5.61367L10.3151 5.71293L10.2305 5.80119C10.1306 5.90543 10.1091 5.87896 10.1037 5.64559C10.1001 5.48832 10.1007 5.48819 10.2204 5.61367ZM9.82956 5.99132L9.88746 6.05605L9.76851 6.15255L9.64963 6.249L9.65024 6.02535L9.65094 5.8017L9.71122 5.86418C9.74441 5.89853 9.79769 5.95576 9.82956 5.99132ZM10.4581 6.08271C10.4623 6.23947 10.4367 6.24548 10.3138 6.11661C10.2007 5.99804 10.2004 6.01236 10.3188 5.90562L10.4165 5.8175L10.4355 5.88452C10.446 5.92142 10.4561 6.01064 10.4581 6.08271ZM9.98039 6.36795V6.57197L9.87637 6.47411C9.81917 6.42033 9.77174 6.35944 9.77089 6.33879C9.76966 6.30994 9.93427 6.16809 9.97293 6.16464C9.97701 6.16426 9.98039 6.25577 9.98039 6.36795ZM10.2233 6.44847C10.0997 6.59774 10.1007 6.59857 10.1007 6.35797V6.1523L10.3187 6.33335L10.2233 6.44847ZM9.87514 6.66918C9.8927 6.67966 9.84604 6.73652 9.76342 6.80533C9.58749 6.95192 9.57956 6.94507 9.60559 6.66892L9.62668 6.44514L9.73586 6.54811C9.79592 6.60477 9.85859 6.6592 9.87514 6.66918ZM10.4917 6.66527V6.89174L10.3564 6.79964C10.1926 6.68817 10.1922 6.68376 10.3338 6.55003C10.4876 6.40466 10.4917 6.40767 10.4917 6.66527ZM9.97346 7.1503L9.96538 7.24975L9.83749 7.13892L9.70953 7.02809L9.93528 6.83597L9.95845 6.94335C9.97116 7.00244 9.97785 7.09556 9.97346 7.1503ZM10.3218 6.98415C10.3852 7.04241 10.3586 7.09294 10.2154 7.1865L10.1387 7.23664L10.1198 7.12146C10.1093 7.05815 10.1007 6.96784 10.1007 6.92071V6.83507L10.1834 6.884C10.2289 6.91092 10.2911 6.95601 10.3218 6.98415ZM10.5492 7.5245L10.5518 7.69846L10.4015 7.57541C10.1898 7.40222 10.1873 7.38086 10.3608 7.23421L10.5067 7.11091L10.5267 7.23076C10.5376 7.29663 10.5478 7.42889 10.5492 7.5245ZM9.87722 7.36583C9.90648 7.40516 9.58072 7.68893 9.54261 7.65727C9.53475 7.65075 9.53737 7.53166 9.5483 7.39263L9.56824 7.13982L9.71407 7.24118C9.7943 7.29701 9.86775 7.3531 9.87722 7.36583ZM9.96807 7.90624C9.95984 7.91309 9.89501 7.88143 9.82394 7.83596C9.75288 7.79042 9.69051 7.75096 9.68543 7.74821C9.68035 7.74553 9.74125 7.69212 9.82079 7.62964L9.96538 7.51606L9.97423 7.70492C9.97909 7.80884 9.97631 7.8994 9.96807 7.90624ZM10.414 7.76618C10.4052 7.77808 10.3858 7.7878 10.371 7.7878C10.3562 7.7878 10.3102 7.81588 10.2689 7.85022C10.1506 7.94845 10.1308 7.93036 10.1308 7.72385V7.53499L10.2804 7.63981C10.3627 7.69743 10.4228 7.75429 10.414 7.76618ZM9.69467 7.9127L9.78491 7.96233L9.64208 7.96246C9.54299 7.96259 9.49918 7.95242 9.49918 7.92933C9.49918 7.84971 9.5694 7.84376 9.69467 7.9127ZM10.5933 7.90113C10.6128 7.94359 10.5928 7.95178 10.4165 7.97372L10.2962 7.98868L10.4165 7.92581C10.5577 7.85207 10.5698 7.85041 10.5933 7.90113ZM9.89023 8.1116C9.89023 8.14275 9.53075 8.46233 9.49579 8.46233C9.48109 8.46233 9.46915 8.37797 9.46915 8.27494V8.08755H9.67966C9.79546 8.08755 9.89023 8.09836 9.89023 8.1116ZM10.6272 8.26394C10.6554 8.49674 10.6436 8.49936 10.4157 8.31171C10.168 8.10783 10.1679 8.08755 10.4135 8.08755H10.6059L10.6272 8.26394ZM9.95037 8.48855V8.68969L9.83757 8.62106C9.77551 8.58333 9.71184 8.54342 9.69606 8.53229C9.67342 8.51631 9.90286 8.28741 9.94159 8.28741C9.94636 8.28741 9.95037 8.37791 9.95037 8.48855ZM10.3626 8.44666L10.4591 8.52001L10.3176 8.6036C10.1287 8.71514 10.1308 8.71648 10.1308 8.48343V8.27967L10.1984 8.32649C10.2357 8.35226 10.3095 8.4063 10.3626 8.44666ZM9.72747 8.68898C9.80839 8.74481 9.77051 8.76387 9.61198 8.74705C9.42712 8.72748 9.42581 8.72684 9.45091 8.67255C9.4727 8.62541 9.65055 8.63596 9.72747 8.68898ZM10.6317 8.67574C10.6566 8.72959 10.6345 8.74117 10.4782 8.75575C10.3227 8.77033 10.3032 8.74334 10.424 8.68111C10.5277 8.62771 10.6086 8.62567 10.6317 8.67574ZM9.88484 8.90329C9.87953 8.92593 9.79484 8.98144 9.69667 9.0266C9.47693 9.12764 9.40902 9.11217 9.40902 8.96104V8.86204H9.65178C9.86136 8.86204 9.89331 8.86767 9.88484 8.90329ZM10.684 8.9015C10.7326 9.00677 10.7048 9.21987 10.6496 9.16544C10.6207 9.13692 10.5159 9.07623 10.4167 9.03056C10.1512 8.90822 10.1579 8.86204 10.4412 8.86204C10.6182 8.86204 10.6696 8.87036 10.684 8.9015ZM9.92026 9.1978C9.92026 9.25882 9.9101 9.31388 9.8977 9.32015C9.87268 9.33287 9.66064 9.19352 9.68158 9.1781C9.7073 9.15905 9.87553 9.08882 9.8977 9.08786C9.9101 9.08729 9.92026 9.13679 9.92026 9.1978ZM10.3232 9.14824L10.4404 9.20804L10.3383 9.25977C10.1865 9.33665 10.1609 9.32789 10.1609 9.19927C10.1609 9.0697 10.1661 9.06804 10.3232 9.14824ZM9.67966 9.31171C9.71269 9.32942 9.69059 9.33601 9.59696 9.33626C9.52667 9.33652 9.46915 9.32546 9.46915 9.31171C9.46915 9.27979 9.62029 9.27979 9.67966 9.31171ZM10.6589 9.32341C10.7152 9.35878 10.7147 9.36005 10.6421 9.3605C10.5158 9.36127 10.4203 9.333 10.4666 9.30864C10.5264 9.27711 10.5934 9.28229 10.6589 9.32341ZM9.8244 9.47543C9.89293 9.4941 9.39232 9.78637 9.29191 9.78637C9.27621 9.78637 9.32949 9.45292 9.34596 9.44825C9.36444 9.443 9.79522 9.4675 9.8244 9.47543ZM10.772 9.51777C10.7809 9.54872 10.7974 9.62726 10.8087 9.6923L10.8293 9.81061L10.6229 9.69888C10.3011 9.52461 10.2788 9.50996 10.2974 9.48502C10.339 9.42912 10.7548 9.45784 10.772 9.51777ZM9.89023 9.75958C9.89023 9.92925 9.85482 9.95144 9.60921 9.93622C9.49841 9.92938 9.40741 9.91447 9.40702 9.90309C9.40648 9.88825 9.80161 9.66902 9.88269 9.63921C9.88685 9.63768 9.89023 9.69185 9.89023 9.75958ZM10.2655 9.66058C10.2754 9.67381 10.3781 9.726 10.4939 9.77652C10.7345 9.88154 10.7428 9.91486 10.5358 9.9437C10.3688 9.96692 10.265 9.95227 10.2418 9.9022C10.1762 9.76015 10.1952 9.56611 10.2655 9.66058ZM9.55185 10.0524C9.76142 10.0733 9.75288 10.0889 9.46507 10.2098C9.18143 10.3289 9.18928 10.3304 9.21584 10.164C9.23879 10.0205 9.2374 10.021 9.55185 10.0524ZM10.8634 10.0799C10.8716 10.1039 10.8871 10.1704 10.8978 10.2276L10.9172 10.3316L10.6669 10.2304C10.3166 10.0888 10.3026 10.0769 10.4641 10.0587C10.7393 10.0276 10.8477 10.0334 10.8634 10.0799ZM10.0845 10.2672C10.0952 10.3394 10.1111 10.4293 10.1198 10.4671C10.1337 10.5277 10.1265 10.5358 10.058 10.5358C9.97339 10.5358 9.95653 10.4471 9.99972 10.2298C10.026 10.0977 10.0616 10.1134 10.0845 10.2672ZM9.78545 10.4549C9.76704 10.5363 9.76188 10.5392 9.65532 10.5266C9.59427 10.5194 9.47924 10.5065 9.39963 10.4979C9.2073 10.4772 9.22801 10.4502 9.53029 10.3271L9.78491 10.2236L9.79476 10.2968C9.80015 10.3371 9.79599 10.4083 9.78545 10.4549ZM10.8524 10.4635C10.8526 10.4779 10.4829 10.5358 10.3905 10.5358C10.3478 10.5358 10.3358 10.5072 10.2946 10.3077L10.2758 10.217L10.564 10.3327C10.7225 10.3963 10.8523 10.4551 10.8524 10.4635ZM10.9729 10.6267C10.9729 10.6916 10.9704 10.6924 10.815 10.6769C10.7282 10.6682 10.6165 10.6598 10.5669 10.6581C10.504 10.6561 10.5406 10.6417 10.6872 10.6107C10.9711 10.5509 10.9729 10.551 10.9729 10.6267ZM9.40656 10.616L9.60451 10.6461L9.45406 10.6638C9.17419 10.6965 9.10821 10.6911 9.10821 10.6358C9.10821 10.5769 9.1377 10.575 9.40656 10.616ZM9.64786 10.7794C9.64578 10.8024 9.31186 11.0296 9.25234 11.0486C9.19498 11.0669 9.04807 10.9508 9.04807 10.8872C9.04807 10.8334 9.05531 10.8311 9.3639 10.7912C9.61067 10.7593 9.64986 10.7577 9.64786 10.7794ZM10.1579 10.8393C10.2513 11.0619 10.1369 11.2435 9.96292 11.1488C9.8328 11.078 9.90702 10.7607 10.0537 10.7607C10.1065 10.7607 10.1335 10.781 10.1579 10.8393ZM10.9955 10.8357C11.102 10.8731 11.0031 11.0554 10.8738 11.0596C10.8478 11.0605 10.4818 10.8141 10.4685 10.7867C10.4574 10.7639 10.9109 10.8061 10.9955 10.8357ZM10.5981 11.2475C10.451 11.3514 10.4426 11.3472 10.4159 11.1563C10.4041 11.0715 10.3825 10.9676 10.3679 10.9254C10.3437 10.8553 10.3577 10.8623 10.5294 11.006L10.7173 11.1633L10.5981 11.2475ZM9.69351 11.0791C9.66449 11.3117 9.65302 11.3236 9.53098 11.2489C9.47555 11.2149 9.41526 11.1817 9.39701 11.1751C9.37083 11.1657 9.66618 10.9119 9.7046 10.9108C9.71007 10.9107 9.70506 10.9864 9.69351 11.0791ZM11.1266 11.1932C11.1385 11.2301 11.1363 11.2603 11.1218 11.2603C11.0915 11.2603 11.0331 11.1777 11.0331 11.135C11.0331 11.0811 11.1049 11.1259 11.1266 11.1932ZM9.06101 11.1576C9.08064 11.184 8.99441 11.2491 8.96846 11.2275C8.94336 11.2067 8.97963 11.1354 9.01528 11.1354C9.03137 11.1354 9.05192 11.1453 9.06101 11.1576ZM10.221 11.2208C10.221 11.2402 10.2301 11.2768 10.2412 11.302C10.2606 11.3462 10.2591 11.3462 10.1981 11.3016C10.1633 11.2763 10.1422 11.2398 10.1511 11.2205C10.1722 11.1748 10.221 11.1751 10.221 11.2208ZM9.92026 11.2728C9.92026 11.2934 9.90671 11.3103 9.89023 11.3103C9.87368 11.3103 9.86013 11.2934 9.86013 11.2728C9.86013 11.2522 9.87368 11.2353 9.89023 11.2353C9.90671 11.2353 9.92026 11.2522 9.92026 11.2728ZM9.41364 11.3607C9.51651 11.416 9.60582 11.4654 9.61205 11.4706C9.61829 11.4758 9.61421 11.5205 9.60305 11.57L9.58272 11.66H9.25526H8.92781L8.9275 11.5664C8.92735 11.4871 9.13131 11.2743 9.22 11.2613C9.22354 11.2607 9.3107 11.3055 9.41364 11.3607ZM11.1579 11.4934C11.2176 11.6586 11.2151 11.66 10.8527 11.66H10.5218L10.5168 11.5976C10.514 11.5632 10.5107 11.5183 10.5093 11.4979C10.5079 11.4774 10.5805 11.4169 10.6706 11.3634L10.8344 11.2662L10.9864 11.3528C11.0699 11.4004 11.1472 11.4637 11.1579 11.4934ZM10.1632 11.4777C10.2276 11.6185 10.2031 11.66 10.0556 11.66H9.92026V11.5615C9.92026 11.398 10.0986 11.3365 10.1632 11.4777ZM8.43151 11.9888C8.21138 12.0895 8.14255 12.2005 8.23394 12.3071C8.3877 12.4865 8.3984 12.5582 8.31109 12.826C7.98817 13.8167 7.54338 14.9047 7.16496 15.6295L7.08527 15.7821H6.78845H6.49164V16.0444V16.3067H10.0556H13.6196V16.0444V15.7821H13.3172H13.0147L12.9077 15.5884C12.6087 15.047 12.273 14.2515 11.9463 13.3098L11.691 12.5739L11.8009 12.3939C11.9301 12.1825 11.9237 12.1392 11.7478 12.0333L11.6256 11.9598L10.0586 11.9606C8.97601 11.9611 8.47308 11.9698 8.43151 11.9888ZM9.28868 12.7205C9.28868 12.7267 9.20129 12.7835 9.09443 12.8468C8.878 12.9751 8.84858 12.9741 8.70545 12.8328C8.58703 12.7159 8.60066 12.7093 8.95784 12.7093C9.13977 12.7093 9.28868 12.7143 9.28868 12.7205ZM10.3275 12.7667C10.3025 12.7983 10.2413 12.8493 10.1914 12.8799C10.1415 12.9105 10.1007 12.9577 10.1007 12.9848C10.1007 13.0516 9.99264 13.0497 9.94906 12.9821C9.89739 12.9019 9.93489 12.8592 10.0568 12.8592C10.1439 12.8592 10.1633 12.8505 10.1553 12.8154C10.1396 12.7468 9.95075 12.74 9.9295 12.8074C9.90971 12.8704 9.89432 12.8708 9.80747 12.8106C9.68381 12.7249 9.72231 12.7093 10.0563 12.7093H10.3728L10.3275 12.7667ZM11.4541 12.7309C11.4541 12.7707 11.3294 12.8848 11.2485 12.919C11.173 12.951 11.1566 12.946 10.9608 12.8311L10.7532 12.7093H11.1037C11.2965 12.7093 11.4541 12.719 11.4541 12.7309ZM9.32633 12.9403C9.30562 13.0801 9.29777 13.0892 9.22924 13.0535C9.15001 13.0125 9.15217 12.9658 9.23602 12.9077C9.32926 12.8431 9.34019 12.847 9.32633 12.9403ZM9.73979 12.9591C9.73979 13.0088 9.66934 13.067 9.63931 13.0422C9.57556 12.9892 9.633 12.8416 9.69944 12.8874C9.72162 12.9027 9.73979 12.935 9.73979 12.9591ZM10.4559 12.9673C10.4658 13.0646 10.4632 13.0676 10.3889 13.0438C10.3396 13.0281 10.3276 12.9678 10.3601 12.8976C10.3913 12.83 10.446 12.8697 10.4559 12.9673ZM10.9394 12.9611C11.1621 13.0847 11.1631 13.0885 10.97 13.079C10.8102 13.0712 10.7878 13.0557 10.7509 12.9279C10.7259 12.8409 10.7212 12.8401 10.9394 12.9611ZM11.5448 12.9599C11.5946 13.06 11.5639 13.0798 11.4722 13.0066C11.4179 12.9632 11.4067 12.939 11.4299 12.9158C11.4782 12.8674 11.5035 12.8772 11.5448 12.9599ZM8.62761 12.9722C8.66949 13.0141 8.66434 13.0251 8.59697 13.0377C8.54938 13.0466 8.53676 13.0328 8.53676 12.9716C8.53676 12.9233 8.5791 12.9237 8.62761 12.9722ZM9.13831 13.0465C9.13831 13.0699 9.1099 13.084 9.06309 13.084C8.9901 13.084 8.96708 13.0597 9.00796 13.0257C9.04584 12.9943 9.13831 13.009 9.13831 13.0465ZM9.85659 13.0858C9.75865 13.1067 9.72462 13.0862 9.79053 13.0462C9.83187 13.0211 9.85489 13.0201 9.88662 13.0419C9.9208 13.0655 9.91541 13.0734 9.85659 13.0858ZM11.3801 13.0357C11.4079 13.0729 11.3758 13.0931 11.3182 13.0748C11.2916 13.0663 11.2783 13.048 11.2886 13.0342C11.3129 13.0014 11.3552 13.0021 11.3801 13.0357ZM8.80747 13.0715C8.80747 13.0921 8.79392 13.109 8.77736 13.109C8.76089 13.109 8.74734 13.0921 8.74734 13.0715C8.74734 13.0509 8.76089 13.034 8.77736 13.034C8.79392 13.034 8.80747 13.0509 8.80747 13.0715ZM10.2901 13.0866C10.2663 13.1064 10.2412 13.1066 10.2014 13.0873C10.1527 13.0638 10.1568 13.0605 10.2346 13.0597C10.2993 13.0592 10.3143 13.0665 10.2901 13.0866ZM9.07556 13.3739C9.05346 13.396 8.95961 13.4568 8.86698 13.5091L8.69844 13.6041L8.58757 13.4905C8.4352 13.3344 8.43605 13.3338 8.79615 13.3338C9.08595 13.3338 9.1119 13.3375 9.07556 13.3739ZM11.6436 13.3674C11.6304 13.3859 11.5701 13.4485 11.5097 13.5065L11.3999 13.6119L11.2173 13.4966C10.9583 13.333 10.9577 13.3338 11.3336 13.3338C11.6054 13.3338 11.6632 13.3401 11.6436 13.3674ZM9.30346 13.8103C9.07263 14.7238 8.89008 15.4619 8.86213 15.5947C8.82872 15.7534 8.77729 15.8362 8.77759 15.7309C8.77782 15.6471 9.14324 14.1114 9.2381 13.7954C9.26273 13.7133 9.2923 13.5899 9.30377 13.5212C9.32964 13.3661 9.36098 13.3216 9.37291 13.4231C9.37784 13.4653 9.34658 13.6395 9.30346 13.8103ZM10.7912 13.5587C10.8109 13.6343 10.8741 13.8759 10.9317 14.0957C11.2064 15.1461 11.352 15.8305 11.2895 15.7786C11.2817 15.7721 11.2013 15.4639 11.1107 15.0937C11.0202 14.7235 10.8912 14.2084 10.8242 13.9492C10.7055 13.4905 10.6741 13.3026 10.7298 13.3838C10.7439 13.4044 10.7715 13.4831 10.7912 13.5587ZM10.4541 13.4994C10.6268 13.5379 10.4818 13.5587 10.0406 13.5587C9.76266 13.5587 9.55939 13.5488 9.55939 13.5353C9.55939 13.493 10.293 13.4636 10.4541 13.4994ZM8.56324 13.6836C8.56424 13.7005 8.28645 13.8837 8.27467 13.8739C8.26951 13.8696 8.28868 13.7923 8.31717 13.702L8.36899 13.5379L8.46577 13.6045C8.51897 13.6411 8.56286 13.6767 8.56324 13.6836ZM11.7804 13.7061C11.8263 13.8799 11.8088 13.8896 11.6661 13.7696L11.5488 13.6711L11.6276 13.6022C11.7209 13.5206 11.7338 13.5293 11.7804 13.7061ZM9.00403 13.7514C8.98579 13.8119 8.98301 13.8126 8.92635 13.77C8.84843 13.7114 8.85205 13.6511 8.93528 13.6208C9.01273 13.5926 9.03768 13.6399 9.00403 13.7514ZM11.1959 13.6562C11.24 13.6967 11.2419 13.7116 11.2084 13.7561C11.1527 13.8301 11.1348 13.8222 11.1001 13.7086C11.0655 13.5952 11.1056 13.5733 11.1959 13.6562ZM10.5975 13.7686C10.6054 13.7974 10.652 14.0121 10.701 14.2457C10.8047 14.74 10.9947 15.6137 11.0203 15.7133L11.0378 15.7821H10.0468H9.05562L9.11337 15.526C9.19636 15.1575 9.49833 13.7598 9.49903 13.7405C9.49918 13.7352 10.0984 13.7204 10.4246 13.7176C10.5616 13.7165 10.5851 13.7234 10.5975 13.7686ZM8.76797 13.8378C8.87361 13.9203 8.85513 13.9334 8.63454 13.9327L8.43151 13.9319L8.52975 13.8577C8.64701 13.7691 8.67673 13.7666 8.76797 13.8378ZM11.5886 13.861C11.6472 13.9077 11.6453 13.9084 11.4608 13.9084C11.2628 13.9084 11.2313 13.8859 11.3404 13.8225C11.4163 13.7783 11.5016 13.7915 11.5886 13.861ZM11.9026 14.0741C11.9223 14.0883 11.8599 14.1863 11.7572 14.3028L11.6628 14.4098L11.4758 14.2926C11.2105 14.1264 11.1639 14.0727 11.2662 14.0505C11.3222 14.0383 11.8818 14.059 11.9026 14.0741ZM8.8977 14.0777C8.8977 14.1245 8.79107 14.2156 8.62946 14.3067L8.45499 14.4052L8.3639 14.3254C8.28337 14.2549 8.17589 14.11 8.17589 14.072C8.17589 14.0645 8.33827 14.0583 8.53676 14.0583C8.73532 14.0583 8.8977 14.067 8.8977 14.0777ZM8.22994 14.4352L8.299 14.5055L8.19983 14.5477C8.14532 14.571 8.06817 14.611 8.02844 14.6368C7.92681 14.7025 7.92596 14.6911 8.01566 14.4695C8.08342 14.302 8.10036 14.2793 8.12815 14.3186C8.14609 14.344 8.1919 14.3965 8.22994 14.4352ZM12.1057 14.6497C12.0983 14.6557 12.0313 14.625 11.9567 14.5813L11.821 14.5019L11.9006 14.3923L11.9803 14.2827L12.0496 14.4607C12.0877 14.5585 12.113 14.6436 12.1057 14.6497ZM8.80331 14.4913C8.76389 14.6544 8.74626 14.6619 8.65448 14.5549C8.59727 14.4882 8.59412 14.4738 8.63254 14.4559C8.65733 14.4444 8.71015 14.4131 8.75003 14.3862C8.84335 14.3234 8.84373 14.3241 8.80331 14.4913ZM11.4973 14.4887C11.524 14.5063 11.4069 14.6329 11.3638 14.6329C11.3451 14.6329 11.2737 14.41 11.2737 14.3515C11.2737 14.3362 11.3177 14.3567 11.3714 14.3969C11.4252 14.4372 11.4819 14.4785 11.4973 14.4887ZM8.53676 14.6454L8.63885 14.7328L8.10066 14.7315L8.26474 14.6447C8.3549 14.597 8.43174 14.5579 8.43174 14.5579C8.43174 14.5579 8.4807 14.5973 8.53676 14.6454ZM11.9629 14.723C11.9698 14.7284 11.8555 14.7328 11.7089 14.7328H11.4424L11.6412 14.5624L11.7958 14.6378C11.8808 14.6792 11.9561 14.7176 11.9629 14.723ZM8.6708 14.8809C8.68027 14.8937 8.57618 14.9772 8.43951 15.0665L8.1909 15.229L8.04577 15.112C7.88431 14.982 7.83334 14.9187 7.86044 14.8822C7.88377 14.8509 8.64755 14.8497 8.6708 14.8809ZM12.2303 14.9136C12.2362 14.9391 12.1766 15.0129 12.0851 15.0932L11.93 15.2296L11.7104 15.0874C11.352 14.8552 11.3521 14.855 11.8214 14.8633C12.1722 14.8694 12.2215 14.8755 12.2303 14.9136ZM7.88477 15.2097C7.98155 15.2917 7.99695 15.3166 7.96277 15.3356C7.88824 15.3771 7.71192 15.4503 7.64494 15.4675L7.58018 15.4841L7.65171 15.3395C7.69113 15.26 7.72362 15.1753 7.72401 15.1512C7.72509 15.087 7.75111 15.0964 7.88477 15.2097ZM8.59281 15.2658C8.55531 15.4208 8.54253 15.4277 8.41333 15.3643C8.30454 15.311 8.31201 15.2915 8.47878 15.1928C8.64078 15.097 8.63454 15.093 8.59281 15.2658ZM11.7647 15.3138C11.7438 15.3429 11.5708 15.4126 11.554 15.3987C11.5458 15.3918 11.5288 15.3489 11.5163 15.3031C11.5038 15.2574 11.4832 15.1934 11.4707 15.1608C11.4497 15.1064 11.461 15.1094 11.613 15.1983C11.7038 15.2515 11.772 15.3035 11.7647 15.3138ZM12.409 15.2772C12.4463 15.3702 12.4767 15.4532 12.4767 15.4616C12.4767 15.47 12.3955 15.4429 12.2963 15.4014C12.0856 15.3132 12.0869 15.3166 12.2135 15.2001C12.3396 15.0843 12.3304 15.0806 12.409 15.2772ZM11.9805 15.4073C11.991 15.4216 11.9651 15.4323 11.9203 15.4323C11.8754 15.4323 11.8496 15.4216 11.8601 15.4073C11.8704 15.3936 11.8975 15.3824 11.9203 15.3824C11.9432 15.3824 11.9702 15.3936 11.9805 15.4073ZM8.48417 15.5785C8.49965 15.5913 8.49172 15.6386 8.46515 15.6913L8.41957 15.7821H7.93459C7.4948 15.7821 7.45053 15.7781 7.45946 15.7397C7.49318 15.5943 8.34242 15.4607 8.48417 15.5785ZM12.4262 15.6144C12.7762 15.7475 12.726 15.7821 12.1826 15.7821H11.7059L11.6552 15.6938C11.6273 15.6452 11.6045 15.5954 11.6045 15.583C11.6045 15.5076 12.2057 15.5306 12.4262 15.6144ZM6.49164 16.622V16.8375L5.97086 17.4152C4.47833 19.0712 3.74919 19.8858 3.60452 20.059C3.40765 20.2946 3.58958 20.2719 1.73965 20.2923C0.548321 20.3054 -0.184277 20.3312 0.0403919 20.352C0.0734993 20.3551 0.126163 20.3616 0.157576 20.3665C0.28069 20.3858 1.85067 20.4279 3.09305 20.4455C4.26559 20.4619 4.62646 20.4917 3.79985 20.5037C2.74465 20.5191 3.42243 20.5767 4.71439 20.5815C5.1377 20.5831 5.66003 20.5924 5.87507 20.6023C6.2187 20.618 6.16226 20.621 5.40887 20.6275C4.36407 20.6364 3.8623 20.6577 4.04046 20.6859C4.96316 20.8314 15.2 20.8261 16.0708 20.6796C16.1712 20.6627 16.1438 20.6582 15.9054 20.6524C15.7482 20.6486 15.579 20.6438 15.5294 20.6417C15.4798 20.6396 15.0467 20.6338 14.567 20.6288C13.5793 20.6184 13.9859 20.589 15.2136 20.5819C16.0502 20.5771 16.8377 20.5494 16.8377 20.5248C16.8377 20.5132 16.7057 20.5024 16.5444 20.5008C15.5493 20.4908 15.7686 20.4639 16.9881 20.4463C20.496 20.3957 21.0156 20.3211 18.1468 20.2798C17.1147 20.2649 16.6405 20.2497 16.6331 20.2311C16.617 20.191 15.6034 19.053 14.3414 17.6583L13.6046 16.8438L13.61 16.6252L13.6154 16.4066H10.0535H6.49164V16.622ZM8.26281 16.9456C8.30839 17.0503 8.29615 17.0678 8.19229 17.0462C8.11083 17.0292 8.09612 16.9833 8.14686 16.9046C8.19175 16.835 8.21885 16.8445 8.26281 16.9456ZM8.70522 16.9199C8.7277 16.9942 8.71084 17.0135 8.61429 17.0243C8.53044 17.0336 8.49279 16.9745 8.53799 16.9044C8.58334 16.8339 8.68204 16.8431 8.70522 16.9199ZM9.18181 16.9224C9.19282 16.9589 9.18759 17.0002 9.17003 17.0148C9.14778 17.0333 9.13831 17.0313 9.13831 17.0082C9.13831 16.9841 9.12784 16.9823 9.09966 17.0017C9.03768 17.0444 8.98171 16.9979 9.0045 16.9227C9.03244 16.83 9.15386 16.8298 9.18181 16.9224ZM9.67619 16.9451C9.73117 17.0713 9.9171 17.0663 9.95699 16.9375C9.99217 16.8238 10.1166 16.8207 10.1462 16.9328C10.1867 17.0858 10.3912 17.0877 10.4387 16.9354C10.4715 16.8303 10.5736 16.8263 10.6199 16.9284C10.6527 17.0006 10.8273 17.0721 10.8908 17.0394C10.9273 17.0208 10.8903 17.1253 10.8345 17.1989C10.7741 17.2784 10.7771 17.2802 10.9435 17.2638C11.055 17.2529 11.1262 17.2608 11.2153 17.2942C11.3289 17.3367 11.3421 17.337 11.4412 17.2977C11.5797 17.2428 11.5954 17.2445 11.6754 17.3217C11.7529 17.3966 11.858 17.3882 11.8841 17.3052C11.9046 17.2403 11.9955 17.241 11.9955 17.306C11.9955 17.3426 12.0156 17.3559 12.0707 17.3559C12.1616 17.3559 12.1633 17.3448 12.0857 17.2628C12.0255 17.1992 12.003 17.0811 12.0512 17.0811C12.0653 17.0811 12.1213 17.1627 12.1756 17.2623C12.2299 17.3619 12.3498 17.5711 12.442 17.7272C12.6049 18.0032 12.6079 18.0121 12.5507 18.0473C12.4832 18.0887 12.5602 18.1655 12.6428 18.1393C12.6647 18.1322 12.6991 18.1527 12.7193 18.1847C12.7395 18.2166 12.8593 18.3327 12.9855 18.4427C13.536 18.9219 14.097 19.8427 14.1003 20.2726C14.1012 20.3804 13.9566 20.3475 13.9357 20.2352C13.7089 19.0147 12.3802 17.8925 10.8373 17.6183C8.76004 17.249 6.5845 18.4444 6.18875 20.1727C6.15456 20.322 6.1491 20.3288 6.06479 20.3288C5.70299 20.3288 6.6996 18.6405 7.25173 18.3181C7.28861 18.2967 7.31871 18.2541 7.31871 18.2235C7.31871 18.1803 7.33611 18.1678 7.39663 18.1678C7.53252 18.1678 7.58888 18.109 7.51535 18.044L7.4543 17.99L7.53815 17.8791C7.58434 17.8181 7.70915 17.6191 7.81555 17.4369C7.92196 17.2548 8.0229 17.1095 8.03984 17.1141C8.09165 17.1283 8.09389 17.23 8.04261 17.2463C7.97231 17.2687 7.98263 17.3559 8.05554 17.3559C8.08865 17.3559 8.11575 17.3403 8.11575 17.3212C8.11575 17.2553 8.20607 17.2538 8.24179 17.319C8.27906 17.387 8.34889 17.401 8.37445 17.3457C8.40533 17.2789 8.56116 17.244 8.62261 17.2902C8.68251 17.3352 8.78006 17.3428 8.86052 17.3089C8.95907 17.2673 9.15648 17.2406 9.23571 17.2582C9.34804 17.2832 9.35836 17.2601 9.27282 17.1757C9.16079 17.0651 9.17481 17.0312 9.33241 17.0312C9.46176 17.0312 9.46708 17.0281 9.48617 16.9438C9.5142 16.8197 9.62191 16.8205 9.67619 16.9451ZM11.0945 16.9082C11.1352 16.9715 11.1094 17.0426 11.0558 17.0146C11.0351 17.0038 10.9943 16.9982 10.9654 17.0021C10.9113 17.0095 10.8979 16.9677 10.931 16.8958C10.9571 16.8395 11.055 16.8469 11.0945 16.9082ZM11.5626 16.9C11.632 16.9759 11.6147 17.0287 11.523 17.0206C11.4297 17.0123 11.3758 16.9567 11.4033 16.8972C11.4281 16.8435 11.5123 16.845 11.5626 16.9ZM11.9472 16.9208C11.9782 16.9879 11.9675 17.0502 11.9225 17.0645C11.8593 17.0847 11.8054 17.0165 11.8273 16.9441C11.8485 16.8739 11.9192 16.8602 11.9472 16.9208ZM7.00558 16.9658C7.09397 17.0592 7.23656 17.0648 7.29123 16.9771C7.33835 16.9014 7.38985 16.8879 7.44806 16.9363C7.5065 16.9848 7.49018 17.0311 7.41688 17.0247C7.37184 17.0206 7.33965 17.0373 7.31948 17.0749C7.30293 17.1058 7.27906 17.1311 7.26643 17.1311C7.25388 17.1311 7.24357 17.1459 7.24357 17.1639C7.24357 17.2147 7.0925 17.3226 6.94275 17.3789C6.78499 17.4383 6.70214 17.4446 6.70214 17.3973C6.70214 17.3788 6.67512 17.3433 6.64201 17.3185C6.6089 17.2936 6.58188 17.2529 6.58188 17.228C6.58188 17.1955 6.56725 17.1873 6.53075 17.1989C6.48587 17.2133 6.48695 17.2048 6.53992 17.1295C6.57302 17.0824 6.62307 17.0401 6.65117 17.0357C6.71477 17.0255 6.71708 17.0652 6.65579 17.1161C6.61399 17.1508 6.61683 17.1562 6.68467 17.1703C6.77752 17.1897 6.83904 17.2445 6.79384 17.2678C6.73425 17.2983 6.76235 17.3343 6.83973 17.3264C6.94475 17.3157 7.10367 17.0935 7.03299 17.0563C6.9978 17.0377 6.98579 17.0463 6.97817 17.0958C6.96669 17.1707 6.90187 17.1633 6.88801 17.0854C6.88277 17.0556 6.86583 17.0312 6.85043 17.0312C6.8184 17.0312 6.81232 16.948 6.8425 16.9229C6.88254 16.8897 6.95037 16.9076 7.00558 16.9658ZM12.7884 16.9438C12.7979 16.9644 12.8519 16.9996 12.9083 17.0219C12.9713 17.0469 13.0501 17.1141 13.1123 17.196C13.2198 17.3377 13.2968 17.3605 13.3139 17.2558C13.3195 17.2216 13.3503 17.17 13.3825 17.1413C13.417 17.1103 13.433 17.072 13.4217 17.0476C13.4112 17.0248 13.4151 17.0062 13.4303 17.0062C13.4705 17.0062 13.5984 17.157 13.5749 17.1766C13.5639 17.1857 13.5418 17.1735 13.5256 17.1496C13.5095 17.1257 13.4827 17.1061 13.466 17.1061C13.4494 17.1061 13.4564 17.1307 13.4818 17.1608C13.5244 17.2113 13.5223 17.2216 13.4534 17.2965C13.4125 17.3411 13.379 17.3896 13.379 17.4042C13.379 17.4335 13.2911 17.4397 13.2161 17.4157C13.1899 17.4074 13.1685 17.3861 13.1685 17.3684C13.1685 17.2965 13.0015 17.2855 12.9793 17.3559C12.963 17.4077 12.8075 17.4306 12.8075 17.3812C12.8075 17.3676 12.7771 17.3592 12.7399 17.3625C12.6903 17.3669 12.6699 17.3537 12.6628 17.3127C12.6533 17.2581 12.5144 17.1561 12.4495 17.1561C12.3945 17.1561 12.4127 17.0846 12.4748 17.057C12.5518 17.0227 12.5669 17.0243 12.5669 17.0668C12.5669 17.1233 12.7094 17.2031 12.7822 17.1873C12.8382 17.1751 12.8445 17.1818 12.8312 17.2397C12.819 17.2926 12.8274 17.306 12.8728 17.306C12.9605 17.306 12.98 17.2285 12.903 17.1861C12.8671 17.1663 12.8376 17.1382 12.8376 17.1238C12.8376 17.0794 12.7411 17.0062 12.6826 17.0062C12.6284 17.0062 12.6071 16.9562 12.6472 16.9229C12.6835 16.8927 12.7707 16.9056 12.7884 16.9438ZM13.283 16.9617C13.2944 17.0113 13.1909 17.1129 13.1203 17.1216C13.0743 17.1272 13.0803 16.989 13.1289 16.9237C13.1554 16.8882 13.2727 16.917 13.283 16.9617ZM7.83811 16.9609C7.81956 17.0073 7.75481 17.0149 7.75481 16.9708C7.75481 16.9491 7.77621 16.9312 7.80247 16.9312C7.82864 16.9312 7.84474 16.9446 7.83811 16.9609ZM12.3564 16.9562C12.3929 16.9758 12.3885 16.9805 12.3339 16.9809C12.2966 16.981 12.2662 16.97 12.2662 16.9562C12.2662 16.925 12.2981 16.925 12.3564 16.9562ZM9.55939 17.0062C9.55939 17.0199 9.53876 17.0312 9.5135 17.0312C9.4653 17.0312 9.40902 17.126 9.40902 17.2071C9.40902 17.2491 9.43089 17.2546 9.58942 17.2528C9.75788 17.2508 9.81078 17.23 9.73979 17.1936C9.72331 17.1851 9.70976 17.1491 9.70976 17.1136C9.70976 17.0782 9.68605 17.0343 9.6571 17.016C9.59365 16.9759 9.55939 16.9725 9.55939 17.0062ZM10.0155 16.9984C9.98286 17.0092 9.86013 17.2051 9.86013 17.2464C9.86013 17.2525 9.92442 17.2557 10.003 17.2534C10.0816 17.251 10.1763 17.2576 10.2135 17.2679C10.2938 17.2903 10.3091 17.2314 10.2361 17.1811C10.2112 17.164 10.191 17.1362 10.191 17.1194C10.191 17.0898 10.0904 16.9792 10.0671 16.9832C10.0608 16.9842 10.0376 16.9911 10.0155 16.9984ZM10.4477 17.0387C10.4228 17.0704 10.3937 17.1321 10.3831 17.1758L10.364 17.2555L10.5481 17.2513C10.7203 17.2474 10.7879 17.2126 10.7056 17.1703C10.6909 17.1627 10.6695 17.1256 10.6581 17.0878C10.6225 16.9702 10.5206 16.9464 10.4477 17.0387ZM11.3009 17.0341C11.3888 17.0595 11.3955 17.0689 11.3775 17.1403C11.3428 17.2786 11.2909 17.2976 11.2175 17.1989C11.1005 17.0417 11.1295 16.9844 11.3009 17.0341ZM8.94175 17.1123C8.90163 17.2681 8.77305 17.2875 8.72978 17.1443C8.70399 17.0589 8.73517 17.0312 8.85674 17.0312C8.96045 17.0312 8.96223 17.0328 8.94175 17.1123ZM7.62908 17.1123C7.62292 17.1485 7.59527 17.1714 7.55177 17.1766C7.51458 17.181 7.48417 17.1991 7.48417 17.2168C7.48417 17.2718 7.32626 17.3851 7.26759 17.3724C7.2344 17.3652 7.21346 17.3742 7.21346 17.3958C7.21346 17.4151 7.19313 17.4309 7.16834 17.4309C7.14355 17.4309 7.12322 17.4196 7.12322 17.4059C7.12322 17.3921 7.13616 17.3809 7.15187 17.3809C7.16765 17.3809 7.20799 17.3294 7.24156 17.2664C7.29808 17.1602 7.30886 17.1531 7.3897 17.1678C7.46523 17.1816 7.4794 17.1753 7.49611 17.12C7.52175 17.035 7.64347 17.0281 7.62908 17.1123ZM8.42912 17.0975C8.44775 17.1378 8.34466 17.256 8.29092 17.256C8.25765 17.256 8.25958 17.1986 8.29546 17.1202C8.32864 17.0477 8.40048 17.0355 8.42912 17.0975ZM11.8165 17.1219C11.858 17.2124 11.8261 17.2947 11.7657 17.2532C11.6861 17.1982 11.6572 17.1312 11.6964 17.092C11.7489 17.0395 11.7827 17.0479 11.8165 17.1219ZM6.50096 17.3222C6.51797 17.3964 6.51297 17.4017 6.41203 17.4175C6.2669 17.44 6.26143 17.4262 6.37346 17.3203C6.42635 17.2702 6.47255 17.2325 6.47624 17.2364C6.47994 17.2403 6.4911 17.2789 6.50096 17.3222ZM13.7491 17.354C13.8108 17.4413 13.7871 17.4507 13.6241 17.4035C13.516 17.3722 13.5086 17.3517 13.5802 17.2822C13.6378 17.2263 13.6679 17.2391 13.7491 17.354ZM7.61868 17.3322C7.56963 17.4111 7.51235 17.4429 7.45029 17.4257C7.41495 17.4159 7.59604 17.2564 7.64278 17.2561C7.65564 17.256 7.64478 17.2903 7.61868 17.3322ZM12.556 17.3197C12.6383 17.3936 12.6425 17.4059 12.5854 17.4059C12.5625 17.4059 12.5219 17.3782 12.4952 17.3443C12.4097 17.2359 12.4461 17.2212 12.556 17.3197ZM9.49171 17.3747C9.46276 17.3801 9.43905 17.395 9.43905 17.4077C9.43905 17.4379 9.55061 17.4378 9.5731 17.4076C9.59566 17.3774 9.55808 17.3621 9.49171 17.3747ZM9.69459 17.3811C9.67188 17.4116 9.75442 17.4418 9.79853 17.4191C9.81586 17.4102 9.83003 17.3924 9.83003 17.3795C9.83003 17.348 9.71823 17.3493 9.69459 17.3811ZM9.95037 17.3809C9.95037 17.3946 9.99017 17.4059 10.0388 17.4059C10.0874 17.4059 10.1356 17.3946 10.1459 17.3809C10.1569 17.366 10.1211 17.3559 10.0574 17.3559C9.99849 17.3559 9.95037 17.3672 9.95037 17.3809ZM10.2812 17.3913C10.2812 17.4228 10.3058 17.4311 10.3865 17.4266C10.4828 17.4212 10.5414 17.3814 10.4541 17.3806C10.4334 17.3804 10.3861 17.3735 10.3489 17.3652C10.2987 17.354 10.2812 17.3608 10.2812 17.3913ZM9.28868 17.4163C9.28868 17.4381 9.31008 17.4559 9.33626 17.4559C9.36252 17.4559 9.37853 17.4425 9.37199 17.4262C9.35343 17.3799 9.28868 17.3722 9.28868 17.4163ZM10.5819 17.4168C10.5819 17.4438 10.6105 17.4559 10.6746 17.4559C10.7898 17.4559 10.7794 17.397 10.6623 17.3855C10.6054 17.3799 10.5819 17.389 10.5819 17.4168ZM9.12168 17.4331C9.09581 17.4677 9.15302 17.5167 9.19452 17.4954C9.22909 17.4777 9.20691 17.4059 9.16695 17.4059C9.15317 17.4059 9.13277 17.4181 9.12168 17.4331ZM10.8437 17.4217C10.8045 17.4542 10.8222 17.475 10.8992 17.4872C10.9579 17.4965 10.9737 17.49 10.9665 17.4592C10.9566 17.4163 10.8787 17.3926 10.8437 17.4217ZM8.88269 17.4559C8.85567 17.4921 8.89285 17.5308 8.9546 17.5308C9.02382 17.5308 9.04784 17.5095 9.02775 17.4659C9.00911 17.4257 8.91026 17.4188 8.88269 17.4559ZM11.0518 17.4693C11.031 17.5146 11.0982 17.5421 11.1839 17.5235C11.2168 17.5163 11.2436 17.5195 11.2436 17.5305C11.2436 17.5415 11.2639 17.557 11.2888 17.5648C11.3818 17.5945 11.3282 17.5166 11.2266 17.4746C11.097 17.4211 11.0745 17.4203 11.0518 17.4693ZM8.70145 17.5327C8.67527 17.6014 8.69806 17.616 8.77675 17.5811C8.82856 17.558 8.83434 17.5453 8.8057 17.5166C8.75619 17.467 8.7247 17.4719 8.70145 17.5327ZM8.55185 17.5308C8.54161 17.5445 8.53968 17.5558 8.54761 17.5558C8.55547 17.5558 8.58334 17.5626 8.60952 17.571C8.6407 17.5809 8.6571 17.5723 8.6571 17.546C8.6571 17.5019 8.58141 17.491 8.55185 17.5308ZM11.395 17.54C11.3475 17.5795 11.3578 17.6058 11.4209 17.6058C11.4661 17.6058 11.5143 17.5617 11.5143 17.5204C11.5143 17.5025 11.4218 17.5177 11.395 17.54ZM7.51397 17.5552C7.66341 17.6336 7.37038 17.6795 6.71724 17.6797C6.16434 17.6799 6.02583 17.6604 6.14578 17.599C6.26335 17.5389 7.4128 17.502 7.51397 17.5552ZM8.36722 17.5683C8.34404 17.6184 8.37522 17.6808 8.42304 17.6803C8.49657 17.6796 8.53452 17.6415 8.51712 17.5861C8.49718 17.5228 8.39393 17.5105 8.36722 17.5683ZM11.5444 17.5893C11.5444 17.6465 11.6669 17.7205 11.7068 17.6874C11.7697 17.6351 11.7216 17.5308 11.6346 17.5308C11.5601 17.5308 11.5444 17.541 11.5444 17.5893ZM13.9427 17.5949L14.0226 17.6384L13.9489 17.6614C13.9084 17.6741 13.6032 17.6808 13.2707 17.6763C12.6485 17.668 12.5669 17.6547 12.5669 17.5614C12.5669 17.5016 13.8276 17.5323 13.9427 17.5949ZM8.09135 17.6317C8.00534 17.6982 8.00812 17.7411 8.10066 17.7761C8.18859 17.8094 8.32625 17.7706 8.32625 17.7126C8.32625 17.5887 8.20206 17.546 8.09135 17.6317ZM11.8161 17.6291C11.7502 17.7314 11.7935 17.7807 11.9496 17.7807C12.0123 17.7807 12.0557 17.7393 12.0557 17.6793C12.0557 17.6594 11.9017 17.5808 11.8627 17.5808C11.8542 17.5808 11.8333 17.6026 11.8161 17.6291ZM12.0948 17.7809C12.0647 17.8471 12.0679 17.8593 12.1221 17.8834C12.1808 17.9095 12.3272 17.873 12.3259 17.8327C12.3249 17.8029 12.2793 17.7623 12.2155 17.7344C12.129 17.6966 12.134 17.6947 12.0948 17.7809ZM7.78583 17.7792C7.76066 17.8183 7.76751 17.8352 7.82156 17.8666C7.95622 17.945 8.06702 17.8918 7.99664 17.7826C7.95391 17.7162 7.82772 17.7142 7.78583 17.7792ZM13.7518 17.8023C13.8356 17.8175 13.8316 17.821 13.6482 17.893C13.5433 17.9343 13.411 17.994 13.3543 18.0256L13.2511 18.0832L13.1722 18.0256C13.1288 17.994 13.0513 17.9319 12.9999 17.8877L12.9066 17.8073L13.1954 17.7992C13.3543 17.7947 13.5249 17.7901 13.5745 17.7889C13.6241 17.7876 13.7039 17.7937 13.7518 17.8023ZM7.05955 17.9454L6.89132 18.0852L6.56363 17.9461L6.23602 17.8069L7.22786 17.8056L7.05955 17.9454ZM6.34874 18.0101C6.51004 18.0777 6.64178 18.1408 6.6414 18.1504C6.64009 18.1889 6.08996 18.3813 6.06756 18.3511C6.04762 18.3243 5.92019 17.9066 5.92019 17.868C5.92019 17.8414 6.04254 17.8819 6.34874 18.0101ZM7.59404 17.9013C7.48048 18.0055 7.64494 18.0835 7.76505 17.9823C7.82903 17.9285 7.82911 17.9271 7.77159 17.8916C7.69444 17.844 7.6541 17.8462 7.59404 17.9013ZM12.3323 17.8856C12.2536 17.951 12.3353 18.0473 12.4452 18.0184C12.5427 17.9927 12.5059 17.8556 12.4015 17.8556C12.3833 17.8556 12.3522 17.8691 12.3323 17.8856ZM14.1598 17.8868C14.1578 17.9393 14.049 18.3566 14.0341 18.369C14.0264 18.3754 13.9042 18.3356 13.7627 18.2805C13.6213 18.2254 13.4906 18.1804 13.4723 18.1804C13.3411 18.1804 13.4539 18.1146 13.8452 17.9631C14.1471 17.8461 14.1615 17.8426 14.1598 17.8868ZM10.399 18.0065C11.8061 18.1264 12.988 19.1311 12.988 20.2072C12.988 20.2524 12.8992 20.2539 10.0458 20.2539H7.10359L7.11445 20.1727C7.30424 18.7589 8.6688 17.859 10.399 18.0065ZM5.87284 18.3379L5.89432 18.4579L5.77945 18.4086C5.54546 18.3079 5.546 18.3092 5.67227 18.1591L5.78484 18.0255L5.8181 18.1217C5.83642 18.1746 5.86106 18.2718 5.87284 18.3379ZM14.46 18.1989L14.5506 18.3125L14.3964 18.3719C14.2039 18.446 14.2039 18.4459 14.2508 18.2182C14.2944 18.0064 14.3056 18.0053 14.46 18.1989ZM13.7291 18.4188C14.0056 18.5268 14.0167 18.5342 13.9567 18.569C13.8214 18.6478 13.7238 18.6422 13.6487 18.5513C13.6107 18.5053 13.5385 18.4311 13.4883 18.3864C13.3706 18.2818 13.3826 18.2835 13.7291 18.4188ZM6.54692 18.4926C6.37299 18.673 6.35967 18.6772 6.2073 18.6026C6.07865 18.5395 6.07426 18.5181 6.18305 18.4842C6.22855 18.47 6.34697 18.4299 6.44622 18.3949C6.70938 18.3023 6.72031 18.3129 6.54692 18.4926ZM5.6126 18.4944C5.67735 18.5221 5.67012 18.5277 5.48441 18.5933C5.24803 18.6767 5.22032 18.6645 5.3462 18.5324C5.44422 18.4297 5.45723 18.4278 5.6126 18.4944ZM14.7449 18.5319C14.8573 18.673 14.8364 18.6836 14.6117 18.5994L14.4162 18.5261L14.5215 18.4792C14.6604 18.4173 14.652 18.4153 14.7449 18.5319ZM6.24472 18.8024C6.25242 18.8216 6.12261 18.8299 5.8171 18.8299C5.30293 18.8299 5.30778 18.833 5.62661 18.7079L5.87477 18.6107L6.05424 18.6928C6.15295 18.738 6.23864 18.7873 6.24472 18.8024ZM14.4461 18.698C14.5705 18.7491 14.6722 18.8 14.6722 18.8111C14.6722 18.8408 13.8519 18.8224 13.8405 18.7924C13.8336 18.7744 14.1358 18.6236 14.213 18.6066C14.2169 18.6057 14.3218 18.6469 14.4461 18.698ZM5.91981 18.9741C5.91981 19.0005 4.93513 19.3565 4.81833 19.3723C4.5544 19.408 4.89109 19.055 5.19329 18.9792C5.2967 18.9532 5.91981 18.9489 5.91981 18.9741ZM14.9789 19.0136C15.1147 19.0638 15.3933 19.2829 15.3933 19.3394C15.3933 19.4238 15.2528 19.3981 14.8146 19.2338C14.5622 19.1391 14.3049 19.0466 14.2429 19.0282C14.056 18.9727 14.1127 18.9548 14.4751 18.9548C14.7723 18.9548 14.8421 18.9629 14.9789 19.0136ZM5.96908 19.1859C5.9426 19.2168 5.85082 19.3353 5.76505 19.4493C5.64864 19.6039 5.5969 19.6526 5.56132 19.641C5.53507 19.6324 5.41465 19.5984 5.29369 19.5654C5.17281 19.5325 5.06002 19.4984 5.04308 19.4897C5.02614 19.481 5.15218 19.4264 5.3231 19.3683C5.49403 19.3103 5.70153 19.2333 5.78422 19.1974C5.97871 19.1128 6.03453 19.1094 5.96908 19.1859ZM14.5685 19.3085L15.0377 19.4874L14.7767 19.5732L14.5158 19.6589L14.4659 19.6007C14.244 19.3417 14.0724 19.1297 14.0846 19.1297C14.0927 19.1297 14.3105 19.2102 14.5685 19.3085ZM15.6626 19.6423L15.7964 19.7542L15.2566 19.7538C14.8971 19.7536 14.7318 19.7454 14.7619 19.7293C14.8168 19.6997 15.3192 19.5611 15.4236 19.5466C15.4649 19.5409 15.5055 19.5349 15.5137 19.5333C15.522 19.5317 15.589 19.5808 15.6626 19.6423ZM5.01898 19.6444C5.20014 19.6939 5.34836 19.7389 5.34836 19.7443C5.34836 19.7498 5.10298 19.7542 4.80316 19.7542H4.25789L4.38963 19.6554C4.55486 19.5312 4.60182 19.5304 5.01898 19.6444ZM6.61945 20.5963C6.5825 20.6021 6.51482 20.6023 6.46908 20.5966C6.42343 20.5908 6.45368 20.586 6.53638 20.5858C6.61907 20.5856 6.65649 20.5903 6.61945 20.5963ZM10.5891 20.5973C10.3037 20.6014 9.8368 20.6014 9.55146 20.5973C9.26612 20.5933 9.49957 20.5899 10.0702 20.5899C10.6409 20.5899 10.8744 20.5933 10.5891 20.5973ZM13.1613 20.6218C13.0997 20.6271 12.9915 20.6272 12.9207 20.622C12.85 20.6167 12.9004 20.6123 13.0327 20.6122C13.1651 20.6121 13.2229 20.6164 13.1613 20.6218ZM6.58149 20.8546C5.84535 20.8635 5.23633 20.8738 5.22809 20.8777C4.96285 21.0012 13.6759 21.0286 14.6868 20.9074L14.8372 20.8894L14.6417 20.8697C14.3928 20.8446 8.35128 20.8333 6.58149 20.8546ZM7.97301 21.0512C6.86098 21.0608 5.94406 21.0746 5.93528 21.0818C5.90495 21.1071 6.75296 21.1545 7.67897 21.1793C8.19175 21.193 8.80754 21.2151 9.04738 21.2283C9.59958 21.2588 10.2693 21.2586 10.9421 21.2279C11.2316 21.2146 11.8542 21.1927 12.3256 21.1791C12.7971 21.1656 13.4129 21.1402 13.6941 21.1227L14.2054 21.0908L13.7994 21.0769C13.576 21.0693 12.852 21.0609 12.1903 21.0583C11.5287 21.0556 10.764 21.0491 10.491 21.0436C10.2181 21.0382 9.08495 21.0416 7.97301 21.0512ZM8.61129 21.3038C8.08195 21.3129 7.56086 21.33 7.45337 21.3418L7.25789 21.3633L7.39324 21.3814C7.61306 21.4108 10.1538 21.4818 10.4158 21.4659C10.5481 21.4578 11.0895 21.4405 11.6188 21.4273C12.1482 21.4142 12.6355 21.3954 12.7016 21.3857L12.8219 21.368L12.7016 21.3484C12.5731 21.3274 10.417 21.2778 9.88954 21.2837C9.71584 21.2856 9.14062 21.2946 8.61129 21.3038ZM8.92712 21.5398C8.62107 21.558 8.35713 21.5753 8.34058 21.5785C8.2585 21.5939 9.56732 21.6743 9.92673 21.676C10.3324 21.6779 11.4881 21.62 11.7542 21.5845C12.1361 21.5337 9.68535 21.4949 8.92712 21.5398ZM9.64894 21.7536C9.45868 21.7633 9.22862 21.7738 9.13762 21.777L8.97216 21.7828L9.0925 21.8102C9.24218 21.8443 10.7445 21.8445 10.9572 21.8106C11.2218 21.7682 10.2195 21.7247 9.64894 21.7536ZM9.81432 21.9777C9.80238 21.9937 9.89585 22.0016 10.0757 21.9997C10.3061 21.9974 10.3343 21.9932 10.2354 21.9762C10.0663 21.9472 9.83641 21.9479 9.81432 21.9777Z" fill="black"/>
</svg>
