<svg width="28" height="70" viewBox="0 0 28 70" fill="none" xmlns="http://www.w3.org/2000/svg">
<g clip-path="url(#clip0_1764_61)">
<rect width="28" height="70" fill="white"/>
<path d="M10.7981 -1C9.60876 -1 8.57799 -1.27916 7.70579 -1.83747C6.83359 -2.39578 6.15962 -3.13275 5.68388 -4.04839C5.22796 -4.98635 5 -6.00248 5 -7.09678C5 -8.12407 5.19823 -9.12903 5.59468 -10.1117C5.99113 -11.0943 6.53625 -11.9876 7.23005 -12.7916C7.94366 -13.6179 8.7663 -14.2878 9.69797 -14.8015C10.6296 -15.3375 11.6307 -15.6613 12.7011 -15.773C11.928 -16.4876 11.3532 -17.3139 10.9765 -18.2519C10.6197 -19.1898 10.4413 -20.1278 10.4413 -21.0658C10.4413 -22.2494 10.7089 -23.366 11.2441 -24.4156C11.7793 -25.4876 12.5029 -26.3474 13.4147 -26.995C14.3464 -27.665 15.4069 -28 16.5962 -28C17.6667 -28 18.4695 -27.6985 19.0047 -27.0955C19.5597 -26.4926 19.8372 -25.6104 19.8372 -24.4491C19.8372 -23.6228 19.7183 -22.8077 19.4804 -22.0037C19.2426 -21.2221 18.9452 -20.5744 18.5884 -20.0608C18.2514 -19.5695 17.9144 -19.3238 17.5775 -19.3238C17.3594 -19.3238 17.1513 -19.4243 16.9531 -19.6253C16.7548 -19.8486 16.5962 -20.1055 16.4773 -20.3958C17.1711 -21.0881 17.746 -21.8027 18.2019 -22.5397C18.6776 -23.299 18.9155 -24.1141 18.9155 -24.9851C18.9155 -25.6774 18.747 -26.2357 18.41 -26.66C18.0929 -27.1067 17.5874 -27.33 16.8936 -27.33C15.9619 -27.33 15.1789 -27.0062 14.5446 -26.3586C13.9103 -25.7332 13.4246 -24.8958 13.0876 -23.8462C12.7705 -22.8189 12.6119 -21.7022 12.6119 -20.4963C12.6119 -19.9603 12.6515 -19.3908 12.7308 -18.7878C12.8299 -18.1849 12.9984 -17.5931 13.2363 -17.0124C13.494 -16.4318 13.8607 -15.9069 14.3365 -15.438C13.0083 -15.1923 11.8487 -14.6228 10.8576 -13.7295C9.88628 -12.8362 9.12311 -11.7866 8.56808 -10.5806C8.03286 -9.37469 7.76526 -8.1799 7.76526 -6.99628C7.76526 -6.2593 7.88419 -5.51117 8.12207 -4.75186C8.37976 -4.01489 8.78612 -3.40074 9.34116 -2.90943C9.89619 -2.39578 10.6395 -2.13896 11.5712 -2.13896C12.6218 -2.13896 13.6328 -2.44045 14.6041 -3.04342C15.5952 -3.6464 16.4872 -4.45037 17.2801 -5.45533C18.0929 -6.4603 18.7569 -7.58809 19.2723 -8.83871C19.7877 -10.1117 20.1148 -11.4181 20.2535 -12.7581C19.8372 -12.7357 19.4507 -12.7022 19.0939 -12.6576C18.7569 -12.6129 18.3803 -12.5459 17.964 -12.4566C17.5477 -12.3896 17.0125 -12.2779 16.3584 -12.1216C16.398 -13.0596 16.7152 -13.6849 17.3099 -13.9975C17.9045 -14.3102 18.6182 -14.4665 19.4507 -14.4665C20.0454 -14.4665 20.6103 -14.4218 21.1455 -14.3325C21.6808 -14.2432 22.1862 -14.1538 22.662 -14.0645C23.1575 -13.9752 23.6035 -13.9194 24 -13.897C23.782 -13.3834 23.5639 -13.0707 23.3459 -12.9591C23.1476 -12.8697 22.9494 -12.8251 22.7512 -12.8251C22.4142 -12.8251 22.097 -12.8139 21.7997 -12.7916C21.5222 -12.7916 21.2645 -12.7916 21.0266 -12.7916C20.8878 -11.2506 20.5112 -9.77667 19.8967 -8.36973C19.302 -6.96278 18.529 -5.70099 17.5775 -4.58437C16.6458 -3.49007 15.5952 -2.61911 14.4257 -1.97146C13.276 -1.32382 12.0668 -1 10.7981 -1Z" stroke="black"/>
<path d="M29.5 2.5V4L30.5 3.5L29.5 2.5Z" stroke="black"/>
</g>
<defs>
<clipPath id="clip0_1764_61">
<rect width="28" height="70" fill="white"/>
</clipPath>
</defs>
</svg>
