<svg width="24" height="24" viewBox="0 0 24 24" fill="none" xmlns="http://www.w3.org/2000/svg">
<rect width="24" height="24" fill="white"/>
<path fill-rule="evenodd" clip-rule="evenodd" d="M8.7212 1.0298C8.25141 1.10639 7.49408 1.40391 6.95031 1.72543C5.05938 2.84338 4.94442 4.09215 6.45901 7.06247C6.85968 7.84833 6.95059 8.06624 7.08565 8.56456L7.11464 8.67139H7.2746C8.88856 8.67139 10.278 8.67139 11.7356 9.00611L11.4548 8.32528C11.4548 8.32528 11.2732 7.47677 10.9173 7.13268C10.5614 6.7886 9.96263 6.7105 9.95036 6.7105C9.93816 6.71057 9.56881 7.04426 9.1297 7.45215C8.23921 8.2792 8.30741 8.22553 8.30233 8.10338C8.30029 8.05369 8.28576 7.94834 8.27003 7.86918C8.21784 7.60661 8.16001 7.02843 8.15973 6.76662L8.15944 6.50855L7.96859 6.34431C7.20499 5.68698 6.70177 4.29848 6.97154 3.59326C7.22967 2.91854 8.01021 2.32833 9.17879 1.92436C9.56359 1.79127 9.73003 1.70851 9.78836 1.62131C10.065 1.20749 9.51182 0.900832 8.7212 1.0298ZM14.5759 1.02736C14.0503 1.12106 14.0449 1.68232 14.5685 1.81631C14.7971 1.87487 14.783 1.88176 14.9053 1.65123C15.0684 1.34386 15.2123 1.05091 15.2123 1.02588C15.2123 1.00026 14.7215 1.00142 14.5759 1.02736ZM15.4253 1.53108C15.2929 1.77956 15.1847 1.99168 15.1848 2.00243C15.185 2.01324 15.3287 2.08352 15.5043 2.15868C17.5678 3.04153 17.9429 4.26649 16.6894 6.0291L16.5037 6.29026L16.5894 6.41614C16.6389 6.4888 16.668 6.55901 16.6584 6.58224C16.6239 6.66507 15.6455 8.14495 15.5444 8.26723L15.4964 8.32528L14.7175 7.62476C14.2891 7.23945 13.9308 6.92919 13.9211 6.93517C13.9115 6.94122 13.8547 7.00912 13.7951 7.08603C12.691 8.50883 13.2507 8.10338 11.9311 9.34482C11.6382 9.36013 7.99977 9.37301 7.97896 9.36573C7.95816 9.35846 7.75779 9.3508 7.53372 9.34868L7.12628 9.34482L7.11034 9.52978C7.07366 9.95473 6.92041 10.0802 6.05961 10.3903C3.89525 11.17 2.05228 11.2787 1.37217 10.6668C1.21807 10.5283 1.22195 10.526 1.11982 10.817C0.769794 11.8153 1.21377 12.8624 2.0984 13.1253C2.25011 13.1703 2.34913 13.1789 2.74585 13.1812C3.27707 13.1843 3.26353 13.1805 3.6759 13.4383C4.29979 13.8282 5.13245 13.7234 5.7976 13.1714L5.99451 13.0079L5.81692 13.2468C5.09845 14.2128 4.0119 14.419 3.29681 13.7249C3.13037 13.5633 3.10702 13.5691 3.12522 13.7671C3.19067 14.4796 3.8829 15.0554 4.67543 15.0565C5.39961 15.0575 5.98993 14.6687 6.53779 13.8298L6.64774 13.6615L6.63096 13.9507C6.56438 15.0988 5.98083 15.7766 5.09838 15.7311C4.88772 15.7203 4.88652 15.722 4.98498 15.899C5.51549 16.8525 6.62257 17.089 7.40028 16.4148C8.22087 15.7034 8.93582 15.8385 9.85734 16.8794C10.2433 17.3154 10.5618 17.5589 11.0108 17.7616C11.19 17.8424 11.6858 17.9858 11.6858 17.9567C11.6858 17.9496 11.5818 17.7835 11.4548 17.5876C9.07363 13.9159 9.29365 11.1437 9.5236 10.7937C9.75355 10.4437 10.2199 10.2223 10.5491 10.1645C11.1029 10.0674 12.1205 10.5418 12.1205 10.5418C12.1205 10.5418 12.8275 9.93137 13.8149 10.1645C13.8149 10.1645 13.9559 10.117 14.4202 10.476C14.8845 10.8351 15.5844 12.5473 14.157 15.4088C14.1191 15.4848 14.0298 15.6658 13.9585 15.811C13.7513 16.2334 13.065 17.4623 12.7172 18.0332C12.3176 18.6892 12.3399 18.6294 12.5026 18.6121C14.467 18.4024 16.22 17.4037 17.3079 15.8745C17.4758 15.6385 17.7429 15.0556 17.7429 15.0556C17.7429 15.0556 18.3043 13.732 18.4482 13.7685C18.5266 14.2573 19.7177 14.7507 20.423 14.6219C21.1283 14.4932 22.2567 13.3824 22.2567 13.3824C22.2567 13.3824 19.735 13.6802 19.2946 13.1326C19.2946 13.1326 21.3069 13.1705 21.6029 13.1326C22.7464 12.9861 23.3152 11.8941 22.821 10.7937C22.7285 10.5878 22.7076 10.5781 22.6388 10.7092C22.4925 10.9877 22.0179 11.2805 21.5338 11.3909C20.3351 11.6644 18.1911 11.0648 17.6821 10.3137C17.4059 9.90601 17.4234 9.76359 17.9297 8.29432C18.905 5.46411 19.1265 3.59661 18.5784 2.82452C18.2168 2.31514 17.584 1.84784 16.7412 1.46794C16.451 1.33717 15.7482 1.07936 15.6818 1.07936C15.6731 1.07936 15.5576 1.2826 15.4253 1.53108ZM15.1153 3.26691C15.0546 3.27791 14.8933 3.31646 14.7572 3.3525C14.4615 3.43076 14.176 3.45953 14.0601 3.42265C13.8579 3.35829 13.9681 3.78974 14.1952 3.95198L14.2763 4.00984L14.2116 4.29809C14.176 4.45661 14.1148 4.64961 14.0757 4.7271L14.0045 4.86784L14.085 5.17959C14.245 5.7996 14.2055 5.75526 14.5974 5.75519C14.9556 5.75507 15.2788 5.70075 15.7368 5.56373L16.1142 5.45079L16.2936 5.10654C16.5389 4.63584 16.5744 4.52991 16.5739 4.2692C16.5727 3.62479 15.8563 3.13247 15.1153 3.26691ZM8.79998 3.75608C8.22638 3.90378 7.86548 4.40113 7.95668 4.91817L7.98376 5.07147H7.89186C7.66144 5.07147 7.53407 5.29981 7.65023 5.50465C7.69163 5.57783 7.81654 5.65467 7.89383 5.65467C7.92346 5.65467 7.93354 5.68479 7.93213 5.76903C7.92987 5.90701 7.99504 5.9993 8.14188 6.06584C8.44268 6.20228 8.81324 5.94254 8.78602 5.61432L8.77544 5.48599L8.94745 5.5571C9.44827 5.76433 10.1833 5.82084 10.278 5.65937C10.2922 5.63517 10.3243 5.48001 10.3494 5.31454C10.3745 5.14902 10.4053 4.98382 10.418 4.94745C10.4367 4.89333 10.4242 4.85974 10.3496 4.76391C10.2871 4.68378 10.2436 4.58519 10.2123 4.453C10.0839 3.91112 9.43727 3.59197 8.79998 3.75608ZM15.6381 6.46318L15.3363 6.61603L15.0298 6.55013C14.7404 6.48796 14.5786 6.46878 14.5786 6.49665C14.5786 6.54665 14.7266 7.12972 14.7435 7.1462C14.7666 7.16885 14.9136 7.1072 15.1634 6.97012L15.3213 6.8835L15.6583 6.97186C15.8437 7.02045 16.0001 7.05591 16.0058 7.0507C16.0166 7.04072 15.9598 6.32842 15.9472 6.3169C15.9431 6.3133 15.8041 6.37913 15.6381 6.46318ZM17.0856 13.2886C16.7557 14.7987 15.9915 15.9891 14.7363 16.948L14.5967 17.0547L14.7216 16.9042C15.5465 15.9104 16.5848 14.2552 17.0195 13.2414C17.1499 12.9372 17.1607 12.9449 17.0856 13.2886ZM8.11811 16.3309C7.89828 16.3872 7.89891 16.3903 8.20811 16.755C9.0986 17.8059 10.3763 18.4571 11.8322 18.6021C12.1906 18.6379 12.1769 18.6472 12.0414 18.4591L11.9311 18.306L11.7356 18.2885C10.9509 18.2179 10.2272 17.8016 9.5236 17.0163C8.99203 16.423 8.56717 16.2158 8.11811 16.3309Z" fill="black"/>
<path d="M6.1059 19.7999C6.07656 19.8544 6.03134 19.8816 5.97023 19.8816C5.93356 19.8816 5.89201 19.868 5.84556 19.8408C5.79912 19.8135 5.74167 19.7838 5.67323 19.7517C5.60723 19.717 5.52779 19.6861 5.4349 19.6589C5.34201 19.6292 5.23201 19.6143 5.1049 19.6143C4.9949 19.6143 4.8959 19.6292 4.8079 19.6589C4.7199 19.6861 4.64412 19.7244 4.58056 19.7739C4.51945 19.8234 4.47179 19.8816 4.43756 19.9484C4.40579 20.0128 4.3899 20.0833 4.3899 20.16C4.3899 20.2565 4.41679 20.337 4.47056 20.4013C4.52679 20.4657 4.60012 20.5214 4.69056 20.5684C4.78101 20.6154 4.88367 20.6575 4.99856 20.6946C5.11345 20.7293 5.23079 20.7676 5.35056 20.8097C5.47279 20.8493 5.59134 20.8938 5.70623 20.9433C5.82112 20.9928 5.92379 21.0547 6.01423 21.129C6.10467 21.2032 6.17679 21.2948 6.23056 21.4037C6.28679 21.5101 6.3149 21.6388 6.3149 21.7898C6.3149 21.963 6.28434 22.1239 6.22323 22.2724C6.16212 22.4184 6.07167 22.5459 5.9519 22.6547C5.83212 22.7612 5.68545 22.8453 5.5119 22.9072C5.33834 22.9691 5.1379 23 4.91056 23C4.65145 23 4.41679 22.9579 4.20656 22.8738C3.99634 22.7872 3.8179 22.677 3.67123 22.5434L3.82523 22.2909C3.84479 22.2588 3.86801 22.234 3.8949 22.2167C3.92179 22.1994 3.95601 22.1907 3.99756 22.1907C4.04156 22.1907 4.08801 22.208 4.1369 22.2427C4.18579 22.2773 4.24445 22.3157 4.3129 22.3578C4.38379 22.3998 4.46934 22.4382 4.56956 22.4728C4.66979 22.5075 4.79445 22.5248 4.94356 22.5248C5.07067 22.5248 5.1819 22.5087 5.27723 22.4766C5.37256 22.4419 5.45201 22.3961 5.51556 22.3392C5.57912 22.2823 5.62556 22.2167 5.6549 22.1424C5.68667 22.0682 5.70256 21.989 5.70256 21.9048C5.70256 21.8009 5.67445 21.7155 5.61823 21.6487C5.56445 21.5794 5.49234 21.5212 5.4019 21.4742C5.31145 21.4247 5.20756 21.3826 5.09023 21.348C4.97534 21.3109 4.85679 21.2725 4.73456 21.2329C4.61479 21.1933 4.49623 21.1488 4.3789 21.0993C4.26401 21.0473 4.16134 20.9829 4.0709 20.9062C3.98045 20.8295 3.90712 20.7354 3.8509 20.6241C3.79712 20.5102 3.77023 20.3729 3.77023 20.212C3.77023 20.0685 3.79956 19.9311 3.85823 19.7999C3.9169 19.6663 4.00245 19.55 4.1149 19.451C4.22734 19.3495 4.36545 19.2691 4.52923 19.2097C4.69301 19.1503 4.88001 19.1206 5.09023 19.1206C5.33467 19.1206 5.55345 19.1602 5.74656 19.2394C5.94212 19.3161 6.11079 19.4225 6.25256 19.5586L6.1059 19.7999Z" fill="black"/>
<path d="M7.77142 19.6811C7.93031 19.5104 8.10631 19.3742 8.29942 19.2728C8.49253 19.1713 8.71498 19.1206 8.96676 19.1206C9.16964 19.1206 9.34809 19.1552 9.50209 19.2245C9.65853 19.2913 9.78809 19.3878 9.89076 19.5141C9.99587 19.6378 10.0753 19.7875 10.1291 19.9633C10.1829 20.139 10.2098 20.3333 10.2098 20.5461V22.9406H9.55342V20.5461C9.55342 20.2615 9.48864 20.0412 9.35909 19.8853C9.23198 19.7269 9.03764 19.6477 8.77609 19.6477C8.58298 19.6477 8.40209 19.6947 8.23342 19.7888C8.0672 19.8828 7.9132 20.0103 7.77142 20.1712V22.9406H7.11509V17.4723H7.77142V19.6811Z" fill="black"/>
<path d="M13.2173 21.2478C12.9166 21.2577 12.6599 21.2824 12.4473 21.322C12.2371 21.3591 12.0647 21.4086 11.9303 21.4705C11.7983 21.5324 11.7017 21.6054 11.6406 21.6895C11.5819 21.7737 11.5526 21.8677 11.5526 21.9717C11.5526 22.0707 11.5685 22.1561 11.6003 22.2278C11.6321 22.2996 11.6748 22.359 11.7286 22.406C11.7848 22.4506 11.8496 22.484 11.9229 22.5063C11.9987 22.5261 12.0794 22.536 12.1649 22.536C12.2798 22.536 12.3849 22.5248 12.4803 22.5025C12.5756 22.4778 12.6648 22.4431 12.7479 22.3986C12.8335 22.354 12.9142 22.3008 12.9899 22.239C13.0682 22.1771 13.1439 22.1066 13.2173 22.0274V21.2478ZM11.1089 19.7108C11.3143 19.5104 11.5355 19.3606 11.7726 19.2616C12.0097 19.1626 12.2725 19.1131 12.5609 19.1131C12.7687 19.1131 12.9533 19.1478 13.1146 19.2171C13.2759 19.2864 13.4116 19.3829 13.5216 19.5066C13.6316 19.6304 13.7147 19.7801 13.7709 19.9558C13.8272 20.1316 13.8553 20.3246 13.8553 20.535V22.9406H13.5656C13.5021 22.9406 13.4532 22.9307 13.4189 22.9109C13.3847 22.8886 13.3578 22.8466 13.3383 22.7847L13.2649 22.4283C13.1672 22.5199 13.0718 22.6015 12.9789 22.6733C12.8861 22.7426 12.7883 22.802 12.6856 22.8515C12.5829 22.8985 12.4729 22.9344 12.3556 22.9592C12.2407 22.9864 12.1124 23 11.9706 23C11.8264 23 11.6907 22.9802 11.5636 22.9406C11.4365 22.8985 11.3253 22.8367 11.2299 22.755C11.1371 22.6733 11.0625 22.5706 11.0063 22.4469C10.9525 22.3206 10.9256 22.1721 10.9256 22.0014C10.9256 21.8529 10.9659 21.7106 11.0466 21.5744C11.1273 21.4358 11.2581 21.3133 11.4389 21.2069C11.6198 21.1005 11.8557 21.0139 12.1466 20.9471C12.4375 20.8778 12.7944 20.8382 13.2173 20.8283V20.535C13.2173 20.2429 13.1549 20.0227 13.0303 19.8742C12.9056 19.7232 12.7235 19.6477 12.4839 19.6477C12.3226 19.6477 12.1869 19.6688 12.0769 19.7108C11.9694 19.7504 11.8753 19.7962 11.7946 19.8482C11.7164 19.8977 11.6479 19.9435 11.5893 19.9855C11.5331 20.0251 11.4768 20.0449 11.4206 20.0449C11.3766 20.0449 11.3387 20.0338 11.3069 20.0115C11.2752 19.9868 11.2483 19.9571 11.2263 19.9224L11.1089 19.7108Z" fill="black"/>
<path d="M15.4691 19.9336C15.5865 19.6762 15.7307 19.4757 15.9018 19.3322C16.0729 19.1861 16.2819 19.1131 16.5288 19.1131C16.607 19.1131 16.6816 19.1218 16.7525 19.1391C16.8258 19.1564 16.8906 19.1837 16.9468 19.2208L16.8991 19.7145C16.8845 19.7764 16.8478 19.8073 16.7891 19.8073C16.7549 19.8073 16.7048 19.7999 16.6388 19.7851C16.5728 19.7702 16.4982 19.7628 16.4151 19.7628C16.2978 19.7628 16.1927 19.7801 16.0998 19.8148C16.0094 19.8494 15.9275 19.9014 15.8541 19.9707C15.7832 20.0375 15.7185 20.1217 15.6598 20.2231C15.6036 20.3221 15.5522 20.436 15.5058 20.5647V22.9406H14.8495V19.18H15.2235C15.2944 19.18 15.3432 19.1936 15.3701 19.2208C15.397 19.248 15.4154 19.295 15.4251 19.3619L15.4691 19.9336Z" fill="black"/>
<path d="M19.8563 20.6501C19.8563 20.4966 19.8343 20.3568 19.7903 20.2306C19.7487 20.1019 19.6864 19.9917 19.6033 19.9002C19.5226 19.8061 19.4236 19.7343 19.3063 19.6848C19.189 19.6329 19.0557 19.6069 18.9066 19.6069C18.5937 19.6069 18.3456 19.6997 18.1623 19.8853C17.9814 20.0685 17.869 20.3234 17.825 20.6501H19.8563ZM20.3843 22.4134C20.3036 22.5124 20.2071 22.5991 20.0946 22.6733C19.9822 22.7451 19.8612 22.8045 19.7316 22.8515C19.6045 22.8985 19.4725 22.9332 19.3356 22.9555C19.1987 22.9802 19.0631 22.9926 18.9286 22.9926C18.672 22.9926 18.4349 22.9493 18.2173 22.8626C18.0022 22.7735 17.8152 22.6448 17.6563 22.4766C17.4999 22.3058 17.3776 22.0954 17.2896 21.8454C17.2016 21.5955 17.1576 21.3084 17.1576 20.9842C17.1576 20.7218 17.1967 20.4768 17.275 20.2491C17.3556 20.0214 17.4705 19.8247 17.6196 19.6589C17.7687 19.4906 17.9509 19.3594 18.166 19.2653C18.3811 19.1688 18.6231 19.1206 18.892 19.1206C19.1144 19.1206 19.3197 19.1589 19.508 19.2356C19.6986 19.3099 19.8624 19.4188 19.9993 19.5623C20.1386 19.7034 20.2474 19.8791 20.3256 20.0895C20.4039 20.2974 20.443 20.535 20.443 20.8023C20.443 20.9062 20.432 20.9755 20.41 21.0102C20.388 21.0448 20.3464 21.0621 20.2853 21.0621H17.803C17.8103 21.2997 17.8421 21.5064 17.8983 21.6821C17.957 21.8578 18.0376 22.0051 18.1403 22.1239C18.243 22.2402 18.3652 22.3281 18.507 22.3875C18.6487 22.4444 18.8076 22.4728 18.9836 22.4728C19.1474 22.4728 19.288 22.4543 19.4053 22.4172C19.5251 22.3776 19.6277 22.3355 19.7133 22.2909C19.7989 22.2464 19.8697 22.2055 19.926 22.1684C19.9846 22.1288 20.0347 22.109 20.0763 22.109C20.1301 22.109 20.1716 22.1301 20.201 22.1721L20.3843 22.4134Z" fill="black"/>
</svg>
