<svg width="24" height="24" viewBox="0 0 24 24" fill="none" xmlns="http://www.w3.org/2000/svg">
<path fillRule="evenodd" clipRule="evenodd" d="M11.7784 1.03125C11.0717 1.13329 10.7287 1.31259 9.33817 2.30726C8.91797 2.60779 8.58673 2.71899 8.24244 2.67507C7.96908 2.6402 7.71155 2.48685 7.67303 2.33585C7.61209 2.09754 7.60976 2.09326 7.56033 2.13277C7.42315 2.24232 7.37079 2.7538 7.46512 3.06344C7.58434 3.4548 7.86815 3.77571 8.22987 3.928L8.43691 4.01519L8.45307 4.23306C8.47662 4.54974 8.54009 4.96682 8.58447 5.09581C8.63523 5.2434 8.63343 5.26507 8.57069 5.26507C8.35508 5.26507 8.14897 5.46122 8.10466 5.70862C8.00766 6.25004 8.54189 6.85969 9.18189 6.93801C9.28175 6.95022 9.36757 6.97124 9.3727 6.98474C9.4176 7.10375 9.66116 7.49299 9.78843 7.64928C9.97059 7.87308 9.97105 7.87884 9.802 7.80339C9.45153 7.64711 8.71107 7.46898 8.15576 7.40751C7.89024 7.3781 6.91773 7.35896 6.89092 7.38262C6.8852 7.38767 7.01246 7.4779 7.1738 7.58311C7.47989 7.78279 8.03008 8.25006 8.17485 8.43323L8.25894 8.53967L8.03188 8.68475C7.41124 9.08127 6.90562 9.62769 6.54876 10.2875C6.47032 10.4325 6.40399 10.554 6.4014 10.5572C6.39881 10.5605 6.31006 10.5129 6.20421 10.4515C6.09836 10.39 5.90064 10.2849 5.76485 10.218C5.62907 10.1509 5.37447 10.0141 5.1991 9.91396L4.88029 9.7319L4.89633 9.62493C4.91562 9.49653 4.62449 9.22605 4.34454 9.11233C4.30369 9.09578 4.28386 9.06078 4.27116 8.98335C4.24727 8.83692 4.15586 8.66925 4.02573 8.5331C3.79235 8.28875 3.75596 8.14109 3.87538 7.9231C3.96446 7.76059 3.96353 7.73623 3.86573 7.66366C3.57327 7.44644 3.13917 7.72501 3.09467 8.15847C3.07744 8.32591 3.07937 8.32497 2.84292 8.28182C2.18742 8.16234 1.50517 8.33343 1.50237 8.61793C1.50197 8.65674 1.46705 8.68886 1.37038 8.73946C1.09602 8.88307 0.962428 9.06307 1.04639 9.17615C1.08504 9.22817 1.08497 9.23838 1.04605 9.30484C0.944864 9.47751 1.0102 9.61477 1.24431 9.72121C1.41535 9.79895 1.4737 9.79284 1.67295 9.67606C1.94865 9.51455 2.17704 9.54297 2.5319 9.78298C2.6287 9.84844 2.76948 9.93269 2.84472 9.97014C2.96999 10.0326 2.97924 10.0427 2.95436 10.0907C2.89269 10.2103 3.0789 10.4184 3.47481 10.6723C3.62663 10.7697 3.89194 10.9428 4.06439 11.057C4.94083 11.6373 6.21033 12.1367 6.63159 12.067C6.77729 12.0429 7.10115 11.8234 8.49904 10.8011C8.59491 10.7309 8.68506 10.6799 8.69923 10.6876C8.77574 10.7293 9.13911 11.9305 9.18409 12.2903C9.20272 12.4395 9.11995 12.596 8.71519 13.1771C6.79864 15.9288 4.43209 17.5481 3.10119 17.0185C2.67587 16.8493 2.56157 16.3903 2.86554 16.0725C2.9503 15.9839 2.93819 15.9795 2.80826 16.0521C2.29872 16.3365 2.15402 17.0163 2.48134 17.5875C3.17423 18.7965 5.14687 19.3736 6.80203 18.8516C7.10121 18.7572 7.08551 18.7364 6.94753 19.0451C6.67683 19.6508 6.44584 20.3715 6.3692 20.8494L6.32489 21.1256L6.15578 21.2393C6.0627 21.3018 5.89871 21.4209 5.79127 21.504L5.59594 21.6549L5.38804 21.6695C4.34613 21.7426 3.47561 22.5575 4.13524 22.8423C4.74763 23.1067 5.81049 23.0299 6.42116 22.6771L6.62267 22.5607L6.69852 22.6276C6.82033 22.7351 7.26447 22.6951 7.44517 22.5604C7.5258 22.5003 7.57217 22.1538 7.54509 21.814C7.51376 21.4214 7.51808 21.3901 7.63178 21.1899C7.68826 21.0903 7.78393 20.9058 7.84434 20.7796C7.99097 20.4735 8.19973 20.1084 8.392 19.8218C8.61055 19.496 8.971 19.0024 8.99049 19.0023C9.02355 19.0022 9.56589 19.3023 9.72204 19.4071C9.95482 19.5635 10.2481 19.8172 10.6062 20.1719C11.3401 20.8991 11.7647 21.2659 11.9655 21.3467C12.0857 21.395 12.5266 21.0425 13.267 20.3061C14.0097 19.5674 14.5118 19.2181 15.0892 19.0383L15.1907 19.0067L15.7598 20.0295C16.0728 20.592 16.3785 21.1294 16.4393 21.2237C16.5665 21.4212 16.5718 21.4693 16.4978 21.7543C16.44 21.9766 16.4306 22.3615 16.4797 22.4871C16.558 22.6868 17.0754 22.7779 17.279 22.6278L17.3668 22.5631L17.4976 22.6493C18.1159 23.0568 19.7065 23.0956 20.0721 22.7122C20.3746 22.3949 19.425 21.6855 18.6979 21.6855H18.4659L18.203 21.521C17.6591 21.1807 17.6683 21.191 17.5858 20.8255C17.4576 20.2568 17.2139 19.4698 17.0263 19.0185C16.9243 18.7729 16.925 18.7533 17.0346 18.8031C17.6415 19.0791 18.7808 19.1361 19.6163 18.9322C21.2921 18.5234 22.275 16.7922 21.2424 16.0681C21.1099 15.9751 21.1075 15.9784 21.2112 16.1115C21.5968 16.6063 21.1061 17.1575 20.318 17.1149C18.6788 17.0261 16.357 15.1042 15.0269 12.7349C14.805 12.3397 14.79 12.2868 14.8305 12.0419C14.8624 11.8483 15.1331 10.7962 15.1562 10.7758C15.2084 10.7297 16.2617 11.3572 16.9573 11.8487L17.3126 12.0997L17.4445 12.0856C18.4204 11.981 20.1454 11.1138 20.8797 10.3585L21.0449 10.1886L20.99 10.1102C20.9243 10.0165 20.9301 10.0109 21.1625 9.9456C21.2626 9.91754 21.4497 9.83505 21.5783 9.76243C21.9755 9.53821 22.053 9.53076 22.3303 9.69021C22.5251 9.80223 22.6107 9.80752 22.7535 9.71622C22.9482 9.59176 23.0148 9.46888 22.9657 9.32457C22.9415 9.25329 22.9412 9.2247 22.9643 9.20427C23.0655 9.11503 22.9451 8.93109 22.6825 8.77369C22.5735 8.70835 22.523 8.66085 22.5016 8.60349C22.3873 8.29802 21.7083 8.17291 20.9657 8.32045C20.9456 8.32444 20.9228 8.26873 20.9025 8.16575C20.8175 7.73505 20.4346 7.45113 20.1785 7.62885C20.0918 7.68914 20.091 7.762 20.1753 7.92187C20.2955 8.14984 20.2552 8.2817 19.9918 8.52159C19.8581 8.64353 19.7736 8.80058 19.7536 8.96479C19.7398 9.07875 19.7335 9.08667 19.5977 9.16376C19.3371 9.31171 19.141 9.5152 19.1606 9.61747L19.1771 9.70413L18.8835 9.89C18.4858 10.1418 18.1955 10.3057 17.9028 10.4439L17.6578 10.5596L17.5001 10.3028C17.0877 9.63133 16.5467 9.06225 15.935 8.65651L15.6839 8.48995L16.0488 8.17591C16.44 7.83915 16.7963 7.60994 17.1929 7.43998C17.3109 7.38943 17.4073 7.34223 17.4073 7.33506C17.4073 7.3279 17.1647 7.32837 16.8681 7.33612C16.0347 7.3579 15.3258 7.46927 14.5827 7.69519C14.1336 7.83175 14.1584 7.83651 14.3176 7.64429C14.4824 7.44526 14.6101 7.23678 14.667 7.0738L14.7121 6.9447L14.8054 6.96748C15.3029 7.08866 15.8719 6.49187 15.8737 5.847C15.8744 5.58944 15.7146 5.35254 15.5182 5.32002C15.4166 5.30323 15.4189 5.31697 15.4854 5.11588C15.9746 3.63757 15.3778 2.27726 14.1374 2.0433C14.0668 2.02997 14.0419 2.00842 14.0018 1.92582C13.673 1.24901 12.7744 0.887473 11.7784 1.03125ZM12.7685 1.26322C14.0977 1.57585 14.2128 2.80623 12.9815 3.53958C12.8072 3.64344 12.8047 3.63316 12.9679 3.48198C13.9433 2.57826 13.8023 1.67976 12.6467 1.4353C12.3077 1.36355 12.2715 1.37218 12.4586 1.48003C13.3795 2.01106 13.3466 3.56177 12.4077 3.87974C12.3768 3.8902 12.3777 3.87558 12.4129 3.79321C12.6428 3.25531 12.2403 2.68464 11.5957 2.63462C11.3919 2.61883 11.3916 2.61865 11.5081 2.59957C12.1644 2.49208 12.6842 3.00579 12.5536 3.63258L12.5281 3.75458L12.6039 3.69046C12.8974 3.44236 13.0595 2.88021 12.9527 2.48092C12.7217 1.61683 11.8064 1.31594 10.9295 1.81568C10.8261 1.87468 10.5427 2.05938 10.2997 2.22618C9.72483 2.62077 9.46836 2.77394 9.18223 2.89348C8.54302 3.16049 7.8311 3.10307 7.67429 2.77177C7.61229 2.64079 7.62413 2.61754 7.72046 2.68124C8.26041 3.03849 8.85823 2.93199 9.67041 2.33385C10.8182 1.4886 11.1928 1.30766 11.9759 1.22018C12.1463 1.20116 12.6122 1.22646 12.7685 1.26322ZM14.3121 2.28454C15.2981 2.6793 15.7025 3.78645 15.3088 5.01279C15.2299 5.25861 15.1973 5.23759 15.2639 4.98373C15.3371 4.70427 15.3482 3.87693 15.28 3.77953C15.2657 3.75915 15.2358 3.7588 15.1583 3.778C15.0224 3.8117 14.6006 3.81552 14.5396 3.78358C14.4968 3.76127 14.508 3.75017 14.6391 3.68489C14.892 3.55895 15.1724 3.292 15.1724 3.17728C15.1724 2.9654 14.6809 2.49026 14.2735 2.30825C14.1024 2.23181 14.1332 2.21291 14.3121 2.28454ZM7.92211 3.33045C8.42952 3.89354 9.51533 4.04079 10.6895 3.70579C10.9663 3.62682 11.2291 3.56635 11.2429 3.5785C11.2541 3.58837 10.7944 3.71659 10.3871 3.8171C9.20611 4.1086 8.19661 3.90446 7.82272 3.29852C7.73882 3.16248 7.7838 3.17699 7.92211 3.33045ZM13.9163 3.62759C14.7194 4.03574 14.9177 4.59783 14.7207 5.90718C14.5068 7.32755 14.1646 7.76171 12.7945 8.35069C12.012 8.6871 12.0875 8.68827 11.2301 8.32597C10.419 7.98328 10.0128 7.67529 9.74399 7.19927C9.3709 6.5386 9.22321 5.24698 9.41747 4.34303L9.46031 4.14341L9.58113 4.12973C10.1779 4.06198 10.7874 3.92202 11.3829 3.716L11.5044 3.67397L11.6427 3.75704C11.7188 3.80272 11.8847 3.9027 12.0115 3.9792C12.1382 4.05576 12.2596 4.11834 12.2812 4.11834C12.369 4.11834 12.8344 3.85632 13.2077 3.59665L13.4391 3.43578L13.6149 3.49977C13.7116 3.535 13.8472 3.59248 13.9163 3.62759ZM8.7909 4.31901C8.81718 4.71231 8.8555 5.00991 8.90593 5.21311C8.96421 5.44795 8.91604 5.43233 8.83581 5.19045C8.67089 4.69311 8.61035 4.07249 8.7267 4.07249C8.76902 4.07249 8.77627 4.10038 8.7909 4.31901ZM13.373 4.33639C13.0634 4.40508 12.8654 4.53642 12.7515 4.74883C12.6328 4.97022 12.6393 4.97574 12.9022 4.87717C13.4103 4.68671 13.7366 4.69053 14.1004 4.89108L14.2369 4.96635V4.90095C14.2369 4.45158 13.8864 4.22255 13.373 4.33639ZM10.1877 4.37391C9.96786 4.44847 9.77845 4.66258 9.70787 4.91639L9.69323 4.96911L9.80154 4.9138C10.2334 4.69352 10.7299 4.69282 11.2258 4.91181L11.3463 4.965L11.3263 4.89144C11.245 4.59143 11.0002 4.40309 10.6208 4.34878C10.3972 4.31672 10.348 4.3196 10.1877 4.37391ZM13.3533 5.04003C12.9098 5.18493 12.9027 6.17161 13.344 6.33429C13.7726 6.49234 14.1771 6.02489 14.0562 5.51106C13.9822 5.19661 13.619 4.95326 13.3533 5.04003ZM10.3425 5.0988C9.96054 5.31655 9.95356 6.08589 10.3314 6.31057C10.7653 6.5686 11.196 6.08542 11.0691 5.48294C10.9876 5.09575 10.6555 4.9202 10.3425 5.0988ZM13.7956 5.27129C13.9145 5.44384 13.8803 5.59625 13.7392 5.52368C13.5518 5.4274 13.4862 5.28532 13.5877 5.19573C13.6526 5.13843 13.7212 5.16338 13.7956 5.27129ZM10.6339 5.22368C10.6733 5.27916 10.6263 5.38213 10.5427 5.42352C10.3946 5.49685 10.2742 5.33481 10.393 5.22221C10.457 5.16156 10.5904 5.16238 10.6339 5.22368ZM11.9703 5.41413C11.9608 5.45194 11.9455 5.58609 11.9364 5.71226C11.9016 6.19321 11.8034 6.3839 11.5455 6.47085C11.4089 6.51682 11.41 6.5123 11.505 6.64446C11.6583 6.85781 11.8996 6.90554 12.1336 6.76892C12.2644 6.69254 12.2582 6.68338 12.0966 6.71379C11.9539 6.74062 11.814 6.70587 11.6784 6.60982L11.6017 6.55551L11.7202 6.50931C11.9501 6.41954 12.0284 6.25832 12.0241 5.88428C12.0203 5.56772 11.9927 5.32577 11.9703 5.41413ZM8.7589 5.52321C8.84898 5.5713 8.9535 5.67469 9.01956 5.78095C9.04351 5.81952 9.03407 5.81741 8.95916 5.76715C8.68645 5.58421 8.49146 5.58985 8.39985 5.7833C8.35168 5.88504 8.35541 5.90624 8.41103 5.84747C8.56165 5.68848 8.83767 5.73927 9.0652 5.96788L9.15195 6.05513L8.99914 6.08213C8.58673 6.15505 8.70003 6.54676 9.16366 6.6508C9.32998 6.68808 9.36405 6.78448 9.20338 6.76299C8.58447 6.68045 8.06175 5.85557 8.43265 5.54687C8.54049 5.45705 8.62385 5.45106 8.7589 5.52321ZM15.5545 5.54464C15.9464 5.86949 15.3744 6.86544 14.8346 6.79822C14.7048 6.78207 14.7297 6.66401 14.8628 6.66401C15.0535 6.66401 15.2301 6.45353 15.1864 6.27822C15.1653 6.19339 15.0337 6.06775 14.9659 6.06775C14.8937 6.06775 14.8986 6.04374 14.9914 5.94058C15.179 5.73222 15.4254 5.67017 15.5515 5.7995C15.61 5.85962 15.6142 5.86062 15.6142 5.81494C15.6142 5.62384 15.2913 5.58075 15.049 5.7395C14.9524 5.80273 14.9435 5.78888 15.0144 5.68625C15.1502 5.48957 15.4069 5.42229 15.5545 5.54464ZM13.9179 5.79651C13.8926 6.12863 13.6166 6.33693 13.3582 6.21904C13.2186 6.15529 13.1147 5.90201 13.2145 5.86825C13.257 5.85381 13.2711 5.86549 13.4267 6.04421C13.6189 6.26496 13.8923 6.04086 13.8573 5.69112C13.8441 5.55891 13.8457 5.5541 13.8865 5.5976C13.9202 5.63347 13.927 5.6768 13.9179 5.79651ZM10.8984 5.84794C10.979 5.95643 10.8516 6.18722 10.6757 6.25151C10.5153 6.3101 10.3058 6.20372 10.27 6.04544L10.2525 5.96806L10.3457 6.03082C10.5101 6.14155 10.6194 6.11337 10.7136 5.93583C10.7961 5.78054 10.8347 5.76216 10.8984 5.84794ZM15.0425 6.30858C15.0882 6.43075 14.9669 6.5952 14.831 6.5952C14.7668 6.5952 14.7914 6.36811 14.8771 6.17114C14.8995 6.11959 15.0045 6.20683 15.0425 6.30858ZM9.17158 6.22216C9.21329 6.31903 9.26904 6.57224 9.24869 6.57224C9.08755 6.57224 8.88338 6.43046 8.88338 6.31856C8.88338 6.18159 9.11995 6.10245 9.17158 6.22216ZM13.4572 6.88288C12.507 7.26614 11.8666 7.28962 10.8779 6.97746C10.7386 6.93349 10.6246 6.90026 10.6246 6.90372C10.6246 6.90718 10.6728 6.93953 10.7317 6.97558C10.7907 7.01163 10.906 7.11878 10.9881 7.21377C11.6694 8.00213 12.6654 7.976 13.2991 7.15318C13.4063 7.01398 13.4933 6.94018 13.6918 6.82C13.7969 6.75636 13.7194 6.77708 13.4572 6.88288ZM13.2262 7.11696C12.9564 7.55029 12.097 7.77762 11.5804 7.55235C11.3259 7.44133 10.8788 7.06253 11.0858 7.13328C11.694 7.34117 12.3689 7.3424 13.0284 7.13692C13.2509 7.06758 13.2573 7.06693 13.2262 7.11696ZM8.10373 7.68268C8.58952 7.76529 8.82357 7.82095 9.32992 7.97453L9.78943 8.11391L9.51147 8.40376C9.23565 8.69138 9.14324 8.80023 9.14324 8.83751C9.14324 8.8482 9.32579 9.00031 9.54893 9.17562L9.95455 9.4943L9.88024 9.5472C9.83939 9.57632 9.68611 9.66444 9.53962 9.74311C9.22939 9.90979 9.23378 9.89658 9.40836 10.1363C9.48267 10.2384 9.67527 10.549 9.83633 10.8264C10.1622 11.3878 10.2003 11.4226 9.98788 10.9652C9.90931 10.7958 9.81504 10.5819 9.77845 10.4896C9.7418 10.3974 9.66575 10.2362 9.60947 10.1314C9.48047 9.89135 9.47083 9.9193 9.72151 9.80482C9.89049 9.72761 10.1872 9.56786 10.2586 9.51561C10.2646 9.51127 10.2002 9.4525 10.1157 9.38504C9.82768 9.15542 9.49424 8.90004 9.42266 8.85407L9.35121 8.80827L9.59716 8.5476C9.89661 8.23027 10.1032 8.03541 10.1306 8.04463C10.2239 8.07592 10.3425 8.26133 10.3323 8.35985C10.2867 8.80088 10.4213 10.095 10.6606 11.5145C10.6818 11.6406 10.7055 11.8315 10.7131 11.9387C10.7208 12.046 10.7345 12.1812 10.7437 12.2392L10.7604 12.3448L10.6535 12.3599C10.5947 12.3682 10.5466 12.3814 10.5466 12.3893C10.5466 12.3972 10.6041 12.5957 10.6743 12.8305C10.7768 13.1731 10.8081 13.3231 10.8328 13.59C10.8759 14.0564 10.8571 14.1193 10.7845 13.7521C10.5613 12.6241 9.82915 11.0683 9.01138 9.98406L8.86029 9.7838L9.06667 9.69203C9.27789 9.59798 9.45013 9.50804 9.55093 9.43911L9.60767 9.40025L9.48493 9.31764C9.2594 9.16587 9.04098 8.95927 8.89502 8.75954C8.54082 8.27507 8.16653 7.89745 7.86356 7.71885C7.68101 7.61129 7.68247 7.61106 8.10373 7.68268ZM16.3418 7.6356C16.3418 7.64024 16.2949 7.67147 16.2376 7.70494C15.9323 7.88324 14.6141 9.23275 14.5035 9.48021C14.4873 9.51643 14.5213 9.53997 14.828 9.70542L15.0683 9.83505L15.0196 9.90644C14.0938 11.2651 13.206 13.2254 13.1966 13.9322C13.1959 13.9789 13.1908 13.9838 13.172 13.9554C13.0924 13.8354 13.2914 12.8054 13.4764 12.3798C13.4891 12.3507 13.4722 12.3478 13.3695 12.3613L13.2474 12.3775L13.2649 12.1294C13.2745 11.993 13.2924 11.864 13.3048 11.8428C13.3172 11.8215 13.3273 11.7593 13.3273 11.7046C13.3273 11.6498 13.3508 11.4573 13.3796 11.2768C13.4553 10.8029 13.5522 9.84744 13.5998 9.1064C13.6591 8.18389 13.6482 8.24313 13.7751 8.15313L13.8821 8.07722L14.0713 8.25423C14.1754 8.35157 14.3272 8.5196 14.4087 8.62768L14.5569 8.82418L14.4423 8.91078C13.9431 9.28811 13.7322 9.45397 13.7247 9.4751C13.7174 9.49524 14.4233 9.9257 14.501 9.9486C14.5137 9.95229 14.4994 10.0003 14.4694 10.0552C14.4394 10.11 14.2804 10.4505 14.1162 10.8118C13.9521 11.173 13.7951 11.5076 13.7674 11.5553C13.7398 11.603 13.7171 11.6618 13.7171 11.6859C13.7171 11.71 13.6908 11.7471 13.6586 11.7683C13.6226 11.792 13.6169 11.8018 13.644 11.7937C13.6719 11.7855 13.6908 11.7944 13.6961 11.8183C13.7006 11.8389 13.7962 11.6603 13.9086 11.4214C14.021 11.1824 14.2527 10.7445 14.4235 10.448L14.734 9.90909L14.6507 9.85178C14.6048 9.82026 14.4406 9.72626 14.2856 9.64295L14.0037 9.49142L14.1398 9.39085C14.8293 8.88119 14.8352 8.85577 14.3849 8.32667C14.2776 8.20057 14.1989 8.0889 14.2099 8.07857C14.3469 7.95075 16.3418 7.53626 16.3418 7.6356ZM20.4875 7.81425C20.7127 7.98868 20.7709 8.28511 20.6328 8.55382C20.5883 8.64048 20.5519 8.71504 20.5519 8.71504C20.5519 8.71504 20.6658 8.66889 20.8052 8.60807C21.3075 8.38885 21.7739 8.37259 22.2102 8.55911C22.3841 8.63343 22.3758 8.63919 22.1501 8.60044C21.8937 8.55635 21.6093 8.55993 21.41 8.60966L21.2416 8.65169L21.5919 8.66614C22.1234 8.68809 22.4559 8.78767 22.6846 8.99327C22.8148 9.11039 22.8006 9.12666 22.6562 9.02573C22.3114 8.78467 21.791 8.73835 21.3891 8.91295C21.1965 8.99661 21.1905 9.01552 21.3717 8.96726C21.924 8.82025 22.4589 8.95892 22.7425 9.32269L22.8238 9.42696L22.6948 9.33226C22.3873 9.1064 22.0339 9.04388 21.6078 9.14004C21.2935 9.21096 21.3083 9.22224 21.704 9.2132C22.3315 9.19893 22.7349 9.3622 22.6043 9.57755C22.5791 9.619 22.5715 9.61718 22.4625 9.54373C22.3064 9.43852 22.1885 9.40794 21.9927 9.42179C21.8227 9.43383 21.7533 9.46148 21.3575 9.67424C20.8952 9.92282 20.4822 9.89611 20.1783 9.59792C19.838 9.26392 19.8428 8.92599 20.1925 8.57831C20.4516 8.32063 20.5044 8.14532 20.3959 7.90244C20.3126 7.71591 20.334 7.69531 20.4875 7.81425ZM3.68584 7.78279C3.68584 7.79271 3.66242 7.85952 3.63388 7.93132C3.53675 8.17509 3.58678 8.35098 3.82814 8.61459C4.21893 9.04147 4.11116 9.31864 3.36098 9.81597C3.1449 9.95922 3.11489 9.95218 2.68784 9.65792C2.26592 9.36713 2.01178 9.32903 1.65326 9.50264C1.41768 9.61677 1.44409 9.61295 1.36053 9.54467L1.29354 9.48984L1.41043 9.39907C1.63869 9.22171 2.11597 9.15848 2.60083 9.24126C2.79609 9.27461 2.81678 9.27097 2.69184 9.22511C2.18855 9.04053 1.60942 9.08779 1.29401 9.33925C1.17465 9.43441 1.16541 9.42625 1.25582 9.30566C1.49851 8.98211 2.11184 8.83217 2.7265 8.9463C2.95941 8.98951 2.98317 8.97472 2.79722 8.90215C2.583 8.81855 2.36884 8.78896 2.08071 8.80322C1.77441 8.81843 1.46651 8.91965 1.33426 9.04875C1.25562 9.12548 1.17898 9.15766 1.2145 9.099C1.4089 8.77857 2.26812 8.56504 2.85423 8.69156C2.88996 8.69931 2.86075 8.68105 2.78923 8.65105C2.53436 8.54408 2.21376 8.51736 1.89922 8.5769C1.69165 8.61623 1.67129 8.57014 1.87101 8.51325C2.2455 8.40652 2.63043 8.41615 3.08815 8.54373C3.22393 8.58159 3.33696 8.61271 3.33943 8.61294C3.34182 8.61318 3.33177 8.5749 3.31707 8.52787C3.27369 8.38932 3.3015 8.04087 3.36338 7.94735C3.44168 7.82905 3.68584 7.70447 3.68584 7.78279ZM10.8744 8.54032C11.2194 8.67477 11.5118 8.80751 11.5861 8.86334L11.6511 8.91219L11.5731 8.89751C11.5302 8.88941 11.4191 8.85418 11.3262 8.81919C10.8961 8.65715 10.7725 8.64412 10.7312 8.75667C10.6063 9.09801 10.6635 9.83129 10.8148 9.82818C10.8851 9.82677 11.1974 9.69174 11.3866 9.58095C11.4984 9.51543 11.5949 9.46189 11.601 9.46189C11.6378 9.46189 11.5975 9.52371 11.4993 9.61765C11.3255 9.78421 11.3246 9.96644 11.4977 9.96644H11.5678L11.5529 10.3506C11.5359 10.7873 11.5722 12.3227 11.612 12.8561C11.6529 13.4027 11.6501 13.7219 11.6034 13.8422L11.5633 13.9454L11.6384 13.8674C11.77 13.7305 11.7923 13.5097 11.7424 12.8331C11.6331 11.3509 11.6691 9.18983 11.794 9.7272C11.8283 9.8748 11.8587 9.92359 11.9064 9.9075C11.9297 9.89957 11.9369 10.3303 11.9369 11.7149C11.9369 12.7146 11.946 13.6015 11.9569 13.6857L11.977 13.8387L11.5931 14.1313C11.382 14.2923 11.1899 14.4383 11.1663 14.4558C11.1292 14.4831 11.1086 14.4809 11.0168 14.4396C10.8933 14.384 10.8937 14.3857 10.9543 14.077C11.045 13.6153 11.0134 12.7829 10.8701 11.8584C10.6412 10.3821 10.5206 9.24907 10.5206 8.57549C10.5206 8.38198 10.4789 8.38615 10.8744 8.54032ZM13.4571 8.5503C13.4568 8.98476 13.2971 10.6768 13.1839 11.4456C13.0051 12.6602 12.9642 13.8396 13.0841 14.3296C13.0993 14.3921 12.9896 14.4627 12.8798 14.4609C12.8376 14.4602 12.4551 14.1888 12.2101 13.9857L12.023 13.8307L12.0086 12.0305C11.9933 10.1179 11.9998 9.92758 12.0845 9.8047L12.1374 9.72796L12.1715 9.79953C12.2486 9.9614 12.4649 9.96169 12.5299 9.79994C12.5532 9.74205 12.5071 9.65058 12.4036 9.54954C12.2413 9.39103 12.3077 9.38351 12.5342 9.53487C12.7488 9.67812 13.1893 9.84356 13.2391 9.79959C13.3733 9.68123 13.3604 8.99303 13.2194 8.74551L13.1707 8.65985L13.0056 8.71469C12.9149 8.74481 12.8068 8.78455 12.7656 8.80299C12.651 8.85418 12.4214 8.91636 12.3857 8.90591C12.3392 8.89223 12.5544 8.78426 12.9994 8.59815C13.4792 8.39748 13.4572 8.39977 13.4571 8.5503ZM15.8362 8.91882C16.3483 9.25899 17.0347 10.0287 17.2746 10.5321C17.4073 10.8104 17.3912 10.8086 17.1747 10.5213C16.9076 10.1669 16.6161 9.85812 16.1726 9.46019L15.8256 9.14885L15.7625 9.21243C15.5887 9.38721 15.2539 9.19711 15.374 8.99174C15.5319 8.72173 15.538 8.72074 15.8362 8.91882ZM8.5037 8.86598C8.54442 8.95575 8.6317 9.37054 8.61334 9.3868C8.60822 9.39126 8.57076 9.32744 8.53005 9.24496C8.43963 9.06184 8.4703 9.06026 8.14937 9.26468C7.64954 9.58301 7.16535 10.1084 6.72613 10.809C6.64356 10.9406 6.64123 10.9252 6.71129 10.7112C6.96383 9.9392 7.51868 9.27966 8.25967 8.87039C8.46824 8.7552 8.4536 8.75543 8.5037 8.86598ZM12.1939 8.86276C12.2182 8.88642 12.2451 8.94424 12.2537 8.99127L12.2694 9.07669L12.2036 9.01857C12.1219 8.94653 11.9986 8.92446 11.8467 8.95464C11.716 8.98059 11.6925 8.97266 11.7325 8.91612C11.8036 8.81555 12.1092 8.78021 12.1939 8.86276ZM3.21914 8.95992C3.21754 8.98035 3.35898 9.2793 3.40808 9.35932L3.44986 9.42749L3.45093 9.36138C3.45292 9.23462 3.22799 8.84508 3.21914 8.95992ZM20.5726 9.20415C20.3476 9.50269 20.3073 9.63514 20.4991 9.44504C20.589 9.35598 20.7316 9.08538 20.7023 9.05955C20.6954 9.0535 20.6371 9.11855 20.5726 9.20415ZM4.46549 9.41715C4.58697 9.50604 4.69029 9.58865 4.69508 9.6008C4.73213 9.69421 4.07862 10.3495 3.80679 10.4915C3.6249 10.5866 3.61585 10.5837 3.33583 10.3389C3.11689 10.1476 3.11855 10.1557 3.28367 10.0808C3.51865 9.97414 3.93831 9.62147 4.13537 9.36502C4.23803 9.23134 4.20416 9.22599 4.46549 9.41715ZM12.2381 9.39919C12.1712 9.55442 11.716 9.52348 11.716 9.36373C11.716 9.32422 11.7266 9.32093 11.8005 9.33725C11.9545 9.37136 12.0909 9.36067 12.1721 9.30813C12.261 9.25071 12.2868 9.28629 12.2381 9.39919ZM19.8757 9.48673C20.039 9.74053 20.204 9.8694 20.6055 10.0566L20.8405 10.1661L20.6483 10.3242C20.3955 10.5325 20.3458 10.5555 20.2364 10.5155C19.9219 10.4005 19.3564 9.83223 19.3564 9.63115C19.3564 9.56716 19.4615 9.45549 19.6152 9.35627C19.7489 9.26991 19.7303 9.26063 19.8757 9.48673ZM11.0997 9.43348C10.8955 9.52442 10.8937 9.5243 10.8595 9.41915L10.8361 9.34723L11.0617 9.34858L11.2873 9.34993L11.0997 9.43348ZM13.0777 9.36637C13.0851 9.37694 13.0829 9.41111 13.0728 9.44228L13.0544 9.499L12.8725 9.43688L12.6906 9.37477L12.8075 9.36502C13.024 9.34694 13.0643 9.34717 13.0777 9.36637ZM5.20615 10.1536C5.9667 10.5495 6.29642 10.7698 6.45336 10.987C6.60079 11.191 6.58089 11.2167 6.39887 11.0577C6.20853 10.8914 5.99671 10.7583 5.51797 10.5045C5.22571 10.3495 4.73579 10.0659 4.66228 10.0091C4.64804 9.99803 4.65769 9.97149 4.68583 9.94402L4.7334 9.89764L4.81383 9.94443C4.85807 9.97014 5.03457 10.0643 5.20615 10.1536ZM19.3549 10.0091C19.3442 10.1112 17.6627 11.0479 17.5959 10.989C17.5242 10.9258 17.6488 10.7946 17.8687 10.7017C18.3022 10.5186 18.8057 10.2384 19.1225 10.004L19.2655 9.89828L19.3109 9.94637C19.3359 9.97278 19.3558 10.001 19.3549 10.0091ZM3.33676 10.1015C3.3188 10.1271 3.70673 10.448 3.75569 10.448C3.81597 10.448 3.79255 10.4028 3.6748 10.2917C3.54946 10.1735 3.36078 10.0672 3.33676 10.1015ZM12.3007 10.6128C12.1266 10.7028 12.1533 10.8997 12.3479 10.9605C12.4142 10.9812 12.5451 10.9155 12.5748 10.8467C12.6397 10.696 12.4511 10.5351 12.3007 10.6128ZM9.41574 11.8816C9.55259 12.2632 9.53376 12.2472 9.79728 12.2073L9.99633 12.1772L10.1774 12.5568C10.3867 12.9955 10.4625 13.1729 10.5695 13.4752C10.6697 13.7586 10.8365 14.3248 10.8269 14.3496C10.8025 14.4128 9.80227 13.8948 9.60355 13.7161L9.45053 13.5785L9.44202 13.0854C9.43237 12.5268 9.37749 12.1023 9.23159 11.4571C9.20438 11.3366 9.29652 11.549 9.41574 11.8816ZM14.6262 11.974C14.5986 12.1627 14.5685 12.4668 14.5594 12.6497C14.5443 12.953 14.5518 13.0646 14.6167 13.4998L14.6324 13.6046L14.3502 13.766C13.9136 14.0156 13.2007 14.3697 13.1347 14.3697C13.1206 14.3697 13.1609 14.239 13.1948 14.1747C13.208 14.1495 13.2379 14.0567 13.2612 13.9684C13.3538 13.6163 13.7191 12.7209 13.8324 12.5684C13.867 12.5218 13.8954 12.5121 13.997 12.5119C14.0646 12.5118 14.1803 12.5052 14.2542 12.4974L14.3885 12.4832L14.4591 12.2281C14.5404 11.9349 14.6518 11.6093 14.6664 11.6222C14.6719 11.627 14.6538 11.7853 14.6262 11.974ZM12.253 11.9946C12.1226 12.1013 12.1972 12.3286 12.3627 12.3286C12.5522 12.3286 12.6439 12.0849 12.4872 11.9978C12.3761 11.9361 12.3254 11.9354 12.253 11.9946ZM10.4751 12.1681C10.4823 12.1915 10.5223 12.2033 10.6006 12.2051C10.7146 12.2078 10.7147 12.2077 10.6119 12.1977C10.5549 12.1921 10.4985 12.1755 10.4864 12.1606C10.4715 12.1421 10.468 12.1444 10.4751 12.1681ZM15.1834 13.59C16.7655 16.1362 19.7062 17.9385 21.147 17.2449C21.2881 17.177 21.2862 17.175 21.2255 17.3282C21.0785 17.6988 20.8137 17.816 20.123 17.8161C18.9795 17.8165 17.6268 17.1807 16.4682 16.0984C15.877 15.5461 15.078 14.5774 14.7975 14.073L14.6516 13.8107L14.7467 13.7248L14.8417 13.6388L14.7992 13.3423C14.73 12.8605 14.734 12.8512 14.8958 13.1198C14.9717 13.2459 15.1011 13.4575 15.1834 13.59ZM9.33457 13.6689C9.49524 13.8569 8.82463 14.8907 8.0535 15.6437C7.98824 15.7075 7.82085 15.8734 7.68161 16.0123C5.9979 17.6929 3.43962 18.3589 2.74905 17.2963C2.65092 17.1453 2.65278 17.1343 2.76522 17.2017C3.83327 17.8413 5.78162 16.9981 7.53385 15.138C8.10706 14.5294 9.00839 13.3851 9.21256 13.0066L9.2602 12.9184L9.26745 13.2585C9.2741 13.5729 9.27922 13.6041 9.33457 13.6689ZM12.2796 13.2096C12.1023 13.3546 12.2252 13.5859 12.4527 13.5355C12.6223 13.498 12.6446 13.2834 12.4878 13.1991C12.3811 13.1417 12.3614 13.1427 12.2796 13.2096ZM9.5319 13.8754C9.549 13.8936 9.62065 13.9411 9.69097 13.9809C9.85197 14.0721 9.85776 14.048 9.60162 14.3523C8.83308 15.2653 7.55574 17.4043 7.31118 18.1878L7.25403 18.371L7.0617 18.4578C5.87709 18.9923 4.25659 18.8039 3.32512 18.0233L3.10112 17.8356L3.30303 17.8914C3.86853 18.0473 4.52137 18.0203 5.07402 17.818C6.51683 17.2898 7.92663 16.1519 8.98863 14.6586C9.14816 14.4342 9.45512 13.9129 9.45512 13.8663C9.45512 13.8319 9.49544 13.8366 9.5319 13.8754ZM14.7822 14.255C14.7964 14.2739 14.9122 14.4302 15.0395 14.6023C16.7924 16.972 19.0072 18.28 20.6557 17.919C20.8769 17.8706 20.8769 17.8724 20.6529 18.0675C19.8943 18.7284 18.6249 18.9458 17.4795 18.6111C16.9047 18.4431 16.7184 18.3111 16.6032 17.99C16.2174 16.9145 14.7203 14.3973 14.2919 14.1039C14.262 14.0834 14.2731 14.0666 14.3526 14.0121C14.4062 13.9754 14.4751 13.9278 14.5058 13.9064C14.561 13.868 14.5629 13.8697 14.659 14.044C14.7125 14.1411 14.768 14.2361 14.7822 14.255ZM9.96087 14.4006C10.0066 14.4301 10.0052 14.4361 9.93094 14.5324C9.19447 15.4876 7.75093 18.0111 7.69445 18.4423C7.67362 18.6012 7.80136 18.7498 8.07779 18.8881L8.22069 18.9596L8.05583 18.9451C7.78712 18.9216 7.67828 18.8659 7.58394 18.7036C7.41862 18.4192 7.49952 18.1689 8.14604 16.9658C8.83441 15.6849 9.03247 15.3831 9.81644 14.422C9.86487 14.3626 9.89508 14.3581 9.96087 14.4006ZM14.5134 14.6966C15.4285 15.9112 16.4447 17.855 16.4463 18.3936L16.4469 18.578L16.5464 18.6401C16.7499 18.7671 17.2121 20.0305 17.392 20.9516C17.4717 21.36 17.3276 21.1687 17.1501 20.6305C16.9241 19.9456 16.5324 18.9523 16.4545 18.8665C16.4497 18.8612 16.396 18.8879 16.3353 18.9258C16.2746 18.9636 16.2104 19.002 16.1927 19.0111C16.1676 19.024 16.1617 18.936 16.1658 18.6079C16.172 18.1114 16.1696 18.1019 15.8817 17.5116C15.218 16.1501 14.721 15.3103 14.2252 14.7119L14.0579 14.51L14.1409 14.4647C14.2751 14.3914 14.2905 14.4009 14.5134 14.6966ZM11.3868 15.2007C11.657 15.2658 12.3187 15.2728 12.6126 15.2134C12.7127 15.1932 12.8296 15.1697 12.8725 15.1613C12.9978 15.1365 12.7297 15.273 12.4827 15.3598C12.1157 15.4887 11.757 15.4601 11.3375 15.2685C11.0766 15.1494 11.0913 15.1293 11.3868 15.2007ZM12.3121 15.6138C12.3323 15.6422 12.4504 15.8306 12.5743 16.0324C12.8494 16.4803 12.9439 16.6173 13.3041 17.0898C13.6872 17.5924 13.6849 17.5826 13.5857 18.2913C13.4559 19.2176 13.176 19.8425 12.6251 20.4356C12.4744 20.5978 12.1366 20.8958 12.1213 20.8799C12.1168 20.8752 12.1056 20.3063 12.0964 19.6157L12.0797 18.3602L12.1382 18.357C12.1933 18.354 12.1936 18.3533 12.1425 18.3444C12.0886 18.335 12.0883 18.3282 12.0708 17.0805C12.0611 16.3905 12.0437 15.795 12.0322 15.7572C11.9984 15.6466 11.9644 15.6772 11.9431 15.8374C11.9157 16.0427 11.8803 18.3602 11.9044 18.3602C11.9267 18.3601 11.9249 19.3587 11.901 20.2698L11.8849 20.8836L11.7445 20.7751C11.3049 20.4356 10.8453 19.8091 10.6542 19.2889C10.5091 18.8938 10.3131 18.0712 10.3512 18.0168C10.3591 18.0055 10.3553 17.9908 10.3429 17.984C10.3304 17.9772 10.312 17.8575 10.302 17.718L10.2838 17.4645L10.6582 17.0466C11.2025 16.439 11.4953 16.0616 11.7031 15.6997L11.7679 15.5869L12.0084 15.5793C12.1406 15.5751 12.2547 15.5696 12.262 15.567C12.2693 15.5644 12.2918 15.5855 12.3121 15.6138ZM10.2177 17.9129C10.2535 18.5032 10.3829 19.0709 10.5816 19.5098L10.692 19.7536L10.4958 19.5978C10.0806 19.2677 9.82096 19.0845 9.52804 18.9147C9.36092 18.8178 9.22354 18.7304 9.22267 18.7204C9.21729 18.6549 10.1656 17.55 10.1854 17.5989C10.1941 17.6202 10.2086 17.7615 10.2177 17.9129ZM14.1614 18.0505C14.2958 18.1767 14.5227 18.3774 14.6656 18.4966C14.9797 18.7584 14.9651 18.7295 14.8155 18.7935C14.386 18.9772 13.8583 19.3012 13.5297 19.5828L13.3305 19.7535L13.3844 19.6359C13.615 19.1324 13.794 18.3826 13.7954 17.9136C13.7956 17.8501 13.803 17.7745 13.8118 17.7455L13.8278 17.6927L13.8724 17.757C13.897 17.7923 14.027 17.9244 14.1614 18.0505ZM7.58261 18.8835C7.4457 18.8958 7.15637 19.5642 6.84115 20.5961C6.69679 21.0687 6.66831 21.1374 6.63039 21.1039C6.54464 21.0282 6.73271 20.3232 7.12244 19.2596L7.36001 18.611L7.51216 18.7436L7.66424 18.8762L7.58261 18.8835ZM6.62247 21.3095C6.76438 21.3628 6.83789 21.3745 7.08259 21.3826L7.37371 21.3922L7.38695 21.4873C7.42501 21.761 7.44729 21.7224 7.18344 21.8394C6.65241 22.0748 6.49461 22.1044 6.41743 21.9832C6.3378 21.8582 6.19277 21.7596 6.02472 21.7164C5.94615 21.6962 5.86425 21.6749 5.84283 21.669C5.81508 21.6616 5.84143 21.6285 5.93377 21.5547C6.1269 21.4006 6.39794 21.226 6.42755 21.2367C6.44185 21.2419 6.52953 21.2746 6.62247 21.3095ZM17.8565 21.4538C17.9665 21.5283 18.1121 21.6184 18.1802 21.6541L18.3039 21.7191L18.1328 21.7344C17.8498 21.7598 17.6257 21.8712 17.5189 22.0396C17.5003 22.069 16.7615 21.8064 16.6848 21.7431C16.6805 21.7396 16.6848 21.6606 16.6944 21.5677L16.7119 21.3988L17.0401 21.3952C17.2556 21.3928 17.4085 21.3795 17.4853 21.3566C17.6488 21.3077 17.6354 21.3042 17.8565 21.4538ZM5.67564 21.9187C5.88248 21.9786 5.92698 22.0275 5.91581 22.1823C5.90556 22.3238 5.88061 22.3227 5.65302 22.1705C5.45902 22.0409 5.48064 22.0211 5.72081 22.1083C5.92559 22.1826 5.9194 22.1157 5.7129 22.0218C5.2919 21.8305 4.64511 22.0588 4.27941 22.5279C4.15679 22.6851 4.06924 22.6314 4.16937 22.4605C4.41619 22.0393 5.16377 21.7704 5.67564 21.9187ZM16.7474 22.0113C16.7388 22.0497 16.7317 22.1682 16.7317 22.2747V22.4683L16.6602 22.461C16.5729 22.4522 16.5624 22.3959 16.5888 22.0816L16.6065 21.87L16.6849 21.9058C16.7532 21.9369 16.7613 21.9504 16.7474 22.0113ZM19.2063 21.9682C19.5307 22.1135 19.8762 22.4192 19.8762 22.561C19.8762 22.6586 19.837 22.6374 19.6542 22.4406C19.2586 22.0147 18.7786 21.8576 18.3687 22.02C18.2103 22.0827 18.0878 22.167 18.2156 22.1253C18.2499 22.1141 18.3302 22.0978 18.3939 22.0891L18.5099 22.0733L18.3992 22.144C18.3383 22.1829 18.2817 22.2304 18.2734 22.2495C18.2623 22.2751 18.2372 22.2802 18.1772 22.2688C17.9976 22.235 17.985 22.1596 18.1396 22.0429C18.4094 21.839 18.8492 21.8082 19.2063 21.9682ZM7.41882 22.0811C7.39121 22.3895 7.37784 22.4342 7.30459 22.4637C7.23953 22.4899 7.23913 22.4893 7.25576 22.4031C7.30466 22.1486 7.30812 21.9711 7.26341 22.0036C7.23946 22.0211 7.22017 22.0245 7.22017 22.0115C7.22017 21.988 7.36806 21.8974 7.41243 21.8938C7.42574 21.8927 7.42847 21.9732 7.41882 22.0811Z" />
</svg>
