<svg width="24" height="24" viewBox="0 0 24 24" fill="none" xmlns="http://www.w3.org/2000/svg">
<path fill-rule="evenodd" clip-rule="evenodd" d="M10.4176 5.1915L10.4268 9.38007L10.5792 9.39477C10.7696 9.41306 10.7751 9.41739 10.7355 9.51689C10.7113 9.57768 10.7161 9.60595 10.7542 9.62877C10.7822 9.64553 10.8052 9.68703 10.8052 9.72102C10.8052 9.75501 10.8221 9.78281 10.8428 9.78281C10.919 9.78281 11.0572 9.90879 11.0336 9.95675C10.996 10.0333 10.8834 10.1101 10.7319 10.1624C10.5696 10.2185 10.5683 10.2222 10.6478 10.3953C10.7245 10.5623 10.7518 10.5805 10.8137 10.5066C10.8419 10.4729 10.9597 10.3353 11.0756 10.2009C11.1914 10.0666 11.422 9.76592 11.5879 9.53292L11.8897 9.10936L11.8658 8.85501C11.8495 8.68188 11.8676 8.36221 11.9224 7.85438C11.9666 7.44399 11.9929 7.0896 11.9809 7.06686C11.9273 6.96622 11.5645 7.20234 11.4202 7.43162C11.2473 7.70652 10.9132 7.80809 10.9132 7.58573C10.9132 7.5399 10.8967 7.53185 10.8236 7.54196C10.6942 7.55979 10.6782 7.49853 10.7715 7.34222C10.8152 7.26899 10.8448 7.206 10.8371 7.20228C10.8294 7.19855 10.7758 7.18432 10.718 7.17062C10.5576 7.13257 10.568 7.0916 10.758 7.01278C10.8533 6.97327 11.0949 6.8282 11.2949 6.69032C12.1228 6.1199 12.5811 6.2077 12.679 6.95558C12.7002 7.11727 12.7443 7.41326 12.777 7.61333C12.8146 7.84314 12.8363 8.17803 12.836 8.52271L12.8356 9.06832L12.594 9.56977C12.4611 9.8456 12.2313 10.2744 12.0833 10.5226C11.7773 11.0359 11.7843 11.0146 11.9037 11.0711C11.9906 11.1121 11.9984 11.1103 12.165 11.0111C12.3913 10.8764 13.1931 10.4388 13.4043 10.3346C13.5838 10.2461 13.6863 9.96041 13.5583 9.90566C13.4262 9.84913 13.3998 9.80264 13.3998 9.62677C13.3998 9.42963 13.3607 9.33125 13.2479 9.24438L13.1729 9.18665L13.2669 9.0356C13.4262 8.77959 13.4842 8.46524 13.3898 8.36966C13.3396 8.31884 13.308 8.23949 13.2979 8.13873L13.2825 7.98521L13.4222 7.99412L13.5619 8.00304L13.571 4.50155L13.5802 1L11.9943 1.00146L10.4085 1.00286L10.4176 5.1915ZM13.9043 4.15595V5.46308L14.1286 5.49487C15.3041 5.66162 16.3271 6.1497 17.193 6.95684L17.5219 7.26334L17.65 7.178C17.7205 7.13111 17.9161 6.99941 18.0845 6.88534C18.253 6.77127 18.6097 6.53208 18.8774 6.35376C19.1449 6.1755 19.5098 5.9292 19.6882 5.80649C19.8665 5.68383 20.2395 5.43228 20.517 5.2475C20.7945 5.06273 21.0255 4.90562 21.0304 4.89837C21.0453 4.87622 20.2527 4.46171 19.8323 4.27181C18.3141 3.58612 16.2653 3.06366 14.4449 2.8979C14.2763 2.88254 14.0858 2.86525 14.0214 2.85946L13.9043 2.84888V4.15595ZM9.8141 2.88873C9.77452 2.89484 9.52313 2.9289 9.25559 2.96448C4.044 3.65736 0.989022 6.24674 1.79993 9.28396C2.28731 11.1097 4.36015 12.4076 7.99246 13.1614L8.33665 13.2329L8.61526 12.8395C8.7684 12.623 8.95318 12.3466 9.0257 12.2251C9.26795 11.8197 9.40421 11.6469 9.57876 11.5243C9.80884 11.3628 9.84786 11.0863 9.68439 10.7763L9.65182 10.7145L9.53051 10.8073C9.402 10.9056 9.19415 10.9338 9.03916 10.874C8.99405 10.8565 8.96425 10.8565 8.94931 10.874C8.90678 10.9236 8.56065 10.9021 8.36977 10.8381C7.64208 10.5938 7.47307 9.79266 8.11386 9.62498C8.20538 9.60103 8.2539 9.5576 8.35464 9.40961C8.44238 9.28063 8.52633 9.19955 8.6303 9.14328L8.77984 9.0624L8.6136 8.98738C7.70296 8.57672 7.29603 8.08405 7.29603 7.39251C7.29603 6.44482 8.15325 5.77556 9.74205 5.4829L10.0664 5.4231L10.0757 4.14737L10.085 2.87163L9.98559 2.87462C9.93098 2.87629 9.85376 2.88261 9.8141 2.88873ZM11.9043 6.56601C11.8646 6.58224 11.683 6.69784 11.5006 6.82295C11.3182 6.94806 11.1115 7.06546 11.0411 7.08375C10.8765 7.12672 10.8755 7.15931 11.0396 7.13264C11.2036 7.10597 11.2058 7.11142 11.1239 7.3373C11.0679 7.49168 11.0627 7.64247 11.117 7.53405C11.1757 7.41698 11.4311 7.15864 11.5748 7.07078C11.6712 7.01192 11.8494 6.89651 11.9708 6.81437C12.1656 6.68261 12.2826 6.63232 12.2826 6.68054C12.2826 6.68912 12.2322 6.73003 12.1707 6.77147C12.0691 6.83991 12.0658 6.84683 12.1346 6.84683C12.2252 6.84683 12.2429 7.41293 12.1696 7.96406C12.1477 8.12842 12.1274 8.47336 12.1243 8.73056L12.1188 9.19822L11.862 9.57496C11.7208 9.78215 11.4724 10.1037 11.3101 10.2894C10.9389 10.7143 10.8923 10.7781 10.9434 10.7904C10.9651 10.7956 11.0378 10.8267 11.1049 10.8595L11.2269 10.9192L11.2298 10.8438C11.2338 10.7431 11.3458 10.6067 11.7094 10.2597C12.1489 9.84008 12.4574 9.34668 12.5392 8.93257C12.6198 8.52377 12.4357 6.69458 12.3032 6.58909C12.2274 6.52869 12.0246 6.51699 11.9043 6.56601ZM14.3442 8.01521C14.1166 8.04075 13.5439 8.16906 13.5439 8.19446C13.5439 8.23557 13.6603 8.32782 13.7124 8.32782C13.7538 8.32782 13.7622 8.34319 13.7442 8.38629C13.7309 8.41842 13.7048 8.53362 13.6863 8.6423C13.6679 8.75092 13.6127 8.91654 13.5638 9.01026C13.4884 9.15479 13.4825 9.18525 13.5255 9.21093C13.5824 9.24505 13.6454 9.44532 13.6601 9.63961C13.6865 9.98608 14.7977 9.74583 14.8949 9.37256C14.9086 9.31954 14.9651 9.24917 15.0273 9.2072C15.1209 9.14421 15.1342 9.11887 15.1237 9.02329C15.1107 8.9059 15.1748 8.87018 15.248 8.95385C15.3062 9.02043 15.2429 9.13776 15.093 9.24046C15.0034 9.30198 14.9453 9.36916 14.9296 9.42963C14.887 9.59305 14.6089 9.77091 14.2514 9.86336L14.112 9.89941L14.1302 10.0622C14.1522 10.2601 14.1351 10.2698 13.9102 10.1877L13.7334 10.1231L13.7107 10.2424C13.6578 10.5204 13.7225 10.5812 13.9403 10.4583C14.0572 10.3924 14.1737 10.3932 14.3054 10.4608C14.4818 10.5513 14.5307 10.5135 14.5066 10.3056L14.4859 10.1281L14.6906 10.0874C14.8032 10.065 14.9971 10.0317 15.1215 10.0134C15.2529 9.99393 15.3416 9.96825 15.3329 9.95203C15.293 9.87713 15.3956 9.6311 15.578 9.36411C16.1861 8.47415 15.6337 7.87034 14.3442 8.01521ZM9.02579 9.17142C8.76167 9.23933 8.55437 9.43295 8.52743 9.63708C8.51516 9.73053 8.50483 9.73885 8.39127 9.74783C7.69125 9.8031 8.01819 10.7182 8.73796 10.7182C8.98704 10.7182 9.44803 10.3595 9.25559 10.3155C9.21592 10.3063 9.18345 10.2877 9.18345 10.2738C9.18345 10.2344 9.32109 10.2968 9.37774 10.3618C9.40523 10.3935 9.4722 10.4712 9.52654 10.5346C9.61898 10.6425 9.6283 10.6467 9.67461 10.6011C9.8081 10.4694 9.69444 10.2657 9.46934 10.2332C9.29941 10.2088 9.13345 10.0841 9.18262 10.0178C9.22524 9.96041 9.26122 9.95442 9.50588 9.964L9.66621 9.97025L9.54859 9.87361C9.30467 9.6734 9.29222 9.35101 9.52303 9.21286C9.65966 9.13111 9.2995 9.10111 9.02579 9.17142ZM15.1001 10.2435C14.339 10.5262 13.63 11.0889 13.1447 11.7953C12.8968 12.1563 12.9029 12.1353 13.0304 12.1826C13.2026 12.2465 14.5986 12.6169 14.6346 12.6082C14.6535 12.6037 14.7474 12.3782 14.8431 12.1073C15.0424 11.5434 15.1624 11.2812 15.1639 11.4067C15.1663 11.6159 14.9603 12.8198 14.9125 12.8756C14.8871 12.9052 13.6096 12.5564 12.9189 12.3314C12.633 12.2383 12.6559 12.2421 12.6322 12.2836C12.622 12.3014 12.5566 12.4054 12.487 12.5145L12.3602 12.713L12.925 12.9018C13.7439 13.1756 14.3707 13.3811 14.8302 13.5265C15.5167 13.7437 15.4743 13.7767 15.8661 12.7188C16.0329 12.2686 16.2353 11.7253 16.316 11.5115C16.5098 10.9985 16.5408 11.0724 15.9555 10.653C15.6764 10.4531 15.4292 10.2571 15.406 10.2175L15.3638 10.1456L15.1001 10.2435ZM16.2049 10.5736C16.8506 11.0477 16.8152 10.9257 16.535 11.7105C15.8484 13.6334 15.8191 13.6948 15.5382 13.7953C15.2237 13.9079 15.2563 14.1077 15.6124 14.2486C16.7404 14.695 17.281 15.2681 17.3186 16.0575C17.3742 17.2302 16.1899 18.1454 14.2466 18.4311L13.9223 18.4788L13.9129 19.7695L13.9036 21.0601L13.9851 21.0474C14.0298 21.0404 14.1961 21.0215 14.3547 21.0054C19.572 20.4752 22.9964 18.1963 23 15.252C23.0027 13.0738 21.2819 11.526 17.8683 10.6365C17.1963 10.4613 15.8371 10.1725 15.6848 10.1725C15.6704 10.1725 15.9045 10.353 16.2049 10.5736ZM9.2102 10.5359C9.09461 10.6015 9.05476 10.6819 9.11287 10.7324C9.24221 10.8448 9.56824 10.6951 9.46519 10.5705C9.38798 10.4772 9.3282 10.4691 9.2102 10.5359ZM13.2917 10.6446C12.95 10.8142 12.3116 11.1684 12.2483 11.2233C12.1922 11.2721 12.1875 11.2687 12.3727 11.3131C12.452 11.3321 12.5774 11.3894 12.6514 11.4404C12.7253 11.4915 12.7902 11.5281 12.7955 11.5219C12.8008 11.5157 12.8979 11.3762 13.0111 11.2118C13.1244 11.0475 13.3069 10.8275 13.4166 10.7229C13.6968 10.4558 13.6857 10.4489 13.2917 10.6446ZM15.1241 10.9139C15.1311 10.9187 15.0338 10.9598 14.908 11.0053C14.5553 11.1328 14.2456 11.3005 13.8344 11.5866C13.6275 11.7306 13.4876 11.8133 13.5235 11.7704C13.6791 11.5848 14.0076 11.2989 14.2312 11.1545C14.5838 10.9269 14.6327 10.8732 14.5684 10.7837C14.5401 10.7444 14.5169 10.7086 14.5169 10.7042C14.5169 10.696 15.1006 10.8976 15.1241 10.9139ZM14.4317 11.5021C14.7619 11.546 14.7141 11.5756 14.3131 11.5756C13.9674 11.5756 13.9656 11.5752 14.0304 11.5236C14.1066 11.463 14.128 11.4618 14.4317 11.5021ZM9.87572 11.6062C9.68577 11.6726 9.55984 11.8021 9.39978 12.0952C9.09977 12.6448 8.42273 13.5604 8.14458 13.7926C8.03904 13.8808 7.8049 14.1107 7.62446 14.3037C6.28576 15.7345 5.6303 16.048 3.35782 16.3443C1.79117 16.5486 1.20905 16.8497 1.02399 17.5514L1 17.6423L1.09105 17.5387C1.44568 17.1348 1.88886 16.9537 3.06842 16.7309C4.28773 16.5006 5.11959 16.2332 5.8257 15.8445C6.02773 15.7334 6.0328 15.7391 5.92127 15.9528C5.87062 16.0497 5.83649 16.1343 5.84544 16.1407C5.85429 16.1471 5.87219 16.128 5.88529 16.0984C5.93418 15.9874 5.98585 16.0425 5.96251 16.1808C5.93059 16.3705 6.00282 16.2995 6.15845 15.9884C6.27432 15.7567 6.2806 15.7504 6.53171 15.6159C6.83633 15.4526 6.92453 15.386 6.99621 15.265C7.02582 15.215 7.11392 15.1273 7.19197 15.0701C8.11303 14.3955 8.39145 14.1343 9.13539 13.2476C9.44545 12.8782 9.7533 12.5123 9.81963 12.4345C9.88596 12.3568 9.9403 12.2837 9.9403 12.2721C9.9403 12.2255 10.1181 12.2555 10.2502 12.3245C10.7239 12.5719 11.1294 13.0988 11.1294 13.4668C11.1294 13.772 11.069 13.8415 10.4172 14.2866C10.1548 14.4658 10.0454 14.5979 9.89786 14.9142C9.74675 15.238 9.66953 15.3243 9.30402 15.578C8.02604 16.4648 5.72975 17.3737 3.75995 17.7724L3.47166 17.8308L3.47959 17.9247C3.48393 17.9763 3.51151 18.0521 3.54094 18.093L3.59436 18.1676L3.96549 18.122C4.16956 18.0969 4.431 18.0565 4.54641 18.0323C4.84375 17.97 4.83415 17.9977 4.52649 18.0904C3.97389 18.2567 3.56456 18.3293 2.80503 18.3953C2.05667 18.4604 1.88748 18.4967 1.67889 18.6375C1.55906 18.7183 1.54928 18.7606 1.66081 18.7157C2.06996 18.5511 2.8019 18.7483 3.67969 19.2598L4.10397 19.5071L4.43645 19.3967C4.94513 19.228 5.77283 18.8909 5.48971 18.9678C5.20787 19.0444 5.10934 19.0629 4.91109 19.0763C4.6633 19.0929 3.80396 19.0132 3.83551 18.9764C3.84584 18.9644 3.8892 18.9545 3.93182 18.9545C4.08773 18.9545 4.99855 18.7114 5.48971 18.5388C6.80524 18.0766 8.39034 17.1513 9.83005 16.0055L10.0912 15.7977L9.84675 16.0575C8.74432 17.2295 7.24852 18.3863 5.86666 19.1355C5.32559 19.4289 4.15369 19.9677 4.05664 19.9677C4.04621 19.9677 3.97167 19.9947 3.89114 20.0277L3.74455 20.0877L3.96079 20.225C4.11374 20.322 4.18985 20.3548 4.22076 20.3369C4.24484 20.3229 4.37971 20.2818 4.52049 20.2455C4.90196 20.1471 5.19311 20.0565 5.6339 19.899C5.85189 19.8211 5.98972 19.7816 5.94018 19.8112C5.69765 19.9564 4.83996 20.3863 4.56966 20.4983C4.21734 20.6442 3.69953 20.8816 3.71401 20.8906C3.71945 20.8939 3.84556 20.881 3.99418 20.8619C4.33451 20.8182 4.5084 20.8165 4.56357 20.8563C4.63276 20.9062 4.61505 20.9256 4.48387 20.9434C4.31845 20.9657 4.22113 21.0367 4.1738 21.1695C4.04345 21.5345 3.97435 21.6064 3.70589 21.6558C3.61677 21.6722 3.51622 21.6914 3.48264 21.6984C3.32285 21.7318 3.21501 22.2496 3.30486 22.5519L3.32774 22.6289L3.44435 22.5269C3.50847 22.4708 3.61862 22.3458 3.6891 22.2491C3.75958 22.1524 3.8773 22.038 3.95073 21.995C4.13044 21.8898 4.86294 21.5085 5.12134 21.3857C5.35087 21.2767 5.35114 21.2617 5.12531 21.1611C5.00159 21.106 4.96617 21.059 5.04827 21.059C5.63731 21.0587 7.57695 19.8213 9.01933 18.5257C11.2137 16.5548 12.2826 15.3038 12.2826 14.7067C12.2826 14.6337 12.3029 14.5572 12.3276 14.5369C12.3525 14.5165 12.3385 14.5204 12.2968 14.5453C12.1679 14.6225 12.1147 14.5451 12.1939 14.3957C12.2442 14.3006 12.2475 14.2708 12.2108 14.239C12.155 14.1905 12.223 14.1169 12.3033 14.1391C12.3316 14.1469 12.3547 14.1404 12.3547 14.1246C12.3547 14.1087 12.338 14.0958 12.3175 14.0958C12.2971 14.0958 12.2696 14.0753 12.2565 14.0503C12.2433 14.0253 12.2114 13.9894 12.1856 13.9705C12.099 13.9074 12.202 13.829 12.2969 13.8857C12.3271 13.9038 12.3337 13.8813 12.3218 13.8017C12.3125 13.7395 12.2989 13.715 12.2899 13.7444C12.2726 13.8013 12.1727 13.8642 12.1298 13.8451C12.0366 13.8036 12.1905 13.633 12.2953 13.662C12.3319 13.6721 12.3413 13.6618 12.3282 13.6256C12.3137 13.5855 12.2994 13.5813 12.2594 13.6053C12.2006 13.6404 12.1925 13.6363 12.1572 13.5534C12.1411 13.5158 12.1443 13.4977 12.1655 13.5072C12.1855 13.5161 12.1931 13.4963 12.1836 13.4603C12.1724 13.4179 12.1498 13.4028 12.1131 13.4129C12.0579 13.4282 11.9959 13.3809 11.9949 13.3229C11.994 13.2747 12.1054 13.2835 12.1594 13.3358C12.2037 13.3789 12.2096 13.3787 12.2715 13.3322C12.3306 13.2876 12.3309 13.2844 12.2748 13.2985C12.2407 13.3071 12.2033 13.3029 12.1916 13.2892C12.1798 13.2756 12.1388 13.2644 12.1003 13.2644C12.05 13.2644 12.0304 13.2465 12.0304 13.2002C12.0304 13.1539 12.0154 13.1403 11.9763 13.1511C11.9039 13.1711 11.9075 13.135 11.9818 13.0958C12.0473 13.0613 12.0202 13.0046 11.9381 13.0046C11.9096 13.0046 11.8862 12.9812 11.8862 12.9526C11.8862 12.921 11.9103 12.9006 11.9475 12.9006C11.9939 12.9006 11.9987 12.8933 11.967 12.8706C11.9355 12.8478 11.9129 12.848 11.8739 12.8712C11.8334 12.8955 11.8179 12.8933 11.8008 12.861C11.7871 12.8354 11.7936 12.8266 11.818 12.8374C11.8421 12.8482 11.852 12.8362 11.8438 12.8063C11.8348 12.7737 11.805 12.7603 11.7533 12.7655C11.6995 12.7709 11.657 12.7499 11.6128 12.6959C11.572 12.6461 11.4903 12.6026 11.3844 12.5742C10.7971 12.4165 10.2099 12.1605 10.2523 12.0807C10.2833 12.0225 10.2246 12.0356 10.0135 12.1337C9.90635 12.1834 9.8117 12.219 9.80302 12.2128C9.76326 12.1841 10.127 11.7067 10.246 11.6314L10.3752 11.5496L10.2028 11.5509C10.1051 11.5516 9.96327 11.5756 9.87572 11.6062ZM11.0215 11.6741C11.0219 11.8136 11.2306 11.9455 11.596 12.0372L11.8321 12.0964L11.6198 12.0821C10.9503 12.0372 10.6775 12.0116 10.6159 11.9877C10.4772 11.9343 10.5129 11.9922 10.7109 12.1418C10.9985 12.3593 11.4793 12.5168 12.1051 12.5987L12.234 12.6155L12.3634 12.4009C12.5085 12.1607 12.5127 12.1725 12.23 12.0321C12.0774 11.9564 11.4469 11.7602 11.3484 11.7578C11.2953 11.7565 11.5358 11.903 11.6701 11.9536C11.8875 12.0357 11.7877 12.0344 11.5461 11.952C11.4408 11.916 11.2796 11.8288 11.1879 11.7582C11.0766 11.6723 11.0214 11.6445 11.0215 11.6741ZM9.70883 12.989C9.47469 13.2562 9.28917 13.4787 9.29646 13.4833C9.32893 13.504 10.2486 13.6483 10.2745 13.6367C10.2905 13.6296 10.2941 13.5984 10.2826 13.5675C10.2391 13.451 10.3683 13.6374 10.4469 13.8046C10.533 13.9879 10.5592 13.988 10.7187 13.8058C10.9137 13.5832 10.9094 13.2798 10.7091 13.1082C10.6593 13.0655 10.6365 13.0305 10.6585 13.0305C10.7315 13.0305 10.5567 12.8271 10.3431 12.6631L10.1343 12.503L9.70883 12.989ZM11.6701 12.6497C11.6701 12.6945 11.7576 12.7509 11.7904 12.7272C11.8319 12.6973 11.8163 12.6694 11.7421 12.6408C11.6858 12.6191 11.6701 12.6211 11.6701 12.6497ZM11.3967 12.7355C11.4283 12.7948 11.4105 12.7962 11.3366 12.7404C11.2887 12.7042 11.2855 12.6928 11.3238 12.6928C11.3514 12.6928 11.3843 12.712 11.3967 12.7355ZM11.9223 12.7287C11.9223 12.7508 11.9543 12.7813 11.9935 12.7964C12.0571 12.821 12.0616 12.8178 12.0351 12.7662C11.9998 12.6974 11.9223 12.6716 11.9223 12.7287ZM12.0824 12.936C12.0538 13.0182 12.0634 13.0301 12.1404 13.0078C12.1872 12.9942 12.1891 12.9814 12.1517 12.9283L12.1072 12.8651L12.0824 12.936ZM11.8059 12.9737C11.8138 12.9907 11.7945 13.0046 11.7631 13.0046C11.7317 13.0046 11.706 12.9861 11.706 12.9634C11.706 12.9175 11.7836 12.9255 11.8059 12.9737ZM12.8786 13.1422C12.8691 13.1737 12.836 13.5677 12.8052 14.0179C12.6913 15.6797 12.687 15.6911 11.5509 17.3436L10.8275 18.3958L10.8019 19.0844C10.7793 19.6932 10.7519 19.9512 10.6756 20.2796C10.5995 20.6059 10.2978 21.6338 10.0441 22.4306L9.93412 22.776L9.67968 22.7684C9.43364 22.7611 9.42174 22.7576 9.31482 22.6622L9.2043 22.5636L9.19646 22.084C9.18751 21.5393 9.18022 21.5526 9.48743 21.5526C9.57793 21.5526 9.65201 21.5438 9.65201 21.5331C9.65228 21.413 9.7986 20.6581 9.9403 20.0457C10.2391 18.7545 10.3359 18.4542 10.5755 18.0749C10.6445 17.9656 10.6859 17.8879 10.6676 17.9022C10.6118 17.9457 9.54056 19.1505 9.20061 19.552C9.02523 19.7592 8.76619 20.0574 8.62513 20.2146C8.05427 20.8503 8.04652 20.8645 8.25556 20.8852C8.42125 20.9016 9.07376 21.0522 9.12441 21.0857C9.17736 21.1209 9.03114 21.2638 8.81951 21.3837C8.50677 21.5609 8.4766 21.7369 8.73279 21.8903C8.91305 21.9981 8.93372 22.1401 8.78399 22.2428C8.59017 22.3758 8.58076 22.5234 8.75493 22.6997L8.828 22.7738H8.51922C8.34948 22.7738 8.21082 22.765 8.21128 22.7543C8.21174 22.7436 8.25953 22.6008 8.31746 22.437C8.39385 22.2211 8.41221 22.13 8.38435 22.1057C8.32402 22.0533 8.28259 22.0663 8.28259 22.1375C8.28259 22.215 8.15141 22.6599 8.10602 22.7362C8.07474 22.7889 8.03794 22.7903 5.77302 22.8244C3.5271 22.8584 2.13306 22.8902 2.50217 22.8992C8.01072 23.0335 14.6219 23.0336 21.5957 22.8995C22.0798 22.8902 20.3403 22.8559 17.9764 22.8282C16.5989 22.8121 15.0453 22.7918 14.5241 22.7833L13.5763 22.7678L13.5872 22.6474C13.5965 22.5431 13.6094 22.5258 13.6837 22.5182C13.7814 22.5082 13.7859 22.5891 13.6412 21.7605C13.5592 21.2904 13.5181 17.6203 13.5924 17.4085C13.6611 17.2131 12.9529 18.1354 12.6051 18.6946C12.1343 19.4515 11.6178 20.6159 11.5393 21.0976L11.5159 21.2409H11.6793H11.8427L11.8914 20.9225C11.9594 20.4787 11.9863 20.6643 11.9903 21.6046C11.9937 22.4288 12.0298 22.3417 11.616 22.507C10.9254 22.7829 10.4899 22.9126 11.0282 22.682C11.1532 22.6286 11.29 22.5696 11.3319 22.551L11.4082 22.5173L11.3208 22.2493C11.0115 21.3008 11.3789 20.0372 12.4281 18.442C12.7669 17.9268 14.0494 16.4033 14.3542 16.154C14.3592 16.1499 14.4853 16.1867 14.6344 16.2356L14.9056 16.3248L14.9268 16.1391C14.9384 16.037 14.9648 15.6904 14.9854 15.3689C15.0059 15.0474 15.0374 14.5622 15.0553 14.2907C15.085 13.8416 15.0825 13.7947 15.0276 13.7712C14.9945 13.7571 14.6106 13.6329 14.1746 13.4952C13.7385 13.3575 13.2724 13.2089 13.1387 13.1649L12.8958 13.0849L12.8786 13.1422ZM12.1322 13.1618C12.2169 13.2187 12.2928 13.2097 12.2592 13.1466C12.248 13.1257 12.197 13.1085 12.1458 13.1085H12.0528L12.1322 13.1618ZM11.706 13.2447C11.706 13.2845 11.6354 13.2628 11.5971 13.2113C11.5606 13.1622 11.5633 13.1606 11.6319 13.1915C11.6726 13.2099 11.706 13.2338 11.706 13.2447ZM11.9583 13.2276C11.9583 13.2735 11.8808 13.2655 11.8584 13.2173C11.8506 13.2004 11.8699 13.1865 11.9012 13.1865C11.9326 13.1865 11.9583 13.2049 11.9583 13.2276ZM11.9043 13.3943C11.9432 13.4397 11.8855 13.4781 11.829 13.4443C11.801 13.4276 11.7781 13.4037 11.7781 13.3911C11.7781 13.3598 11.8768 13.3623 11.9043 13.3943ZM12.3547 13.4463C12.3051 13.4742 12.2823 13.4973 12.3041 13.4977C12.3258 13.4979 12.3728 13.4749 12.4087 13.4463C12.4909 13.3808 12.4708 13.3808 12.3547 13.4463ZM11.9943 13.5242C11.9943 13.5385 12.0187 13.5502 12.0484 13.5502C12.1183 13.5502 12.1183 13.6383 12.0484 13.6801C12.0027 13.7075 11.9908 13.6999 11.9718 13.6313C11.9595 13.5867 11.9342 13.5502 11.9156 13.5502C11.8971 13.5502 11.892 13.5385 11.9043 13.5242C11.9165 13.5099 11.9417 13.4982 11.9605 13.4982C11.9791 13.4982 11.9943 13.5099 11.9943 13.5242ZM11.9223 13.7825C11.9223 13.8131 11.852 13.8459 11.8261 13.8273C11.8003 13.8087 11.8458 13.7581 11.8883 13.7581C11.907 13.7581 11.9223 13.7691 11.9223 13.7825ZM12.0304 13.9118C12.0304 13.9665 11.9831 14.0179 11.9326 14.0179C11.8981 14.0179 11.8865 14.003 11.9004 13.9768C11.9124 13.9542 11.9223 13.925 11.9223 13.9118C11.9223 13.8987 11.9466 13.888 11.9763 13.888C12.006 13.888 12.0304 13.8987 12.0304 13.9118ZM11.706 13.981C11.706 14.0269 11.6284 14.0189 11.6062 13.9708C11.5984 13.9538 11.6176 13.9399 11.649 13.9399C11.6804 13.9399 11.706 13.9584 11.706 13.981ZM12.2106 14.0824C12.2106 14.1149 12.1856 14.1564 12.1549 14.1747C12.1164 14.1977 12.1109 14.2162 12.1369 14.235C12.2065 14.2851 12.1817 14.3816 12.0993 14.3816C12.0305 14.3816 12.0264 14.3721 12.0514 14.2712C12.0665 14.2104 12.0816 14.1316 12.085 14.0958C12.0944 13.9972 12.0983 13.9924 12.1565 14.0085C12.1862 14.0167 12.2106 14.05 12.2106 14.0824ZM11.9297 14.131C11.9237 14.1555 11.9428 14.1738 11.9748 14.1738C12.0454 14.1738 12.0462 14.2099 11.9763 14.2517C11.9312 14.2787 11.9223 14.2752 11.9223 14.2305C11.9223 14.2009 11.906 14.1696 11.8862 14.1608C11.834 14.1375 11.8419 14.0634 11.8952 14.0769C11.92 14.0831 11.9356 14.1075 11.9297 14.131ZM11.634 14.1738C11.634 14.188 11.6106 14.1997 11.582 14.1997C11.5534 14.1997 11.52 14.188 11.5079 14.1738C11.4956 14.1595 11.5189 14.1478 11.5598 14.1478C11.6006 14.1478 11.634 14.1595 11.634 14.1738ZM11.8136 14.3232C11.8139 14.3553 11.7979 14.3816 11.7781 14.3816C11.7583 14.3816 11.7423 14.3377 11.7427 14.2842C11.743 14.2117 11.7522 14.1967 11.7781 14.2257C11.7974 14.2472 11.8133 14.291 11.8136 14.3232ZM12.0491 14.451C12.0986 14.5055 12.1034 14.5305 12.0713 14.5675C12.0488 14.5935 12.0304 14.6448 12.0304 14.6816C12.0304 14.7195 12.0148 14.7415 11.9943 14.7324C11.9745 14.7235 11.9583 14.6826 11.9583 14.6414C11.9583 14.6003 11.9745 14.5593 11.9943 14.5505C12.0553 14.5233 12.0343 14.4855 11.9583 14.4855C11.8889 14.4855 11.8607 14.4347 11.9103 14.3989C11.9528 14.3682 11.9847 14.3802 12.0491 14.451ZM3.12211 14.4339C2.33002 14.5243 1.89892 14.7909 1.94809 15.1599C1.99025 15.4761 2.18205 15.5383 3.11132 15.5366C4.75315 15.5336 6.04055 15.2891 6.73652 14.8479L6.89519 14.7473L6.64288 14.8354C5.40124 15.2689 3.17193 15.3315 2.61342 14.9484C2.39829 14.8008 2.43039 14.7869 3.30957 14.6468C3.69897 14.5848 3.79455 14.5804 4.89513 14.5734C5.82579 14.5675 6.10329 14.5578 6.24646 14.526C6.34564 14.504 6.37802 14.4915 6.3186 14.4982C5.90863 14.5444 5.53786 14.541 5.02124 14.4863C4.42556 14.4231 3.45182 14.3963 3.12211 14.4339ZM11.7331 14.505C11.7551 14.5528 11.6455 14.5447 11.62 14.4966C11.6047 14.4682 11.6164 14.4583 11.6582 14.4642C11.6911 14.4688 11.7249 14.4872 11.7331 14.505ZM11.8142 14.6544C11.8142 14.6758 11.7979 14.6934 11.7781 14.6934C11.7583 14.6934 11.7421 14.6758 11.7421 14.6544C11.7421 14.633 11.7583 14.6154 11.7781 14.6154C11.7979 14.6154 11.8142 14.633 11.8142 14.6544ZM12.1954 14.7389C12.1717 14.914 12.1341 15.0312 12.1015 15.0312C12.0591 15.0312 12.0739 14.8391 12.118 14.8168C12.1441 14.8036 12.1405 14.7898 12.1066 14.7741C12.0417 14.7439 12.0834 14.6154 12.158 14.6154C12.201 14.6154 12.2087 14.641 12.1954 14.7389ZM11.9583 14.8805C11.9583 14.9225 11.9476 14.9299 11.9182 14.9087C11.8962 14.8928 11.889 14.8671 11.9023 14.8516C11.9396 14.8081 11.9583 14.8177 11.9583 14.8805ZM7.65195 16.3053C6.79915 16.6026 5.89212 16.8109 4.44466 17.0417C3.12229 17.2525 2.87838 17.3189 2.66601 17.526C2.56148 17.6279 2.57818 17.6408 2.7483 17.5895C2.82229 17.5673 3.3044 17.4786 3.81964 17.3926C5.4576 17.1192 6.57655 16.8133 7.69697 16.3325C8.08 16.1681 8.06727 16.1605 7.65195 16.3053ZM9.96548 17.9606C9.34489 18.5572 8.68731 19.1857 8.50419 19.3571C7.76201 20.0523 6.69472 20.8564 6.08188 21.1821C5.92708 21.2644 5.7994 21.3402 5.7982 21.3506C5.79424 21.3857 6.60016 21.6299 6.72166 21.6304C6.81502 21.6308 8.19735 20.1968 9.38899 18.8635C10.2015 17.9544 11.1354 16.8759 11.1103 16.8759C11.1012 16.8759 10.5862 17.364 9.96548 17.9606ZM3.4176 21.1499C3.36806 21.1702 3.1532 21.2293 2.94019 21.281C2.72708 21.3327 2.55272 21.387 2.55272 21.4016C2.55272 21.4168 2.57994 21.4203 2.61582 21.4096C2.65051 21.3994 2.84913 21.3678 3.05726 21.3394C3.54952 21.2721 3.59786 21.2576 3.59786 21.1764C3.59786 21.1027 3.54943 21.0956 3.4176 21.1499ZM13.0034 22.6185C13.0034 22.6784 13.0248 22.703 13.0934 22.7218C13.255 22.7661 13.191 22.7738 12.67 22.7728L12.1565 22.7719L12.3367 22.7239C12.4358 22.6976 12.6061 22.6455 12.7151 22.6082C12.9699 22.5211 13.0034 22.5223 13.0034 22.6185Z" fill="black"/>
</svg>
