<svg width="24" height="24" viewBox="0 0 24 24" fill="none" xmlns="http://www.w3.org/2000/svg">
<path fillRule="evenodd" clipRule="evenodd" d="M7.32245 1.03936C7.32286 1.17139 7.53978 1.31376 7.90599 1.42235C8.10767 1.48213 8.08728 1.51618 7.82618 1.5552C7.69745 1.57443 7.04354 1.69362 6.97954 1.70946C6.94463 1.71815 6.94721 1.73022 6.99236 1.76969C7.06998 1.83772 7.29593 1.83452 7.64513 1.76049C7.99692 1.68595 7.99289 1.70077 7.54784 2.11563C7.43708 2.21885 7.42064 2.246 7.46126 2.25833C7.59129 2.29786 7.77484 2.19234 8.09518 1.89393C8.37304 1.63505 8.74546 1.58043 8.99793 1.76152C9.08571 1.8245 9.0679 1.85745 8.86251 2.01184C8.64075 2.17842 8.5819 2.25571 8.5819 2.38C8.5819 2.50302 8.66211 2.52474 8.7607 2.42829C9.01695 2.17759 9.05903 2.14833 9.29119 2.05981C9.6225 1.93346 9.79145 1.83689 9.90012 1.71176C10.1037 1.47734 10.2287 1.4898 10.7762 1.7992C11.4299 2.16858 12.2965 2.62368 12.5336 2.72211C12.8202 2.84104 12.9323 2.9313 13.0647 3.14968C13.1244 3.24805 13.2965 3.53069 13.447 3.77768C13.9933 4.67389 14.1868 5.26038 14.1868 6.02022C14.1868 6.15353 14.1906 6.15921 14.3516 6.2708C14.5773 6.42722 14.505 6.41407 14.1687 6.23739C13.2084 5.73298 12.8615 5.17945 13.1257 4.57336C13.2547 4.2775 13.1978 4.13946 12.9468 4.13946C12.8191 4.13946 12.7767 4.12899 12.7456 4.08958C12.6978 4.02884 12.6514 4.02654 12.5755 4.08096C12.5216 4.11966 12.5179 4.11909 12.5179 4.07157C12.5179 3.99415 12.4437 3.95953 12.3179 3.97825C12.2129 3.99383 12.2042 3.98962 12.1416 3.8924C12.0596 3.76491 12.0485 3.76523 11.8373 3.90154C11.6263 4.03778 11.5095 4.05815 11.2433 4.00514C10.8528 3.9274 10.5937 3.95608 10.5356 4.08351C10.4393 4.29429 10.1103 4.50016 9.67868 4.61954L9.38486 4.70085L8.77085 4.69146C7.01767 4.66463 6.95455 4.66968 6.28516 4.88979C5.93032 5.00648 5.91404 5.01753 6.14152 4.98764C6.22817 4.97621 6.44775 4.96184 6.62961 4.9557L6.96027 4.94453L6.77132 4.99218C6.00504 5.18527 5.48809 5.21082 4.89779 5.08486C4.02131 4.89777 3.67993 4.89221 3.27148 5.05822L3.15951 5.10376L3.35951 5.10261C3.66357 5.10076 3.93393 5.15844 4.26597 5.29602C4.43162 5.36462 4.65926 5.4582 4.77179 5.50387C5.33244 5.73151 5.9487 5.74569 6.79526 5.5505C7.48585 5.39126 7.60418 5.37171 8.31597 5.29947C9.04638 5.22538 9.33698 5.16911 9.67522 5.03619L9.92011 4.93999L9.79911 5.02475C9.49151 5.24001 8.96835 5.39554 8.15677 5.51294C7.52696 5.60409 7.07804 5.69421 6.40922 5.86373C5.32163 6.13935 4.35141 6.21069 3.94522 6.04488C3.7923 5.98241 3.85276 6.05018 4.04574 6.15742C4.56124 6.44396 5.12752 6.49538 6.03503 6.33818C6.63759 6.23375 6.86523 6.2121 7.65295 6.18431C8.034 6.1709 8.40948 6.14925 8.48743 6.13634C8.6983 6.10121 8.70935 6.10773 8.53467 6.16406C8.29969 6.23982 7.93041 6.30746 7.4532 6.3622C6.72578 6.44562 6.31692 6.55491 5.87994 6.78268C5.54484 6.95737 5.45037 7.03294 5.65762 6.96057C5.8668 6.8875 6.38343 6.81404 7.08385 6.75771C8.98874 6.6046 10.1598 5.94689 10.5021 4.83811C10.6161 4.46867 10.6217 4.45762 10.6254 4.59303C10.6373 5.02577 10.4128 5.58569 10.0868 5.93591C9.49183 6.57535 8.60488 6.88986 6.94447 7.05031L6.4879 7.09438L6.8475 7.1246C7.04532 7.14127 7.43498 7.18643 7.71341 7.22507C8.98407 7.40142 10.1324 7.27547 10.6461 6.9034C11.0551 6.60722 11.098 6.29386 10.8661 5.29411C10.8573 5.25604 10.8848 5.30835 10.9273 5.41049C11.2857 6.27137 11.0876 6.92755 10.3872 7.19907C10.1732 7.28204 10.1762 7.28664 10.4161 7.24302C11.5945 7.02853 12.1221 6.61578 11.9433 6.0482C11.9208 5.97679 11.9225 5.97749 11.9808 6.06295C12.0189 6.11865 12.1287 6.19894 12.271 6.27501C12.7349 6.52316 12.9839 6.75394 12.9531 6.9073C12.9449 6.94767 12.9961 6.97756 13.2264 7.06692C13.4792 7.16509 14.1868 7.51544 14.1868 7.54252C14.1868 7.54833 13.9262 7.44869 13.6075 7.32101C12.6887 6.95284 12.3693 6.94166 11.5929 7.25055C10.8453 7.54801 8.88274 7.72041 7.9737 7.56839C7.42273 7.47628 6.98824 7.46772 6.06308 7.5307C5.63891 7.55957 5.0154 7.59515 4.67756 7.60978C3.53387 7.65922 3.48848 7.67372 2.66997 8.25005L2.37171 8.46006L2.31392 8.38476C2.20219 8.23919 2.06217 8.21996 2.12319 8.35857C2.2379 8.6193 2.12085 8.67762 1.57577 8.63131C1.36796 8.61362 1.18022 8.59382 1.15853 8.5873C1.08832 8.56603 1.11589 8.67762 1.19045 8.71632C1.22963 8.7367 1.33587 8.76595 1.42656 8.78135C1.51733 8.79674 1.59149 8.81386 1.59149 8.81929C1.59149 8.83998 1.34877 8.92353 1.19787 8.9547C0.996588 8.99635 0.959668 9.02279 1.03859 9.06891C1.13322 9.12428 1.3125 9.1117 1.64034 9.02681C1.80567 8.98402 1.94835 8.95496 1.95746 8.96217C1.97455 8.97572 1.64002 9.52279 1.58875 9.56501C1.54602 9.60021 1.55392 9.67852 1.60028 9.67852C1.7307 9.67852 1.89112 9.52944 2.11029 9.20445C2.38735 8.79374 2.49553 8.71894 2.81362 8.7183C3.118 8.71773 3.16346 8.8168 2.96686 9.05268C2.81676 9.23281 2.78331 9.45988 2.90164 9.49584C2.97387 9.51781 3.03546 9.45847 3.16725 9.2397C3.23553 9.12633 3.36362 8.96256 3.45189 8.87575C3.64648 8.68432 3.68952 8.62147 3.7333 8.46473C3.87041 7.97431 4.00245 7.96313 6.04712 8.26876C7.26385 8.45067 7.44006 8.45994 8.21069 8.38278C8.4755 8.35627 9.06048 8.32197 9.51077 8.30658C9.96106 8.29125 10.6624 8.25746 11.0694 8.23152C11.4764 8.20559 11.9337 8.17678 12.0855 8.16746C12.4236 8.14676 13.2376 8.17762 13.1755 8.20879C13.1515 8.22079 13.0682 8.23095 12.9902 8.2314C12.8129 8.23235 12.7276 8.26748 12.8457 8.29099C13.1081 8.34311 13.6584 8.59056 13.9403 8.78307C14.1146 8.90213 14.1868 8.93056 14.1868 8.8801C14.1868 8.86636 14.2027 8.85512 14.2222 8.85512C14.2464 8.85512 14.2452 8.86694 14.218 8.89287C14.1847 8.92462 14.22 8.96479 14.4429 9.14862C14.697 9.35813 15.2614 9.97789 15.1982 9.97796C15.1813 9.97796 15.1265 9.93848 15.0764 9.89032L14.9852 9.80269L14.999 10.0104C15.0226 10.3656 14.9078 10.474 14.24 10.7271C13.1548 11.1384 12.3357 11.2183 11.0694 11.0364C10.3033 10.9264 9.61508 10.9333 8.8592 11.0586C7.81716 11.2313 7.2603 11.194 6.8816 10.9261C6.74311 10.8281 6.74101 10.8343 6.83573 11.0656C7.17574 11.8963 7.97547 12.2117 9.19591 11.9964C9.85457 11.8802 10.4803 11.9213 11.1081 12.1221C11.3742 12.2073 12.256 12.5316 12.2861 12.5554C12.3077 12.5726 11.9669 12.5022 11.652 12.4245C10.9584 12.2533 10.4158 12.2427 9.69972 12.3864C9.52657 12.4211 9.25919 12.4566 9.10555 12.4651L8.82631 12.4808L8.90088 12.5277C9.42387 12.8571 10.1882 12.9591 11.038 12.813C11.5608 12.723 12.0618 12.7035 12.4392 12.7583C13.0399 12.8454 13.2691 12.8716 13.5885 12.8892C13.8778 12.9052 13.9014 12.9098 13.7775 12.9254C13.5657 12.9522 13.0919 12.9501 12.5967 12.9202C12.1707 12.8945 11.7752 12.9097 11.948 12.9451C12.0585 12.9677 11.4301 13.6083 10.3807 14.5426C10.2659 14.6447 10.1024 14.7907 10.0173 14.8669C9.09619 15.6918 8.59287 16.0008 7.70019 16.2894C6.63743 16.6329 6.29218 16.8937 5.45166 17.9871C5.29866 18.186 5.09577 18.4499 5.00065 18.5734C4.65281 19.0251 4.17262 19.5794 4.06323 19.6555C3.93321 19.7459 3.87235 19.7502 3.52613 19.6935C2.98822 19.6054 2.79838 19.7513 2.70971 20.3214C2.63216 20.8198 2.50665 21.0161 2.12545 21.2352C1.69564 21.4823 1.62857 21.5294 1.47106 21.6956C1.14975 22.0346 1.26582 22.242 1.73401 22.1653C2.5397 22.0335 3.48792 21.4816 4.23735 20.7085C4.51513 20.4218 5.06167 19.8737 5.08488 19.8584C5.09528 19.8515 5.25384 19.7111 5.43731 19.5465C6.7523 18.3658 8.22408 17.415 9.18599 17.1247C9.48135 17.0355 9.76316 16.898 10.3165 16.5729C10.4795 16.4772 10.7971 16.2939 11.0222 16.1657C12.3295 15.4214 13.1356 14.9132 14.4976 13.9748C14.7499 13.8009 14.9152 13.7313 15.1328 13.7072C15.2677 13.6923 15.2639 13.6949 15.037 13.7759C14.6567 13.9115 14.6556 13.9122 14.8018 13.9366C15.0804 13.9832 16.163 13.96 16.5484 13.8992C17.2683 13.7856 17.77 13.6562 18.6424 13.359C19.4766 13.0749 19.9332 12.9626 20.3607 12.9368C20.5522 12.9252 20.5746 12.9274 20.4844 12.9485C19.058 13.2821 18.731 13.4119 17.2589 14.2284C16.0785 14.8831 16.0009 14.9092 15.6503 14.7682C15.0636 14.5322 14.6341 14.7095 14.519 15.2354C14.4333 15.6265 14.3117 15.8089 14.0818 15.8907C13.5951 16.0637 13.456 16.1252 13.2787 16.2458C12.8628 16.5286 12.8184 16.8643 13.197 16.8643C13.8818 16.8643 14.8543 16.4927 16.3496 15.6598C16.9326 15.335 18.0005 14.9271 19.1304 14.5977C20.537 14.1877 22.2078 13.6114 22.5429 13.4207C23.1799 13.0583 23.1447 12.267 22.4777 11.9573C21.9371 11.7062 20.3389 11.5082 19.0233 11.5293L18.5226 11.5374L18.4685 11.72C18.357 12.0962 18.0354 12.5038 17.6082 12.8104C17.2289 13.0826 17.1209 13.1186 17.3986 12.8804C17.6465 12.6676 17.8969 12.3603 18.0214 12.1161C18.1278 11.9074 18.2292 11.5742 18.1946 11.5468C18.164 11.5225 17.6221 11.5533 17.0707 11.6105C16.896 11.6286 16.7497 11.6412 16.7456 11.6385C16.7414 11.6358 16.836 11.3986 16.9558 11.1114C17.4203 9.99769 17.4891 9.56322 17.3792 8.43867C17.3627 8.27036 17.3718 8.19761 17.43 8.027C17.5885 7.56258 17.4009 7.15934 16.9368 6.9667C16.6263 6.83774 16.594 6.83895 16.6047 6.97871C16.6096 7.04328 16.5882 7.16912 16.557 7.25828L16.5004 7.42046L16.2489 7.43841C15.4772 7.49334 15.1081 7.69365 14.6941 8.28224C14.5011 8.55664 14.2838 8.83021 14.2589 8.83021C14.2525 8.83021 14.2815 8.7825 14.3234 8.72418C14.3654 8.66586 14.5094 8.44972 14.6433 8.24385C15.1124 7.52291 15.4196 7.3097 16.06 7.26033C16.2818 7.24327 16.3235 7.20009 16.351 6.95961L16.3675 6.81577L16.1982 6.75304C16.0282 6.69006 15.69 6.50981 15.7418 6.50981C15.7571 6.50981 15.8201 6.5346 15.882 6.56487L15.9946 6.61999L15.876 6.49697C15.6811 6.29475 15.4562 5.90646 15.2861 5.47832C14.7913 4.23349 14.6623 3.96905 14.1682 3.18685C14.0042 2.92714 13.8268 2.62828 13.774 2.52263C13.595 2.1643 13.3226 2.04211 11.2269 1.38057C10.1344 1.03566 10.0983 1.03106 9.46353 1.15491C8.84074 1.2764 8.46228 1.32028 8.28276 1.29173C8.01175 1.24855 7.65207 1.14667 7.49883 1.06964C7.3264 0.983026 7.32229 0.982323 7.32245 1.03936ZM8.07221 3.32802C7.81724 3.3611 7.39621 3.46049 7.23765 3.52507C7.18276 3.54742 7.24354 3.55336 7.5368 3.55419C7.97628 3.55547 8.1986 3.60286 8.66824 3.79544C9.18204 4.0061 9.25677 4.03554 9.35052 4.06377C9.55503 4.12535 9.38816 4.10976 9.08281 4.03867C8.90257 3.99677 8.61342 3.92945 8.44027 3.88914C7.39347 3.64534 6.35223 3.81403 5.74927 4.32515L5.67188 4.39081L5.78079 4.35478C6.31604 4.17798 7.05991 4.19018 8.04488 4.39196C9.29949 4.64898 10.0196 4.55707 10.443 4.08588L10.5068 4.01498L10.4208 3.88985C10.0921 3.41137 9.15633 3.18749 8.07221 3.32802ZM5.04764 3.65102C4.46822 3.81486 4.35254 4.42837 4.84612 4.72014C5.2162 4.93891 5.62223 4.94184 6.26751 4.7303C6.50999 4.65077 6.77213 4.56991 6.85008 4.55056C6.98373 4.51728 6.97212 4.51632 6.64533 4.53325C5.99642 4.56684 5.46488 4.55605 5.30124 4.50604C4.731 4.33172 4.80807 3.75635 5.41732 3.63882C5.4939 3.62407 5.4789 3.62036 5.33864 3.61915C5.24336 3.61838 5.11237 3.63269 5.04764 3.65102ZM10.1698 10.1401C9.78992 10.2213 9.39776 10.4074 9.11723 10.6395L8.97552 10.7568L9.14867 10.6813C9.69843 10.4417 10.2797 10.4471 11.1325 10.6997C12.1607 11.0043 12.8415 11.036 13.6357 10.8161L13.8562 10.7551L13.569 10.7533C12.9656 10.7494 12.5916 10.667 11.8567 10.3762C11.1741 10.1061 10.6633 10.0346 10.1698 10.1401ZM8.07809 22.505C6.53167 22.5399 3.83019 22.6318 2.4732 22.6955L2.07958 22.714L2.42596 22.732C2.61644 22.7419 3.32493 22.7728 4.00036 22.8009C4.67579 22.8289 5.49051 22.8634 5.81094 22.8774C9.536 23.041 12.8412 23.0409 16.8318 22.877C17.4986 22.8496 18.4834 22.8099 19.0202 22.7886C20.3946 22.7342 20.7126 22.7156 20.5789 22.6972C20.4147 22.6745 16.607 22.5529 14.5175 22.5036C13.3169 22.4753 9.35584 22.4761 8.07809 22.505Z"/>
</svg>
