<svg width="24" height="24" viewBox="0 0 24 24" fill="none" xmlns="http://www.w3.org/2000/svg">
<path fillRule="evenodd" clipRule="evenodd" d="M11.7589 0.0393135C11.6401 0.0936459 11.5237 0.251968 10.7496 1.41234C10.6424 1.57307 10.181 2.24742 9.62242 3.05969C8.8423 4.19416 8.82014 4.22702 8.82014 4.24831C8.82014 4.25968 9.22206 4.26897 9.71332 4.26897H10.6065L10.599 6.11987C10.5949 7.13784 10.6006 7.97077 10.6115 7.97077C10.6225 7.97077 10.6315 7.95371 10.6315 7.93293C10.6315 7.80114 10.901 7.44179 11.1134 7.29035C11.8125 6.79195 12.812 6.97788 13.2448 7.68692L13.3352 7.835L13.342 6.05195L13.3489 4.26897H14.242H15.1351L15.1036 4.21343C15.0651 4.14577 14.5301 3.351 13.7869 2.25766C13.4825 1.80973 13.0465 1.16564 12.818 0.826312C12.3133 0.076588 12.3438 0.116706 12.2297 0.0523912C12.1163 -0.0116705 11.8846 -0.0181146 11.7589 0.0393135ZM1.13128 2.44093C0.930118 2.55459 0.920025 2.49299 1.38871 4.0222C1.59049 4.68044 1.83557 5.48563 1.93343 5.81137C2.03121 6.13712 2.14625 6.52029 2.18908 6.66275C2.27718 6.95621 2.35172 7.03613 2.47064 6.96474C2.48728 6.95476 2.71027 6.62453 2.9662 6.23087C3.22205 5.83728 3.46761 5.46264 3.5118 5.39838L3.59206 5.28151L3.73376 5.42302C3.81164 5.50086 4.13917 5.82237 4.46144 6.13743L5.04748 6.71032L5.12256 6.58858C5.16382 6.52161 5.23938 6.42817 5.29038 6.38085L5.38326 6.29487L5.2732 6.17654C5.21265 6.1114 4.91144 5.81504 4.60383 5.51792L4.04458 4.97769L4.13794 4.92563C4.18929 4.89701 4.58787 4.69592 5.02368 4.47871C5.98083 4.00173 6.02168 3.95744 5.62671 3.82502C5.54447 3.79741 5.34528 3.73076 5.18414 3.67681C5.023 3.62291 4.32172 3.38543 3.62582 3.14915C1.11867 2.29777 1.29569 2.34806 1.13128 2.44093ZM22.6451 4.28299C22.5466 4.3082 21.7302 4.53077 19.5218 5.13437C19.172 5.22989 19.183 5.2412 20.2302 5.85989L20.599 6.07779L19.6335 6.97226C19.1025 7.46428 18.6582 7.88302 18.6462 7.90279C18.6265 7.93552 18.7406 8.03281 18.9098 8.12745C18.951 8.15051 19.0155 8.09472 20.2292 6.98786C20.6219 6.62964 20.9476 6.34061 20.9529 6.34554C20.9583 6.3504 21.1149 6.63205 21.301 6.97131C21.7945 7.87095 21.7463 7.86539 22.0522 7.05761C22.173 6.73869 22.4362 6.05568 22.6373 5.5399C23.0202 4.55762 23.0502 4.44416 22.9529 4.34453C22.8783 4.26821 22.7797 4.2485 22.6451 4.28299ZM8.41869 5.16488C7.74659 5.3414 7.50997 6.11639 7.98895 6.57222C8.68928 7.23861 9.87732 6.53551 9.51488 5.66916C9.35517 5.28745 8.84523 5.05287 8.41869 5.16488ZM15.0875 5.1566C14.2087 5.35012 14.1392 6.52483 14.991 6.78746C15.3362 6.89392 15.7283 6.80319 15.9738 6.56002C16.5872 5.95245 15.9629 4.96385 15.0875 5.1566ZM5.94332 6.35691C4.99389 6.67501 5.21885 7.98309 6.22298 7.98309C7.42609 7.98309 7.49149 6.36449 6.28994 6.32431C6.12983 6.319 6.02795 6.32854 5.94332 6.35691ZM17.3797 6.36152C16.9982 6.48762 16.769 6.81349 16.7891 7.20121C16.8342 8.07299 18.1024 8.29689 18.5219 7.50718C18.873 6.84609 18.1395 6.11033 17.3797 6.36152ZM8.27406 7.05293C7.699 7.2117 7.31241 7.60238 7.28186 8.05555L7.2685 8.25456L7.41675 8.36418C7.67458 8.55478 7.86879 8.84287 7.90432 9.08743C7.92382 9.22174 7.91721 9.21776 8.02898 9.16267C8.21807 9.06955 8.59852 9.12085 8.80596 9.26742C9.14051 9.50383 9.22445 10.0759 8.96382 10.3428C8.92856 10.3788 8.93716 10.3841 9.05342 10.3985C9.20256 10.4168 9.51386 10.5487 9.63926 10.6468C9.73869 10.7245 9.73125 10.7449 9.726 10.4095C9.72062 10.0616 9.73528 10.0216 9.8628 10.0375C9.95267 10.0487 9.97988 10.0403 10.0468 9.98082L10.1254 9.91113V9.00713C10.1254 8.03047 10.1196 7.98157 9.9732 7.71364C9.8525 7.49277 9.41771 7.13165 9.27259 7.13165C9.21374 7.13165 9.09598 7.37318 8.86003 7.97759L8.67912 8.441L8.49561 7.99042C8.39462 7.74264 8.27051 7.45038 8.21978 7.34096C8.10699 7.09754 8.10583 7.11649 8.23464 7.09741C8.36537 7.07808 8.45865 7.11801 8.57867 7.24468L8.6648 7.33552L8.79 7.22124C8.90729 7.11421 8.92447 7.10689 9.06079 7.10524L9.20638 7.10354L9.09986 7.06544C8.933 7.0058 8.47018 6.99879 8.27406 7.05293ZM14.9259 7.0427C14.3746 7.17158 13.9252 7.59076 13.8284 8.06667C13.8133 8.14078 13.8014 8.58498 13.8014 9.07062V9.94165L13.8827 9.99529C13.9624 10.0478 14.0434 10.0515 14.1543 10.0076C14.1977 9.99042 14.2009 10.0185 14.2009 10.4099V10.8307L14.3388 10.7082C14.4896 10.5743 14.8057 10.4139 14.9188 10.4139H14.9903L14.896 10.2379C14.5382 9.57004 15.2324 8.90523 15.989 9.19123C16.024 9.2045 16.0359 9.18605 16.0505 9.09552C16.0898 8.85266 16.3813 8.44814 16.612 8.31597C16.9029 8.14944 16.5289 7.43812 16.0178 7.18573L15.8543 7.10499L15.7761 7.24853C15.7134 7.36364 15.5126 7.85162 15.3128 8.37422C15.2881 8.4391 15.2731 8.41124 15.1205 8.01639C15.0296 7.78092 14.9113 7.49467 14.8577 7.38025C14.7365 7.12161 14.7368 7.11504 14.8662 7.09476C14.985 7.07618 15.0725 7.11933 15.1994 7.25902L15.2697 7.33641L15.3888 7.22812C15.4946 7.13197 15.5251 7.11826 15.6602 7.10619L15.8125 7.09261L15.706 7.05995C15.5528 7.01294 15.0963 7.0029 14.9259 7.0427ZM11.8968 7.37154C11.0222 7.45657 10.6497 8.38755 11.2476 8.99374C11.6388 9.39024 12.3406 9.38468 12.7472 8.98199C13.3932 8.34206 12.8328 7.28062 11.8968 7.37154ZM5.8829 8.22784C5.72709 8.26663 5.68017 8.30233 5.8158 8.27882C5.92948 8.25918 6.05427 8.31705 6.16788 8.44214L6.23491 8.51593L6.35091 8.40373C6.45947 8.29872 6.47617 8.2914 6.61133 8.28906L6.75576 8.28647L6.60922 8.24117C6.43485 8.18722 6.07248 8.18058 5.8829 8.22784ZM17.3727 8.21969C17.2374 8.24427 17.1454 8.30637 17.2762 8.28483C17.3843 8.26695 17.4459 8.29373 17.5742 8.41428L17.6844 8.51776L17.7911 8.41175C17.8844 8.31919 17.9159 8.30397 18.0405 8.29127L18.1832 8.2768L18.0385 8.23485C17.8834 8.18981 17.5756 8.18279 17.3727 8.21969ZM4.23429 8.31509C3.68405 8.47335 3.77679 9.20677 4.34681 9.20412C4.96129 9.20134 5.02028 8.38654 4.41166 8.30839C4.35302 8.30087 4.27323 8.30391 4.23429 8.31509ZM19.4523 8.32848C18.9287 8.47954 19.0468 9.20361 19.595 9.20361C19.9028 9.20361 20.153 8.93783 20.0892 8.67867C20.0206 8.40006 19.7397 8.24553 19.4523 8.32848ZM5.49121 8.39602C5.23147 8.53621 5.09092 8.68272 5.09092 8.81311C5.09092 8.87427 5.07196 8.98338 5.04878 9.05559L5.0067 9.18693L5.17112 9.32832L5.33546 9.46971L5.47293 9.42101C5.63919 9.36219 5.98499 9.33559 6.10023 9.3728C6.20566 9.40685 6.20832 9.42157 6.039 9.03101C5.70499 8.26044 5.71686 8.27421 5.49121 8.39602ZM6.69432 8.48282C6.64891 8.57443 6.56271 8.76598 6.5027 8.90851C6.44276 9.05104 6.36945 9.22149 6.33979 9.28726C6.31013 9.35309 6.28974 9.40957 6.29438 9.41279C6.29908 9.41608 6.37484 9.45601 6.46274 9.50162C7.07183 9.81769 7.25725 10.4637 6.91704 11.0843C6.86405 11.1808 6.82409 11.2619 6.82818 11.2644C6.96041 11.346 7.1909 11.5278 7.285 11.6248L7.40836 11.7519V11.6673C7.40836 11.4465 7.5785 11.1034 7.79569 10.886L7.94496 10.7366L7.86982 10.6493C7.77169 10.5354 7.78908 10.5306 7.42077 10.7709C7.2865 10.8585 7.3969 10.5749 7.54549 10.4506L7.6529 10.3607L7.59084 10.2331C7.50212 10.0505 7.50076 9.68445 7.58825 9.53264C7.77087 9.21568 7.45964 8.66244 6.94472 8.38881C6.77131 8.29664 6.7902 8.28956 6.69432 8.48282ZM16.9446 8.42401C16.5187 8.68385 16.2041 9.24796 16.3447 9.49985C16.367 9.53972 16.3852 9.58963 16.3852 9.61066C16.3852 9.6317 16.3986 9.64889 16.415 9.64889C16.4316 9.64889 16.4386 9.67062 16.4308 9.69823C16.4231 9.72533 16.4277 9.75376 16.441 9.76134C16.4542 9.76898 16.4651 9.94158 16.4651 10.1449C16.4651 10.4659 16.4721 10.5274 16.5184 10.6113C16.616 10.7886 16.5796 10.832 16.4328 10.7135C16.3545 10.6503 16.1963 10.562 16.1615 10.562C16.1541 10.562 16.1162 10.6008 16.0771 10.6483L16.0061 10.7346L16.1623 10.8899C16.3398 11.0661 16.4503 11.2532 16.532 11.5158L16.5884 11.697L16.6469 11.6238C16.7048 11.5511 16.9812 11.3273 17.0693 11.2816C17.1113 11.2598 17.1068 11.2411 17.0177 11.0641C16.7012 10.4356 16.9079 9.76652 17.5043 9.48892C17.5847 9.45146 17.6537 9.41829 17.6576 9.41519C17.6805 9.39687 17.1651 8.31534 17.1343 8.3173C17.1252 8.31787 17.0398 8.36588 16.9446 8.42401ZM18.1888 8.38812C18.1637 8.42761 18.0579 8.65808 17.9538 8.90017C17.8498 9.14233 17.7594 9.35246 17.753 9.36718C17.7447 9.38632 17.7886 9.38695 17.9058 9.36945C18.0982 9.34071 18.4248 9.37842 18.5427 9.44293C18.6163 9.4833 18.6182 9.48273 18.7199 9.38739C18.7763 9.33439 18.8563 9.26881 18.8976 9.24171C18.9715 9.19312 18.972 9.19085 18.9324 9.10392C18.9102 9.05533 18.8836 8.95577 18.8731 8.8828C18.8511 8.72877 18.7087 8.56514 18.4763 8.42697C18.2765 8.3082 18.2427 8.30365 18.1888 8.38812ZM10.5887 8.77483C10.5976 8.79631 10.6049 8.99121 10.6049 9.20797V9.60207L10.6916 9.54073C10.7393 9.50699 10.8408 9.45259 10.9172 9.41987C11.0515 9.36225 11.0544 9.35877 11.0091 9.31335C10.8799 9.18377 10.7348 8.99336 10.6726 8.87162C10.6101 8.74918 10.5487 8.67842 10.5887 8.77483ZM13.2454 8.96929C13.2118 9.02798 13.1239 9.13873 13.0501 9.21549C12.9763 9.29219 12.9203 9.35814 12.9258 9.362C12.9312 9.36585 13.0287 9.4157 13.1425 9.47275L13.3494 9.57655L13.3469 9.23046C13.3441 8.84426 13.3332 8.81602 13.2454 8.96929ZM14.2808 9.43914C14.2808 9.80929 14.2712 10.019 14.2542 10.019C14.2247 10.019 14.2159 9.06728 14.2442 8.93631C14.2757 8.79037 14.2808 8.86075 14.2808 9.43914ZM4.06538 9.4272C3.87574 9.51476 3.76391 9.62393 3.69592 9.78794C3.61961 9.97197 3.59813 10.925 3.6666 11.091C3.70915 11.1944 3.71242 11.266 3.69783 11.7797L3.68153 12.353L3.86012 12.4799L4.03872 12.6068L4.05556 12.1335C4.08877 11.2017 4.18895 10.9954 4.62394 10.963C4.71962 10.9559 4.7979 10.945 4.7979 10.9388C4.7979 10.9325 4.7786 10.866 4.75501 10.7909C4.65142 10.4607 4.74035 10.0178 4.95583 9.7904L5.04176 9.69974L4.9124 9.5799C4.68463 9.36888 4.6654 9.38398 4.43717 9.95334L4.38929 10.0727L4.28803 9.84227C4.23232 9.71554 4.16842 9.5804 4.14605 9.54199C4.06702 9.40641 4.15881 9.35871 4.30289 9.46055L4.39141 9.52316L4.45278 9.46264C4.48654 9.42934 4.53072 9.40211 4.55105 9.40211C4.5713 9.40211 4.5805 9.391 4.57144 9.37741C4.53386 9.321 4.23068 9.35081 4.06538 9.4272ZM19.3686 9.37741C19.3686 9.391 19.3797 9.40211 19.3932 9.40211C19.4067 9.40211 19.4538 9.43017 19.4978 9.46447L19.5778 9.52683L19.6451 9.46447C19.6822 9.43017 19.7317 9.40211 19.7552 9.40211C19.7787 9.40211 19.7905 9.391 19.7815 9.37741C19.7725 9.36383 19.6758 9.35277 19.5668 9.35277C19.4524 9.35277 19.3686 9.3632 19.3686 9.37741ZM8.08762 9.44849C7.96085 9.50244 7.90412 9.55747 7.84888 9.67984C7.66667 10.0839 8.11953 10.5054 8.52678 10.3107C9.13423 10.0202 8.70851 9.18434 8.08762 9.44849ZM15.3814 9.45007C14.8524 9.67258 15.1745 10.4847 15.7341 10.3395C16.3149 10.1889 16.2129 9.40319 15.6127 9.40319C15.5468 9.40319 15.4427 9.42429 15.3814 9.45007ZM19.8284 9.5224C19.7997 9.57162 19.7365 9.70625 19.6882 9.82161C19.6398 9.93704 19.5923 10.0398 19.5827 10.0502C19.573 10.0605 19.5126 9.94784 19.4485 9.79975C19.2739 9.39656 19.2297 9.37646 19.0107 9.60106L18.9186 9.69551L19.0359 9.85762C19.2253 10.1193 19.286 10.463 19.1981 10.7753C19.1747 10.8587 19.1555 10.9337 19.1555 10.9419C19.1555 10.9501 19.2184 10.9571 19.2953 10.9574C19.7732 10.9592 19.9276 11.2923 19.9279 12.3217L19.928 12.613L20.0545 12.514C20.1241 12.4595 20.207 12.395 20.2388 12.3707C20.2955 12.3273 20.2961 12.3189 20.2756 11.907C20.263 11.6567 20.2651 11.4029 20.2806 11.2777C20.3307 10.8721 20.3346 10.0046 20.2868 9.85263C20.199 9.57257 19.9176 9.36989 19.8284 9.5224ZM11.5771 9.56277C10.7833 9.7525 10.2875 10.1764 10.1648 10.7702C10.1077 11.0467 10.1072 12.7775 10.1641 12.8797C10.2225 12.9842 10.374 13.0426 10.4978 13.0082C10.6964 12.9531 10.6965 12.9525 10.7114 12.2438C10.7384 10.9583 10.765 11.7505 10.7714 14.0347L10.778 16.3845L11.1243 16.1384C11.5081 15.8656 11.6903 15.7692 11.8219 15.7692H11.9096L11.9165 14.381C11.9234 13.0114 11.9241 12.9929 11.9767 12.9929C12.0293 12.9929 12.0301 13.0114 12.0368 14.381L12.0437 15.7692H12.1229C12.2666 15.7692 12.4169 15.8473 12.7983 16.1204L13.1754 16.3903L13.182 14.1117C13.1856 12.8584 13.1953 11.8166 13.2034 11.7966C13.2461 11.692 13.2678 11.8785 13.2682 12.3519C13.2686 12.9304 13.275 12.9542 13.4434 13.0057C13.561 13.0416 13.6657 13.0073 13.7619 12.9014L13.828 12.8287V11.8486C13.828 10.6549 13.8042 10.5343 13.497 10.1721C13.273 9.90785 12.69 9.57149 12.5898 9.64857C12.5377 9.68862 12.0166 10.9495 12.0166 11.0354C12.0166 11.109 11.9607 10.9965 11.8486 10.6978C11.6936 10.2843 11.5623 9.96945 11.4694 9.78851C11.3883 9.63031 11.3996 9.60068 11.5421 9.59992C11.6775 9.59916 11.9634 9.78566 11.9634 9.87462C11.9634 9.88915 12.0182 9.84448 12.0853 9.77537C12.2167 9.63998 12.3543 9.58501 12.4885 9.61433C12.5389 9.62538 12.5541 9.62248 12.5361 9.60536C12.4547 9.52828 11.8363 9.50086 11.5771 9.56277ZM5.61573 9.70796C4.72664 10.0123 4.95174 11.2286 5.89859 11.2358C6.77049 11.2425 7.05294 10.1144 6.27139 9.74706C6.11408 9.67308 5.77632 9.65299 5.61573 9.70796ZM17.751 9.7144C17.3012 9.86192 17.0815 10.4248 17.316 10.8285C17.7799 11.6273 19.0826 11.1659 18.8697 10.2782C18.7602 9.8213 18.2338 9.55601 17.751 9.7144ZM16.3562 10.164C16.3329 10.2268 16.305 10.2968 16.2942 10.3195C16.2804 10.3484 16.2919 10.3694 16.3322 10.3893C16.4112 10.4286 16.4154 10.4192 16.4064 10.2224L16.3985 10.0497L16.3562 10.164ZM8.07432 10.4603C8.07432 10.5234 8.14804 10.5349 8.24849 10.4874L8.35193 10.4386H8.21309C8.13679 10.4386 8.07432 10.4483 8.07432 10.4603ZM15.626 10.4563C15.6554 10.4629 15.7033 10.4884 15.7326 10.5132C15.7839 10.5566 15.788 10.5567 15.8447 10.5138C15.9241 10.4538 15.8974 10.4381 15.7215 10.4414C15.6397 10.443 15.5967 10.4497 15.626 10.4563ZM3.07973 10.7103C2.49928 11.1006 2.42611 11.2006 2.53222 11.4592C2.55302 11.5099 3.46297 12.2155 3.50757 12.2155C3.52605 12.2155 3.50034 11.0848 3.47402 10.7391L3.45268 10.4596L3.07973 10.7103ZM20.4874 10.7348C20.4874 10.8841 20.4779 11.0062 20.4663 11.0062C20.4548 11.0062 20.4435 11.2727 20.4412 11.5985C20.439 11.9243 20.4454 12.1906 20.4556 12.1905C20.4736 12.1903 21.1636 11.6881 21.3297 11.5544C21.4926 11.4232 21.4735 11.1435 21.2924 11.0073C21.1308 10.8858 20.5164 10.4633 20.5013 10.4633C20.4937 10.4633 20.4874 10.5854 20.4874 10.7348ZM8.67946 10.7177C8.63868 10.7326 8.59906 10.7676 8.59136 10.7953C8.58249 10.8273 8.52432 10.8673 8.43301 10.9042C8.05755 11.0558 7.84806 11.4781 7.91782 11.9426C7.93303 12.0441 7.93848 12.1597 7.92989 12.1995C7.90787 12.3016 7.95315 12.3388 8.09955 12.3388C8.19843 12.3388 8.23792 12.3517 8.28674 12.3999C8.32084 12.4335 8.40083 12.4795 8.46459 12.502C8.60233 12.5507 8.60779 12.5691 8.49718 12.6116C7.79862 12.8796 7.27573 13.7546 7.18346 14.8098L7.16703 14.998L7.32101 15.1195C8.19523 15.8099 9.86934 17.009 9.91892 16.9803C9.94858 16.9632 10.0603 16.8892 10.1673 16.8159L10.3618 16.6826L10.3701 16.4048C10.3747 16.252 10.3702 15.8827 10.3601 15.5841C10.35 15.2855 10.3401 14.9412 10.3382 14.8191C10.3218 13.8096 9.79228 12.8914 9.06577 12.6126C8.98632 12.5821 8.94895 12.5363 9.00358 12.5363C9.01653 12.5363 9.09973 12.4914 9.18845 12.4365C9.33806 12.344 9.35899 12.3379 9.47908 12.3527L9.60851 12.3685L9.61792 12.1501C9.64431 11.5398 9.63899 11.4753 9.54713 11.2955C9.46292 11.1308 9.22766 10.8828 9.15564 10.8828C9.13696 10.8828 9.10893 10.8568 9.09332 10.8251C9.03788 10.7124 8.83671 10.6602 8.67946 10.7177ZM15.1599 10.7015C15.1379 10.7096 15.084 10.7463 15.04 10.7831C14.9961 10.8199 14.9033 10.8694 14.8341 10.893C14.4906 11.0099 14.259 11.4844 14.3315 11.9228C14.3488 12.0278 14.3554 12.1672 14.346 12.2325L14.329 12.3512L14.4614 12.3428C14.5773 12.3356 14.6101 12.3452 14.7237 12.4201C14.7951 12.4671 14.8805 12.5133 14.9135 12.5226C15.0021 12.5477 14.9893 12.5646 14.8093 12.6597C14.4879 12.8295 14.1001 13.217 13.9206 13.5481C13.6657 14.0181 13.6314 14.2656 13.6009 15.8555L13.5848 16.6946L13.8095 16.8489C14.0818 17.0356 14.0308 17.0372 14.2909 16.8342C14.4099 16.7413 15.0197 16.285 15.646 15.8202C16.2723 15.3554 16.7848 14.9678 16.7848 14.9588C16.7834 13.9595 16.1479 12.8409 15.4462 12.603C15.3863 12.5826 15.3864 12.5435 15.4465 12.5258C15.4722 12.5183 15.5572 12.4731 15.6353 12.4255C15.7317 12.3666 15.8084 12.3387 15.8747 12.3385C16.037 12.3378 16.037 12.3377 16.0449 11.8935L16.0522 11.4875L15.9654 11.3231C15.8741 11.15 15.6837 10.9545 15.5553 10.9018C15.5133 10.8846 15.4842 10.8578 15.4906 10.8423C15.5223 10.7657 15.2739 10.66 15.1599 10.7015ZM4.516 11.2522C4.31224 11.3286 4.25516 11.5481 4.25325 12.2626C4.25168 12.8448 4.29751 13.0302 4.32574 12.5557C4.3522 12.1113 4.53393 11.7864 4.87646 11.5712C5.03712 11.4702 5.0391 11.4552 4.90858 11.3281C4.80152 11.2238 4.66315 11.197 4.516 11.2522ZM19.1555 11.2445C18.9931 11.3052 18.9158 11.4616 19.0141 11.5303C19.4206 11.8141 19.6621 12.3121 19.6003 12.7391C19.5851 12.8443 19.5962 12.8505 19.6816 12.7844C19.7896 12.7009 19.7573 11.6886 19.6386 11.44C19.5613 11.278 19.3233 11.1818 19.1555 11.2445ZM5.55708 11.4621L5.4505 11.4946L5.55933 11.4972C5.65085 11.4993 5.6876 11.5176 5.79085 11.6119C5.90732 11.7183 5.91509 11.7214 5.94244 11.674C5.98819 11.5948 6.15976 11.5 6.26246 11.4972L6.35616 11.4946L6.24964 11.4621C6.191 11.4442 6.03518 11.4295 5.90336 11.4295C5.77148 11.4295 5.61566 11.4442 5.55708 11.4621ZM17.7038 11.4621L17.5972 11.4946L17.7006 11.4972C17.7857 11.4993 17.8251 11.5193 17.9229 11.6099L18.0418 11.7201L18.1087 11.6464C18.1892 11.5578 18.2587 11.5206 18.383 11.4995L18.4763 11.4838L18.3697 11.4549C18.2293 11.4168 17.8381 11.4211 17.7038 11.4621ZM5.19696 11.6572C4.75903 11.9242 4.6114 12.2145 4.6114 12.8086V13.0989L5.85672 14.0255C6.97589 14.8581 7.10381 14.9465 7.11936 14.8978C7.12891 14.8681 7.13784 14.6535 7.13934 14.421C7.14146 14.0776 7.1495 13.9926 7.18196 13.9676C7.24061 13.9226 7.24068 12.5394 7.1821 12.3309C7.10402 12.0533 6.91901 11.8203 6.64918 11.6599C6.43553 11.5328 6.40716 11.531 6.34702 11.6404C6.2999 11.7262 5.96992 12.5594 5.96992 12.5928C5.96992 12.8099 5.90616 12.7281 5.7335 12.2893C5.53751 11.7912 5.42534 11.5486 5.39206 11.5502C5.38026 11.5508 5.29243 11.5989 5.19696 11.6572ZM17.3293 11.6358C17.1212 11.7497 16.9419 11.93 16.833 12.1347L16.7448 12.3006L16.7357 13.0786C16.7275 13.7903 16.7616 14.4504 16.8272 14.8498L16.8404 14.93L17.2455 14.6285C17.4683 14.4626 17.8782 14.1549 18.1566 13.9447C18.826 13.4391 19.1866 13.1704 19.2568 13.1249C19.3352 13.074 19.3482 12.4775 19.2753 12.2772C19.184 12.0262 18.9227 11.7438 18.651 11.6023L18.5414 11.5452L18.4654 11.7014C18.4235 11.7873 18.3146 12.052 18.2233 12.2895C18.0437 12.7568 18.0435 12.7573 18.0265 12.7064C17.8955 12.3133 17.5536 11.5491 17.5087 11.5491C17.497 11.5491 17.4163 11.5881 17.3293 11.6358ZM2.11325 12.5008C1.96555 12.5966 1.97427 12.3012 1.97489 17.1808C1.97557 22.2544 1.95668 21.8137 2.17865 21.9478C2.4298 22.0997 2.48046 22.0849 3.03398 21.6969C3.27892 21.5252 4.06886 20.9735 4.78938 20.471C5.50996 19.9685 6.7591 19.0972 7.56527 18.5347L9.03113 17.512L8.92052 17.4242C8.85962 17.3758 8.40744 17.0364 7.91557 16.67C7.42377 16.3035 6.43587 15.565 5.72033 15.0288C5.00473 14.4927 4.17783 13.8731 3.8827 13.652C2.12573 12.3357 2.2465 12.4143 2.11325 12.5008ZM21.4816 12.5796C21.3911 12.644 21.1397 12.83 20.923 12.9929C20.0684 13.6352 19.1086 14.3527 17.5704 15.4994C16.8524 16.0346 15.957 16.7002 15.5807 16.9785C15.2043 17.2567 14.8958 17.4974 14.895 17.5134C14.8941 17.5293 15.2801 17.8118 15.7525 18.1411C18.2828 19.9046 21.2854 21.9859 21.3341 22.01C21.5368 22.1105 21.8795 21.937 21.9513 21.6975C21.9977 21.5426 21.989 12.7542 21.9423 12.6507C21.8479 12.4412 21.7067 12.4195 21.4816 12.5796ZM17.1343 13.6468C17.1245 13.9727 17.1147 14.0803 17.104 13.98C17.0836 13.7895 17.1061 13.0521 17.1304 13.1166C17.1405 13.1435 17.1422 13.3822 17.1343 13.6468ZM11.737 16.2741C11.693 16.2928 11.5831 16.3618 11.4929 16.4274C11.4026 16.4929 11.14 16.6798 10.9094 16.8427C10.6788 17.0056 10.4394 17.1788 10.3774 17.2277L10.2647 17.3165L10.6512 17.5978C10.8638 17.7526 11.2071 18.004 11.414 18.1566C11.9713 18.5675 11.9479 18.5679 12.5365 18.1345C12.7271 17.9941 13.0598 17.7518 13.2757 17.5961C13.7331 17.2662 13.707 17.3154 13.5006 17.172C13.4096 17.1087 13.2093 16.9652 13.0555 16.8531C12.4988 16.4473 12.3218 16.3246 12.231 16.2817C12.1191 16.2289 11.8527 16.2247 11.737 16.2741ZM9.7125 18.119C9.65972 18.1472 5.3208 21.1591 4.42496 21.7894C4.16856 21.9698 3.7101 22.2892 3.4061 22.4993C2.9544 22.8115 2.85334 22.8922 2.85334 22.9407V23H11.9472C19.87 23 21.0429 22.9954 21.0559 22.9642C21.077 22.9134 21.0176 22.8588 20.7005 22.6369C19.1936 21.5827 14.2269 18.1395 14.1792 18.116C14.1065 18.0801 14.164 18.0427 13.1754 18.7676C12.3871 19.3454 12.3135 19.383 11.9729 19.3818C11.6335 19.3806 11.5492 19.3442 11.0709 18.9929C9.70207 17.9872 9.81861 18.0622 9.7125 18.119Z"/>
</svg>
