<svg width="24" height="24" viewBox="0 0 24 24" fill="none" xmlns="http://www.w3.org/2000/svg">
<g clip-path="url(#clip0_1981_49)">
<path fill-rule="evenodd" clip-rule="evenodd" d="M1.04873 3.32532V5.65063L2.84724 5.66364C3.83638 5.67087 4.84711 5.67105 5.09326 5.66405L5.5409 5.65144L5.53147 3.33549L5.5221 1.01949L3.28544 1.00977L1.04873 1V3.32532ZM18.4676 3.32919V5.6578H20.7134H22.9592V3.32919V1.00058H20.7134H18.4676V3.32919ZM6.8554 1.39815V1.75783H6.52675H6.19809V2.09774V2.4377L6.86455 2.44799L7.53095 2.45835L7.54138 2.84643L7.55175 3.23451H6.87492H6.19809V3.5942C6.19809 3.79206 6.21042 3.95192 6.22548 3.94943C6.24054 3.947 6.38841 3.947 6.55413 3.94943L6.8554 3.95394V4.33254V4.71119H6.52675H6.19809V5.07088V5.43062H6.52535H6.85267L6.87364 4.73011H7.20229H7.53095L7.54149 5.08036L7.55198 5.43062H7.87924H8.20655V4.69228V3.95394H8.55345H8.90034V4.69228V5.43062H9.26553H9.63066V4.69228C9.63066 3.89379 9.61655 3.94636 9.83153 3.94636C9.88173 3.94636 10.1611 3.94804 10.4523 3.95012L10.9818 3.95394V4.33254V4.71119H10.6532H10.3245V5.07088V5.43062H10.6532H10.9818V5.07088V4.71119H11.3105H11.6391V5.07088V5.43062H11.986H12.333V5.07088V4.71119H12.6981H13.0633V5.07088V5.43062H13.7388H14.4144V5.07088V4.71119H14.7431H15.0717V5.07088V5.43062H15.4186H15.7655V5.07088V4.71119H16.4594H17.1532V5.07088V5.43062H17.4818H17.8105V5.07088V4.71119H17.4818H17.1532V3.97285V3.23451H16.8063H16.4594V2.83694V2.43938H17.1349H17.8105V2.0986V1.75783H17.4818H17.1532V1.39815V1.03846H16.4607H15.7683L15.7578 1.38866C15.7458 1.78623 15.7913 1.7469 15.3365 1.75384L15.0717 1.75783V2.0986V2.43938H14.7431H14.4144L14.4139 2.16488C14.4131 1.72035 14.4278 1.73695 14.0475 1.75106L13.7206 1.76321V1.40081V1.03846H13.3919H13.0633V1.39948V1.76049L12.689 1.74973L12.3147 1.73892L12.3095 1.49282C12.3067 1.35743 12.3026 1.19983 12.3004 1.14257L12.2964 1.03846H11.9678H11.6391V1.39815V1.75783H11.3105H10.9818V1.39815V1.03846H10.6532H10.3245V1.39815V1.75783H10.6532H10.9818V2.49617V3.23451H10.6532H10.3245V2.83694V2.43938H9.97761H9.63066V1.73892V1.03846H8.91998H8.20929L8.19874 1.38866L8.18826 1.73892L7.54924 1.76078V1.39959V1.03846H7.20229H6.8554V1.39815ZM4.92001 3.3481V5.05197H3.27674H1.63347V3.3481V1.64424H3.27674H4.92001V3.3481ZM22.3389 3.3481V5.05197H20.7139H19.0889V3.3481V1.64424H20.7139H22.3389V3.3481ZM8.93727 2.0986V2.43938H9.28416H9.63066L9.63105 3.17772V3.91606H9.28416H8.93727V3.17772V2.43938H8.57208H8.20694V2.0986V1.75783H8.57208H8.93727V2.0986ZM12.3046 2.10572L12.3151 2.4536L12.4429 2.45777C12.5132 2.46002 12.6816 2.46535 12.8172 2.46957L13.0637 2.47726V2.85591V3.23451H13.3923H13.721V2.83694V2.43938H13.3923H13.0637V2.0986V1.75783H13.3923H13.721V2.09722V2.43654L14.0588 2.44742L14.3965 2.45835V2.83694V3.2156L14.0588 3.22647L13.721 3.23735V3.57673V3.91606H13.3923H13.0637V3.57528V3.23451H12.3516H11.6395V3.57528V3.91606L11.7947 3.9164C11.8801 3.91658 12.0362 3.92745 12.1416 3.94058L12.3334 3.96447V4.33786L12.333 4.71119H11.9864H11.6391L11.6395 4.31363V3.91606H11.3109H10.9822V3.57528L10.9818 3.23451H11.3109H11.6395V2.49617L11.6391 1.75783H11.9668H12.2941L12.3046 2.10572ZM16.4598 2.0986L16.4594 2.43938H16.1128H15.7659V2.83694V3.23451H16.1128H16.4594L16.4598 3.57528V3.91606H16.1128H15.7659V4.31363L15.7655 4.71119H15.419H15.0717L15.0721 4.31363V3.91606H14.7435H14.4148V3.57528V3.23451H14.7435H15.0721V2.83694L15.0717 2.43938H15.419H15.7659V2.0986V1.75783H16.1128H16.4598V2.0986ZM2.25491 3.32919V4.4083H3.27741H4.29985V3.32919V2.25008H3.27741H2.25491V3.32919ZM19.6738 3.32919V4.4083H20.7145H21.7553V3.32919V2.25008H20.7145H19.6738V3.32919ZM8.20772 3.57528V3.91606H7.87907H7.55042V3.57528V3.23451H7.87907H8.20772V3.57528ZM15.0731 3.57528V3.91606H15.42H15.7669V3.57528V3.23451H15.42H15.0731V3.57528ZM14.3953 4.32311L14.3975 4.71119H14.0598H13.722V4.3389C13.722 3.88864 13.7026 3.91085 14.0831 3.92415L14.3929 3.93497L14.3953 4.32311ZM12.7053 6.05392C12.4519 6.11749 12.3861 6.18371 12.4342 6.3268C12.4553 6.38972 12.4575 6.47064 12.4392 6.52171C12.4221 6.56971 12.4104 6.67191 12.4133 6.74871C12.4162 6.82558 12.3893 6.94733 12.3534 7.01927C12.3082 7.1099 12.3011 7.1545 12.3302 7.16456C12.4211 7.19602 12.4772 7.29475 12.5016 7.46623C12.5316 7.67751 12.5578 7.70105 12.7634 7.70186C13.1046 7.70313 12.9192 7.94148 12.4557 8.09746C12.2587 8.16368 11.9692 8.35692 11.9692 8.42204C11.9692 8.49711 12.7651 8.46918 12.7852 8.39341C12.7948 8.35697 12.8222 8.23766 12.8461 8.12829C12.8954 7.90197 12.9261 7.86704 13.0043 7.94818C13.0826 8.02939 13.0882 8.02713 13.4116 7.78619L13.7038 7.56849L13.7057 7.36091C13.7068 7.2468 13.7379 7.03795 13.775 6.89678C13.9509 6.22778 13.4828 5.8589 12.7053 6.05392ZM1.67151 6.71656V7.0966H1.34286H1.01421V7.51308V7.92962H2.01841H3.02261V8.30822V8.68687H2.34706H1.67151V9.06553V9.44413H1.34286H1.01421V9.84169V10.2393H1.34286H1.67151V9.84169V9.44413H2.34706H3.02261V9.84169V10.2393H2.67572H2.32882V10.5989V10.9587H2.00017H1.67151V11.2995V11.6402H1.34286H1.01421V11.9999V12.3596H1.34286H1.67151V12.7193V13.079H1.34543H1.01939L1.00762 13.4231C0.993567 13.8372 0.958314 13.7985 1.34894 13.7985H1.67151V13.4387V13.079H2.00017H2.32882V13.4387V13.7985H2.67572H3.02261V14.8965V15.9945H2.67572H2.32882V16.7707V17.5469H2.89024C3.19904 17.5469 3.50304 17.5575 3.56579 17.5706L3.67992 17.5943V17.2298V16.8654H3.35126H3.02261V16.43V15.9945H3.67875H4.33483L4.35547 16.8464H4.66588H4.97629L4.99693 15.9945H5.32441H5.65184V15.2373V14.48H5.32319H4.99453V14.1392V13.7985H5.32319H5.65184V13.4387V13.079H5.32319H4.99453V12.3596V11.6402H5.32319H5.65184V11.2811V10.9221L5.32352 10.9309L4.99526 10.9397L4.99487 11.2885L4.99453 11.6373L4.67503 11.6482L4.35547 11.6591L4.33561 13.079H4.6651H4.99453V13.4141V13.7491L4.63849 13.7736C4.44265 13.7871 3.99898 13.7981 3.65253 13.7982L3.02261 13.7985V13.4387V13.079H3.35126H3.67992V12.7193V12.3596H3.35126H3.02261V12.0238V11.688L3.15955 11.6645C3.23485 11.6516 3.38278 11.6409 3.4882 11.6406L3.67992 11.6402V11.2995V10.9587H4.00857H4.33723V10.5989V10.2393H4.00857H3.67992V9.84169V9.44413H4.00857H4.33723V9.06553V8.68687H4.66588H4.99453V9.46304V10.2393H5.32319H5.65184V9.44279V8.64627L4.99453 8.69775V8.31365V7.92962H5.32319H5.65184V7.75923V7.58885H5.31382H4.97574L4.98884 7.75923L5.0019 7.92962H4.6878H4.37376L4.37337 7.27647C4.37315 6.91719 4.36277 6.55942 4.35033 6.48134L4.32769 6.33935H3.67518H3.02261V6.71795V7.0966H2.69529H2.36798L2.35749 6.72743L2.34706 6.35826L2.00926 6.34739L1.67151 6.33651V6.71656ZM4.98226 6.36775C4.97311 6.38336 4.97445 6.55375 4.98516 6.74634L5.00469 7.0966H5.32826H5.65184V6.71795V6.33935H5.32536C5.14575 6.33935 4.99141 6.35213 4.98226 6.36775ZM18.3231 7.13448V7.92962H18.67H19.0169V8.2893V8.64899L18.7339 8.65477C18.5782 8.65795 18.4262 8.66223 18.3961 8.66426C18.3487 8.66755 18.3413 8.82117 18.3413 9.80387V10.9397L18.6791 10.9506L19.0169 10.9615V10.6004V10.2393H19.3455H19.6742V11.2995V12.3596H19.3455H19.0169V11.9985V11.6374L18.6791 11.6483L18.3413 11.6591L18.3308 12.0094L18.3203 12.3596H18.6686H19.0169V12.7193V13.079H18.6882H18.3596V13.4009V13.7511C18.3596 13.7867 18.3701 13.7879 18.7248 13.7937L19.0169 13.7985V14.5368V15.2751H19.3455H19.6742V15.6348V15.9945H18.9986H18.3231V16.3921V16.7896H18.67H19.0169V17.129V17.4684L18.6791 17.4792L18.3413 17.4901L18.3313 18.1243L18.3213 18.7586H17.7188H17.1164L17.1363 20.1785L17.4741 20.1893L17.8118 20.2002V20.8993V21.5983H17.4846H17.1572L17.1468 21.2481L17.1363 20.8978H16.8076H16.479L16.4685 20.5476L16.458 20.1974H16.1124H15.7669V19.8377V19.4779H16.1138H16.4607V19.1183V18.7586H16.1138H15.7669V19.1183V19.4779H15.5843H15.4017V19.8377V20.1974H15.5843H15.7669V20.5381V20.8789H15.42H15.073V20.1785V19.4779H14.7444H14.4158V19.1781C14.4158 18.7452 14.4275 18.7586 14.0467 18.7586H13.7219V19.4779V20.1974H13.3933H13.0646V20.5373V20.8773L12.3617 20.8875L11.6587 20.8978L11.6482 21.2481L11.6377 21.5983H10.9453H10.2528V21.9391V22.2798H10.9466H11.6405V22.6396V22.9993H11.9663H12.2922L12.3049 22.6869C12.3224 22.2572 12.3413 22.2798 11.9652 22.2798H11.6405V21.9391V21.5983H12.3525H13.0646L13.0645 21.9485L13.0645 22.2988L13.3932 22.2867L13.7219 22.2745V22.6369V22.9993H14.3975H15.073V22.6396V22.2798H14.3975H13.7219V21.2386V20.1974H14.0506C14.2867 20.1974 14.3805 20.2107 14.3839 20.2447C14.3864 20.2707 14.3906 20.5817 14.393 20.9357L14.3975 21.5794L15.7669 21.6V22.2996V22.9993H16.1138H16.4607V22.6612V22.3232L16.6524 22.2993C16.7579 22.2862 17.0577 22.2808 17.3188 22.2871L17.7936 22.2988L17.7886 22.649L17.7835 22.9993H18.4002H19.0169V22.6396V22.2798H19.3455H19.6742V22.6396V22.9993H20.329C21.0825 22.9993 21.0209 23.0365 21.0178 22.5828L21.0157 22.2988L21.3492 22.2879L21.6826 22.277V21.9377V21.5983H22.0113H22.34V22.2988V22.9993H22.6686H22.9973V22.2988V21.5983H22.6686H22.34V20.8978V20.1974H22.6686H22.9973V19.4779V18.7586H22.3217H21.6461V19.1183V19.4779H21.993H22.34V19.8377V20.1974H21.6644H20.9888V18.8343V17.4712H20.3315H19.6742V16.7329V15.9945H20.0028H20.3315V16.3921V16.7896H20.6578H20.9841L20.9956 16.392L21.007 15.9943L20.6693 15.9945L20.3315 15.9945V15.6348V15.2751H20.6589H20.9862L20.9967 14.887L21.007 14.4989L21.6461 14.4771L21.6535 15.0938C21.6576 15.433 21.6627 15.7702 21.6649 15.843L21.6689 15.9756L22.34 15.9973V16.3921V16.7868L21.6644 16.8086L21.6445 18.1906H22.3222H23L22.9895 17.8404L22.979 17.4901H22.6595H22.34V17.1399V16.7896H22.6686H22.9973V16.0324V15.2751H22.6686H22.34V14.8776V14.48H22.6686H22.9973V14.1155V13.7511L22.8831 13.7747C22.8204 13.7878 22.6725 13.7985 22.5545 13.7985H22.34V14.1392V14.48H22.0113H21.6826V13.7795V13.079H22.0113H22.34V12.7193V12.3596H22.6686H22.9973V11.9999V11.6402H22.6686H22.34V11.2995V10.9587H22.6686H22.9973V10.5989V10.2393H22.6686H22.34V10.5989V10.9587H22.0113H21.6826V10.2014V9.44413H21.3357H20.9888V9.06692V8.68971L21.6644 8.66796L21.6748 8.29879L21.6853 7.92962H21.337H20.9888V8.28653V8.64344L20.6752 8.6557C20.2885 8.67079 20.3315 8.76946 20.3315 7.86646V7.0966H20.6602H20.9888V6.71795V6.33935H20.6602H20.3315V6.71795V7.0966H20.0028H19.6742V6.71795V6.33935H18.9986H18.3231V7.13448ZM21.6539 6.70852L21.6644 7.07769L22.34 7.09944V6.71939V6.33935H21.9917H21.6435L21.6539 6.70852ZM10.4065 6.72766C10.0971 6.83049 9.84832 7.20429 9.90644 7.4789C9.92256 7.55495 9.90555 7.64223 9.85233 7.75611C9.67624 8.13338 10.0426 8.49584 10.4375 8.33505C10.6233 8.25934 10.623 8.25848 10.6105 8.84708C10.6002 9.33059 10.6035 9.35679 10.6987 9.54412C10.781 9.70607 10.7919 9.75928 10.7637 9.86101C10.7045 10.0751 10.8609 10.284 11.1207 10.3379C11.4791 10.4122 11.4974 11.26 11.1436 11.4008C10.9985 11.4585 10.6587 11.962 10.39 12.5172C9.75014 13.8397 8.581 14.8578 6.92044 15.5386C6.68455 15.6353 6.68299 15.6388 6.78194 15.84C7.20296 16.6956 8.35989 16.578 9.3478 15.5791C9.56462 15.3598 9.74189 15.186 9.74172 15.1928C9.73949 15.2716 9.33765 15.8163 9.10689 16.0532C8.69568 16.4752 8.4628 16.5935 8.04038 16.5947L7.72601 16.5955L7.45559 16.8843C7.11009 17.2531 7.09135 17.3264 7.38865 17.1457C7.58204 17.0282 7.60837 17.0912 7.47729 17.3576C7.38202 17.5513 7.38497 17.6953 7.48755 17.8537C7.65919 18.1187 7.96051 18.1857 7.89631 17.9445C7.82362 17.6713 7.82926 17.6472 8.04412 17.3179C8.15892 17.1419 8.29 16.9578 8.33529 16.9088L8.41773 16.8197L8.71024 17.0274C9.13177 17.3267 9.29509 17.3762 9.86918 17.3784C10.3071 17.3801 10.3697 17.3896 10.6769 17.5014C10.86 17.5681 11.0597 17.6227 11.1207 17.6227C11.2381 17.6227 11.3116 17.7487 11.3116 17.9501C11.3116 18.004 11.3332 18.0391 11.3664 18.0391C11.4026 18.0391 11.4211 18.0016 11.4211 17.9287C11.4211 17.6436 11.4955 17.6342 11.7152 17.8917L11.8814 18.0865H12.1194C12.5538 18.0865 12.6845 17.9235 12.3251 17.83C12.0709 17.7638 11.9472 17.4333 12.1767 17.4333C12.2482 17.4333 12.2357 17.3814 12.1157 17.1803C11.8722 16.7722 11.7518 16.1209 11.8123 15.5401L11.8459 15.2183L11.8712 15.4076C12.0926 17.0645 12.5861 17.6515 13.4056 17.2327C13.5494 17.1593 13.7614 17.0538 13.8769 16.9984C14.0988 16.892 14.1194 16.8647 14.0335 16.7909C13.5126 16.3426 13.1307 15.0441 12.9363 13.0601C12.8349 12.0264 12.7926 11.7617 12.6436 11.2287C12.5221 10.7939 12.4865 10.1584 12.5664 9.84939C12.6296 9.60474 12.6137 9.52452 12.4658 9.34228L12.3712 9.22573L12.6174 9.19878C13.6186 9.08936 13.9639 8.97027 14.8172 8.44008C15.3767 8.09249 15.4726 8.04899 15.5132 8.12435C15.6472 8.37259 15.8291 8.28919 15.9436 7.9269C16.0792 7.49816 16.0619 7.41881 15.8045 7.28954C15.5483 7.16086 15.5585 7.15455 15.365 7.56386C15.211 7.88937 15.199 7.89735 14.4077 8.20116C14.0806 8.32672 13.7226 8.46547 13.6122 8.50949C13.4264 8.58352 13.3415 8.58942 12.4801 8.58861C11.4317 8.58757 11.3718 8.57918 11.294 8.42314C11.1798 8.19428 11.2293 8.08555 11.5068 7.95536C11.599 7.91215 11.6405 7.8712 11.6275 7.83621C11.5671 7.67294 11.5298 7.46201 11.5498 7.39666C11.5679 7.33761 11.5493 7.31337 11.4613 7.28156C11.3888 7.25536 11.2908 7.15554 11.1812 6.99625C10.9631 6.67937 10.7619 6.60962 10.4065 6.72766ZM3.67947 7.51308V7.92962H4.00813H4.33678V8.30822L4.33723 8.68687H4.00813H3.67947V9.06553L3.67992 9.44413H3.35082H3.02261L3.02216 9.06553L3.02261 8.68687H3.35082H3.67947V8.30822V7.92962H3.35082H3.02261L3.02216 7.51308L3.02261 7.0966H3.35082H3.67947V7.51308ZM19.6737 7.51308V7.92962H19.3451H19.0169L19.0164 7.51308V7.0966H19.3451H19.6742L19.6737 7.51308ZM13.7399 7.68595C13.7273 7.74709 13.6769 7.91493 13.6279 8.05894C13.5147 8.39196 13.4829 8.38537 14.0871 8.15397C14.6326 7.945 14.6518 7.92031 14.3058 7.8723C14.0329 7.83448 13.9365 7.79341 13.8426 7.67531L13.7628 7.57485L13.7399 7.68595ZM22.3395 8.68687V9.44413H22.6681H22.9968V8.68687V7.92962H22.6681H22.3395V8.68687ZM15.9795 8.13378C16.005 8.46698 15.8959 8.52944 15.615 8.34257L15.4391 8.22551L15.3015 8.3118C15.2258 8.35923 15.016 8.4948 14.8352 8.61301C14.2211 9.01457 13.8434 9.17935 13.4066 9.23626L13.2195 9.26061L13.1577 9.57009C13.0672 10.0223 13.0607 10.0252 12.9728 9.65239C12.8916 9.30804 12.8505 9.25332 12.7138 9.30775C12.6672 9.32625 12.6681 9.34222 12.7209 9.42573C12.7705 9.50416 12.7759 9.55922 12.7497 9.71983C12.6817 10.1376 12.7155 10.8747 12.8178 11.2059C12.963 11.6757 13.0174 12.0027 13.1173 13.0045C13.168 13.5141 13.229 14.0417 13.2527 14.1771L13.2958 14.4232L13.3654 14.1771C13.4037 14.0417 13.4885 13.7536 13.5538 13.5369L13.6727 13.1428L14.1238 13.8398C14.6237 14.6119 16.4753 17.3777 16.5596 17.4781C16.5891 17.5131 16.6379 17.532 16.6682 17.5199C16.754 17.4858 16.7913 17.5862 16.7697 17.7931C16.7425 18.0535 16.7753 18.0891 17.0602 18.1079C17.4886 18.1361 17.587 17.9469 17.3953 17.4634C17.3481 17.3446 17.3162 17.2083 17.3244 17.1606C17.3574 16.9655 16.3256 15.0427 15.9469 14.5936C15.6951 14.2949 15.7096 14.3235 15.4584 13.6295C15.2038 12.9263 15.2176 12.9074 15.5288 13.5329C15.8143 14.1067 16.0034 14.4172 16.1596 14.5688C16.3039 14.7089 16.8619 14.9188 16.8619 14.8331C16.8619 14.7318 16.6142 14.2843 16.352 13.9121C14.7667 11.661 14.2744 10.5175 14.5239 9.66575C14.7276 8.9705 14.7008 8.98594 15.6546 9.01463C16.8671 9.05118 17.0125 8.77617 16.1446 8.08751C15.9558 7.93777 15.9642 7.9354 15.9795 8.13378ZM20.331 9.06553V9.44413H20.6597H20.9888L20.9883 10.2014V10.9587H21.3352H21.6826L21.6821 11.2995V11.6402H22.0108H22.34L22.3395 11.9999L22.34 12.3596H22.0108H21.6821V11.9999V11.6402H21.0065H20.331V10.9397V10.2393H20.0023H19.6742L19.6737 9.84169V9.44413H19.345H19.0164V9.06553V8.68687H19.6737H20.331V9.06553ZM3.67908 10.5989L3.67992 10.9587H3.35043H3.02177V11.2995V11.6402H2.69819H2.37456L2.35035 11.3951C2.30824 10.969 2.31649 10.9587 2.69708 10.9587H3.02177V10.5989L3.02261 10.2393H3.35043H3.67992L3.67908 10.5989ZM2.33903 11.7178C2.34979 11.7605 2.34929 11.9224 2.33803 12.0775L2.31744 12.3596H1.99403H1.67151L1.67068 11.9999L1.67151 11.6402H1.99504C2.29134 11.6402 2.32112 11.6469 2.33903 11.7178ZM3.02177 12.7193L3.02261 13.079H2.67488H2.32882L2.32798 12.7446C2.32798 12.3373 2.30645 12.3596 2.6992 12.3596H3.02261L3.02177 12.7193ZM20.3308 12.7193V13.079H20.0021H19.6735V13.4198V13.7606H19.3448H19.0162V13.4198L19.0169 13.079H19.3448H19.6735V12.7193L19.6742 12.3596H20.0021H20.3308V12.7193ZM21.664 12.5964C21.6775 12.7266 21.6829 12.8843 21.6761 12.9466L21.6636 13.0601H21.335H21.0063L20.9853 12.3596H21.3124H21.6396L21.664 12.5964ZM20.9881 14.1392V14.48H20.6594H20.3308V14.8776L20.3315 15.2751H20.0021H19.6742L19.6735 14.5368V13.7985H20.3308H20.9881V14.1392ZM1.01337 14.8776V15.2751H1.67068H2.32798V14.8776V14.48H1.67068H1.01337V14.8776ZM4.98533 15.2467L4.99526 15.9945H4.66343H4.33165L4.33667 15.72C4.34582 15.2249 4.38291 15.2751 4.00773 15.2751H3.67908V14.8766V14.4782L4.97546 14.4989L4.98533 15.2467ZM1.01337 16.768V17.5415L1.34208 17.5537L1.67084 17.5659L1.67073 16.7802L1.67068 15.9945H1.34202H1.01337V16.768ZM4.9937 17.2156V17.5659H5.32235H5.651V17.2156V16.8654H5.32235H4.9937V17.2156ZM20.3309 19.194V20.1974H20.6595H20.9888L20.9882 20.534C20.9882 20.9254 20.9919 20.9287 21.4152 20.9128L21.647 20.9041L21.663 21.2512L21.6791 21.5983H21.3336H20.9882V21.9391V22.2798H20.3309H19.6742L19.6736 21.9391V21.5983H19.071H18.4685V21.9391V22.2798H18.1399H17.8112V21.9391L17.8118 21.5983H18.1399H18.4685V21.2628V20.9272L18.7097 20.9016C18.8423 20.8875 19.1135 20.8876 19.3122 20.9018L19.6736 20.9276V21.263V21.5983H20.0022H20.3309V20.8978V20.1974H19.4781H18.6253L18.6017 19.9077C18.5706 19.527 18.5712 18.2482 18.6024 18.2158C18.6158 18.202 19.0102 18.1906 19.4789 18.1906H20.3309V19.194ZM1.05007 20.5855V22.9236H3.27596H5.50185L5.52305 22.8005C5.53476 22.7328 5.53961 21.6846 5.53387 20.4711L5.52344 18.2648L1.05007 18.2474V20.5855ZM6.19898 19.1183V19.4779H6.52764H6.85629V20.2V20.9221L6.52753 20.91L6.19882 20.8978L6.19893 21.5874L6.19898 22.2769L6.51849 22.2879L6.83805 22.2988L6.84854 22.649L6.85903 22.9993H7.53324H8.20744V22.2988V21.5983H8.55434H8.90123V22.2988V22.9993H9.24813H9.59508V22.2988V21.5983H9.24813H8.90123V20.8978V20.1974H9.26642H9.63156V20.5571V20.9167H10.6358H11.64V20.5571V20.1974H11.9687H12.2973L12.3036 19.9418C12.307 19.8012 12.3111 19.6436 12.3127 19.5915C12.3156 19.4977 12.3186 19.4968 12.6899 19.4861L13.0642 19.4753V19.1169V18.7586H12.6752H12.2863L12.3091 19.1183L12.3319 19.4779H11.986H11.64V19.1183V18.7586H11.3114H10.9827V19.1183V19.4779H10.6541H10.3254V19.1183V18.7586H9.26642H8.20744V19.133C8.20744 19.4082 8.21949 19.5069 8.25307 19.5056C8.27817 19.5047 8.4343 19.5066 8.59997 19.5099L8.90123 19.5158V19.8566V20.1974H8.22702H7.55287L7.54238 19.8471L7.53184 19.4969L7.19409 19.486L6.85629 19.4751V19.1168V18.7586H6.52764H6.19898V19.1183ZM19.0166 19.1183V19.4779H19.3405H19.6643L19.6823 19.1874C19.7097 18.7448 19.7207 18.7586 19.341 18.7586H19.0166V19.1183ZM4.91215 20.5855L4.92163 22.2798H3.27802H1.63436V20.6012C1.63436 19.678 1.64546 18.9111 1.65907 18.897C1.67268 18.8829 2.40803 18.8758 3.2932 18.8812L4.90261 18.8911L4.91215 20.5855ZM3.21371 19.5063L2.25514 19.5171V20.5956V21.6741H3.27763H4.30008V20.599C4.30008 19.6536 4.29316 19.5211 4.24234 19.501C4.21055 19.4883 4.18182 19.4819 4.17842 19.4868C4.17507 19.4916 3.74094 19.5004 3.21371 19.5063ZM11.6398 19.8377L11.64 20.1974H11.3111H10.9825V19.8377L10.9827 19.4779H11.3111H11.64L11.6398 19.8377ZM10.3252 19.8566V20.1974H9.97828H9.63156L9.63133 19.8566V19.5158H9.97828H10.3252V19.8566ZM16.452 21.2481L16.4625 21.5983H16.1142H15.7659V21.2372V20.8761L16.1037 20.887L16.4415 20.8978L16.452 21.2481ZM8.20666 21.2575L8.20744 21.5983H7.87801H7.54936L7.54512 21.8728C7.54283 22.0238 7.54383 22.1772 7.5474 22.2136C7.5532 22.2725 7.51544 22.2798 7.20469 22.2798H6.85551V21.5983V20.9167H7.53106H8.20666V21.2575Z" fill="black"/>
</g>
<defs>
<clipPath id="clip0_1981_49">
<rect width="24" height="24" fill="white"/>
</clipPath>
</defs>
</svg>
