<svg width="24" height="24" viewBox="0 0 24 24" fill="none" xmlns="http://www.w3.org/2000/svg">
<path fill-rule="evenodd" clip-rule="evenodd" d="M11.5585 1.03404C10.704 1.174 9.99506 1.65548 9.71472 2.28617C9.61904 2.50158 9.59931 2.58337 9.4325 3.45735C9.23986 4.46677 9.40135 4.3798 7.68698 4.39669C6.12329 4.41202 6.05773 4.42762 6.01757 4.79314C5.98402 5.09752 6.46292 5.65153 6.89934 5.81323L7.06692 5.87535L11.9942 5.87432C16.901 5.87334 16.9221 5.87315 17.074 5.82113C17.3452 5.72827 17.6527 5.46414 17.8752 5.13278C18.0471 4.87687 17.9783 4.59055 17.7152 4.46715C17.5936 4.41015 17.5737 4.40918 16.2954 4.39669C14.6009 4.38019 14.7634 4.47 14.5579 3.43626C14.3675 2.4788 14.323 2.33412 14.1249 2.03142C13.6462 1.30012 12.5455 0.872344 11.5585 1.03404ZM12.4171 1.74924C13.2811 2.08649 12.9699 3.02971 11.9942 3.031C11.4567 3.03171 11.0744 2.74875 11.0735 2.34939C11.0722 1.82055 11.7846 1.50232 12.4171 1.74924ZM1.83792 2.80311C1.51391 2.86406 1.25202 3.02298 1.09825 3.25197L1 3.39834V22.3562L1.10889 22.5231C1.24318 22.7287 1.44698 22.8745 1.70003 22.9459L1.89189 23L12.0379 22.9935L22.184 22.9871L22.3365 22.9338C22.6432 22.8268 22.8572 22.6378 22.953 22.3892C23.0004 22.2663 23.0047 21.324 22.9969 12.8256L22.9884 3.39834L22.9098 3.27909C22.7912 3.09907 22.5894 2.94184 22.3755 2.86264L22.184 2.79172L18.5388 2.78493C16.5339 2.78124 14.8936 2.78784 14.8936 2.79968C14.8936 2.81152 14.9105 2.88464 14.9311 2.96216L14.9687 3.10315L15.4591 3.11253C16.253 3.12774 16.7071 3.39083 16.7902 3.88396L16.8125 4.0157L18.8111 4.02295L20.8097 4.03019L20.9854 4.09011C21.1883 4.15928 21.3729 4.30222 21.4755 4.46942L21.5471 4.58628V12.6619C21.5471 21.4667 21.5618 20.8203 21.357 21.0464C21.2549 21.1591 21.0553 21.2745 20.86 21.3338C20.7055 21.3807 3.65964 21.4018 3.29006 21.3556C2.92177 21.3095 2.68957 21.1688 2.5177 20.8878L2.44133 20.7628L2.4457 12.6736L2.45008 4.58427L2.52319 4.45615C2.6132 4.2984 2.79022 4.16491 3.0111 4.0883L3.17868 4.03019L5.17699 4.02295L7.1753 4.0157L7.19727 3.8749C7.27621 3.36838 7.69865 3.12619 8.52859 3.11169L9.01993 3.10315L9.04181 2.97872C9.05382 2.91026 9.07236 2.83734 9.08283 2.81663C9.10376 2.77561 2.05442 2.76241 1.83792 2.80311ZM8.18956 3.43457C7.83302 3.51636 7.62073 3.72666 7.62013 3.99862L7.61996 4.09341H8.82145L8.85518 4.01123C8.87371 3.96607 8.90589 3.84378 8.92665 3.73953C8.94357 3.65299 8.96202 3.56662 8.982 3.48045L8.99959 3.41096L8.63662 3.41309C8.43694 3.41432 8.23581 3.42396 8.18956 3.43457ZM14.9943 3.43995C14.9944 3.50297 15.0971 3.92815 15.1322 4.01123L15.1669 4.09341H16.3937L16.3768 3.97332C16.3449 3.74646 16.2005 3.57822 15.9536 3.48026C15.7808 3.41173 14.9941 3.37867 14.9943 3.43995ZM16.9105 5.19678C16.9868 5.24887 16.9896 5.35104 16.9163 5.41206C16.863 5.45644 16.6668 5.45832 12.0071 5.45832H7.15333L7.08494 5.403C7.04736 5.37252 7.01664 5.32917 7.01664 5.30665C7.01664 5.28407 7.04736 5.24071 7.08494 5.2103L7.15333 5.15498H12.0013C16.4653 5.15498 16.854 5.15828 16.9105 5.19678ZM12.9327 6.53697C12.6276 6.56538 12.0134 6.70721 11.8536 6.78615C11.7032 6.86044 11.7219 7.04679 11.8852 7.10295C11.9763 7.13421 11.9799 7.58721 11.891 7.81983C11.8289 7.98244 11.8296 7.98587 11.9235 7.98587C12.0088 7.98587 12.0785 8.08118 12.1267 8.26391C12.1758 8.44994 12.1713 8.44638 12.341 8.4337C12.4268 8.42729 12.5306 8.41364 12.5718 8.40335C12.6334 8.38795 12.6571 8.39889 12.7059 8.46515C12.8314 8.63578 12.8106 8.63273 13.1024 8.52332C13.2487 8.46845 13.4554 8.39688 13.5615 8.36427L13.7546 8.30493L13.7291 8.17701C13.6883 7.97183 13.7049 7.86234 13.8165 7.60009C14.1043 6.92391 13.7216 6.46353 12.9327 6.53697ZM9.45695 7.5394C8.77675 7.68447 8.6863 8.12939 9.2299 8.6557C9.72536 9.13537 9.76818 9.3907 9.42486 9.81834C9.1598 10.1485 9.18477 10.2664 9.65671 10.9109L9.97541 11.3462L10.074 11.2837C10.3802 11.0894 10.9486 11.408 10.9971 11.801C11.0158 11.9527 10.9079 12.0803 10.7286 12.1182C10.6217 12.1408 10.5799 12.1743 10.4314 12.3563C10.3276 12.4834 10.1264 12.6703 9.9283 12.8236C9.41731 13.2187 9.35647 13.3488 9.38787 13.9786C9.4107 14.4364 9.36925 14.5823 9.09647 15.0037C8.33054 16.1873 6.82812 16.9772 5.76607 16.7548C5.5766 16.7152 5.5645 16.7322 5.69467 16.8562C5.92189 17.0724 6.044 17.3004 6.08201 17.5789C6.16628 18.198 6.40706 18.3178 7.19435 18.1325C7.79295 17.9916 8.01039 18.0697 8.33852 18.5438C8.6355 18.9729 9.05597 19.038 9.41018 18.7097C10.0167 18.1475 10.3607 18.1056 10.9048 18.5272C11.4694 18.9647 11.7184 18.9489 12.1923 18.4451C12.4306 18.1916 12.6957 18.1033 13.3517 18.0587C13.49 18.0493 13.6626 18.0301 13.7353 18.0161L13.8674 17.9905L13.6347 17.8977C12.6442 17.5029 12.1156 16.8828 11.8643 15.8214C11.6907 15.0877 11.692 15.126 11.7634 12.8925C11.7747 12.5396 11.7732 12.0989 11.76 11.913L11.7359 11.575H11.6043C11.3544 11.575 10.4472 11.157 9.9579 10.8166C9.63389 10.591 9.62925 10.559 9.94117 10.6998C11.4958 11.4011 11.5215 11.411 11.7243 11.3868C11.9623 11.3583 12.6139 11.1814 13.1674 10.9948L13.7037 10.814L14.1059 10.9069C14.6897 11.0416 14.6479 11.0402 14.6902 10.9268C14.7723 10.707 14.7731 10.6413 14.6944 10.5781C14.6434 10.5372 14.6086 10.4619 14.583 10.3375C14.5312 10.0851 14.1607 9.83355 14.1567 10.0481C14.1564 10.0633 14.2165 10.1177 14.2903 10.1692C14.4169 10.2576 14.5049 10.5035 14.3908 10.4503C14.3724 10.4417 14.3573 10.4147 14.3573 10.3903C14.3573 10.2997 14.0279 10.1343 13.8473 10.1343C13.7114 10.1343 13.5689 10.2592 13.6576 10.3006C13.6911 10.3162 13.6826 10.6015 13.6479 10.6268C13.6072 10.6565 12.0036 10.9109 11.7093 10.9343C11.4721 10.9532 11.3162 10.8691 10.5529 10.3106C10.2579 10.0948 9.96382 9.89884 9.89929 9.87522C9.83477 9.85154 9.80233 9.83187 9.8273 9.83161C9.94452 9.83012 10.3724 10.0394 10.8856 10.3495C11.583 10.7708 11.6591 10.8081 11.7304 10.7634C11.901 10.6567 11.6905 10.4178 11.2399 10.2066C10.6769 9.94277 10.4384 9.70019 10.4093 9.36171C10.3857 9.08704 10.4351 9.03372 10.7332 9.01159C10.8616 9.00201 10.9819 8.98027 11.0007 8.96319C11.0403 8.92721 11.0573 8.65014 11.0236 8.58873C11.009 8.56188 11.0278 8.5281 11.0768 8.49375L11.1528 8.44036L11.0145 8.33315C10.9075 8.25026 10.8636 8.18904 10.8208 8.0628C10.6753 7.63445 10.0808 7.4063 9.45695 7.5394ZM8.4009 8.36401C7.84306 8.6205 8.45059 9.38624 9.03211 9.15951C9.28645 9.06031 9.27263 8.93329 8.96844 8.57353C8.72363 8.28397 8.64117 8.25349 8.4009 8.36401ZM13.6791 8.54027C13.5084 8.62186 13.4254 8.70876 13.4794 8.74946C13.526 8.7846 13.9216 8.57185 13.9216 8.51167C13.9216 8.44735 13.8576 8.45486 13.6791 8.54027ZM13.0877 8.69951L12.8769 8.80401L12.6785 8.72183L12.4802 8.63959V8.84044C12.4802 9.10004 12.5132 9.12405 12.7287 9.02104L12.8877 8.94494L13.0651 9.02149C13.3514 9.14495 13.4516 9.0695 13.3989 8.7701C13.3666 8.58589 13.3326 8.57819 13.0877 8.69951ZM13.8618 8.76312C13.1614 9.37278 12.7777 9.82087 12.4642 10.3954C12.3075 10.6825 12.2798 10.6705 12.8886 10.5794C13.4585 10.4942 13.4872 10.4856 13.4059 10.4244C13.3106 10.3525 13.372 10.1645 13.5336 10.0332C13.5764 9.99849 13.6321 9.93669 13.6575 9.89599C13.6962 9.83387 13.7361 9.8164 13.9048 9.78767C14.1842 9.74011 14.2016 9.74173 14.3817 9.83303C14.6692 9.97881 14.7537 10.0543 14.7943 10.2022C14.8389 10.3643 14.9612 10.4437 15.569 10.7052C15.7762 10.7944 15.9311 10.8673 15.9132 10.8673C15.8953 10.8673 15.6864 10.8216 15.449 10.7658C15.2117 10.71 15.0085 10.6711 14.9975 10.6794C14.9732 10.6978 14.8661 11.1783 14.8625 11.2849L14.8601 11.3613L15.6561 11.529C16.7855 11.7669 16.7087 11.7694 16.8385 11.4908C16.954 11.243 16.9543 11.2434 16.5036 10.7157C15.8635 9.966 15.3637 9.28232 15.363 9.15549C15.3628 9.12029 15.2404 9.06905 15.0445 9.02213C14.7924 8.96183 14.3065 8.77865 14.1849 8.69815C14.0326 8.59727 14.0581 8.59216 13.8618 8.76312ZM13.9321 9.19276C13.7129 9.45249 13.1506 9.99337 13.1506 9.94452C13.1506 9.84507 13.6094 9.33564 13.8455 9.1729C14.0755 9.01437 14.0815 9.01573 13.9321 9.19276ZM11.983 9.27488C11.6737 9.43082 11.0804 9.88059 11.1201 9.92893C11.1311 9.94226 11.2568 10.0043 11.3995 10.0667C11.7918 10.2384 12.011 10.4385 12.011 10.6249C12.011 10.6593 12.0261 10.6944 12.0445 10.703C12.0662 10.7131 12.0781 10.6 12.0782 10.3823C12.0786 9.97234 12.1141 9.79505 12.2641 9.45612C12.441 9.05624 12.4302 9.04925 11.983 9.27488ZM13.8545 9.98263C13.8545 9.99654 13.8855 10.0079 13.9235 10.0079C13.9615 10.0079 13.9832 9.99654 13.9719 9.98263C13.9604 9.96878 13.9294 9.9574 13.9028 9.9574C13.8763 9.9574 13.8545 9.96878 13.8545 9.98263ZM13.4523 11.0976C13.0451 11.2422 12.4292 11.4356 12.2016 11.4903L12.0068 11.5371L12.0268 11.7014C12.0924 12.2383 12.1061 12.8285 12.0701 13.5648C11.9696 15.6205 12.2563 16.5817 13.2009 17.3556L13.3491 17.4769L13.3575 17.2115C13.3703 16.808 13.3714 16.8129 13.2051 16.521C12.7377 15.7003 12.4581 14.9757 12.3661 14.3459C12.3145 13.9932 12.3189 13.9664 12.3947 14.1703C12.5044 14.4653 13.025 15.5604 13.3837 16.251C13.5101 16.4943 13.6539 16.7957 13.7033 16.9209C13.7526 17.046 13.9492 17.5066 14.1402 17.9445C14.4463 18.6466 14.6441 19.1192 15.0249 20.0585L15.1288 20.3148L15.316 20.3366L15.5031 20.3584L15.631 20.6202C15.7968 20.9596 15.7913 20.9562 16.026 20.8636C16.415 20.7101 16.5151 20.5859 16.432 20.3599C16.3956 20.2613 16.3968 20.2593 16.5495 20.1521C16.7364 20.0208 16.7886 20.2097 16.2145 18.9389L15.3601 17.0472C14.9109 16.0527 14.6283 15.2241 14.4484 14.3743L14.4336 14.3048H14.6468C14.8964 14.3048 14.8894 14.3192 14.794 14.0046C14.2449 12.1944 14.2006 11.9087 14.4159 11.5659C14.4759 11.4705 14.5249 11.389 14.5249 11.3847C14.5249 11.3804 14.4495 11.358 14.3573 11.3349L14.1897 11.2929L14.2105 11.1951C14.2301 11.1028 14.2258 11.0964 14.1351 11.0825C14.0631 11.0706 13.9919 11.0564 13.9216 11.0398C13.857 11.0244 13.7892 11.0084 13.7707 11.0041C13.7523 10.9999 13.609 11.042 13.4523 11.0976ZM14.5734 11.1728C14.5388 11.215 14.6165 11.2633 14.6627 11.2284C14.7014 11.1992 14.6772 11.1453 14.6255 11.1453C14.6092 11.1453 14.5857 11.1577 14.5734 11.1728ZM10.1088 11.4598C9.8243 11.6403 9.90745 12.1029 10.2249 12.1052C10.3027 12.1058 10.7079 11.9487 10.7642 11.8962C10.821 11.8431 10.702 11.6251 10.5516 11.5067C10.3871 11.3773 10.2601 11.3638 10.1088 11.4598ZM11.1054 16.1016C11.1264 16.2325 11.1497 16.6012 11.1574 16.9209L11.1715 17.5022L11.089 17.2368C10.9329 16.7336 10.8959 16.4219 10.9166 15.7835C10.9413 15.0236 10.9735 14.9279 11.0266 15.457C11.0491 15.6806 11.0846 15.9707 11.1054 16.1016ZM8.96098 15.4923C8.6996 15.9923 8.18981 16.5477 7.67977 16.8882C7.19032 17.2148 6.89779 17.3451 7.22447 17.0909C7.60357 16.7959 8.36014 16.0763 8.79176 15.6002C9.0364 15.3304 9.05022 15.3216 8.96098 15.4923ZM10.1708 15.7644C10.0711 16.4852 9.97635 16.8502 9.74244 17.4137C9.63131 17.6816 9.53358 17.8459 9.57717 17.6918C9.58704 17.657 9.61158 17.5206 9.63174 17.3885C9.72055 16.8068 10.1292 15.4049 10.1953 15.4548C10.2044 15.4617 10.1934 15.601 10.1708 15.7644ZM7.18422 18.4336L6.86579 18.5132L6.70953 18.757L6.55336 19.0006L6.34081 19.0186C6.05327 19.043 5.93408 19.1029 5.82261 19.2791C5.7725 19.3583 5.66447 19.5006 5.58261 19.5952C5.40044 19.8055 5.42 19.8352 5.6389 19.6808C5.90096 19.496 6.01723 19.4927 6.07995 19.6683C6.12835 19.804 6.10081 19.9045 5.97364 20.0557C5.82991 20.2265 5.85084 20.3182 6.09548 20.5898C6.33644 20.8573 6.33824 20.8567 6.35171 20.5149L6.36304 20.2291L6.52427 20.02C6.613 19.9049 6.76642 19.6693 6.86527 19.4964C7.13154 19.031 7.5738 18.489 7.72593 18.4418C7.78935 18.4222 7.66278 18.3482 7.57165 18.3515C7.53372 18.3529 7.35936 18.3899 7.18422 18.4336ZM13.062 18.3867C12.6863 18.4483 12.6011 18.4914 12.3884 18.7278C12.179 18.9605 12.0316 19.0437 11.7699 19.0773L11.6255 19.0959L11.5697 19.5376C11.5458 19.7291 11.5206 19.9206 11.494 20.1119L11.4741 20.2446H11.6754C11.7862 20.2446 11.8769 20.2521 11.8769 20.2612C11.8769 20.3532 11.4626 20.5732 11.2893 20.5732C11.2301 20.5732 11.2285 20.5912 11.2776 20.6976L11.3153 20.779L11.7957 20.7709L12.2761 20.7628L12.4047 20.668C12.5627 20.5516 12.5721 20.5514 12.6338 20.6628L12.6835 20.7524L12.9087 20.745L13.1338 20.7375L13.1435 20.4983C13.1493 20.3571 13.1687 20.2518 13.1907 20.2416C13.2148 20.2304 13.2375 20.0444 13.2542 19.7225C13.2685 19.4467 13.2908 19.0248 13.3037 18.785C13.3171 18.5359 13.3145 18.3498 13.2975 18.3509C13.2813 18.352 13.1753 18.3681 13.062 18.3867ZM10.1058 18.5938C9.90324 18.6692 9.8781 18.7265 9.94357 18.9645C10.0213 19.2476 10.0195 19.4529 9.93902 19.4722C9.70374 19.5285 9.54937 19.7522 9.60411 19.9577C9.62205 20.0251 9.65568 20.1827 9.67885 20.3078C9.72339 20.548 9.73428 20.5484 9.79332 20.3113C9.89329 19.91 10.3015 20.1194 10.3015 20.5718C10.3015 20.7102 10.5719 20.8301 11.0138 20.8877C11.1697 20.9081 11.1695 20.9044 11.0066 20.7416C10.8176 20.5529 10.7807 20.4704 10.721 20.103C10.6918 19.9237 10.6379 19.6462 10.6013 19.4863C10.5646 19.3265 10.5166 19.0608 10.4947 18.896C10.4577 18.6178 10.4492 18.5947 10.376 18.5738C10.269 18.5431 10.2358 18.5456 10.1058 18.5938ZM12.2204 21.5891C12.2527 21.6173 12.2791 21.6674 12.2791 21.7005V21.7606L16.6563 21.7672L21.0335 21.7738L21.0976 21.8335C21.1739 21.9045 21.1787 21.9614 21.114 22.028C21.0675 22.0761 20.9781 22.0772 16.6728 22.0837L12.2791 22.0903V22.3165C12.2791 22.5621 12.2354 22.6277 12.0487 22.6631C11.8314 22.7042 11.7 22.5528 11.721 22.2856L11.7365 22.0898H2.95781L2.87552 22.0277C2.7765 21.9531 2.77263 21.9123 2.85733 21.8335L2.92143 21.7738L7.31534 21.7672C11.49 21.7609 11.7093 21.7584 11.7093 21.716C11.7093 21.541 12.0647 21.4528 12.2204 21.5891Z" fill="black"/>
</svg>
