<svg width="24" height="24" viewBox="0 0 24 24" fill="none" xmlns="http://www.w3.org/2000/svg">
<path fillRule="evenodd" clipRule="evenodd" d="M11.733 1.06063C11.2302 1.25118 11.1804 1.99919 11.6032 3.013C11.7209 3.29532 11.7233 3.27658 11.5679 3.29748C10.4904 3.44257 10.094 4.39361 10.8536 5.01111C11.144 5.24717 11.1449 5.24472 10.7625 5.24472C10.3554 5.24472 10.1502 5.31263 10.0069 5.49492L9.91083 5.61711L9.92266 6.32644L9.93457 7.03577L9.69089 7.11506C9.52667 7.1685 9.39118 7.23942 9.27546 7.3325C9.11505 7.46147 9.07171 7.47839 8.62317 7.58725C3.97194 8.71596 1 11.6367 1 15.0791C1 20.9048 9.63343 24.7702 16.8587 22.1796C22.6411 20.1063 24.758 14.8704 21.3957 10.9582C20.0942 9.44363 17.7924 8.14181 15.384 7.55808C14.9615 7.45566 14.8945 7.43105 14.8603 7.366C14.8072 7.26522 14.5437 7.13295 14.3105 7.09006L14.1196 7.05497V6.35583C14.1196 5.3668 14.0259 5.24683 13.2516 5.24529C12.8613 5.24455 12.8518 5.23618 13.0766 5.09115C13.8899 4.56633 13.5846 3.54802 12.5392 3.29879C12.436 3.27418 12.3515 3.2457 12.3515 3.2355C12.3515 3.22531 12.3854 3.13206 12.4268 3.02826C12.8657 1.92661 12.754 1.14625 12.1402 1.02668C11.9337 0.986517 11.9273 0.98703 11.733 1.06063ZM12.1745 1.21973C12.4793 1.39182 12.5339 1.84476 12.3377 2.57528C12.1241 3.37142 11.9894 3.4518 11.7742 2.91171C11.3641 1.88264 11.598 0.89429 12.1745 1.21973ZM12.4 3.58943C13.1459 3.78972 13.3383 4.48612 12.7642 4.90703C12.2457 5.28722 11.3083 5.17335 10.9713 4.6892C10.5171 4.03695 11.4351 3.33035 12.4 3.58943ZM14.1453 7.2863C14.3477 7.34925 14.4501 7.45201 14.3904 7.53216C14.3393 7.60069 14.27 7.6126 13.8613 7.62314L13.5453 7.63123L13.3424 7.77438C13.0083 8.00999 12.9193 8.01546 12.4295 7.83072C12.0898 7.70255 11.9909 7.7046 11.5897 7.84826C11.1334 8.01164 10.9558 8.00321 10.6393 7.80326L10.4538 7.68608L10.0285 7.6723C9.46698 7.65407 9.40801 7.62319 9.60835 7.45236C9.92234 7.18456 10.265 7.16964 10.6192 7.40838C10.9597 7.63795 11.0276 7.64735 11.523 7.53347C11.9398 7.4376 12.0185 7.43783 12.4613 7.53558C12.8968 7.63174 13.0556 7.60747 13.3648 7.39761C13.6709 7.18986 13.7835 7.1738 14.1453 7.2863ZM10.5395 7.98054L10.6411 8.0093L10.545 8.03853C9.80106 8.26468 9.37491 8.45506 8.8101 8.81365C8.34053 9.11175 8.2987 9.16217 8.20504 9.54269C8.12987 9.8482 8.08019 9.93558 7.85675 10.155C7.78111 10.2292 7.34369 10.6349 7.299 10.6722C7.22082 10.7375 6.60235 9.74469 6.56989 9.50174C6.54655 9.32714 6.41329 8.913 6.33256 8.76427C6.3097 8.72217 6.34098 8.7298 6.48662 8.80169C6.9608 9.03582 7.19693 8.90611 7.43767 8.27915L7.52775 8.04468L7.55347 8.32307C7.61213 8.95686 7.87866 9.05798 8.48864 8.67779C9.48262 8.05824 10.0877 7.85254 10.5395 7.98054ZM15.2343 7.99034C16.0721 8.15007 16.6314 8.40926 17.6222 9.09706C18.3152 9.57807 18.6621 9.77973 19.1403 9.97922C19.5231 10.1389 19.371 10.1281 18.7713 9.95302C18.0062 9.7296 17.5937 9.5239 16.6762 8.90816C16.0412 8.48212 15.6378 8.26815 15.0626 8.05248C14.6689 7.90483 14.7093 7.89019 15.2343 7.99034ZM14.8692 8.47272C16.6429 8.86988 17.4821 10.2632 16.5885 11.3272C15.1574 13.0311 11.4291 12.3137 11.4291 10.3343C11.4291 9.03838 13.1753 8.09339 14.8692 8.47272ZM13.8699 8.7674C12.0336 8.94217 11.2802 10.5007 12.5835 11.4285C14.0044 12.44 16.4197 11.7942 16.4249 10.4014C16.4285 9.44654 15.1726 8.64338 13.8699 8.7674ZM14.604 9.24032C15.1597 9.53102 15.3702 9.92294 15.1544 10.2654C14.707 10.9757 13.2622 10.8074 12.9461 10.0082C12.8679 9.81037 12.8922 9.78092 13.0008 9.94191C13.2207 10.268 13.5971 10.4429 14.0812 10.444C14.9392 10.446 15.1975 9.86187 14.5759 9.32571C14.367 9.14565 14.3752 9.1207 14.604 9.24032ZM6.00206 9.65754C6.19612 9.72994 6.36058 9.81356 6.42154 9.87087C6.54203 9.98423 7.08501 10.7066 7.08541 10.754C7.08597 10.824 6.14715 10.7377 5.66353 10.6233C5.32517 10.5433 4.04124 10.1239 4.07045 10.1029C4.07957 10.0965 4.25919 10.0815 4.46969 10.0698C5.24754 10.0266 5.46558 9.83105 5.1638 9.44734C5.10038 9.36667 5.04855 9.29535 5.04855 9.28874C5.04855 9.28219 5.19119 9.33568 5.36565 9.40763C5.54003 9.47958 5.8264 9.59203 6.00206 9.65754ZM9.39729 9.50812C9.23022 9.66056 9.25903 9.88864 9.45714 9.98184C9.56795 10.0339 10.33 10.0161 10.7276 9.95222C11.0517 9.90009 11.0309 9.92242 10.5922 10.0969C10.3866 10.1787 10.0367 10.3242 9.81471 10.4202C9.24934 10.665 8.65596 10.7897 7.9601 10.8101C7.69063 10.818 7.47005 10.8166 7.47005 10.807C7.47005 10.7791 8.04042 10.2098 8.22457 10.0539C8.32839 9.96606 8.50705 9.86381 8.69064 9.78713C8.85439 9.71883 9.09211 9.60769 9.21894 9.54019C9.47246 9.40524 9.51921 9.39686 9.39729 9.50812ZM5.70076 10.7893C5.85998 10.8184 6.19779 10.8569 6.45146 10.8748C7.18748 10.9268 7.18717 10.9271 5.9326 11.3643C5.52034 11.5079 5.07713 11.6715 4.94767 11.7278L4.71233 11.8301L4.82274 11.6794C5.11896 11.2753 4.65161 11.1496 3.4534 11.3108C3.08408 11.3605 3.10051 11.3519 3.97226 11.0371C4.98585 10.6712 5.02514 10.6655 5.70076 10.7893ZM19.7629 10.9947C21.1582 11.3644 22.0385 12.4774 22.0445 13.8792C22.0493 14.9817 21.491 15.9873 20.3912 16.8573C20.0815 17.1021 20.09 17.1009 19.9211 16.9246L19.8021 16.8006L20.0662 16.601C22.4914 14.7687 21.7718 11.296 18.9627 11.2753C17.7135 11.2662 17.0752 12.3636 17.9656 12.9896C18.831 13.5979 20.3761 12.8321 19.7083 12.126C19.5881 11.9987 19.6093 11.9795 19.7659 12.0741C20.4378 12.4798 20.1416 13.27 19.221 13.5274C18.2315 13.804 17.0394 13.131 17.0413 12.297C17.0436 11.3055 18.4308 10.6418 19.7629 10.9947ZM8.6808 11.0279C9.12481 11.0656 9.57017 11.1036 9.67057 11.1124C9.849 11.1279 9.92877 11.1757 9.7763 11.1757C9.63938 11.1757 9.53405 11.2793 9.55898 11.3895C9.61914 11.6554 10.1412 11.9486 11.0388 12.2207C11.4923 12.3581 10.9047 12.2737 10.0951 12.0851C9.29213 11.898 8.95686 11.96 9.08171 12.2724C9.11259 12.3497 9.07488 12.4068 9.03956 12.3363C9.0325 12.3223 8.79327 12.1219 8.50785 11.891C7.98383 11.4672 7.43163 10.9865 7.43163 10.9542C7.43163 10.9299 7.74277 10.9482 8.6808 11.0279ZM7.42322 11.3016C7.70372 11.8159 7.78135 11.9421 7.9162 12.1028C7.98796 12.1883 8.04661 12.2615 8.04661 12.2655C8.04661 12.2694 7.98176 12.2561 7.90247 12.2357C7.53045 12.1405 7.34536 12.2902 7.04771 12.9274C6.87341 13.3004 6.86229 13.2993 6.72577 12.8948C6.56076 12.4058 6.51647 12.3018 6.42956 12.1996L6.35018 12.1062L6.11754 12.1236C5.93491 12.1373 5.89284 12.1337 5.92165 12.1066C6.60171 11.4699 6.78935 11.2985 6.96429 11.1541C7.22646 10.9377 7.22431 10.937 7.42322 11.3016ZM3.81852 11.4065C3.81852 11.4121 3.71645 11.5115 3.59175 11.6273C3.2029 11.9884 2.89018 12.4762 2.69881 13.02C2.54213 13.4651 2.54824 13.5069 2.74373 13.3294C3.24656 12.8729 4.10783 12.5644 4.96204 12.5347C5.46296 12.5174 5.48891 12.5283 5.13912 12.6094C3.5277 12.9831 2.16503 14.1994 1.98676 15.4234C1.94549 15.7069 1.90882 15.608 1.88191 15.1412C1.80571 13.8149 2.34973 12.2513 3.08313 11.6894C3.22918 11.5774 3.81852 11.3508 3.81852 11.4065ZM12.0913 13.2865C13.7191 13.4133 13.5542 15.0422 11.9191 14.9874C11.7031 14.9802 11.7455 14.9382 11.9765 14.9307C12.8611 14.9017 13.2458 14.2092 12.603 13.8031C11.8936 13.355 10.8108 13.6078 10.5645 14.2791C10.1409 15.4343 13.1545 16.5447 15.3537 16.0437C15.4601 16.0195 15.5024 16.1637 15.404 16.2153C15.284 16.2783 14.7434 16.3893 14.2796 16.4463C11.1176 16.8342 7.75706 15.5999 6.86095 13.7214C6.69371 13.3707 6.68101 13.2058 6.83936 13.4405L6.91563 13.5535L7.02461 13.4098C7.14899 13.2458 7.15804 13.2497 7.27932 13.5174C7.8023 14.6716 9.34356 15.6119 11.333 15.9906C11.6966 16.0598 11.694 16.0495 11.3087 15.8929C9.83027 15.2922 9.59255 14.0043 10.8567 13.4444C11.1136 13.3305 11.5838 13.2387 11.7943 13.2612C11.8365 13.2657 11.9702 13.2771 12.0913 13.2865ZM16.2381 13.5483C17.8206 13.7602 18.0283 15.234 16.5699 15.9035C16.3018 16.0266 16.3044 16.0266 16.1622 15.8978L16.0458 15.7923L16.2913 15.6764C17.518 15.0976 17.2261 13.8802 15.8604 13.8793C14.7586 13.8786 14.2205 14.816 15.13 15.1517C15.3082 15.2175 15.2838 15.2585 15.0666 15.2585C14.4717 15.2585 14.1115 14.619 14.442 14.1499C14.7632 13.694 15.4954 13.4488 16.2381 13.5483ZM5.29723 14.4726C7.38687 14.7902 7.85128 16.8559 5.92737 17.2753C4.70924 17.5408 3.60675 16.5715 4.41 15.9412C4.54247 15.8373 4.55382 15.8451 4.4839 15.9924C4.15823 16.6783 5.35033 17.2343 6.16096 16.7744C7.13708 16.2206 6.54687 15.0276 5.2065 14.8452C3.23322 14.5767 2.05573 16.2999 3.3099 17.6208C4.25189 18.6129 6.05817 18.9304 7.68737 18.3901C7.98105 18.2928 8.25235 18.1646 9.01877 17.761C10.8462 16.7987 12.3807 16.6513 14.2045 17.263C14.5543 17.3804 14.745 17.4257 15.0618 17.4667C15.6061 17.5371 16.0085 17.716 16.9062 18.2863C17.138 18.4337 17.1266 18.4404 16.73 18.3902C16.057 18.3049 15.6688 18.2011 14.6386 17.8312C12.34 17.0058 11.0615 17.0806 9.15172 18.1519C6.92849 19.3992 4.52374 19.3468 3.04067 18.0189C1.26812 16.4317 2.76024 14.0869 5.29723 14.4726ZM15.7773 15.7152C16.5425 16.4851 16.8811 16.6351 17.268 16.3754L17.4533 16.251L17.48 16.9892C17.5069 17.7378 17.4927 17.8821 17.365 18.1598C17.2499 18.4101 17.276 18.4207 16.3562 17.75C15.8977 17.4157 15.3972 17.0642 15.244 16.9687C14.9173 16.7654 14.903 16.7401 15.1443 16.7922C15.8193 16.938 15.9551 16.7829 15.6941 16.1643C15.5676 15.8648 15.4265 15.466 15.4265 15.4083C15.4265 15.3708 15.4914 15.4274 15.7773 15.7152ZM19.2997 16.1831C18.9935 16.8257 19.1038 17.0565 19.7806 17.1895L20.0097 17.2345L19.7265 17.3819C19.5707 17.463 19.3394 17.5857 19.2126 17.6546C18.3418 18.128 18.158 18.2197 17.8808 18.3193C17.6005 18.4199 17.4637 18.4526 17.4637 18.4188C17.4637 18.4122 17.5142 18.3125 17.5761 18.1974C17.8032 17.774 17.9571 17.0979 17.8872 16.8309C17.8475 16.6791 17.8492 16.6777 18.0044 16.7353C18.2817 16.8382 18.7667 16.5723 19.2277 16.0646C19.4884 15.7775 19.491 15.7818 19.2997 16.1831ZM19.7695 18.024C19.5315 18.3041 20.1629 18.5963 21.006 18.5963C21.2278 18.5963 21.1579 18.6289 20.7693 18.7067C19.8882 18.883 19.6525 19.0233 19.849 19.2546C19.8923 19.3057 19.9205 19.3527 19.9115 19.3591C19.8601 19.396 17.6579 18.6421 17.6278 18.5773C17.6199 18.5602 17.6705 18.5375 17.7403 18.5269C18.1078 18.4707 18.8764 18.2616 19.5009 18.0477C19.6806 17.9861 19.8316 17.9355 19.8366 17.935C19.8416 17.9346 19.8114 17.9746 19.7695 18.024ZM15.5891 18.3612C16.0382 18.4689 16.5612 18.5412 16.8922 18.5412C17.2235 18.5412 17.1723 18.5809 16.2529 19.0363C15.6846 19.3179 15.4339 19.4692 15.2454 19.6447C15.0774 19.801 15.0422 19.8118 15.042 19.7067C15.042 19.665 15.0062 19.5887 14.9624 19.5374L14.883 19.4439L14.6164 19.4599C14.4383 19.4706 14.1384 19.528 13.714 19.6326C13.3644 19.7187 13.0699 19.7832 13.0596 19.7758C13.0494 19.7684 13.2307 19.6622 13.4628 19.5398C14.217 19.1418 14.2617 18.9813 13.6969 18.7002C13.603 18.6534 13.6075 18.6527 13.8942 18.6693C14.5812 18.7088 14.8739 18.5304 14.677 18.1921C14.6453 18.1377 14.6194 18.0892 14.6194 18.0845C14.6194 18.0797 14.7487 18.1187 14.9069 18.1712C15.065 18.2236 15.372 18.3091 15.5891 18.3612ZM12.0866 18.6568C12.4208 18.7666 12.6536 18.9676 12.7516 19.2308C12.7744 19.2921 12.7653 19.2891 12.6701 19.2038C11.789 18.4143 10.1243 19.0942 10.706 20.006C11.2021 20.7836 12.5247 20.8476 13.5863 20.1453L13.8512 19.9701L13.7724 20.1021C13.2119 21.0406 11.624 21.2782 10.6379 20.571C9.3965 19.6807 10.5529 18.1529 12.0866 18.6568ZM17.5863 18.7628C17.6855 18.8238 17.9168 19.0165 18.1003 19.191C18.2838 19.3654 18.5097 19.5686 18.6023 19.6425C18.807 19.8059 18.8071 19.7962 18.6005 19.797C18.2234 19.7985 18.1189 20.073 18.2355 20.7554C18.2923 21.0873 18.2723 21.0971 18.0851 20.8288C17.6386 20.1888 17.2753 19.9608 16.9891 20.1412C16.8236 20.2454 16.8089 20.2447 16.8493 20.1343C16.8673 20.085 16.9024 19.9019 16.9271 19.7274C16.9809 19.3493 17.0788 19.0587 17.2319 18.8239C17.3648 18.6202 17.3568 18.6216 17.5863 18.7628ZM16.5596 19.3593C15.638 21.3297 12.7459 22.4783 10.2454 21.8671C9.49984 21.6849 9.03472 21.4556 8.14273 20.8305C7.11597 20.1109 6.3505 19.7845 5.68425 19.7821C5.59472 19.7818 5.58091 19.7755 5.62512 19.755C5.71314 19.7141 6.35026 19.7223 6.68831 19.7687C7.31011 19.854 7.74071 20.0514 8.63452 20.6611C9.60541 21.3233 10.2275 21.5559 11.2372 21.6345C13.0625 21.7766 14.8983 20.9946 15.8112 19.6861C15.9738 19.453 16.0046 19.427 16.31 19.2634C16.6842 19.063 16.6961 19.0676 16.5596 19.3593Z"/>
</svg>
