<svg width="24" height="24" viewBox="0 0 24 24" fill="none" xmlns="http://www.w3.org/2000/svg">
<path fillRule="evenodd" clipRule="evenodd" d="M11.3484 1.01026C11.0826 1.04484 10.7907 1.10654 10.6678 1.15402L10.5294 1.2075L10.5473 1.33449C10.5572 1.40435 10.5799 1.61193 10.5977 1.79574C10.6748 2.5918 10.5389 2.49202 11.578 2.51544C12.2409 2.53035 12.303 2.53537 12.1136 2.55844C11.8832 2.58654 11.3319 2.59106 10.6444 2.5706C10.1267 2.55515 10.0378 2.57891 10.0228 2.73675C10.0099 2.87259 10.3246 3.15943 10.4866 3.15943C10.4937 3.15943 10.4924 3.08125 10.4836 2.98565L10.4676 2.81183H10.5506H10.6335L10.573 2.87898C10.513 2.94565 10.5143 3.05251 10.5752 3.05251C10.5924 3.05251 10.589 3.07032 10.5674 3.09306C10.5213 3.14167 10.5465 3.38388 10.612 3.52085C10.6413 3.58206 10.6445 3.61399 10.6221 3.62053C10.6014 3.62653 10.6095 3.65738 10.6438 3.70314C10.716 3.79933 10.7218 3.78944 10.73 3.55736C10.7392 3.29419 10.8907 2.99259 11.0384 2.94324C11.3747 2.83087 12.1685 2.88966 12.4321 3.04651L12.5975 3.14491L12.5086 3.16218C12.3356 3.19574 12.235 3.24105 12.2797 3.26521C12.311 3.28208 12.2945 3.30304 12.213 3.34963C12.0433 3.44685 12.0273 3.48784 12.0184 3.84784C12.009 4.22919 12.0018 4.24734 11.8882 4.17404C11.8014 4.1179 11.6103 4.13994 11.6536 4.20105C11.6636 4.21517 11.6902 4.22053 11.7126 4.213C11.7351 4.20547 11.7972 4.23745 11.8506 4.28415C12.0312 4.44188 12.3281 4.31071 12.2174 4.12208C12.1723 4.04523 12.1622 4.03898 12.161 4.08705C12.1579 4.2102 12.0983 4.1763 12.0959 4.0501C12.0947 3.9794 12.0869 3.86835 12.0786 3.80341C12.0519 3.59254 12.0693 3.57099 12.3279 3.49443C12.3843 3.4777 12.3848 3.47874 12.3339 3.50722C12.2903 3.53158 12.2862 3.54614 12.3146 3.57605C12.3843 3.64931 12.4856 3.61728 12.4692 3.5271C12.4619 3.48661 12.5181 3.50885 12.5885 3.57433L12.6609 3.64159L12.5632 3.67377C12.43 3.7177 12.4404 3.75544 12.5823 3.74363L12.699 3.73389L12.6856 3.8812C12.6772 3.97231 12.6428 4.07253 12.5953 4.14402C12.5246 4.25044 12.5216 4.26771 12.5576 4.36321C12.6362 4.57103 12.4111 4.98441 12.1569 5.09925C12.0684 5.13925 11.8841 5.1083 11.8841 5.05339C11.8841 5.03908 11.8624 5.04631 11.836 5.06938C11.7748 5.12281 11.7435 5.12163 11.5933 5.06023C11.2348 4.91376 11.0227 4.50274 11.1746 4.24907L11.2347 4.1488H11.1483C11.0664 4.1488 11.0608 4.15672 11.0379 4.30255L11.0138 4.4563L10.9933 4.32262C10.9364 3.95219 10.9198 3.89084 10.8537 3.80562C10.7711 3.69935 10.7604 3.73168 10.8305 3.87559C10.8572 3.93025 10.8982 4.09236 10.9216 4.23578C10.9813 4.6007 11.1394 4.84232 11.4365 5.02259C11.5228 5.07489 11.5661 5.10963 11.5329 5.09974C11.4351 5.07066 11.2325 4.92419 11.1193 4.8007C11.0614 4.73758 11.0084 4.69088 11.0015 4.69694C10.9459 4.7455 11.4979 5.31455 11.6807 5.39711C11.8192 5.45969 12.1709 5.2959 12.3953 5.06432L12.5574 4.89694L12.5636 5.10446C12.5723 5.39489 12.572 5.40237 12.5319 5.82003C12.4313 6.86849 12.3447 8.4583 12.3448 9.25604L12.3449 9.61697L12.4995 9.96462C12.5845 10.1558 12.677 10.3633 12.705 10.4259C12.7696 10.5699 12.7516 10.573 13.1296 10.3526C13.3058 10.2498 13.443 10.1807 13.4344 10.1989C13.4258 10.2171 13.3949 10.2944 13.3658 10.3707C13.3043 10.5315 13.1337 10.6194 12.4715 10.8311C12.0564 10.9639 12.1366 11.0037 11.7784 10.4868C11.4171 9.96541 11.4662 9.98799 11.2348 10.2364C10.6092 10.9083 10.7022 10.8767 10.1608 10.6013C9.77905 10.4071 9.75196 10.3876 9.67074 10.2508C9.56238 10.0681 9.57032 10.0633 9.78857 10.178C9.88691 10.2298 9.98293 10.2721 10.002 10.2721C10.032 10.2721 10.3458 9.68654 10.3965 9.53564C10.4066 9.50558 10.4354 8.91596 10.4605 8.22539C10.4857 7.53481 10.513 6.82539 10.5213 6.64891C10.5296 6.47243 10.526 6.35646 10.5135 6.39115C10.4969 6.43691 10.4403 6.47076 10.3073 6.5144C10.0768 6.59012 9.85446 6.71577 9.95106 6.71577C9.98688 6.71577 10.0879 6.69201 10.1754 6.66293C10.3721 6.59764 10.3642 6.58495 10.2747 6.82333C10.2333 6.93329 10.1836 7.09831 10.1642 7.18997L10.1289 7.35666L9.81324 7.21265C9.55523 7.09491 9.50398 7.07912 9.53264 7.12615C9.60727 7.24871 9.89 7.61934 9.92194 7.63661C10.0089 7.68354 9.93309 7.70514 9.6815 7.70514H9.40733L9.31648 7.44443C9.15315 6.9759 8.87943 5.85551 8.91964 5.82038C8.93288 5.80881 9.31592 5.99125 9.66032 6.17324L9.83943 6.26785L10.0607 6.07582C10.2583 5.90436 10.2864 5.88847 10.3232 5.92724C10.3602 5.96621 10.5124 6.04729 10.5485 6.04729C10.5745 6.04729 10.6291 5.77929 10.6291 5.65113C10.6291 5.54943 10.7199 5.23125 10.862 4.83539C10.9118 4.69659 10.2674 5.0927 9.90065 5.42633C9.58367 5.71469 9.52707 5.73128 9.78446 5.46033C9.8606 5.38018 9.91901 5.31115 9.91417 5.30692C9.90194 5.29625 8.84958 5.60522 8.76723 5.6437C8.71176 5.66963 8.69649 5.66781 8.68129 5.63327C8.64947 5.5608 8.54961 5.52906 8.52916 5.5849C8.51953 5.61128 8.45876 5.72911 8.39416 5.84675C8.27572 6.06234 8.01979 6.64783 7.91582 6.94101C7.87105 7.06726 7.83877 7.11021 7.7566 7.15253C7.66243 7.20109 7.65511 7.21398 7.67172 7.30165C7.68169 7.35444 7.69003 7.44286 7.6902 7.49811L7.69054 7.59862L7.85888 7.51562C8.07741 7.40792 8.07364 7.41609 7.77474 7.69944C7.43106 8.02524 6.9895 8.69269 7.26964 8.46298C7.37311 8.37811 7.58904 8.24605 7.72117 8.18677L7.79766 8.15242L7.72117 8.22524C7.67905 8.26529 7.51036 8.40202 7.34619 8.5291L7.04774 8.76015V8.88777C7.04774 8.9815 7.03079 9.03016 6.98381 9.07119C6.80826 9.2246 6.75205 9.58696 6.84425 9.97131C6.86627 10.0632 6.87292 10.1384 6.85889 10.1384C6.81857 10.1384 6.82938 10.2919 6.87663 10.3908C6.92349 10.4888 6.89421 10.5115 6.71927 10.5124C6.67388 10.5127 6.64555 10.5329 6.63473 10.5729C6.61586 10.6428 6.56793 11.9033 6.58421 11.9032C6.59018 11.9032 6.62133 11.8741 6.65337 11.8385C6.79373 11.6826 7.18302 11.6475 7.48333 11.7636L7.62115 11.8168L7.65787 11.6662C7.71644 11.426 7.80982 11.1917 7.98724 10.8401C8.1482 10.5211 8.15384 10.5017 8.19625 10.1149C8.23792 9.73485 8.24519 9.70873 8.36256 9.51862C8.43009 9.40925 8.56115 9.12477 8.6538 8.88644C8.74651 8.64807 8.85211 8.40211 8.88855 8.33983L8.95473 8.22657L9.05746 8.74794C9.34673 10.2167 9.34684 10.2291 9.08021 11.101C8.62773 12.5807 8.35879 14.5862 8.44017 15.874C8.46727 16.3029 8.48208 16.2913 8.57687 15.767C8.67622 15.2173 8.99979 14.1878 9.05735 14.2381C9.0645 14.2443 9.007 14.528 8.92955 14.8685C8.79951 15.4403 8.66873 16.1301 8.68664 16.1497C8.69081 16.1543 8.84907 16.0902 9.03831 16.0073C9.29311 15.8957 9.37607 15.8692 9.35793 15.9054C9.07036 16.4788 9.11119 16.9075 9.49699 17.3647C9.69181 17.5956 9.66579 17.6078 9.9247 17.1642C10.047 16.9546 10.2266 16.6507 10.3238 16.489C10.5998 16.0295 10.6648 15.8188 10.8 14.9445C10.8291 14.7568 10.8573 14.6072 10.8628 14.6119C10.8769 14.6242 11.1495 15.569 11.1491 15.6043C11.149 15.6202 11.1091 15.5732 11.0606 15.4997C11.012 15.4261 10.9364 15.3368 10.8925 15.3011L10.8127 15.2363V15.5308C10.8127 15.8948 10.7485 16.1305 10.5549 16.4775C10.4775 16.6162 10.4211 16.708 10.4295 16.6814C10.46 16.585 10.3847 16.669 10.2361 16.8973C9.82495 17.5287 9.40243 18.4458 9.15642 19.2407C9.0093 19.716 8.89965 19.94 8.7656 20.0385C8.70398 20.0837 8.64569 20.1657 8.60931 20.258C8.54279 20.427 8.34488 20.7034 8.14409 20.908C7.96831 21.087 7.85826 21.264 7.798 21.4645L7.75035 21.6229L7.83523 21.6851C8.26102 21.9966 8.36369 22.0433 8.45803 21.9688C8.50714 21.93 8.5215 21.9397 8.65346 22.1013C8.73186 22.1972 8.86231 22.3183 8.94341 22.3703C9.07329 22.4535 9.3866 22.7488 9.28939 22.6964C9.26799 22.6848 9.25166 22.6891 9.25166 22.7061C9.25166 22.724 9.27638 22.7294 9.31288 22.7193C9.35833 22.7066 9.37472 22.7147 9.37646 22.7509C9.37782 22.7776 9.38559 22.7851 9.39375 22.7675C9.40192 22.75 9.42834 22.7422 9.45239 22.7503C9.47649 22.7584 9.48725 22.7776 9.47632 22.793C9.46444 22.8098 9.47125 22.8131 9.49311 22.8013C9.51333 22.7904 9.54644 22.793 9.56672 22.8069C9.72797 22.918 10.4957 23.0542 10.509 22.9741C10.5103 22.9663 10.5161 22.9379 10.5219 22.911C10.5291 22.8777 10.5187 22.8668 10.489 22.8768C10.4592 22.8867 10.4454 22.8722 10.4454 22.8307C10.4454 22.7666 10.3936 22.7056 10.3398 22.7063C10.3221 22.7065 10.3284 22.7184 10.3536 22.7326C10.4188 22.7694 10.3434 22.7663 10.2479 22.7283C10.205 22.7112 10.1699 22.6872 10.1699 22.6748C10.1699 22.6625 10.1508 22.6524 10.1274 22.6524C10.0823 22.6524 9.92267 22.5478 9.96547 22.5463C9.97933 22.5458 10.0113 22.5635 10.0366 22.5855C10.0618 22.6076 10.1056 22.6247 10.1338 22.6236C10.166 22.6222 10.1708 22.6164 10.1468 22.6079C10.1257 22.6004 10.1175 22.5813 10.1289 22.5654C10.1416 22.5472 10.1312 22.5424 10.1009 22.5526C10.0736 22.5618 10.0455 22.5527 10.0363 22.5318C10.0256 22.5076 10.0354 22.4998 10.0644 22.5096C10.1286 22.5311 10.1201 22.4502 10.0521 22.3927C9.95939 22.3144 9.80732 22.0364 9.7554 21.8502C9.72876 21.7546 9.67474 21.5862 9.63543 21.4759C9.41003 20.8438 9.41932 20.5414 9.66269 20.588C9.71439 20.5978 9.92391 20.6062 10.1283 20.6064C10.6092 20.607 10.6124 20.6048 10.6812 20.2325C10.6995 20.1334 10.7209 20.1099 10.7209 20.1888C10.7209 20.2212 10.7811 20.4849 10.8547 20.7749C10.9283 21.0649 10.998 21.3478 11.0095 21.4037C11.0209 21.4597 11.0468 21.5102 11.067 21.5161C11.0871 21.5219 11.1611 21.5396 11.2315 21.5553C11.3589 21.5838 11.3593 21.5842 11.3158 21.6569C11.2486 21.7695 11.2569 21.8324 11.3341 21.7963C11.3684 21.7802 11.3328 21.8249 11.255 21.8956C11.0772 22.057 11.0365 22.1176 11.1058 22.1176C11.1473 22.1176 11.1526 22.1354 11.1359 22.2179C11.1022 22.3841 11.09 22.4042 10.979 22.4781C10.8919 22.5362 10.8735 22.5651 10.879 22.6353C10.8872 22.7427 10.8577 22.7861 10.7763 22.7861C10.6819 22.7861 10.7301 22.5771 10.8605 22.4204C10.9058 22.3661 10.9052 22.3631 10.8518 22.3754C10.7821 22.3912 10.6862 22.6515 10.6822 22.8355L10.6795 22.9599L10.8096 22.9525C10.8927 22.9478 10.9327 22.955 10.9203 22.9725C10.9097 22.9876 10.9155 23 10.9334 23C10.9512 23 10.9657 22.991 10.9657 22.98C10.9657 22.969 11.0897 22.9638 11.2412 22.9685C11.4325 22.9745 11.5167 22.9678 11.5167 22.9466C11.5167 22.9285 11.489 22.9222 11.4479 22.9311C11.4028 22.9409 11.4107 22.9324 11.4708 22.9068C11.5214 22.8852 11.5971 22.8737 11.6392 22.8811C11.6945 22.8909 11.7036 22.8876 11.6719 22.8693C11.6388 22.85 11.6556 22.8393 11.7405 22.8254C11.8082 22.8143 11.8449 22.7957 11.8329 22.7786C11.8202 22.7607 11.8322 22.7568 11.8653 22.7679C11.8965 22.7784 11.9103 22.7748 11.8992 22.7591C11.8889 22.7445 11.9019 22.7326 11.9282 22.7326C11.9544 22.7326 11.9759 22.7195 11.9759 22.7035C11.9759 22.6875 12.0068 22.6518 12.0448 22.6242C12.0946 22.5878 12.1009 22.5736 12.0677 22.5726C12.0269 22.5715 12.0269 22.5685 12.0677 22.5454C12.1317 22.5093 12.1668 22.5124 12.1438 22.5521C12.1331 22.5705 12.1442 22.5645 12.1683 22.5387C12.1924 22.513 12.223 22.492 12.2361 22.492C12.2492 22.492 12.2797 22.4709 12.3038 22.4452C12.3307 22.4165 12.3391 22.414 12.3257 22.4385C12.3087 22.4693 12.3124 22.4715 12.3415 22.4481C12.3636 22.4303 12.3852 22.3194 12.3934 22.1808C12.4172 21.7839 12.4146 21.731 12.3668 21.6488C12.2398 21.43 12.2551 21.3926 12.5382 21.228L12.7953 21.0785L12.7821 20.9496C12.7489 20.6245 12.665 20.2678 12.5414 19.9258C12.3083 19.2807 12.1764 18.4919 12.208 17.9312C12.2214 17.6946 12.2135 17.557 12.1777 17.3992C12.1202 17.1459 12.0957 17.1728 12.5058 17.0412C13.1711 16.828 13.2841 16.6549 13.0872 16.1506L13.0281 15.9994L13.099 16.023C13.2599 16.0765 13.7254 16.1111 13.7539 16.0717C13.8046 16.0016 13.7339 15.7268 13.5759 15.3793C13.5456 15.3128 13.6376 15.3894 13.9769 15.7136C14.3358 16.0563 14.3348 16.0557 14.3126 15.9225C14.2612 15.6142 14.1016 15.1808 13.8924 14.7816C13.8051 14.6149 13.7934 14.5755 13.8357 14.5905C14.0564 14.6689 14.1049 14.6583 14.1497 14.5219C14.1855 14.4129 14.186 13.8796 14.1507 13.5611C14.1196 13.282 14.1231 13.2776 14.2098 13.4853C14.4506 14.0622 15.056 14.8042 15.7643 15.3904C16.0455 15.6232 16.3478 15.8317 16.4302 15.8498C16.539 15.8736 17.6106 17.0882 17.7792 17.379C17.8361 17.4769 17.8659 17.5777 17.8766 17.7075C17.8943 17.9243 17.9626 17.9548 17.9559 17.743C17.9497 17.5439 17.4027 16.1534 17.021 15.3659C16.6601 14.6214 15.8517 13.2669 15.7683 13.2669C15.7555 13.2669 15.736 13.2916 15.725 13.3219C15.6947 13.4054 15.5212 13.3843 15.4926 13.2937L15.4715 13.2268L15.4684 13.2998C15.4653 13.3759 15.3552 13.4269 15.2809 13.3867C15.2413 13.3654 15.2636 12.937 15.315 12.7321C15.3447 12.6135 15.3419 12.6065 15.1102 12.2374C14.2955 10.9393 13.8728 9.83335 14.0738 9.52605C14.2764 9.21653 14.54 8.60275 14.6253 8.24212C14.6514 8.13146 14.6777 8.03665 14.6838 8.03144C14.6897 8.02617 14.8937 8.18829 15.1371 8.39164C15.4099 8.61953 15.6805 8.81771 15.8428 8.90839C16.133 9.0705 16.1314 9.06829 16.2381 9.45658C16.2856 9.62947 16.3 9.80915 16.3133 10.3944L16.3298 11.1183L16.4775 11.0848C16.5587 11.0664 16.8635 11.0475 17.1549 11.0427L17.6846 11.0342L17.769 10.9272C17.903 10.7573 17.9899 10.5347 17.9355 10.5C17.9008 10.4778 17.8995 10.4656 17.9297 10.441C18.0006 10.3831 18.0164 10.2179 17.9547 10.1784C17.9018 10.1446 17.9019 10.1411 17.9565 10.0884C18.0364 10.0112 18.0016 9.94799 17.89 9.96747L17.8023 9.98282L17.7481 9.65284C17.7182 9.47134 17.6826 9.16019 17.6689 8.96137C17.6173 8.2124 17.4082 7.87621 16.7635 7.50529C16.5238 7.36738 16.236 7.10485 16.0153 6.82274C15.928 6.71115 15.8921 6.68424 15.7057 6.58997C15.5922 6.53265 15.5559 6.49604 15.5268 6.4097C15.5067 6.35007 15.4554 6.26903 15.4128 6.22953C15.3545 6.17555 15.3401 6.14082 15.3549 6.0896C15.3696 6.03843 15.3591 6.01314 15.3128 5.98785C15.2769 5.96832 15.2511 5.92542 15.2511 5.88552C15.2511 5.73551 14.9422 5.65413 14.8527 5.78062C14.8193 5.82781 14.7152 5.79976 14.3 5.63194C13.9097 5.4742 13.7078 5.40552 13.4333 5.33738C13.2897 5.30176 13.1901 5.24714 12.9435 5.06894C12.5318 4.77133 12.5463 4.79027 12.6407 4.67435C12.6973 4.60488 12.7282 4.51883 12.7518 4.36479C12.777 4.20031 12.7953 4.15209 12.8317 4.15436C12.9493 4.16164 12.9858 4.14486 13.0038 4.07529C13.0315 3.96794 13.1059 3.72764 13.1594 3.57266C13.185 3.49847 13.2081 3.40376 13.2108 3.36218C13.2143 3.3058 13.2484 3.26688 13.3448 3.20892C13.8201 2.92302 13.7577 2.51864 13.2379 2.51736C12.9666 2.51667 12.9456 2.50324 12.97 2.34669C12.9817 2.27161 13.0099 2.08986 13.0326 1.9428C13.0553 1.79574 13.0935 1.60297 13.1174 1.51446C13.1876 1.25508 13.101 1.17837 12.6034 1.05897C12.4231 1.01577 11.5627 0.982311 11.3484 1.01026ZM12.6534 1.13149C12.7185 1.14851 12.7718 1.17931 12.7718 1.19992C12.7718 1.22143 12.7567 1.22925 12.7364 1.21828C12.7143 1.20637 12.7093 1.21099 12.7233 1.23063C12.7355 1.24789 12.7291 1.30531 12.7091 1.35825C12.6861 1.41896 12.6643 1.44263 12.65 1.42236C12.6368 1.40376 12.6277 1.42216 12.6284 1.46595C12.629 1.50762 12.6119 1.64814 12.5902 1.77818C12.5687 1.90826 12.559 2.04961 12.5688 2.09237C12.5863 2.16917 12.5848 2.17011 12.4459 2.17011H12.3054L12.3198 1.82915C12.3364 1.43663 12.4138 1.10054 12.4875 1.10054C12.5136 1.10054 12.5883 1.11446 12.6534 1.13149ZM11.7726 2.27038C11.8111 2.47367 11.8184 2.46733 11.555 2.45867L11.3178 2.45084V2.33055V2.2102L11.4862 2.19451C11.5787 2.1859 11.6768 2.17685 11.7041 2.17444C11.7389 2.17138 11.7592 2.19977 11.7726 2.27038ZM11.5162 3.17222C11.5403 3.19761 11.5426 3.21291 11.5223 3.21291C11.5044 3.21291 11.4813 3.2009 11.4708 3.18619C11.3999 3.08602 11.0144 3.2378 11.0067 3.36892C11.0039 3.41566 11.0143 3.4471 11.0297 3.43879C11.045 3.43047 11.0576 3.40823 11.0576 3.38929C11.0576 3.3704 11.0853 3.33305 11.1191 3.30629C11.1774 3.26019 11.2271 3.25586 11.4862 3.27431C11.5787 3.2809 11.6143 3.17738 11.5294 3.14885C11.4858 3.13429 11.4837 3.13802 11.5162 3.17222ZM12.9056 3.50649C12.8949 3.55829 12.8756 3.61266 12.8626 3.62737C12.8496 3.64208 12.816 3.76174 12.788 3.8933C12.7392 4.12174 12.6907 4.24739 12.6612 4.22166C12.6538 4.21507 12.6605 4.17999 12.6763 4.14363C12.6922 4.10732 12.7136 4.01241 12.7239 3.93271C12.7343 3.853 12.758 3.70831 12.7767 3.61118C12.7953 3.51401 12.8038 3.39431 12.7956 3.34521C12.7873 3.29606 12.7958 3.2413 12.8144 3.22339C12.8632 3.17665 12.9304 3.3856 12.9056 3.50649ZM12.7224 3.34334C12.7654 3.38486 12.7697 3.41606 12.7471 3.52385C12.72 3.65359 12.7197 3.65384 12.6846 3.57901C12.6652 3.53768 12.6353 3.51145 12.618 3.5208C12.6007 3.53015 12.5903 3.52184 12.595 3.50235C12.5999 3.48169 12.5813 3.47018 12.5503 3.4747C12.5152 3.47982 12.5029 3.46963 12.5139 3.44459C12.5317 3.404 12.3951 3.35869 12.3418 3.38747C12.3257 3.39618 12.3126 3.39086 12.3126 3.37571C12.3126 3.30039 12.6503 3.27372 12.7224 3.34334ZM11.367 3.38255C11.1773 3.48789 11.075 3.58663 11.1184 3.62235C11.1485 3.64705 11.1607 3.64553 11.1731 3.61551C11.1972 3.55726 11.325 3.45335 11.37 3.45542C11.3918 3.4564 11.3786 3.47027 11.3407 3.48621C11.2607 3.51992 11.2574 3.53305 11.3126 3.59893C11.3599 3.65551 11.4862 3.61669 11.4862 3.54555C11.4862 3.51062 11.4966 3.51042 11.5709 3.54398C11.7942 3.64484 11.876 3.52149 11.6707 3.39342C11.5323 3.30708 11.5048 3.30609 11.367 3.38255ZM10.4454 3.47387C10.4454 3.48503 10.4729 3.50924 10.5066 3.52759C10.5736 3.56415 10.5896 3.53679 10.5311 3.48567C10.4897 3.44946 10.4454 3.44336 10.4454 3.47387ZM10.893 3.60169C10.8825 3.6256 10.8758 3.68926 10.8781 3.74324C10.8817 3.83086 10.8845 3.82707 10.9042 3.70762C10.9277 3.56528 10.9241 3.53099 10.893 3.60169ZM11.3773 4.44528C11.3677 4.4589 11.3779 4.47494 11.4 4.4809C11.4221 4.48685 11.4871 4.50481 11.5443 4.5208C11.7326 4.57344 12.3245 4.55834 12.4087 4.49871C12.5061 4.42968 12.4793 4.41723 12.2973 4.44705C12.0094 4.49418 11.5781 4.50038 11.4826 4.45876C11.432 4.43672 11.3874 4.43101 11.3773 4.44528ZM12.0884 4.66013C12.0577 4.67573 11.9647 4.68439 11.8818 4.67937C11.6764 4.66692 11.7052 4.71849 11.9172 4.7425C12.1207 4.76557 12.1771 4.75283 12.1771 4.6836C12.1771 4.62299 12.1668 4.62028 12.0884 4.66013ZM11.5684 6.17152C11.5264 6.20827 11.5482 6.265 11.6009 6.25609C11.6304 6.25117 11.6545 6.23022 11.6545 6.2096C11.6545 6.16739 11.6005 6.14348 11.5684 6.17152ZM14.1186 6.18279C14.1186 6.19947 14.0899 6.20443 14.0497 6.19479C13.9843 6.17905 13.9837 6.18023 14.0375 6.21796C14.09 6.25477 14.0913 6.27179 14.0559 6.44522C14.0249 6.59651 14.0251 6.67154 14.0569 6.83381C14.1085 7.09742 14.087 7.12483 13.6794 7.31582C13.3192 7.48463 12.7172 7.71154 12.6677 7.69712C12.6366 7.68807 12.9854 7.44738 13.0731 7.41742C13.1052 7.40645 13.1102 7.35262 13.0958 7.17319C13.0708 6.86057 13.0932 6.79754 13.2768 6.66534C13.6549 6.39302 13.9893 6.2279 13.9427 6.33659C13.9266 6.37408 13.9312 6.37605 13.9702 6.34835C13.996 6.33009 14.0261 6.32306 14.0372 6.33275C14.0483 6.34244 14.0573 6.33177 14.0573 6.30903C14.0573 6.23735 13.9823 6.2035 13.8907 6.23391C13.7575 6.27814 13.7564 6.26136 13.889 6.20773C14.0291 6.15105 14.1186 6.14136 14.1186 6.18279ZM16.421 11.3298C16.3488 11.374 16.3285 11.507 16.3825 11.5816C16.4161 11.6281 16.4323 11.5994 16.4521 11.4581C16.4608 11.3968 16.453 11.3776 16.4238 11.3874C16.3505 11.412 16.3822 11.3708 16.4679 11.3302C16.5141 11.3083 16.5379 11.2899 16.5206 11.2893C16.5033 11.2887 16.4585 11.307 16.421 11.3298ZM6.84481 11.8615C6.74749 11.8985 6.68221 11.9567 6.73803 11.9567C6.75487 11.9567 6.77571 11.9467 6.78432 11.9345C6.81417 11.8923 7.12783 11.8413 7.18505 11.8693C7.23191 11.8922 7.22543 11.9 7.13571 11.9286C7.03495 11.9607 7.03416 11.9622 7.10141 11.99C7.1659 12.0166 7.18578 12.0576 7.24424 12.2842C7.26125 12.3503 7.25461 12.3581 7.1784 12.3605C7.09815 12.3631 7.0991 12.3644 7.19598 12.3844C7.25224 12.396 7.31425 12.4196 7.33374 12.4367C7.36066 12.4604 7.35447 12.4639 7.30794 12.4513C7.27314 12.4418 7.28271 12.4529 7.33013 12.4769C7.4488 12.5371 7.4746 12.5941 7.44565 12.7321C7.43044 12.8049 7.43264 12.8713 7.45128 12.9017C7.51059 12.9985 7.45218 13.1201 7.27685 13.2649C7.18471 13.341 7.10017 13.4354 7.08891 13.4745L7.06846 13.5457L7.19018 13.4614C7.25714 13.4151 7.37142 13.3208 7.44407 13.2519L7.57626 13.1267L7.56026 12.9094C7.55148 12.7898 7.52726 12.6598 7.50642 12.6205C7.47736 12.5656 7.47578 12.481 7.49955 12.2595C7.52123 12.0575 7.52078 11.9595 7.4982 11.9351C7.40155 11.8306 7.03467 11.7893 6.84481 11.8615ZM16.6285 12.1119C16.6285 12.1237 16.679 12.1748 16.7406 12.2255L16.8528 12.3177L16.7508 12.204C16.6466 12.0878 16.6285 12.0742 16.6285 12.1119ZM15.5011 12.7842C15.4832 12.8291 15.4751 12.8658 15.483 12.8658C15.5037 12.8658 15.5615 12.7269 15.5463 12.7137C15.5393 12.7076 15.519 12.7394 15.5011 12.7842ZM7.03546 12.8992C6.99316 12.9323 6.90631 13.0497 6.84245 13.1599L6.72637 13.3605L6.73453 13.6904C6.74214 13.9954 6.73836 14.0214 6.68458 14.0337C6.64611 14.0424 6.61975 14.0802 6.60674 14.1449C6.56495 14.3539 6.05873 17.0886 5.9328 17.7858C5.85879 18.1959 5.77819 18.5567 5.75065 18.6014C5.72351 18.6455 5.7012 18.7095 5.70115 18.7435C5.70103 18.7776 5.64533 19.1326 5.57746 19.5324C5.2152 21.6645 5.10971 22.2593 5.05598 22.4716C4.97319 22.7991 4.97426 22.8053 5.11332 22.8169C5.20191 22.8243 5.22951 22.817 5.22867 22.7863C5.22517 22.6576 5.36429 21.84 5.7475 19.7378C5.85603 19.1422 5.98061 18.4503 6.02432 18.2003C6.13111 17.5889 6.36721 16.3132 6.6082 15.0451C6.71719 14.4715 6.82594 13.8847 6.84988 13.741C6.89725 13.4565 7.03873 13.1459 7.20212 12.9677C7.2519 12.9134 7.29262 12.8622 7.29262 12.854C7.29262 12.8131 7.10299 12.8464 7.03546 12.8992ZM15.4756 13.0448C15.4784 13.1211 15.4908 13.1748 15.5032 13.1642C15.5155 13.1535 15.5133 13.091 15.4981 13.0253L15.4706 12.9059L15.4756 13.0448ZM11.8841 13.0499C11.5295 13.1498 11.348 13.264 11.1584 13.5065C11.0281 13.6732 11.0132 13.6581 11.1081 13.4555C11.2136 13.2305 11.4138 13.1019 11.7616 13.0359C12.0116 12.9885 12.0758 12.9958 11.8841 13.0499ZM11.1806 14.0655C11.4292 14.329 11.669 14.6877 11.5091 14.5568C11.3407 14.419 10.9548 14.3093 11.0398 14.4234C11.163 14.5891 11.4958 15.5401 11.4458 15.5838C11.3982 15.6255 10.9045 14.4189 10.9045 14.2607C10.9045 14.1194 10.9699 13.8477 10.9975 13.8738C11.01 13.8856 11.0924 13.9718 11.1806 14.0655ZM14.4762 15.3726C14.543 15.6598 14.5623 16.4342 14.5066 16.5896C14.4517 16.7429 14.425 16.7249 14.9102 16.8614C15.8816 17.1346 16.7219 17.2239 16.7201 17.0537C16.7196 17.0141 16.5006 16.7608 16.2215 16.4773C15.8934 16.1441 15.5031 15.6905 15.3286 15.44C15.245 15.3198 15.1715 15.226 15.1653 15.2314C15.1373 15.2559 15.5779 15.9906 15.8233 16.3286C15.9727 16.5344 16.1274 16.7491 16.167 16.8056L16.239 16.9083L16.1192 16.8549C15.5936 16.6207 14.896 15.9665 14.5779 15.4097C14.4274 15.1462 14.4232 15.1447 14.4762 15.3726ZM13.927 16.1214C13.9463 16.3178 13.9534 16.3152 13.5835 16.2442C13.3014 16.19 13.2905 16.1976 13.4265 16.3534C13.5334 16.4757 13.7206 16.7899 13.7206 16.8471C13.7206 16.8872 13.7282 16.8862 14.0098 16.8101C14.3724 16.7121 14.3637 16.7494 14.1227 16.3265L13.9106 15.9542L13.927 16.1214ZM9.45954 21.1884C9.48438 21.2146 9.44906 21.2219 9.2975 21.2219C9.19088 21.2219 9.1068 21.2191 9.11063 21.2158C9.11941 21.2081 9.34735 21.1613 9.3933 21.1577C9.41228 21.1562 9.44208 21.17 9.45954 21.1884ZM11.6625 21.7349C11.6332 21.7416 11.5781 21.7418 11.5401 21.7355C11.502 21.7291 11.5259 21.7235 11.5933 21.7233C11.6606 21.723 11.6918 21.7282 11.6625 21.7349ZM9.3202 22.2732C9.30916 22.2984 9.31513 22.3067 9.33614 22.2954C9.35467 22.2854 9.37793 22.2886 9.38778 22.3025C9.39764 22.3165 9.39263 22.3349 9.37669 22.3435C9.34211 22.3622 9.24721 22.2525 9.27002 22.2202C9.27875 22.2079 9.269 22.1978 9.24833 22.1978C9.22772 22.1978 9.21989 22.1899 9.23099 22.1802C9.24202 22.1706 9.2409 22.1489 9.22839 22.1322C9.21595 22.1154 9.23549 22.1312 9.27182 22.1672C9.3082 22.2033 9.32994 22.251 9.3202 22.2732ZM9.48302 22.4325C9.4748 22.4397 9.51034 22.4801 9.56204 22.5222C9.61375 22.5644 9.6436 22.5989 9.62839 22.5989C9.58429 22.5989 9.37066 22.3969 9.39359 22.3769C9.40502 22.3669 9.43318 22.3724 9.45616 22.3891C9.47919 22.4057 9.49125 22.4252 9.48302 22.4325ZM9.80259 22.6801C9.80259 22.6943 9.81611 22.7059 9.83261 22.7059C9.87074 22.7059 10.2005 22.8893 10.2005 22.9105C10.2005 22.9192 10.1799 22.9114 10.1546 22.893C10.1294 22.8747 10.1087 22.8687 10.1087 22.8796C10.1087 22.8905 10.0639 22.8707 10.0092 22.8355C9.95449 22.8004 9.8708 22.7543 9.82321 22.7331C9.77561 22.712 9.7229 22.6722 9.70611 22.6448C9.67885 22.6003 9.68246 22.5981 9.73906 22.6246C9.77404 22.6409 9.80259 22.6659 9.80259 22.6801ZM10.6087 22.9082C10.5986 22.9313 10.6042 22.9623 10.6212 22.9771C10.6419 22.9952 10.652 22.9815 10.652 22.9352C10.652 22.857 10.6357 22.8468 10.6087 22.9082Z" />
</svg>
