<svg width="1000" height="1000" viewBox="0 0 1000 1000" fill="none" xmlns="http://www.w3.org/2000/svg">
<path d="M500 15.625C767.188 15.625 984.375 232.812 984.375 500C984.375 767.188 767.188 984.375 500 984.375C232.812 984.375 15.625 767.188 15.625 500C15.625 232.812 232.812 15.625 500 15.625ZM500 0C223.437 0 0 223.437 0 500C0 776.563 223.437 1000 500 1000C776.563 1000 1000 776.563 1000 500C1000 223.437 776.563 0 500 0Z" fill="#776548"/>
<path d="M610.433 459.7C610.433 459.7 628.838 445.705 614.828 431.71C600.818 417.715 587.198 435.775 587.198 435.775L446.363 576.64C446.363 576.64 413.378 619.21 388.298 593.47C363.248 567.7 405.113 535.39 405.113 535.39L589.778 350.74C589.778 350.74 632.873 303.265 673.388 343.75C713.843 384.25 666.233 427.435 666.233 427.435L458.738 634.93C458.738 634.93 392.348 711.625 330.893 650.155C269.438 588.685 346.883 523.045 346.883 523.045L504.413 365.47C504.413 365.47 522.053 350.74 508.838 337.48C495.563 324.235 480.863 341.905 480.863 341.905L300.098 522.67C300.098 522.67 231.863 597.505 308.063 673.69C384.263 749.92 459.143 681.685 459.143 681.685L707.588 433.21C707.588 433.21 757.298 378.385 698.033 319.09C638.768 259.795 583.928 309.505 583.928 309.505L370.148 523.255C370.148 523.255 315.398 567.79 365.078 617.44C414.758 667.15 458.483 611.59 458.483 611.59L610.433 459.7Z" fill="#776548"/>
</svg>
