<svg width="24" height="24" viewBox="0 0 24 24" fill="none" xmlns="http://www.w3.org/2000/svg">
<rect width="24" height="24" fill="white"/>
<path fill-rule="evenodd" clip-rule="evenodd" d="M13.4262 1.85151C12.9383 1.99583 11.7979 2.8311 11.2919 3.41472C10.7846 3.99995 10.4288 4.75437 10.4288 5.24498C10.4288 5.36214 10.4175 5.37086 10.0238 5.55872C9.65921 5.7328 9.68129 5.73086 9.38123 5.61558C8.40827 5.24181 7.19045 5.54123 5.92439 6.46541C5.75171 6.59146 5.62553 6.65154 5.36225 6.73306C4.06229 7.13559 3.05687 8.4055 2.45459 10.4057C2.34233 10.7784 2.32283 10.8462 2.29019 10.9766C1.46375 14.2815 1.99319 17.9379 3.57473 19.8475C4.01891 20.3837 4.43291 20.6962 5.15219 21.0378C5.39987 21.1555 5.59055 21.2634 5.70965 21.3534C6.79247 22.1715 7.72919 22.3353 9.01313 21.9312C9.34583 21.8265 9.31511 21.8252 9.49499 21.9519C10.5638 22.7048 12.4134 22.7936 13.7815 22.1577L13.9841 22.0635L14.1328 22.1289C14.646 22.3548 14.95 22.4197 15.3754 22.3946C15.9593 22.36 16.3149 22.186 17.0793 21.5607L17.3632 21.3285L17.7194 21.3284C18.4589 21.328 18.7985 21.2551 19.2492 21C19.885 20.6402 20.5053 19.9546 20.8963 19.1796C22.6006 15.8012 22.2173 10.0194 20.1388 7.7558C19.3476 6.8941 18.7418 6.60334 17.6461 6.55931L17.2863 6.54481L17.099 6.38333C16.676 6.01839 16.1318 5.75785 15.5767 5.6544C15.3029 5.60336 14.3633 5.62136 14.0369 5.68388C13.9153 5.70721 13.8053 5.72092 13.7925 5.71442C13.7797 5.70787 13.7002 5.66067 13.6157 5.60947C13.5313 5.55827 13.3379 5.45782 13.1859 5.38624C13.0339 5.31467 12.9011 5.2482 12.8907 5.23865C12.8689 5.21849 13.0214 4.86815 13.1548 4.63193C13.4195 4.16315 13.9237 3.64661 14.549 3.20337C15.1834 2.75375 15.1852 2.55179 14.558 2.18796C14.4571 2.12938 14.2817 2.02032 14.1684 1.94557L13.9624 1.80969L13.7611 1.81086C13.6331 1.81158 13.5111 1.82641 13.4262 1.85151ZM9.55457 8.60141C9.57185 8.63995 9.60863 8.78294 9.63635 8.9192C9.66407 9.05547 9.70139 9.23484 9.71921 9.31774C9.73703 9.4007 9.77873 9.61399 9.81191 9.79174C9.84509 9.96944 9.89165 10.2167 9.91541 10.3411C10.1702 11.6756 10.1717 11.6955 10.025 11.7403C9.94361 11.7652 9.95093 11.7667 9.04367 11.5475C8.90285 11.5135 8.55719 11.4313 8.27549 11.3648C7.04957 11.0756 6.77405 10.9931 6.77405 10.9155C6.77405 10.8727 6.97451 10.6818 7.65959 10.0723C7.81913 9.93045 8.09627 9.68307 8.27549 9.52265C9.46421 8.45864 9.48425 8.4442 9.55457 8.60141ZM14.3484 8.75961C14.4226 8.78599 14.8253 9.27026 15.7246 10.4148C16.2507 11.0843 16.3202 11.1989 16.2278 11.2446C16.1559 11.2802 15.0654 11.4567 14.2231 11.5691C14.0503 11.5922 13.7375 11.6355 13.5281 11.6655C12.7474 11.7771 12.7574 11.8242 13.316 10.6751C13.4599 10.3788 13.6219 10.0443 13.6759 9.93173C13.9451 9.37011 14.2774 8.74684 14.3077 8.74684C14.3103 8.74684 14.3287 8.75256 14.3484 8.75961ZM18.9346 12.447C19.042 12.8819 18.9408 14.3989 18.761 15.0485C18.1607 17.2182 16.1917 18.9374 13.6412 19.5188C12.9862 19.668 12.8792 19.6454 12.8052 19.3419C12.733 19.0456 12.6832 18.8965 12.6472 18.8689C12.5668 18.8071 10.4161 18.6941 10.2255 18.7417C10.0993 18.7732 10.087 18.7968 10.0206 19.1352C9.96191 19.4339 9.92327 19.5169 9.84047 19.5221C9.67475 19.5325 9.38675 19.4674 8.99717 19.3317C6.28337 18.3863 4.76639 16.3422 4.66307 13.4919C4.64789 13.0732 4.66313 13.0168 4.75343 13.1579C4.86689 13.3354 5.63837 14.086 6.06197 14.4311C6.47993 14.7716 6.76595 14.9743 7.27457 15.2902C7.65239 15.525 7.64177 15.4979 7.63163 16.204C7.62431 16.7153 7.62689 16.7597 7.66637 16.8002C7.73495 16.8705 8.74349 17.1821 9.81191 17.4629C10.2692 17.5831 10.2724 17.5808 10.3595 17.0561C10.4209 16.6863 10.4625 16.5541 10.5282 16.5193C10.6228 16.4693 12.3426 16.4807 12.4036 16.5318C12.4605 16.5794 12.4893 16.6942 12.5236 17.0099C12.554 17.2891 12.5833 17.3909 12.6533 17.4608L12.705 17.5125L12.853 17.4733C12.9344 17.4517 13.1425 17.398 13.3153 17.354C13.4881 17.31 13.6767 17.2602 13.7343 17.2434C13.7919 17.2265 14.0433 17.1591 14.293 17.0936C15.0042 16.907 15.3322 16.8054 15.3793 16.757C15.4341 16.7007 15.4328 16.3811 15.3767 16.1257C15.2468 15.5338 15.2748 15.4572 15.7278 15.1641C16.0451 14.9589 16.4343 14.6822 16.622 14.5283C16.6661 14.492 16.8018 14.381 16.9234 14.2815C17.3746 13.9123 18.0223 13.2977 18.5731 12.7163C18.909 12.3615 18.9128 12.3588 18.9346 12.447ZM11.6436 12.781C12.1208 13.3702 13.1267 14.7651 13.1958 14.9332C13.2526 15.0713 13.0368 15.0874 11.7883 15.0382C11.495 15.0266 10.9828 15.007 10.6499 14.9945C9.79595 14.9624 9.79367 14.9617 9.90731 14.7526C10.0369 14.5141 10.5291 13.7168 10.9505 13.0625C10.99 13.0012 11.0582 12.8945 11.102 12.8255C11.3387 12.4528 11.3754 12.4498 11.6436 12.781Z" fill="black"/>
</svg>
