<svg width="24" height="24" viewBox="0 0 24 24" fill="none" xmlns="http://www.w3.org/2000/svg">
<rect width="24" height="24" fill="white"/>
<path d="M7.83712 1.00784C7.80904 1.01128 7.71074 1.02331 7.61646 1.03362C7.06683 1.09721 6.36875 1.34983 5.781 1.69869C5.31763 1.97366 4.70179 2.46001 4.29458 2.87074C2.94056 4.23526 1.91551 6.093 1.3759 8.16384C0.942614 9.82395 0.880429 11.6078 1.2074 13.0033C1.68883 15.0569 2.83424 16.3372 4.43701 16.6139C4.71784 16.662 5.30559 16.6569 5.6105 16.6053C7.14506 16.3407 8.66157 15.2374 9.91731 13.4759L10.0938 13.2284L10.3245 13.1098C10.8039 12.8623 11.6023 12.5461 12.2041 12.364C13.524 11.9653 15.0746 11.7418 16.2481 11.7814C16.4708 11.7882 16.8198 11.7951 17.0244 11.7968C17.4537 11.7986 17.532 11.814 17.6583 11.9189C17.7346 11.9824 17.7867 12.0752 17.7867 12.1509C17.7867 12.1646 17.7506 12.1904 17.7065 12.2058L17.6262 12.2351V12.4155C17.6262 12.5908 17.6282 12.5977 17.6764 12.6252L17.7265 12.6527V13.1476C17.7265 13.4209 17.7326 13.6546 17.7386 13.67C17.7446 13.6855 17.8088 13.7319 17.877 13.7749L18.0054 13.8522L18.0114 14.0756C18.0154 14.1994 18.0114 14.299 18.0054 14.299C17.9973 14.299 17.9211 14.287 17.8349 14.2715C17.556 14.2217 17.0886 14.2612 16.9843 14.342C16.9502 14.3678 16.9442 14.3953 16.9442 14.4984C16.9442 14.6118 16.9482 14.6273 16.9923 14.6513C17.0585 14.6891 17.1468 14.708 17.3354 14.7287C17.4617 14.7424 17.536 14.763 17.6844 14.8249C17.7887 14.8696 17.9011 14.9108 17.9352 14.916L17.9973 14.928L18.0034 15.0758L18.0094 15.2236L18.0976 15.2442C18.1819 15.2649 18.1879 15.27 18.1879 15.3233C18.1879 15.3886 18.1678 15.3937 18.0475 15.3645C17.4477 15.2167 16.1458 15.1205 15.2492 15.1583C14.86 15.1738 14.7818 15.172 14.2462 15.1308L13.6645 15.0861L11.6986 15.9677C9.98752 16.7342 9.68662 16.8631 9.38171 16.9628L9.03067 17.0762L9.02465 17.1398C9.02064 17.1741 9.02064 17.2034 9.02465 17.2034C9.03468 17.2034 10.1199 17.523 10.1901 17.5454L10.2443 17.5643V18.4751C10.2443 19.3275 10.2423 19.3876 10.2102 19.3979C9.89324 19.489 9.6465 19.709 9.31151 20.2039C9.06277 20.57 8.63549 20.8759 8.19218 21.0082C8.16209 21.0168 8.15807 21.034 8.16209 21.1251L8.1681 21.2316L8.32858 21.2626C8.71172 21.3347 9.50007 21.4688 10.8461 21.6905C11.0166 21.7197 11.2433 21.7575 11.3476 21.7747C11.4519 21.7919 11.6866 21.8314 11.8691 21.8606C12.0517 21.8898 12.2402 21.9208 12.2904 21.9293C12.3405 21.9379 12.5291 21.9689 12.7116 21.9981C12.8942 22.0273 13.0827 22.0582 13.1329 22.0668C13.2191 22.0823 13.6364 22.151 14.2963 22.2559C14.5912 22.3023 14.7457 22.3281 15.2552 22.4123C15.3735 22.4312 15.516 22.4535 15.5701 22.4621C15.6704 22.4776 16.2501 22.5704 16.864 22.6683C17.0465 22.6975 17.2712 22.7319 17.3655 22.7474C17.4597 22.7611 17.7807 22.811 18.0776 22.8574C18.3765 22.9038 18.7135 22.9536 18.8298 22.9708L19.0384 23L19.1387 22.9072C19.4477 22.6202 21.5258 20.5683 22.1216 19.9616C22.6151 19.4581 22.5669 19.5217 22.5509 19.4031L22.5368 19.3H22.4546C22.3122 19.3 22.0634 19.2312 21.931 19.1556C21.7264 19.037 21.6943 18.9735 21.6382 18.5524C21.6001 18.2689 21.4817 18.14 21.1768 18.0558C21.0063 18.0094 20.912 17.9956 20.7616 17.9939H20.6552V17.7636C20.6552 17.6364 20.6613 17.5282 20.6713 17.5247C20.6793 17.5213 20.8779 17.5264 21.1126 17.535C21.584 17.5539 21.6121 17.5505 21.6783 17.4577C21.7806 17.3134 21.7365 17.0831 21.5399 16.7222C21.3012 16.2874 21.3132 16.2582 21.7405 16.2582C21.9471 16.2582 21.9611 16.2599 22.0534 16.3097C22.1718 16.375 22.4345 16.4455 22.603 16.4575C22.7756 16.4695 22.8919 16.4214 22.9581 16.3097C23.0123 16.2152 23.0143 16.1396 22.9621 16.0519C22.8738 15.9059 22.7094 15.8663 22.4225 15.9299C22.2319 15.9712 22.0353 16.0416 21.9872 16.088C21.9571 16.1155 21.923 16.1207 21.7405 16.1207C21.4055 16.1224 21.2951 16.1568 21.239 16.2839C21.2129 16.3424 21.2129 16.3613 21.243 16.4575C21.261 16.5177 21.3212 16.65 21.3794 16.7514C21.5559 17.071 21.6041 17.2291 21.5579 17.3494L21.5339 17.4147L21.1587 17.4027C20.9541 17.3958 20.7555 17.3855 20.7214 17.3804L20.6552 17.3718V17.0195V16.6655L20.8117 16.5194C20.896 16.4386 21.1126 16.2685 21.2931 16.1413L21.6181 15.9093V15.8371V15.7649L21.4737 15.7271C21.3313 15.691 20.9782 15.6584 19.4517 15.5415C19.237 15.5244 19.0765 15.5089 19.0966 15.5054C19.1287 15.5003 19.1307 15.447 19.1307 14.7012C19.1307 13.8058 19.1407 13.8677 18.9783 13.7027L18.89 13.6151V13.1425V12.6699L18.9462 12.6578C18.9763 12.6527 19.0204 12.6355 19.0465 12.6217C19.0866 12.5994 19.0906 12.5839 19.0906 12.4172V12.2368L19.0224 12.2093L18.9542 12.1801L18.9401 12.0117C18.9221 11.7848 18.8639 11.5494 18.7977 11.4342C18.7335 11.3191 18.543 11.1421 18.3785 11.0407C18.216 10.9427 17.9191 10.8155 17.5961 10.7073C17.4537 10.6609 17.2832 10.5904 17.215 10.5543C17.1488 10.5182 16.9502 10.4117 16.7737 10.3206C15.867 9.84629 14.9423 9.26886 14.2061 8.71549C13.9012 8.48693 13.2974 7.96965 13.0607 7.73421C12.7297 7.40425 12.4228 7.05538 12.2141 6.77011L12.1319 6.6584L12.1118 6.22877C12.0717 5.41933 11.9794 4.83503 11.7889 4.20261C11.2292 2.34315 10.0678 1.20719 8.53921 1.02331C8.34062 1.00097 7.97152 0.992374 7.83712 1.00784ZM18.0014 14.7218C17.9973 14.7252 17.9773 14.7235 17.9572 14.7166C17.9211 14.7063 17.9211 14.7046 17.9592 14.6943C17.9933 14.6823 18.0254 14.7029 18.0014 14.7218ZM18.7696 15.4178C18.884 15.447 18.9923 15.4779 19.0104 15.4865C19.0404 15.5037 18.878 15.4986 18.6051 15.4728L18.4888 15.4625V15.4041C18.4888 15.3559 18.4948 15.3473 18.5249 15.3542C18.543 15.3594 18.6533 15.3869 18.7696 15.4178Z"/>
</svg>
