<svg width="1000" height="1000" viewBox="0 0 1000 1000" fill="none" xmlns="http://www.w3.org/2000/svg">
<path fill-rule="evenodd" clip-rule="evenodd" d="M641.221 190.039C640.832 190.396 640.511 199.934 640.511 211.235C640.511 234.333 640.816 233.081 635.511 231.789C619.285 227.834 600.854 245.718 609.325 257.199C616.268 266.603 632.834 266.682 642.787 257.356C649.012 251.522 649.648 249.048 649.648 230.635V214.287L656.841 220.11C672.652 232.911 675.076 242.789 664.631 251.871L660.537 255.432L664.579 253.548C683.16 244.893 682.797 225.189 663.837 213.41C653.425 206.942 648.198 201.866 644.625 194.751C643.144 191.802 641.612 189.682 641.221 190.039ZM526.814 199.625C521.777 201.102 505.429 205.49 474.619 213.635C441.386 222.421 437.59 223.863 435.14 228.629C433.544 231.734 431.381 273.723 431.387 301.478C431.389 312.907 431.253 313.808 429.613 313.189C403.851 303.477 372.546 329.089 389.382 346.105C402.129 358.99 429.384 351.901 438.779 333.259L441.883 327.103L442.691 296.129C443.136 279.092 443.86 264.855 444.297 264.487C444.736 264.121 452.403 261.891 461.337 259.531C495 250.643 527.341 242.288 528.079 242.288C528.5 242.288 528.845 253.237 528.845 266.62V290.952L520.47 291.069C494.224 291.439 477.565 313.975 493.378 327.723C507.737 340.211 534.968 329.115 539.968 308.741C541.41 302.866 541.468 205.838 540.03 203.387C537.849 199.667 532.175 198.052 526.814 199.625ZM283.024 249.942C259.394 267.52 248.582 302.608 255.142 340.425C256.044 345.629 256.784 350.283 256.784 350.766C256.784 351.252 252.786 353.494 247.9 355.751C196.584 379.455 175.989 422.788 199.954 456.634L203.721 461.956L204.227 450.61C205.399 424.191 225.174 399.773 257.325 385.035C262.331 382.742 266.626 380.753 266.869 380.616C267.113 380.479 266.199 375.474 264.84 369.493C258.041 339.595 264.16 305.564 279.093 290.225C293.292 275.64 297.38 284.617 286.363 306.183C271.841 334.605 270.371 360.33 281.617 389.248L284.123 395.696L283.397 389.671C280.667 367.038 283.365 354.241 295.91 330.347C310.911 301.769 310.949 287.385 296.1 257.349C289.839 244.68 289.985 244.763 283.024 249.942ZM565.898 266.502C559.757 266.931 552.332 267.736 549.401 268.291L544.072 269.3V289.163C544.072 300.089 544.255 309.026 544.479 309.026C544.702 309.026 551.44 307.611 559.452 305.881C623.345 292.081 677.717 306.915 721.651 350.135C731.23 359.557 730.813 355.949 721.182 346.071C716.975 341.756 711.642 335.306 709.331 331.736C678.826 284.647 629.208 262.079 565.898 266.502ZM507.777 276.564C495.629 279.405 468.871 287.032 454.991 291.609L446.617 294.371V315.604C446.617 327.28 446.959 336.835 447.376 336.835C447.793 336.835 453.014 335.35 458.977 333.536L469.818 330.239L469.385 327.048C469.146 325.294 468.755 322.425 468.518 320.675C465.742 300.253 484.057 284.804 516.917 279.854C519.803 279.42 520.723 278.843 520.723 277.468C520.723 276.473 520.757 275.354 520.799 274.984C520.945 273.69 519.111 273.913 507.777 276.564ZM350.177 322.866C337.057 326.755 319.432 331.798 311.011 334.076L295.701 338.215L296.163 354.906C296.415 364.085 296.754 371.733 296.916 371.9C297.191 372.184 306.438 370.626 345.608 363.7C353.985 362.219 362.893 360.656 365.405 360.226C370.586 359.336 370.616 359.213 367.522 351.458C363.61 341.653 365.134 329.918 371.512 320.739C375.532 314.95 377.583 314.745 350.177 322.866ZM587.742 341.942C560.613 346.691 540.91 354.547 499.95 376.944C438.531 410.528 403.43 418.027 349.163 409.151C322.525 404.796 316.926 404.197 303.713 404.293C262.688 404.591 226.086 428.535 224.49 456.116C223.324 476.254 238.415 484.595 284.446 489.256L289.268 489.745L289.276 486.286C289.286 481.38 286.074 437.474 285.677 437.086C284.61 436.043 279.782 441.004 277.134 445.864C273.543 452.453 273.068 459.1 275.564 467.848C276.4 470.784 277.086 473.378 277.086 473.612C277.086 476.316 260.91 471.496 258.442 468.056C243.581 447.345 272.464 416.511 306.672 416.566C374.936 416.676 379.744 492.873 312.11 502.737L305.002 503.773L304.966 522.5C304.922 543.948 303.916 547.97 296.275 557.21C275.987 581.747 232.193 572.326 230.583 543.079C229.569 524.665 251.974 513.132 267.332 524.162C280.695 533.76 271.961 556.86 255.962 554.237L252.215 553.624L254.651 555.222C264.697 561.812 283.868 553.906 288.608 541.217C290.817 535.306 291.778 523 290.838 512.68L290.102 504.612H281.092C257.648 504.612 229.489 498.503 215.34 490.347C209.987 487.26 210.468 486.995 209.211 493.719C195.07 569.326 218.167 651.405 268.988 706.149C309.024 749.277 357.321 778.51 412.892 793.256C452.262 803.704 456.332 802.792 484.889 777.131C518.247 747.157 535.417 735.426 609.549 691.969C657.539 663.836 680.718 646.316 702.385 621.801C784.979 528.356 759.025 382.093 653.72 347.552C634.499 341.247 605.704 338.799 587.742 341.942ZM298.745 435.698C299.09 438.168 299.842 446.655 300.415 454.557C303.178 492.656 302.105 490.171 314.582 487.343C357.832 477.539 353.099 432.874 308.665 431.526L298.117 431.206L298.745 435.698ZM417.726 434.673C421.054 435.462 427.887 438.117 432.913 440.57C465.381 456.426 472.021 459.681 476.564 461.967C479.355 463.373 488.263 467.765 496.359 471.729C504.455 475.692 517.932 482.352 526.307 486.528C534.681 490.704 546.558 496.544 552.701 499.504C558.843 502.466 564.324 505.192 564.883 505.562C565.441 505.932 570.237 508.345 575.542 510.921C580.847 513.498 588.612 517.297 592.8 519.364C596.986 521.431 608.336 526.985 618.018 531.71C647.454 546.07 653.69 555.227 644.944 571.25C640.962 578.545 645.427 575.971 564.374 617.731C547.346 626.506 524.047 638.598 512.603 644.603C482.134 660.586 435.273 685.014 425.017 690.262C410.353 697.763 398.448 696.168 392.907 685.96L390.463 681.457L390.531 564.765L390.599 448.074L392.808 443.906C395.802 438.261 402.711 434.26 411.127 433.3C411.428 433.265 414.397 433.882 417.726 434.673ZM681.54 438.241C709.687 453.303 699.168 491.246 666.874 491.147C636.798 491.055 624.476 456.658 648.695 440.396C657.565 434.439 672.594 433.454 681.54 438.241ZM769.901 463.362C777.919 534.366 765.028 585.855 727.604 632.317C706.742 658.218 682.507 674.348 618.752 704.763C592.746 717.17 570.303 729.083 557.964 737.026C555.069 738.89 550.205 742.016 547.156 743.974C542.288 747.097 529.158 756.593 521.739 762.357C519.54 764.066 519.813 764.02 523.768 762.026C560.936 743.294 596.519 729.985 653.201 713.615C696.527 701.1 714.676 692.086 735.984 672.49C779.82 632.178 796.998 561.842 780.044 492.084C777.101 479.98 769.276 457.815 769.901 463.362ZM481.322 550.27C481.147 568.236 481.304 588.398 481.671 595.071L482.338 607.201L494.171 600.699C508.623 592.757 546.322 572.78 558.792 566.459C563.817 563.91 568.123 561.67 568.362 561.481C569.116 560.881 565.399 558.795 548.684 550.449C539.726 545.977 521.364 536.754 507.879 529.953C494.394 523.153 482.974 517.592 482.501 517.593C482.028 517.597 481.496 532.301 481.322 550.27ZM801.92 544.47C801.808 544.725 801.535 550.565 801.315 557.448C798.606 642.193 766.557 699.355 707.005 725.659C692.265 732.169 680.163 735.517 653.201 740.546C590.416 752.257 558.263 763.617 521.565 787.046C510.995 793.796 492.307 808.964 493.368 809.932C493.893 810.412 501.137 808.576 544.072 797.077C590.105 784.751 599.719 782.911 660.815 774.748C749.513 762.894 797.571 717.899 809.108 635.901C810.934 622.912 809.798 583.957 807.139 568.493C804.968 555.866 802.303 543.602 801.92 544.47Z" fill="black"/>
</svg>
