<svg width="24" height="24" viewBox="0 0 24 24" fill="none" xmlns="http://www.w3.org/2000/svg">
<g clip-path="url(#clip0_2100_3)">
<rect width="24" height="24" fill="white"/>
<path fillRule="evenodd" clipRule="evenodd" d="M8.72428 -23.6059C8.47336 -23.4304 7.95093 -23.17 7.56336 -23.027C3.52716 -21.5376 0.796885 -18.4519 1.09582 -15.7173C1.11156 -15.5724 1.18422 -15.6638 1.34023 -16.0249C1.77254 -17.0259 2.87207 -17.7058 4.43877 -17.9409L5.31724 -18.0727L5.76372 -18.9364C6.60448 -20.5625 7.91424 -21.9728 9.25571 -22.6966C10.0428 -23.1213 10.0707 -23.0399 9.30824 -22.5424C8.01023 -21.6954 6.73919 -20.3106 5.92164 -18.8527L5.49615 -18.094L6.0226 -18.0466C8.63223 -17.8116 10.7896 -16.3432 12.7111 -13.494C13.3766 -12.5073 14.1257 -11.1481 14.1522 -10.8795C14.169 -10.7087 14.0954 -10.6858 15.5108 -11.3021C16.9928 -11.9475 17.2933 -12.0676 17.2983 -12.0167C17.3044 -11.9547 15.5907 -11.1346 14.8674 -10.8535L14.2011 -10.5947L13.6339 -11.5149C10.6496 -16.3551 7.97209 -18.1847 4.5672 -17.7099C2.21655 -17.3822 1.37044 -16.4948 1.14076 -14.1165C0.933873 -11.9736 0.456649 -10.0947 -0.435424 -7.90971C-0.720296 -7.21176 -0.847134 -6.93686 -1.54997 -5.49279C-2.33344 -3.88332 -3.40088 -1.93949 -3.64549 -1.67684L-3.92652 -1.37519L-3.70146 -1.02673C-3.30938 -0.419769 -3.19899 -0.380275 -2.03683 -0.432164C-1.46771 -0.457474 -1.00463 -0.502947 -1.00761 -0.533256C-1.02576 -0.71762 -1.80141 -1.59116 -1.99706 -1.64745C-2.12655 -1.6847 -2.46127 -1.69259 -2.74072 -1.66507C-3.31232 -1.6088 -3.32118 -1.61636 -3.09575 -1.96495C-2.95091 -2.18898 -2.86127 -2.2266 -2.27565 -2.30871C-1.47947 -2.42048 -1.3013 -2.38007 -1.47348 -2.12708C-1.64153 -1.88005 -1.59468 -1.57067 -1.34473 -1.2778C-1.22932 -1.14277 -1.0914 -0.94237 -1.03823 -0.832662C-0.912943 -0.574265 -0.374576 -1.46934 -0.442392 -1.8234C-0.465654 -1.94425 -0.435962 -2.07139 -0.376706 -2.10602C-0.31745 -2.14066 0.135405 -2.90996 0.629384 -3.81561C2.11824 -6.54481 4.07315 -9.50678 4.40727 -9.53967C4.95025 -9.59313 5.84575 -6.72891 5.99145 -4.47246C6.19262 -1.35734 5.66408 0.331736 3.35123 3.96354C1.51224 6.85143 1.46704 8.46509 3.15473 10.9774C5.38988 14.3047 10.8763 18.3689 14.733 19.5541L15.4282 19.7677L15.0406 19.8263C14.6295 19.8885 12.7489 20.235 12.3527 20.3216C12.2232 20.3499 11.894 20.4161 11.6211 20.469C10.6517 20.6567 9.86907 20.8253 9.75076 20.8719C9.64794 20.9125 9.47715 20.9536 9.27788 20.9859C9.1494 21.0067 9.11134 21.0522 9.17158 21.1132C9.24426 21.1869 9.22705 21.1902 9.09545 21.1282C8.91311 21.0422 8.31761 21.1492 8.32909 21.2658C8.33291 21.3046 8.25867 21.3223 8.16412 21.3051C7.88807 21.255 7.36513 21.4312 7.57203 21.5045C7.67684 21.5417 7.69047 21.5697 7.60806 21.5786C7.5353 21.5865 7.43903 21.5568 7.39424 21.5126C7.34283 21.462 7.26388 21.4928 7.18037 21.596C7.10742 21.6861 7.00759 21.7357 6.95859 21.7063C6.90942 21.6768 6.93048 21.6467 7.00556 21.6393C7.08049 21.6319 7.11189 21.5963 7.07537 21.5601C6.97236 21.4587 6.45348 21.6151 6.46614 21.7437C6.47233 21.8066 6.42434 21.8633 6.35954 21.8696C6.29474 21.876 6.27637 21.9153 6.31863 21.957C6.36088 21.9987 6.34252 22.0381 6.27772 22.0444C6.21292 22.0508 6.1639 22.0971 6.16886 22.1474C6.17381 22.1977 6.24834 22.2111 6.33461 22.177C6.43979 22.1356 6.47469 22.157 6.44085 22.242C6.40532 22.3313 6.44191 22.3484 6.56459 22.3001C6.76853 22.2196 6.77777 22.1469 6.59781 22.0389C6.50431 21.983 6.5049 21.9395 6.59994 21.8842C6.67977 21.8375 6.70702 21.8439 6.66873 21.9002C6.634 21.9514 6.6858 22.0323 6.78387 22.0803C6.94059 22.1567 6.93555 22.1846 6.74225 22.3105C6.54606 22.4384 6.49443 22.44 6.26387 22.3259C6.12171 22.2556 5.98606 22.192 5.9626 22.1845C5.93898 22.1771 5.99482 22.1029 6.08678 22.0195C6.30481 21.8216 6.2884 21.7176 6.04805 21.7762C5.94246 21.8019 5.81776 21.8297 5.77115 21.8378C5.72438 21.8459 5.72673 21.9423 5.77634 22.0521C5.83072 22.1724 5.81885 22.2564 5.74666 22.2635C5.68074 22.27 5.65028 22.2162 5.67906 22.1441C5.71771 22.0469 5.67882 22.0312 5.52908 22.0833C5.36583 22.1401 5.3568 22.1341 5.48214 22.0518C5.56753 21.9957 5.60492 21.9303 5.56541 21.9066C5.5259 21.8829 5.42209 21.9283 5.33491 22.0075C5.21552 22.1156 5.15985 22.1273 5.1103 22.0544C5.0581 21.9776 5.04476 21.9791 5.04574 22.0615C5.04649 22.1187 4.99416 22.1708 4.92936 22.1772C4.86456 22.1836 4.84297 22.1423 4.88154 22.0856C4.92492 22.0216 4.90475 22.0097 4.82861 22.0542C4.74293 22.1041 4.74383 22.1693 4.83136 22.2685C4.91981 22.3687 4.91945 22.4244 4.83035 22.4561C4.76054 22.4808 4.74461 22.5417 4.79497 22.5914C4.9336 22.7281 5.10079 22.6801 5.00432 22.5313C4.94747 22.4436 4.96442 22.4163 5.05584 22.4478C5.13062 22.4735 5.18809 22.4553 5.18335 22.4073C5.17862 22.3592 5.12168 22.325 5.05688 22.3314C4.99209 22.3378 4.96922 22.2985 5.00608 22.2441C5.05287 22.1752 5.10557 22.1762 5.17999 22.2478C5.23863 22.3042 5.28402 22.3167 5.28095 22.2756C5.27786 22.2343 5.37443 22.2539 5.49545 22.3189C5.61647 22.384 5.79057 22.4077 5.88246 22.3714C5.9742 22.3353 6.07921 22.3351 6.11572 22.3711C6.21945 22.4733 5.69587 22.4896 5.49292 22.3905C5.33041 22.3113 5.18456 22.4195 5.20289 22.6057C5.20423 22.6193 5.78174 22.5752 6.48631 22.5075C7.37165 22.4225 7.74176 22.3595 7.68459 22.3032C7.63011 22.2494 7.65757 22.2414 7.76555 22.2795C7.98506 22.3572 8.54528 22.3206 8.53628 22.2292C8.53234 22.1891 8.58216 22.1511 8.64696 22.1447C8.71176 22.1383 8.74212 22.1664 8.71448 22.2072C8.68668 22.248 9.06063 22.2437 9.5454 22.1977C10.404 22.116 10.4233 22.1097 10.299 21.95C10.1824 21.8002 10.1888 21.8006 10.3734 21.9539C10.4844 22.0461 10.6522 22.114 10.7459 22.1048C10.889 22.0907 10.8814 22.0644 10.6989 21.9426C10.5792 21.8627 10.5206 21.7935 10.5688 21.7887C10.6171 21.784 10.7442 21.8401 10.8514 21.9135C11.072 22.0648 14.0775 21.8336 14.474 21.6349C14.6063 21.5687 14.6537 21.565 14.6135 21.6241C14.5737 21.6827 15.2794 21.6396 16.6601 21.4991C18.1189 21.3507 18.7444 21.2596 18.6927 21.203C18.6516 21.158 18.6901 21.1611 18.7782 21.2097C18.8661 21.2584 18.9811 21.294 19.0337 21.2888C19.0863 21.2836 19.0872 21.2367 19.0356 21.1844C18.9634 21.1113 18.9809 21.1075 19.1115 21.1679C19.4616 21.3298 20.5105 21.1282 20.4469 20.9112C20.4117 20.7911 20.4371 20.7359 20.5153 20.7629C20.6569 20.8117 20.5404 20.5798 20.347 20.428C20.2594 20.3593 20.2727 20.342 20.3956 20.3643C20.4981 20.3828 20.5596 20.3462 20.5522 20.2711C20.5455 20.2029 20.4879 20.175 20.4243 20.2088C20.3608 20.2428 20.3664 20.2143 20.4368 20.1457C20.5073 20.0769 20.5618 19.9888 20.5579 19.9498C20.5541 19.9108 20.4912 19.913 20.418 19.9545C20.3264 20.0068 20.3279 19.9825 20.423 19.8767C20.4987 19.7922 20.5236 19.6658 20.4783 19.5957C20.4212 19.5078 20.5423 19.3503 20.8681 19.0886C22.2539 17.9753 23.248 15.1 23.487 11.5141C23.7123 8.13064 22.238 2.99671 20.3199 0.485826C19.5167 -0.565491 18.707 -1.8975 18.5222 -2.47126C18.4457 -2.70904 18.556 -2.60255 18.9583 -2.05056C20.1883 -0.362573 20.6343 0.324991 20.7429 0.700698C20.8059 0.918956 20.9 1.11211 20.9517 1.12991C21.1253 1.18981 20.8136 -0.0189386 20.5544 -0.411139C20.3457 -0.726749 20.301 -0.909948 20.3142 -1.39307C20.3306 -1.99266 20.1753 -2.49196 19.4119 -4.29336C18.6868 -6.00408 18.2922 -7.63083 18.0799 -9.78482L17.9312 -11.2958L18.8718 -11.7266C19.389 -11.9635 20.0051 -12.2297 20.2404 -12.3183C20.9895 -12.5999 21.2679 -13.0333 21.0335 -13.5525C20.9133 -13.8186 20.9131 -13.8185 19.3738 -13.1394C18.6377 -12.8148 17.9847 -12.5441 17.9227 -12.538C17.8522 -12.531 17.7705 -12.9274 17.7051 -13.5917C17.2726 -17.9849 14.7131 -22.4614 12.0232 -23.5292C10.6608 -24.0702 9.42953 -24.0987 8.72428 -23.6059ZM11.2189 -23.9616C12.0143 -23.8051 12.689 -23.5196 13.3934 -23.0416C14.0536 -22.5935 14.1888 -22.6188 13.6685 -23.093C12.8171 -23.8691 12.0064 -24.2142 11.2296 -24.1315L10.6625 -24.0712L11.2189 -23.9616ZM12.3676 -22.5496C13.974 -22.2197 14.8553 -20.5241 14.863 -17.7482L14.8652 -16.9807L14.364 -17.6238C13.8567 -18.2746 12.8857 -19.2456 12.8105 -19.1773C12.788 -19.1569 12.8328 -18.9819 12.9101 -18.7885C12.9876 -18.5952 13.1134 -18.1654 13.1897 -17.8335L13.3285 -17.23L12.9926 -17.3704C9.34778 -18.8924 8.47496 -21.6631 11.3802 -22.4886C11.8713 -22.6282 11.9586 -22.6337 12.3676 -22.5496ZM8.87083 -19.7348C8.96241 -19.3998 9.02457 -19.1114 9.00893 -19.0939C8.93226 -19.0086 8.54171 -19.9462 8.51573 -20.2778C8.47491 -20.7995 8.65439 -20.5249 8.87083 -19.7348ZM5.69382 -14.909C5.37848 -14.448 4.88623 -13.6913 4.59974 -13.2274C4.31341 -12.7635 3.96251 -12.2037 3.82008 -11.9833C3.6778 -11.763 3.22125 -10.9966 2.80569 -10.2804C2.39014 -9.56421 2.03645 -8.98648 2.01954 -8.99662C1.95519 -9.03523 4.08122 -13.7648 4.43778 -14.3761C4.82769 -15.0444 5.53699 -15.7088 5.95243 -15.7945C6.32538 -15.8716 6.30561 -15.8036 5.69382 -14.909ZM1.60109 -12.5361C1.65794 -10.6313 0.797073 -7.88696 -1.0182 -4.18595C-1.86309 -2.46331 -1.82319 -2.52134 -2.15349 -2.53545C-2.43733 -2.54762 -2.43779 -2.54902 -2.25828 -2.78526C-2.06382 -3.04116 -1.15388 -4.90611 -0.614948 -6.1533C0.433032 -8.57849 1.31002 -11.5136 1.426 -12.9837C1.48332 -13.7109 1.57289 -13.4821 1.60109 -12.5361ZM11.2317 -12.1933C12.3216 -11.911 13.2396 -11.391 13.6643 -10.8152C14.2721 -9.99114 14.3059 -9.89194 15.552 -5.25881C16.6723 -1.09415 17.0703 -0.308245 19.9903 3.50236C22.6433 6.96477 22.7279 7.1444 22.9778 9.85253C23.1144 11.3324 23.1385 12.1104 23.0629 12.5957L22.9572 13.2731L22.948 12.4402C22.9033 8.45499 22.3967 6.96314 20.154 4.21205C16.9801 0.31897 16.2116 -1.36241 14.5993 -7.93931C14.5305 -8.22026 14.4385 -8.4623 14.3952 -8.4773C14.3516 -8.4923 14.3786 -8.25952 14.455 -7.96017C14.5314 -7.66081 14.7351 -6.8106 14.9076 -6.07093C15.6302 -2.97281 16.559 -0.576345 17.803 1.39847C18.3241 2.22575 18.5647 2.554 19.6837 3.96485C20.1054 4.4966 20.6552 5.21165 20.9053 5.5539C21.7069 6.65032 22.2019 7.58957 21.6156 6.90148C20.5723 5.67741 15.3953 4.35176 11.4865 4.30803C8.77366 4.27765 4.66352 5.11004 3.04357 6.01799C2.84925 6.12688 2.68849 6.19741 2.68626 6.17474C2.67714 6.08214 3.23116 5.13986 4.00789 3.92696C5.6286 1.39599 6.14031 0.240027 6.47347 -1.64271C6.96293 -4.4081 6.36067 -7.83253 5.06758 -9.63649L4.81689 -9.98628L5.09547 -10.3343C6.40395 -11.9686 9.02888 -12.7638 11.2317 -12.1933ZM7.60899 -11.8571C7.25738 -11.7364 6.92632 -11.5982 6.87326 -11.5501C6.82021 -11.502 7.06064 -11.568 7.4074 -11.6967C8.79477 -12.2115 10.5505 -12.1951 12.0081 -11.6538C12.9861 -11.2906 13.1005 -11.2649 12.6292 -11.5141C11.136 -12.3038 9.27842 -12.4307 7.60899 -11.8571ZM19.524 -2.39807C19.5921 -2.1902 19.5894 -2.11559 19.5163 -2.18888C19.3623 -2.343 18.535 -3.99992 18.5286 -4.16725C18.5215 -4.34824 19.3909 -2.80306 19.524 -2.39807ZM7.12101 8.40519C7.48898 8.54137 7.76941 8.8751 7.9018 9.33425L8.00734 9.70049L7.56293 9.74425C7.12993 9.78688 7.11522 9.7793 6.98475 9.44683C6.82414 9.03733 6.26819 8.93435 6.23268 9.30749C6.19243 9.72966 6.36895 9.95446 7.22536 10.5715C8.43458 11.4428 8.83622 12.2227 8.48582 13.0186C7.99706 14.129 5.86975 13.4041 5.73965 12.0827C5.70967 11.7782 6.68104 11.9701 6.80126 12.2925C7.00991 12.8518 7.62238 12.9468 7.5697 12.4117C7.53123 12.0211 7.22447 11.6574 6.49083 11.133C5.52144 10.4402 5.2772 10.1229 5.20617 9.4641C5.10558 8.53145 6.0503 8.00902 7.12101 8.40519ZM10.2926 8.27365C10.3164 8.28541 10.5611 8.88447 10.8367 9.60507C11.1124 10.3255 11.5708 11.5038 11.8553 12.2233L12.3725 13.5315L11.8545 13.5574C11.3406 13.5832 11.3351 13.5806 11.1797 13.2237C11.0278 12.8748 11.0089 12.8645 10.5565 12.8842L10.0899 12.9045L10.1238 13.2484C10.1513 13.528 10.1238 13.5861 9.97665 13.5595C9.87714 13.5415 9.67458 13.5386 9.52666 13.5532C9.19206 13.5862 9.13876 13.1784 9.11201 10.3838C9.10254 9.37579 9.08946 8.48778 9.0833 8.41031C9.07305 8.28481 10.0851 8.17047 10.2926 8.27365ZM12.9552 10.0045L13.6539 11.8524L13.6157 10.0228C13.5947 9.01653 13.5945 8.1776 13.6154 8.15856C13.7054 8.07657 14.677 8.14609 14.6853 8.23515C14.6903 8.28912 14.6782 9.44181 14.6581 10.7967C14.6383 12.1515 14.6258 13.3065 14.6306 13.3634C14.6362 13.4299 14.4684 13.4835 14.1599 13.5139C13.3215 13.5965 13.361 13.6573 11.9523 10.1042C11.6199 9.26554 11.313 8.49633 11.2705 8.39473C11.1971 8.21954 11.2202 8.20871 11.7249 8.18324L12.2565 8.15644L12.9552 10.0045ZM16.9881 8.0365L17.9019 7.99943L17.9828 8.43847L18.0635 8.8774L17.2735 8.95506L16.4834 9.03273L16.6006 9.66736C16.7327 10.3839 16.7775 10.4182 17.4911 10.3497L18.0046 10.3004L18.1121 10.6736C18.2552 11.1696 18.2136 11.2063 17.5004 11.2142L16.8898 11.221L16.9223 11.5512C16.9402 11.7328 17.0024 12.0463 17.0606 12.2481L17.1663 12.6147L17.9258 12.5955C18.7571 12.5747 18.82 12.6147 18.8813 13.2045L18.9101 13.482L18.4324 13.4797C18.1696 13.4783 17.5669 13.4909 17.0932 13.5075L16.2317 13.5379L16.1298 13.1213C16.0737 12.8921 15.888 11.818 15.7168 10.7342C15.5458 9.65036 15.3732 8.62612 15.3333 8.458C15.2499 8.10571 15.2448 8.10693 16.9881 8.0365ZM10.0328 11.1061L10.1371 12.2423L10.4829 12.2083C10.7855 12.1785 10.8189 12.1517 10.7497 11.9944C10.7062 11.8956 10.5521 11.4698 10.4072 11.0484C9.99467 9.84774 9.91839 9.85958 10.0328 11.1061ZM8.58937 21.4179C8.36925 21.6177 8.47287 21.6511 8.80736 21.4884C8.98801 21.4006 9.16203 21.3444 9.19412 21.3637C9.22622 21.3829 9.09983 21.4546 8.91353 21.523C8.72706 21.5912 8.61003 21.6822 8.65337 21.725C8.6967 21.7677 8.68454 21.8075 8.62634 21.8132C8.44497 21.8311 8.3583 21.5905 8.48138 21.4111C8.54598 21.3169 8.62414 21.255 8.65518 21.2735C8.68608 21.2921 8.65644 21.3571 8.58937 21.4179ZM7.73831 21.7934C7.68651 21.9236 7.49887 21.9618 7.48732 21.8445C7.48299 21.8006 7.39387 21.7941 7.28915 21.8303C7.16197 21.8741 7.14135 21.8675 7.22676 21.8099C7.42439 21.677 7.78933 21.6652 7.73831 21.7934ZM4.37995 22.2362C4.38468 22.2843 4.32822 22.3028 4.25429 22.2774C4.17496 22.25 4.15363 22.2642 4.20235 22.3121C4.24749 22.3567 4.22329 22.416 4.14844 22.444C4.07343 22.472 4.05674 22.5234 4.11115 22.5582C4.16644 22.5938 4.25219 22.5529 4.3056 22.4655C4.35801 22.3795 4.45722 22.3285 4.52594 22.3521C4.60325 22.3788 4.55552 22.4629 4.40043 22.5729C4.19829 22.7162 4.18674 22.7472 4.34076 22.7336C4.57492 22.7127 4.82774 22.3372 4.62713 22.308C4.55515 22.2975 4.52114 22.2522 4.55162 22.2073C4.5821 22.1623 4.55399 22.1308 4.48919 22.1372C4.4244 22.1435 4.37521 22.1881 4.37995 22.2362Z" />
</g>
<defs>
<clipPath id="clip0_2100_3">
<rect width="24" height="24" fill="white"/>
</clipPath>
</defs>
</svg>
