<svg width="24" height="24" viewBox="0 0 24 24" fill="none" xmlns="http://www.w3.org/2000/svg">
<rect width="24" height="24" fill="white"/>
<path fillRule="evenodd" clipRule="evenodd" d="M7.81498 1.0211C7.64455 1.07719 7.28807 1.30875 7.28807 1.36335C7.28807 1.41364 7.75206 2.09062 7.81221 2.12816C7.82655 2.13712 7.91113 2.09614 8.00011 2.0371C8.08909 1.97814 8.177 1.92089 8.19553 1.90993C8.23708 1.88536 8.39053 2.10832 8.35354 2.13963C8.33969 2.15138 8.28153 2.19558 8.22429 2.23785C8.16706 2.28012 8.12026 2.32676 8.12026 2.34152C8.12026 2.36466 6.97014 4.71299 6.9477 4.73563C6.92967 4.75376 5.05757 5.10675 4.72914 5.1539C4.64051 5.16665 4.59741 5.18628 4.59741 5.21379C4.59741 5.29454 5.01816 6.0269 5.07781 6.05004C5.14101 6.07447 6.85312 5.5195 7.18254 5.36776C7.66024 5.14774 7.81995 4.81802 8.40211 2.8497C8.53788 2.3906 8.5528 2.35936 8.60023 2.43459C8.61848 2.46353 8.66329 2.52415 8.69979 2.56928L8.76612 2.65125L8.67053 2.75442C8.48242 2.95753 8.47596 2.91633 8.75724 3.30394C8.89692 3.49645 9.0202 3.65959 9.03121 3.66646C9.08198 3.69813 9.53113 3.31698 9.59164 3.19095C9.7473 2.86647 9.53823 2.43774 9.20433 2.39683C9.03653 2.37627 8.99066 2.26436 9.10193 2.14715C9.19723 2.04677 9.20015 2.05802 8.99946 1.75217C8.82421 1.48507 8.79097 1.46057 8.67288 1.51165C8.6405 1.52562 8.61621 1.50191 8.57999 1.42081C8.44848 1.1267 8.07964 0.933902 7.81498 1.0211ZM3.85988 1.33089C3.35867 1.4097 3.00517 1.78627 2.90519 2.34783C2.84461 2.688 2.80996 2.73493 2.66914 2.66715C2.45341 2.56334 2.22325 2.63025 2.08947 2.83552C1.75124 3.35452 2.20124 4.05965 2.83964 4.01101C2.98635 3.99976 3.04394 4.00463 3.04373 4.0282C3.04352 4.04626 3.01114 4.21219 2.97165 4.39689C2.86272 4.90715 2.83268 4.84116 3.26593 5.04442C3.47186 5.14107 3.72957 5.26287 3.8385 5.31503L4.03662 5.41003L4.02164 4.95243C4.00488 4.44102 3.99459 4.46187 4.21323 4.56454C4.41441 4.65897 4.55161 4.65775 4.61687 4.56081C4.64428 4.52012 4.70109 4.45435 4.74306 4.41466C4.78495 4.37489 4.81932 4.32661 4.81932 4.30733C4.81932 4.28799 4.84979 4.25209 4.887 4.22745C4.92442 4.20273 4.95858 4.1495 4.96327 4.10852C4.97065 4.04468 4.9889 4.03135 5.09357 4.01351C5.24689 3.98729 5.24526 3.98944 5.20982 3.86077C5.15081 3.64619 5.17154 3.49881 5.2978 3.23652L5.41568 2.99163L5.54052 2.97344C6.12204 2.88889 6.0925 2.21005 5.49827 2.00379C5.37705 1.96173 5.29084 1.90334 5.15422 1.77072C4.78147 1.40906 4.33268 1.25659 3.85988 1.33089ZM19.3385 1.35948C19.1113 1.45219 19.0633 1.78835 19.2414 2.03861L19.3343 2.16914L19.289 2.4626C19.2641 2.62402 19.2437 2.79181 19.2437 2.83552C19.2437 2.87922 19.1875 3.01442 19.1189 3.13593C18.9592 3.41871 18.9575 3.47402 19.1078 3.51945C19.2179 3.55276 19.221 3.55692 19.2057 3.65221C19.1946 3.72113 19.2032 3.76548 19.2345 3.80037C19.2644 3.83368 19.2704 3.86177 19.2527 3.88556C19.2016 3.95455 19.2299 4.32546 19.291 4.38707C19.3573 4.45399 19.5104 4.49325 19.7083 4.49418L19.854 4.49483V4.84303C19.854 5.03453 19.8634 5.1971 19.8749 5.20426C19.9099 5.22604 21.212 4.72589 21.2739 4.66692C21.2844 4.65696 21.2752 4.52908 21.2533 4.38285C21.1895 3.95591 21.1879 3.96308 21.3981 3.73231C21.675 3.42839 21.7957 3.11737 21.7957 2.70742C21.7957 1.84509 21.3396 1.44431 20.3582 1.44431C20.0906 1.44431 19.957 1.43076 19.8052 1.38835C19.5954 1.32967 19.4357 1.31979 19.3385 1.35948ZM16.5114 1.54604C15.8658 1.6831 15.417 2.09979 14.6581 3.26675C13.1698 5.5554 13.1431 6.29392 14.4569 8.83275C14.7758 9.44905 14.6868 9.91281 14.2194 10.07C14.1847 10.0817 14.2035 10.2418 14.2478 10.3124C14.3254 10.4358 14.75 10.1416 14.8801 9.87426C15.0609 9.50292 14.9947 9.18245 14.5731 8.38798C13.5641 6.48665 13.5554 5.779 14.52 4.08122C15.6608 2.07357 16.4893 1.48701 17.5155 1.96101C17.7125 2.052 17.7172 2.05129 17.8098 1.91631C17.9044 1.77846 17.8954 1.76786 17.5793 1.64491C17.2061 1.49969 16.8744 1.46895 16.5114 1.54604ZM18.1757 1.82417C17.9858 1.92383 17.8578 2.12881 17.7602 2.48961L17.6991 2.71551L17.5704 2.70749C17.4122 2.69767 17.3402 2.76394 17.2662 2.98755C17.2389 3.07001 17.0954 3.38712 16.9473 3.69226C16.638 4.32976 16.6278 4.24135 17.031 4.41717C17.3669 4.56368 17.3447 4.57894 17.3739 4.1821C17.4058 3.74993 17.4571 3.70465 17.4729 4.09476C17.4941 4.6182 17.7759 4.88802 18.2995 4.88623C18.5065 4.88551 18.5074 4.88343 18.5177 4.43651C18.5307 3.86843 18.5254 3.85983 18.141 3.83046C17.9166 3.81327 17.851 3.72292 18.0099 3.64984C18.0798 3.61774 18.1265 3.51493 18.0949 3.46313C18.0856 3.44816 18.0997 3.41406 18.126 3.38748C18.1525 3.3609 18.177 3.30007 18.1805 3.25228C18.1841 3.20456 18.1956 3.12912 18.2061 3.08463C18.2213 3.02065 18.2127 2.99428 18.1652 2.9581C18.117 2.92135 18.1087 2.89477 18.1231 2.82205C18.144 2.71659 18.1691 2.71236 18.3322 2.78701C18.6293 2.92307 18.684 2.88581 18.9019 2.39927C19.0619 2.04219 19.0641 2.00679 18.9314 1.92777C18.6917 1.78505 18.3417 1.73705 18.1757 1.82417ZM9.47234 3.61158L9.36809 3.70358L9.47716 3.96809C9.97098 5.16507 9.94812 5.55253 9.27236 7.44698C8.64518 9.20509 8.59938 9.59614 8.96971 10.0326C9.04797 10.1248 9.34238 10.316 9.40615 10.316C9.4205 10.316 9.51345 10.0322 9.50188 10.0239C9.49719 10.0206 9.45295 10.0016 9.40352 9.98173C8.92178 9.78829 8.92987 9.31314 9.43889 7.8952C10.0502 6.19226 10.1014 5.99903 10.1012 5.3904C10.101 4.85327 10.0029 4.4282 9.73643 3.80925C9.60548 3.50512 9.59881 3.50003 9.47234 3.61158ZM16.0027 4.79753C15.8428 5.08302 15.6842 5.36928 15.527 5.65628C15.4121 5.86664 15.2964 6.07654 15.1799 6.28597C14.752 7.04914 14.7294 7.27812 15.0504 7.60031C15.357 7.90795 15.5632 7.90874 17.9607 7.61155C18.0408 7.60167 18.1064 7.60475 18.1064 7.61843C18.1062 7.6832 17.9375 9.41845 17.9229 9.50443C17.9056 9.60688 17.6805 10.2161 17.5094 10.6239C17.4545 10.7547 17.2717 11.141 17.1032 11.4824C16.9347 11.8237 16.8045 12.1156 16.8139 12.131C16.8311 12.159 16.715 12.3076 16.4715 12.5689C15.7865 13.3046 14.6609 14.9018 14.5413 15.3083C14.4003 15.7872 14.629 16.1151 15.9016 17.2584C17.2967 18.5119 18.8641 19.5383 19.2126 19.4267C19.254 19.4134 19.3141 19.4635 19.4836 19.6525C19.6034 19.7861 19.7778 19.9795 19.8712 20.0824C20.0286 20.2557 20.0447 20.2858 20.0897 20.4913C20.2033 21.0105 20.2401 21.0846 20.3501 21.0157C20.4345 20.9629 20.5755 20.1578 20.5753 19.7298C20.5752 19.5669 20.5695 19.5524 20.4642 19.4463C20.3707 19.3519 20.3533 19.3161 20.3533 19.2191V19.1038H20.5952L20.6127 18.9568C20.6554 18.5978 20.636 18.3202 20.5682 18.3198C20.5339 18.3196 20.4255 18.294 20.3273 18.263C20.1716 18.2137 20.1302 18.2107 20.0035 18.2393C19.7972 18.286 19.7117 18.2311 19.0589 17.6345C18.8895 17.4799 18.7196 17.326 18.5491 17.1727C17.705 16.4159 16.677 15.4115 16.6462 15.3134C16.6288 15.2581 16.8659 15.0111 17.3366 14.5938C17.5256 14.4263 17.519 14.3849 17.4155 15.0877C17.3713 15.388 17.3468 15.6384 17.3592 15.6631C17.4164 15.7756 18.9968 17.2287 19.062 17.2287C19.081 17.2287 19.1129 17.0933 19.1427 16.8859C19.2628 16.0514 19.6293 14.407 19.8522 13.7024L19.9009 13.5485L20.3421 13.5161C20.5847 13.4983 20.8193 13.4825 20.8635 13.4811L20.9437 13.4785L20.9247 13.2476C20.9139 13.1175 20.9021 12.9874 20.8892 12.8574C20.8736 12.7061 20.8771 12.6938 20.9607 12.6094L21.0488 12.5206L20.9501 12.4049C20.5332 11.9152 20.527 11.8896 20.629 11.0893C20.6757 10.7235 20.7139 10.4064 20.7139 10.3847C20.7139 10.3419 22.004 8.3758 22.0402 8.36347C22.0522 8.35932 22.082 8.41599 22.1061 8.48943C22.1304 8.56279 22.2327 8.84837 22.3335 9.12399C22.5564 9.73291 22.558 9.66191 22.316 9.88931C21.9366 10.2457 21.7005 10.4704 21.4224 10.7392C21.253 10.9028 21.083 11.0658 20.9124 11.2281C20.6962 11.4331 20.6818 11.4538 20.6956 11.5395C20.7264 11.7307 21.1476 12.2735 21.3651 12.4021L21.4843 12.4726L21.6036 12.3668C21.6692 12.3087 21.811 12.1781 21.9187 12.0767C22.0265 11.9753 22.4784 11.5571 22.9229 11.1474C24.1041 10.0585 24.0833 10.0964 23.9189 9.33176C23.7838 8.70365 23.2158 6.37201 23.1278 6.08479L23.073 5.90553L22.788 5.73501C22.6313 5.64123 22.3283 5.46004 22.1147 5.33251C21.9011 5.20491 21.6649 5.03976 21.5899 4.96561C21.5148 4.89139 21.4445 4.83063 21.4337 4.83063C21.3033 4.83063 19.4891 7.73801 19.0176 8.70257C18.8797 8.98478 18.8754 8.96286 18.8904 8.04214C18.9072 7.01367 18.9622 6.53744 19.1629 5.68422C19.2478 5.32348 19.3031 5.33036 18.5822 5.61236C18.2851 5.72855 17.9878 5.84425 17.6903 5.95948C17.4409 6.0563 17.1926 6.15589 16.9455 6.25824C16.757 6.33705 16.5965 6.39516 16.5888 6.38742C16.5754 6.37388 16.6981 6.13917 17.1734 5.26839C17.4066 4.84109 17.4058 4.84353 17.3366 4.82232C17.3099 4.81415 17.1383 4.74236 16.9552 4.66284C16.7721 4.58324 16.5383 4.48222 16.4357 4.43837L16.249 4.35856L16.0027 4.79753ZM2.10381 5.07C1.8846 5.16593 1.79505 5.3737 1.64067 6.14461C1.59082 6.39232 1.54083 6.64 1.49069 6.88765C1.38865 7.3916 1.18129 8.47818 1.14557 8.69555C1.12029 8.84945 1.72042 9.33592 3.03464 10.2269L3.20564 10.3428L3.40305 10.1219L3.60047 9.90092L3.24597 9.59836C3.05097 9.43192 2.88516 9.28913 2.87756 9.28097C2.86996 9.27287 2.78255 9.19743 2.68341 9.11346C2.29618 8.78547 1.98991 8.48921 1.98991 8.44271C1.98991 8.4008 2.23419 7.43917 2.3689 6.95062C2.4277 6.73762 2.41705 6.72738 2.66012 7.23097C2.89681 7.72117 3.18022 8.16903 3.58548 8.69283C4.18873 9.47262 4.15202 9.69522 3.26905 10.6098C2.56624 11.3379 1.90626 12.205 1.2234 13.2975C0.982101 13.6834 0.389929 14.7875 0.414002 14.8066C0.450076 14.8353 0.886234 15.0267 1.24953 15.1734C1.91187 15.4408 2.02648 15.4644 2.80818 15.494C3.75826 15.53 4.07682 15.574 4.47143 15.7236C4.74746 15.8282 4.78012 15.8283 5.05508 15.7241C5.44601 15.5759 6.00864 15.4938 6.63624 15.4934C7.23033 15.493 7.6285 15.3935 8.48086 15.0323C8.68687 14.945 8.89593 14.8599 8.9455 14.843C9.06835 14.8014 9.06501 14.7876 8.82335 14.3366C8.15101 13.0818 7.45672 12.0841 6.28843 10.6938C5.57312 9.84267 5.50076 9.69959 5.43188 9.00069C5.33999 8.06872 5.36122 7.60131 5.49543 7.60131C5.64079 7.60131 5.85802 7.23491 5.85653 6.99211C5.85213 6.27228 4.94047 6.27536 4.73404 6.99583C4.62276 7.38401 4.60103 7.40006 4.51887 7.1546C4.28978 6.47017 3.65557 6.23603 3.18718 6.66304L3.08399 6.75711L2.9485 6.34658C2.51568 5.03489 2.44112 4.92227 2.10381 5.07ZM19.4408 5.28544C19.3962 5.5372 19.3592 5.79505 19.3668 5.80329C19.3784 5.81597 19.6992 5.69769 19.7257 5.67096C19.7416 5.65484 19.7726 5.65628 19.8065 5.67462C19.8368 5.69095 19.9025 5.69761 19.9525 5.68945C20.0355 5.67583 20.0583 5.69016 20.2134 5.85309L20.3833 6.03163L20.4113 5.9574C20.4587 5.83138 20.6076 5.2739 20.5968 5.26287C20.5836 5.24961 20.3806 5.31202 20.1961 5.38617C20.0679 5.43761 20.049 5.43919 20.0173 5.40064C19.9932 5.37127 19.9558 5.36281 19.8999 5.37413C19.8293 5.38839 19.7977 5.37134 19.6712 5.25062C19.4855 5.07337 19.4783 5.07451 19.4408 5.28544ZM21.183 7.00572C21.3369 7.28005 21.3517 7.26551 20.9196 7.26551C20.6619 7.26551 20.546 7.25591 20.5528 7.2352C20.5619 7.20776 21.0546 6.78827 21.0651 6.79909C21.0676 6.8016 21.1206 6.8946 21.183 7.00572ZM10.4353 7.94986C10.3303 8.05576 10.3312 8.83211 10.4365 9.08459C10.5157 9.27452 10.5291 9.44847 10.4645 9.44847C10.0204 9.44847 9.59043 10.019 9.59043 10.6083V10.6798H10.2562V10.83C10.2562 11.0139 10.1997 11.0962 9.992 11.2144C9.68189 11.391 9.61131 11.5139 9.59561 11.9044L9.58411 12.1914L11.8272 12.1843L14.0703 12.1771L14.0671 11.8881C14.0631 11.5267 14.0122 11.4379 13.6834 11.2201C13.4281 11.0509 13.4273 11.0497 13.4144 10.8478L13.4046 10.6938L13.7481 10.6859L14.0917 10.6781L14.0734 10.4977C14.0181 9.95386 13.7596 9.61784 13.2867 9.47513C13.1443 9.43221 13.1257 9.30296 13.2304 9.08459C13.2829 8.97497 13.2922 8.89996 13.3015 8.50411L13.3123 8.04959L13.2288 7.96541C13.1271 7.86282 13.0325 7.85766 12.9277 7.94886L12.8498 8.01649L12.8588 8.34399C12.8748 8.93205 12.9022 8.91672 11.8373 8.91672C10.771 8.91672 10.8115 8.93786 10.8101 8.37981C10.8091 8.02108 10.7966 7.97587 10.681 7.91375C10.5873 7.86339 10.5097 7.87478 10.4353 7.94986ZM12.0145 9.27982C12.7613 9.40319 13.1914 10.1753 12.9022 10.8734C12.827 11.0552 12.8179 11.0563 12.6299 10.9054C12.5355 10.8295 12.4238 10.7516 12.3816 10.7323C12.3224 10.7051 12.3092 10.6841 12.323 10.6395C12.4724 10.155 12.096 9.74 11.6415 9.88809C11.0621 10.0769 11.1579 10.9032 11.7592 10.9039C12.0265 10.9042 12.1147 10.9447 12.1147 11.0674C12.1147 11.2145 12.2849 11.3186 12.3505 11.2116C12.3755 11.1708 12.4037 11.1769 12.4736 11.2381C12.6592 11.4005 11.9943 11.6208 11.581 11.5339C10.2 11.2434 10.3882 9.36716 11.8096 9.25611C11.8325 9.25431 11.9247 9.26499 12.0145 9.27982ZM19.006 9.40842C19.1069 9.5103 19.0251 9.70031 18.8803 9.70031C18.7518 9.70031 18.6778 9.54598 18.7453 9.4186C18.7811 9.35118 18.9429 9.34487 19.006 9.40842ZM11.9387 9.49963C11.8745 9.57127 11.8789 9.71886 11.9465 9.75533C12.1369 9.85814 12.3189 9.65016 12.165 9.5055C12.0896 9.43472 11.999 9.43235 11.9387 9.49963ZM11.4394 9.52757C11.3857 9.58747 11.3792 9.70267 11.4268 9.75068C11.5105 9.83507 11.7263 9.75626 11.7263 9.64134C11.7263 9.49999 11.5329 9.42333 11.4394 9.52757ZM12.377 9.79703C12.2671 9.90786 12.3231 10.0641 12.4726 10.0641C12.6556 10.0641 12.7034 9.84747 12.5396 9.76049C12.4583 9.71736 12.4552 9.71808 12.377 9.79703ZM10.9784 9.86638C10.912 9.99155 10.9898 10.1202 11.1318 10.1202C11.2041 10.1202 11.2825 10.0375 11.2825 9.96131C11.2825 9.82784 11.0392 9.75182 10.9784 9.86638ZM12.0419 10.0726C12.0858 10.1036 12.1445 10.1808 12.1722 10.2441C12.3394 10.6254 11.8425 10.9596 11.5386 10.6702C11.1825 10.3311 11.6394 9.78865 12.0419 10.0726ZM10.8337 10.295C10.6701 10.4269 10.8463 10.6407 11.0347 10.5389C11.0962 10.5057 11.1093 10.3483 11.0551 10.2936C11.0117 10.2498 10.8887 10.2506 10.8337 10.295ZM10.9559 10.7234C10.8 10.8335 10.9632 11.0657 11.1374 10.9817C11.2283 10.9379 11.2485 10.8429 11.1869 10.7482C11.1359 10.6695 11.0458 10.6599 10.9559 10.7234ZM11.261 10.995C11.1847 11.077 11.1829 11.139 11.2548 11.2116C11.3644 11.3221 11.5322 11.2442 11.5322 11.0829C11.5322 10.953 11.3539 10.8953 11.261 10.995ZM11.6986 11.0996C11.6257 11.1733 11.6285 11.2439 11.7074 11.3186C11.8577 11.4612 12.0521 11.2777 11.9328 11.1059C11.8789 11.0282 11.7722 11.0254 11.6986 11.0996ZM21.7114 11.8886C21.8134 11.9991 21.7478 12.1631 21.6015 12.1631C21.4557 12.1631 21.3864 11.9884 21.4905 11.8833C21.5628 11.8104 21.641 11.8123 21.7114 11.8886ZM10.3672 12.583V12.7788H10.9997L11.0188 12.6124C11.045 12.3849 11.0482 12.387 10.6845 12.387H10.3672V12.583ZM12.8359 12.582V12.7788H13.1544C13.5159 12.7788 13.5146 12.7798 13.4965 12.5247L13.4878 12.401L13.1619 12.3931L12.8359 12.3852V12.582ZM9.04995 15.0666C9.00458 15.0906 8.82364 15.1729 8.64788 15.2494C7.61685 15.6983 7.48385 15.7306 6.55302 15.7585C5.82287 15.7804 4.98954 15.9377 4.94203 16.0626C4.92918 16.0965 5.09947 17.4789 5.14775 17.7325C5.167 17.8337 5.17595 17.8474 5.1932 17.8024C5.20499 17.7716 5.27018 17.6079 5.33807 17.4386C5.52007 16.9844 5.73467 16.3952 5.73467 16.3495C5.73467 16.2562 6.08924 16.2173 6.87115 16.2246C7.78004 16.2332 8.09257 16.1709 9.09114 15.7824C9.49612 15.6249 9.47901 15.6593 9.31589 15.3314C9.1537 15.0052 9.15796 15.0095 9.04995 15.0666ZM0.136628 15.3326L0 15.6194L0.128106 15.6866C0.450147 15.8554 1.0916 16.0771 1.56035 16.1816C1.7447 16.2228 1.92834 16.2314 2.65565 16.2332C3.43622 16.235 3.54465 16.2408 3.67233 16.2875L3.81528 16.3398L3.84866 16.6233C3.90341 17.0887 4.0014 17.5398 4.20507 18.2643C4.88735 20.6912 4.93309 21.0139 4.64847 21.3926C4.53542 21.5431 4.534 21.614 4.63505 22.0703C4.75683 22.6209 4.82387 22.6945 4.86122 22.319C4.87258 22.2047 4.89261 22.1277 4.90937 22.1333C4.94523 22.1454 5.13788 22.4645 5.17623 22.5754L5.20478 22.6581H3.79966L3.7682 22.5811C3.6048 22.182 3.72538 21.525 4.20343 20.2093L4.35597 19.7894L4.27864 19.4816C4.23603 19.3123 4.15791 19.0226 4.10494 18.8379C3.95269 18.3073 3.70976 17.3932 3.70976 17.351C3.70976 17.2645 3.65969 17.322 3.61595 17.4587C3.54494 17.6804 3.52136 18.0393 3.50233 19.1878C3.47513 20.8306 3.44296 21.0264 3.16694 21.2322C2.94034 21.4011 2.92542 21.4455 2.91065 21.9958L2.89808 22.467L2.96043 22.4576C3.0095 22.4502 3.03329 22.414 3.07185 22.2877C3.15238 22.0243 3.15437 22.0206 3.18426 22.0744C3.21104 22.1225 3.32089 22.5625 3.32118 22.6231C3.32132 22.6498 3.20003 22.6581 2.80641 22.6581C2.27992 22.658 2.20926 22.6703 2.15601 22.7707C2.12547 22.8281 2.15913 22.9295 2.2229 22.9725C2.29931 23.0239 21.635 22.9966 21.6739 22.9449C21.6941 22.918 21.7111 22.8607 21.7116 22.8176C21.7133 22.6661 21.6477 22.6581 20.4027 22.658L19.2853 22.658L19.2833 22.2522L19.2813 21.8464H19.3466C19.4498 21.8464 19.4504 21.7946 19.355 21.1662C19.2608 20.5464 19.1988 20.111 19.1706 19.8722L19.1539 19.731L18.97 19.6664C18.5812 19.5299 18.0927 19.2807 17.6685 19.0026C17.5421 18.9197 17.4329 18.852 17.4258 18.852C17.4014 18.852 17.4129 19.0877 17.4537 19.4245C17.4761 19.6098 17.5145 19.9315 17.5388 20.1393C17.6824 21.3614 17.738 21.6506 17.8291 21.6506C17.9322 21.6506 17.9236 21.7312 17.8012 21.9133C17.5971 22.2171 17.3284 22.3507 17.0326 22.2955C16.6921 22.232 16.6417 22.2811 16.8014 22.5209C16.8833 22.6437 16.8833 22.6441 16.8223 22.6581C16.7886 22.6658 14.2796 22.6685 11.2467 22.6642L5.7324 22.6564L5.62226 22.4845C5.41668 22.1636 5.34332 21.8265 5.22168 20.6431C5.08832 19.3457 4.98251 18.4166 4.88721 17.7045C4.83466 17.3119 4.77217 16.8271 4.74838 16.627C4.67822 16.0363 4.69761 16.0804 4.47023 15.9924C4.09784 15.8484 3.78318 15.8004 3.0301 15.773C1.90334 15.732 1.52748 15.6358 0.455899 15.1143C0.378496 15.0766 0.305779 15.0458 0.294204 15.0458C0.2827 15.0458 0.21183 15.1748 0.136628 15.3326ZM18.4896 22.5532L18.4809 22.6441L18.3029 22.6525C18.1022 22.6621 18.1009 22.6229 18.2986 22.5175C18.4522 22.4355 18.4999 22.4445 18.4896 22.5532Z"/>
</svg>
