<svg width="24" height="24" viewBox="0 0 24 24" fill="none" xmlns="http://www.w3.org/2000/svg">
<path fillRule="evenodd" clipRule="evenodd" d="M14.9457 1.03639C15.2856 1.12091 15.3069 1.14107 18.1329 4.04572C19.9617 5.92517 20.0079 5.98146 20.0892 6.42724C20.1131 6.55818 20.1275 7.80383 20.1275 9.73757V12.8379L20.4077 13.1181C20.6577 13.3683 20.6901 13.3895 20.7081 13.3153C20.7421 13.1756 21.1461 9.6225 21.1461 9.46373C21.1461 9.40914 21.1149 9.39437 20.9992 9.39437C20.8166 9.39437 20.8234 9.42191 20.8265 8.6927L20.8291 8.08844L21.3134 8.07746C22.2435 8.05651 22.768 8.42326 22.9382 9.21354L23 9.50055L22.6568 12.3419C22.1434 16.5923 21.9866 17.9108 21.7136 20.2705C21.4954 22.158 21.3549 22.4806 20.5869 22.8565L20.335 22.9798L3.90476 23L3.67229 22.9191C3.15163 22.7378 2.73556 22.2964 2.60199 21.7837C2.55322 21.5965 2.24368 19.3342 1.77353 15.7291C1.6784 15.0001 1.55062 14.0265 1.48939 13.5655C1.42826 13.1046 1.34491 12.4643 1.30434 12.1426C1.26368 11.821 1.1699 11.0949 1.09583 10.5289C0.921597 9.19817 0.963609 8.91485 1.40025 8.47645C1.70853 8.16678 1.91985 8.09054 2.51285 8.07507L3.02579 8.0618L3.05051 8.36358C3.06403 8.52964 3.07514 8.82942 3.07514 9.02991V9.39437H2.94939C2.78231 9.39437 2.78163 9.39586 2.81631 9.67689C3.79418 17.6009 3.78259 17.5298 4.14573 17.8847C4.53224 18.2623 4.3923 18.2471 7.37064 18.2348C10.2368 18.2228 10.0527 18.2396 10.3109 17.9666C10.5345 17.7303 10.5526 17.6206 10.5387 16.5825C10.523 15.413 10.4773 15.3028 9.90992 15.0616C9.22632 14.7711 8.80562 15.2829 9.43513 15.6392C9.53721 15.6969 9.66741 15.7981 9.72449 15.8639L9.82821 15.9837V16.6475C9.82821 17.3004 9.82667 17.3129 9.73559 17.4071L9.64307 17.5028H7.301C4.7536 17.5028 4.8187 17.5081 4.61279 17.2816C4.47623 17.1312 4.50076 17.2847 4.03572 13.6825C3.98174 13.2643 3.89375 12.5978 3.84015 12.2011L3.7428 11.4799L3.72928 7.23689C3.7145 2.58511 3.72242 2.3459 3.90187 1.96908C4.05185 1.65432 4.38853 1.3222 4.72424 1.15794L4.98038 1.03259L6.86668 1.01303C9.37535 0.986988 14.8102 1.00266 14.9457 1.03639ZM5.23081 2.03235C5.03649 2.09013 4.75689 2.40189 4.70367 2.61994C4.65577 2.81684 4.63645 15.4477 4.68349 15.8029C4.72096 16.0849 4.9062 16.3691 5.12988 16.4876C5.31725 16.5869 5.31754 16.5869 6.48799 16.5984L7.65864 16.6098L7.301 16.2379L6.94336 15.8658H6.30951C5.54643 15.8658 5.43932 15.8353 5.37809 15.6002C5.29445 15.2793 5.3439 2.90815 5.42918 2.81035L5.50104 2.72832H10.0718C13.9573 2.72832 14.6534 2.7366 14.7157 2.78361C14.785 2.8359 14.79 2.90915 14.8079 4.13823C14.831 5.73057 14.8776 5.87907 15.4492 6.17825L15.6353 6.27575L16.8533 6.27595C18.2038 6.27625 18.3184 6.29122 18.4314 6.48283C18.5023 6.60289 18.5048 6.70278 18.5049 9.42361L18.5051 12.2401H18.5935C18.6422 12.2401 18.7822 12.2748 18.9047 12.3171C19.0273 12.3595 19.1403 12.3945 19.1558 12.3951C19.2283 12.3975 19.1858 6.3027 19.1122 6.13534C18.8669 5.57728 18.6866 5.5198 17.1092 5.49595C16.3933 5.48517 15.7818 5.46292 15.7502 5.44645C15.5906 5.36352 15.582 5.29576 15.5624 3.95631L15.5435 2.66984L15.4337 2.46506C15.3233 2.25928 15.1814 2.12316 14.9853 2.03504C14.8518 1.97516 5.43218 1.97247 5.23081 2.03235ZM7.57461 4.36796C7.2249 4.44381 7.14918 4.61456 7.14937 5.3266C7.14956 5.92008 7.18453 6.03984 7.40057 6.18594C7.57268 6.3022 11.2087 6.29262 11.3606 6.17546C11.7614 5.86639 11.7451 4.61516 11.3376 4.397C11.2344 4.34172 7.81703 4.31537 7.57461 4.36796ZM7.26642 7.50623C7.00778 7.73107 7.06013 8.19682 7.35856 8.32566C7.5299 8.3996 11.1679 8.4035 11.3711 8.32985C11.7206 8.20341 11.7719 7.6673 11.4531 7.4728C11.3541 7.41233 11.1626 7.40624 9.36279 7.40624H7.38136L7.26642 7.50623ZM13.571 7.46711C13.2981 7.66451 13.3118 8.09323 13.5972 8.29192C13.7684 8.41118 16.369 8.43294 16.6051 8.31707C16.8784 8.18315 16.938 7.7674 16.7167 7.53877L16.5884 7.40624H15.1218C13.8537 7.40624 13.6436 7.41452 13.571 7.46711ZM7.47861 9.54765C7.20181 9.58747 7.13034 9.68497 7.13034 10.0229C7.13034 10.5443 7.12329 10.5429 9.546 10.5137C11.0779 10.4952 11.3452 10.4834 11.4453 10.4299C11.777 10.2527 11.7289 9.69176 11.3711 9.56222C11.2311 9.51153 7.81819 9.49875 7.47861 9.54765ZM13.6928 9.55204C13.255 9.68697 13.2802 10.3653 13.7276 10.4897C13.9531 10.5525 16.5273 10.4942 16.6623 10.4233C16.9202 10.2879 16.9211 9.78257 16.6639 9.60214C16.5496 9.5221 13.9332 9.478 13.6928 9.55204ZM7.50768 11.674C7.48692 11.6814 7.42269 11.6983 7.36503 11.7115C7.09606 11.7729 7.01725 12.2675 7.23977 12.4974L7.36803 12.6299H9.37515H11.3822L11.5082 12.4997C11.7281 12.2724 11.7136 11.9385 11.4757 11.7563C11.3784 11.682 7.69823 11.6055 7.50768 11.674ZM13.7391 11.698C13.587 11.7233 13.4119 11.8657 13.4118 11.9643C13.4118 12.0194 13.5851 12.0246 15.1096 12.0152C16.2707 12.008 16.8073 11.9916 16.8073 11.9634C16.8073 11.8824 16.5852 11.6943 16.4801 11.6862C16.2273 11.6667 13.8665 11.677 13.7391 11.698ZM13.3364 13.2925C12.3462 13.3377 11.7704 13.7494 11.4378 14.6503C11.3269 14.9506 11.2881 20.2467 11.3937 20.6741C11.5227 21.1963 11.984 21.7644 12.4742 22.0048C12.9088 22.218 13.0442 22.2257 16.0905 22.2118L18.8256 22.1993L19.0776 22.0984C19.7259 21.8387 20.2095 21.2923 20.3503 20.6604C20.4172 20.3606 20.4037 14.9945 20.3355 14.7624C20.1727 14.2078 19.7727 13.7167 19.2781 13.4641L18.984 13.3139L18.2823 13.287C17.4297 13.2542 14.0938 13.2579 13.3364 13.2925ZM7.83451 13.8362L7.33142 13.8579L7.22152 13.9852C7.1288 14.0925 7.11151 14.1455 7.11151 14.3233C7.11151 14.7197 7.31404 14.8516 7.92269 14.8514L8.26216 14.8513L8.34648 14.6988C8.58011 14.276 9.27664 13.9759 9.72661 14.1043C9.86742 14.1445 10.1674 13.9604 10.1674 13.8339C10.1674 13.7975 8.69504 13.799 7.83451 13.8362ZM18.8524 14.1426C19.1381 14.2619 19.4187 14.5283 19.5503 14.8051L19.6559 15.0273V17.7367C19.6559 20.431 19.6554 20.4469 19.5744 20.6283C19.4645 20.874 19.2097 21.1517 18.9783 21.2778L18.7882 21.3815H15.8832H12.9783L12.7896 21.2776C12.5349 21.1372 12.3061 20.8843 12.1785 20.6019L12.0728 20.368V17.7367V15.1054L12.159 14.8852C12.3221 14.4684 12.6791 14.1649 13.112 14.0751C13.2045 14.0558 14.4855 14.0429 15.9587 14.0464L18.6373 14.0528L18.8524 14.1426ZM13.916 15.3501C12.9214 15.7183 12.9481 17.526 13.9527 17.8343C14.1937 17.9082 14.3582 17.9078 14.6376 17.8327C14.9471 17.7494 14.9544 17.7398 14.9109 17.4736C14.8656 17.1965 14.8857 17.2128 14.6783 17.2855C14.1669 17.4649 13.8271 17.1844 13.8271 16.5826C13.8271 15.9617 14.2376 15.6594 14.7261 15.9205C14.8526 15.9881 14.8835 15.9197 14.8835 15.572C14.8835 15.3129 14.3479 15.1901 13.916 15.3501ZM15.659 15.3363C14.9419 15.6127 14.9793 16.4014 15.7278 16.7879C16.0643 16.9618 16.1285 17.0202 16.1285 17.1532C16.1285 17.4212 15.7685 17.4466 15.2569 17.2144C15.1834 17.181 15.1194 17.6352 15.186 17.718C15.2526 17.801 15.5707 17.8731 15.8655 17.8721C16.8632 17.8687 17.1213 16.8264 16.2401 16.3597C15.8354 16.1454 15.7889 16.1089 15.7889 16.0058C15.7889 15.8109 16.0116 15.7496 16.3257 15.8578C16.5705 15.9423 16.5553 15.9554 16.5993 15.6209L16.6238 15.4348L16.4823 15.3737C16.2784 15.2857 15.8419 15.2658 15.659 15.3363ZM16.9679 15.3474C16.8555 15.3585 16.8076 15.3811 16.8076 15.4231C16.8076 15.4849 17.1617 16.6926 17.398 17.436L17.5315 17.8564L18.2223 17.8341L18.2899 17.6197C18.7233 16.2444 18.9603 15.3843 18.9141 15.354C18.8557 15.3157 18.602 15.3095 18.4431 15.3423C18.3354 15.3645 18.1311 15.9905 17.931 16.9111C17.8819 17.1367 17.8762 17.1251 17.7102 16.4616C17.4087 15.2567 17.4382 15.3011 16.9679 15.3474ZM8.39448 15.8961C8.39448 15.959 8.57431 16.1663 8.70875 16.2584L8.82841 16.3404L8.71619 16.2338C8.65438 16.1751 8.55683 16.0658 8.49917 15.9909C8.44161 15.916 8.39448 15.8734 8.39448 15.8961ZM6.54719 19.2544C6.52575 19.2959 6.50818 19.3433 6.50818 19.3597C6.50818 19.4633 8.2301 21.1672 8.33489 21.1672C8.442 21.1672 10.0169 19.6229 10.134 19.4032C10.2238 19.2345 10.1198 19.179 9.71357 19.179H9.33749L8.8543 19.6858C8.58851 19.9645 8.35488 20.1925 8.33508 20.1925C8.31528 20.1925 8.07886 19.9645 7.80979 19.6858L7.32041 19.179H6.95331C6.62909 19.179 6.58177 19.1878 6.54719 19.2544ZM14.9338 19.2612C14.6054 19.3583 14.506 19.8429 14.7651 20.0822C15.1366 20.4252 15.6986 19.9511 15.4676 19.4896C15.3761 19.3068 15.1323 19.2025 14.9338 19.2612ZM13.4786 19.318C13.1906 19.4795 13.1954 19.9779 13.4864 20.1335C13.913 20.3613 14.3413 19.8848 14.0911 19.4607C13.9725 19.2596 13.6972 19.1955 13.4786 19.318ZM16.1058 19.3895C15.9928 19.5063 15.9776 19.5462 15.9776 19.7248C15.9776 20.2395 16.596 20.3803 16.8272 19.9182C17.0562 19.4606 16.4599 19.0236 16.1058 19.3895ZM17.5146 19.3257C17.3423 19.4361 17.2725 19.6836 17.3526 19.9002C17.5681 20.4835 18.3929 20.1428 18.2032 19.5489C18.12 19.2882 17.757 19.1704 17.5146 19.3257Z"/>
</svg>
