<svg width="24" height="24" viewBox="0 0 24 24" fill="none" xmlns="http://www.w3.org/2000/svg">
<rect width="24" height="24" fill="white"/>
<path fillRule="evenodd" clipRule="evenodd" d="M9.00756 1.03011C8.59913 1.09891 8.19725 1.40108 8.00648 1.78258L7.90612 1.9834L7.89669 4.90287L7.88725 7.82235L8.15261 7.70027C8.45422 7.56156 9.23624 7.29041 9.33939 7.28878C9.71184 7.28296 12.0133 6.50033 12.2248 6.30757C12.3639 6.18086 12.2734 5.65011 12.1074 5.6197C12.0725 5.61327 11.9687 5.64814 11.8769 5.69715C11.6525 5.81692 11.5517 5.8009 11.4217 5.62484C11.2981 5.45752 11.303 5.45855 11.1432 5.56496C10.6001 5.9265 9.82862 5.7602 9.37748 5.18448C9.19964 4.95753 8.84449 4.25347 8.84449 4.12796C8.84449 4.12119 8.90144 4.14416 8.97105 4.17902C9.04075 4.21381 9.15972 4.24259 9.23554 4.24302C9.71699 4.24533 9.99484 4.34069 10.3579 4.62812C10.7707 4.95505 11.1769 5.02787 11.0698 4.75577C10.6903 3.79135 12.2798 3.11188 12.78 4.02481C12.844 4.14176 12.8538 4.21646 12.8573 4.61578C12.8622 5.1844 13.1239 5.78179 13.368 5.78179C13.5476 5.78179 13.684 3.61761 13.5168 3.42005C13.4729 3.36813 12.5069 2.73406 12.2052 2.55903C11.8062 2.32763 11.7696 2.33037 11.4034 2.61909C10.9012 3.01516 10.622 3.11043 10.939 2.77759C11.0307 2.68129 11.0955 2.60247 11.083 2.60247C11.0337 2.60247 10.6265 2.81742 10.4736 2.92434C10.1887 3.12328 10.1665 3.06468 10.4157 2.77099C10.8159 2.29936 11.4019 1.99633 11.82 2.04491C12.3018 2.10086 13.8668 2.7237 14.0267 2.92306C14.229 3.17537 14.3686 4.11597 14.4011 5.44716C14.4285 6.56142 14.425 6.54565 14.7224 6.87113C15.0501 7.22975 15.0742 7.49114 14.8133 7.85671C14.765 7.92447 14.7495 8.04519 14.7316 8.49249C14.662 10.2348 14.3721 11.3381 13.5722 12.906C12.4882 15.031 12.3095 16.7095 12.8596 19.6032C13.0639 20.6789 12.9681 21.8541 12.6628 22.0143C12.5822 22.0567 12.5828 22.0585 12.5331 21.6614C12.4792 21.231 12.4458 21.1388 12.2322 20.8314C11.9652 20.447 11.955 20.3353 12.167 20.113C12.3688 19.9014 12.3803 19.982 11.9846 18.8336C11.3842 17.0911 11.2803 16.4167 11.3982 15.0268C11.411 14.8749 11.4162 14.7506 11.4097 14.7506C11.4032 14.7506 11.1722 14.9581 10.8964 15.2115C10.0264 16.0111 9.2192 16.6278 8.24878 17.2345L7.88909 17.4593V19.6621C7.88909 22.117 7.88882 22.1133 8.1168 22.4404C8.26477 22.6528 8.42976 22.786 8.69652 22.9085L8.89558 23H11.9493H15.003L15.2297 22.8913C15.5189 22.7525 15.802 22.4609 15.9109 22.1896L15.9887 21.9961L16.0023 19.1438L16.016 16.2915L19.0444 16.2825L22.0728 16.2734L22.3065 16.1563C22.5812 16.0184 22.7844 15.7958 22.9067 15.4984L22.9871 15.3029L22.9968 12.2073C23.0069 8.98999 23.0004 8.81256 22.8629 8.53198C22.7621 8.32628 22.4376 8.00963 22.2306 7.91514L22.0659 7.83992L19.0388 7.83066L16.0118 7.82149L16.0021 4.93586L15.9925 2.05031L15.9133 1.8578C15.7676 1.5038 15.4693 1.20977 15.1143 1.07004C14.9548 1.00733 9.36001 0.970657 9.00756 1.03011ZM11.4546 7.63807C11.4358 7.64604 11.0597 7.6917 10.6187 7.73942C9.98218 7.80839 9.75709 7.84634 9.52684 7.9237C9.36734 7.97725 8.92205 8.07474 8.53737 8.1402C7.45759 8.32405 7.53088 8.29921 7.42964 8.51613C7.17415 9.0635 6.8328 9.35598 7.05318 8.83878C7.0813 8.77264 7.10436 8.70504 7.10436 8.68833C7.10436 8.61885 6.8632 8.78823 6.59033 9.04945C6.08625 9.53196 6.08861 9.34639 6.59478 8.6915C6.91054 8.28293 7.12026 8.11621 7.50502 7.96808L7.8379 7.83992L7.34317 7.83049C7.07108 7.82527 5.74298 7.82527 4.39181 7.83049L1.93518 7.83992L1.74153 7.92893C1.4705 8.05358 1.25632 8.25928 1.12487 8.52119L1.01394 8.74205L1.00433 11.989C0.994807 15.2086 0.995331 15.2378 1.06634 15.4559C1.1916 15.8402 1.514 16.1564 1.88356 16.257C1.95719 16.2772 3.1369 16.2898 4.94454 16.2899L7.88568 16.2901L7.8959 16.4755L7.90612 16.661L8.23026 16.3865C8.96459 15.7647 11.1506 13.5157 10.7551 13.7889C8.88004 15.0842 6.6623 14.9172 4.85239 13.3444C4.75325 13.2581 4.76845 13.2636 4.94227 13.3768C6.52421 14.4062 8.83872 14.3413 10.6016 13.2179C11.2709 12.7915 12.2906 11.8225 12.5807 11.3372C12.6145 11.2805 12.6118 11.2823 12.3588 11.4765C9.94374 13.331 6.16958 13.0976 4.15108 10.969C3.75243 10.5486 3.68544 10.4627 3.91411 10.6653C5.29567 11.8892 7.40851 12.1458 9.12793 11.2986C9.69149 11.021 10.3837 10.5317 10.0178 10.6696C8.58908 11.2084 6.6043 10.7146 5.58331 9.5664C5.35629 9.311 4.98891 8.76458 4.98891 8.68225C4.98891 8.67565 5.05049 8.72766 5.1257 8.79791C6.63584 10.2069 10.3788 10.5238 12.596 9.43035L12.8706 9.29498V9.13152C12.8706 8.37357 11.967 7.42063 11.4546 7.63807Z"/>
</svg>
