<svg width="24" height="24" viewBox="0 0 24 24" fill="none" xmlns="http://www.w3.org/2000/svg">
<path fillRule="evenodd" clipRule="evenodd" d="M11.2056 1.02512C4.65117 1.52705 0.617786 6.95297 3.21461 11.7762C3.50903 12.323 3.73839 12.6256 3.88888 12.6659C4.21964 12.7541 4.45573 12.9335 4.80229 13.3601C5.20071 13.8505 5.83495 14.2958 6.59841 14.6212L6.82418 14.7175L7.36744 14.5506C8.00177 14.3556 8.55328 14.1479 8.6519 14.0669C8.66096 14.0594 8.49782 13.9662 8.28946 13.8599C7.65145 13.5341 7.3232 13.3225 7.39481 13.2834C7.42792 13.2652 7.64956 13.1541 7.88745 13.0364C9.03363 12.4693 9.05588 12.4425 9.49208 11.115C9.59178 10.8114 9.61699 10.7793 9.67954 10.8754C9.73535 10.9611 9.72378 11.0092 9.62381 11.1068C9.48571 11.2418 9.55014 11.2454 9.71893 11.1121C9.88279 10.9826 9.90369 10.8926 9.80624 10.7376C9.75222 10.6517 9.75285 10.6502 9.86179 10.6055C10.0137 10.5432 10.0462 10.5475 10.1868 10.649L10.3097 10.7378L10.2367 10.8189C9.85407 11.2444 10.7951 11.9811 11.2868 11.6409C11.5773 11.44 11.4515 11.6641 10.9391 12.2605C10.705 12.533 10.7013 12.5506 10.9114 12.3885C11.2278 12.1445 11.2411 12.1498 11.0162 12.4313C10.8972 12.5804 10.5639 13.0953 10.2754 13.5756C9.76371 14.4277 9.46758 14.8383 9.12489 15.1709C8.78811 15.4978 8.86861 15.4624 9.37947 15.0593C9.51254 14.9542 9.60452 14.8943 9.5837 14.9259C9.51182 15.0357 8.93788 15.5172 8.56539 15.7801C8.35945 15.9253 8.17523 16.0562 8.15602 16.0709C8.11376 16.103 8.51209 15.9614 8.6117 15.9089C8.86125 15.7772 8.88826 15.7731 8.73436 15.8905C8.42882 16.1235 7.7742 16.4577 7.4027 16.5703C7.20726 16.6296 7.38655 16.62 7.69775 16.5546C7.84707 16.5232 8.09806 16.4454 8.25545 16.3818C8.60093 16.2421 8.50473 16.3241 8.05113 16.5561C7.80059 16.6842 7.63853 16.7436 7.08648 16.9095C6.97288 16.9436 6.83522 17.0339 6.59752 17.2301L6.26666 17.5032L6.65692 17.4028C6.87156 17.3474 7.21776 17.2375 7.4263 17.1583C7.90414 16.9769 7.76146 17.0757 7.24459 17.2842C6.8433 17.446 6.67451 17.4977 6.17549 17.6113L5.87758 17.6792L6.12291 17.6626C8.17577 17.5238 10.1831 15.706 11.5155 12.7792C11.6445 12.4956 11.8496 12.1144 11.8525 12.1526C11.8533 12.1647 11.7924 12.3917 11.7172 12.6569C11.0558 14.9893 9.56055 16.593 7.18528 17.5176C6.68106 17.7139 6.27707 17.8179 5.98499 17.8268C5.71148 17.8351 5.71228 17.8332 5.91266 17.9948C6.08764 18.136 6.10371 18.1678 6.00024 18.1678C5.95367 18.1678 5.93016 18.1869 5.93016 18.225C5.93016 18.3431 5.47592 18.744 5.34204 18.744C5.17774 18.744 4.80282 19.0222 4.60182 19.2932C4.56144 19.3478 4.52824 19.377 4.52815 19.3582C4.52788 19.2789 4.84679 18.9507 5.08127 18.789C5.49091 18.5066 5.57068 18.3857 5.30417 18.4512C5.10065 18.5014 4.99557 18.5845 4.92962 18.7478C4.89346 18.8374 4.78174 18.9842 4.64373 19.1236C4.23804 19.5333 4.12102 20.1205 4.42908 20.2009C4.54502 20.2311 5.07921 19.879 5.13089 19.7382C5.19012 19.5771 5.97377 18.627 6.22871 18.4072C6.50455 18.1695 6.56045 18.1684 6.80148 18.3963C7.04726 18.6286 7.24612 18.6923 7.76541 18.7053C8.13969 18.7147 8.14876 18.7165 8.31853 18.819C8.58253 18.9783 8.81342 19.0421 9.10237 19.0357C9.23733 19.0327 9.43456 19.0287 9.54054 19.0269C9.6466 19.0251 9.80005 19.0411 9.88162 19.0625C10.0145 19.0974 10.0637 19.0948 10.3549 19.0376C10.7919 18.9516 10.7719 18.9449 10.6959 19.1515C10.5338 19.5913 10.2146 19.9308 9.82975 20.0728C9.6982 20.1213 9.61062 20.1714 9.61071 20.198C9.61071 20.2285 9.57482 20.2432 9.49675 20.2447C9.43411 20.246 8.2235 20.2581 6.80651 20.2718C4.3135 20.2958 3.65162 20.3198 4.31772 20.3624C4.68213 20.3856 10.1445 20.4409 11.4422 20.4345C11.9579 20.4319 12.3798 20.437 12.3798 20.4458C12.3798 20.494 11.2318 21.0602 10.6422 21.3029C6.67406 22.9364 3.12147 22.1402 2.85962 19.5586C2.69155 17.9017 4.19658 16.5 6.5627 16.11C6.91239 16.0524 7.06198 16.0112 7.31476 15.9031L7.63018 15.7681L7.17451 15.7855C2.35702 15.9691 0.109529 20.4803 4.0023 22.1528C7.01774 23.4484 11.7802 22.3013 15.9406 19.2772L16.0595 19.1907L15.9182 18.917C15.6311 18.3604 15.5402 18.1807 15.5171 18.1245C15.4965 18.0739 15.4713 18.0881 15.3123 18.2395C14.6664 18.8545 13.4004 19.8534 12.8977 20.1446C12.6617 20.2814 12.3093 20.0964 12.3093 19.836C12.3093 19.7612 12.2856 19.5984 12.2567 19.4742C12.1789 19.14 12.184 18.7027 12.2654 18.7285C12.5292 18.8121 12.6122 18.8132 12.8748 18.736C13.0168 18.6942 13.1961 18.6513 13.2732 18.6406C13.9465 18.5469 14.5138 18.1848 14.935 17.5801C15.1487 17.2733 15.1485 17.3387 14.9364 17.1112C14.5956 16.7458 14.2906 16.1148 13.9592 15.0897C13.8807 14.8469 13.8167 14.6395 13.8168 14.6286C13.817 14.6178 13.9095 14.7841 14.0224 14.998C14.3321 15.585 14.8827 16.5717 15.3411 17.3609C15.5666 17.7492 15.919 18.357 16.1241 18.7116L16.497 19.3563L16.7604 19.3388C16.9053 19.3291 17.0407 19.3307 17.0613 19.3424C17.1593 19.3978 17.401 20.1153 17.3962 20.3361L17.3931 20.473H17.9304C18.4231 20.473 18.4729 20.4682 18.5311 20.4153C18.5659 20.3837 18.6197 20.3563 18.6505 20.3544C18.7647 20.3477 18.4191 20.3034 18.2395 20.3018L18.0531 20.3001L18.1319 20.2091C18.2787 20.0396 18.2617 19.8543 18.0362 19.1725C18.0248 19.1376 18.0528 19.1205 18.1443 19.1063L18.2678 19.0873L18.22 18.9949C18.1937 18.9441 17.9039 18.4487 17.576 17.894C17.2481 17.3393 16.8518 16.6455 16.6953 16.3523C16.5388 16.0591 16.2838 15.6312 16.1285 15.4014C15.3449 14.2418 15.2594 13.9562 15.2359 12.4189C15.2176 11.2225 15.157 10.9135 14.8133 10.2659C14.5169 9.70728 14.4994 9.32774 14.7089 7.99658C14.7731 7.58834 14.7372 7.61054 15.9723 7.21832C17.196 6.8297 17.3944 6.69249 17.1938 6.37359C17.029 6.11164 16.8334 5.98232 16.0073 5.58942C15.6795 5.43363 15.2879 5.24271 15.137 5.16525C14.9272 5.05755 14.8516 5.03188 14.8159 5.05622C14.754 5.09842 14.3774 5.56457 14.3774 5.59894C14.3774 5.6137 14.3514 5.64342 14.3197 5.66504C14.2682 5.70023 14.2647 5.69676 14.2868 5.63258C14.3336 5.49618 14.5912 5.08529 14.6298 5.08529C14.6524 5.08529 14.6459 5.06412 14.6145 5.03483C14.5846 5.00709 14.5493 4.92964 14.536 4.86265C14.4873 4.61877 14.1356 4.35557 13.8138 4.3223L13.6588 4.30629L13.799 4.35092C13.8762 4.37548 13.9707 4.42255 14.0093 4.4556L14.0794 4.51572L13.8867 4.49617C13.3971 4.4466 13.377 4.44579 13.431 4.47736C13.4599 4.49425 13.516 4.50827 13.5555 4.50856C13.6383 4.50901 13.9685 4.63847 14.0219 4.69136C14.0687 4.73776 13.5482 4.70464 13.433 4.65389C13.39 4.635 13.3459 4.62696 13.335 4.63596C13.3159 4.65153 13.5384 4.73953 13.597 4.73953C13.6124 4.73953 13.7013 4.79139 13.7947 4.85476C13.9772 4.97877 13.9713 4.99168 13.7596 4.93119C13.4511 4.84303 13.4057 4.84761 13.6062 4.94682C13.8526 5.06876 13.8657 5.14829 13.7149 5.61104C13.5175 6.21683 13.2514 6.67707 12.7276 7.31849C12.5982 7.47702 12.3891 7.73639 12.2628 7.89485C11.9571 8.2786 11.7011 8.52875 11.3911 8.74629C10.9994 9.02137 10.9304 9.11794 10.9563 9.35496C10.9792 9.56483 10.9609 9.63823 10.8859 9.63823C10.8121 9.63823 10.8256 9.66058 10.9574 9.75567C11.0649 9.8332 11.1384 9.9499 11.2056 10.1497C11.2801 10.3713 10.4641 9.99453 10.2398 9.70381C10.0583 9.46856 10.2068 9.08223 10.5237 8.96524C10.565 8.94997 10.5657 8.9434 10.527 8.92887C10.1766 8.79719 10.0331 8.46663 10.2634 8.32109C10.6599 8.07042 10.6885 8.02955 10.5365 7.93122C10.4869 7.89913 10.4321 7.84218 10.4146 7.80463C10.3973 7.76708 10.3572 7.73639 10.3255 7.73639C10.2826 7.73639 10.2724 7.71751 10.2855 7.66137C10.3044 7.58023 10.3238 7.58163 10.0115 7.64086C9.95951 7.65067 9.92828 7.63422 9.8993 7.58192C9.83711 7.46987 9.71534 7.4262 9.71534 7.51605C9.71534 7.55448 9.68492 7.61652 9.64777 7.65392L9.5802 7.72194L9.59958 7.60073C9.62058 7.47016 9.44309 7.19648 9.29538 7.13149C9.15612 7.07019 8.88934 7.11098 9.01434 7.17442C9.15549 7.2462 9.00545 7.51804 8.67245 7.79401C8.66294 7.8019 8.66616 7.77601 8.67971 7.73639C8.74396 7.54887 8.7428 7.5446 8.64983 7.6284C8.60138 7.67207 8.55095 7.75528 8.53767 7.81326C8.5155 7.91064 8.50994 7.91462 8.46606 7.86527C8.39615 7.78678 8.408 7.62862 8.49145 7.52468C8.55157 7.4498 8.54197 7.45408 8.43698 7.54902C8.28542 7.68616 8.2795 7.88858 8.42352 8.01458C8.50276 8.08392 8.59366 8.10465 8.59366 8.05331C8.59366 8.00078 8.69398 8.0235 8.74944 8.08857C8.77941 8.12375 8.804 8.18602 8.804 8.22688C8.804 8.26775 8.82293 8.31673 8.84608 8.33577C8.87875 8.36262 8.87408 8.37029 8.82473 8.37029C8.77555 8.37029 8.76604 8.38563 8.78219 8.4386C8.8118 8.53561 8.65872 8.66979 8.54951 8.64264C8.41509 8.60915 8.24316 8.51163 8.24316 8.46885C8.24316 8.4428 8.20574 8.42798 8.13996 8.42798C8.07356 8.4279 8.01765 8.40548 7.98311 8.36483C7.95349 8.33016 7.92451 8.30744 7.91859 8.31445C7.91266 8.32138 7.88646 8.35008 7.86026 8.37818C7.81916 8.42222 7.82006 8.42687 7.86663 8.41219C7.95834 8.38327 7.97261 8.45535 7.88655 8.51274C7.84034 8.5435 7.81853 8.57751 7.83612 8.59115C7.85317 8.60443 7.87426 8.59905 7.88287 8.5792C7.90405 8.53044 7.96274 8.53347 7.96274 8.58333C7.96274 8.60539 7.93905 8.63099 7.91015 8.64006C7.81781 8.6692 7.84994 9.02941 7.95242 9.11366C8.02672 9.17474 8.03076 9.19171 7.99639 9.29675C7.93375 9.48804 7.97665 9.56203 8.27555 9.77861L8.54736 9.9755L8.4849 10.1022C8.39005 10.2944 8.40046 10.3902 8.5277 10.4972C8.60209 10.5597 8.61995 10.5891 8.58343 10.5891C8.40019 10.5891 8.27752 10.3148 8.37551 10.124C8.46408 9.95175 8.42182 9.96547 8.29556 10.15C8.1571 10.3523 8.19524 10.6026 8.37336 10.6599C8.42289 10.6759 8.40674 10.6885 8.29637 10.72C8.1239 10.7693 8.00706 10.7211 7.97458 10.5873C7.96309 10.5401 7.9377 10.4934 7.91805 10.4834C7.86268 10.4552 7.92083 10.6212 7.99549 10.7044C8.05373 10.7693 8.08163 10.7757 8.27438 10.7695C8.53031 10.7614 8.54556 10.7922 8.38278 10.9897C8.26003 11.1386 8.25393 11.1899 8.34734 11.2876C8.41554 11.3589 8.69883 11.4436 8.69883 11.3927C8.69883 11.3473 8.83253 11.4333 8.87166 11.5038C8.9561 11.6562 8.89965 11.7978 8.75321 11.8009C8.68357 11.8024 8.68375 11.8038 8.76021 11.8477C9.04628 12.0117 8.81871 12.2501 7.7349 12.9221C7.44569 13.1013 7.13817 13.3032 7.05139 13.3706C6.86878 13.5127 6.74836 13.5669 6.44335 13.6443C6.3223 13.6751 6.12964 13.7553 6.01514 13.8225L5.80704 13.9448L5.92469 13.8222C5.98947 13.7547 6.08953 13.6795 6.14705 13.655C6.20457 13.6306 6.24333 13.6037 6.23319 13.5953C6.22296 13.587 6.17854 13.6009 6.13448 13.6262C5.98947 13.7098 5.9831 13.6746 6.12192 13.5576C6.20941 13.484 6.34087 13.4167 6.48831 13.3702C6.74226 13.29 7.08648 13.1358 7.08648 13.1023C7.08648 13.0906 6.97494 12.9774 6.83872 12.8508C4.00553 10.2181 4.34482 5.54361 7.54215 3.15977C11.0057 0.577568 16.3185 1.32913 17.6893 4.59524L17.7801 4.81138L17.7589 4.65293C17.6697 3.98451 17.2358 2.57375 17.0051 2.20203C16.5819 1.52011 13.3377 0.861873 11.2048 1.0252M14.2394 4.41672C14.4353 4.59605 14.4841 4.62099 14.4105 4.50406C14.3467 4.40285 14.266 4.33484 14.152 4.28645C14.0659 4.24986 14.08 4.27081 14.2394 4.41672ZM14.4304 4.33956C14.4663 4.47529 14.5159 4.57724 14.5374 4.55954C14.564 4.5377 14.4796 4.28032 14.4391 4.25982C14.4173 4.24868 14.4141 4.27789 14.4304 4.33956ZM10.8051 5.0307C10.6505 5.06899 10.3527 5.22781 10.2409 5.33146C10.1824 5.38568 10.2233 5.36819 10.3639 5.27893C10.5733 5.146 10.8123 5.05608 10.9551 5.05659C11.0011 5.05681 10.9575 5.08448 10.8412 5.12903C10.6356 5.20767 10.3314 5.40338 10.2713 5.49567C10.2432 5.53889 10.2689 5.53041 10.3715 5.46262C10.4955 5.38073 10.863 5.24124 10.892 5.26506C10.8984 5.2703 10.8308 5.31943 10.7419 5.37439C10.6529 5.42927 10.5556 5.50658 10.5256 5.5462C10.4725 5.61635 10.4729 5.61701 10.54 5.5715C10.578 5.54583 10.6484 5.50865 10.6966 5.48888C10.8228 5.43724 10.7483 5.49264 10.3724 5.73018C10.0702 5.92102 10.0112 5.93983 10.1217 5.81007C10.1527 5.77385 10.1724 5.73962 10.1656 5.73409C10.1459 5.718 10.0121 5.81538 9.96794 5.87794C9.93133 5.92987 9.92747 5.92655 9.92649 5.84245C9.92523 5.73608 9.84232 5.73682 9.80543 5.84356C9.78381 5.90611 9.78345 5.90604 9.73311 5.83434C9.68331 5.76345 9.6825 5.76426 9.68133 5.88819C9.67972 6.05247 9.86619 6.21963 10.085 6.25003L10.2268 6.26972L10.339 6.54082C10.4007 6.68998 10.4513 6.8373 10.4513 6.86828C10.4513 6.98948 10.4868 7.01641 10.623 6.99848C10.7441 6.98262 10.7651 6.99192 10.9485 7.1427C11.2223 7.36777 11.3957 7.35604 11.5559 7.10139C11.6205 6.99871 11.6526 6.99509 11.7369 7.08103C11.9059 7.25373 12.0471 7.3064 12.0833 7.21035C12.1372 7.06753 12.326 6.77983 12.3821 6.75519C12.4148 6.74074 12.4829 6.67095 12.5335 6.60013L12.6253 6.47126L12.4672 6.33752C12.3409 6.2307 12.2948 6.16224 12.2379 5.99744C12.0676 5.50393 12.0204 5.40168 11.9065 5.27893C11.6911 5.047 11.1924 4.93465 10.8051 5.0307ZM14.2215 5.53897C14.2089 5.58256 14.191 5.63907 14.1819 5.6646C14.1597 5.72627 14.1994 5.74795 14.5699 5.87639C15.1017 6.06066 15.7091 6.3519 15.7091 6.4225C15.7091 6.43334 15.5419 6.43637 14.6273 6.44205L13.8786 6.44669L13.7739 6.63761C13.5325 7.07742 13.4531 7.19714 13.3183 7.32521C13.2402 7.39942 13.1192 7.5308 13.0493 7.61718L12.9225 7.77416L12.9107 8.19465C12.9006 8.56113 12.9365 9.05228 12.9973 9.37871L13.0161 9.47955L12.9486 9.3931C12.9114 9.34559 12.7983 9.2159 12.697 9.10495C12.5958 8.99401 12.4631 8.82884 12.4023 8.73795C12.2713 8.54254 12.287 8.54158 12.0842 8.75699C11.8895 8.96369 11.8901 8.94347 12.0767 9.04041C12.4673 9.24327 12.6952 9.48081 12.6915 9.68131C12.69 9.7601 12.6857 9.75678 12.643 9.64443C12.5806 9.47992 12.4551 9.35016 12.2312 9.21841C12.1294 9.15844 12.0029 9.077 11.9501 9.03723C11.823 8.94178 11.8191 8.951 11.8716 9.22026C11.8962 9.34699 11.912 9.45469 11.9065 9.45941C11.8829 9.47992 11.8141 9.26503 11.7976 9.11941L11.7798 8.96088L12.0807 8.65836C12.2462 8.49193 12.5379 8.15474 12.7288 7.90909C12.9198 7.66344 13.1564 7.38466 13.2547 7.28958C13.492 7.06001 13.8915 6.25003 14.0968 5.5822C14.121 5.50326 14.154 5.45974 14.1894 5.45974C14.2317 5.45974 14.2391 5.47818 14.2215 5.53897ZM10.7638 5.75924C10.719 5.79399 10.3792 5.94602 10.3076 5.96329C10.1993 5.98933 10.4389 5.84858 10.6018 5.7903C10.7097 5.75172 10.7943 5.73556 10.7638 5.75924ZM12.7997 6.5049C12.7997 6.58162 12.5829 6.81819 12.5283 6.80101C12.4872 6.78802 12.4813 6.80108 12.5002 6.86422C12.5533 7.04216 12.6002 7.03308 12.8097 6.80425C12.9908 6.60633 13.0015 6.58634 12.9468 6.54776C12.8446 6.47576 12.7997 6.46263 12.7997 6.5049ZM20.8942 6.78308C20.8349 6.83177 20.7917 6.89801 20.7917 6.94021C20.7917 7.18623 21.1391 7.33797 21.3345 7.1773C21.4136 7.11231 21.4217 7.1112 21.4733 7.15812C21.7462 7.40606 21.6628 8.02609 21.275 8.62951C21.1163 8.87664 21.1778 8.82758 21.4112 8.52122C21.837 7.96198 21.8675 7.33044 21.4894 6.90133C21.3072 6.69463 21.0613 6.64572 20.8942 6.78308ZM12.3966 7.1222C12.3388 7.14772 12.2284 7.21308 12.1513 7.26737C12.0283 7.3539 11.9945 7.36394 11.8763 7.34867C11.7758 7.33568 11.7454 7.34055 11.7564 7.36807C11.7793 7.42516 11.9068 7.42775 12.035 7.37367C12.1457 7.3269 12.1428 7.33207 11.9761 7.47997C11.7503 7.68033 11.7325 7.68166 11.652 7.50439L11.5846 7.35575L11.4924 7.51074C11.4417 7.59594 11.2975 7.75941 11.172 7.8739C10.9911 8.03907 10.9323 8.11645 10.8884 8.24776C10.8579 8.33886 10.8164 8.44583 10.796 8.48544C10.7322 8.60982 10.6622 8.81445 10.663 8.87443C10.6635 8.90615 10.6927 8.86329 10.728 8.77927C10.8092 8.58606 10.9086 8.50153 11.3254 8.27144C11.7961 8.01155 11.8202 7.99023 11.797 7.85413C11.7805 7.75668 11.79 7.73521 11.8707 7.68874C11.9216 7.65938 12.0313 7.58996 12.1145 7.53449C12.1976 7.47901 12.3237 7.39669 12.3948 7.35162C12.5548 7.25011 12.5406 7.22894 12.3628 7.30345C12.2889 7.33443 12.2151 7.35287 12.1986 7.34453C12.1404 7.31495 12.2386 7.22385 12.378 7.17796C12.4557 7.15244 12.5193 7.11843 12.5193 7.1025C12.5193 7.06672 12.524 7.06591 12.3966 7.1222ZM18.6184 7.11666C17.0231 7.41417 16.4451 9.20292 17.7772 9.72011C18.5091 10.0042 19.4597 9.51474 19.4597 8.85362C19.4597 8.50927 19.0965 8.20874 18.7679 8.28096C18.6445 8.3081 18.6223 8.3863 18.7316 8.40887C19.1262 8.49024 19.1017 8.95439 18.6969 9.06423C17.9801 9.25876 17.3737 8.62575 17.7197 8.04431C18.0534 7.48374 18.9233 7.25749 19.6491 7.54238C20.2767 7.78877 20.6882 8.32404 20.8076 9.04955L20.8317 9.19584L20.3792 9.59707C19.1618 10.6767 17.606 11.6546 15.8219 12.4617C15.5658 12.5775 15.3488 12.6823 15.3396 12.6945C15.3036 12.7423 15.4926 13.6723 15.5384 13.6723C15.699 13.6723 16.8978 12.9546 17.7757 12.3327C18.5636 11.7747 20.2127 10.3899 20.6165 9.94725C20.7899 9.757 20.798 9.77463 20.6825 10.0919C20.4646 10.6902 20.1286 11.3925 19.8108 11.9136C19.574 12.3019 19.5644 12.3353 19.759 12.0947C20.1639 11.5938 20.7013 10.5882 20.9715 9.82538L21.0839 9.5084L21.5775 9.04978C22.7181 7.99009 23 7.69354 23 7.55337C23 7.28508 22.3493 7.68852 21.6365 8.39899C21.4377 8.59706 21.2215 8.80826 21.156 8.86823L21.0371 8.97726V8.75035C21.0371 7.65082 19.894 6.87876 18.6184 7.11666ZM9.25823 7.19412C9.38485 7.30588 9.3293 7.56813 9.15262 7.69302L9.07105 7.75063L9.15414 7.65237C9.27349 7.5114 9.29368 7.27438 9.19353 7.19198C9.15271 7.15849 9.13458 7.13105 9.15307 7.13105C9.17164 7.13105 9.21893 7.15945 9.25823 7.19412ZM8.03641 7.87656C7.99118 8.06585 7.94093 8.11778 7.87498 8.04364C7.85191 8.01768 7.8241 8.00373 7.81324 8.01273C7.80238 8.02166 7.74872 8.00572 7.69407 7.9774L7.59465 7.92576L7.66141 7.9895C7.69811 8.02454 7.75724 8.05316 7.79287 8.05316C7.8284 8.05316 7.85748 8.06614 7.85748 8.082C7.85748 8.09786 7.88117 8.11085 7.91006 8.11085C7.96229 8.11085 7.9674 8.1194 7.97584 8.22165C7.9814 8.28922 8.06207 8.37014 8.12381 8.37014C8.19793 8.37014 8.27465 8.22261 8.24002 8.14684C8.20798 8.07691 8.11852 8.05935 8.09303 8.118C8.08442 8.13784 8.06548 8.14493 8.05094 8.13379C7.99181 8.08864 8.13879 8.01546 8.22422 8.0474C8.34599 8.09307 8.35802 8.05663 8.25437 7.95556C8.20376 7.90621 8.14346 7.82897 8.1204 7.78383C8.07903 7.7032 8.0776 7.70475 8.03641 7.87656ZM7.76209 8.17569C7.67325 8.27011 7.67774 8.28369 7.79798 8.28369C7.90701 8.28369 7.91634 8.27719 7.90109 8.21169C7.88314 8.1343 7.8171 8.11719 7.76209 8.17569ZM8.33684 8.15857C8.30086 8.18823 8.38458 8.25492 8.45771 8.25492C8.50016 8.25492 8.52349 8.23441 8.52349 8.1973C8.52349 8.14043 8.39212 8.11321 8.33684 8.15857ZM8.18824 8.22305C8.21166 8.25425 8.10981 8.29062 8.06405 8.26738C8.04619 8.25831 8.04072 8.23883 8.05175 8.22408C8.07751 8.18993 8.16284 8.18926 8.18824 8.22305ZM8.61116 8.22607C8.58182 8.2651 8.62139 8.31253 8.68331 8.31253C8.71112 8.31253 8.73382 8.28656 8.73382 8.25492C8.73382 8.19524 8.64921 8.17539 8.61116 8.22607ZM8.28435 8.36055C8.30139 8.43285 8.38332 8.44281 8.38332 8.37258C8.38332 8.33717 8.36062 8.31253 8.32814 8.31253C8.29547 8.31253 8.27762 8.33215 8.28435 8.36055ZM8.48849 8.36705C8.48849 8.39685 8.57383 8.42783 8.65576 8.42783C8.70233 8.42783 8.70026 8.42038 8.64409 8.38549C8.56737 8.33776 8.48849 8.32839 8.48849 8.36705ZM8.43725 8.45483C8.41015 8.49075 8.59034 8.5573 8.62884 8.52557C8.65064 8.50772 8.62543 8.48618 8.55821 8.46531C8.50069 8.44745 8.44632 8.44273 8.43725 8.45483ZM8.89158 8.56711C8.89158 8.61919 8.82293 8.60967 8.80929 8.55567C8.80175 8.52565 8.81495 8.51244 8.84438 8.52056C8.87031 8.52764 8.89158 8.54859 8.89158 8.56711ZM8.21902 8.57906C8.31485 8.61542 8.33289 8.68661 8.25186 8.70874C8.22611 8.71582 8.20807 8.69591 8.20807 8.66072C8.20807 8.62051 8.18555 8.60067 8.13996 8.60067C8.10254 8.60067 8.06216 8.58769 8.05032 8.5719C8.02044 8.53214 8.1047 8.53575 8.21902 8.57906ZM8.85963 8.79505C8.82132 8.82655 8.79502 8.77646 8.82257 8.72438C8.8486 8.67503 8.85048 8.6751 8.86502 8.72541C8.87336 8.75441 8.87094 8.78576 8.85963 8.79505ZM8.17191 8.76975C8.17128 8.77978 8.1353 8.80914 8.09204 8.83496C8.02286 8.87612 7.98122 8.80295 8.02995 8.72586C8.0382 8.71273 8.1728 8.75433 8.17191 8.76975ZM8.43007 8.83599C8.4569 8.87096 8.45394 8.89685 8.41922 8.93123C8.37659 8.97342 8.27815 8.86971 8.27815 8.78258C8.27815 8.75079 8.39669 8.79247 8.43007 8.83599ZM8.1379 9.06623C8.1379 9.1051 8.0776 9.09448 8.01738 9.04498C7.93869 8.98028 7.98903 8.93108 8.07131 8.99231C8.10793 9.01953 8.1379 9.0528 8.1379 9.06623ZM8.65001 9.14781C8.34734 9.41383 8.41984 9.64863 8.87004 9.86042C8.95897 9.90225 9.03686 9.9395 9.04323 9.94312C9.04951 9.9468 8.98418 10.0032 8.89813 10.0684C8.70125 10.2176 8.64266 10.3249 8.69318 10.444C8.74675 10.5704 8.65396 10.5613 8.57984 10.4329C8.51344 10.318 8.53462 10.2521 8.7017 10.0524L8.80947 9.92364L8.57993 9.73671C8.41868 9.60548 8.33738 9.51371 8.30669 9.42828L8.2629 9.30671L8.25069 9.40084C8.24405 9.45263 8.262 9.53363 8.29072 9.58091C8.35954 9.69437 8.31109 9.69179 8.22907 9.57759C8.10613 9.40652 8.2148 9.19746 8.51039 9.0365C8.7778 8.89088 8.86412 8.95963 8.65001 9.14781ZM8.83971 9.20469C8.69865 9.43197 8.75276 9.5728 9.0243 9.68463C9.3573 9.82184 9.41168 9.92822 9.24208 10.1109C9.19389 10.1629 9.15441 10.2196 9.15441 10.237C9.15441 10.2544 9.13871 10.2766 9.11941 10.2864C9.04529 10.3241 9.08917 10.2173 9.1912 10.1118C9.36654 9.93035 9.3328 9.84825 9.03192 9.72454C8.68447 9.58165 8.60766 9.41589 8.78767 9.19812C8.90369 9.05774 8.92891 9.06091 8.83971 9.20469ZM22.177 9.52522C21.9927 9.56918 21.8509 9.8734 21.9833 9.94061C22.0491 9.97403 22.0184 10.0045 21.8149 10.1078C21.1813 10.4293 20.5639 11.1822 19.4724 12.9645C18.5695 14.439 18.0629 15.1994 17.5223 15.8911C16.9764 16.5899 17.0248 16.5077 17.0854 16.632C17.1571 16.7791 17.675 17.6489 17.6909 17.6489C17.6978 17.6489 17.8018 17.5354 17.9218 17.3968C18.4942 16.7359 19.0435 15.8804 19.666 14.6806C20.2161 13.6205 20.461 13.2977 20.7154 13.2977C20.8413 13.2977 20.8544 13.3338 20.7742 13.4601C20.6261 13.6937 20.8896 13.8352 21.197 13.6871C21.5823 13.5014 21.5713 13.066 21.1771 12.8998C20.7948 12.7387 20.4397 12.9263 20.0974 13.4706C19.766 13.9972 20.3595 12.2817 20.7597 11.556C21.1978 10.7616 21.8865 10.0356 22.1595 10.0805C22.3013 10.1039 22.496 10.0499 22.5776 9.96458C22.7884 9.74424 22.5152 9.44459 22.177 9.52522ZM8.93932 10.221C8.88431 10.3901 8.96498 10.5162 9.19039 10.6135C9.29853 10.6602 9.31782 10.6758 9.25249 10.6637C8.86017 10.5911 8.68223 10.3182 8.89894 10.1213C8.97853 10.049 8.98786 10.072 8.93932 10.221ZM11.2577 10.5679C11.2577 10.6039 11.2196 10.6793 11.173 10.7357C10.9871 10.9606 11.127 11.0263 11.4137 10.8488C11.6099 10.7274 11.9408 10.589 12.0352 10.589C12.0886 10.589 12.0221 10.6352 11.8254 10.7347C11.6263 10.8355 11.4956 10.9267 11.4022 11.0301C11.3279 11.1124 11.2337 11.2041 11.1931 11.234C11.1524 11.2639 11.1276 11.2995 11.1379 11.3132C11.1482 11.3269 11.1011 11.3382 11.0332 11.3382C10.7625 11.3382 10.7738 10.9372 11.0514 10.6896C11.1263 10.6228 11.1876 10.5534 11.1876 10.5353C11.1876 10.5173 11.2033 10.5026 11.2226 10.5026C11.2419 10.5026 11.2577 10.5319 11.2577 10.5679ZM12.3436 10.697C12.341 10.7722 11.4637 11.1363 11.4371 11.0733C11.4178 11.0277 11.5569 10.9494 11.8185 10.8586C11.9438 10.8151 12.0937 10.7561 12.1515 10.7276C12.2613 10.6734 12.3448 10.6601 12.3436 10.697ZM12.3643 10.9326C12.2545 11.0323 12.0389 11.1396 11.8657 11.1808C11.6572 11.2304 11.697 11.2004 12.099 11.0056C12.3849 10.8669 12.459 10.8466 12.3643 10.9326ZM8.67774 11.014C8.66177 11.0735 8.64903 11.1707 8.64921 11.2302C8.64974 11.3538 8.61466 11.3644 8.49953 11.2755C8.38907 11.1902 8.39768 11.1136 8.53049 11.001C8.67693 10.8767 8.71363 10.88 8.67774 11.014ZM8.85183 11.118C8.83603 11.2126 8.84671 11.2634 8.89499 11.324C8.95807 11.4031 8.95798 11.4039 8.88996 11.374C8.71058 11.2951 8.68465 11.2371 8.77196 11.1095C8.87211 10.963 8.87758 10.9636 8.85183 11.118ZM12.2567 11.1518C12.126 11.24 11.9337 11.3169 11.8805 11.3024C11.848 11.2935 12.2844 11.0862 12.3443 11.0821C12.354 11.0814 12.3145 11.1129 12.2567 11.1518ZM10.6822 11.2922C10.6699 11.3461 10.6744 11.4434 10.6922 11.5083C10.7301 11.6472 10.6858 11.6667 10.6302 11.5356C10.5827 11.4238 10.5818 11.3634 10.6259 11.268C10.6748 11.1623 10.7086 11.1768 10.6822 11.2922ZM11.2197 11.6159C11.2277 11.6217 11.1607 11.6264 11.0708 11.6264C10.9808 11.6264 10.9072 11.6146 10.9072 11.6003C10.9072 11.5768 11.1844 11.5907 11.2197 11.6159ZM8.53785 11.863C8.50105 11.9302 8.40952 12.0502 8.33442 12.1299L8.19775 12.2747L8.32688 12.1744C8.44497 12.0826 8.65396 11.7815 8.61923 11.753C8.61125 11.7465 8.57455 11.796 8.53785 11.863ZM11.3314 12.3215C11.2931 12.3751 11.1573 12.6133 11.0294 12.851C10.9015 13.0888 10.7083 13.4195 10.6 13.5858C10.4918 13.7522 10.3826 13.9208 10.3575 13.9605C10.2659 14.1047 10.3152 13.9566 10.4886 13.5668C10.7036 13.0836 10.9219 12.7238 11.1808 12.4262C11.3776 12.1999 11.4581 12.1439 11.3314 12.3215ZM2.86258 13.0638C1.50705 13.4679 0.576329 15.28 1.19577 16.3089C1.73444 17.2037 2.60908 17.2713 3.82651 16.5125C5.13027 15.6999 6.28659 15.2844 7.84007 15.0701C8.72674 14.9477 8.71256 14.9513 8.86448 14.8158C9.06683 14.6353 9.82051 13.6825 9.82051 13.6071C9.82051 13.5933 9.7279 13.6769 9.61475 13.7929C8.99908 14.4235 8.51209 14.6421 6.9053 15.009C5.74997 15.2728 5.03281 15.5758 3.7943 16.3237C3.61277 16.4333 3.35119 16.5689 3.21318 16.625C1.20635 17.4402 0.40673 14.6789 2.38941 13.7803C3.05498 13.4786 3.81332 13.4841 3.96874 13.7916C4.02052 13.8942 3.99809 14.0211 3.92298 14.0512C3.88924 14.0647 3.83495 14.0863 3.80237 14.0994C3.65584 14.1579 3.78066 14.3062 3.97646 14.3062C4.23193 14.3062 4.40656 14.0877 4.37874 13.8026C4.32203 13.2218 3.56691 12.8539 2.86258 13.0638ZM13.0977 15.0987C13.1284 15.4632 13.184 16.0403 13.2214 16.381C13.329 17.3617 13.3766 17.9594 13.3452 17.9335C13.289 17.8874 13.0582 15.8627 13.0285 15.1563C13.0179 14.9027 13.0028 14.585 12.9949 14.4503C12.9656 13.9516 13.0414 14.4297 13.0977 15.0987ZM11.5351 14.3971C10.9741 16.0223 9.6248 17.516 8.19174 18.0978C7.67944 18.3059 7.65252 18.295 8.11735 18.0677C9.51972 17.382 10.6463 16.193 11.3849 14.6192C11.5577 14.2512 11.6144 14.1673 11.5351 14.3971ZM11.642 14.8168C11.2344 16.1618 10.4968 17.3947 9.68331 18.0913C9.36116 18.3671 9.18429 18.469 9.40172 18.2534C10.2141 17.4483 11.1468 15.9485 11.6299 14.6707C11.7232 14.4241 11.7312 14.5225 11.642 14.8168ZM11.8892 16.1131C11.6661 17.1203 11.2725 18.0812 10.959 18.3837L10.8694 18.4701L10.9374 18.3546C11.2047 17.9005 11.632 16.8378 11.838 16.1148C11.9152 15.8437 11.949 15.8426 11.8892 16.1131ZM12.5894 17.087C12.5457 17.4255 12.433 17.9323 12.3947 17.9622C12.3821 17.9721 12.3814 17.9284 12.3935 17.865C12.4279 17.6831 12.5485 16.8798 12.5794 16.6259L12.6075 16.3954L12.619 16.5827C12.6253 16.6857 12.6121 16.9127 12.5894 17.087ZM20.121 16.4823C19.2159 16.7202 18.8774 17.4696 19.1515 18.6287C19.4965 20.0876 18.734 21.4056 17.0259 22.303C16.6321 22.51 15.9307 22.7586 16.1869 22.6005C17.5458 21.7616 17.3174 20.3 15.8272 20.3C14.497 20.3 12.0868 21.7107 12.8818 22.0239C12.9654 22.0569 12.9914 22.0558 13.065 22.0161C13.149 21.9709 13.1508 21.9716 13.1508 22.0518C13.1508 23.0175 15.0601 23.3158 16.7713 22.6174C18.627 21.86 19.9367 20.2491 20.3894 18.1676C20.4691 17.8011 20.5771 17.3973 20.6383 17.2364C20.6568 17.188 20.6474 17.1886 20.5135 17.2448C20.0768 17.4279 19.8518 17.8111 19.6173 18.7709C19.5725 18.9541 19.5346 19.0748 19.5331 19.0391C19.5316 19.0033 19.4841 18.8218 19.4276 18.6357C19.0704 17.4596 19.3117 16.8445 20.2269 16.5977C20.9612 16.3997 21.7388 16.8798 21.5292 17.4018C21.4811 17.5217 21.4939 17.5178 21.3405 17.4577C21.0142 17.3298 20.6974 17.66 20.9484 17.8663C21.2391 18.1053 21.725 17.7319 21.7185 17.2743C21.7102 16.6843 20.8933 16.2793 20.121 16.4823ZM3.14318 16.9721C2.66849 17.2351 2.28057 17.283 1.97861 17.1158C1.6255 16.9203 1.34347 17.0918 1.53012 17.3885C1.78281 17.7903 2.29654 17.6772 3.14318 17.0334C3.3861 16.8487 3.3861 16.8375 3.14318 16.9721ZM11.6292 19.0444L11.6925 19.1324L11.5453 19.0366C11.4644 18.9839 11.398 18.9364 11.398 18.9311C11.398 18.7955 11.4787 18.835 11.6292 19.0444ZM11.363 19.0249C11.363 19.0526 11.3236 19.113 11.2754 19.159C11.2249 19.2072 11.1867 19.2806 11.1854 19.3319C11.1831 19.4161 11.1809 19.4175 11.1455 19.3573C11.1034 19.2855 11.1489 19.167 11.2652 19.0453C11.3457 18.9611 11.363 18.9575 11.363 19.0249ZM11.7387 19.8363C11.7827 19.89 11.8355 19.9848 11.8558 20.0468C11.8761 20.1088 11.9014 20.1781 11.912 20.2009C11.9277 20.2346 11.884 20.2424 11.6784 20.2424H11.4255L11.4385 20.0302C11.4579 19.7139 11.5759 19.6377 11.7387 19.8363ZM11.2801 20.0635L11.3029 20.2424H11.0623C10.8363 20.2424 10.8263 20.2396 10.8982 20.1982C10.9403 20.174 11.0262 20.0835 11.089 19.9971C11.2228 19.8132 11.2495 19.8225 11.2801 20.0635ZM16.0001 20.6598C16.9186 20.8565 16.9654 21.4869 16.1135 22.1888C14.9579 23.1408 13.2392 23.0471 13.2961 22.0352C13.3448 21.169 14.836 20.4106 16.0001 20.6598Z"/>
</svg>
