<svg width="24" height="24" viewBox="0 0 24 24" fill="none" xmlns="http://www.w3.org/2000/svg">
<path fillRule="evenodd" clipRule="evenodd" d="M18.3983 1.06707C18.2497 1.14168 18.2052 1.14598 18.0268 1.10309L17.8979 1.07198L17.7396 1.20175C17.6475 1.27726 17.5813 1.3525 17.5813 1.38167C17.5813 1.40924 17.5696 1.43183 17.5553 1.43183C17.5411 1.43183 17.5294 1.42158 17.5294 1.4091C17.5294 1.38091 17.398 1.31634 17.3796 1.33546C17.3723 1.34315 17.3854 1.41361 17.4089 1.4921C17.4322 1.5706 17.4613 1.71158 17.4733 1.80546C17.4929 1.95781 17.5059 1.98531 17.5935 2.06069C17.7922 2.23154 17.8369 2.4673 17.7131 2.69025C17.5241 3.03028 16.2576 4.37287 15.9858 4.52127C15.5592 4.75426 15.151 4.81003 14.8811 4.67223C14.8012 4.63149 14.73 4.59817 14.7227 4.59817C14.7153 4.59817 14.7014 4.71692 14.6917 4.86199C14.666 5.24511 14.5816 5.97942 14.5066 6.47312C14.3528 7.48476 13.9754 9.11985 13.9428 8.91637C13.9316 8.84633 13.863 8.63461 13.7904 8.44589C13.3959 7.42005 13.2761 6.85749 13.2759 6.02847L13.2757 5.55092L13.0747 5.69107C12.9641 5.76818 12.7278 5.89622 12.5495 5.97554C11.9667 6.23493 11.7238 6.37786 11.5286 6.57648L11.3507 6.75751L11.2358 6.70451C10.8884 6.54413 10.6459 5.88222 10.7967 5.50561C10.8356 5.40855 10.8433 5.40474 11.1837 5.31744C11.3867 5.26534 11.4441 5.2095 11.422 5.08563C11.3877 4.89324 11.39 4.57108 11.4259 4.54004C11.4886 4.48566 11.4615 4.44056 11.3072 4.34273C11.2231 4.28945 11.1481 4.2307 11.1406 4.21228C11.1332 4.19378 11.0871 4.07406 11.0383 3.94624C10.8477 3.44672 10.7279 3.34523 10.3114 3.33019C9.68263 3.30761 9.24911 3.62997 9.17189 4.1775C9.16664 4.21456 9.13504 4.2368 9.06658 4.25163C8.70298 4.33047 8.61215 4.84848 8.90868 5.15207C9.0855 5.33303 9.2341 5.36892 9.41285 5.2738L9.5163 5.21872L9.63847 5.27511C9.94504 5.41665 10.0291 5.70985 9.89032 6.15429C9.80341 6.43273 9.73455 6.50138 9.50182 6.5415C9.38888 6.56103 9.19387 6.61888 9.06844 6.67008C8.94308 6.72128 8.73837 6.80483 8.61354 6.85576C8.18102 7.03214 7.76397 7.10115 7.16757 7.09505C6.6816 7.09006 6.59389 7.09748 5.7799 7.21241C4.60723 7.37799 4.61613 7.3728 4.55836 7.92677C4.49137 8.56948 4.4427 8.64389 3.98308 8.8067C3.85865 8.85083 3.7568 8.89621 3.7568 8.90758C3.7568 8.94651 4.00433 8.92822 4.185 8.87598C4.41189 8.81031 4.40956 8.80587 4.28314 9.06401C4.22498 9.18283 4.18693 9.28003 4.19855 9.28003C4.27052 9.28003 4.45372 9.08396 4.53851 8.9161C4.66706 8.66177 4.79229 8.52702 4.8387 8.59318C4.88757 8.66294 4.87821 8.94533 4.82124 9.11757L4.77204 9.26631L4.88412 9.14251C5.01851 8.99411 5.07129 8.79797 5.02555 8.61701C4.95244 8.32776 4.95211 8.32783 5.17886 8.56671C5.38888 8.788 5.39479 8.77275 5.2598 8.35887C5.20044 8.17694 5.14553 7.95469 5.13769 7.86497L5.12355 7.70188L5.33795 7.72059C5.45594 7.73084 5.78156 7.76929 6.06163 7.80601C6.59867 7.8764 6.85862 7.88672 7.05084 7.84515C7.20276 7.81238 8.97986 7.5751 9.07375 7.5751C9.38642 7.5751 10.1029 8.22218 10.0304 8.43917C10.0047 8.51593 9.99716 8.52085 9.95925 8.48586C9.93594 8.46432 9.84683 8.43917 9.76124 8.42995L9.60561 8.41319L9.67698 8.47C9.76576 8.54073 9.77346 8.68948 9.69644 8.84702C9.62108 9.0011 9.63024 9.05514 9.77293 9.29707C9.96715 9.62629 10.0163 9.64133 10.2946 9.45635C10.5171 9.3085 10.609 9.33331 10.8447 9.60503C11.3296 10.1641 11.319 10.5319 10.7982 11.2286C10.4019 11.7588 10.2303 12.1482 10.1365 12.7306C10.0612 13.1979 9.5169 13.9806 8.84049 14.5942C8.65424 14.7631 8.77934 14.6843 9.1517 14.398C9.69405 13.9811 10.1174 13.484 10.5119 12.8008C11.7432 10.6686 11.8741 10.0274 11.2162 9.35042L11.0329 9.16177L11.2001 9.25474C12.0774 9.74234 12.1007 10.7566 11.2723 12.3923C9.32925 16.2287 7.52354 18.2014 5.1286 19.104C3.78176 19.6117 2.19802 19.5944 1.21498 19.0614L1.0464 18.9701L1.21498 19.1325C2.55126 20.4198 4.51613 20.774 6.169 20.0256C7.63124 19.3634 8.8209 17.9939 9.96708 15.6533C10.174 15.2308 10.3639 14.8145 11.2075 12.9335C11.674 11.8934 11.8721 11.496 11.8738 11.5971C11.8778 11.8458 11.7171 12.4809 11.4603 13.2312C11.3865 13.447 11.1924 14.0255 11.029 14.5167C10.1964 17.0195 9.82114 17.8147 9.00489 18.8056C7.58635 20.5278 5.25084 21.4269 3.13431 21.0655C2.99049 21.0409 3.38403 21.2457 3.707 21.3634C6.70451 22.4565 9.51982 20.8957 10.7364 17.4665C10.805 17.273 10.8617 17.1254 10.8624 17.1383C10.8653 17.1947 10.7305 17.8387 10.6711 18.0521C10.0561 20.2642 8.14204 21.9475 5.89351 22.2538L5.63728 22.2886L5.85918 22.3093C7.3017 22.4431 9.33941 21.5215 10.6222 20.155L10.8088 19.9563L10.9244 19.5368C11.2368 18.4042 11.3433 17.6012 11.4342 15.6939C11.5111 14.0816 11.5832 13.2838 11.6934 12.8253C11.8022 12.3723 11.8488 12.1922 11.9948 11.6616L12.1475 11.1068L12.1636 11.621C12.2517 14.4439 14.0171 17.3566 16.4453 18.6854C16.8466 18.9049 16.8734 18.9171 16.7613 18.8278C15.9559 18.1866 14.9182 17.0626 14.4979 16.3761L14.4102 16.2329L14.7144 15.5981C14.8817 15.249 15.0299 14.9706 15.0437 14.9796C15.0575 14.9884 15.1344 15.0889 15.2146 15.2028C16.4683 16.9836 17.1572 17.9011 19.4534 20.8472C19.8108 21.3058 19.7602 21.2919 20.0018 20.9986C20.245 20.7034 20.2172 20.7041 20.3529 20.9896C20.5478 21.3997 21.1352 22.2741 21.2537 22.3303C21.4342 22.4162 21.4769 22.2558 21.4445 21.6144C21.4322 21.3723 21.4217 21.1529 21.4211 21.127C21.4205 21.101 21.3619 21.0402 21.2907 20.9917L21.1615 20.9035L21.1611 20.7035L21.1606 20.5036L21.2877 20.5192L21.4148 20.535L21.4312 20.3269C21.4626 19.9288 21.459 19.9225 21.15 19.833C20.8896 19.7574 20.8846 19.7528 20.967 19.6602C21.055 19.561 21.0923 19.6189 20.4341 18.8325C19.4567 17.6647 19.0542 17.1803 18.8152 16.8847C18.3876 16.3557 18.075 16.0062 17.7808 15.7275L17.4877 15.4499L17.308 14.9833C17.1034 14.4521 16.7884 13.77 16.5353 13.3099L16.3626 12.9961L16.379 12.3356C16.4047 11.3015 16.3392 10.987 15.9351 10.2065C15.6369 9.63024 15.5964 9.50679 15.6361 9.29437C15.7221 8.83393 16.346 6.81148 16.5295 6.39781C16.652 6.122 16.5545 6.1793 17.6332 5.74879C18.3406 5.46647 19.6 4.93709 19.8407 4.82091C20.4189 4.54191 20.3817 4.28661 19.564 2.92026C19.3457 2.55556 19.1508 2.23431 19.1307 2.20625C19.0962 2.1581 19.0872 2.16323 18.9667 2.29957C18.8966 2.37897 18.7313 2.56506 18.5993 2.71304C18.3131 3.03409 18.319 2.95511 18.5529 3.33199C18.7382 3.63053 18.9548 4.02307 18.9556 4.06173C18.9564 4.1042 18.0942 4.41901 17.296 4.66773C17.032 4.74996 16.8017 4.82229 16.7841 4.82846C16.7665 4.83463 16.8332 4.74179 16.9323 4.62214C17.0313 4.50249 17.2148 4.23812 17.3399 4.03457C17.465 3.83102 17.7006 3.45746 17.8634 3.20445C18.0261 2.95137 18.1854 2.68609 18.2173 2.6148L18.2753 2.48524L18.3444 2.57087C18.3823 2.61792 18.4161 2.65186 18.4195 2.64625C18.4229 2.64071 18.5163 2.53014 18.6272 2.40065L18.8288 2.16517L18.7264 2.05834C18.667 1.99633 18.6167 1.91347 18.6064 1.86082C18.5968 1.81093 18.5415 1.66434 18.4836 1.53499L18.3783 1.29992L18.4596 1.17175C18.5293 1.06208 18.5588 0.994529 18.5345 1.00035C18.5309 1.00125 18.4696 1.03125 18.3983 1.06707ZM13.254 1.96141C12.3471 2.21595 11.8293 2.74803 12.2496 2.99349C12.2811 3.01192 12.3181 3.10607 12.3602 3.27518C12.3951 3.41485 12.4359 3.57863 12.4509 3.63912C12.4716 3.72239 12.4687 3.80775 12.4388 3.99092C12.3924 4.27594 12.3878 4.26223 12.5362 4.28551C12.6444 4.30241 12.6532 4.30975 12.6532 4.38333C12.6532 4.42705 12.6643 4.46286 12.6777 4.46286C12.7027 4.46286 12.7383 4.52383 12.83 4.72405C12.9096 4.89781 13.0282 4.90204 13.2955 4.74061L13.406 4.67382L13.4541 4.7916C13.4805 4.85638 13.5096 4.93169 13.5186 4.95892C13.5277 4.98614 13.5818 5.02757 13.6388 5.05099C13.8065 5.11965 13.7766 5.17791 13.5844 5.15692C13.3958 5.13634 13.3018 5.15623 13.3013 5.21678C13.301 5.2544 13.3667 5.59512 13.3945 5.70015C13.3998 5.72045 13.486 5.67625 13.6183 5.58528C13.8583 5.42026 13.8519 5.42157 14.1558 5.47734C14.4214 5.52612 14.3952 5.56485 14.3718 5.15824L14.3521 4.81668L14.1308 4.95933C13.8704 5.1272 13.8278 5.14674 13.8051 5.10835C13.7839 5.07261 14.1505 4.68512 14.3775 4.50346C14.4852 4.41721 14.5423 4.3534 14.5348 4.32756C14.5283 4.30518 14.4989 4.21616 14.4692 4.12969C14.4059 3.9452 14.3989 3.77719 14.4287 3.16385C14.4756 2.19981 14.0298 1.74359 13.254 1.96141ZM6.16449 3.62173C5.94437 3.6962 5.76569 3.87897 5.64412 4.15408C5.57526 4.30975 5.55587 4.96716 5.61703 5.07177C5.64478 5.1193 5.64877 5.1105 5.64943 4.99875C5.65195 4.59 5.93169 4.083 6.1949 4.00998C6.57151 3.90557 6.73664 4.43342 6.39615 4.65325L6.31162 4.70784L6.42835 4.68969C6.87847 4.61999 7.08789 4.21616 6.8555 3.86622C6.71759 3.65858 6.39396 3.54406 6.16449 3.62173ZM3.08245 5.15235C1.82273 5.37529 1.1033 6.40993 1.25469 7.781L1.27527 7.9675L1.3092 7.7652C1.68163 5.54559 3.67858 4.98268 6.30047 6.35818C6.56182 6.49529 6.54741 6.46771 6.22537 6.21463C5.14646 5.36663 4.02106 4.98621 3.08245 5.15235ZM13.8045 5.88174C13.7787 5.95199 13.8149 6.00997 13.8786 6.00055C13.9215 5.99418 13.9371 5.97381 13.9371 5.92427C13.9371 5.84432 13.8308 5.81031 13.8045 5.88174ZM20.4603 5.88215C20.4603 5.8888 20.539 5.93778 20.6354 5.99106C21.9101 6.69585 22.4801 8.08313 21.9399 9.16599C21.3412 10.3664 19.646 10.6769 19.0107 9.70278C18.5623 9.01503 19.129 8.16738 19.8207 8.49127C20.1432 8.64223 20.3359 9.09172 20.2143 9.40945L20.1758 9.51004L20.2798 9.38832C20.8899 8.67368 20.5787 7.6962 19.7298 7.66066C18.7063 7.61778 17.8939 8.79326 18.2273 9.83483C18.7712 11.5339 21.0095 11.5447 22.116 9.85347C23.1723 8.23902 22.5341 6.40702 20.751 5.93508C20.4989 5.86836 20.4603 5.86137 20.4603 5.88215ZM15.7661 6.22024C15.7092 6.44083 15.5712 6.54621 15.1955 6.65616C14.9845 6.71782 14.9895 6.73126 15.115 6.44049C15.1733 6.30539 15.221 6.18304 15.221 6.1687C15.221 6.15429 15.2617 6.16759 15.3114 6.19821C15.4289 6.27054 15.5822 6.24726 15.697 6.13981C15.7917 6.05113 15.8056 6.06727 15.7661 6.22024ZM2.87031 6.47589C2.31428 6.71449 2.18527 7.34418 2.59694 7.81024C2.96519 8.22703 3.62679 8.15214 3.838 7.6698C3.93302 7.45268 3.88023 7.07018 3.73834 6.94804C3.70089 6.91589 3.69969 6.91832 3.72665 6.97118C3.83747 7.18816 3.70049 7.539 3.46491 7.64168C2.79103 7.9355 2.42683 6.82527 3.07913 6.46563L3.17322 6.41374L3.0954 6.41319C3.05264 6.41291 2.95131 6.44111 2.87031 6.47589ZM13.8204 6.77754C13.8204 6.8597 13.8874 6.89428 13.9401 6.83934C13.9919 6.78523 13.9582 6.70909 13.8825 6.70909C13.8334 6.70909 13.8204 6.72336 13.8204 6.77754ZM12.6335 7.79777C13.232 9.40127 13.2348 9.41125 13.1984 9.80005C13.1177 10.6632 13.1388 11.7085 13.2503 12.3734L13.3011 12.6764L13.1917 12.9844L13.0823 13.2924L12.9859 12.795C12.9329 12.5214 12.8475 11.9507 12.7961 11.5268C12.6236 10.1013 12.457 8.98129 12.3596 8.59062C12.3272 8.4612 12.329 8.44984 12.4045 8.29299C12.5143 8.06512 12.5131 7.88942 12.4003 7.65436L12.3167 7.48032L12.3867 7.42067C12.4742 7.34599 12.4523 7.31238 12.6335 7.79777ZM13.8391 7.76354C13.8318 7.79271 13.8406 7.8295 13.8587 7.84515C13.9086 7.88839 13.976 7.84813 13.976 7.77518C13.976 7.69121 13.8596 7.68137 13.8391 7.76354ZM1.65594 8.15629C1.65594 8.20354 1.90759 8.69017 2.00612 8.83351C2.7644 9.93626 4.21475 10.342 5.67068 9.85859C5.93169 9.77192 5.9305 9.76271 5.66278 9.79866C4.34715 9.97547 2.50266 9.25363 1.7554 8.2695C1.70069 8.19745 1.65594 8.14653 1.65594 8.15629ZM22.8706 9.79153C22.2264 11.053 20.526 12.3232 18.7567 12.8645C18.6943 12.8837 18.6965 12.9266 18.7341 12.4275L18.7457 12.2732L18.2089 12.8508C17.9136 13.1685 17.6687 13.4372 17.6646 13.4478C17.6605 13.4585 17.7831 13.4757 17.9369 13.4862C18.2867 13.5099 18.987 13.5768 19.1231 13.5996L19.2254 13.6166L19.1101 13.475C19.0467 13.397 18.9685 13.2992 18.9363 13.2575L18.8778 13.1816L19.2087 13.0674C20.9288 12.4733 22.2049 11.3803 22.8416 9.95586C23.0404 9.51143 23.0544 9.43168 22.8706 9.79153ZM4.6229 10.6356C3.39054 10.8506 2.77555 12.1178 3.50136 12.9464C4.15884 13.697 5.28656 13.0505 5.03464 12.0675L5.01034 11.9728L4.96831 12.1217C4.7806 12.7865 3.80115 12.6505 3.79783 11.9593C3.79604 11.586 4.09032 11.2695 4.55418 11.1457C5.06997 11.008 5.66284 11.0923 6.88226 11.4765C7.16757 11.5664 7.54392 11.6844 7.71862 11.7387C7.89325 11.7931 8.03627 11.8456 8.03634 11.8556C8.0364 11.8656 7.97863 11.9782 7.90792 12.106C7.83727 12.2337 7.78767 12.3381 7.7977 12.338C7.80772 12.3379 8.13109 12.2589 8.51627 12.1623C8.90145 12.0658 9.23703 11.9867 9.26199 11.9866C9.35004 11.9861 9.30322 11.9385 8.88624 11.6055C8.65464 11.4205 8.367 11.1867 8.24695 11.086C7.98634 10.8672 8.00453 10.8571 8.06236 11.188C8.11913 11.5125 8.13062 11.4956 7.91436 11.405C6.38944 10.7663 5.31418 10.5149 4.6229 10.6356ZM11.9459 13.0147C11.8694 13.9602 11.9472 15.0993 12.2017 16.7629C12.2655 17.1796 12.3525 17.7642 12.3949 18.0619C12.4373 18.3596 12.4783 18.6347 12.486 18.6733L12.4999 18.7434L12.7127 18.6543C12.9887 18.5386 13.3402 18.4413 13.6316 18.3997L13.864 18.3666L13.6636 18.0519C12.8082 16.7082 12.142 14.708 11.9857 13.0147L11.9646 12.7847L11.9459 13.0147ZM9.25548 13.1401C8.88166 13.3867 8.19397 13.7102 7.66032 13.8905C6.54734 14.2663 5.68608 14.335 4.1848 14.1673C2.29071 13.9558 1.33809 14.4023 1.05576 15.6339C0.706367 17.1582 2.03667 18.5525 3.99025 18.7094L4.1848 18.725L3.93408 18.6338C2.3091 18.0423 1.34147 16.6746 1.81503 15.6388C2.1103 14.9931 2.64455 14.8233 3.91244 14.9719C6.27544 15.2489 7.66849 14.8034 9.19812 13.2815C9.46152 13.0194 9.46989 12.9987 9.25548 13.1401ZM19.9573 14.411C19.5635 14.5104 19.2572 14.8504 19.2039 15.2474L19.1894 15.3556L19.2299 15.2636C19.4322 14.8051 19.9883 14.6696 20.3404 14.9931C20.964 15.5657 20.358 16.6049 19.4488 16.5221L19.2801 16.5068L19.4228 16.5613C20.4806 16.966 21.4692 16.3509 21.3389 15.3692C21.2478 14.6821 20.6168 14.2444 19.9573 14.411ZM4.56089 15.7812L4.4182 15.8113L4.53154 15.833C5.1529 15.9515 5.36962 16.8185 4.8468 17.0944C4.39622 17.3323 3.856 16.8326 4.0026 16.3137L4.021 16.2487L3.9797 16.3074C3.5659 16.8954 4.20911 17.7646 4.92741 17.5881C6.15884 17.2856 5.80055 15.5194 4.56089 15.7812ZM14.4536 19.118C13.2919 19.2741 12.4555 19.6955 11.0759 20.8199C9.4011 22.185 8.05772 22.804 6.75258 22.812C6.5156 22.8134 6.57529 22.8456 6.92117 22.9027C8.77051 23.2085 10.398 22.7969 11.9918 21.6205C13.0767 20.8197 13.4668 20.5778 14.0655 20.3345C15.5653 19.7249 17.0765 19.8952 18.8133 20.8696L18.9949 20.9714L18.7614 20.7339C17.5109 19.4613 16.0307 18.9061 14.4536 19.118ZM16.0769 20.7166C16.027 20.7225 15.8752 20.7405 15.7397 20.7566C14.6218 20.8895 13.4803 21.4117 12.3714 22.2975C11.9367 22.6448 11.9347 22.6562 12.3478 22.4332C15.0125 20.9947 17.9314 20.9422 20.492 22.2868C20.7204 22.4067 20.7343 22.4024 20.5536 22.2674C19.2365 21.2833 17.2135 20.5825 16.0769 20.7166Z"/>
</svg>
