<svg width="24" height="24" viewBox="0 0 24 24" fill="none" xmlns="http://www.w3.org/2000/svg">
<path fillRule="evenodd" clipRule="evenodd" d="M11.8511 1.02749C11.107 1.21787 10.4869 1.78899 10.4869 2.55048L10.4249 2.80432H10.1769L9.6188 2.86777C9.18473 3.05815 8.81267 3.37544 8.62665 3.75619C8.62665 3.8831 8.56464 3.8831 8.56464 3.81964L8.00655 3.62927C7.0144 3.4389 6.20827 4.32731 6.45631 5.27918L6.51832 5.40609L6.3943 5.46955C6.20827 5.59647 6.20827 5.59647 6.08425 5.46955L5.89822 5.27918L5.7742 5.0888C5.58818 4.58114 4.72004 4.58114 4.40999 5.0888C4.34798 5.27918 4.34798 5.65992 4.472 5.8503V5.97721L4.65803 6.54834C4.84406 6.73871 4.84406 6.80217 4.72004 6.67525C4.09995 6.10413 3.10779 6.16759 2.4877 6.80217C1.8676 7.43675 1.99162 8.70591 2.67373 9.15011C2.79774 9.21357 2.79774 9.21357 2.73574 9.34049L2.54971 9.84815L2.4877 9.91161C2.11564 9.91161 1.43353 10.5462 1.24751 11.0539C0.937457 11.9423 1.12349 13.2114 1.68157 13.846L1.8676 14.0364C1.92961 14.2902 2.11564 14.544 2.42569 14.671L2.54971 14.8613C2.54971 15.1786 2.79774 15.4959 2.98377 15.4959L3.04578 15.6228L3.35583 15.8767L3.29382 16.1305C3.17458 16.5513 3.21739 17.0029 3.41346 17.3923C3.60953 17.7818 3.94395 18.0797 4.34798 18.2246L4.28597 18.415C3.91392 19.6841 4.72004 20.8898 6.02224 20.9533C6.64234 21.0168 7.13842 20.7629 7.63449 20.1918L7.82052 20.0649L7.6965 20.2553L7.57248 20.3822C7.0144 20.8264 6.89038 21.461 7.38645 21.9052C7.75851 22.2859 8.50263 22.0955 8.75066 21.5879V21.461L8.81267 21.6513C9.30875 23.1109 11.2931 23.4916 12.0372 22.2225C12.0992 22.0955 12.1612 22.0955 12.1612 22.159C12.4712 22.7936 13.4634 23.1743 14.2075 22.9205C14.7656 22.7301 15.1997 22.2859 15.4477 21.6513V21.5879L15.5097 21.6513C15.7577 22.159 16.5639 22.2225 16.9359 21.7782C17.246 21.334 17.184 20.7629 16.6879 20.4456L16.5019 20.2553L16.4399 20.1918L16.5019 20.1283L16.6879 20.3187C17.9281 21.8417 20.4085 20.5725 19.9744 18.6053L19.9124 18.3515C19.8504 18.2246 19.8504 18.2246 20.0984 18.0977C20.8425 17.7169 21.2146 16.892 20.9045 16.1305L20.8425 15.9401L20.9666 15.8132L21.0906 15.6228L21.2766 15.4959C21.5246 15.369 21.6487 15.1152 21.7107 14.8613V14.671C22.0207 14.6075 22.3308 14.2267 22.3308 14.0364L22.4548 13.846C23.0749 13.2114 23.2609 11.9423 22.9509 11.0539C22.7028 10.4827 22.3308 10.102 21.8347 9.97507L21.6487 9.91161V9.72123L21.4626 9.34049L21.4006 9.21357L21.4626 9.15011C22.0827 8.64245 22.2688 7.81749 21.9587 7.18292C21.4626 6.16759 20.1604 5.97721 19.4163 6.80217L19.2923 6.92908V6.80217C19.2923 6.73871 19.2923 6.67525 19.4163 6.61179C19.7264 6.23105 19.7264 5.65992 19.3543 5.27918C19.2303 5.21572 19.2303 5.21572 19.2303 5.02534C19.2303 4.26385 18.2381 3.94656 17.618 4.45422L17.122 5.40609L17.308 5.46955C17.556 5.46955 17.8041 5.65992 17.8661 5.91376C17.9281 6.10413 17.9281 6.10413 17.7421 5.91376L17.494 5.65992L17.37 5.59647H17.246L16.9359 5.53301L16.8739 5.46955C17.122 5.27918 17.122 4.70805 16.8739 4.45422C16.4399 3.8831 15.6337 4.32731 15.5097 5.15226L15.4477 5.27918V5.34263H15.3237V5.27918H15.3857V5.34263L15.3237 5.27918C15.2617 5.21572 15.3237 4.83497 15.4477 4.58114C15.7577 3.8831 16.6879 3.75619 17.0599 4.26385C17.184 4.45422 17.37 4.26385 17.246 4.01002C17.06 3.56581 16.1918 3.4389 15.6957 3.81964C15.6337 3.8831 15.6337 3.8831 15.5717 3.75619C15.5097 3.37544 15.0136 2.93123 14.5796 2.86777L14.4555 2.80432H13.8355V2.6774C13.8355 1.66207 12.8433 0.837119 11.8511 1.02749ZM12.4712 1.40824C12.9053 1.53516 13.3394 1.9159 13.4014 2.23319V2.29665L13.3394 2.23319C12.8433 1.59861 12.1612 1.40824 11.4791 1.78899C11.3551 1.78899 11.107 2.04282 10.921 2.29665L10.797 2.42357L10.859 2.23319C11.107 1.59861 11.7891 1.28132 12.4712 1.40824ZM12.4712 2.10628C12.7193 2.16974 13.0913 2.48703 13.0913 2.6774L13.1533 2.74086V2.80432L13.0913 2.74086L13.0293 2.6774L12.9673 2.61394L12.9053 2.55048C12.6573 2.29665 12.2852 2.16974 11.9752 2.23319L11.7891 2.29665C11.7271 2.23319 11.231 2.6774 11.231 2.74086L11.169 2.80432L11.3551 2.42357C11.6031 2.10628 12.0992 1.97936 12.4712 2.10628ZM12.3472 2.6774C12.5953 2.74086 12.7813 3.05815 12.8433 3.24852C12.8433 3.4389 12.7813 3.4389 12.7193 3.31198C12.5332 2.6774 11.7271 2.74086 11.5411 3.31198C11.5411 3.4389 11.4791 3.4389 11.4791 3.31198C11.4791 2.86777 11.9132 2.55048 12.3472 2.6774ZM10.4249 3.18506C10.735 3.24852 11.045 3.50235 11.169 3.69273C11.231 3.81964 11.169 3.81964 11.107 3.75619C10.673 3.31198 9.92885 3.18506 9.43277 3.4389L9.18473 3.62927L9.12272 3.69273C9.06071 3.69273 9.06071 3.62927 9.18473 3.50235C9.49478 3.18506 9.99086 3.05815 10.4249 3.18506ZM14.4555 3.18506C14.7036 3.24852 14.8896 3.37544 15.0136 3.50235C15.1377 3.62927 15.1377 3.62927 15.0136 3.56581C14.8293 3.47741 14.6432 3.39279 14.4555 3.31198C14.0215 3.24852 13.5874 3.37544 13.2154 3.69273C13.0293 3.8831 12.9673 3.8831 13.0913 3.69273C13.4014 3.31198 13.9595 3.05815 14.4555 3.18506ZM12.2232 3.31198C12.3472 3.37544 12.2852 3.56581 12.0992 3.56581C12.0372 3.56581 11.9752 3.37544 12.0992 3.31198H12.2232ZM10.5489 3.81964L10.983 4.13693H10.921L10.4869 3.8831H9.80483L9.49478 4.01002H9.43277L9.18473 4.26385C9.06071 4.39077 8.9987 4.39077 9.12272 4.20039C9.37076 3.75619 10.1149 3.56581 10.5489 3.81964ZM14.3935 3.69273C14.6416 3.75619 14.9516 3.94656 15.1377 4.20039C15.1997 4.39077 15.1997 4.39076 14.9516 4.13693C14.7036 3.94656 14.3935 3.81964 14.0835 3.8831C13.8355 3.8831 13.6494 3.94656 13.4014 4.07348C13.2154 4.20039 13.2154 4.13693 13.4014 4.01002C13.6494 3.75619 14.0215 3.62927 14.3935 3.69273ZM8.13057 4.01002C8.56464 4.13693 8.87468 4.58114 8.87468 5.0888V5.27918C8.81267 5.27918 8.81267 5.27918 8.87468 5.27918V5.34263C8.81267 5.40609 8.75066 5.27918 8.68866 5.0888C8.56464 4.13693 7.44846 3.81964 7.0144 4.6446L6.95239 5.21572V5.27918L6.89038 5.34263V5.27918C6.76636 5.15226 6.76636 4.83497 6.82837 4.58114C6.95239 4.07348 7.57248 3.81964 8.13057 4.01002ZM12.2232 4.26385C12.4242 4.50583 12.6106 4.76013 12.7813 5.02534C13.0293 5.40609 13.0293 5.40609 12.7813 5.40609H12.5953V5.91376L12.5332 6.61179V6.54834H12.4092V6.48488H12.3472C12.3472 6.54834 12.2852 6.54834 12.3472 6.48488H12.2852C12.2852 6.54834 12.2852 6.54834 12.2852 6.48488H12.2232C12.2232 6.54834 12.2232 6.54834 12.2232 6.48488H12.1612C12.1612 6.54834 12.1612 6.54834 12.1612 6.48488C12.1612 6.42142 12.1612 6.42142 12.1612 6.48488H12.0992L12.0372 6.54834V6.48488H11.9752C12.0372 6.54834 12.0372 6.54834 11.9752 6.48488L11.9132 6.54834C11.9132 6.61179 11.9132 6.61179 11.9132 6.54834L11.8511 6.48488V6.54834L11.7891 6.48488V6.54834H11.7271L11.6651 6.04067V5.40609H11.4791C11.231 5.40609 11.231 5.40609 11.4171 5.0888L11.8511 4.51768C12.1612 4.13693 12.0992 4.13693 12.2232 4.26385ZM10.4249 4.26385L10.797 4.51768H10.735C10.4869 4.39077 9.99086 4.32731 9.92885 4.39077H9.86684C9.68081 4.45422 9.49478 4.6446 9.37076 4.89843C9.24674 5.02534 9.24674 4.96189 9.30875 4.77151C9.43277 4.39076 9.92885 4.13693 10.4249 4.26385ZM14.4555 4.26385C14.7036 4.39077 14.9516 4.6446 14.9516 4.89843L14.8896 4.83497L14.7656 4.70805C14.5176 4.32731 13.8355 4.26385 13.4014 4.58114L13.5254 4.45422C13.7734 4.20039 14.1455 4.13693 14.4555 4.26385ZM8.00655 4.51768L8.3166 4.83497C8.37861 4.96189 8.37861 4.96189 8.25459 4.89843C7.82052 4.45422 7.20043 4.83497 7.51047 5.34263C7.63449 5.53301 7.44846 5.53301 7.32444 5.34263C7.0144 4.83497 7.51047 4.26385 8.00655 4.51768ZM16.6259 4.51768C16.9359 4.70805 16.9359 5.21572 16.6879 5.40609C16.5019 5.53301 16.5019 5.53301 16.6259 5.34263C16.8739 4.89843 16.4399 4.51768 15.9438 4.83497C15.8198 4.96189 15.8198 4.96189 15.8818 4.83497C16.0058 4.51768 16.3158 4.39077 16.6259 4.51768ZM18.4862 4.58114C18.6722 4.6446 18.7962 4.70805 18.7962 4.83497L18.6722 4.77151C18.4862 4.6446 17.9901 4.6446 17.9901 4.77151L17.8661 4.89843C17.7421 5.02534 17.7421 4.96189 17.8661 4.77151C17.9901 4.58114 18.3001 4.51768 18.4862 4.58114ZM10.4869 4.77151L10.611 4.89843C10.2389 4.77151 9.92885 4.83497 9.74282 5.15226V5.02534C9.86684 4.70805 10.2389 4.6446 10.4869 4.77151ZM14.2695 4.77151L14.5176 5.0888V5.15226C14.5176 5.0888 14.3315 4.89843 14.2075 4.89843H13.7114C13.5874 4.96189 13.5254 4.96189 13.6494 4.83497C13.8355 4.70805 14.0835 4.6446 14.2695 4.77151ZM8.19258 4.96189C8.37861 5.0888 8.56464 5.34263 8.56464 5.65992V5.78684L8.50263 5.8503C8.56464 5.8503 8.56464 5.8503 8.50263 5.8503C8.50263 5.78684 8.44062 5.78684 8.50263 5.8503H8.44062L8.37861 5.78684C8.37861 5.72338 8.37861 5.72338 8.37861 5.78684H8.3166L7.88253 5.53301L7.6965 5.40609C7.44846 5.02534 7.75851 4.77151 8.19258 4.96189ZM16.3778 4.96189C16.5019 5.02534 16.5019 5.15226 16.5019 5.27918L16.3158 5.53301C16.1079 5.65773 15.9011 5.78465 15.6957 5.91376C15.4477 5.40609 16.0058 4.70805 16.3778 4.96189ZM5.21612 5.0888L4.78205 5.34263L4.72004 5.40609V5.34263L4.90607 5.0888H5.21612ZM18.4242 5.0888V5.15226H18.3622L18.1141 5.34263H18.0521C18.0521 5.15226 18.3001 5.02534 18.4242 5.0888ZM5.65019 5.46955C5.7742 5.53301 5.83621 5.65992 5.83621 5.78684V5.91376V5.8503C5.7742 5.65992 5.58818 5.53301 5.46416 5.53301L5.0921 5.72338V5.78684H5.03009V5.8503L4.96808 5.91376L4.90607 5.97721H4.84406C4.84406 5.53301 5.34014 5.27918 5.65019 5.46955ZM13.6494 5.46955L13.5874 5.65992C13.3394 5.91376 13.2154 6.23105 13.2154 6.42142H13.0913C13.0293 6.23105 13.1533 5.91376 13.3394 5.72338C13.5254 5.46955 13.8355 5.27918 13.6494 5.46955ZM14.0835 5.59647L13.8975 5.91376L13.5254 6.42142C13.4634 6.67525 13.4634 6.67525 13.4634 6.48488C13.4634 6.23105 13.5874 6.04067 13.8355 5.72338L14.1455 5.40609V5.46955L14.0835 5.59647ZM18.9202 5.46955C19.1683 5.53301 19.4163 5.97721 19.2303 6.04067L19.1063 5.8503V5.72338L18.9822 5.65992H18.9202L18.8582 5.59647H18.7962C18.7342 5.46955 18.4242 5.59647 18.3622 5.78684L18.2381 5.8503C18.2381 5.53301 18.6102 5.27918 18.9202 5.46955ZM10.797 5.59647L11.107 6.04067V6.48488C11.107 6.54834 11.107 6.54834 11.107 6.48488V6.42142L11.045 6.2945L10.735 5.72338L10.611 5.46955L10.797 5.59647ZM6.64234 5.65992H6.58033V5.72338H6.51832L6.3943 5.78684L6.27028 5.97721H6.14626L6.3943 5.59647L6.51832 5.46955L6.58033 5.53301L6.64234 5.65992ZM10.673 6.10413C10.797 6.2945 10.859 6.54834 10.797 6.61179L10.673 6.35796L10.3629 5.91376L10.1149 5.53301C10.1769 5.46955 10.611 5.97721 10.673 6.10413ZM14.4555 5.72338L14.3935 5.78684L14.2075 6.10413C14.0445 6.27918 13.8991 6.47051 13.7734 6.67525C13.7734 6.42142 13.8975 6.23105 14.2695 5.8503L14.4555 5.72338ZM9.86684 5.72338V5.78684H9.92885C9.92885 5.78684 10.2389 6.04067 10.3009 6.23105C10.4249 6.42142 10.5489 6.67525 10.4249 6.67525V6.61179L10.3009 6.42142L10.0529 6.10413L9.80483 5.72338H9.86684ZM7.88253 5.8503C8.13057 5.97721 8.37861 6.23105 8.44062 6.48488V6.54834L8.19258 6.23105C8.04695 6.11096 7.87775 6.02439 7.6965 5.97721H7.20043L7.0144 6.04067L6.95239 6.10413H6.89038C6.89038 6.10413 6.76636 6.10413 6.82837 6.16759H6.70435V6.10413C6.89038 5.8503 7.51047 5.72338 7.88253 5.8503ZM17.0599 5.8503L17.432 6.10413V6.23105C17.494 6.16759 16.9979 5.97721 16.9359 6.04067V5.97721H16.5019L16.3778 6.04067L16.1918 6.10413V6.16759H16.1298L16.0678 6.23105L15.8818 6.48488L15.8198 6.54834C15.8198 6.67525 15.7577 6.61179 15.7577 6.54834C15.8818 5.97721 16.4399 5.65992 17.0599 5.8503ZM9.49478 6.04067C9.86684 6.23105 10.1769 6.73871 10.1149 6.86563C10.1149 6.73871 9.55679 6.16759 9.43277 6.23105V6.16759L9.37076 6.23105H8.93669L8.75066 6.16759L8.9987 6.04067H9.49478ZM15.2617 6.04067C15.4477 6.10413 15.5097 6.16759 15.3857 6.16759H15.0136L14.8276 6.23105H14.7036V6.2945L14.2695 6.67525C14.0835 6.92908 14.0835 6.86563 14.2075 6.61179C14.3935 6.16759 14.9516 5.8503 15.2617 6.04067ZM5.7122 6.10413C5.83621 6.16759 5.7742 6.23105 5.65019 6.23105C5.46416 6.23105 5.21612 6.48488 5.21612 6.61179V6.67525C5.21612 6.73871 5.21612 6.86563 5.15411 6.80217C5.03009 6.61179 5.21612 6.16759 5.46416 6.10413H5.7122ZM18.7342 6.16759C18.9202 6.2945 18.9822 6.54834 18.9202 6.67525V6.80217L18.8582 6.73871V6.54834C18.7962 6.35796 18.6102 6.23105 18.4242 6.16759C18.3001 6.16759 18.3001 6.16759 18.3622 6.10413C18.4862 6.04067 18.6102 6.10413 18.7342 6.16759ZM7.6965 6.35796C7.94454 6.48488 8.13057 6.73871 8.13057 6.92908C8.13057 7.056 8.13057 7.056 8.06856 6.99254V6.92908L8.00655 6.86563L7.94454 6.80217L7.82052 6.67525V6.61179H7.75851C7.75851 6.67525 7.75851 6.67525 7.75851 6.61179H7.6965L7.63449 6.67525H7.6965V6.61179H7.63449L7.51047 6.54834C7.51047 6.48488 7.44846 6.48488 7.51047 6.54834L7.38645 6.48488H7.20043H7.0144C6.95239 6.35796 7.44846 6.2945 7.6965 6.35796ZM17.0599 6.42142L17.122 6.48488H17.0599C17.0599 6.54834 17.0599 6.54834 17.0599 6.48488H16.9979C16.9979 6.54834 16.9979 6.54834 16.9979 6.48488H16.8739L16.8119 6.54834H16.7499C16.7499 6.48488 16.7499 6.48488 16.7499 6.54834H16.6259L16.5639 6.61179H16.5019V6.67525H16.4399L16.3778 6.73871H16.3158V6.80217H16.2538V6.86563H16.1918V6.92908H16.1298V6.99254C16.0678 6.54834 16.6259 6.16759 17.0599 6.42142ZM9.43277 6.48488C9.6188 6.54834 9.80483 6.73871 9.86684 6.92908V6.99254L9.80483 6.92908L9.68081 6.80217C9.6188 6.67525 9.37076 6.54834 9.24674 6.54834L9.18473 6.48488H9.43277ZM15.0756 6.48488H15.0136C14.7656 6.54834 14.3935 6.86563 14.4555 6.92908L14.3935 6.99254V6.92908L14.5176 6.67525C14.6416 6.48488 14.8896 6.42142 15.0756 6.48488ZM3.85191 6.67525C4.28597 6.73871 4.65803 7.056 4.72004 7.43675C4.78205 7.56366 4.78205 7.56366 4.65803 7.43675C3.97593 6.42142 2.4877 6.86563 2.61172 8.13478L2.54971 8.2617V8.19824L2.4877 7.81749C2.4877 7.24637 2.92176 6.73871 3.47985 6.67525H3.85191ZM21.0906 6.80217C21.5246 6.99254 21.8347 7.69058 21.6487 8.00787C21.5866 8.13478 21.5866 8.13478 21.5866 7.94441V7.69058L21.5246 7.56366C21.2766 6.73871 20.0984 6.61179 19.5403 7.37329C19.4783 7.56366 19.4163 7.62712 19.4163 7.50021C19.5403 6.80217 20.4085 6.48488 21.0906 6.80217ZM9.12272 6.86563L9.30875 7.24637C9.30875 7.30983 9.24674 7.30983 9.12272 7.11946L8.9987 6.92908C8.81267 6.73871 8.93669 6.73871 9.12272 6.86563ZM9.55679 6.92908L9.6188 7.11946L9.55679 7.056L9.49478 6.99254L9.43277 6.86563V6.80217L9.55679 6.92908ZM12.8433 6.80217C13.5821 6.90596 14.2927 7.1619 14.9322 7.55454C15.5716 7.94718 16.1267 8.46838 16.5639 9.08665L16.6879 8.89628L16.8119 8.76936L16.7499 8.70591H16.6259V8.64245H16.4399L16.3158 8.76936L16.4399 8.57899V8.2617H16.3778V8.32516L16.3158 8.2617V8.32516H16.4399L16.3778 8.38862C16.3158 8.45207 16.3158 8.45207 16.3778 8.38862H16.1298L16.0678 8.45207L16.3778 8.13478L16.9359 7.56366L17.184 7.37329L17.0599 7.24637C16.9359 7.056 16.9979 7.056 17.618 6.92908C18.3622 6.80217 18.3622 6.80217 18.3001 7.056C18.175 7.4152 18.051 7.77479 17.9281 8.13478L17.8041 8.07133L17.68 7.94441L17.618 8.00787L17.432 8.13478L16.9979 8.64245C16.5639 9.15011 16.5639 9.08665 16.6259 9.21357C16.974 9.77943 17.2256 10.4017 17.37 11.0539C17.6193 12.4207 17.3555 13.8334 16.6313 15.0098C15.9071 16.1862 14.7758 17.0397 13.4634 17.3996C12.6012 17.6248 11.6976 17.6255 10.835 17.4018C9.9724 17.1781 9.17823 16.7371 8.52483 16.1189C7.87144 15.5007 7.37959 14.725 7.09411 13.8625C6.80863 13 6.73859 12.0781 6.89038 11.1808C7.26243 8.95974 9.18473 7.056 11.5411 6.73871L12.8433 6.80217ZM14.8276 6.80217L14.7036 6.99254L14.6416 7.056C14.6416 6.92908 14.7656 6.80217 14.8896 6.73871L14.8276 6.80217ZM15.2617 6.80217L15.1377 7.056C14.9516 7.30983 14.8896 7.30983 14.9516 7.11946L15.1997 6.80217H15.2617ZM6.51832 6.86563C7.26243 7.056 7.20043 7.056 7.20043 7.11946L7.13842 7.24637C7.07641 7.30983 7.20043 7.43675 7.88253 8.07133L8.19258 8.45207H8.13057L7.88253 8.2617V8.32516H7.94454L8.00655 8.38862H7.75851L7.82052 8.45207H7.88253V8.32516V8.38862L7.82052 8.51553H7.75851L7.88253 8.64245C8.00655 8.83282 8.00655 8.83282 7.82052 8.64245L7.63449 8.57899L7.51047 8.51553V8.64245V8.57899H7.57248V8.64245H7.51047L7.57248 8.70591C7.63449 8.76936 7.57248 8.83282 7.51047 8.76936C7.38677 8.68427 7.26275 8.59966 7.13842 8.51553L6.58033 7.94441L6.45631 8.07133C6.27028 8.2617 6.33229 8.2617 6.08425 7.50021C5.83621 6.67525 5.83621 6.73871 6.51832 6.86563ZM8.75066 7.056L8.9987 7.43675L8.81267 7.24637C8.62665 7.056 8.56464 6.99254 8.68866 6.99254L8.75066 7.056ZM15.6337 6.99254L15.5717 7.056L15.4477 7.30983C15.2617 7.50021 15.2617 7.56366 15.2617 7.37329C15.3237 7.18292 15.6337 6.86563 15.6337 6.99254ZM11.6651 7.056L11.045 7.18292C10.2585 7.35725 9.52533 7.72476 8.9086 8.25375C8.29187 8.78274 7.81014 9.45732 7.50498 10.2193C7.19982 10.9813 7.08037 11.8078 7.15695 12.6276C7.23353 13.4474 7.50383 14.2358 7.94454 14.9248C8.49849 15.7749 9.28744 16.4367 10.2106 16.8258C11.1339 17.2149 12.1494 17.3136 13.1277 17.1093C14.106 16.9049 15.0026 16.4069 15.703 15.6787C16.4034 14.9505 16.8758 14.0253 17.0599 13.021C17.1859 12.2472 17.1372 11.454 16.9173 10.7024C16.6975 9.95081 16.3125 9.26067 15.7917 8.68488C15.271 8.10909 14.6283 7.66293 13.913 7.38059C13.1978 7.09825 12.4288 6.98722 11.6651 7.056ZM8.44062 7.30983C8.56464 7.43675 8.68866 7.62712 8.62665 7.69058L8.37861 7.37329C8.19258 7.18292 8.25459 7.11946 8.44062 7.30983ZM15.9438 7.24637V7.30983L15.8198 7.43675L15.6957 7.62712L15.6337 7.69058V7.62712C15.6337 7.43675 15.9438 7.11946 15.9438 7.24637ZM5.21612 7.43675C5.40215 7.5002 5.34014 7.56366 5.21612 7.50021L5.03009 7.37329C4.96808 7.24637 5.03009 7.24637 5.0921 7.30983L5.21612 7.43675ZM7.88253 7.37329L8.25459 7.75404C8.3166 7.94441 8.3166 7.94441 8.06856 7.75404C8.00703 7.62687 7.94502 7.49996 7.88253 7.37329ZM16.6259 7.30983L15.9438 7.94441L16.1918 7.56366C16.3158 7.37329 16.6259 7.24637 16.6259 7.30983ZM19.2303 7.30983C19.2303 7.37329 18.9822 7.56366 18.8582 7.56366V7.50021L19.0443 7.37329C19.1683 7.24637 19.2303 7.24637 19.2303 7.30983ZM3.97593 7.30983L4.28597 7.62712C4.34798 7.75404 4.28597 7.81749 4.09995 7.62712C3.85191 7.37329 3.29382 7.50021 3.23181 7.81749L3.1698 7.94441L3.10779 8.07133V7.94441C3.10779 7.5002 3.54186 7.18292 3.97593 7.30983ZM20.7185 7.37329C20.9666 7.43675 21.0906 7.69058 21.0906 7.88095C21.0906 8.07133 21.0906 8.07133 21.0286 7.88095C20.9045 7.56366 20.4705 7.37329 20.2224 7.56366C20.0984 7.56366 19.9124 7.75404 19.9124 7.81749C19.8504 7.81749 19.9124 7.62712 20.0364 7.50021C20.1604 7.30983 20.5325 7.24637 20.7185 7.37329ZM5.21612 7.75404C5.40215 7.81749 5.46416 7.88095 5.21612 7.88095L4.78205 7.81749C4.72004 7.75404 5.03009 7.69058 5.21612 7.75404ZM19.3543 7.75404C19.4163 7.81749 19.4163 7.8175 19.0443 7.88095C18.7962 7.94441 18.7342 7.94441 18.8582 7.81749C18.9822 7.75404 19.2923 7.69058 19.3543 7.75404ZM3.97593 8.00787V8.07133H3.91392V8.13478H3.7899L3.72789 8.07133C3.72789 8.00787 3.85191 7.94441 3.97593 8.00787ZM20.4705 8.00787V8.13478H20.2844V8.07133H20.2224L20.3465 7.94441L20.4705 8.00787ZM5.21612 8.19824C5.40215 8.2617 5.40215 8.32516 5.21612 8.2617L4.90607 8.19824H5.21612ZM19.2923 8.19824C19.1496 8.24744 19.0048 8.28979 18.8582 8.32516V8.2617L19.2303 8.19824H19.3543H19.2923ZM7.07641 8.95974C7.51047 9.34049 7.51047 9.40394 7.32444 9.27703C7.07641 9.15011 6.58033 8.64245 6.64234 8.57899H6.70435L7.07641 8.95974ZM17.618 8.57899C17.618 8.76936 16.8739 9.40394 16.8119 9.34049L17.556 8.57899H17.618ZM5.03009 8.64245C5.21612 8.70591 5.27813 8.70591 5.0921 8.70591C4.82194 8.67198 4.54788 8.69356 4.28597 8.76936C3.91392 8.83282 3.23181 9.27703 3.10779 9.59432L2.98377 9.72123C2.98377 9.27703 3.7899 8.64245 4.40999 8.64245L4.53401 8.57899L5.03009 8.64245ZM19.9124 8.64245C20.4085 8.70591 20.9045 9.08665 21.0906 9.4674L21.1526 9.72123L21.0906 9.59432L21.0286 9.53086L20.7185 9.21357C20.2844 8.83282 19.7264 8.64245 19.1063 8.70591C18.9202 8.70591 19.0443 8.64245 19.2923 8.64245H19.9124ZM17.7421 9.15011L17.68 9.21357C17.68 9.27703 17.37 9.53086 17.122 9.59432C16.9359 9.65778 16.9359 9.65778 17.122 9.53086C17.34 9.40004 17.5473 9.2515 17.7421 9.08665V9.15011ZM7.0144 9.4674C7.26243 9.59432 7.20043 9.65778 6.95239 9.53086L6.58033 9.21357V9.08665L6.76636 9.27703L7.0144 9.4674ZM5.03009 9.15011L5.52617 9.40394L5.7122 9.59432L5.0921 9.40394L4.84406 9.34049H4.72004C4.67872 9.34233 4.63734 9.34233 4.59602 9.34049L4.53401 9.40394C4.42969 9.41979 4.32622 9.44097 4.22397 9.4674H4.16196L4.09995 9.53086L3.91392 9.65778L3.72789 9.78469V9.84815L3.54186 10.0385L3.47985 10.102L3.41784 10.1654V10.2924H3.35583L3.29382 10.3558V10.2289C3.47985 9.4674 4.28597 8.95974 5.03009 9.15011ZM19.9124 9.21357C20.4085 9.34049 20.9045 9.97507 20.9045 10.3558L20.8425 10.2924C20.7805 10.2924 20.7805 10.2924 20.8425 10.2924L20.7805 10.2289V10.1654L20.6565 10.102C20.5733 9.95923 20.4687 9.83074 20.3465 9.72123L20.2844 9.65778H20.2224L20.1604 9.59432H20.0984V9.53086H20.0364L19.9744 9.4674H19.8504L19.7264 9.40394C19.6644 9.40394 19.6644 9.40394 19.7264 9.40394H19.6644L19.6023 9.34049L19.5403 9.40394L19.3543 9.34049H19.2303L19.1063 9.40394C19 9.4055 18.8949 9.427 18.7962 9.4674L18.6102 9.59432L18.4242 9.65778L18.5482 9.53086C18.8582 9.15011 19.4163 9.0232 19.9124 9.21357ZM17.8041 9.65778L17.308 9.91161C17.122 9.91161 17.122 9.91161 17.432 9.78469C17.5602 9.70668 17.6844 9.62196 17.8041 9.53086H17.8661V9.4674C17.8661 9.53086 17.8661 9.53086 17.8661 9.4674H17.9281L17.8041 9.65778ZM6.58033 9.65778L6.89038 9.84815C7.0144 9.91161 7.07641 9.91161 6.95239 9.91161C6.70435 9.84815 6.33229 9.59432 6.33229 9.53086C6.3943 9.4674 6.3943 9.4674 6.58033 9.65778ZM5.0921 9.65778C5.40215 9.72123 5.83621 10.0385 5.89822 10.2289C5.96023 10.3558 5.7742 10.2924 5.65019 10.1654C5.53295 10.0391 5.382 9.95083 5.21612 9.91161H5.15411L4.59602 9.97507H4.53401L4.34798 10.0385L4.28597 10.102H4.22397V10.1654L4.16196 10.2289H4.09995V10.2924H4.03794V10.3558H3.97593L3.91392 10.4827H3.85191V10.5462C3.85191 10.4827 3.7899 10.5462 3.85191 10.5462L3.7899 10.6731V10.7366L3.72789 10.8V10.8635L3.66588 10.9269C3.72789 10.9269 3.72789 10.9269 3.66588 10.9269L3.60387 10.8C3.60387 10.2924 4.09995 9.72123 4.65803 9.65778H5.0921ZM9.37076 10.102C9.92885 10.9904 9.86684 10.9269 9.92885 10.8L10.611 9.72123C10.673 9.65778 10.921 9.59432 11.045 9.65778H11.107V12.0692H10.5489V10.9269C10.1149 11.5615 9.99086 11.625 9.92885 11.625C9.74282 11.6884 9.74282 11.625 9.43277 11.2442L9.18473 10.8635V11.4346C9.18473 12.1326 9.18473 12.0692 8.87468 12.0692H8.62665V10.8635L8.68866 9.65778H9.06071L9.37076 10.102ZM19.7264 9.72123C20.0984 9.84815 20.4085 10.1654 20.5325 10.6096V10.9269L20.4705 10.8635L20.4085 10.8V10.6731L20.3465 10.5462L20.2224 10.4193H20.1604V10.2924H20.0984V10.2289H20.0364L19.9744 10.1654L19.7884 10.0385L19.7264 9.97507H19.6644L19.6023 9.91161H18.9202L18.6722 10.0385V10.102L18.5482 10.1654C18.3001 10.3558 18.1761 10.2924 18.4242 10.102C18.7962 9.65777 19.2303 9.59432 19.7264 9.72123ZM6.3943 9.97507L6.82837 10.2289L6.3943 10.0385C6.33229 9.97507 6.20827 9.84815 6.33229 9.91161L6.3943 9.97507ZM17.9281 9.97507L17.494 10.2289C17.308 10.2289 17.246 10.2289 17.37 10.1654L17.7421 10.0385L17.9281 9.97507ZM5.27813 10.2289L5.40215 10.2924L5.34014 10.3558H5.21612V10.4193L5.15411 10.3558L5.0921 10.4193C5.0921 10.3558 5.0921 10.3558 5.0921 10.4193H4.96808V10.4827H4.90607H4.84406C4.84406 10.4193 4.84406 10.4193 4.84406 10.4827L4.78205 10.5462H4.72004L4.65803 10.6096V10.5462L4.59602 10.6096L4.53401 10.6731C4.59602 10.7366 4.59602 10.7366 4.53401 10.6731L4.472 10.7366C4.53401 10.7366 4.53401 10.7366 4.472 10.7366L4.40999 10.8L4.34798 10.8635H4.28597C4.34798 10.9269 4.34798 10.9269 4.28597 10.8635V10.9904H4.22397C4.16196 11.0539 4.16196 11.0539 4.16196 10.9269C4.16196 10.3558 4.72004 9.97506 5.27813 10.2289ZM19.6023 10.2289C19.8504 10.3558 20.0364 10.6731 20.0364 10.9269L19.9744 10.9904V10.9269C19.9124 10.9269 19.9124 10.9269 19.9744 10.9269L19.9124 10.8635L19.7884 10.8H19.7264L19.7884 10.6731H19.7264C19.6644 10.6731 19.6644 10.6731 19.7264 10.6731H19.6023V10.6096L19.5403 10.5462V10.6096L19.4783 10.5462H19.4163V10.4193H19.3543L19.2923 10.4827C19.3543 10.5462 19.2923 10.5462 19.2923 10.4827H19.2303L19.2923 10.4193H19.1063V10.3558C19.1063 10.2924 19.1063 10.2924 19.1063 10.3558H19.0443H18.8582V10.2924L18.7962 10.3558L18.8582 10.2289C19.1063 10.102 19.3543 10.102 19.6023 10.2289ZM2.85975 10.2924C2.92176 10.3558 2.85975 10.3558 2.73574 10.3558L2.67373 10.4193H2.61172C2.30167 10.4827 1.61956 11.0539 1.61956 11.2442V11.3077L1.55755 11.3711C1.55755 11.4981 1.49554 11.5615 1.49554 11.4346C1.49554 11.1808 1.8676 10.5462 2.23966 10.4193C2.42569 10.2924 2.79774 10.2289 2.85975 10.2924ZM6.3943 10.3558L6.51832 10.4827L6.20827 10.2924L6.3943 10.3558ZM18.0521 10.2924L17.7421 10.4193L17.8661 10.3558L18.0521 10.2924ZM21.6487 10.2924C22.1447 10.3558 22.5788 10.8635 22.7028 11.4346C22.7028 11.4981 22.6408 11.4981 22.5788 11.3077C22.3308 10.8 21.7727 10.3558 21.4006 10.3558H21.3386C21.3386 10.2924 21.4626 10.2289 21.6487 10.2924ZM14.3315 10.6096V10.8635H14.1455C13.8355 10.8635 13.8355 10.9269 13.8355 11.5615V12.0692H13.2774V10.3558L13.5254 10.4193L13.7734 10.4827L14.2075 10.3558H14.3315V10.6096ZM12.5953 10.4193C12.8433 10.5462 13.0913 10.9269 13.0913 11.2442C13.0913 12.2596 11.6651 12.4499 11.4171 11.4346C11.169 10.7366 11.9132 10.1654 12.5953 10.4193ZM15.3237 10.4193C15.6957 10.4827 15.8818 10.8635 15.8818 11.3077V11.4346H15.3237L14.7656 11.4981H14.8276C14.8896 11.6884 15.1997 11.7519 15.3857 11.625L15.5717 11.5615L15.7577 11.8788C15.7577 12.0692 15.0756 12.1961 14.7656 12.0692C13.8355 11.625 14.3315 10.102 15.3237 10.4193ZM6.27028 10.6731L6.89038 10.8635H6.82837V10.9269H6.70435L6.58033 10.8635H6.45631C6.45631 10.9269 6.45631 10.9269 6.45631 10.8635H6.33229L5.65019 10.9269H5.46416L5.40215 10.9904H5.21612V10.9269C5.40215 10.6731 5.7742 10.6096 6.27028 10.6731ZM18.7342 10.7366C18.9822 10.8 19.1063 10.9904 18.9822 10.9904H18.8582L18.7962 10.9269H18.6102V10.8635H18.5482C18.5482 10.9269 18.5482 10.9269 18.5482 10.8635H18.4862C18.4862 10.9269 18.4862 10.9269 18.4862 10.8635L17.618 10.9269H17.556V10.8635H17.432C17.432 10.9269 17.432 10.9269 17.432 10.8635H17.37L17.556 10.7366C17.9901 10.6096 18.4862 10.6096 18.7342 10.7366ZM21.4626 10.8C21.8347 10.9269 22.1447 11.2442 22.2688 11.5615V11.8153L22.2067 11.7519L22.1447 11.6884L21.9587 11.3711L21.8967 11.2442H21.8347L21.7727 11.1808H21.7107L21.6487 11.1173L21.5866 11.0539L21.4626 10.9904H21.4006L21.2766 10.9269H21.0286L20.9666 10.8635H20.9045L20.9666 10.8H20.9045L20.9666 10.7366L21.4626 10.8ZM3.29382 10.8L3.23181 10.8635L3.04578 10.9269H2.98377L2.73574 10.9904H2.67373V11.0539H2.61172L2.54971 11.1173L2.4877 11.1808L2.36368 11.2442L1.99162 11.6884L1.92961 11.8153C1.92961 11.3711 2.30167 10.9269 2.73574 10.8H3.29382ZM14.9516 10.8635L14.8276 10.9904L14.7656 11.0539H15.0756C15.4477 11.0539 15.4477 11.0539 15.3237 10.8635H14.9516ZM12.0992 10.8635C11.7271 10.9904 11.7891 11.625 12.2232 11.625C12.3472 11.625 12.4712 11.5615 12.5332 11.4346C12.7193 11.1173 12.4092 10.7366 12.0992 10.8635ZM6.58033 11.1808L6.82837 11.2442H6.64234L6.58033 11.3077H6.3943C6.3943 11.2442 6.3943 11.2442 6.3943 11.3077H6.08425C6.08425 11.2442 6.08425 11.2442 6.08425 11.3077H5.65019L5.58818 11.2442L5.7122 11.1808C5.96023 11.1173 6.14626 11.0539 6.58033 11.1808ZM18.3622 11.1173L18.6102 11.2442L18.4242 11.3077H18.3001C18.3001 11.3711 18.3001 11.3711 18.3001 11.3077C18.3001 11.2442 18.3001 11.2442 18.3001 11.3077H18.2381H17.7421V11.2442L17.68 11.3077H17.618V11.2442C17.556 11.3077 17.432 11.2442 17.494 11.1808H17.556C17.556 11.2442 17.556 11.2442 17.556 11.1808C17.556 11.1173 18.1141 11.0539 18.3622 11.1173ZM3.72789 11.3711L3.85191 11.4346H3.1698L3.10779 11.4981H3.04578L2.98377 11.5615H2.85975L2.79774 11.625L2.73574 11.6884H2.67373L2.61172 11.7519L2.54971 11.8153C2.54971 11.8788 2.54971 11.9423 2.4877 11.8788V11.9423L2.42569 12.0057V12.0692H2.36368C2.30167 12.0057 2.54971 11.5615 2.73574 11.4346C2.98377 11.2442 3.47985 11.2442 3.72789 11.3711ZM21.2766 11.3077C21.5246 11.4346 21.8347 11.7519 21.8347 12.0057C21.8347 12.1326 21.8347 12.1326 21.7727 12.0692L21.6487 11.8788L21.5866 11.7519H21.5246L21.4626 11.6884L21.4006 11.625L21.3386 11.5615H21.2146L21.0286 11.4981H20.9666V11.4346H20.9045C20.9045 11.4981 20.9045 11.4981 20.9045 11.4346H20.5945L20.3465 11.4981C20.1604 11.4981 20.4085 11.3711 20.5945 11.3077H21.2766ZM5.40215 11.4346V11.7519L5.96023 11.8153L6.76636 11.8788H6.70435V12.0057H6.64234V12.0692C6.58033 12.1326 6.58033 12.1326 6.64234 12.0692V12.323L6.58033 12.3865L6.51832 12.4499L6.3943 12.5134L6.33229 12.5768H5.89822C5.40215 12.5768 5.40215 12.5768 5.40215 12.7672C5.40215 13.021 5.27813 13.021 5.0921 12.8307L4.53401 12.3865C4.22397 12.1326 4.22397 12.1961 4.40999 12.0692C5.34014 11.3077 5.34014 11.3077 5.40215 11.4346ZM19.2303 11.5615L19.7264 11.9423C20.0364 12.1961 20.0364 12.1326 19.6644 12.4499L19.1683 12.8307C18.9202 13.0845 18.8582 13.021 18.8582 12.7672C18.8582 12.5768 18.8582 12.5768 18.4862 12.5768H18.1761C18.1761 12.5134 18.1761 12.5134 18.1761 12.5768H18.0521C17.9901 12.5768 17.8661 12.5768 17.9281 12.5134H17.9901V12.4499H17.9281C17.8661 12.3865 17.8661 12.3865 17.9281 12.4499V12.3865L17.8041 12.1961L17.7421 12.323H17.68L17.7421 12.2596L17.68 12.1961V12.2596L17.618 12.1961C17.618 12.2596 17.618 12.2596 17.618 12.1961V11.9423L17.556 11.8788C17.432 11.8153 17.556 11.8153 18.1761 11.8153H18.8582V11.625C18.8582 11.3077 18.9202 11.3077 19.2303 11.5615ZM3.54186 11.9423C3.66588 11.9423 3.66588 12.0057 3.54186 12.0057H3.35583V12.0692H3.1698V12.1326H3.10779C3.10779 12.1961 3.10779 12.1961 3.10779 12.1326C3.04578 12.2596 2.98377 12.0692 3.04578 12.0057C3.10779 11.8788 3.35583 11.8153 3.54186 11.9423ZM21.0906 11.9423C21.1526 11.9423 21.2146 12.0692 21.1526 12.1326L21.0906 12.1961V12.1326H20.9666V12.0692C20.9666 12.0057 20.9666 12.0057 20.9666 12.0692H20.9045L20.8425 12.0057C20.8425 12.0692 20.8425 12.0692 20.8425 12.0057H20.7805C20.6978 12.0065 20.6152 12.0065 20.5325 12.0057C20.6565 11.8788 20.9666 11.8153 21.0906 11.9423ZM17.618 12.0692V12.1961L17.7421 12.0692H17.618ZM6.58033 12.1326C6.51832 12.0692 6.51832 12.0692 6.58033 12.1326ZM9.99086 12.1961C10.1769 12.323 10.1769 12.5768 10.0529 12.7038C9.80483 12.8941 9.49478 12.7672 9.49478 12.4499C9.49478 12.2596 9.80483 12.0692 9.99086 12.1961ZM6.51832 12.2596L6.45631 12.323L6.3943 12.3865V12.5134H6.45631V12.4499H6.51832L6.58033 12.323V12.2596H6.51832ZM12.9673 12.2596H13.0293V12.6403L12.9053 12.7038C12.6573 12.7038 12.5332 13.021 12.7813 13.021L12.9053 13.0845V13.2749C12.9053 13.4653 12.9053 13.4653 12.7813 13.4653H12.6573V14.7979H12.0992V13.4653H11.9132V13.021H12.0992V12.8941C12.0992 12.7038 12.1612 12.5768 12.2852 12.4499C12.4092 12.2596 12.7193 12.1961 12.9673 12.2596ZM6.51832 12.323C6.51832 12.3865 6.45631 12.3865 6.51832 12.323ZM17.8661 12.4499L17.8041 12.5134V12.4499L17.7421 12.3865L17.8041 12.323L17.8661 12.4499ZM17.8041 12.3865C17.8041 12.323 17.7421 12.323 17.8041 12.3865ZM2.61172 12.4499C2.44111 12.6137 2.27567 12.783 2.11564 12.9576L1.99162 13.0845V13.148C1.92961 13.2114 1.92961 13.2114 1.92961 13.0845C1.99162 12.8941 2.17765 12.7038 2.36368 12.5134C2.4877 12.3865 2.73574 12.323 2.61172 12.4499ZM21.7727 12.5134C21.9587 12.5768 22.2688 12.9576 22.2688 13.148L22.2067 13.0845L21.6487 12.4499L21.5246 12.3865H21.5866L21.7727 12.5134ZM3.7899 12.5768L3.47985 12.6403C3.1698 12.7672 2.92176 12.8941 2.73574 13.0845L2.36368 13.6556L2.30167 13.7825V13.6556C2.36368 13.0845 2.92176 12.5768 3.60387 12.5768H3.7899ZM20.9045 12.5768C21.4626 12.7672 21.8967 13.2114 21.8347 13.6556C21.6487 13.0845 21.1526 12.7672 20.4085 12.5768H20.9045ZM6.64234 12.8941L6.33229 12.9576L6.20827 13.021L6.14626 13.0845L6.02224 13.148H5.7742C5.52617 13.148 5.89822 12.9576 6.20827 12.8941H6.64234ZM18.2381 12.9576L18.4862 13.021L18.5482 13.0845L18.4862 13.148L18.3622 13.2114L18.2381 13.148H18.1761L18.1141 13.0845L18.0521 13.021H17.9281L17.8661 12.9576H17.68V12.8941H17.556L18.2381 12.9576ZM4.03794 12.9576H3.91392C3.60387 13.021 3.23181 13.2749 3.04578 13.5287L2.98377 13.5922V13.4653C3.1698 13.148 3.54186 12.9576 3.91392 12.8941L4.03794 12.9576ZM20.5945 12.9576C20.9045 13.0845 21.2146 13.3383 21.2146 13.5287V13.5922L21.1526 13.5287V13.4653C21.0286 13.3383 20.5945 13.021 20.3465 13.021L20.2224 12.9576H20.5945ZM11.5411 13.0845C11.7891 13.2749 11.8511 13.4018 11.8511 14.2267V14.7979H11.3551V14.2267C11.3551 13.5922 11.2931 13.5922 11.169 13.5287C10.921 13.5287 10.859 13.6556 10.859 14.1633C10.859 14.7979 10.921 14.7979 10.611 14.7979H10.3629V13.0845H10.5489L10.797 13.148H10.921C11.045 13.021 11.3551 13.021 11.5411 13.0845ZM14.1455 13.148C14.5796 13.3383 14.7656 13.846 14.5796 14.2902C14.2695 14.9882 13.3394 14.9248 13.0293 14.2902C12.6573 13.5287 13.4634 12.7672 14.1455 13.148ZM10.0529 13.148V14.7344L9.80483 14.7979H9.55679V13.0845H10.0529V13.148ZM6.82837 13.2749L6.76636 13.3383H6.70435L6.58033 13.4653L6.3943 13.5287L6.14626 13.5922C5.89822 13.7191 5.89822 13.7191 6.08425 13.5922C6.27028 13.3383 6.82837 13.2114 6.82837 13.2749ZM17.618 13.2749L18.1761 13.5287C18.3001 13.6556 18.3001 13.7191 18.1141 13.5922L17.8661 13.5287L17.7421 13.4653H17.68L17.618 13.4018H17.556V13.3383H17.494L17.432 13.2749H17.618ZM3.97593 13.3383L3.85191 13.4018L3.66588 13.4653C3.60387 13.5287 3.60387 13.5287 3.66588 13.4653L3.97593 13.3383ZM5.52617 13.4018C5.7122 13.4653 5.7122 13.5287 5.58818 13.5287L5.27813 13.3383L5.52617 13.4018ZM18.9822 13.3383L18.6722 13.4653H18.5482L18.9822 13.3383ZM13.6494 13.5922C13.2774 13.7191 13.4014 14.2902 13.7734 14.2902C14.1455 14.2902 14.2695 13.846 13.9595 13.5922H13.6494ZM17.494 13.6556C17.8041 13.7191 18.1761 13.9095 18.3622 14.0998L18.4862 14.2267L18.2381 14.1633H18.1761L18.1141 14.0998H18.0521L17.9901 14.0364C17.9901 14.0998 17.9901 14.0998 17.9901 14.0364H17.9281L17.8661 13.9729H17.7421V13.9095H17.68L17.494 13.7825H17.432V13.7191H17.37V13.6556H17.494ZM19.3543 13.6556L19.2303 13.7825L18.8582 13.846H18.6102L19.1683 13.6556H19.3543ZM20.2844 13.7191C20.8425 13.846 21.3386 14.4171 21.2766 14.7979V14.8613L21.2146 14.7979V14.671H21.1526L20.9666 14.3537V14.2902H20.9045V14.2267H20.8425V14.1633H20.7805L20.5325 13.9729H20.4705L20.4085 13.9095H20.3465V13.846H20.2844L19.9124 13.7191L19.7884 13.6556L20.2844 13.7191ZM4.472 13.7191H4.34798C4.26235 13.7254 4.17843 13.7469 4.09995 13.7825L3.91392 13.846V13.9095C3.72789 13.846 3.1698 14.3537 3.04578 14.671C2.98377 14.7979 2.92176 14.7979 2.92176 14.671C2.92176 14.3537 3.47985 13.846 3.97593 13.7191H4.472ZM5.27813 13.7191L5.46416 13.7825L5.58818 13.846H5.40215L5.21612 13.7825H4.96808L4.78205 13.7191H5.27813ZM6.95239 13.6556V13.7191L6.70435 13.7825V13.846H6.64234L6.58033 13.9095L6.45631 13.9729H6.33229V14.0364H6.20827V14.0998H6.14626L6.08425 14.1633H6.02224L5.89822 14.2267L5.83621 14.2902H5.7742L5.7122 14.2267L6.14626 13.9095C6.45631 13.7191 6.95239 13.5922 6.95239 13.6556ZM4.90607 14.0364L5.21612 14.1633H5.34014H4.84406C4.34798 14.0998 3.7899 14.3537 3.47985 14.8613C3.35583 15.0517 3.29382 14.9882 3.47985 14.671C3.66588 14.2267 4.28597 13.9095 4.90607 14.0364ZM7.0144 14.0998H6.95239L6.89038 14.1633L6.76636 14.2902H6.64234L6.58033 14.3537H6.51832V14.4171H6.45631L6.3943 14.4806H6.27028V14.544H6.20827H6.14626L6.08425 14.6075H6.02224V14.544H5.89822L6.02224 14.4806L6.51832 14.2267C6.70435 14.0998 7.0144 13.9729 7.07641 14.0364L7.0144 14.0998ZM17.432 14.0998L17.9901 14.3537C18.0858 14.4293 18.1899 14.4932 18.3001 14.544H18.2381L18.1761 14.6075L18.0521 14.544H17.9901V14.4806H17.8661V14.4171H17.68L17.618 14.3537L17.556 14.2902L17.494 14.2267C17.494 14.2902 17.494 14.2902 17.494 14.2267L17.432 14.1633H17.308L17.246 14.0998V14.0364H17.184C17.184 14.0998 17.184 14.0998 17.184 14.0364C17.184 13.9729 17.246 13.9729 17.432 14.0998ZM20.0984 14.0998C20.4705 14.2267 20.7805 14.544 20.8425 14.8613C20.8425 14.9882 20.7805 14.9882 20.7185 14.8613L20.6565 14.7979V14.671L20.5325 14.6075L19.9124 14.2267C19.5403 14.0998 19.3543 14.0998 18.9202 14.2267C18.7342 14.2267 18.7962 14.1633 19.0443 14.0998C19.4163 13.9729 19.7884 13.9729 20.0984 14.0998ZM15.3237 14.1633C15.5097 14.2902 15.5097 14.671 15.2617 14.7344C15.0756 14.8613 14.8276 14.671 14.8276 14.4806C14.8276 14.1633 15.0756 14.0364 15.3237 14.1633ZM7.20043 14.4171L6.64234 14.671C6.80484 14.5267 6.9949 14.4187 7.20043 14.3537V14.4171ZM4.90607 14.4171L4.72004 14.544C4.60816 14.5917 4.5037 14.6558 4.40999 14.7344H4.34798V14.7979L4.28597 14.8613H4.22397V14.9248L4.16196 14.9882L4.09995 15.0517V15.1152H4.03794L3.97593 15.2421L3.85191 15.369L3.7899 15.4959L3.72789 15.5594L3.66588 15.6228V15.4959C3.72789 14.9248 4.22397 14.4171 4.72004 14.4171H4.90607ZM17.246 14.4171L17.618 14.671L17.246 14.544C17.122 14.4171 17.122 14.3537 17.246 14.4171ZM19.8504 14.4806C20.1604 14.671 20.4085 14.9248 20.5325 15.3055V15.6228L20.4085 15.4324C20.3659 15.3915 20.3245 15.3491 20.2844 15.3055V15.2421H20.2224L20.1604 15.1786V15.1152H20.0984L20.1604 15.0517H20.0984L20.0364 14.9882L19.9744 14.8613H19.9124V14.7979H19.8504V14.7344H19.7884L19.7264 14.671L19.4163 14.544V14.4806H19.2923C19.1683 14.4171 19.2303 14.4171 19.4783 14.4171L19.8504 14.4806ZM5.65019 14.671C5.7742 14.671 5.7742 14.7344 5.7122 14.7344H5.58818L5.46416 14.7979H5.34014C5.34014 14.8613 5.34014 14.8613 5.34014 14.7979L5.27813 14.8613H5.21612L5.15411 14.9248H5.03009V14.9882H4.96808V15.0517H4.90607L4.84406 15.1152L4.78205 15.1786H4.72004C4.78205 15.1786 4.78205 15.1786 4.72004 15.1786V15.2421H4.65803C4.65803 15.1786 4.65803 15.1786 4.65803 15.2421L4.59602 15.3055C4.65803 15.3055 4.65803 15.3055 4.59602 15.3055H4.53401L4.472 15.369L4.40999 15.4324L4.34798 15.4959L4.28597 15.5594V15.4324C4.40999 14.9248 5.0921 14.4806 5.65019 14.671ZM19.1683 14.671C19.5403 14.7979 19.9124 15.1786 19.9124 15.4959L19.7884 15.4324L19.7264 15.369L19.6644 15.3055H19.6023C19.6023 15.369 19.6023 15.369 19.6023 15.3055L19.5403 15.2421H19.4783C19.5403 15.2421 19.5403 15.2421 19.4783 15.2421L19.4163 15.1786V15.1152H19.3543C19.3543 15.1786 19.2923 15.1786 19.3543 15.1152C19.3543 15.0517 19.2923 14.9882 19.2303 15.0517C19.2303 15.1152 19.2303 15.1152 19.2303 15.0517V14.9882H19.1683V14.9248H19.0443L18.9822 14.8613H18.8582V14.7979H18.7342L18.6722 14.7344H18.5482C18.4862 14.7344 18.4242 14.7344 18.4862 14.671H19.1683ZM7.20043 14.8613C6.70435 15.2421 6.58033 15.4959 6.51832 16.1305V16.3209L6.3943 16.4478C6.27028 16.4478 6.20827 16.5112 6.20827 16.5747L6.02224 16.7651V16.892H5.96023V17.0824H5.89822V17.2727C5.83621 17.2093 5.83621 17.3362 5.83621 17.3362V17.4631L5.89822 17.59V17.6535C5.83621 17.6535 5.83621 17.6535 5.89822 17.6535V17.7804V17.8439H5.96023L5.83621 17.7169C5.58818 17.3362 5.65019 16.7651 6.02224 16.5747L6.08425 16.5112L5.96023 16.3209C5.7742 16.0036 5.52617 15.8132 5.15411 15.8132C4.90607 15.7497 4.84406 15.6863 4.96808 15.5594C5.21612 15.3055 5.65019 15.1786 6.27028 15.0517C6.64234 14.9882 6.82837 14.9882 7.07641 14.8613C7.32444 14.7344 7.32444 14.7344 7.20043 14.8613ZM17.122 14.8613C17.308 14.9248 17.68 15.0517 17.9901 15.0517C18.5482 15.1152 18.9202 15.3055 19.2303 15.5594L19.3543 15.6863H19.2923L19.0443 15.8132C18.6722 15.8767 18.4242 16.067 18.1761 16.4478L18.1141 16.5747L18.2381 16.6382C18.4862 16.892 18.5482 17.7169 18.3001 17.7169V17.7804L18.2381 17.7169V17.6535H18.3001V17.5266H18.3622L18.3001 17.4631V17.2727H18.2381L18.3001 17.2093L18.2381 17.1458C18.1761 17.1458 18.1761 17.0824 18.2381 17.1458V17.0824L18.1761 17.0189V16.9554C18.2381 16.892 18.2381 16.892 18.1761 16.9554V16.8285C18.0521 16.7651 18.0521 16.7651 18.1141 16.7016H18.0521C18.1141 16.6382 17.9901 16.5112 17.8661 16.4478L17.7421 16.3843V16.1305C17.7421 15.6863 17.556 15.2421 17.246 14.9882C16.9979 14.8613 16.9979 14.7344 17.122 14.8613ZM7.32444 15.369C7.20042 15.5594 7.0144 15.5594 7.13842 15.4959L7.44846 15.2421L7.32444 15.369ZM16.9359 15.3055C17.122 15.4324 17.184 15.5594 17.0599 15.4959L16.8739 15.2421L16.9359 15.3055ZM7.57248 15.6863C7.44846 15.8132 7.20042 16.0036 6.89038 16.0036L7.13842 15.8767L7.44846 15.6228C7.63449 15.5594 7.6965 15.5594 7.57248 15.6863ZM16.8739 15.6863L17.308 16.0036C17.246 16.1305 16.6259 15.7497 16.6259 15.6228L16.8739 15.6863ZM4.65803 15.6863V15.7497H4.472L4.40999 15.8132C4.40999 15.8767 4.40999 15.8767 4.40999 15.8132H4.34798L4.28597 15.9401H4.22397V16.0036H4.16196L4.09995 16.067L4.03794 16.1305V16.1939L3.97593 16.2574L3.91392 16.3209V16.3843H3.85191V16.4478C3.85191 16.3843 3.85191 16.3843 3.85191 16.4478V16.5112H3.7899V16.7016H3.72789L3.7899 16.7651H3.72789V16.9554H3.66588L3.72789 17.0189V16.9554L3.7899 17.0189H3.72789V17.0824H3.66588C3.66588 17.1458 3.54186 16.892 3.54186 16.6382C3.60387 16.1305 3.97593 15.6228 4.472 15.6228L4.65803 15.6863ZM20.0364 15.6863C20.4085 15.8132 20.7185 16.4478 20.5945 16.892C20.573 16.9551 20.5523 17.0186 20.5325 17.0824L20.5945 16.9554H20.5325L20.5945 16.892H20.4705V16.6382H20.3465V16.5747V16.5112H20.4085L20.3465 16.4478L20.2844 16.3843L20.2224 16.3209V16.2574L20.1604 16.1305L20.0984 16.067L20.0364 16.0036C20.0364 16.067 19.9124 15.9401 19.9744 15.8767H19.7884L19.7264 15.8132H19.6644V15.7497H19.6023L19.5403 15.6863H20.0364ZM5.21612 15.8767C5.40215 15.8767 5.52617 15.9401 5.52617 16.0036L5.34014 15.9401C5.34014 16.0036 5.34014 16.0036 5.34014 15.9401L5.27813 16.0036H5.03009C5.03009 16.067 5.03009 16.067 5.03009 16.0036H4.96808L4.90607 16.067H4.84406C4.84406 16.1305 4.84406 16.1305 4.84406 16.067L4.78205 16.1305H4.72004C4.72004 16.1939 4.72004 16.1939 4.72004 16.1305L4.65803 16.1939H4.59602V16.2574L4.40999 16.3843C4.22397 16.5747 4.22397 16.5747 4.22397 16.4478C4.28597 16.1305 4.59602 15.8767 4.90607 15.8132L5.21612 15.8767ZM7.88253 15.9401L7.51047 16.2574L7.44846 16.3209H7.38645V16.3843H7.26243V16.4478H7.20043L7.13842 16.5112H7.0144V16.5747H6.89038V16.6382L6.82837 16.7016L6.58033 16.9554V17.0189H6.51832V17.0824L6.45631 17.2093V17.2727V17.3362C6.45631 17.4631 6.3943 17.3996 6.33229 17.2727C6.27028 16.892 6.51832 16.5112 7.0144 16.3209L7.63449 16.0036L7.94454 15.8132L7.88253 15.9401ZM19.4783 15.9401C19.7884 16.067 20.0364 16.4478 19.9124 16.5747C19.8504 16.6382 19.8504 16.6382 19.9124 16.5747C19.9124 16.5112 19.8504 16.4478 19.7884 16.5112V16.4478L19.7264 16.3209C19.7884 16.3843 19.7264 16.3843 19.7264 16.3209L19.6023 16.2574L19.4783 16.1939V16.1305H19.4163V16.067H19.3543C19.2923 16.067 19.2923 16.067 19.3543 16.067H19.1683L19.0443 15.9401L19.1063 16.0036H19.0443L18.8582 15.9401H18.7342H18.7962C18.9822 15.8132 19.2303 15.8132 19.4783 15.9401ZM16.6879 16.067L17.246 16.3209C17.618 16.5112 17.8661 16.7651 17.8661 17.1458C17.8661 17.3362 17.8041 17.3996 17.7421 17.3362H17.8041V17.2727L17.7421 17.2093V17.0824L17.68 17.0189H17.618V16.9554C17.68 16.892 17.618 16.8285 17.494 16.892V16.7651H17.432V16.7016H17.37L17.308 16.6382L17.246 16.5747L17.184 16.5112H17.122V16.4478H16.9979V16.3843H16.9359L16.8739 16.3209H16.8119C16.8119 16.3843 16.8119 16.3843 16.8119 16.3209L16.7499 16.2574L16.3778 15.8767L16.6879 16.067ZM16.3778 16.3209C16.5019 16.4478 16.5639 16.5112 16.5639 16.7016V16.7651L16.5019 16.7016L16.4399 16.5747L16.3778 16.5112C16.3777 16.4478 16.3777 16.3843 16.3778 16.3209ZM8.06856 16.1939V16.2574L7.6965 16.7016C7.63449 16.6382 7.75851 16.4478 7.88253 16.3209L8.06856 16.1939ZM5.27813 16.2574L5.21612 16.3209V16.3843H5.15411V16.4478L5.0921 16.5112L4.96808 16.5747V16.6382L4.90607 16.7016V16.6382L4.84406 16.7016V16.7651H4.78205V16.9554C4.72004 16.9554 4.72004 16.9554 4.78205 16.9554H4.72004C4.72004 16.892 4.72004 16.892 4.72004 16.9554V17.0189C4.72004 17.0824 4.72004 17.0824 4.72004 17.0189L4.65803 17.0824V17.2093H4.59602V17.3362C4.53401 17.2727 4.53401 17.2727 4.59602 17.3362V17.4631H4.53401L4.59602 17.5266H4.53401C4.472 17.5266 4.472 17.5266 4.53401 17.5266V17.8439C4.34798 17.8439 4.28597 17.2727 4.40999 16.892C4.53401 16.5747 4.90607 16.2574 5.21612 16.2574H5.27813ZM19.2303 16.3209C19.6023 16.5112 19.7884 16.9554 19.7884 17.4631C19.7884 17.6535 19.6644 17.8439 19.6023 17.8439V17.7804C19.6644 17.7804 19.6644 17.7804 19.6023 17.7804L19.6644 17.7169V17.59L19.6023 17.5266L19.5403 17.4631C19.4783 17.5266 19.4783 17.5266 19.5403 17.4631V17.3362L19.4783 17.2727V17.2093C19.4163 17.1458 19.4163 17.0824 19.4783 17.2093V17.1458L19.4163 17.0189C19.4163 17.0824 19.4163 17.0824 19.4163 17.0189L19.3543 16.9554V16.8285H19.2923V16.7651H19.2303V16.7016L19.1063 16.5747L19.0443 16.5112L18.9822 16.4478L18.9202 16.3843V16.3209C18.7342 16.1939 18.9822 16.1939 19.2303 16.3209ZM5.7742 16.4478L5.7122 16.5112L5.65019 16.5747H5.58818V16.6382L5.52617 16.7016L5.46416 16.7651V16.892H5.40215L5.34014 16.9554V17.0824L5.27813 17.1458C5.34014 17.1458 5.34014 17.1458 5.27813 17.1458V17.2093C5.21612 17.1458 5.21612 17.1458 5.27813 17.2093L5.21612 17.3362L5.27813 17.3996H5.21612V17.5266L5.27813 17.6535V17.7169L5.21612 17.6535V17.7169H5.27813V17.8439L5.21612 17.7804H5.15411C4.78205 17.3362 5.21612 16.3843 5.83621 16.3843H5.89822L5.7742 16.4478ZM18.6102 16.4478C19.0443 16.7016 19.2303 17.2727 19.0443 17.7169L18.9202 17.8439V17.6535C18.8582 17.6535 18.8582 17.6535 18.9202 17.6535V17.59H18.8582H18.9822L18.9202 17.5266H18.8582L18.9202 17.4631L18.8582 17.3996V17.2727V17.2093C18.9202 17.2093 18.9202 17.2093 18.8582 17.2093L18.7962 17.0824V16.9554C18.7342 17.0189 18.7342 16.9554 18.7342 16.892L18.6102 16.7651V16.7016L18.3001 16.3843L18.6102 16.4478ZM8.3166 16.5112L8.06856 16.7651L8.19258 16.5747L8.3166 16.5112ZM16.0678 16.5747C16.1918 16.7016 16.1918 16.8285 16.1298 16.7651H16.0678V16.7016L16.0058 16.6382V16.5747H15.9438V16.5112L16.0678 16.5747ZM8.50263 16.9554L8.06856 17.3996C7.82052 17.6535 7.75851 17.7169 7.82052 17.8439C7.88253 18.0342 8.19258 17.9708 8.3166 17.7169C8.44062 17.3996 8.56464 17.1458 8.75066 16.9554L8.87468 16.892V16.9554H8.81267L8.75066 17.1458C8.56464 17.3362 8.50263 17.5266 8.50263 17.7804C8.44062 18.4784 7.6965 18.7323 7.32444 18.1611C7.0144 17.6535 7.32444 17.1458 8.00655 17.0824L8.50263 16.8285C8.62665 16.6382 8.62665 16.7016 8.50263 16.9554ZM15.9438 16.9554L16.3778 17.0824C17.0599 17.0824 17.308 18.0977 16.6879 18.415C16.2538 18.6053 15.8198 18.3515 15.7577 17.7804L15.5717 17.2093L15.3857 16.892C15.4477 16.8285 15.7577 17.3362 15.8818 17.59C16.0058 17.9708 16.1918 18.0342 16.3778 17.9073C16.5019 17.7804 16.5019 17.7169 16.2538 17.4631C15.8818 17.0824 15.3857 16.4478 15.7577 16.7651L15.9438 16.9554ZM9.12272 17.2093L9.06071 17.3362L8.9987 17.3996V17.59H8.93669V17.6535L8.87468 17.7169V17.7804L8.93669 17.8439L8.87468 17.9073V18.0977L8.81267 18.1611C8.87468 18.2246 8.81267 18.2881 8.75066 18.2246V18.3515C8.62665 18.4784 8.62665 18.4784 8.68866 18.2881L8.75066 17.9073C8.75066 17.59 8.81267 17.3996 8.9987 17.2093C9.18473 17.0189 9.18473 17.0824 9.12272 17.2093ZM15.4477 17.4631L15.5097 17.9073L15.5717 18.3515L15.6337 18.4784L15.5097 18.3515L15.4477 18.2246C15.3857 18.2246 15.3857 18.2246 15.4477 18.2246L15.3857 18.1611V18.0342C15.4477 18.0342 15.4477 18.0342 15.3857 18.0342H15.3237V17.9708L15.3857 17.9073L15.3237 17.7804C15.3164 17.6444 15.2735 17.5129 15.1997 17.3996L15.1377 17.2093C15.0756 17.1458 15.0756 17.1458 15.1377 17.2093V17.1458L15.0756 17.0824L15.4477 17.4631ZM14.9516 17.5266L15.0136 17.9073C15.0756 18.415 15.2617 18.7323 15.6957 18.8592L15.8198 18.9226C15.8198 18.9861 15.8198 18.9861 15.8198 18.9226L15.7577 18.9861H15.5717C15.1377 18.7957 14.9516 18.4784 14.9516 17.9073L14.8896 17.8439V17.7804C14.9516 17.7804 14.9516 17.7804 14.8896 17.7804L14.9516 17.7169L14.8896 17.6535V17.5266C14.7656 17.2727 14.8276 17.2093 14.9516 17.5266ZM9.43277 17.3996V17.5266L9.37076 17.7804V17.8439L9.30875 17.9073V18.1611C9.30875 18.5419 8.93669 18.9226 8.56464 18.9861L8.44062 18.9226C8.44062 18.9861 8.44062 18.9861 8.44062 18.9226L8.50263 18.8592C8.9987 18.7323 9.18473 18.4784 9.18473 17.9073L9.37076 17.3362H9.43277V17.3996ZM9.99086 18.0977L9.92885 18.2881V18.415L9.99086 18.5419V18.6688L10.0529 18.7957L10.1769 19.0496V19.113L10.2389 19.1765C10.2389 19.113 10.2389 19.113 10.2389 19.1765V19.2399C10.3009 19.2399 10.3009 19.1765 10.2389 19.2399H10.3009V19.3034L10.1149 19.1765C9.80483 18.9226 9.74282 18.415 9.86684 18.0342C9.99086 17.8439 9.99086 17.8439 9.99086 18.0977ZM12.0992 17.9708V18.0342H12.2232L12.2852 17.9708H12.4092L12.3472 18.0342C12.4092 18.0342 12.4712 18.0342 12.4092 17.9708H12.4712C12.5332 17.9708 12.5332 17.9708 12.4712 17.9708L12.5332 18.0342V18.0977L12.6573 18.2881L13.2154 19.0496C13.4014 19.3034 13.4014 19.3668 13.3394 19.4938C13.3394 19.6207 13.2154 19.6207 13.0913 19.6207C12.8433 19.6207 12.8433 19.6207 12.8433 19.8745C12.9053 20.0649 12.8433 20.1918 12.4712 20.5725L12.0992 20.9533L11.9132 20.6995C11.4171 20.1918 11.3551 20.0649 11.4171 19.811C11.4171 19.6207 11.4171 19.6207 11.231 19.6207C11.045 19.6207 10.983 19.6207 10.921 19.4938C10.859 19.3668 10.859 19.3034 11.045 19.0496C11.2931 18.7957 11.5411 18.4784 11.6651 18.1611C11.7271 18.0977 11.7271 17.9708 11.7891 18.0342V17.9708H11.9132V17.9073L11.9752 17.9708H12.0372V17.9073H12.0992V17.9708ZM14.3935 18.0977C14.5796 18.4784 14.3935 19.0496 14.0215 19.3034H13.9595V19.2399L14.0215 19.1765H14.0835V19.0496C14.1455 19.113 14.2075 19.0496 14.1455 18.9861V18.9226L14.2075 18.8592V18.6688H14.2695V18.6053L14.3315 18.5419H14.2695V18.4784L14.3315 18.415V18.1611L14.2695 18.0977L14.3315 18.0342C14.3315 18.0977 14.3315 18.0977 14.3315 18.0342L14.3935 18.0977ZM13.5254 18.2881L13.4014 18.4784V18.415L13.4634 18.3515V18.2246H13.5254V18.0342C13.5874 18.0977 13.5254 18.0977 13.5254 18.0342V17.9708V18.2881ZM13.9595 18.3515C13.9595 18.6053 13.8355 18.8592 13.6494 18.9226H13.5874L13.6494 18.8592L13.7114 18.7323V18.6688H13.7734V18.4784C13.8355 18.5419 13.8975 18.2246 13.8975 18.2246V17.9708L13.9595 18.0342V18.3515ZM10.3629 18.0342V18.2881L10.4249 18.415V18.4784L10.4869 18.5419V18.6688C10.5489 18.6688 10.5489 18.6688 10.4869 18.6688L10.5489 18.7323L10.611 18.7957V18.8592L10.673 18.9226H10.611L10.3009 18.6053L10.3629 17.9708V18.0342ZM10.735 18.0342V18.0977L10.797 18.2246V18.2881L10.859 18.3515V18.4784L10.735 18.2246L10.673 18.0342H10.735ZM6.33229 18.6688C6.51832 18.7957 6.51832 19.1765 6.27028 19.3034C6.08425 19.3668 5.89822 19.2399 5.7742 19.0496C5.7122 18.7323 6.08425 18.4784 6.33229 18.6688ZM18.1761 18.6053C18.5482 18.7957 18.4242 19.3668 18.0521 19.3034C17.68 19.2399 17.618 18.7323 17.9901 18.6053H18.1761ZM4.78205 18.7323V18.9226L4.84406 19.4938L4.90607 19.5572L4.96808 19.6841L5.03009 19.7476H4.96808V19.8745L5.03009 19.938V19.8745L5.0921 19.938L5.15411 20.0014L5.21612 20.1283L5.40215 20.2553H5.46416L5.65019 20.3187C5.71219 20.3187 5.71219 20.3187 5.65019 20.3187L5.7122 20.3822H6.45631V20.4456L6.70435 20.3187V20.2553H6.76636V20.3187L6.70435 20.3822H6.58033V20.4456H5.89822C5.71219 20.4456 5.65019 20.4456 5.46416 20.3187L5.27813 20.1918H5.21612L4.84406 19.7476L4.72004 19.3034C4.65803 18.9861 4.72004 18.6053 4.78205 18.6688C4.78205 18.7323 4.78205 18.7323 4.78205 18.6688V18.6053V18.7323ZM19.4783 18.8592C19.5403 19.0496 19.4783 19.4303 19.4163 19.4938V19.5572C19.3543 19.8111 18.9822 20.1918 18.9202 20.1918H18.7962V20.2553L18.7342 20.3187L18.6102 20.3822H18.3622H18.4862L18.6722 20.3187L18.7342 20.2553L18.7962 20.1918V20.1283H18.8582C18.9202 20.1283 18.8582 20.1918 18.8582 20.1283C18.8582 20.0649 18.8582 20.0649 18.8582 20.1283L18.9822 20.0649H18.9202L19.0443 19.938L19.1683 19.8745V19.811L19.2923 19.6841C19.2923 19.6207 19.2923 19.5572 19.3543 19.6207V19.3034H19.4163V18.7957C19.4163 18.7323 19.4783 18.7323 19.4783 18.8592ZM5.34014 19.1765H5.40215L5.34014 19.3034L5.27813 19.2399C5.27813 19.113 5.27813 18.9861 5.34014 19.0496V19.1765ZM9.18473 19.1765L9.12272 19.2399L9.06071 19.3034C9.06071 19.3668 8.56464 19.4938 8.50263 19.4303C8.44062 19.4303 8.44062 19.4303 8.50263 19.4303V19.3668H8.62665C8.68866 19.3668 8.68866 19.3668 8.62665 19.3668H8.68866L9.06071 19.1765H9.18473L9.24674 19.113C9.24674 19.0496 9.24674 19.0496 9.24674 19.113L9.18473 19.1765ZM15.2617 19.1765L15.3237 19.2399V19.3034H15.4477L15.5097 19.3668H15.7577C15.7577 19.4303 15.6337 19.4938 15.5717 19.4303H15.4477C15.3237 19.4303 15.0136 19.1765 15.0756 19.1765L15.1377 19.113L15.2617 19.1765ZM18.8582 19.3034C18.7962 19.4303 18.7962 19.3668 18.8582 19.3034L18.9202 19.2399L18.8582 19.3668L18.7962 19.4303L18.8582 19.2399V19.3034ZM5.40215 19.3668V19.4303H5.46416V19.4938L5.52617 19.5572H5.46416L5.52617 19.6207L5.65019 19.6841L5.7122 19.7476H5.7742L5.83621 19.811L5.89822 19.8745C5.83621 19.8745 5.58818 19.7476 5.52617 19.6207L5.46416 19.5572V19.4938H5.40215V19.3668ZM18.7962 19.4303C18.7962 19.4938 18.7962 19.5572 18.7342 19.4938C18.6722 19.4938 18.6102 19.5572 18.6722 19.6207H18.6102L18.5482 19.6841H18.4862V19.7476L18.4242 19.6841L18.6102 19.5572C18.6722 19.4938 18.6722 19.4303 18.7342 19.4938V19.3668L18.7962 19.4303ZM4.78205 19.5572L4.84406 19.6207C4.84406 19.5572 4.84406 19.4938 4.78205 19.5572ZM9.80483 19.6841L10.2389 20.1283L10.3629 20.1918L10.4249 20.2553H10.3629C10.0529 20.1918 9.74282 19.8745 9.74282 19.5572L9.80483 19.6841ZM14.5176 19.6207C14.3935 19.8745 14.2075 20.1283 13.9595 20.2553C13.7734 20.2553 13.7734 20.2553 13.8975 20.1918L14.3935 19.7476C14.5796 19.4938 14.5796 19.4303 14.5176 19.6207ZM10.4249 19.7476L10.4869 19.811H10.4249L10.3009 19.7476H10.4249ZM13.8975 19.7476L13.8355 19.811V19.7476L13.8975 19.6841H13.9595L13.8975 19.7476ZM17.618 19.7476L17.8041 19.811L17.8661 19.8745H17.8041L17.68 19.811L17.556 19.7476V19.6841L17.618 19.7476ZM18.6722 19.6841L18.5482 19.7476V19.6841H18.6722ZM18.4242 19.7476L18.4862 19.811L18.2381 19.8745H18.1761C18.1141 19.8745 18.1141 19.8745 18.1761 19.8745L18.2381 19.811H18.3001L18.3622 19.7476C18.4242 19.7476 18.4242 19.7476 18.3622 19.7476V19.6841L18.4242 19.7476ZM6.20827 19.811H6.3943C6.3943 19.8745 6.08425 19.938 6.02224 19.8745H6.14626L6.20827 19.811ZM9.06071 19.938V20.0014H8.9987V20.1918H8.93669V20.2553L8.87468 20.3187L8.81267 20.4456L8.68866 20.5725C8.68866 20.636 8.68866 20.636 8.68866 20.5725C8.62665 20.4456 8.75066 20.2553 8.87468 20.0649C9.06071 19.8745 9.06071 19.811 9.12272 19.8745L9.06071 19.938ZM15.3857 20.1283L15.5717 20.5091H15.5097L15.4477 20.4456L15.3857 20.3822L15.3237 20.3187V20.2553L15.2617 20.1918V20.1283H15.1997V20.0014L15.1377 19.938H15.1997L15.1377 19.8745L15.3857 20.1283ZM5.21612 19.938V20.0014L5.15411 19.938H5.21612ZM8.56464 19.938L8.50263 20.0649V20.1283H8.44062V20.1918H8.37861C8.37861 20.2553 8.3166 20.3187 8.19258 20.3187H8.13057L8.19258 20.2553L8.50263 19.938H8.56464ZM19.0443 19.938V20.0014L19.1063 19.938H19.0443ZM15.8818 20.0649L16.0058 20.2553L16.0678 20.3187H15.8818V20.2553H15.8198V20.1918H15.7577V20.1283L15.6957 20.0649V20.0014L15.8818 20.0649ZM7.0144 20.1918H6.95239C6.95239 20.1283 6.95239 20.1283 6.95239 20.1918H7.0144C7.13842 20.1283 7.07641 20.1283 7.0144 20.1918ZM17.308 20.2553L17.494 20.3187L17.618 20.3822H17.8041C17.9281 20.4456 17.8661 20.5091 17.68 20.4456L17.618 20.3822H17.556L17.432 20.3187L17.308 20.2553ZM18.5482 20.3187H18.6102H18.4862V20.2553L18.5482 20.3187ZM18.3622 20.3822H18.4242V20.4456H17.8661H18.2381L18.1761 20.3822H18.1141C18.0521 20.3187 18.0521 20.3187 18.1761 20.3187L18.3622 20.3822ZM18.2381 20.3822H18.3001H18.1761H18.2381ZM15.0136 20.4456V20.5091H14.9516L15.0136 20.4456ZM15.0136 20.636C15.0756 20.636 15.0756 20.636 15.0136 20.636L15.0756 20.5725C15.1211 20.7815 15.1211 20.9982 15.0756 21.2071V21.2706C15.0756 21.1437 15.0136 21.1437 14.9516 21.2706C14.9516 21.3975 14.9516 21.3975 15.0136 21.334C15.0756 21.2706 15.0756 21.2071 15.0756 21.334C15.0136 21.3975 15.0136 21.334 15.0756 21.334V21.3975H15.0136L14.9516 21.461V21.5244C14.9516 21.5879 14.9516 21.5879 14.9516 21.5244L15.0136 21.461C15.0756 21.461 14.9516 21.7148 14.7656 21.9052C14.4555 22.3494 13.8355 22.6032 13.3394 22.4763L12.9673 22.3494H13.2154L13.2774 22.4128L13.8975 22.3494V22.4128C13.8355 22.4128 13.8355 22.4128 13.8975 22.4128H13.9595L14.0835 22.3494C14.0835 22.4128 14.0835 22.4128 14.0835 22.3494L14.1455 22.2859V22.3494L14.2075 22.2859H14.3315L14.3935 22.2225L14.4555 22.159L14.5796 21.9686L14.7036 21.7782L14.7656 21.7148H14.8276V21.5879C14.8896 21.6513 14.8896 21.6513 14.8276 21.5879L14.8896 21.5244C14.9516 21.5879 14.8896 21.5879 14.8896 21.5244V21.3975L14.9516 21.0168L15.0136 20.6995V20.636ZM16.5019 20.636C16.9979 20.8264 16.9979 21.5244 16.5639 21.7148C15.9438 22.0321 15.3237 21.2706 15.8198 20.7629C16.0058 20.5725 16.3158 20.5091 16.5019 20.636ZM9.18473 20.7629V20.8264H9.24674C9.24674 20.8898 9.24674 20.8898 9.24674 20.8264V21.1437L9.18473 21.334L9.24674 21.3975C9.30875 21.334 9.30875 21.461 9.30875 21.461V21.5244C9.37076 21.461 9.37076 21.461 9.30875 21.5244H9.37076V21.461V21.5879C9.37076 21.5244 9.37076 21.5244 9.37076 21.5879H9.43277V21.6513C9.43277 21.7148 9.43277 21.7148 9.43277 21.6513L9.49478 21.7148L9.55679 21.7782L9.74282 21.9686V22.0955H9.80483L9.86684 22.159L9.99086 22.2225L10.0529 22.2859H10.1769L10.2389 22.3494L10.3629 22.4128H10.4249C10.4249 22.3494 10.4249 22.3494 10.4249 22.4128H10.859C10.797 22.4128 10.797 22.4128 10.859 22.4128L10.921 22.3494C11.045 22.3494 11.045 22.3494 10.983 22.4128L11.107 22.3494L11.045 22.4128C10.859 22.4763 10.4869 22.5397 10.4249 22.4763H10.3009C9.86684 22.4128 9.18473 21.7148 9.18473 21.2706L9.12272 21.2071L9.18473 20.636V20.7629ZM8.13057 20.6995C8.56464 20.8898 8.56464 21.5244 8.06856 21.7148C7.82052 21.7782 7.44846 21.5879 7.44846 21.2706C7.38645 20.8898 7.75851 20.5725 8.13057 20.6995ZM16.0678 20.7629C15.6957 20.9533 15.6957 21.461 16.0678 21.6513C16.4399 21.8417 16.8739 21.3975 16.6879 21.0168C16.5639 20.7629 16.2538 20.636 16.0678 20.7629ZM9.92885 20.7629V21.0168H9.99086V21.0802L10.0529 21.2071C10.1149 21.461 10.1769 21.5244 10.3629 21.6513L10.4249 21.7148L10.4869 21.7782H10.735V21.8417C10.673 21.8417 10.673 21.8417 10.735 21.8417H10.859L10.673 21.9052L10.5489 21.8417H10.4869L10.1149 21.5879C9.92885 21.3975 9.86684 21.1437 9.86684 20.8264L9.92885 20.7629ZM7.82052 21.0168C7.6965 21.0168 7.6965 21.2071 7.75851 21.334C7.82052 21.461 8.00655 21.461 8.06856 21.3975C8.25459 21.2071 8.06856 20.8898 7.82052 21.0168ZM14.3315 21.334C14.2075 21.5244 14.0835 21.7148 13.8975 21.7782L13.4634 21.8417V21.7782H13.4014H13.6494L13.7114 21.7148H13.8355L13.8975 21.6513H13.9595C13.9595 21.7148 13.9595 21.7148 13.9595 21.6513L14.0215 21.5879H14.0835L14.1455 21.461V21.3975H14.2075V21.2706H14.2695L14.3315 21.0168V21.334ZM13.7734 21.1437L13.5874 21.2706V21.2071H13.5254L13.5874 21.1437H13.6494L13.7734 21.0802V21.1437ZM10.5489 21.1437H10.611V21.2071L10.4869 21.1437V21.0802L10.5489 21.1437ZM9.55679 21.8417L9.6188 21.9052V21.9686H9.55679H9.68081L9.55679 21.8417ZM13.5254 22.4128H13.3394H13.4014L13.5254 22.3494H13.5874L13.5254 22.4128Z" fill="black"/>
</svg>
