<svg width="24" height="24" viewBox="0 0 24 24" fill="none" xmlns="http://www.w3.org/2000/svg">
<path fill-rule="evenodd" clip-rule="evenodd" d="M7.47246 1.01622C6.86558 1.2068 6.66464 1.96772 6.96948 2.92053C7.05929 3.20124 7.10605 3.27836 7.05335 3.05887C6.82286 2.09885 7.24582 1.15348 7.93539 1.08768C8.06492 1.07536 8.09225 1.06489 8.0569 1.04141C7.99885 1.00281 7.57355 0.984446 7.47246 1.01622ZM8.66665 1.512C8.75163 1.67212 8.74426 1.70599 8.61623 1.74428C8.37472 1.81659 8.04822 2.11544 7.86482 2.43226C7.7563 2.61967 7.77443 2.62067 7.917 2.43529C8.1833 2.08908 8.6958 1.88463 8.78854 2.08761C8.90835 2.34965 8.68386 3.58302 8.4584 3.9014C8.34106 4.0671 7.96533 3.90984 7.68279 3.57666L7.53696 3.40476L7.65123 3.78987C8.13229 5.41099 9.19748 5.79966 11.6331 5.24296C12.612 5.01921 12.7458 5.00325 13.6506 5.00216L14.4531 5.00115L14.5932 5.07997C14.7941 5.19289 15.3036 5.67697 15.4741 5.91684C15.554 6.0293 15.63 6.1261 15.643 6.13199C15.7107 6.16283 15.5782 5.69209 15.4543 5.46167C15.4115 5.38192 15.3844 5.30721 15.3941 5.29566C15.4211 5.26373 15.76 5.69085 15.7746 5.77509C15.8578 6.25522 15.9181 6.3779 15.9181 6.06704V5.90181L16.021 5.96234C16.1919 6.06286 16.165 5.94823 15.9145 5.50825C15.8457 5.3875 15.8013 5.28876 15.8158 5.28876C15.8303 5.28876 15.9538 5.31039 16.0903 5.33689C16.3601 5.38928 16.6524 5.38115 16.7651 5.31814C16.8715 5.25869 16.8512 5.2387 16.6632 5.21738C16.5686 5.20661 16.3365 5.14872 16.1473 5.08865C15.9582 5.02859 15.6773 4.93969 15.5232 4.8911C14.5056 4.57047 13.0504 4.6038 11.4214 4.98496C10.3332 5.23963 9.5406 5.2456 8.89916 5.00379C8.51696 4.85971 8.19582 4.57016 8.1589 4.33642C8.13719 4.19885 8.13979 4.19614 8.263 4.23008C8.50646 4.29705 8.62869 4.18599 8.8132 3.73027C9.1571 2.88077 9.15019 2.04677 8.79559 1.59625C8.67082 1.43776 8.6041 1.3942 8.66665 1.512ZM7.01624 3.78491C6.91821 4.02664 6.62916 4.37455 6.44067 4.47778C6.1567 4.63325 6.10387 4.63852 4.93636 4.62868C3.38046 4.61558 3.05227 4.71037 3.05227 5.17267C3.05227 5.77377 3.97396 6.23042 5.70185 6.4854C6.82253 6.65071 6.95428 6.74209 7.25051 7.55935L7.27797 7.63499L7.2794 7.55935C7.28723 7.14037 6.97606 6.66823 6.31329 6.09363C5.82577 5.67101 4.44264 5.1336 3.8548 5.13841C3.52707 5.14112 4.36953 5.54964 5.19235 5.78703C5.6427 5.91692 5.91767 6.02194 6.12109 6.1416C6.39886 6.30505 6.64964 6.53213 6.43428 6.42526C6.3624 6.38953 5.56541 6.20786 5.02669 6.1044C4.04812 5.91638 3.17762 5.36813 3.42878 5.09803C3.55166 4.96589 3.72195 4.94783 4.79744 4.95295C6.50022 4.96101 6.7776 4.82236 7.05159 3.82606C7.12327 3.56535 7.11107 3.55116 7.01624 3.78491ZM22.2745 4.69587C22.1832 4.74431 22.0896 4.86118 21.9935 5.04657C21.9292 5.17065 21.667 5.65729 20.7536 7.34738C20.5781 7.67211 20.2421 8.29198 20.0067 8.7249C19.5281 9.60541 19.1747 10.2634 18.7709 11.0257C18.4487 11.6339 18.008 12.4607 17.1893 13.9926C16.8601 14.6087 16.451 15.3784 16.2802 15.7031C15.4084 17.3605 15.3117 17.5347 15.2582 17.5443C15.2287 17.5497 15.2047 17.5712 15.2047 17.5923C15.2047 17.6134 15.1697 17.6677 15.1269 17.7129C15.0774 17.7655 15.0542 17.8138 15.063 17.8467C15.0867 17.9354 14.7109 18.3732 14.5392 18.4568L14.3959 18.5265L14.3781 18.7871C14.3436 19.2915 14.1654 20.1132 14.0198 20.4385C13.975 20.5387 13.9621 20.5962 13.9796 20.6171C13.9972 20.6379 13.9762 20.6865 13.9144 20.7677C13.5767 21.212 13.5573 21.9995 13.869 22.6093C13.9716 22.8099 13.9761 22.8432 13.899 22.8286C13.7323 22.7971 12.3151 22.6938 11.6507 22.6648C10.6706 22.6219 10.7717 22.7067 10.7717 21.9277C10.7717 21.1317 10.745 20.9575 10.4915 20.1063C10.2196 19.1929 10.0516 18.3724 9.89364 17.1865C9.76463 16.218 9.69485 15.7756 9.62343 15.4733C9.55286 15.1746 9.39829 14.7279 9.3544 14.6958C9.29309 14.6511 9.31944 15.1898 9.40586 15.7485C9.45484 16.0649 9.53004 16.5651 9.57308 16.8601C9.71585 17.8392 9.85744 18.5236 10.0442 19.1366C10.1555 19.5021 10.1559 19.4874 10.0361 19.4874C9.81642 19.4874 9.78413 19.465 9.67104 19.2337C9.61306 19.1151 9.4776 18.8479 9.36998 18.6397C8.95179 17.8308 8.88468 17.6781 8.80902 17.3633C8.71954 16.9913 8.71328 16.2294 8.79715 15.9301C8.83289 15.8025 8.67956 16.0545 8.58623 16.2767C8.32841 16.8908 8.47059 17.5009 9.17934 18.8214C9.67861 19.7515 9.71774 19.8712 9.58665 20.0663C9.36424 20.3977 9.42562 20.6344 9.80859 20.9221C10.0393 21.0955 10.1578 21.3675 10.1599 21.7289C10.1607 21.8845 10.2387 22.1566 10.3382 22.3513C10.3945 22.4612 10.4405 22.5601 10.4405 22.5709C10.4405 22.5817 8.32535 22.5864 5.74013 22.5814C3.15492 22.5763 1.02215 22.5839 1.00069 22.5983C0.978057 22.6133 1.5158 22.64 2.28084 22.6617C3.00635 22.6824 4.04714 22.712 4.59362 22.7276C6.08874 22.7701 7.43822 22.8138 8.79728 22.8639C12.8483 23.0129 13.9592 23.0326 14.0463 22.9568C14.0938 22.9156 14.0932 22.9105 14.024 22.7676C13.6777 22.0522 13.6192 21.5199 13.8323 21.0235C13.9063 20.8511 14.0346 20.6658 14.0646 20.6879C14.0781 20.6978 14.1882 20.5908 14.3093 20.4501C14.7255 19.9669 15.0656 19.6657 15.336 19.5412L15.4849 19.4725V19.2584C15.4849 18.9902 15.5436 18.7414 15.6128 18.7152C15.6468 18.7024 15.6632 18.6693 15.6632 18.614C15.6632 18.5548 15.6949 18.4984 15.7764 18.4126C15.8586 18.326 15.8825 18.2833 15.8636 18.2563C15.8452 18.23 15.8528 18.2039 15.8898 18.1662C15.9239 18.1315 15.9372 18.0908 15.9284 18.0487C15.9182 18.0005 16.0159 17.8117 16.3177 17.2966C16.86 16.3708 17.2576 15.6871 17.4557 15.3398C17.5459 15.1816 17.7257 14.8683 17.8553 14.6435C18.1283 14.17 20.4635 10.012 20.7968 9.40607C21.1112 8.83426 21.4414 8.23641 21.9 7.40791C22.1166 7.01668 22.3308 6.62839 22.376 6.54515C22.4212 6.46184 22.5634 6.20004 22.6921 5.96327C23.0226 5.35518 23.0459 5.27171 22.9523 5.03138C22.8331 4.72548 22.5153 4.56815 22.2745 4.69587ZM22.6573 4.89567C22.7679 4.9769 22.8812 5.25319 22.7861 5.20979C22.7007 5.17088 22.5019 5.4361 22.1595 6.04557C22.0706 6.20376 21.889 6.5171 21.756 6.74193C21.6229 6.96669 21.3653 7.40264 21.1835 7.71071C20.5736 8.74436 20.1173 9.47799 20.2421 9.2244C20.2708 9.16612 20.4489 8.7983 20.6379 8.40699C20.8269 8.01568 21.1166 7.42992 21.2817 7.10518C21.6399 6.40092 21.7853 6.10323 22.0868 5.45733C22.3848 4.81895 22.4566 4.74826 22.6573 4.89567ZM14.283 5.18305C14.228 5.24846 12.3594 5.67914 11.7653 5.76339L11.5997 5.78687L11.7526 5.80694C12.2454 5.87189 12.8785 5.81376 13.3146 5.66357C13.668 5.54189 14.4374 5.16864 14.3363 5.16794C14.3142 5.16778 14.2902 5.1746 14.283 5.18305ZM9.73991 5.97543C9.10551 6.02403 8.84085 6.15074 8.68073 6.48253C8.58329 6.68435 8.58701 6.70442 8.70173 6.59708C8.99268 6.32505 9.12378 6.28878 10.6571 6.05557C10.8393 6.02783 10.9992 5.9938 11.0125 5.97993C11.0348 5.95668 10.0309 5.95311 9.73991 5.97543ZM8.84072 6.96971C8.80041 7.14874 8.73624 7.26437 8.45624 7.6625C7.97798 8.34235 7.92717 8.78884 8.24219 9.54224C8.29098 9.6588 8.34054 9.78374 8.35241 9.81985L8.37407 9.88542L7.96148 9.88372C7.3413 9.88116 7.06313 9.98625 6.81236 10.3177C6.70507 10.4595 6.6709 10.5488 6.75216 10.4751C6.95252 10.2935 7.35271 10.1912 7.93905 10.1718C8.54827 10.1516 8.50425 10.1246 8.52433 10.5304C8.54247 10.895 8.57292 10.8192 8.57768 10.3976L8.58075 10.1327H8.79187C9.07923 10.1327 9.49573 10.0679 10.0584 9.93588C10.5996 9.80893 10.9063 9.7763 10.9985 9.83582C11.3196 10.0428 11.1763 10.5133 10.3865 11.8451C10.2292 12.1104 10.0242 12.4569 9.93101 12.6151C9.83781 12.7733 9.65285 13.0868 9.51993 13.3118C9.23817 13.7889 8.79983 14.6132 8.66391 14.9216L8.56914 15.1365L8.5497 15.0253C8.53901 14.9641 8.51227 14.8727 8.49029 14.8222C8.45109 14.7321 8.45201 14.7283 8.54279 14.6089C8.6746 14.4355 8.72358 14.2792 8.84992 13.6293C9.11543 12.2628 9.219 12.0316 9.93466 11.2074C10.1226 10.9909 10.315 10.7547 10.3623 10.6825L10.4483 10.5512L10.2215 10.6869C9.1198 11.346 8.79415 11.924 8.63162 13.5082C8.56236 14.1837 8.5242 14.364 8.42839 14.4681L8.353 14.5501L8.21134 14.4757C7.83261 14.2767 7.63531 14.4431 7.67842 14.9252C7.73934 15.6067 7.73047 15.6644 7.39511 16.7627C7.30197 17.0679 7.28149 17.3499 7.34939 17.3931C7.53663 17.5122 8.06473 16.7187 8.71015 15.3485C8.9422 14.8559 9.15065 14.4923 9.68702 13.6447C10.5286 12.3145 10.6362 12.1415 10.8644 11.7523C11.4381 10.7735 11.6011 10.2335 11.4403 9.84504C11.2656 9.42297 10.8513 9.35825 9.98358 9.61742C9.22565 9.8438 8.5726 9.94533 8.54631 9.84078C8.27937 8.77931 8.299 8.4996 8.68393 7.87718C8.93712 7.46789 9.0026 7.2243 8.9334 6.94979C8.89524 6.79866 8.87842 6.80231 8.84072 6.96971ZM5.98399 7.11836C6.1882 7.66692 6.25629 8.59013 6.17039 9.64447C6.10498 10.4465 6.14496 10.9302 6.32588 11.5252C6.55585 12.2816 6.54874 13.7043 6.3011 16.4902C6.23092 17.2794 6.23177 17.2851 6.33912 16.7475C6.3956 16.4645 6.48802 15.8923 6.54437 15.476C6.79214 13.6471 6.97926 13.0762 7.58933 12.2871C7.97753 11.785 8.11351 11.5197 8.15956 11.1746L8.17534 11.056L8.13653 11.1564C8.04803 11.3852 7.80332 11.6806 7.47246 11.9579C7.1791 12.2039 7.07396 12.3125 6.97535 12.4712L6.90491 12.5847L6.88808 12.4712C6.86265 12.2995 6.80538 12.0965 6.65381 11.6402C6.39377 10.8576 6.36723 10.6249 6.42821 9.66338C6.50204 8.50084 6.42038 7.91253 6.09317 7.24934C5.96019 6.97979 5.90997 6.91957 5.98399 7.11836ZM8.64434 11.0604C8.56171 11.3491 8.39572 11.6159 7.85139 12.3348C7.17812 13.224 6.81627 14.0675 6.67122 15.0858C6.6255 15.4068 6.60092 15.7248 6.63633 15.5366C6.80793 14.6249 7.28351 13.5249 7.89052 12.6356C8.41352 11.8692 8.55544 11.5943 8.65875 11.147C8.72208 10.8726 8.71321 10.8194 8.64434 11.0604ZM19.0175 11.5631C18.9499 11.6933 18.5244 12.4822 18.2297 13.0238C17.5092 14.3478 17.0138 15.2289 16.2825 16.4875C15.1368 18.4594 15.8821 16.9469 17.3702 14.2802C17.6523 13.7746 18.0653 13.0669 18.2618 12.7522C18.3556 12.6019 18.5667 12.2575 18.7308 11.9869C18.9963 11.5492 19.1186 11.3683 19.0175 11.5631ZM8.24076 14.7975C8.27656 14.8132 8.31426 14.8804 8.34902 14.991C8.43153 15.2529 8.42644 15.2662 8.21317 15.3506C7.98013 15.4429 7.98098 15.4438 7.98927 15.1053C7.99918 14.7028 8.0055 14.695 8.24076 14.7975ZM16.8829 15.8015C16.7702 16.0055 16.5752 16.3494 16.4494 16.5659C16.3237 16.7823 16.148 17.0889 16.0589 17.2471C15.9081 17.5151 15.7379 17.7739 15.7801 17.6709C15.7982 17.627 16.1656 16.9779 16.4612 16.4675C16.5408 16.3301 16.6706 16.1054 16.7496 15.968C17.1038 15.3522 17.1916 15.2425 16.8829 15.8015ZM8.28347 15.7409C8.14958 15.9773 7.71469 16.6719 7.7006 16.6719C7.69695 16.6719 7.72734 16.5777 7.76804 16.4624C7.8088 16.3472 7.86861 16.1342 7.90102 15.9891L7.95998 15.7251L8.11716 15.6576C8.20365 15.6204 8.3003 15.5684 8.332 15.5422C8.43466 15.4571 8.42735 15.4869 8.28347 15.7409ZM15.7302 18.0094C15.7898 18.0892 15.7583 18.0751 15.6165 17.9585C15.3994 17.78 15.3306 17.6889 15.5136 17.8223C15.6064 17.89 15.7039 17.9742 15.7302 18.0094ZM15.3996 17.845C15.6201 18.0084 15.7255 18.1055 15.6953 18.1174C15.6557 18.1331 15.3959 17.9669 15.2811 17.8523C15.1619 17.7334 15.2422 17.7284 15.3996 17.845ZM15.3002 18.3162C15.5517 18.5401 15.5946 18.6052 15.4403 18.5287C15.2649 18.4418 15.0009 18.1854 15.0009 18.102C15.0009 18.051 15.0078 18.0559 15.3002 18.3162ZM15.0662 18.439L15.1654 18.5409L14.7518 19.2791C14.1658 20.3249 14.1565 20.3409 14.1446 20.3268C14.1387 20.3197 14.1623 20.2535 14.1971 20.1797C14.3575 19.8386 14.5168 19.1479 14.5168 18.7934V18.6523L14.6633 18.5718C14.7439 18.5275 14.8385 18.4574 14.8735 18.416C14.9549 18.3197 14.9494 18.319 15.0662 18.439ZM15.2811 18.5947C15.2811 18.6033 15.2259 18.7021 15.1585 18.8142C15.0911 18.9264 14.9508 19.1612 14.8467 19.336C14.7425 19.5108 14.6028 19.7349 14.5362 19.834C14.3374 20.1293 14.397 20.0953 14.7015 19.7397C14.8591 19.5556 15.0365 19.3691 15.0958 19.3252C15.2299 19.2258 15.2629 19.165 15.3329 18.8878C15.4068 18.5955 15.4244 18.6318 15.3722 18.969C15.3491 19.1185 15.3369 19.2726 15.3451 19.3114C15.3583 19.3743 15.3398 19.3938 15.174 19.4916C14.9261 19.6379 14.7373 19.808 14.4085 20.1817C14.1092 20.5218 14.0783 20.5402 14.2438 20.2798C14.3039 20.1853 14.3678 20.0678 14.3858 20.0187C14.4038 19.9695 14.496 19.806 14.5908 19.6554C14.8485 19.2454 15.2047 18.6367 15.2047 18.606C15.2047 18.5912 15.2219 18.5792 15.2429 18.5792C15.2639 18.5792 15.2811 18.5862 15.2811 18.5947ZM10.2964 19.9546C10.3786 20.2124 10.3844 20.2068 10.1685 20.0785C9.96695 19.9587 9.86794 19.8529 9.93101 19.8248C10.2364 19.6881 10.2083 19.6781 10.2964 19.9546ZM10.3419 20.3951C10.4533 20.3964 10.5308 20.8175 10.5538 21.546C10.5625 21.8208 10.575 22.1001 10.5816 22.1667C10.6001 22.3537 10.5565 22.2158 10.4258 21.675C10.2826 21.0819 10.2526 21.0164 9.97993 20.7009C9.72974 20.4114 9.73052 20.4134 9.80455 20.2643L9.8564 20.1598L10.0784 20.2772C10.2005 20.3419 10.3191 20.3949 10.3419 20.3951Z" fill="black"/>
</svg>
