<svg width="24" height="24" viewBox="0 0 24 24" fill="none" xmlns="http://www.w3.org/2000/svg">
<g clip-path="url(#clip0_1842_2)">
<path fill-rule="evenodd" clip-rule="evenodd" d="M17.3609 0.540494C17.3459 0.548991 17.2661 0.65504 17.1833 0.776194C16.8509 1.26312 16.4082 1.82189 15.8869 2.41256C15.6275 2.70642 15.0624 3.30778 14.2703 4.13284C13.5648 4.86768 13.1443 5.34243 12.8769 5.70621C11.2778 7.88137 11.5926 9.35808 14.178 11.8098C14.5123 12.1268 14.5076 12.1154 14.3974 12.3531C14.1548 12.8761 13.9121 13.5358 13.7556 14.0979C13.5992 14.6593 13.5573 14.8439 13.441 15.4825C13.3372 16.0526 13.2328 16.9818 13.1638 17.9475C13.134 18.3659 13.0744 18.9448 13.0418 19.1328C12.9593 19.6097 12.9643 19.5854 12.8885 19.8881C12.6161 20.9771 12.0875 21.704 11.34 22.0178C11.054 22.1379 11.016 22.1637 11.016 22.2377C11.016 22.3466 11.0884 22.3745 11.3606 22.3705C12.1991 22.3582 12.9973 21.8694 13.6329 20.979C14.0249 20.4299 14.2327 19.8911 14.4987 18.7342C14.6233 18.192 14.9021 17.1989 15.0256 16.8566C15.0382 16.822 15.1014 16.6379 15.1663 16.4475C15.2311 16.2571 15.2999 16.0589 15.3191 16.007C15.5725 15.3244 15.7239 14.9485 15.906 14.5499C15.978 14.3923 15.9864 14.3999 16.2447 14.8572C16.3771 15.0915 16.5275 15.3493 16.5789 15.43C16.6303 15.5108 16.7078 15.6335 16.7512 15.7028C16.7945 15.772 16.9056 15.9466 16.9982 16.0909C17.0907 16.2351 17.2042 16.4145 17.2502 16.4895C17.2963 16.5645 17.3421 16.6353 17.3519 16.6468C17.3617 16.6584 17.4214 16.7528 17.4847 16.8566C17.5479 16.9605 17.6468 17.1187 17.7045 17.2083C17.8184 17.3853 17.8792 17.4813 17.9999 17.6748C18.043 17.744 18.0862 17.8101 18.0959 17.8216C18.1233 17.8545 18.4154 18.3641 18.5496 18.6133C18.8376 19.148 19.0607 19.6946 19.1513 20.0874C19.1672 20.1566 19.1922 20.2605 19.2068 20.3182C19.2455 20.4721 19.2433 21.1107 19.2034 21.2517C19.1154 21.5627 19.0226 21.7418 18.8373 21.9589C18.575 22.2659 18.86 22.3492 19.2106 22.0679C20.2083 21.2675 20.318 19.7798 19.5095 18.0168C19.4549 17.8979 19.4019 17.7771 19.3915 17.7482C19.3811 17.7194 19.3328 17.6014 19.2841 17.486C19.1954 17.2756 18.7949 16.268 18.7297 16.0909C18.7105 16.039 18.6634 15.9115 18.625 15.8077C18.3616 15.0953 18.08 14.2966 18.0484 14.1718C18.0163 14.0457 17.9126 13.5042 17.8814 13.3007C17.7038 12.1407 17.5286 11.6337 17.1561 11.2016C16.9249 10.9334 16.7401 10.8132 16.092 10.5098C15.0614 10.0272 14.686 9.25366 14.7739 7.79368C14.8858 5.93541 16.8707 4.09854 20.4106 2.5775C20.8869 2.37285 20.941 2.34076 20.9138 2.27882C20.8892 2.22285 20.8162 2.21971 20.5743 2.26424C19.1717 2.52228 17.4069 3.15285 15.9509 3.91623C15.5914 4.10472 15.5915 4.10268 15.978 3.59257C16.1463 3.37046 16.3072 3.15805 16.3355 3.12055C17.0951 2.11654 17.7214 0.816945 17.5672 0.56504C17.5417 0.523501 17.4169 0.508659 17.3609 0.540494ZM16.7035 2.01873C16.6401 2.12824 16.4227 2.46742 16.332 2.59833C16.1719 2.82941 16.0456 2.99997 15.623 3.55591C15.3511 3.91361 15.0902 4.25903 15.0431 4.32348C14.9467 4.45565 14.8737 4.51046 14.448 4.77039C14.283 4.87114 14.0725 5.00493 13.9802 5.06766C13.7177 5.24619 13.7078 5.22097 13.9368 4.95763C14.149 4.71364 15.0522 3.74163 15.3256 3.46303C15.5806 3.20331 16.453 2.22931 16.7014 1.92721C16.7912 1.81785 16.7923 1.86516 16.7035 2.01873ZM1.008 2.36058C0.736137 2.39614 0.671997 2.41948 0.671997 2.48284C0.671997 2.54289 0.738117 2.55936 0.980997 2.55957C1.98816 2.56051 2.88552 3.29834 3.44298 4.58389C3.49302 4.69927 3.5427 4.81256 3.55338 4.83563C3.60918 4.95605 3.80808 5.52249 3.94746 5.95801C4.33626 7.17264 4.48416 7.45513 4.99716 7.96271C5.82252 8.77943 5.9823 9.60978 5.40696 10.0929C5.33052 10.1571 5.1726 10.2891 5.05608 10.3863C4.59672 10.7691 4.29 11.2533 4.13808 11.8357C3.9699 12.48 3.636 12.7043 2.676 12.8179C2.11104 12.8848 1.94532 12.9314 1.77984 13.0698C1.50744 13.2976 1.635 13.6865 2.04162 13.8678C2.4252 14.0389 3.08016 14.1067 3.87252 14.0575C4.35006 14.0279 4.30866 14.0087 4.2615 14.2376C4.10934 14.9756 3.88614 15.5105 3.44442 16.1958C2.94576 16.9694 2.81148 17.271 2.65056 17.979C2.58804 18.2539 2.53494 18.42 2.3655 18.8706C1.6023 20.8997 1.60638 21.837 2.38044 22.2808C2.80146 22.5222 3.06348 22.4283 2.83326 22.1186C2.43804 21.5869 2.56824 20.7404 3.25224 19.3951C3.65052 18.6117 3.92628 18.1733 4.63116 17.2028C4.81134 16.9547 5.01054 16.6781 5.07384 16.5881C5.21328 16.3898 5.21718 16.3904 5.30706 16.6263C5.39082 16.8462 5.49072 17.0905 5.52132 17.1503C5.57712 17.2592 5.84598 17.8257 5.94198 18.0367C6.00108 18.1664 6.08772 18.393 6.13458 18.5402C6.18138 18.6873 6.26322 18.9445 6.31638 19.1119C6.9081 20.9737 7.79262 22.0127 8.7891 22.0164C9.19716 22.0179 9.27444 21.9365 8.96826 21.8275C8.42352 21.6338 8.01336 21.1243 7.62666 20.1608C7.5873 20.0627 7.54614 19.9542 7.53522 19.9195C7.52436 19.8849 7.47666 19.7386 7.42926 19.5944C7.31256 19.2391 7.21458 18.7706 7.15284 18.2727C7.07706 17.6619 7.00314 17.114 6.9816 17.0035C6.91806 16.6774 6.8766 16.4941 6.7917 16.1643C6.67314 15.7034 6.62052 15.4164 6.5751 14.9821C6.51906 14.4464 6.52326 14.4344 6.76656 14.4339C7.18332 14.433 8.1555 14.1887 8.45172 14.0103C8.48676 13.9893 8.52276 13.972 8.53176 13.972C8.57886 13.972 8.92134 13.7405 9.01062 13.6484C9.33738 13.3113 9.23736 12.9118 8.796 12.7915C8.577 12.7317 8.48964 12.7264 7.71102 12.7251C6.82224 12.7235 6.897 12.7423 6.83196 12.5045C6.64764 11.8306 6.9522 10.8095 7.67376 9.68179C8.10516 9.00763 8.21526 8.62875 8.10048 8.21326C8.04888 8.02644 8.04852 8.02738 8.16348 8.04348C8.57616 8.10118 8.64414 8.43999 8.49426 9.69228C8.30658 11.26 8.78682 12.4026 9.69546 12.5503C9.94758 12.5913 9.99936 12.5015 9.792 12.3829C9.3855 12.1506 9.14118 11.5683 9.13854 10.8251C9.1368 10.3557 9.1935 9.99254 9.40038 9.14682C9.48306 8.80885 9.49434 8.22065 9.42258 7.99303C9.20856 7.31431 8.8299 7.09219 7.60188 6.92509C7.51272 6.91298 7.36152 6.89237 7.26588 6.87936C6.82836 6.81973 6.38184 6.73366 6.2823 6.68971C6.25938 6.67959 6.22416 6.6713 6.204 6.6713C6.18384 6.6713 6.14862 6.66285 6.1257 6.65252C6.10278 6.64219 5.9976 6.59824 5.892 6.55481C5.39724 6.35132 5.08308 6.01822 4.82442 5.42305C3.9129 3.32562 2.47194 2.16931 1.008 2.36058ZM11.496 3.52109C10.6134 3.64271 10.0878 4.54088 10.471 5.27257C10.9237 6.13686 12.3272 6.2417 12.9339 5.45656C13.6459 4.53521 12.7628 3.34649 11.496 3.52109ZM6.30672 4.49882C5.00634 4.8927 5.16798 6.51716 6.52482 6.69049C7.7733 6.85004 8.49714 5.47707 7.55676 4.7332C7.22148 4.46798 6.7194 4.37383 6.30672 4.49882ZM14.8509 12.4701C15.1435 12.7615 15.3452 13.0621 15.5701 13.5419C15.6674 13.7496 15.7592 13.945 15.7742 13.9761C15.7946 14.0183 15.7946 14.0449 15.7743 14.081C15.7108 14.194 15.5581 14.524 15.4221 14.8426C15.2292 15.2944 14.9627 16.0259 14.7573 16.6678C14.7425 16.714 14.7214 16.7753 14.7103 16.8042C14.6991 16.833 14.6519 16.9841 14.6052 17.1398C14.5585 17.2956 14.5103 17.4561 14.4981 17.4965C14.359 17.955 14.2115 18.5353 14.1355 18.923C13.8785 20.234 13.1498 21.3797 12.2819 21.8371C12.1832 21.8891 12.1146 21.8898 12.1709 21.8382C12.5849 21.4589 12.9227 20.868 13.1419 20.1398C13.1812 20.0093 13.1916 19.9685 13.2458 19.7307C13.3546 19.2541 13.4324 18.6441 13.4877 17.8321C13.5259 17.2727 13.6631 16.0161 13.7162 15.7399C13.7223 15.708 13.7549 15.5307 13.7885 15.3461C13.8221 15.1615 13.8667 14.9397 13.8877 14.8531C13.9087 14.7666 13.9306 14.6722 13.9363 14.6433C14.0044 14.2978 14.2774 13.441 14.4678 12.9755C14.722 12.3537 14.7272 12.3469 14.8509 12.4701ZM8.58162 13.009C9.1497 13.1005 8.88342 13.5102 8.256 13.5099C7.81632 13.5097 7.01052 13.1561 7.1145 13.0091C7.13658 12.9779 8.38836 12.9778 8.58162 13.009ZM3.10854 13.1612C3.42708 13.2512 4.2948 13.6598 4.27788 13.7119C4.23018 13.8581 2.81448 13.8455 2.32296 13.6944C1.48734 13.4376 2.25138 12.919 3.10854 13.1612ZM4.944 14.0456C5.14962 14.1496 5.34288 14.2228 5.736 14.3456C5.80992 14.3687 5.87136 14.4014 5.87562 14.42C5.9028 14.5386 5.46822 15.4249 5.11278 15.9755C4.89618 16.3109 4.77552 16.4839 4.3005 17.1398C3.84006 17.7755 3.70074 17.9795 3.49782 18.3147C3.25764 18.7114 3.2247 18.7682 3.14484 18.923C3.10026 19.0096 3.02718 19.1501 2.98242 19.2353C2.50722 20.1405 2.28858 20.8711 2.30886 21.4861C2.32074 21.8469 2.31546 21.8647 2.23752 21.7245C2.11968 21.5125 2.07612 21.0932 2.13618 20.75C2.17812 20.5103 2.21202 20.3416 2.2335 20.2657C2.2449 20.2253 2.26974 20.1356 2.2887 20.0664C2.34402 19.8643 2.42286 19.6139 2.47044 19.4895C2.49468 19.426 2.5524 19.2702 2.59872 19.1433C2.64504 19.0164 2.72676 18.7945 2.78028 18.6503C2.8338 18.5061 2.91024 18.2465 2.95008 18.0734C3.10032 17.4214 3.27834 17.015 3.6963 16.3702C4.13826 15.6883 4.40826 15.0654 4.53576 14.4335C4.57056 14.261 4.63374 13.9829 4.64418 13.9563C4.66152 13.9122 4.70706 13.9258 4.944 14.0456Z" fill="#090909"/>
</g>
<defs>
<clipPath id="clip0_1842_2">
<rect width="24" height="24" fill="white"/>
</clipPath>
</defs>
</svg>
