<svg width="264" height="264" viewBox="0 0 264 264" fill="none" xmlns="http://www.w3.org/2000/svg">
    <path
        d="M198.412 19.4906C197.897 20.857 198.696 22.2234 200.862 23.5898L202.486 24.621L201.403 24.8015C199.47 25.1366 198.773 25.8585 198.773 27.5601C198.773 28.2304 198.67 28.282 197.175 28.5656C196.298 28.7202 195.473 28.9781 195.319 29.1327C195.112 29.339 195.241 29.339 195.731 29.1585C196.118 29.0038 197.562 28.7718 198.954 28.6429C200.346 28.4882 202.383 28.2046 203.491 27.9726C204.6 27.7663 206.044 27.5859 206.662 27.5859C207.281 27.5859 207.797 27.4827 207.797 27.3538C207.797 26.8898 205.502 26.8124 202.77 27.1991C199.315 27.689 199.547 27.689 199.547 27.0702C199.547 26.1679 200.578 25.807 203.93 25.5234C207.874 25.1882 208.467 25.3687 209.602 27.0187C210.066 27.689 210.375 28.0499 210.298 27.8179C210.22 27.5601 210.014 26.9413 209.859 26.3741C209.447 25.0335 209.137 24.6726 207.823 24.0023C207.204 23.6671 206.25 23.0999 205.709 22.6874C205.141 22.3007 203.93 21.6562 202.95 21.2695C201.996 20.8827 201.042 20.4445 200.836 20.2898C200.501 20.032 200.501 20.0577 200.836 20.4187C201.042 20.6507 202.151 21.321 203.311 21.8882C204.445 22.4812 205.657 23.2288 205.992 23.5898L206.585 24.2343H205.322C202.898 24.2343 198.567 21.1921 198.851 19.6968C198.98 19.0007 198.645 18.846 198.412 19.4906Z" />
    <path
        d="M209.498 29.0039C209.602 29.4164 209.937 30.5249 210.272 31.4273C210.968 33.2578 211.071 35.2429 210.53 35.9906C210.169 36.4804 210.117 36.4546 207.359 35.7843C205.837 35.3976 204.033 35.0109 203.388 34.9078C202.151 34.7531 201.377 34.4179 201.661 34.1601C201.738 34.0828 202.873 33.7734 204.187 33.5156C205.502 33.2578 206.611 32.9742 206.688 32.9226C206.972 32.6132 200.733 32.1749 198.387 32.3296C194.545 32.6132 194.03 32.5874 193.076 32.0976C191.993 31.5304 191.323 31.5304 188.667 32.2265C183.356 33.5671 180.804 34.6499 177.117 37.1249C175.905 37.9242 171.265 40.7601 166.805 43.4414C156.312 49.7062 155.358 50.3507 147.108 57.2085C145.2 58.7812 145.097 58.8328 144.633 58.3945C143.112 57.0281 141.539 53.1351 141.539 50.8148C141.539 50.1703 141.771 48.2882 142.055 46.664C142.699 42.9515 142.751 40.4765 142.209 38.6203C141.797 37.1507 140.327 34.6757 139.863 34.6757C139.734 34.6757 139.322 34.4695 138.961 34.2374C137.156 33.0257 135.79 32.639 133.289 32.6132C130.479 32.6132 129.731 32.9226 126.302 35.3718C121.92 38.4914 117.073 39.8578 114.082 38.8007C113.541 38.5945 113.025 38.4914 112.973 38.5429C112.896 38.6203 112.999 39.1617 113.18 39.8062C113.902 42.4359 115.165 43.4414 117.485 43.2609L118.852 43.132L118.877 45.2203C118.903 46.3804 118.903 47.4117 118.852 47.5664C118.826 47.7468 118.903 47.7468 119.058 47.5664C119.264 47.3601 120.656 42.4359 120.656 41.9203C120.656 41.8429 120.837 41.7656 121.043 41.7656C122.048 41.7656 124.549 40.6054 126.818 39.0843C128.184 38.1562 129.654 37.2796 130.066 37.1507L130.84 36.8671L130.066 37.4343C128.416 38.6718 126.766 40.3734 126.405 41.1984C125.761 42.7195 126.405 43.7249 128.674 44.8851C129.473 45.2718 130.582 46.1226 131.149 46.7671L132.18 47.9273L133.16 46.1484C134.552 43.596 136.048 43.0804 136.976 44.8593C137.337 45.5296 137.414 46.1226 137.311 47.1539C137.156 48.7781 136.615 49.6804 135.274 50.4023L134.32 50.9179V53.1867C134.32 55.6617 134.733 58.9359 135.145 59.5546C135.352 59.864 135.274 55.1976 135.016 51.5882C134.965 51.0726 135.12 50.9179 135.79 50.7374C136.512 50.557 137.646 49.5257 138.033 48.6749C138.136 48.4687 138.239 48.4429 138.316 48.6234C138.394 48.7523 138.987 49.8093 139.631 50.9437C142.261 55.4812 143.859 58.5234 143.859 58.9617C143.834 59.3484 140.585 62.1328 140.147 62.1328C140.07 62.1328 139.992 61.4882 139.992 60.689C139.992 59.2968 140.018 59.2195 141.359 57.9562C142.88 56.4867 142.596 56.564 140.508 58.1367C137.93 60.1218 135.48 62.6999 134.784 64.1953C134.14 65.6132 134.14 65.6132 131.381 66.8507C129.86 67.5468 128.571 68.0624 128.494 68.0109C128.442 67.9335 128.313 67.3406 128.236 66.696L128.055 65.4843H131.072C132.722 65.4843 134.062 65.3812 134.062 65.2523C134.062 64.8914 132.645 64.7109 129.963 64.7109H127.488L127.566 66.5929L127.669 68.4749L126.302 68.7843C125.529 68.9648 123.337 69.3257 121.43 69.6093C116.763 70.3312 114.366 71.0015 111.71 72.3421C109.493 73.4765 107.998 74.5335 106.167 76.2609L105.213 77.1632L102.429 76.8796C99.3094 76.5445 96.5508 76.4929 95.0039 76.7507C94.0242 76.9054 94.1273 76.957 96.4219 77.3695C97.7625 77.6273 100.031 77.9109 101.449 78.014L104.053 78.1945L102.867 79.3289C101.243 80.9273 102.274 80.3343 106.141 77.4468C111.452 73.4765 113.283 72.6773 120.605 71.2851C125.967 70.2281 128.494 69.3773 133.805 66.8507C139.76 63.989 144.504 60.9726 150.176 56.4351C155.023 52.5421 161.958 47.721 167.191 44.6015C168.48 43.8281 171.832 41.6367 174.668 39.7289C177.504 37.8468 180.546 35.939 181.397 35.5265C182.273 35.114 184.929 34.2632 187.327 33.6187C191.58 32.4843 191.658 32.4843 192.56 32.8968C193.076 33.1546 194.184 33.4124 195.035 33.4898C197.613 33.7476 196.814 34.1601 193.359 34.3406C190.652 34.4695 186.527 35.114 186.192 35.4492C186.141 35.5007 186.553 35.6812 187.12 35.8617C187.945 36.0937 188.512 36.0937 190.034 35.7843C191.142 35.5523 192.998 35.4234 194.391 35.4492C196.505 35.5007 197.098 35.6039 198.645 36.2999L200.449 37.1249L199.47 36.2742C198.954 35.8359 198.516 35.3718 198.516 35.2687C198.516 35.1656 199.16 34.9593 199.959 34.8046C201.816 34.4179 202.228 34.7015 201.506 35.9132C201.248 36.3773 200.733 37.2539 200.372 37.8984C198.284 41.5851 195.37 45.5296 191.477 49.964C188.951 52.7999 185.109 56.5382 184.903 56.332C184.826 56.2804 185.316 55.4812 185.96 54.5789L187.146 52.9031L183.408 54.8109C179.695 56.6929 176.163 58.8585 174.152 60.457C173.585 60.8953 172.657 61.6171 172.09 62.0296L171.059 62.7773L172.09 61.3593C172.631 60.5859 173.302 59.6578 173.559 59.3226C174.152 58.5492 174.075 58.4718 173.044 58.7554C171.187 59.2968 167.062 59.864 163.479 60.0445C159.998 60.2507 159.483 60.3281 157.446 61.1531C156.209 61.6429 155.203 62.0296 155.203 61.9781C155.203 61.9523 156.982 60.7406 159.148 59.271C164.175 55.8937 167.681 53.1867 171.265 49.8867C173.869 47.5148 175.235 46.1226 179.592 41.5078C180.34 40.7343 181.345 39.7031 181.835 39.2132C182.738 38.3624 182.789 38.3624 183.382 38.7492C183.923 39.1101 184.027 39.4195 184.181 41.1726C184.387 43.4156 184.723 44.6789 185.187 45.0914C185.522 45.3492 185.419 43.1835 184.98 40.0124L184.826 38.9296H187.12L186.759 39.8835C186.398 40.9406 186.321 44.1632 186.63 44.9882C186.785 45.3749 186.888 45.2203 187.017 44.2148C187.12 43.4929 187.584 41.9718 188.023 40.8632C188.667 39.2906 189.054 38.6718 189.724 38.2078L190.627 37.6148L189.157 37.7695C188.358 37.8468 187.043 37.9499 186.27 38.0273C185.496 38.1046 184.336 38.0273 183.691 37.8726C182.583 37.589 182.557 37.589 180.984 38.8007C178.561 40.657 175.725 43.1578 169.125 49.1906C163.066 54.7335 155.77 60.9468 153.295 62.6742C152.084 63.5249 147.159 66.2835 138.059 71.2851C136.073 72.3679 130.453 75.2296 125.555 77.6531C117.253 81.7523 116.583 82.139 115.113 83.6343C113.953 84.7945 113.36 85.6195 112.948 86.7281C112.638 87.5531 112.432 88.3523 112.458 88.4554C112.509 88.5843 113.025 88.0429 113.644 87.2437C114.262 86.4445 114.83 85.8773 114.907 85.9546C115.062 86.1093 114.211 91.6265 113.953 92.039C113.644 92.5289 108.539 93.8437 106.992 93.8437C106.167 93.8437 105.136 93.6374 104.517 93.3539C103.357 92.8124 101.965 91.2914 101.707 90.2601C101.269 88.4554 100.134 87.8882 99.3352 89.0999L98.8969 89.796L97.9172 88.6874C97.2984 88.0171 96.757 86.9859 96.4477 86.0062L95.9578 84.4335L95.932 86.4703C95.9063 88.9453 96.2156 90.1312 97.5047 92.271C98.3297 93.6375 98.4844 94.1273 98.4844 95.3648C98.4586 96.5765 98.4328 96.7312 98.175 96.2929C98.0203 96.0093 97.5047 95.3132 97.0406 94.746C96.2156 93.689 94.8234 91.1109 94.2047 89.4609C93.457 87.4242 93.8953 89.7445 94.7203 92.0906C95.1844 93.4828 95.4937 94.6171 95.3648 94.6171C95.2617 94.6171 95.0812 94.514 95.0039 94.3593C94.9266 94.2304 94.2305 93.7148 93.5086 93.2249C91.1109 91.6265 90.8016 90.621 91.0078 85.4132L91.1109 83.0414L91.6008 83.8148C91.8844 84.2273 92.168 84.5367 92.2195 84.4593C92.4 84.2789 90.6211 80.5921 89.7187 79.2773C88.5328 77.5499 87.9398 76.0546 87.5273 73.7601C86.9859 70.7179 86.2641 69.5062 84.0469 68.0367C83.5828 67.7273 83.918 67.7789 85.207 68.2171C87.0375 68.8359 87.7078 68.8101 88.4555 68.1656C88.8164 67.8562 89.0742 68.0367 90.6469 69.6609C91.6266 70.6921 92.7352 71.9554 93.1219 72.4453L93.818 73.3476L93.3539 72.0585C92.4516 69.5835 92.4258 69.6867 93.5086 69.532C94.05 69.4546 94.6945 69.3257 94.9523 69.2226C95.3391 69.0679 95.3906 69.1968 95.3906 70.2023C95.3906 70.8726 95.5453 71.7234 95.7 72.1101C96.0867 72.9867 98.175 76.3124 98.3555 76.3124C98.407 76.3124 97.943 75.2554 97.3242 73.9406C95.6484 70.5374 95.7 70.2539 98.175 68.3976C100.908 66.3351 101.372 64.9687 99.6445 63.8343C98.768 63.2671 98.407 63.5765 99.2062 64.1953C99.5156 64.4531 99.7734 64.7624 99.7734 64.8914C99.7734 65.2523 98.0976 66.1031 95.9578 66.8765C93.4312 67.7789 91.9617 67.7531 89.8219 66.7734C88.3266 66.1031 88.1719 66.0773 88.3008 66.5156C88.7648 67.9851 84.4852 67.7531 82.8609 66.232C81.9844 65.407 82.0875 64.8914 83.2734 64.0921C85.4906 62.6226 85.9289 60.3796 84.6398 56.9765C83.7375 54.4757 83.9695 54.321 87.218 55.3523C87.8883 55.5585 88.4297 55.8164 88.4297 55.9453C88.4297 56.0484 88.1977 56.6671 87.8883 57.3374C87.1406 59.0648 87.45 59.4257 88.3266 57.8273C88.7391 57.0796 89.1516 56.4609 89.2805 56.4609C89.3836 56.4609 89.6156 56.7445 89.7703 57.1054C90.0281 57.6726 89.9766 57.8531 89.3836 58.4718C88.9969 58.8843 88.6875 59.271 88.6875 59.3742C88.6875 59.7093 90.3375 59.5546 91.0078 59.1679C92.2195 58.4718 92.6836 58.3171 94.3078 58.1367L95.9578 57.9562L95.8547 58.9359C95.8031 59.7093 95.8805 59.9414 96.2156 60.0187C96.6281 60.096 96.6539 59.9671 96.4992 58.8585C96.4219 58.1882 96.3187 57.5695 96.2672 57.5179C96.2156 57.4664 95.0555 57.5695 93.6633 57.7499L91.1367 58.0593L90.6211 57.3374C89.2805 55.4554 88.4812 54.9914 85.3359 54.2953C84.8977 54.2179 84.5367 53.8054 84.1758 53.0578C83.557 51.7687 82.7062 51.0984 81.4172 50.8921C79.9992 50.6601 78.7617 50.9695 77.8852 51.7945C76.8539 52.7742 76.8539 53.3671 77.8852 52.4906C78.375 52.0781 78.968 51.8203 79.4836 51.8203L80.3086 51.846L79.2773 52.4132C78.4008 52.8773 78.3234 52.9804 78.7875 53.0578C80.2828 53.2898 80.7984 55.5585 79.7156 57.2859C79.432 57.7499 78.2203 58.8328 77.0602 59.6835C74.1984 61.7718 73.7086 62.6999 73.7859 65.8195C73.8375 67.057 73.7859 68.0624 73.6828 68.0624C73.425 68.0624 71.9297 65.6906 71.9297 65.2523C71.9039 64.4015 71.1305 66.3351 70.9758 67.6242L70.8211 68.9648L70.357 67.9335C69.7383 66.5929 69.7641 65.1234 70.3828 63.6796L70.8984 62.5195L69.9961 63.5249C69.5062 64.0664 68.9391 64.9945 68.707 65.5874L68.3203 66.6445L68.4234 65.4843C68.5008 64.8398 68.6297 64.0664 68.707 63.8085C68.7844 63.5249 68.6555 63.7054 68.3977 64.1953C67.8305 65.407 67.8305 67.9078 68.4234 69.0937C68.6812 69.5835 69.3 70.4343 69.8156 70.9499C70.6406 71.8265 70.6922 71.9812 70.4344 72.5742C69.5836 74.4046 70.3312 75.8484 72.5742 76.8539C73.2187 77.1374 73.7344 77.4468 73.7344 77.5242C73.7344 77.6015 73.0898 77.6015 72.3164 77.5499C71.543 77.4726 70.8984 77.4984 70.8984 77.6015C70.8984 77.6789 71.4914 78.4007 72.1875 79.1999C73.7344 80.9273 75.3586 81.6234 77.318 81.3656C77.9625 81.2882 79.3805 81.1335 80.4375 81.0046C82.8352 80.721 83.3766 80.4374 84.3047 78.9937L85.0266 77.8335L86.8312 79.5093C88.6102 81.1851 90.2344 83.7117 90.2344 84.7687C90.2344 85.0523 89.8734 86.1609 89.4609 87.2179C88.3523 89.9765 88.4039 91.6523 89.5898 94.0242C90.2086 95.2359 91.0336 96.3445 92.2195 97.4789L93.9727 99.1546L92.1422 100.985C89.8219 103.228 88.9195 104.93 88.7391 107.353L88.6102 109.132L86.6508 110.009C85.568 110.498 82.6547 111.865 80.1797 113.051C72.0328 116.918 67.7531 118.619 63.4219 119.677C60.0703 120.527 54.6562 120.45 50.0156 119.522C45.143 118.516 41.3531 118.387 38.0273 119.084C31.9945 120.321 26.0906 124.523 21.1664 131.072C18.9492 134.062 18.6656 134.604 20.393 132.644C22.5328 130.169 25.7297 127.179 28.1016 125.4C30.6023 123.518 34.6758 121.404 37.125 120.734C39.6516 120.037 45.1945 120.115 48.5977 120.888C56.7961 122.719 60.8953 122.59 67.8047 120.244C73.0898 118.439 80.5148 114.701 85.9805 111.143C87.3984 110.215 88.6102 109.416 88.6875 109.364C88.7648 109.338 89.0484 109.905 89.332 110.653C90.0281 112.612 91.7812 114.288 93.5859 114.727C95.468 115.191 98.9484 114.907 100.418 114.211C101.037 113.927 102.455 112.716 103.589 111.53L105.652 109.364L106.296 110.834C107.585 113.747 107.895 115.036 107.895 117.434C107.895 119.496 107.817 119.883 107.198 120.94C106.451 122.229 104.723 123.905 102.841 125.168C97.35 128.88 94.8234 130.969 93.0961 133.134C90.3633 136.589 89.2289 139.502 89.0227 143.679L88.868 146.463L87.9398 147.159C86.3414 148.319 86.4187 148.319 89.0742 147.082C92.9156 145.329 96.293 143.369 101.191 140.121C107.869 135.712 109.802 134.527 109.467 135.068C109.055 135.712 109.828 135.248 112.02 133.521C114.159 131.819 113.902 132.103 109.029 137.053C106.116 140.018 103.151 143.189 102.48 144.117C96.0352 152.728 83.3766 162.138 68.8875 169.048C64.582 171.11 59.1164 173.379 47.5664 177.942C40.4766 180.752 36.6352 182.557 31.1437 185.677C27.7664 187.584 28.1531 187.636 31.8914 185.78C37.5891 182.944 42.9773 180.727 50.0156 178.277C52.3617 177.478 54.5016 176.679 54.7852 176.55C55.7391 176.06 54.8109 176.756 51.9492 178.716C50.4023 179.773 46.9477 182.119 44.2664 183.923C41.6109 185.728 39.4453 187.249 39.4453 187.301C39.4453 187.43 41.3531 186.424 47.0508 183.202C49.3195 181.938 52.7742 180.005 54.7336 178.896C58.1367 176.988 64.6594 173.894 64.8656 174.075C65.0203 174.23 56.5383 180.52 52.207 183.459C46.3805 187.378 42.2039 190.291 41.8945 190.601C41.7656 190.73 42.2812 190.498 43.0547 190.085C43.8281 189.647 46.0711 188.461 48.0305 187.455C51.2531 185.754 57.9047 181.474 62.5195 178.123C64.2984 176.859 69.0937 173.559 69.8672 173.121C70.7695 172.58 69.3773 173.92 66.9023 175.957C64.1437 178.226 59.8641 181.294 54.5789 184.852C52.8 186.037 51.3562 187.043 51.382 187.094C51.4336 187.12 52.0781 186.94 52.8516 186.656C53.625 186.398 55.8937 185.651 57.8789 185.032C67.4695 181.964 75.1266 177.633 83.0156 170.827C86.4445 167.862 92.8641 161.416 95.2102 158.555C97.8141 155.409 97.8141 155.384 97.3242 156.75C96.3445 159.328 93.7922 164.33 91.5234 168.094C89.1258 172.09 81.5461 183.614 80.1539 185.393C78.6844 187.249 79.4578 186.682 81.9328 184.052C88.6875 176.937 93.5859 170.62 98.0977 163.247C98.6391 162.37 99.1289 161.674 99.1805 161.726C99.232 161.777 98.6906 163.066 97.9687 164.587C92.993 175.261 86.1867 183.537 76.957 190.137C73.8891 192.328 73.6828 192.328 75.668 190.24C77.4727 188.332 78.9164 186.502 78.4781 186.682C76.9828 187.327 64.4273 195.963 61.1016 198.644C51.1758 206.662 40.8117 216.898 37.9758 221.512L37.0477 223.008L35.9648 222.002C35.3719 221.461 34.5469 220.791 34.1344 220.533C33.7219 220.275 33.1289 219.837 32.8195 219.579L32.2523 219.063L34.3922 216.717C37.2023 213.623 38.8523 211.406 43.5187 204.419C47.9016 197.845 49.1648 196.169 51.3562 194.107C53.5734 192.019 55.3008 191.091 58.9102 190.008C64.4273 188.358 69.9187 185.367 75.668 180.855C78.3492 178.767 83.6344 174.281 83.4281 174.281C83.3508 174.281 82.2164 174.952 80.9016 175.777C75.1008 179.437 64.8656 184.542 56.5898 187.945C53.7539 189.105 49.9898 190.704 48.2109 191.477C46.432 192.251 44.1375 193.256 43.132 193.694C42.1008 194.133 41.3016 194.519 41.3531 194.597C41.4305 194.674 46.8961 193.153 51.0727 191.89C51.3047 191.838 50.3508 192.921 48.9844 194.313C47.025 196.298 45.7875 197.897 43.1836 201.867C34.418 215.248 31.7109 218.857 29.5453 219.966C28.7461 220.378 28.4109 220.43 27.9211 220.198C26.9414 219.759 25.2141 219.862 24.2859 220.43C23.1773 221.1 22.5586 222.183 21.7336 224.812C20.9344 227.416 20.1094 228.705 18.0727 230.51C17.2219 231.258 16.5 232.109 16.4227 232.444C16.3711 232.779 16.3969 233.062 16.5 233.062C16.5773 233.062 17.7633 232.134 19.1039 230.974C20.4445 229.84 21.7336 228.783 21.9656 228.654C22.6875 228.267 23.2547 229.402 23.2547 231.258C23.2547 232.65 23.0742 233.191 21.8883 235.641C20.7281 238.064 20.4703 238.425 20.0836 238.219C18.975 237.6 18.5109 240.152 19.207 243.246C19.9031 246.443 20.7281 248.016 21.6562 248.016C22.4297 248.016 24.0023 245.979 26.0906 242.215C26.7094 241.08 28.4367 238.58 29.932 236.672C32.5359 233.269 33.5156 231.825 36.3258 227.004C38.0789 224.039 39.2133 222.492 42.1781 219.141C45.6586 215.196 62.107 199.315 62.7516 199.289C62.8547 199.289 62.1328 200.14 61.1016 201.197C60.0961 202.254 59.0648 203.362 58.8328 203.698L58.4461 204.265L61.7719 204.11C64.8914 203.981 67.9336 203.362 70.4859 202.383C71.4914 201.996 72.1102 201.274 63.0352 211.535C54.3727 221.358 48.8039 227.906 48.2883 228.912C48.0305 229.402 47.0766 230.587 46.1484 231.516C42.4359 235.28 33.7734 245.773 33.7734 246.52C33.7734 246.623 34.0828 246.727 34.4695 246.727C34.9852 246.727 35.0883 246.804 34.882 247.01C34.6242 247.268 29.7516 247.603 23.9766 247.758C22.6102 247.809 22.6102 247.809 23.4609 248.041C23.9508 248.144 39.1617 248.377 57.2344 248.531C75.307 248.686 93.818 248.918 98.3555 249.021C104.543 249.176 98.2781 249.253 73.3477 249.305C52.1812 249.382 42.7969 249.459 47.5664 249.588C64.2727 249.975 129.267 249.743 127.205 249.305C126.766 249.202 124.523 248.918 122.229 248.634C117.82 248.144 117.408 247.809 121.146 247.784C122.332 247.758 123.26 247.68 123.183 247.603C122.745 247.191 110.189 246.984 79.5352 246.933C60.818 246.907 44.6531 246.83 43.5961 246.778L41.7141 246.675L42.9516 246.108C43.8023 245.721 44.7562 244.896 45.8391 243.71C46.8961 242.498 47.7984 241.725 48.5203 241.441L49.6289 241.003L50.1961 241.699L50.7891 242.369L53.5477 241.467L56.332 240.591L56.4094 238.889C56.4609 237.961 56.3836 236.44 56.2547 235.512C56.1258 234.584 56.1 233.836 56.2031 233.836C56.3062 233.836 57.8789 234.661 59.7094 235.666C61.5141 236.672 64.6594 238.322 66.6703 239.327L70.357 241.158L70.8211 240.616C73.6055 237.368 95.5453 211.071 98.6133 207.307C99.6187 206.069 102.403 202.718 104.827 199.805C108.797 195.035 112.638 190.214 114.108 188.177C115.01 186.914 115.062 186.966 114.907 188.77L114.752 190.523L112.226 193.54C105.987 201.094 104.698 202.615 103.125 204.291L101.449 206.069L104.543 203.93C108.41 201.248 110.447 199.624 112.999 197.175C114.108 196.118 115.062 195.319 115.088 195.396C115.139 195.499 115.268 196.015 115.345 196.582C115.5 197.587 115.448 197.691 113.128 200.578C111.813 202.202 109.055 205.244 106.992 207.333C104.93 209.447 103.305 211.148 103.383 211.148C103.95 211.148 111.452 205.09 114.52 202.151L116.531 200.269L116.789 200.991C116.944 201.403 117.124 201.893 117.202 202.099C117.33 202.486 112.716 209.55 109.106 214.423C107.147 217.052 105.832 218.651 101.217 224.039C100.908 224.374 101.475 223.962 102.455 223.137C105.884 220.146 110.756 214.474 114.134 209.473C115.603 207.281 117.562 203.955 117.562 203.594C117.614 202.46 124.059 217.619 125.58 222.415C125.89 223.446 126.225 224.245 126.277 224.194C126.457 223.987 123.956 214.835 122.693 211.045C121.92 208.777 122.28 209.034 123.312 211.509C124.575 214.526 125.916 218.728 126.689 222.209C127.359 225.251 127.617 225.921 127.617 224.658C127.617 220.094 124.266 209.937 120.476 203.002C118.207 198.851 117.124 195.809 116.892 192.947C116.712 190.678 116.995 181.113 117.253 181.371C117.356 181.448 117.666 182.119 118.001 182.866C118.465 183.975 118.568 184.078 118.594 183.511C118.594 182.48 117.356 178.716 116.505 177.22C116.093 176.498 114.417 174.23 112.793 172.193C109.003 167.475 105.884 162.834 103.976 159.07C101.449 154.094 100.908 151.671 101.681 148.423C102.377 145.509 103.383 143.885 106.27 140.998L108.926 138.368L110.473 140.069C111.349 140.998 112.922 143.06 114.005 144.684C119.161 152.419 122.435 159.586 125.4 169.641C126.045 171.858 126.921 174.668 127.359 175.905C128.287 178.561 128.287 178.638 127.591 181.912C127.102 184.362 126.844 185.135 126.844 184.284C126.844 183.923 125.323 180.933 125.297 181.268C125.297 181.345 125.529 182.093 125.812 182.892C126.199 184.052 126.405 185.831 126.715 191.065C127.514 205.012 128.726 211.509 132.129 220.172C132.928 222.234 133.753 224.606 133.934 225.457C134.114 226.308 134.346 227.287 134.423 227.648C134.578 228.216 134.449 228.396 133.212 229.144C132.464 229.582 131.768 229.969 131.665 229.969C131.587 229.969 130.917 229.608 130.195 229.195C129.473 228.757 128.236 228.216 127.488 227.958L126.07 227.468L126.766 227.159C127.978 226.617 131.536 226.256 132.722 226.54C133.598 226.772 133.805 226.746 133.805 226.462C133.805 225.844 132.232 225.225 130.582 225.199C128.674 225.199 126.766 226.076 124.704 227.932C122.384 229.994 121.945 231.799 123.028 234.764C123.492 236.053 123.595 236.852 123.595 239.894C123.621 241.88 123.57 243.968 123.492 244.535C123.389 245.437 123.441 245.566 123.93 245.644C124.523 245.721 124.549 245.592 124.91 242.292C125.091 240.591 125.993 238.631 126.663 238.528C127.978 238.27 129.319 240.926 129.628 244.432C129.783 246.056 130.041 247.191 130.402 247.887C131.381 249.717 131.613 249.898 133.16 250.027L134.578 250.13L135.068 249.021C135.352 248.402 135.816 246.134 136.151 244.019C136.615 240.823 136.692 239.508 136.563 236.414C136.383 232.212 136.048 230.613 134.088 224.297C132.129 218.032 131.02 212.257 129.937 202.641L129.448 198.155L130.711 195.551C133.547 189.776 135.506 184.13 136.744 178.174C137.13 176.421 137.388 174.952 137.337 174.9C137.285 174.848 136.976 175.751 136.641 176.937C135.506 180.959 129.705 196.969 129.396 196.969C129.319 196.969 129.087 194.906 128.906 192.405L128.597 187.816L129.422 183.562C129.963 180.752 130.195 178.973 130.066 178.303C129.989 177.736 129.345 175.88 128.648 174.178C127.927 172.477 127.359 170.93 127.359 170.749C127.359 170.44 130.917 164.227 131.098 164.227C131.227 164.227 130.659 166.083 129.551 169.357C127.72 174.848 128.932 172.992 131.665 166.16C132.567 163.891 133.959 160.746 134.733 159.173L136.151 156.337L135.248 153.527C134.759 151.98 134.372 150.691 134.398 150.666C134.423 150.614 134.836 151.439 135.274 152.444C135.738 153.476 136.847 155.977 137.749 158.039C144.736 173.791 152.161 189.415 156.698 197.742C161.597 206.766 164.716 211.484 175.312 225.715C178.355 229.814 182.66 235.666 184.826 238.683C187.017 241.725 188.951 244.252 189.105 244.329C189.286 244.38 191.4 243.323 193.849 241.983C196.273 240.642 198.258 239.585 198.258 239.611C198.258 240.333 199.418 245.102 199.65 245.231C199.805 245.334 201.403 245.437 203.234 245.437H206.508V244.69C206.508 244.252 206.611 243.839 206.766 243.762C207.307 243.427 210.298 244.484 211.999 245.618C212.953 246.262 213.675 246.855 213.598 246.959C213.495 247.036 199.547 247.113 182.583 247.139C152.419 247.139 135.609 247.423 140.121 247.809C141.255 247.912 152.29 248.067 164.613 248.196L187.043 248.402L173.895 248.557C166.676 248.66 155.693 248.918 149.531 249.15C135.197 249.691 133.83 249.769 141.281 249.666C144.607 249.614 157.369 249.459 169.641 249.33C181.912 249.176 195.009 248.944 198.773 248.789C202.537 248.66 210.246 248.531 215.918 248.505C221.59 248.505 226.746 248.402 227.391 248.299L228.551 248.093L227.081 248.041C226.179 248.041 225.586 247.912 225.586 247.732C225.586 247.577 224.503 246.443 223.214 245.231C221.899 244.019 218.78 241.003 216.279 238.528L211.741 234.042L206.353 236.156C203.388 237.316 200.862 238.322 200.733 238.425C200.604 238.502 200.578 238.451 200.655 238.322C200.733 238.193 202.898 237.033 205.451 235.769C208.003 234.48 210.091 233.372 210.117 233.294C210.117 233.217 209.163 232.702 208.003 232.16C206.817 231.644 204.987 230.665 203.93 230.02C201.661 228.628 198.825 226.617 199.134 226.617C199.263 226.617 200.81 227.442 202.615 228.448C204.394 229.479 206.843 230.819 208.055 231.464L210.246 232.65L209.344 231.516C203.105 223.446 200.217 220.533 192.586 214.629C187.301 210.555 182.737 206.791 179.824 204.11C179.205 203.517 181.268 204.755 182.712 205.812C183.588 206.482 185.96 208.184 187.997 209.627C190.034 211.045 192.148 212.644 192.689 213.185C193.488 213.907 193.617 213.959 193.308 213.469C193.102 213.108 192.019 211.2 190.91 209.215C188.693 205.244 185.109 199.263 183.485 196.84C182.016 194.623 175.055 185.419 175.055 185.677C175.055 186.166 177.427 191.323 178.277 192.715C178.741 193.462 178.716 193.462 177.839 192.586C176.137 190.91 173.688 187.842 172.09 185.367C168.764 180.237 168.609 179.695 171.548 183.485C172.631 184.877 173.688 186.244 173.92 186.527L174.333 187.043L174.127 186.527C174.023 186.244 173.327 184.336 172.554 182.273C171.806 180.211 170.646 177.091 170.002 175.312C167.166 167.604 164.381 161.545 160.514 154.713C155.719 146.257 149.248 133.444 145.793 125.658C144.195 122.074 141.539 115.629 141.539 115.371C141.539 115.268 145.896 123.879 151.207 134.501C159.741 151.542 163.608 159.044 163.066 157.394C162.448 155.616 160.205 146.283 159.354 141.926C157.498 132.696 156.183 121.919 156.286 116.66C156.312 115.242 156.363 114.598 156.415 115.242C157.111 124.369 159.612 138.007 162.345 147.469C163.943 153.089 165.232 156.75 167.965 163.582C170.13 168.97 175.003 179.566 175.235 179.36C175.287 179.309 174.926 178.174 174.41 176.859C172.966 172.915 170.569 165.026 170.775 164.819C170.801 164.768 171.574 165.799 172.451 167.088C175.957 172.141 180.675 177.375 184.594 180.546C190.42 185.29 198.516 189.183 205.76 190.755C213.34 192.38 222.698 192.07 230.845 189.879L233.965 189.054L227.648 188.925C222.415 188.796 220.687 188.667 217.542 188.1C205.399 185.96 194.184 180.366 183.434 171.136C180.469 168.584 175.261 163.324 174.255 161.855L173.688 161.004L174.565 161.803C178.02 165 186.166 168.919 192.973 170.672C198.567 172.116 207.359 172.348 212.747 171.213C219.862 169.692 226.798 166.134 231.825 161.416C234.016 159.354 237.033 155.977 236.156 156.518C232.727 158.709 229.84 160.076 226.076 161.262C216.82 164.175 206.07 164.046 196.376 160.849C187.249 157.859 179.205 152.341 172.786 144.633C168.48 139.451 164.82 133.65 161.416 126.56C158.735 120.966 156.492 114.443 156.492 112.226C156.492 110.55 157.601 105.987 162.061 88.9453C164.897 78.2203 165.516 75.9515 165.722 75.7453C165.825 75.6421 170.491 73.7085 176.086 71.4398C181.68 69.1968 189.105 66.1289 192.586 64.6335L198.902 61.9523L201.609 57.5695C204.394 53.0578 205.76 50.9437 210.246 44.0859C211.69 41.8945 213.03 39.8062 213.185 39.4968C213.469 38.9554 213.469 38.9039 213.03 39.007C211.819 39.3679 209.37 39.7546 208.931 39.6257C208.596 39.5484 208.699 39.4968 209.215 39.471C210.169 39.4195 212.747 38.1562 212.902 37.6406C213.005 37.3312 212.953 37.3054 212.67 37.5374C212.283 37.8468 209.189 38.9296 208.725 38.9296C208.57 38.9296 209.06 38.3882 209.782 37.7437C210.71 36.9703 211.226 36.2484 211.432 35.5523C211.612 35.0109 211.845 34.5468 211.948 34.5468C212.051 34.5468 211.999 34.0054 211.793 33.3093C211.329 31.814 209.266 27.8953 209.498 29.0039ZM200.32 33.7734C200.32 34.1601 199.16 34.5468 197.974 34.5468C197.149 34.5468 196.969 34.4695 196.969 34.0312C196.969 33.5671 197.149 33.5156 198.645 33.5156C199.624 33.5156 200.32 33.6187 200.32 33.7734ZM207.72 39.5999C207.642 39.6773 207.41 39.7031 207.23 39.6257C207.023 39.5484 207.101 39.471 207.384 39.471C207.668 39.4453 207.823 39.5226 207.72 39.5999ZM139.219 61.6429C139.219 62.1585 139.064 62.6999 138.909 62.8546C138.291 63.3445 135.274 64.9945 135.171 64.8656C134.939 64.6335 135.712 63.4992 137.259 61.8749C138.162 60.8953 138.909 60.3023 139.012 60.457C139.116 60.5859 139.219 61.1273 139.219 61.6429ZM151.001 70.9499C150.485 72.3937 150.485 72.4453 151.259 72.0585C152.135 71.5945 154.017 71.5687 155.023 72.007L155.77 72.3164L154.713 73.1671C154.146 73.6312 153.063 74.3015 152.316 74.6624C151.568 75.0234 150.743 75.4101 150.511 75.5648C149.815 75.9257 149.712 75.8484 149.918 75.1007C150.743 71.7492 146.077 83.5312 143.576 91.0078C142.312 94.8234 142.08 95.339 142.08 94.4109C142.055 93.6374 142.158 93.3539 142.338 93.4828C142.57 93.6117 142.596 93.3796 142.493 92.6578C142.39 92.1164 142.416 91.8585 142.519 92.1164C142.673 92.4515 142.88 91.9101 143.318 90.1828C144.659 84.8976 148.397 74.8429 150.202 71.7234C150.795 70.7179 151.284 70.2539 151.001 70.9499ZM75.9 71.6203C74.9461 72.2648 74.7656 74.0953 75.5648 75.1265L76.1062 75.7968L75.4102 75.4874C74.8945 75.2554 74.482 75.2554 73.5797 75.4874C72.0844 75.8999 72.007 75.8742 71.4141 75.2812C70.3828 74.2499 71.0789 71.8781 72.5227 71.5945C73.5281 71.414 76.1836 71.414 75.9 71.6203ZM139.992 73.1671C139.992 73.296 139.76 74.5335 139.451 75.9257C138.316 81.4171 137.466 87.3726 137.362 90.6468C137.311 91.807 137.208 92.7093 137.105 92.632C136.976 92.5804 136.898 92.2968 136.898 92.039C136.898 91.7812 136.563 90.2343 136.151 88.6359C135.455 85.9546 134.887 82.732 134.449 78.8132C134.14 76.0804 134.088 77.421 134.32 81.2624C134.578 85.0523 135.429 89.1257 136.28 90.8015C136.976 92.1164 136.486 91.8585 135.506 90.3632C134.114 88.3007 132.155 84.0726 131.175 81.1078C130.479 78.9679 130.402 78.5554 130.737 78.3492C133.16 76.8539 139.657 73.0124 139.812 72.9867C139.915 72.9609 139.992 73.064 139.992 73.1671ZM123.879 84.3046C126.637 85.2328 128.262 87.0632 128.545 89.6414L128.674 90.8789L128.287 89.8992C127.411 87.5789 125.452 86.0578 121.043 84.2531L119.238 83.5054L120.785 83.6601C121.636 83.7374 123.028 84.021 123.879 84.3046ZM119.238 88.146C120.012 88.4296 121.301 88.9195 122.074 89.2289C124.962 90.3374 126.277 92.9929 125.555 96.2414C125.348 97.221 125.194 99.6187 125.194 102.48C125.168 106.889 125.116 107.224 124.42 109.184C121.971 116.093 115.165 126.173 108.848 132.309C104.775 136.254 100.753 139.219 92.5031 144.323L89.9766 145.87L90.4664 144.942C90.7242 144.427 91.4203 142.596 92.0391 140.894C93.7664 135.97 94.6172 134.527 97.4273 131.742C99.2062 129.989 101.037 128.519 103.898 126.586C109.106 123.105 110.318 122.177 114.34 118.619C116.196 116.969 118.155 115.242 118.723 114.752C119.496 114.108 119.548 114.005 118.98 114.34C118.233 114.804 112.613 117.82 112.509 117.82C112.484 117.82 112.973 116.918 113.592 115.835C115.732 112.097 117.562 107.018 117.562 104.801C117.562 104.234 117.743 103.537 117.949 103.28C118.413 102.687 118.439 101.784 118.052 101.398C117.872 101.217 118.027 100.908 118.568 100.341C119.522 99.4124 119.573 98.6906 118.8 97.9687L118.233 97.4531L118.8 96.8601C119.109 96.5249 119.367 96.0093 119.367 95.7257C119.367 95.0296 118.13 94.0242 117.485 94.2046C117.073 94.3078 117.021 94.2046 117.124 93.689C117.279 92.864 116.712 92.2968 115.732 92.2968C115.32 92.2968 114.984 92.2453 114.984 92.1937C114.984 92.0132 116.041 86.7539 116.145 86.4445C116.222 86.264 116.531 86.4187 117.021 86.857C117.459 87.2695 118.439 87.8367 119.238 88.146ZM143.086 89.7703C142.622 92.2195 142.441 91.7296 142.854 89.1515C143.034 87.9656 143.241 87.2437 143.292 87.5273C143.344 87.8109 143.266 88.8164 143.086 89.7703ZM100.547 88.9968C100.547 89.0484 100.727 90.0539 100.934 91.2656C101.14 92.4773 101.32 93.9468 101.32 94.5656C101.32 95.9835 101.63 96.5507 102.584 96.8859C103.202 97.0921 103.873 96.9632 106.631 96.0351C108.462 95.4421 110.885 94.5656 112.02 94.1273C114.056 93.3281 115.345 93.1218 115.603 93.5601C115.809 93.8953 115.32 94.2046 113.309 94.9781C111.117 95.8289 108.152 97.4273 106.141 98.8195C104.543 99.9281 104.311 100.392 105.755 99.5156C106.27 99.232 107.637 98.6648 108.823 98.2523C110.009 97.8398 112.432 96.9117 114.185 96.1898C115.938 95.4421 117.537 94.9007 117.743 94.9781C117.923 95.0554 118.078 95.339 118.078 95.5968C118.078 95.9835 117.33 96.4476 114.804 97.582C107.766 100.805 107.43 101.681 114.082 99.5671C117.33 98.5359 117.898 98.4585 118.001 98.9999C118.13 99.5414 117.202 100.031 113.18 101.578C111.272 102.3 109.596 102.996 109.441 103.151C109.003 103.589 111.942 103.383 113.824 102.841C116.273 102.145 117.305 101.991 117.305 102.3C117.305 103.177 113.67 104.491 110.034 104.955C107.327 105.265 107.121 105.342 105.652 106.27C104.259 107.147 102.197 107.766 100.624 107.766C99.7219 107.766 99.4641 107.637 98.9742 106.941C98.6391 106.502 98.2266 105.6 98.0461 104.955L97.7109 103.769L97.8398 105.394C97.9687 107.018 98.6133 108.668 99.3609 109.287C99.593 109.467 100.109 109.57 100.547 109.519C101.449 109.39 101.295 109.596 100.134 110.06C99.4383 110.344 99.1805 110.318 98.3297 109.905C97.0664 109.312 96.6023 108.333 96.5766 106.348C96.5766 104.543 97.4531 101.655 98.3555 100.598C98.8453 100.031 98.9742 99.3867 99.232 96.9117C99.3867 95.2875 99.5156 93.1218 99.5156 92.0906C99.5156 90.3374 99.8766 88.9453 100.341 88.9453C100.444 88.9453 100.547 88.971 100.547 88.9968ZM116.48 105.884C116.17 107.121 114.649 110.266 113.953 111.117L113.437 111.762V110.782C113.437 110.215 113.257 109.132 113.025 108.333C112.664 107.147 112.664 106.863 112.948 106.76C113.128 106.709 113.979 106.27 114.855 105.806C115.706 105.368 116.48 104.955 116.583 104.955C116.66 104.93 116.634 105.368 116.48 105.884ZM128.133 111.633C127.617 116.454 126.302 123.389 124.395 131.355C123.905 133.341 122.925 137.466 122.203 140.508C121.481 143.55 120.63 146.953 120.347 148.062L119.78 150.098L119.109 148.732L118.413 147.366L119.006 145.896C119.986 143.498 121.842 136.486 123.234 129.834C123.956 126.457 125.168 121.069 125.941 117.846C127.256 112.38 128.081 108.333 128.184 106.76C128.21 106.399 128.287 106.734 128.339 107.508C128.391 108.281 128.313 110.137 128.133 111.633ZM118.491 133.727C118.104 135.119 117.279 137.981 116.609 140.095L115.397 143.911L114.804 143.189C114.469 142.777 114.211 142.312 114.211 142.158C114.211 142.003 115.062 139.966 116.093 137.646C117.15 135.326 118.207 132.799 118.491 132.052C119.212 129.937 119.212 130.891 118.491 133.727ZM164.355 185.393C171.291 191.993 177.478 197.639 177.143 197.098C176.988 196.814 176.034 195.473 175.08 194.133C174.101 192.792 173.353 191.632 173.43 191.555C173.534 191.426 176.344 194.442 179.283 197.871C181.087 199.959 184.336 204.445 184.336 204.806C184.336 204.884 183.073 203.878 181.552 202.589C180.005 201.274 177.839 199.444 176.705 198.516C170.723 193.643 163.17 186.269 158.452 180.727C154.584 176.189 154.559 175.905 158.323 179.566C160.23 181.423 162.937 184.052 164.355 185.393ZM98.8453 192.766C95.5711 196.84 91.0594 201.274 86.7539 204.677C86.4703 204.909 89.0484 202.177 92.4773 198.644C95.8805 195.087 99.1289 191.709 99.6445 191.091C101.475 189.028 100.882 190.24 98.8453 192.766ZM159.715 197.639C160.54 198.722 162.035 200.552 163.041 201.687C164.046 202.821 165.309 204.291 165.851 204.935C168.816 208.493 178.612 217.98 182.454 221.023C189.595 226.669 194.7 229.762 200.707 232.057C204.059 233.32 203.543 233.32 199.598 232.057C193.359 230.02 188.796 227.777 182.531 223.652C175.003 218.677 169.383 213.005 163.35 204.316C160.952 200.836 157.833 195.68 158.116 195.68C158.194 195.68 158.89 196.556 159.715 197.639ZM35.0109 222.673C36.3773 223.755 36.4547 224.091 35.6812 225.663L34.9852 227.081L33.7477 225.225C33.0773 224.219 32.0203 222.776 31.3758 222.002L30.2156 220.61L30.8602 220.043L31.5305 219.476L32.8453 220.765C33.5672 221.461 34.5469 222.312 35.0109 222.673ZM27.1734 221.977C27.1219 223.523 26.7867 225.328 26.5289 225.328C26.4 225.328 26.2969 225.044 26.2969 224.684C26.2969 223.678 25.7555 222.75 25.0594 222.569L24.4148 222.415L25.2398 221.667C26.4 220.636 27.1992 220.765 27.1734 221.977ZM30.0094 222.08C30.2414 222.698 31.0664 224.142 31.8398 225.302C32.6133 226.437 33.2578 227.442 33.2578 227.494C33.2578 227.545 32.5359 227.391 31.6594 227.133C30.757 226.875 29.6227 226.591 29.107 226.488L28.1531 226.359L28.2047 224.606C28.2047 223.652 28.1273 222.441 28.0242 221.899L27.818 220.945H28.6945C29.4937 220.945 29.6227 221.048 30.0094 222.08ZM31.0664 228.319C32.3297 228.525 33.4125 228.757 33.4641 228.809C33.6961 229.041 28.643 236.466 26.9156 238.425L25.7297 239.791L24.8016 238.322L23.8992 236.878L24.75 235.151C25.2914 234.016 25.6266 232.934 25.7039 231.902C25.807 230.794 26.0648 230.02 26.6062 229.118C27.5086 227.7 27.5602 227.7 31.0664 228.319ZM128.287 229.505L130.659 230.845L129.989 231.206C129.602 231.387 129.035 231.799 128.726 232.083C128.391 232.392 128.081 232.598 128.03 232.521C127.978 232.469 127.566 231.722 127.127 230.871C126.689 230.02 126.148 229.066 125.916 228.731C125.684 228.422 125.58 228.164 125.684 228.164C125.812 228.164 126.973 228.757 128.287 229.505ZM135.042 232.469C134.965 232.959 134.862 232.908 133.727 231.902L132.516 230.794L133.598 230.046L134.707 229.298L134.913 230.613C135.016 231.309 135.068 232.16 135.042 232.469ZM133.624 233.32C134.423 234.042 135.145 234.867 135.223 235.151C135.403 235.718 133.805 238.709 132.567 240.204L131.871 241.029L129.989 238.219C127.591 234.635 127.566 234.223 129.809 232.65C131.587 231.412 131.51 231.387 133.624 233.32ZM135.558 241.106C135.506 242.473 135.377 243.684 135.3 243.762C135.197 243.865 134.501 243.452 133.702 242.859L132.284 241.777L133.109 240.926C133.573 240.462 134.295 239.482 134.707 238.786C135.635 237.213 135.712 237.419 135.558 241.106Z"
         />
    <path
        d="M199.934 30.164C198.232 30.4476 196.427 30.6538 195.937 30.6796L195.035 30.7054L195.809 31.3242C196.453 31.8656 196.608 31.8913 196.969 31.582C197.175 31.4015 198.103 31.1695 199.031 31.0921C202.976 30.7312 206.173 30.3702 207.023 30.2413C207.874 30.0866 207.9 30.0867 207.281 29.9062C206.173 29.571 203.156 29.6742 199.934 30.164Z"
         />
    <path
        d="M129.705 31.4531C129.087 31.582 128.545 31.7367 128.494 31.7624C128.468 31.814 129.912 31.8398 131.691 31.8656C135.3 31.8913 137.156 32.3812 138.729 33.696C139.141 34.057 139.554 34.3148 139.605 34.2374C139.837 34.0054 137.749 32.6132 136.28 32.0203C134.552 31.3242 131.562 31.0663 129.705 31.4531Z"
         />
    <path
        d="M119.238 35.707C117.691 36.6093 115.964 37.5632 115.448 37.7952C114.907 38.0273 114.469 38.3366 114.469 38.4655C114.469 38.878 116.299 38.6718 117.459 38.1046C118.516 37.6148 122.77 34.0054 122.255 34.057C122.152 34.057 120.811 34.8046 119.238 35.707Z"
         />
    <path
        d="M212.205 35.4749C212.205 35.7585 212.283 35.8359 212.36 35.6296C212.437 35.4492 212.412 35.2171 212.334 35.1398C212.257 35.0367 212.18 35.1913 212.205 35.4749Z"
         />
    <path
        d="M212.463 36.5062C212.463 36.7898 212.541 36.8671 212.618 36.6609C212.695 36.4804 212.67 36.2484 212.592 36.1711C212.515 36.0679 212.437 36.2226 212.463 36.5062Z"
         />
    <path
        d="M122.332 47.2828C121.198 47.7726 120.295 48.2367 120.321 48.3398C120.347 48.4429 120.734 48.7523 121.198 49.0359L122.048 49.5515L122.977 48.4945C123.466 47.9015 124.24 47.2054 124.652 46.9218C125.864 46.1226 124.755 46.3031 122.332 47.2828Z"
         />
    <path
        d="M119.032 51.4851C118.233 54.5789 118.207 54.5531 120.192 54.8109C121.275 54.9656 121.43 55.0687 121.584 55.739C121.687 56.2804 121.636 56.5898 121.404 56.7445C121.12 56.8992 121.172 57.0796 121.636 57.5695C121.945 57.9047 122.203 58.2914 122.203 58.4461C122.203 58.6007 122.384 58.8586 122.59 59.039C122.796 59.2195 122.977 59.7351 122.977 60.1734C122.977 60.6117 123.157 61.2562 123.389 61.5914C123.776 62.1328 123.956 62.1843 125.271 62.0554C126.07 61.9523 127.282 61.6945 127.952 61.4625L129.19 61.05L130.35 62.2359C132.258 64.2468 134.166 65.1234 133.882 63.8601C133.65 62.932 132.026 59.4773 131.562 58.9875C131.33 58.7297 130.995 58.5234 130.788 58.5234C130.582 58.5234 129.241 59.1164 127.798 59.8125C124.111 61.6172 124.008 61.6172 123.441 59.5547L122.977 57.8789L123.673 57.3632L124.343 56.8218L123.441 56.925C122.667 57.0023 122.512 56.925 122.384 56.4093C122.28 56.1 122.203 55.507 122.203 55.1461C122.203 54.3468 121.816 54.1406 120.373 54.1406C119.212 54.1406 119.238 54.2437 119.728 51.4336C120.295 48.3398 119.857 48.3914 119.032 51.4851Z"
         />
    <path
        d="M75.075 55.2234C72.4453 56.1 70.7953 57.8531 69.7125 60.8953C69.2484 62.2101 69.4547 62.1328 70.0734 60.7664C71.0273 58.6007 72.4195 57.5437 76.493 55.8164C77.7305 55.3007 78.1687 54.6562 77.2664 54.6562C76.957 54.682 75.9773 54.914 75.075 55.2234Z"
         />
    <path
        d="M78.1172 55.1203C78.1172 55.3781 77.9367 55.8679 77.7047 56.2031L77.2922 56.8476L77.8336 56.2289C78.3234 55.6875 78.5812 54.6562 78.2461 54.6562C78.1687 54.6562 78.1172 54.8625 78.1172 55.1203Z"
         />
    <path
        d="M96.7055 61.2562C96.525 61.9007 96.3961 62.4679 96.4734 62.5195C96.525 62.5711 97.0664 62.7257 97.6594 62.8547C98.639 63.0867 98.7422 63.0609 98.7422 62.6226C98.7422 62.3132 98.5617 62.1328 98.2266 62.1328C97.8398 62.1328 97.7109 61.9523 97.7109 61.3851C97.7109 60.9726 97.5562 60.5343 97.3758 60.3797C97.118 60.1476 96.9633 60.3539 96.7055 61.2562Z"
         />
    <path
        d="M86.2383 65.9999C86.3156 66.1289 86.5992 66.2578 86.8312 66.2578C87.218 66.2578 87.218 66.2062 86.8828 65.9999C86.3672 65.6648 86.032 65.6648 86.2383 65.9999Z"
         />
    <path
        d="M239.482 85.9804C221.126 88.5843 197.716 97.9687 183.227 108.513C175.828 113.927 169.434 120.089 166.057 125.091L164.974 126.715L166.083 125.426C175.57 114.417 188.77 105.187 205.348 97.9687C222.879 90.3374 238.631 86.4445 252.398 86.3413C255.157 86.3156 255.698 86.264 254.977 86.0577C253.455 85.6452 242.292 85.5679 239.482 85.9804Z"
         />
    <path
        d="M228.937 91.7554C209.137 99.9023 192.199 112.071 184.903 123.363C181.732 128.262 180.056 134.423 180.623 139.141L180.83 140.894L181.036 139.244C181.577 135.197 185.212 128.081 189.466 122.719C198.67 111.091 211.69 100.882 226.875 93.3539C229.917 91.8328 232.702 90.4664 233.062 90.3117C233.423 90.1312 233.604 90.0023 233.449 90.0023C233.32 90.0023 231.284 90.7757 228.937 91.7554Z"
         />
    <path
        d="M228.164 90.75C227.803 90.8531 226.308 91.3171 224.812 91.7812C215.841 94.514 204.316 99.7734 196.505 104.698C190.369 108.565 184.516 113.695 181.268 118.052C179.283 120.734 178.767 121.739 180.237 120.012C187.249 111.865 196.324 105.136 208.416 99.0773C214.268 96.1382 222.209 92.9156 228.241 91.0078C228.757 90.8531 229.195 90.6726 229.195 90.5953C229.195 90.4664 228.937 90.4921 228.164 90.75Z"
         />
    <path
        d="M244.896 126.509C241.132 129.757 232.495 134.552 226.514 136.769C219.553 139.322 211.329 140.611 205.425 140.018C199.212 139.425 195.009 137.698 191.709 134.423C190.575 133.289 190.498 133.237 190.936 134.011C191.735 135.429 194.855 138.652 196.505 139.76C198.619 141.204 201.403 142.493 204.11 143.266C208.416 144.504 216.717 144.349 220.739 142.957C222.26 142.441 222.26 142.673 220.765 143.421C216.949 145.355 209.988 147.804 205.605 148.732C202.563 149.402 203.852 149.402 207.591 148.784C213.984 147.675 224.632 143.241 231.387 138.832C236.491 135.506 242.679 130.195 245.257 126.869C245.953 126.019 246.469 125.297 246.417 125.297C246.34 125.297 245.67 125.838 244.896 126.509Z"
         />
    <path
        d="M28.3078 133.547C20.1352 135.274 12.143 141.255 7.425 149.144C5.95547 151.594 3.86719 156.827 4.20235 157.162C4.25391 157.24 4.4086 156.956 4.51172 156.569C4.89844 154.971 7.55391 150.047 9.17813 147.881C12.7359 143.189 16.8094 139.709 21.5273 137.388C25.575 135.403 27.9984 134.81 32.6391 134.655C39.1102 134.423 41.9977 135.223 51.8203 139.992C62.2359 145.019 64.7625 145.87 71.8008 146.824C72.9867 146.979 71.9555 146.592 69.0937 145.793C65.2781 144.736 62.5969 143.602 54.1406 139.373C43.3125 133.959 40.2961 133.005 33.9539 133.057C31.7109 133.057 29.7773 133.237 28.3078 133.547Z"
         />
    <path
        d="M239.121 135.532C231.619 142.441 216.485 149.119 204.703 150.717C198.619 151.516 192.612 150.846 187.559 148.758L185.754 148.01L186.966 149.119C190.755 152.625 198.026 154.249 205.941 153.373C215.66 152.316 225.38 147.984 233.707 140.998C236.62 138.548 241.235 134.14 241.055 133.985C240.977 133.908 240.127 134.604 239.121 135.532Z"
         />
    <path
        d="M106.012 137.388C104.414 138.471 102.867 139.631 102.532 139.966C102.223 140.302 102.635 140.069 103.46 139.477C104.285 138.858 105.007 138.419 105.084 138.497C105.265 138.677 102.661 141.023 99.9023 143.163C93.1477 148.397 87.682 151.284 79.2258 154.12C71.2336 156.802 65.6133 157.807 50.7891 159.199C38.9555 160.282 35.5781 160.849 30.1383 162.68C24.7242 164.484 18.8977 167.836 15.3398 171.213L13.4836 172.966L11.8078 169.95C10.8539 168.3 9.84844 166.315 9.53906 165.567C9.20391 164.819 8.89453 164.252 8.84297 164.33C8.50781 164.639 11.2406 171.059 12.5297 173.018C12.968 173.688 12.968 173.714 11.7305 175.338C11.0344 176.241 10.3641 177.169 10.2094 177.375C9.95156 177.762 12.4781 175.493 13.0711 174.797C13.3805 174.462 13.432 174.462 13.6641 174.823C14.5148 176.266 16.7836 178.948 19.4133 181.655C21.0633 183.382 22.4297 184.877 22.4297 184.955C22.4297 185.058 21.5531 186.115 20.4961 187.352C19.4391 188.564 18.5625 189.673 18.5625 189.827C18.5625 190.008 19.3359 189.363 20.3156 188.435C23.332 185.548 23.3836 185.496 23.8992 185.909C24.3117 186.244 24.3375 186.218 24.0281 185.831C23.7445 185.47 23.9508 185.238 25.8328 183.872C30.4477 180.572 37.9758 176.73 45.2461 174.023C48.675 172.734 51.975 171.652 66.9023 166.805C73.8117 164.587 77.5758 163.041 81.4687 160.875C83.6602 159.663 87.1406 157.369 87.1406 157.162C87.1406 157.111 86.3672 157.472 85.4391 157.987C82.9641 159.277 74.7656 162.963 73.2187 163.453C72.8578 163.556 71.9297 163.917 71.1562 164.227C68.7328 165.18 69.8672 164.562 74.5852 162.319C79.432 160.024 80.3859 159.509 85.3359 156.544C89.5898 153.991 89.9508 153.605 86.4961 155.229C81.4687 157.601 76.4672 159.534 68.8359 162.035C53.9602 166.934 45.7617 169.924 40.6312 172.322C34.6758 175.132 27.9211 179.669 24.0281 183.511C22.8938 184.645 22.7648 184.697 22.4039 184.31C22.1977 184.052 21.1148 182.841 20.0063 181.577C17.8406 179.154 15.1594 175.699 14.5406 174.513L14.1797 173.791L15.9844 172.502C16.9898 171.806 18.8203 170.698 20.0578 170.079C28.1273 165.902 34.9336 163.917 47.9531 161.906C60.1219 160.024 61.4367 159.818 65.4844 158.941C78.607 156.105 90.1055 151.31 98.0977 145.406C100.47 143.653 106.322 138.213 106.09 137.981C106.038 137.904 106.631 137.388 107.456 136.847C109.158 135.635 109.519 135.352 109.184 135.377C109.029 135.377 107.611 136.28 106.012 137.388ZM105.832 138.187C105.755 138.316 105.548 138.445 105.42 138.445C105.265 138.445 105.239 138.316 105.316 138.187C105.394 138.033 105.6 137.93 105.729 137.93C105.884 137.93 105.909 138.033 105.832 138.187Z"
         />
    <path
        d="M33.5156 148.912C25.5492 149.918 16.6805 153.45 11.2148 157.807C9.4875 159.173 6.67734 162.009 5.49141 163.582C3.78985 165.851 3.84141 166.057 5.67188 164.201C8.6625 161.184 12.7359 158.709 18.3047 156.492C28.4109 152.444 38.2078 151.645 55.6875 153.373C62.6742 154.069 66.2062 154.223 69.3516 153.966L72.0586 153.734L69.2227 153.682C65.6906 153.656 60.9469 153.115 55.4297 152.109C46.6898 150.537 45.9164 150.15 53.5477 151.181C62.6227 152.393 62.9578 152.367 56.2031 150.949C48.4172 149.325 45.7359 148.99 39.832 148.887C36.8672 148.835 34.0055 148.861 33.5156 148.912ZM47.618 150.459C47.5406 150.537 47.3086 150.562 47.1281 150.485C46.9219 150.408 46.9992 150.33 47.2828 150.33C47.5664 150.305 47.7211 150.382 47.618 150.459Z"
         />
    <path
        d="M31.3758 157.034C27.8695 157.291 24.1313 158.013 21.2438 158.967C19.0523 159.689 14.3602 162.009 13.8445 162.628C13.5867 162.963 13.6383 162.963 14.3086 162.628C16.3195 161.597 21.6562 159.921 24.75 159.328C28.3336 158.632 33.7734 158.297 43.3898 158.116C49.0102 158.039 53.5992 157.936 53.5734 157.884C53.4703 157.807 41.0437 157.034 37.5117 156.905C35.8102 156.853 33.0516 156.905 31.3758 157.034Z"
         />
    <path
        d="M126.354 224.967C126.354 225.251 126.431 225.328 126.509 225.122C126.586 224.941 126.56 224.709 126.483 224.632C126.405 224.529 126.328 224.684 126.354 224.967Z"
         />
    <path
        d="M129.241 249.743C129.628 249.794 130.247 249.794 130.659 249.743C131.046 249.691 130.711 249.64 129.937 249.64C129.164 249.64 128.829 249.691 129.241 249.743Z"
         />
    <path
        d="M114.082 250.748C95.4937 250.955 58.9617 251.625 59.0906 251.78C59.1422 251.805 69.9703 251.986 83.1445 252.141C112.741 252.502 149.17 252.166 193.746 251.135C201.532 250.955 201.403 250.929 187.816 250.903C180.159 250.877 161.958 250.8 147.34 250.748C132.748 250.723 117.769 250.697 114.082 250.748Z"
     />
</svg>