<svg width="24" height="24" viewBox="0 0 24 24" fill="none" xmlns="http://www.w3.org/2000/svg">
<path d="M17.3404 11.8225C18.741 12.9459 19.8822 14.5049 20.6195 16.344H19.0536C16.9503 16.344 15.178 17.9308 15.178 19.9679V21.9102C14.169 21.9971 13.078 22.0514 11.9268 22.0514C9.05649 22.0514 6.60735 21.714 4.87747 21.377C4.01286 21.2086 3.32889 21.0404 2.86296 20.915C2.72383 20.8775 2.60417 20.8439 2.50498 20.8152C2.60675 17.0538 4.25874 13.7787 6.69779 11.8225C8.03766 13.1368 9.93005 13.9507 12.0192 13.9507C14.1084 13.9507 16.0006 13.1368 17.3404 11.8225ZM20.1996 20.4327H19.6996V20.9327V22.3434C19.6996 22.4855 19.5629 22.6654 19.3112 22.6654C19.0596 22.6654 18.9229 22.4855 18.9229 22.3434V20.9327V20.4327H18.4229H16.8883C16.6367 20.4327 16.5 20.2527 16.5 20.1106C16.5 19.9686 16.6367 19.7886 16.8883 19.7886H18.4229H18.9229V19.2886V17.8221C18.9229 17.68 19.0596 17.5 19.3112 17.5C19.5629 17.5 19.6996 17.68 19.6996 17.8221V19.2886V19.7886H20.1996H21.7741C22.0258 19.7886 22.1624 19.9685 22.1624 20.1106C22.1624 20.2527 22.0258 20.4327 21.7741 20.4327H20.1996ZM17.0597 7.12717C17.0597 9.64688 14.8402 11.7543 12.0192 11.7543C9.19817 11.7543 6.97867 9.64688 6.97867 7.12717C6.97867 4.60745 9.19817 2.5 12.0192 2.5C14.8402 2.5 17.0597 4.60745 17.0597 7.12717Z" stroke="black"/>
</svg>
