<svg width="24" height="24" viewBox="0 0 24 24" fill="none" xmlns="http://www.w3.org/2000/svg">
<path fill-rule="evenodd" clip-rule="evenodd" d="M5.99153 1.01194C5.85036 1.04047 5.61034 1.14086 5.61034 1.17152C5.61034 1.18713 5.55755 1.21798 5.49313 1.24014C5.35533 1.28742 5.10183 1.5643 5.03013 1.74558C5.00245 1.81559 4.954 1.92964 4.92241 1.99909C4.85081 2.15692 4.83439 4.61811 4.9044 4.70824C4.92605 4.73613 4.95524 4.81565 4.96926 4.8851C5.03732 5.22209 5.50342 5.7509 5.73226 5.7509C5.75728 5.7509 5.7831 5.76734 5.78949 5.78747C5.80706 5.84223 6.1949 5.89894 6.37281 5.87271C6.86198 5.80077 7.35204 5.3657 7.50572 4.86709C7.62746 4.47219 7.54751 1.81873 7.41397 1.81873C7.39827 1.81873 7.37617 1.78012 7.36482 1.73293C7.33811 1.62229 7.06846 1.30996 6.94006 1.24079C6.8854 1.21142 6.82072 1.16774 6.79623 1.14372C6.70067 1.0498 6.20581 0.968717 5.99153 1.01194ZM17.4296 1.04417C17.3247 1.07446 17.2233 1.11907 17.2043 1.14326C17.1852 1.16755 17.1094 1.21936 17.0359 1.25833C16.8902 1.33563 16.6928 1.55534 16.6241 1.71668C16.6003 1.77283 16.5697 1.81873 16.5562 1.81873C16.4504 1.81873 16.3676 4.15293 16.4557 4.64886C16.6502 5.74305 17.9988 6.2894 18.6551 5.53997C18.6959 5.49342 18.7657 5.42037 18.8101 5.3777C18.8546 5.33494 18.9482 5.17822 19.0181 5.02944L19.1452 4.75885L19.1562 3.62846C19.1681 2.39085 19.1467 2.1403 19.0024 1.82695C18.9069 1.61962 18.5924 1.24153 18.5154 1.24153C18.4928 1.24153 18.4472 1.21336 18.4141 1.17891C18.2631 1.02173 17.7503 0.95154 17.4296 1.04417ZM8.57377 1.64501C8.19392 1.78613 8.17102 1.89492 8.18265 3.50268L8.1925 4.86709L8.27732 4.99749C8.54556 5.41003 9.12621 5.36838 9.25132 4.92776C9.30731 4.73059 9.28202 2.00851 9.22319 1.90138C9.10722 1.69027 8.78957 1.56485 8.57377 1.64501ZM15.109 1.63901C15.0431 1.65508 14.9713 1.69405 14.9492 1.72545C14.9271 1.75694 14.8946 1.78271 14.8769 1.78271C14.7262 1.78271 14.6059 4.44892 14.735 4.92887C14.8123 5.21599 15.2942 5.38047 15.5415 5.20408C15.8085 5.01365 15.8005 5.06721 15.8005 3.47626V2.05386L15.6775 1.86804C15.5689 1.70384 15.3442 1.56956 15.2392 1.60595C15.2334 1.60798 15.1747 1.62285 15.109 1.63901ZM6.34912 2.14935C6.50759 2.23717 6.50919 2.24983 6.51025 3.40608C6.5114 4.69882 6.50235 4.74084 6.22401 4.74084C6.02454 4.74084 5.96376 4.6858 5.92498 4.47025C5.89419 4.29884 5.90883 2.46852 5.94246 2.29656C5.96881 2.16154 6.2122 2.07343 6.34912 2.14935ZM3.73866 2.16726C3.53324 2.20051 3.33023 2.26248 3.15836 2.3443C3.05694 2.39251 2.96279 2.43204 2.94904 2.43204C2.90707 2.43204 2.3549 2.81761 2.25516 2.91652C1.87256 3.2959 1.76652 3.4155 1.63148 3.61941C1.54727 3.74667 1.44896 3.92223 1.41302 4.00951C1.37708 4.09678 1.32615 4.19052 1.29998 4.21785C1.23937 4.28093 1.10965 4.83412 1.08126 5.15061C1.06928 5.28369 1.04621 5.40107 1.02997 5.4115C0.990928 5.43662 0.991726 6.74396 1.03077 6.82468C1.04745 6.85912 1.08986 6.98472 1.125 7.10377C1.20229 7.36549 1.43174 7.62011 1.65348 7.68992C1.85552 7.75365 22.1356 7.75633 22.3783 7.6927C22.568 7.64301 22.845 7.37999 22.8857 7.2108C22.8998 7.15234 22.9296 7.09268 22.952 7.07837C23.0123 7.0394 23.0097 4.98724 22.9492 4.96627C22.9254 4.95805 22.9058 4.91493 22.9058 4.87041C22.9058 4.75571 22.7416 4.19874 22.6877 4.13049C22.6628 4.09909 22.5995 3.98198 22.5468 3.87033C22.4942 3.75858 22.4131 3.62994 22.3666 3.58441C22.32 3.53897 22.282 3.48282 22.282 3.45964C22.282 3.43655 22.2313 3.36692 22.1694 3.30486C22.1073 3.24289 22.0204 3.14287 21.976 3.08266C21.9318 3.02245 21.8751 2.97313 21.8501 2.97313C21.8251 2.97313 21.7793 2.93277 21.7483 2.88346C21.7172 2.83405 21.6334 2.76035 21.5623 2.71962C21.491 2.6789 21.3812 2.60668 21.3182 2.55902C21.2551 2.51146 21.1303 2.44395 21.0409 2.40904C20.9515 2.37413 20.8704 2.33414 20.8609 2.3202C20.8179 2.2574 20.407 2.1704 20.1328 2.16616C19.7052 2.15951 19.7091 2.15415 19.7232 2.73034C19.7366 3.28353 19.7253 3.26792 20.1561 3.33062C20.4292 3.37043 20.57 3.4142 20.6183 3.4746C20.6397 3.50129 20.9625 3.73069 20.9787 3.73069C21.0941 3.73069 21.591 4.45427 21.7095 4.79496C21.7578 4.93386 21.8163 5.07996 21.8394 5.11958C21.8672 5.16742 21.8859 5.43238 21.8947 5.9043L21.908 6.6167H12.0475H2.18711L2.16288 6.31452C2.11204 5.67914 2.26217 4.72117 2.44185 4.53416C2.47007 4.50479 2.52482 4.41613 2.5635 4.33717C2.65809 4.14434 3.09651 3.68701 3.27938 3.5905C3.3604 3.54775 3.42668 3.4988 3.42668 3.48162C3.42668 3.43415 3.74558 3.3358 3.9832 3.30994C4.28879 3.27669 4.29322 3.26801 4.29322 2.70124C4.29322 2.11721 4.25791 2.08322 3.73866 2.16726ZM18.003 2.232L18.0881 2.32048V3.40617C18.0881 4.70778 18.0799 4.74084 17.7613 4.74084C17.5205 4.74084 17.5174 4.72505 17.5061 3.46315C17.4964 2.36379 17.4978 2.33488 17.5693 2.24031C17.6691 2.10816 17.8802 2.10419 18.003 2.232ZM9.93091 2.24549C9.83011 2.36139 9.84795 3.15202 9.95371 3.25545L10.034 3.33395H12.0107C13.8608 3.33395 13.991 3.32979 14.0431 3.26976C14.1195 3.18194 14.1361 2.37949 14.064 2.25934L14.0161 2.17955H12.0022C10.0952 2.17955 9.98521 2.18296 9.93091 2.24549ZM1.6651 8.72639C1.32624 8.85393 1.06981 9.18788 1.06981 9.5016C1.06981 9.55941 1.05419 9.61676 1.03512 9.62904C0.991638 9.65693 0.986847 19.6268 1.03024 19.6547C1.04656 19.6652 1.07043 19.7677 1.08321 19.8824C1.17921 20.7467 1.82127 21.8398 2.51062 22.3126C2.69687 22.4404 2.83963 22.5386 2.88569 22.5706C3.02482 22.6676 3.5753 22.9003 3.76776 22.9436C4.0044 22.9968 19.8628 23.0243 20.1413 22.9719C20.3177 22.9388 20.6337 22.8434 20.653 22.8176C20.6625 22.8047 20.7831 22.7476 20.921 22.6906C21.059 22.6336 21.1994 22.5649 21.233 22.5379C21.2666 22.511 21.365 22.4411 21.4517 22.3826C21.8082 22.142 22.405 21.4608 22.5586 21.1189C22.5987 21.0296 22.6675 20.8835 22.7113 20.7942C22.7553 20.7049 22.8185 20.5183 22.8521 20.3794C22.8855 20.2405 22.9309 20.0878 22.9527 20.0402C23.028 19.8763 23.0077 9.47094 22.9318 9.35947C22.8985 9.31034 22.8712 9.2431 22.8712 9.21004C22.8712 9.09737 22.5652 8.78578 22.4093 8.73969C22.3297 8.71614 22.2499 8.68345 22.2318 8.66692C22.2136 8.65048 17.628 8.63847 12.0416 8.64041L1.88427 8.64392L1.6651 8.72639ZM21.8834 14.7732C21.8834 18.4085 21.8728 19.7869 21.8446 19.8237C21.8232 19.8515 21.7872 19.9392 21.7646 20.0187C21.7088 20.214 21.5802 20.5155 21.5338 20.5598C21.513 20.5796 21.4611 20.6597 21.4185 20.7377C21.3439 20.8743 21.3065 20.921 21.0599 21.1852C20.8715 21.387 20.8189 21.4271 20.5386 21.5819C19.9892 21.8852 20.8127 21.8584 12.0225 21.8584C3.21736 21.8584 3.96865 21.8827 3.50556 21.5832C3.38684 21.5064 3.28018 21.4436 3.26856 21.4436C3.24265 21.4436 3.05658 21.2687 2.83209 21.0332C2.59465 20.7843 2.34079 20.3018 2.25188 19.9306C2.17859 19.6247 2.13068 9.85364 2.2021 9.77921C2.21479 9.766 6.64831 9.75926 12.0543 9.76425L21.8834 9.7733V14.7732ZM3.84141 10.9392C3.7446 10.9839 3.6501 11.0706 3.57255 11.1858C3.45747 11.3569 3.45401 12.9567 3.56829 13.1723C3.72401 13.4661 3.66953 13.4516 4.66669 13.4646C6.04956 13.4827 5.97423 13.5552 5.97423 12.2069C5.97423 11.187 5.95968 11.0937 5.79029 11.027C5.75799 11.0143 5.71096 10.9827 5.68585 10.9568C5.63643 10.906 3.94841 10.8899 3.84141 10.9392ZM10.9653 10.9454C10.9272 10.9625 10.8415 11.0263 10.7747 11.0871L10.6534 11.1977L10.6432 12.1704C10.6332 13.1095 10.6353 13.1455 10.7038 13.2168C10.7428 13.2574 10.7747 13.3043 10.7747 13.321C10.7747 13.449 10.9886 13.4761 11.9093 13.4644L12.8185 13.453L12.9317 13.335C13.0606 13.2008 13.0877 12.9939 13.0932 12.1001C13.0983 11.2688 13.0798 11.2749 12.0995 12.4165C11.8016 12.7634 11.8144 12.7635 11.4927 12.4129C11.2093 12.1042 11.1831 12.0292 11.3136 11.9033C11.4313 11.7897 11.451 11.7896 11.5923 11.9017C11.6548 11.9513 11.7213 11.992 11.7401 11.992C11.8098 11.992 12.6183 11.0518 12.5974 10.9951C12.5862 10.9647 12.577 10.9331 12.577 10.9247C12.577 10.8951 11.0333 10.9149 10.9653 10.9454ZM5.18346 12.0912C5.20502 12.3255 5.20387 12.476 5.18018 12.5421L5.14451 12.6413H4.72374H4.30289L4.28293 12.4402C4.27202 12.3295 4.2721 12.1266 4.28311 11.9892L4.30325 11.7394H4.72712H5.15107L5.18346 12.0912ZM6.82764 12.2446C6.50457 12.3239 6.42995 12.6664 6.68452 12.9015L6.83234 13.0381H7.87972C9.00332 13.0381 9.07599 13.0276 9.19737 12.8472C9.32239 12.6614 9.22408 12.3571 9.01033 12.2681C8.85407 12.203 7.07476 12.1838 6.82764 12.2446ZM14.3801 12.2486C14.0723 12.3764 14.0538 12.7958 14.3487 12.9596L14.4899 13.0381H17.2191H19.9482L20.0768 12.9208C20.3173 12.7016 20.2271 12.2947 19.9241 12.2316C19.7371 12.1926 14.476 12.2088 14.3801 12.2486ZM3.79553 14.5176C3.66625 14.5587 3.56536 14.6558 3.56536 14.7393C3.56536 14.7758 3.54975 14.8058 3.53067 14.8058C3.50849 14.8058 3.49598 15.1294 3.49598 15.7042C3.49598 17.0608 3.44283 17.0064 4.76864 17.0063C6.02356 17.0062 5.98416 17.0384 5.98887 16.01L5.99153 15.4285L6.12152 15.4061C6.19304 15.3939 6.90155 15.3836 7.69614 15.3834L9.14076 15.383L9.26756 15.2585C9.48495 15.0451 9.45318 14.6928 9.20323 14.5438C9.11361 14.4904 3.95995 14.4654 3.79553 14.5176ZM10.8096 14.5711C10.6337 14.7062 10.6371 14.6832 10.6368 15.7077C10.6361 17.0789 10.5671 17.0064 11.8735 17.0062C13.1132 17.006 13.0596 17.0507 13.084 15.9963C13.1096 14.8855 13.0832 14.8546 12.5744 15.4C12.399 15.588 12.231 15.7788 12.201 15.8239C12.1709 15.8691 12.1103 15.9359 12.0664 15.9723C12.0224 16.0088 11.9629 16.0859 11.9343 16.1438C11.8604 16.2925 11.7725 16.2755 11.5998 16.0792C11.5178 15.9858 11.3999 15.8535 11.3379 15.7851C11.1038 15.5263 11.2994 15.2363 11.5884 15.4138C11.7716 15.5263 11.822 15.4887 12.4118 14.7988C12.6909 14.4725 12.709 14.4811 11.7499 14.4811H10.9268L10.8096 14.5711ZM14.603 14.5129C14.1332 14.5629 13.9669 14.9918 14.3084 15.2733L14.4414 15.383H17.3329H20.2244L20.3694 15.2671C20.6418 15.0491 20.536 14.5991 20.1936 14.519C20.0454 14.4845 14.9235 14.4788 14.603 14.5129ZM5.17157 15.7284C5.20307 16.264 5.21664 16.2488 4.70795 16.2488H4.29322V15.7978V15.3469H4.72117H5.14921L5.17157 15.7284ZM6.94193 16.1023C6.63678 16.2352 6.60457 16.6876 6.88718 16.8697C7.05985 16.981 8.28362 16.9922 8.48114 16.8842C8.7169 16.7555 8.75558 16.4034 8.55691 16.1965L8.45124 16.0864L7.73269 16.0786C7.3374 16.0744 6.98159 16.085 6.94193 16.1023ZM14.3939 16.1029C14.0851 16.2347 14.0629 16.7224 14.358 16.8907C14.472 16.9556 18.2538 17.0079 18.7101 16.9508C19.1099 16.9009 19.2648 16.5251 19.0089 16.2257L18.8898 16.0864L16.6779 16.0793C15.4614 16.0754 14.4336 16.086 14.3939 16.1029ZM3.77574 18.0631C3.52881 18.1536 3.49598 18.2967 3.49598 19.2847C3.49598 19.8341 3.50858 20.1449 3.53067 20.1449C3.54975 20.1449 3.56536 20.175 3.56536 20.2118C3.56536 20.2934 3.71612 20.4695 3.78604 20.4695C3.81399 20.4695 3.84336 20.4898 3.85125 20.5147C3.87042 20.5743 5.6689 20.5805 5.70688 20.5211C5.72046 20.4997 5.75799 20.4722 5.79029 20.4598C5.94362 20.401 5.97361 20.2703 5.98647 19.6054C5.99464 19.1812 6.01176 18.9637 6.03838 18.9459C6.0603 18.9314 6.7689 18.9192 7.61309 18.9188L9.14795 18.9184L9.27439 18.7868C9.4231 18.632 9.46339 18.3337 9.34493 18.2647C9.31157 18.2452 9.28433 18.2097 9.28433 18.1857C9.28433 18.0367 9.2523 18.0348 6.51149 18.0271C4.54176 18.0215 3.86519 18.0304 3.77574 18.0631ZM10.7748 18.147L10.6361 18.2774V19.2058C10.6361 20.2477 10.6447 20.2967 10.8538 20.4515L11 20.5598H11.8665H12.733L12.8786 20.4515C12.9587 20.392 13.0349 20.319 13.0479 20.2892C13.0854 20.2039 13.1081 19.2441 13.0809 18.9028C13.0471 18.4825 13.0106 18.4868 12.5736 18.9634C12.3871 19.1668 12.179 19.3901 12.1111 19.4597C12.0433 19.5294 11.9879 19.604 11.9879 19.6255C11.9879 19.7876 11.7421 19.8247 11.6125 19.6822C11.1778 19.204 11.1124 18.9865 11.3875 18.9328C11.481 18.9145 11.5312 18.9268 11.6093 18.9869C11.7434 19.0901 11.8365 19.0409 12.0915 18.7324C12.1956 18.6065 12.3377 18.4466 12.4076 18.3772C12.7518 18.0346 12.7185 18.0165 11.7432 18.0165H10.9135L10.7748 18.147ZM14.4814 18.0501C14.0923 18.1754 14.009 18.6835 14.3477 18.8658C14.4612 18.9269 19.7813 18.946 19.9333 18.8859C20.0276 18.8486 20.2024 18.5919 20.2024 18.4908C20.2024 18.3964 20.0398 18.1021 19.9673 18.065C19.8915 18.0262 14.6003 18.0119 14.4814 18.0501ZM5.15276 18.9256C5.2036 18.9785 5.20955 19.5576 5.16057 19.6916C5.12694 19.7837 5.12507 19.7842 4.71505 19.7842H4.30325L4.28311 19.5344C4.2721 19.397 4.27202 19.194 4.28293 19.0834L4.30289 18.8823H4.70706C4.97521 18.8823 5.12516 18.8969 5.15276 18.9256ZM6.82338 19.593C6.54237 19.699 6.46021 20.0449 6.66287 20.2686L6.77964 20.3974H7.87706C9.15141 20.3974 9.1783 20.3923 9.246 20.1402C9.30563 19.9182 9.24129 19.7258 9.07688 19.6347C8.95807 19.5688 6.98434 19.5322 6.82338 19.593ZM14.3967 19.6024C14.0997 19.7319 14.0549 20.1582 14.3206 20.3268C14.4816 20.429 19.1383 20.4377 19.3035 20.3362C19.4824 20.2261 19.5374 19.712 19.3703 19.712C19.3571 19.712 19.3105 19.6795 19.2665 19.6398C19.1811 19.5627 14.5691 19.5274 14.3967 19.6024Z" fill="black"/>
</svg>
