<svg width="33" height="24" viewBox="0 0 33 24" fill="none" xmlns="http://www.w3.org/2000/svg">
<path d="M30 11.913C30 12.5854 30.545 13.1304 31.2174 13.1304C31.8897 13.1304 32.4348 12.5854 32.4348 11.913C32.4348 11.2407 31.8897 10.6957 31.2174 10.6957C30.545 10.6957 30 11.2407 30 11.913Z" fill="#010101"/>
<path d="M26.7826 14.8261C26.7826 15.4744 27.3082 16 27.9565 16C28.6049 16 29.1304 15.4744 29.1304 14.8261C29.1304 14.1778 28.6049 13.6522 27.9565 13.6522C27.3082 13.6522 26.7826 14.1778 26.7826 14.8261Z" fill="#010101"/>
<path d="M26.7826 11.9565C26.7826 12.6049 27.3082 13.1304 27.9565 13.1304C28.6049 13.1304 29.1304 12.6049 29.1304 11.9565C29.1304 11.3082 28.6049 10.7826 27.9565 10.7826C27.3082 10.7826 26.7826 11.3082 26.7826 11.9565Z" fill="#010101"/>
<path d="M26.7826 9.08696C26.7826 9.73529 27.3082 10.2609 27.9565 10.2609C28.6049 10.2609 29.1304 9.73529 29.1304 9.08696C29.1304 8.43862 28.6049 7.91304 27.9565 7.91304C27.3082 7.91304 26.7826 8.43862 26.7826 9.08696Z" fill="#010101"/>
<path d="M23.6522 17.5652C23.6522 18.1895 24.1583 18.6957 24.7826 18.6957C25.4069 18.6957 25.913 18.1895 25.913 17.5652C25.913 16.9409 25.4069 16.4348 24.7826 16.4348C24.1583 16.4348 23.6522 16.9409 23.6522 17.5652Z" fill="#010101"/>
<path d="M23.6522 14.8696C23.6522 15.4939 24.1583 16 24.7826 16C25.4069 16 25.913 15.4939 25.913 14.8696C25.913 14.2452 25.4069 13.7391 24.7826 13.7391C24.1583 13.7391 23.6522 14.2452 23.6522 14.8696Z" fill="#010101"/>
<path d="M23.6522 11.913C23.6522 12.5374 24.1583 13.0435 24.7826 13.0435C25.4069 13.0435 25.913 12.5374 25.913 11.913C25.913 11.2887 25.4069 10.7826 24.7826 10.7826C24.1583 10.7826 23.6522 11.2887 23.6522 11.913Z" fill="#010101"/>
<path d="M23.6522 9.21739C23.6522 9.84171 24.1583 10.3478 24.7826 10.3478C25.4069 10.3478 25.913 9.84171 25.913 9.21739C25.913 8.59307 25.4069 8.08696 24.7826 8.08696C24.1583 8.08696 23.6522 8.59307 23.6522 9.21739Z" fill="#010101"/>
<path d="M23.6522 6.52174C23.6522 7.14606 24.1583 7.65217 24.7826 7.65217C25.4069 7.65217 25.913 7.14606 25.913 6.52174C25.913 5.89742 25.4069 5.3913 24.7826 5.3913C24.1583 5.3913 23.6522 5.89742 23.6522 6.52174Z" fill="#010101"/>
<path d="M20.5217 20.3043C20.5217 20.9047 21.0084 21.3913 21.6087 21.3913C22.209 21.3913 22.6957 20.9047 22.6957 20.3043C22.6957 19.704 22.209 19.2174 21.6087 19.2174C21.0084 19.2174 20.5217 19.704 20.5217 20.3043Z" fill="#010101"/>
<path d="M20.5217 17.5217C20.5217 18.122 21.0084 18.6087 21.6087 18.6087C22.209 18.6087 22.6957 18.122 22.6957 17.5217C22.6957 16.9214 22.209 16.4348 21.6087 16.4348C21.0084 16.4348 20.5217 16.9214 20.5217 17.5217Z" fill="#010101"/>
<path d="M20.5217 14.7391C20.5217 15.3394 21.0084 15.8261 21.6087 15.8261C22.209 15.8261 22.6957 15.3394 22.6957 14.7391C22.6957 14.1388 22.209 13.6522 21.6087 13.6522C21.0084 13.6522 20.5217 14.1388 20.5217 14.7391Z" fill="#010101"/>
<path d="M20.5217 11.9565C20.5217 12.5568 21.0084 13.0435 21.6087 13.0435C22.209 13.0435 22.6957 12.5568 22.6957 11.9565C22.6957 11.3562 22.209 10.8696 21.6087 10.8696C21.0084 10.8696 20.5217 11.3562 20.5217 11.9565Z" fill="#010101"/>
<path d="M20.5217 9.17391C20.5217 9.77422 21.0084 10.2609 21.6087 10.2609C22.209 10.2609 22.6957 9.77422 22.6957 9.17391C22.6957 8.5736 22.209 8.08696 21.6087 8.08696C21.0084 8.08696 20.5217 8.5736 20.5217 9.17391Z" fill="#010101"/>
<path d="M20.5217 6.56522C20.5217 7.16553 21.0084 7.65217 21.6087 7.65217C22.209 7.65217 22.6957 7.16553 22.6957 6.56522C22.6957 5.96491 22.209 5.47826 21.6087 5.47826C21.0084 5.47826 20.5217 5.96491 20.5217 6.56522Z" fill="#010101"/>
<path d="M20.5217 3.78261C20.5217 4.38292 21.0084 4.86957 21.6087 4.86957C22.209 4.86957 22.6957 4.38292 22.6957 3.78261C22.6957 3.1823 22.209 2.69565 21.6087 2.69565C21.0084 2.69565 20.5217 3.1823 20.5217 3.78261Z" fill="#010101"/>
<path d="M17.3913 22.9565C17.3913 23.5328 17.8585 24 18.4348 24C19.0111 24 19.4783 23.5328 19.4783 22.9565C19.4783 22.3802 19.0111 21.913 18.4348 21.913C17.8585 21.913 17.3913 22.3802 17.3913 22.9565Z" fill="#010101"/>
<path d="M17.3043 20.2174C17.3043 20.8177 17.791 21.3043 18.3913 21.3043C18.9916 21.3043 19.4783 20.8177 19.4783 20.2174C19.4783 19.6171 18.9916 19.1304 18.3913 19.1304C17.791 19.1304 17.3043 19.6171 17.3043 20.2174Z" fill="#010101"/>
<path d="M17.3043 17.5217C17.3043 18.122 17.791 18.6087 18.3913 18.6087C18.9916 18.6087 19.4783 18.122 19.4783 17.5217C19.4783 16.9214 18.9916 16.4348 18.3913 16.4348C17.791 16.4348 17.3043 16.9214 17.3043 17.5217Z" fill="#010101"/>
<path d="M17.3043 14.7391C17.3043 15.3394 17.791 15.8261 18.3913 15.8261C18.9916 15.8261 19.4783 15.3394 19.4783 14.7391C19.4783 14.1388 18.9916 13.6522 18.3913 13.6522C17.791 13.6522 17.3043 14.1388 17.3043 14.7391Z" fill="#010101"/>
<path d="M17.2174 11.9565C17.2174 12.5568 17.704 13.0435 18.3043 13.0435C18.9047 13.0435 19.3913 12.5568 19.3913 11.9565C19.3913 11.3562 18.9047 10.8696 18.3043 10.8696C17.704 10.8696 17.2174 11.3562 17.2174 11.9565Z" fill="#010101"/>
<path d="M17.3043 9.17391C17.3043 9.77422 17.791 10.2609 18.3913 10.2609C18.9916 10.2609 19.4783 9.77422 19.4783 9.17391C19.4783 8.5736 18.9916 8.08696 18.3913 8.08696C17.791 8.08696 17.3043 8.5736 17.3043 9.17391Z" fill="#010101"/>
<path d="M17.3043 6.47826C17.3043 7.07857 17.791 7.56522 18.3913 7.56522C18.9916 7.56522 19.4783 7.07857 19.4783 6.47826C19.4783 5.87795 18.9916 5.3913 18.3913 5.3913C17.791 5.3913 17.3043 5.87795 17.3043 6.47826Z" fill="#010101"/>
<path d="M17.3043 3.86957C17.3043 4.46987 17.791 4.95652 18.3913 4.95652C18.9916 4.95652 19.4783 4.46987 19.4783 3.86957C19.4783 3.26926 18.9916 2.78261 18.3913 2.78261C17.791 2.78261 17.3043 3.26926 17.3043 3.86957Z" fill="#010101"/>
<path d="M17.3043 1.08696C17.3043 1.68727 17.791 2.17391 18.3913 2.17391C18.9916 2.17391 19.4783 1.68727 19.4783 1.08696C19.4783 0.486647 18.9916 0 18.3913 0C17.791 0 17.3043 0.486647 17.3043 1.08696Z" fill="#010101"/>
<path d="M14.3478 17.5217C14.3478 18.074 14.7955 18.5217 15.3478 18.5217C15.9001 18.5217 16.3478 18.074 16.3478 17.5217C16.3478 16.9695 15.9001 16.5217 15.3478 16.5217C14.7955 16.5217 14.3478 16.9695 14.3478 17.5217Z" fill="#010101"/>
<path d="M14.2609 14.8261C14.2609 15.3784 14.7086 15.8261 15.2609 15.8261C15.8132 15.8261 16.2609 15.3784 16.2609 14.8261C16.2609 14.2738 15.8132 13.8261 15.2609 13.8261C14.7086 13.8261 14.2609 14.2738 14.2609 14.8261Z" fill="#010101"/>
<path d="M14.3478 12.0435C14.3478 12.5958 14.7955 13.0435 15.3478 13.0435C15.9001 13.0435 16.3478 12.5958 16.3478 12.0435C16.3478 11.4912 15.9001 11.0435 15.3478 11.0435C14.7955 11.0435 14.3478 11.4912 14.3478 12.0435Z" fill="#010101"/>
<path d="M14.3478 9.26087C14.3478 9.81315 14.7955 10.2609 15.3478 10.2609C15.9001 10.2609 16.3478 9.81315 16.3478 9.26087C16.3478 8.70858 15.9001 8.26087 15.3478 8.26087C14.7955 8.26087 14.3478 8.70858 14.3478 9.26087Z" fill="#010101"/>
<path d="M14.2609 6.56522C14.2609 7.1175 14.7086 7.56522 15.2609 7.56522C15.8132 7.56522 16.2609 7.1175 16.2609 6.56522C16.2609 6.01293 15.8132 5.56522 15.2609 5.56522C14.7086 5.56522 14.2609 6.01293 14.2609 6.56522Z" fill="#010101"/>
<path d="M11.4783 17.3913C11.4783 17.8716 11.8676 18.2609 12.3478 18.2609C12.8281 18.2609 13.2174 17.8716 13.2174 17.3913C13.2174 16.9111 12.8281 16.5217 12.3478 16.5217C11.8676 16.5217 11.4783 16.9111 11.4783 17.3913Z" fill="#010101"/>
<path d="M11.4783 14.7826C11.4783 15.2629 11.8676 15.6522 12.3478 15.6522C12.8281 15.6522 13.2174 15.2629 13.2174 14.7826C13.2174 14.3024 12.8281 13.913 12.3478 13.913C11.8676 13.913 11.4783 14.3024 11.4783 14.7826Z" fill="#010101"/>
<path d="M11.4783 11.913C11.4783 12.3933 11.8676 12.7826 12.3478 12.7826C12.8281 12.7826 13.2174 12.3933 13.2174 11.913C13.2174 11.4328 12.8281 11.0435 12.3478 11.0435C11.8676 11.0435 11.4783 11.4328 11.4783 11.913Z" fill="#010101"/>
<path d="M11.5652 9.21739C11.5652 9.69764 11.9545 10.087 12.4348 10.087C12.915 10.087 13.3043 9.69764 13.3043 9.21739C13.3043 8.73714 12.915 8.34783 12.4348 8.34783C11.9545 8.34783 11.5652 8.73714 11.5652 9.21739Z" fill="#010101"/>
<path d="M11.4783 6.43478C11.4783 6.91503 11.8676 7.30435 12.3478 7.30435C12.8281 7.30435 13.2174 6.91503 13.2174 6.43478C13.2174 5.95454 12.8281 5.56522 12.3478 5.56522C11.8676 5.56522 11.4783 5.95454 11.4783 6.43478Z" fill="#010101"/>
<path d="M8.86957 17.4783C8.86957 17.9105 9.21995 18.2609 9.65217 18.2609C10.0844 18.2609 10.4348 17.9105 10.4348 17.4783C10.4348 17.046 10.0844 16.6957 9.65217 16.6957C9.21995 16.6957 8.86957 17.046 8.86957 17.4783Z" fill="#010101"/>
<path d="M8.86957 14.7826C8.86957 15.2148 9.21995 15.5652 9.65217 15.5652C10.0844 15.5652 10.4348 15.2148 10.4348 14.7826C10.4348 14.3504 10.0844 14 9.65217 14C9.21995 14 8.86957 14.3504 8.86957 14.7826Z" fill="#010101"/>
<path d="M8.86957 12C8.86957 12.4322 9.21995 12.7826 9.65217 12.7826C10.0844 12.7826 10.4348 12.4322 10.4348 12C10.4348 11.5678 10.0844 11.2174 9.65217 11.2174C9.21995 11.2174 8.86957 11.5678 8.86957 12Z" fill="#010101"/>
<path d="M8.86957 9.21739C8.86957 9.64961 9.21995 10 9.65217 10C10.0844 10 10.4348 9.64961 10.4348 9.21739C10.4348 8.78517 10.0844 8.43478 9.65217 8.43478C9.21995 8.43478 8.86957 8.78517 8.86957 9.21739Z" fill="#010101"/>
<path d="M8.86957 6.52174C8.86957 6.95396 9.21995 7.30435 9.65217 7.30435C10.0844 7.30435 10.4348 6.95396 10.4348 6.52174C10.4348 6.08952 10.0844 5.73913 9.65217 5.73913C9.21995 5.73913 8.86957 6.08952 8.86957 6.52174Z" fill="#010101"/>
<path d="M6.34783 17.3913C6.34783 17.7755 6.65928 18.087 7.04348 18.087C7.42768 18.087 7.73913 17.7755 7.73913 17.3913C7.73913 17.0071 7.42768 16.6957 7.04348 16.6957C6.65928 16.6957 6.34783 17.0071 6.34783 17.3913Z" fill="#010101"/>
<path d="M6.43478 14.6957C6.43478 15.0799 6.74624 15.3913 7.13043 15.3913C7.51463 15.3913 7.82609 15.0799 7.82609 14.6957C7.82609 14.3115 7.51463 14 7.13043 14C6.74624 14 6.43478 14.3115 6.43478 14.6957Z" fill="#010101"/>
<path d="M6.34783 12C6.34783 12.3842 6.65928 12.6957 7.04348 12.6957C7.42768 12.6957 7.73913 12.3842 7.73913 12C7.73913 11.6158 7.42768 11.3043 7.04348 11.3043C6.65928 11.3043 6.34783 11.6158 6.34783 12Z" fill="#010101"/>
<path d="M6.43478 9.21739C6.43478 9.60159 6.74624 9.91304 7.13043 9.91304C7.51463 9.91304 7.82609 9.60159 7.82609 9.21739C7.82609 8.83319 7.51463 8.52174 7.13043 8.52174C6.74624 8.52174 6.43478 8.83319 6.43478 9.21739Z" fill="#010101"/>
<path d="M6.43478 6.52174C6.43478 6.90594 6.74624 7.21739 7.13043 7.21739C7.51463 7.21739 7.82609 6.90594 7.82609 6.52174C7.82609 6.13754 7.51463 5.82609 7.13043 5.82609C6.74624 5.82609 6.43478 6.13754 6.43478 6.52174Z" fill="#010101"/>
<path d="M4.17391 17.4783C4.17391 17.8144 4.44644 18.087 4.78261 18.087C5.11878 18.087 5.3913 17.8144 5.3913 17.4783C5.3913 17.1421 5.11878 16.8696 4.78261 16.8696C4.44644 16.8696 4.17391 17.1421 4.17391 17.4783Z" fill="#010101"/>
<path d="M4.17391 14.6957C4.17391 15.0318 4.44644 15.3043 4.78261 15.3043C5.11878 15.3043 5.3913 15.0318 5.3913 14.6957C5.3913 14.3595 5.11878 14.087 4.78261 14.087C4.44644 14.087 4.17391 14.3595 4.17391 14.6957Z" fill="#010101"/>
<path d="M4.08696 11.913C4.08696 12.2492 4.35948 12.5217 4.69565 12.5217C5.03183 12.5217 5.30435 12.2492 5.30435 11.913C5.30435 11.5769 5.03183 11.3043 4.69565 11.3043C4.35948 11.3043 4.08696 11.5769 4.08696 11.913Z" fill="#010101"/>
<path d="M4.08696 9.21739C4.08696 9.55356 4.35948 9.82609 4.69565 9.82609C5.03183 9.82609 5.30435 9.55356 5.30435 9.21739C5.30435 8.88122 5.03183 8.6087 4.69565 8.6087C4.35948 8.6087 4.08696 8.88122 4.08696 9.21739Z" fill="#010101"/>
<path d="M4.08696 6.43478C4.08696 6.77096 4.35948 7.04348 4.69565 7.04348C5.03183 7.04348 5.30435 6.77096 5.30435 6.43478C5.30435 6.09861 5.03183 5.82609 4.69565 5.82609C4.35948 5.82609 4.08696 6.09861 4.08696 6.43478Z" fill="#010101"/>
<path d="M2 17.3913C2 17.6795 2.23359 17.913 2.52174 17.913C2.80989 17.913 3.04348 17.6795 3.04348 17.3913C3.04348 17.1032 2.80989 16.8696 2.52174 16.8696C2.23359 16.8696 2 17.1032 2 17.3913Z" fill="#010101"/>
<path d="M2 14.6957C2 14.9838 2.23359 15.2174 2.52174 15.2174C2.80989 15.2174 3.04348 14.9838 3.04348 14.6957C3.04348 14.4075 2.80989 14.1739 2.52174 14.1739C2.23359 14.1739 2 14.4075 2 14.6957Z" fill="#010101"/>
<path d="M2 12C2 12.2881 2.23359 12.5217 2.52174 12.5217C2.80989 12.5217 3.04348 12.2881 3.04348 12C3.04348 11.7119 2.80989 11.4783 2.52174 11.4783C2.23359 11.4783 2 11.7119 2 12Z" fill="#010101"/>
<path d="M2 9.21739C2 9.50554 2.23359 9.73913 2.52174 9.73913C2.80989 9.73913 3.04348 9.50554 3.04348 9.21739C3.04348 8.92924 2.80989 8.69565 2.52174 8.69565C2.23359 8.69565 2 8.92924 2 9.21739Z" fill="#010101"/>
<path d="M2 6.52174C2 6.80989 2.23359 7.04348 2.52174 7.04348C2.80989 7.04348 3.04348 6.80989 3.04348 6.52174C3.04348 6.23359 2.80989 6 2.52174 6C2.23359 6 2 6.23359 2 6.52174Z" fill="#010101"/>
<path d="M0 17.3913C0 17.6314 0.194659 17.8261 0.434783 17.8261C0.674906 17.8261 0.869565 17.6314 0.869565 17.3913C0.869565 17.1512 0.674906 16.9565 0.434783 16.9565C0.194659 16.9565 0 17.1512 0 17.3913Z" fill="#010101"/>
<path d="M0 14.7826C0 15.0227 0.194659 15.2174 0.434783 15.2174C0.674906 15.2174 0.869565 15.0227 0.869565 14.7826C0.869565 14.5425 0.674906 14.3478 0.434783 14.3478C0.194659 14.3478 0 14.5425 0 14.7826Z" fill="#010101"/>
<path d="M0 11.913C0 12.1532 0.194659 12.3478 0.434783 12.3478C0.674906 12.3478 0.869565 12.1532 0.869565 11.913C0.869565 11.6729 0.674906 11.4783 0.434783 11.4783C0.194659 11.4783 0 11.6729 0 11.913Z" fill="#010101"/>
<path d="M0 9.13043C0 9.37056 0.194659 9.56522 0.434783 9.56522C0.674906 9.56522 0.869565 9.37056 0.869565 9.13043C0.869565 8.89031 0.674906 8.69565 0.434783 8.69565C0.194659 8.69565 0 8.89031 0 9.13043Z" fill="#010101"/>
<path d="M0 6.52174C0 6.76186 0.194659 6.95652 0.434783 6.95652C0.674906 6.95652 0.869565 6.76186 0.869565 6.52174C0.869565 6.28162 0.674906 6.08696 0.434783 6.08696C0.194659 6.08696 0 6.28162 0 6.52174Z" fill="#010101"/>
</svg>
