<svg width="33" height="24" viewBox="0 0 33 24" fill="none" xmlns="http://www.w3.org/2000/svg">
<path d="M2.43478 11.913C2.43478 12.5854 1.88974 13.1304 1.21739 13.1304C0.545045 13.1304 0 12.5854 0 11.913C0 11.2407 0.545045 10.6957 1.21739 10.6957C1.88974 10.6957 2.43478 11.2407 2.43478 11.913Z" fill="#010101"/>
<path d="M5.65217 14.8261C5.65217 15.4744 5.1266 16 4.47826 16C3.82993 16 3.30435 15.4744 3.30435 14.8261C3.30435 14.1778 3.82993 13.6522 4.47826 13.6522C5.1266 13.6522 5.65217 14.1778 5.65217 14.8261Z" fill="#010101"/>
<path d="M5.65217 11.9565C5.65217 12.6049 5.1266 13.1304 4.47826 13.1304C3.82993 13.1304 3.30435 12.6049 3.30435 11.9565C3.30435 11.3082 3.82993 10.7826 4.47826 10.7826C5.1266 10.7826 5.65217 11.3082 5.65217 11.9565Z" fill="#010101"/>
<path d="M5.65217 9.08696C5.65217 9.73529 5.1266 10.2609 4.47826 10.2609C3.82993 10.2609 3.30435 9.73529 3.30435 9.08696C3.30435 8.43862 3.82993 7.91304 4.47826 7.91304C5.1266 7.91304 5.65217 8.43862 5.65217 9.08696Z" fill="#010101"/>
<path d="M8.78261 17.5652C8.78261 18.1895 8.2765 18.6957 7.65217 18.6957C7.02785 18.6957 6.52174 18.1895 6.52174 17.5652C6.52174 16.9409 7.02785 16.4348 7.65217 16.4348C8.2765 16.4348 8.78261 16.9409 8.78261 17.5652Z" fill="#010101"/>
<path d="M8.78261 14.8696C8.78261 15.4939 8.2765 16 7.65217 16C7.02785 16 6.52174 15.4939 6.52174 14.8696C6.52174 14.2452 7.02785 13.7391 7.65217 13.7391C8.2765 13.7391 8.78261 14.2452 8.78261 14.8696Z" fill="#010101"/>
<path d="M8.78261 11.913C8.78261 12.5374 8.2765 13.0435 7.65217 13.0435C7.02785 13.0435 6.52174 12.5374 6.52174 11.913C6.52174 11.2887 7.02785 10.7826 7.65217 10.7826C8.2765 10.7826 8.78261 11.2887 8.78261 11.913Z" fill="#010101"/>
<path d="M8.78261 9.21739C8.78261 9.84171 8.2765 10.3478 7.65217 10.3478C7.02785 10.3478 6.52174 9.84171 6.52174 9.21739C6.52174 8.59307 7.02785 8.08696 7.65217 8.08696C8.2765 8.08696 8.78261 8.59307 8.78261 9.21739Z" fill="#010101"/>
<path d="M8.78261 6.52174C8.78261 7.14606 8.2765 7.65217 7.65217 7.65217C7.02785 7.65217 6.52174 7.14606 6.52174 6.52174C6.52174 5.89742 7.02785 5.3913 7.65217 5.3913C8.2765 5.3913 8.78261 5.89742 8.78261 6.52174Z" fill="#010101"/>
<path d="M11.913 20.3043C11.913 20.9047 11.4264 21.3913 10.8261 21.3913C10.2258 21.3913 9.73913 20.9047 9.73913 20.3043C9.73913 19.704 10.2258 19.2174 10.8261 19.2174C11.4264 19.2174 11.913 19.704 11.913 20.3043Z" fill="#010101"/>
<path d="M11.913 17.5217C11.913 18.122 11.4264 18.6087 10.8261 18.6087C10.2258 18.6087 9.73913 18.122 9.73913 17.5217C9.73913 16.9214 10.2258 16.4348 10.8261 16.4348C11.4264 16.4348 11.913 16.9214 11.913 17.5217Z" fill="#010101"/>
<path d="M11.913 14.7391C11.913 15.3394 11.4264 15.8261 10.8261 15.8261C10.2258 15.8261 9.73913 15.3394 9.73913 14.7391C9.73913 14.1388 10.2258 13.6522 10.8261 13.6522C11.4264 13.6522 11.913 14.1388 11.913 14.7391Z" fill="#010101"/>
<path d="M11.913 11.9565C11.913 12.5568 11.4264 13.0435 10.8261 13.0435C10.2258 13.0435 9.73913 12.5568 9.73913 11.9565C9.73913 11.3562 10.2258 10.8696 10.8261 10.8696C11.4264 10.8696 11.913 11.3562 11.913 11.9565Z" fill="#010101"/>
<path d="M11.913 9.17391C11.913 9.77422 11.4264 10.2609 10.8261 10.2609C10.2258 10.2609 9.73913 9.77422 9.73913 9.17391C9.73913 8.5736 10.2258 8.08696 10.8261 8.08696C11.4264 8.08696 11.913 8.5736 11.913 9.17391Z" fill="#010101"/>
<path d="M11.913 6.56522C11.913 7.16553 11.4264 7.65217 10.8261 7.65217C10.2258 7.65217 9.73913 7.16553 9.73913 6.56522C9.73913 5.96491 10.2258 5.47826 10.8261 5.47826C11.4264 5.47826 11.913 5.96491 11.913 6.56522Z" fill="#010101"/>
<path d="M11.913 3.78261C11.913 4.38292 11.4264 4.86957 10.8261 4.86957C10.2258 4.86957 9.73913 4.38292 9.73913 3.78261C9.73913 3.1823 10.2258 2.69565 10.8261 2.69565C11.4264 2.69565 11.913 3.1823 11.913 3.78261Z" fill="#010101"/>
<path d="M15.0435 22.9565C15.0435 23.5328 14.5763 24 14 24C13.4237 24 12.9565 23.5328 12.9565 22.9565C12.9565 22.3802 13.4237 21.913 14 21.913C14.5763 21.913 15.0435 22.3802 15.0435 22.9565Z" fill="#010101"/>
<path d="M15.1304 20.2174C15.1304 20.8177 14.6438 21.3043 14.0435 21.3043C13.4432 21.3043 12.9565 20.8177 12.9565 20.2174C12.9565 19.6171 13.4432 19.1304 14.0435 19.1304C14.6438 19.1304 15.1304 19.6171 15.1304 20.2174Z" fill="#010101"/>
<path d="M15.1304 17.5217C15.1304 18.122 14.6438 18.6087 14.0435 18.6087C13.4432 18.6087 12.9565 18.122 12.9565 17.5217C12.9565 16.9214 13.4432 16.4348 14.0435 16.4348C14.6438 16.4348 15.1304 16.9214 15.1304 17.5217Z" fill="#010101"/>
<path d="M15.1304 14.7391C15.1304 15.3394 14.6438 15.8261 14.0435 15.8261C13.4432 15.8261 12.9565 15.3394 12.9565 14.7391C12.9565 14.1388 13.4432 13.6522 14.0435 13.6522C14.6438 13.6522 15.1304 14.1388 15.1304 14.7391Z" fill="#010101"/>
<path d="M15.2174 11.9565C15.2174 12.5568 14.7307 13.0435 14.1304 13.0435C13.5301 13.0435 13.0435 12.5568 13.0435 11.9565C13.0435 11.3562 13.5301 10.8696 14.1304 10.8696C14.7307 10.8696 15.2174 11.3562 15.2174 11.9565Z" fill="#010101"/>
<path d="M15.1304 9.17391C15.1304 9.77422 14.6438 10.2609 14.0435 10.2609C13.4432 10.2609 12.9565 9.77422 12.9565 9.17391C12.9565 8.5736 13.4432 8.08696 14.0435 8.08696C14.6438 8.08696 15.1304 8.5736 15.1304 9.17391Z" fill="#010101"/>
<path d="M15.1304 6.47826C15.1304 7.07857 14.6438 7.56522 14.0435 7.56522C13.4432 7.56522 12.9565 7.07857 12.9565 6.47826C12.9565 5.87795 13.4432 5.3913 14.0435 5.3913C14.6438 5.3913 15.1304 5.87795 15.1304 6.47826Z" fill="#010101"/>
<path d="M15.1304 3.86957C15.1304 4.46987 14.6438 4.95652 14.0435 4.95652C13.4432 4.95652 12.9565 4.46987 12.9565 3.86957C12.9565 3.26926 13.4432 2.78261 14.0435 2.78261C14.6438 2.78261 15.1304 3.26926 15.1304 3.86957Z" fill="#010101"/>
<path d="M15.1304 1.08696C15.1304 1.68727 14.6438 2.17391 14.0435 2.17391C13.4432 2.17391 12.9565 1.68727 12.9565 1.08696C12.9565 0.486647 13.4432 0 14.0435 0C14.6438 0 15.1304 0.486647 15.1304 1.08696Z" fill="#010101"/>
<path d="M18.087 17.5217C18.087 18.074 17.6392 18.5217 17.087 18.5217C16.5347 18.5217 16.087 18.074 16.087 17.5217C16.087 16.9695 16.5347 16.5217 17.087 16.5217C17.6392 16.5217 18.087 16.9695 18.087 17.5217Z" fill="#010101"/>
<path d="M18.1739 14.8261C18.1739 15.3784 17.7262 15.8261 17.1739 15.8261C16.6216 15.8261 16.1739 15.3784 16.1739 14.8261C16.1739 14.2738 16.6216 13.8261 17.1739 13.8261C17.7262 13.8261 18.1739 14.2738 18.1739 14.8261Z" fill="#010101"/>
<path d="M18.087 12.0435C18.087 12.5958 17.6392 13.0435 17.087 13.0435C16.5347 13.0435 16.087 12.5958 16.087 12.0435C16.087 11.4912 16.5347 11.0435 17.087 11.0435C17.6392 11.0435 18.087 11.4912 18.087 12.0435Z" fill="#010101"/>
<path d="M18.087 9.26087C18.087 9.81315 17.6392 10.2609 17.087 10.2609C16.5347 10.2609 16.087 9.81315 16.087 9.26087C16.087 8.70858 16.5347 8.26087 17.087 8.26087C17.6392 8.26087 18.087 8.70858 18.087 9.26087Z" fill="#010101"/>
<path d="M18.1739 6.56522C18.1739 7.1175 17.7262 7.56522 17.1739 7.56522C16.6216 7.56522 16.1739 7.1175 16.1739 6.56522C16.1739 6.01293 16.6216 5.56522 17.1739 5.56522C17.7262 5.56522 18.1739 6.01293 18.1739 6.56522Z" fill="#010101"/>
<path d="M20.9565 17.3913C20.9565 17.8716 20.5672 18.2609 20.087 18.2609C19.6067 18.2609 19.2174 17.8716 19.2174 17.3913C19.2174 16.9111 19.6067 16.5217 20.087 16.5217C20.5672 16.5217 20.9565 16.9111 20.9565 17.3913Z" fill="#010101"/>
<path d="M20.9565 14.7826C20.9565 15.2629 20.5672 15.6522 20.087 15.6522C19.6067 15.6522 19.2174 15.2629 19.2174 14.7826C19.2174 14.3024 19.6067 13.913 20.087 13.913C20.5672 13.913 20.9565 14.3024 20.9565 14.7826Z" fill="#010101"/>
<path d="M20.9565 11.913C20.9565 12.3933 20.5672 12.7826 20.087 12.7826C19.6067 12.7826 19.2174 12.3933 19.2174 11.913C19.2174 11.4328 19.6067 11.0435 20.087 11.0435C20.5672 11.0435 20.9565 11.4328 20.9565 11.913Z" fill="#010101"/>
<path d="M20.8696 9.21739C20.8696 9.69764 20.4802 10.087 20 10.087C19.5198 10.087 19.1304 9.69764 19.1304 9.21739C19.1304 8.73714 19.5198 8.34783 20 8.34783C20.4802 8.34783 20.8696 8.73714 20.8696 9.21739Z" fill="#010101"/>
<path d="M20.9565 6.43478C20.9565 6.91503 20.5672 7.30435 20.087 7.30435C19.6067 7.30435 19.2174 6.91503 19.2174 6.43478C19.2174 5.95454 19.6067 5.56522 20.087 5.56522C20.5672 5.56522 20.9565 5.95454 20.9565 6.43478Z" fill="#010101"/>
<path d="M23.5652 17.4783C23.5652 17.9105 23.2148 18.2609 22.7826 18.2609C22.3504 18.2609 22 17.9105 22 17.4783C22 17.046 22.3504 16.6957 22.7826 16.6957C23.2148 16.6957 23.5652 17.046 23.5652 17.4783Z" fill="#010101"/>
<path d="M23.5652 14.7826C23.5652 15.2148 23.2148 15.5652 22.7826 15.5652C22.3504 15.5652 22 15.2148 22 14.7826C22 14.3504 22.3504 14 22.7826 14C23.2148 14 23.5652 14.3504 23.5652 14.7826Z" fill="#010101"/>
<path d="M23.5652 12C23.5652 12.4322 23.2148 12.7826 22.7826 12.7826C22.3504 12.7826 22 12.4322 22 12C22 11.5678 22.3504 11.2174 22.7826 11.2174C23.2148 11.2174 23.5652 11.5678 23.5652 12Z" fill="#010101"/>
<path d="M23.5652 9.21739C23.5652 9.64961 23.2148 10 22.7826 10C22.3504 10 22 9.64961 22 9.21739C22 8.78517 22.3504 8.43478 22.7826 8.43478C23.2148 8.43478 23.5652 8.78517 23.5652 9.21739Z" fill="#010101"/>
<path d="M23.5652 6.52174C23.5652 6.95396 23.2148 7.30435 22.7826 7.30435C22.3504 7.30435 22 6.95396 22 6.52174C22 6.08952 22.3504 5.73913 22.7826 5.73913C23.2148 5.73913 23.5652 6.08952 23.5652 6.52174Z" fill="#010101"/>
<path d="M26.087 17.3913C26.087 17.7755 25.7755 18.087 25.3913 18.087C25.0071 18.087 24.6957 17.7755 24.6957 17.3913C24.6957 17.0071 25.0071 16.6957 25.3913 16.6957C25.7755 16.6957 26.087 17.0071 26.087 17.3913Z" fill="#010101"/>
<path d="M26 14.6957C26 15.0799 25.6885 15.3913 25.3043 15.3913C24.9202 15.3913 24.6087 15.0799 24.6087 14.6957C24.6087 14.3115 24.9202 14 25.3043 14C25.6885 14 26 14.3115 26 14.6957Z" fill="#010101"/>
<path d="M26.087 12C26.087 12.3842 25.7755 12.6957 25.3913 12.6957C25.0071 12.6957 24.6957 12.3842 24.6957 12C24.6957 11.6158 25.0071 11.3043 25.3913 11.3043C25.7755 11.3043 26.087 11.6158 26.087 12Z" fill="#010101"/>
<path d="M26 9.21739C26 9.60159 25.6885 9.91304 25.3043 9.91304C24.9202 9.91304 24.6087 9.60159 24.6087 9.21739C24.6087 8.83319 24.9202 8.52174 25.3043 8.52174C25.6885 8.52174 26 8.83319 26 9.21739Z" fill="#010101"/>
<path d="M26 6.52174C26 6.90594 25.6885 7.21739 25.3043 7.21739C24.9202 7.21739 24.6087 6.90594 24.6087 6.52174C24.6087 6.13754 24.9202 5.82609 25.3043 5.82609C25.6885 5.82609 26 6.13754 26 6.52174Z" fill="#010101"/>
<path d="M28.2609 17.4783C28.2609 17.8144 27.9883 18.087 27.6522 18.087C27.316 18.087 27.0435 17.8144 27.0435 17.4783C27.0435 17.1421 27.316 16.8696 27.6522 16.8696C27.9883 16.8696 28.2609 17.1421 28.2609 17.4783Z" fill="#010101"/>
<path d="M28.2609 14.6957C28.2609 15.0318 27.9883 15.3043 27.6522 15.3043C27.316 15.3043 27.0435 15.0318 27.0435 14.6957C27.0435 14.3595 27.316 14.087 27.6522 14.087C27.9883 14.087 28.2609 14.3595 28.2609 14.6957Z" fill="#010101"/>
<path d="M28.3478 11.913C28.3478 12.2492 28.0753 12.5217 27.7391 12.5217C27.403 12.5217 27.1304 12.2492 27.1304 11.913C27.1304 11.5769 27.403 11.3043 27.7391 11.3043C28.0753 11.3043 28.3478 11.5769 28.3478 11.913Z" fill="#010101"/>
<path d="M28.3478 9.21739C28.3478 9.55356 28.0753 9.82609 27.7391 9.82609C27.403 9.82609 27.1304 9.55356 27.1304 9.21739C27.1304 8.88122 27.403 8.6087 27.7391 8.6087C28.0753 8.6087 28.3478 8.88122 28.3478 9.21739Z" fill="#010101"/>
<path d="M28.3478 6.43478C28.3478 6.77096 28.0753 7.04348 27.7391 7.04348C27.403 7.04348 27.1304 6.77096 27.1304 6.43478C27.1304 6.09861 27.403 5.82609 27.7391 5.82609C28.0753 5.82609 28.3478 6.09861 28.3478 6.43478Z" fill="#010101"/>
<path d="M30.4348 17.3913C30.4348 17.6795 30.2012 17.913 29.913 17.913C29.6249 17.913 29.3913 17.6795 29.3913 17.3913C29.3913 17.1032 29.6249 16.8696 29.913 16.8696C30.2012 16.8696 30.4348 17.1032 30.4348 17.3913Z" fill="#010101"/>
<path d="M30.4348 14.6957C30.4348 14.9838 30.2012 15.2174 29.913 15.2174C29.6249 15.2174 29.3913 14.9838 29.3913 14.6957C29.3913 14.4075 29.6249 14.1739 29.913 14.1739C30.2012 14.1739 30.4348 14.4075 30.4348 14.6957Z" fill="#010101"/>
<path d="M30.4348 12C30.4348 12.2881 30.2012 12.5217 29.913 12.5217C29.6249 12.5217 29.3913 12.2881 29.3913 12C29.3913 11.7119 29.6249 11.4783 29.913 11.4783C30.2012 11.4783 30.4348 11.7119 30.4348 12Z" fill="#010101"/>
<path d="M30.4348 9.21739C30.4348 9.50554 30.2012 9.73913 29.913 9.73913C29.6249 9.73913 29.3913 9.50554 29.3913 9.21739C29.3913 8.92924 29.6249 8.69565 29.913 8.69565C30.2012 8.69565 30.4348 8.92924 30.4348 9.21739Z" fill="#010101"/>
<path d="M30.4348 6.52174C30.4348 6.80989 30.2012 7.04348 29.913 7.04348C29.6249 7.04348 29.3913 6.80989 29.3913 6.52174C29.3913 6.23359 29.6249 6 29.913 6C30.2012 6 30.4348 6.23359 30.4348 6.52174Z" fill="#010101"/>
<path d="M32.4348 17.3913C32.4348 17.6314 32.2401 17.8261 32 17.8261C31.7599 17.8261 31.5652 17.6314 31.5652 17.3913C31.5652 17.1512 31.7599 16.9565 32 16.9565C32.2401 16.9565 32.4348 17.1512 32.4348 17.3913Z" fill="#010101"/>
<path d="M32.4348 14.7826C32.4348 15.0227 32.2401 15.2174 32 15.2174C31.7599 15.2174 31.5652 15.0227 31.5652 14.7826C31.5652 14.5425 31.7599 14.3478 32 14.3478C32.2401 14.3478 32.4348 14.5425 32.4348 14.7826Z" fill="#010101"/>
<path d="M32.4348 11.913C32.4348 12.1532 32.2401 12.3478 32 12.3478C31.7599 12.3478 31.5652 12.1532 31.5652 11.913C31.5652 11.6729 31.7599 11.4783 32 11.4783C32.2401 11.4783 32.4348 11.6729 32.4348 11.913Z" fill="#010101"/>
<path d="M32.4348 9.13043C32.4348 9.37056 32.2401 9.56522 32 9.56522C31.7599 9.56522 31.5652 9.37056 31.5652 9.13043C31.5652 8.89031 31.7599 8.69565 32 8.69565C32.2401 8.69565 32.4348 8.89031 32.4348 9.13043Z" fill="#010101"/>
<path d="M32.4348 6.52174C32.4348 6.76186 32.2401 6.95652 32 6.95652C31.7599 6.95652 31.5652 6.76186 31.5652 6.52174C31.5652 6.28162 31.7599 6.08696 32 6.08696C32.2401 6.08696 32.4348 6.28162 32.4348 6.52174Z" fill="#010101"/>
</svg>
