<svg width="1800" height="1224" viewBox="0 0 1800 1224" fill="none" xmlns="http://www.w3.org/2000/svg">
<path d="M1661.69 628.221C1660.67 628.916 1658.26 630.611 1656.4 632.089C1652.73 634.87 1649.93 635.956 1647.69 635.522C1643.68 634.74 1642.7 634.74 1641.65 635.435C1641.01 635.87 1640.59 636.565 1640.59 637.13C1640.59 638.129 1642.92 641.215 1646.21 644.561C1648.58 646.952 1653.28 655.165 1653.57 657.338C1653.91 660.076 1652.98 665.813 1651.54 669.637C1650.4 672.679 1649.81 673.592 1647.19 676.243C1645.5 677.981 1642.7 680.632 1640.97 682.153C1639.24 683.674 1634.88 687.89 1631.29 691.541C1619.37 703.622 1617.21 705.274 1613.66 705.361C1611.71 705.361 1609.26 703.926 1605.41 700.493C1604.4 699.58 1602.37 698.016 1600.89 697.016C1597.25 694.452 1595.31 692.366 1592.56 688.064C1588.16 681.154 1587.32 677.677 1587.32 666.682C1587.27 659.207 1586.43 646.169 1585.79 644.605C1584.4 640.911 1578.69 634.131 1574.84 631.611C1570.15 628.525 1564.61 627.221 1557.55 627.612C1551.63 627.917 1547.06 628.438 1545.24 629.09C1544.57 629.351 1542.83 629.872 1541.44 630.263C1537.47 631.437 1535.05 632.523 1529.69 635.609C1523.55 639.172 1520.04 642.041 1517.25 645.909C1514.29 649.994 1512.9 653.644 1512.9 657.338C1512.9 660.772 1513.7 662.771 1516.24 665.9C1518.18 668.333 1518.82 669.941 1519.88 675.026C1521.95 685.282 1522.33 686.586 1524.02 688.455C1524.91 689.454 1525.71 690.715 1525.84 691.323C1525.96 691.932 1526.22 693.105 1526.43 693.974C1526.68 694.843 1526.85 696.408 1526.85 697.451C1526.89 700.971 1528.04 708.403 1528.63 708.75C1529.52 709.359 1532.31 709.185 1533.66 708.446C1536.07 707.186 1536.87 707.664 1539.62 712.14C1540.97 714.4 1542.79 717.877 1543.64 719.876C1545.37 724.004 1547.27 726.09 1549.3 726.09C1550.87 726.09 1555.31 723.439 1558.78 720.441C1560.8 718.702 1561.57 718.268 1562.83 718.268C1564.23 718.268 1564.61 718.529 1566.17 720.528C1567.15 721.788 1568.54 723.831 1569.26 725.091C1571.33 728.611 1572.09 728.003 1572.09 722.701C1572.09 719.441 1572.69 718.007 1575.18 715.095C1576.41 713.661 1577.17 713.096 1577.63 713.27C1578.77 713.705 1583.34 724.135 1584.57 729.046C1586 734.652 1585.79 735.043 1582.33 733.305C1579.58 731.871 1576.07 730.827 1575.27 731.132C1574.97 731.262 1574.12 732.305 1573.4 733.478C1572.69 734.652 1570.74 736.781 1569.09 738.215C1565.2 741.692 1564.31 741.736 1561.99 738.563C1560.04 735.956 1558.99 733.609 1558.99 731.957C1558.99 731.175 1558.78 730.871 1558.14 730.871C1555.94 730.871 1555.86 735.086 1557.97 739.432C1558.82 741.127 1559.41 742.822 1559.28 743.17C1559.16 743.518 1557.63 744.908 1555.94 746.168C1551.33 749.689 1542.03 758.163 1537.21 763.204C1533.07 767.507 1532.77 767.724 1526.77 770.766C1523.34 772.505 1520.17 773.895 1519.71 773.895C1517.8 773.895 1513.83 767.203 1512.56 761.944C1511.29 756.729 1511.12 754.86 1511.63 751.297C1512.35 746.082 1513.24 744.691 1518.48 740.866C1522.62 737.824 1525.58 734.869 1525.58 733.826C1525.58 732.609 1520.64 725.83 1517.8 723.135C1516.03 721.44 1515.94 721.31 1516.32 719.702C1516.87 717.225 1516.79 711.575 1516.2 710.967C1515.9 710.662 1515.1 710.445 1514.38 710.445C1513.7 710.445 1512.18 710.141 1511.04 709.793C1509.9 709.446 1508.21 709.141 1507.32 709.141C1504.74 709.141 1503.22 708.229 1499.28 704.231C1495.14 700.015 1493.41 698.929 1489.64 698.32C1486.85 697.842 1485.42 696.929 1485.42 695.626C1485.42 695.191 1484.91 694.452 1484.27 693.931C1483.18 693.018 1482.79 692.975 1478.44 693.192C1470.7 693.627 1464.36 695.713 1458.36 699.798C1451.17 704.709 1446.01 710.228 1443.22 715.921C1441.4 719.572 1439.75 725.873 1439.5 730.132C1439.2 734.217 1438.1 737.737 1436.41 739.954C1435.73 740.823 1434.8 742.344 1434.3 743.344C1433.71 744.604 1433.11 745.212 1432.56 745.212C1431.21 745.212 1430.2 746.647 1429.65 749.428C1429.14 751.775 1429.18 752.383 1430.03 755.903C1430.53 758.033 1431.42 760.51 1431.97 761.423C1432.56 762.335 1434.72 764.334 1436.83 765.899C1439.12 767.637 1441.57 769.984 1443.05 771.853C1444.95 774.243 1446.09 775.243 1448.21 776.372C1453.54 779.11 1456.2 779.588 1463.85 779.067C1467.78 778.806 1470.74 777.459 1474 774.33C1477 771.418 1477.3 771.288 1480.17 771.288C1482.37 771.288 1482.67 771.418 1484.15 772.939C1486.52 775.329 1487.11 777.937 1487.11 785.455C1487.11 790.801 1486.9 792.583 1485.75 798.102C1484.49 804.23 1484.44 804.968 1484.49 814.051V823.569L1483.01 828.176C1481.61 832.522 1481.53 833.043 1481.74 837.128C1481.95 842.387 1482.79 844.82 1486.18 850.34C1492.31 860.379 1501.27 870.983 1508.04 876.241C1511.84 879.196 1512.65 880.109 1513.79 882.76C1514.89 885.411 1516.96 888.192 1519.79 890.843C1523.26 894.103 1522.71 895.32 1514.55 902.751C1500.89 915.137 1499.41 916.702 1494.46 924.35C1491.08 929.565 1489.14 934.085 1487.57 940.43C1486.09 946.384 1485.88 948.992 1485.42 968.592C1485.04 983.889 1485.04 984.063 1483.81 988.148C1480.68 998.622 1470.36 1023.26 1464.36 1034.43C1463.22 1036.56 1461.65 1039.52 1460.89 1040.95C1460.13 1042.38 1459.16 1044.04 1458.78 1044.64C1458.4 1045.25 1457.43 1046.99 1456.62 1048.56C1455.82 1050.12 1454.04 1052.86 1452.65 1054.64C1451.25 1056.47 1449.56 1058.81 1448.84 1059.86C1448.17 1060.94 1442.92 1066.59 1437.26 1072.46C1426.35 1083.76 1424.53 1085.8 1421.49 1090.28C1416.5 1097.62 1402.88 1124.48 1395.78 1141.04C1393.58 1146.17 1391.38 1150.77 1390.83 1151.38C1390.24 1152.08 1389.44 1152.42 1388.51 1152.42C1387.74 1152.42 1386.27 1152.64 1385.21 1152.9C1384.19 1153.12 1382.04 1153.51 1380.43 1153.73C1376.84 1154.16 1375.99 1154.73 1374.09 1158.07L1372.52 1160.77L1372.23 1169.2L1371.97 1177.67L1370.11 1180.8C1365.5 1188.67 1362.5 1193.32 1360.13 1196.32C1356.2 1201.27 1355.61 1202.66 1355.61 1207.36C1355.61 1216.7 1359.84 1224.35 1364.19 1222.83C1365.93 1222.22 1371.42 1216.87 1375.99 1211.31C1379.16 1207.44 1380.51 1205.66 1384.79 1199.79C1385.38 1198.97 1388.84 1193.67 1392.48 1188.06C1398.44 1178.76 1401.28 1173.41 1401.28 1171.28C1401.28 1170.89 1401.91 1169.94 1402.67 1169.2C1403.43 1168.46 1404.95 1165.98 1406.01 1163.68C1407.83 1159.9 1413.33 1150.99 1416.41 1146.9C1424.23 1136.43 1427.66 1132.3 1434.64 1124.91C1438.06 1121.26 1445.25 1114.53 1449.48 1111.05C1453.16 1107.96 1461.44 1102.01 1462.03 1102.01C1463.05 1102.01 1462.63 1103.23 1460.77 1105.57C1457.13 1110.18 1450.79 1120.79 1447.95 1127C1447.07 1128.91 1445.42 1131.91 1444.32 1133.69C1443.22 1135.47 1442.37 1137 1442.46 1137.13C1442.75 1137.39 1444.49 1136.3 1446.52 1134.61C1448.93 1132.56 1453.66 1129.52 1460.47 1125.7C1463.39 1124.04 1467.45 1121.57 1469.52 1120.18C1471.55 1118.79 1473.53 1117.66 1473.87 1117.66C1474.59 1117.66 1472.86 1120.31 1468.55 1125.7C1467.02 1127.61 1465.37 1129.69 1464.91 1130.35C1464.44 1131 1461.48 1134.78 1458.31 1138.82C1455.18 1142.82 1450.45 1148.99 1447.83 1152.47C1443.6 1158.16 1442.84 1158.94 1441.1 1159.59C1437.98 1160.81 1434.13 1162.85 1433.11 1163.81C1431.72 1165.16 1431.84 1166.94 1433.41 1168.07C1434.09 1168.59 1434.8 1169.5 1434.97 1170.15C1435.1 1170.81 1437.47 1173.59 1440.6 1176.76C1443.85 1180.02 1446.09 1182.67 1446.26 1183.32C1446.47 1184.37 1445.97 1185.06 1441.99 1189.19C1436.75 1194.62 1431.3 1199.58 1428.17 1201.71C1425.12 1203.75 1418.53 1207.27 1413.2 1209.62C1403.14 1214.13 1400.85 1215.57 1400.85 1217.44C1400.85 1218.65 1402.97 1220.52 1405 1221.04C1409.01 1222.13 1412.73 1222.83 1414.26 1222.83C1415.19 1222.83 1417.55 1223.04 1419.5 1223.3C1423.81 1223.91 1440.39 1223.13 1443.85 1222.13C1445.04 1221.78 1446.47 1221.52 1447.02 1221.52C1449.81 1221.52 1457.34 1218.13 1464.91 1213.48C1468.25 1211.4 1471.34 1209.79 1471.76 1209.88C1472.31 1209.96 1472.6 1210.61 1472.86 1212.27C1473.45 1216 1473.58 1216.05 1483.13 1216.05C1490.28 1216 1491.5 1215.87 1492.1 1215.26C1492.65 1214.7 1492.86 1213.44 1493.03 1209.57L1493.24 1204.62L1495.44 1202.31C1496.66 1201.05 1498.44 1198.79 1499.45 1197.32C1500.47 1195.84 1503.26 1191.93 1505.67 1188.62C1515.86 1174.72 1519.92 1169.07 1526.51 1159.38C1530.32 1153.77 1534.55 1147.6 1535.9 1145.69C1540.72 1138.82 1547.11 1129.43 1551.59 1122.61C1554.08 1118.83 1556.83 1114.92 1557.72 1113.96C1559.66 1111.75 1563.38 1106.53 1564.61 1104.23C1566.17 1101.27 1569.51 1097.58 1570.53 1097.75C1571.46 1097.88 1573.24 1101.71 1575.27 1108.05C1575.9 1110.01 1576.74 1112.01 1577.13 1112.57C1577.89 1113.61 1578.94 1116 1585.67 1132C1590.87 1144.47 1592.52 1148.99 1593.45 1153.6L1594.21 1157.12L1593.02 1159.25C1592.35 1160.38 1590.06 1163.24 1587.91 1165.59C1585.45 1168.24 1583.81 1170.46 1583.47 1171.46C1583.17 1172.33 1582.58 1173.59 1582.11 1174.24C1581.44 1175.15 1581.23 1176.46 1580.93 1180.32C1580.59 1185.5 1579.28 1191.45 1576.58 1200.05C1574.97 1205.18 1574.8 1206.09 1575.48 1206.53C1576.66 1207.27 1577.51 1206.09 1579.66 1200.75C1582.83 1192.97 1584.95 1188.36 1585.79 1187.49C1586.81 1186.45 1590.11 1186.49 1591.84 1187.58C1593.62 1188.71 1597.12 1193.14 1598.48 1195.97C1599.07 1197.23 1600.04 1200.4 1600.63 1203.05C1602.71 1212.14 1603 1213.14 1604.27 1215.35C1605.03 1216.74 1606.22 1218.05 1607.31 1218.78C1609.77 1220.39 1614.38 1222.31 1617.72 1223.04C1619.24 1223.39 1620.89 1223.78 1621.39 1223.91C1623.8 1224.65 1624.31 1220.65 1622.83 1212.79C1622.16 1209.27 1621.86 1205.31 1621.56 1194.14C1621.1 1178.19 1620.72 1175.89 1618.69 1175.89C1618.35 1175.89 1616.91 1174.98 1615.48 1173.89C1609.81 1169.59 1600.34 1164.24 1596.45 1163.24C1594.8 1162.81 1594.46 1162.59 1594.59 1161.81C1594.67 1161.11 1595.05 1160.85 1596.24 1160.77C1599.92 1160.46 1614.33 1169.2 1617.89 1173.89C1620.13 1176.89 1620.34 1174.85 1618.52 1167.42C1618.05 1165.5 1617.5 1162.94 1617.34 1161.77C1617.12 1160.55 1616.28 1157.03 1615.48 1153.94C1614.63 1150.82 1613.32 1145.08 1612.47 1141.12C1611.67 1137.17 1610.78 1132.95 1610.53 1131.78C1609.13 1125.44 1608.24 1120.22 1607.4 1113.53C1607.02 1110.66 1606.47 1106.88 1606.13 1105.14C1605.79 1103.4 1605.5 1101.05 1605.5 1099.92C1605.5 1098.79 1605.2 1096.8 1604.86 1095.49C1604.52 1094.19 1604.23 1092.15 1604.23 1090.97C1604.23 1089.8 1603.93 1087.15 1603.59 1085.11C1603.26 1083.06 1602.71 1077.46 1602.33 1072.68C1601.94 1067.9 1601.48 1061.81 1601.27 1059.16C1600.55 1050.9 1600.68 1048.99 1602.03 1046.77C1603.89 1043.78 1609.51 1036.21 1611.37 1034.21C1613.4 1032 1614.29 1032.26 1615.43 1035.39C1616.19 1037.47 1625.28 1056.12 1627.4 1059.86C1632.94 1069.76 1645.33 1087.41 1659.53 1105.66C1663.85 1111.18 1668.29 1116.74 1669.43 1118C1670.53 1119.31 1671.96 1121.26 1672.6 1122.35C1673.23 1123.48 1674.8 1125.48 1676.07 1126.78C1677.38 1128.09 1680.04 1131.22 1682.03 1133.69C1686.68 1139.56 1694.46 1148.82 1699.57 1154.6C1701.81 1157.12 1704.14 1159.98 1704.77 1160.94C1705.41 1161.94 1707.1 1163.9 1708.45 1165.33C1709.85 1166.76 1711.67 1168.81 1712.47 1169.94C1714.29 1172.41 1717.84 1176.85 1722.83 1182.89C1724.94 1185.41 1727.56 1188.62 1728.71 1190.06C1731.24 1193.27 1731.96 1193.67 1735.01 1193.71C1737.92 1193.71 1738.22 1194.14 1737.42 1197.36C1736.74 1200.18 1735.26 1203.23 1733.95 1204.4C1733.44 1204.92 1731.33 1206.44 1729.34 1207.75C1727.35 1209.05 1724.82 1211.18 1723.76 1212.44C1722.07 1214.44 1721.77 1215.05 1721.77 1216.61C1721.77 1217.92 1722.03 1218.74 1722.62 1219.35C1723.38 1220.13 1724.01 1220.22 1729.93 1220.22C1734.33 1220.22 1737.16 1220 1738.81 1219.57C1740.16 1219.22 1741.73 1218.92 1742.36 1218.92C1743.76 1218.92 1748.66 1217.79 1752.38 1216.61C1756.57 1215.26 1757.75 1213.87 1759.57 1208.09C1760.38 1205.57 1761.43 1201.92 1761.9 1200.01C1764.01 1191.41 1766.72 1185.02 1768.2 1185.02C1768.58 1185.02 1769.89 1185.71 1771.11 1186.58C1772.55 1187.58 1774.03 1188.23 1775.17 1188.36C1776.99 1188.58 1777.03 1188.54 1779.44 1185.71C1783.17 1181.37 1789 1173.15 1789 1172.28C1789 1171.81 1783.71 1166.07 1776.4 1158.59C1769.51 1151.51 1758.9 1140.52 1752.85 1134.17C1746.8 1127.83 1736.99 1117.57 1731.07 1111.35C1723.12 1103.05 1720 1099.53 1719.4 1098.1C1718.98 1097.06 1717.84 1095.36 1716.91 1094.41C1713.53 1090.93 1702.79 1076.85 1695.85 1066.94C1694.08 1064.38 1690.31 1059.29 1687.52 1055.73C1684.69 1052.12 1681.18 1047.43 1679.7 1045.3C1678.22 1043.12 1675.43 1039.34 1673.53 1036.82C1669.81 1031.87 1668.83 1030.04 1668.07 1026.39C1667.52 1024 1665.79 1017.83 1663.38 1009.66C1662.66 1007.27 1659.87 998.665 1657.21 990.538C1649.22 966.201 1649.89 968.983 1651.16 965.245C1653.28 959.074 1655.09 955.119 1655.81 955.119C1656.23 955.119 1656.7 955.467 1656.87 955.858C1657 956.293 1658.94 961.638 1661.18 967.722C1669.43 990.408 1674.59 1002.27 1681.94 1015.53C1688.88 1027.96 1696.06 1037.34 1707.06 1048.38C1711.67 1052.99 1713.7 1054.73 1715.18 1055.29C1718.85 1056.73 1718.81 1055.03 1715.09 1046.82C1713.95 1044.3 1712.64 1041.17 1712.13 1039.86C1710.48 1035.43 1707.4 1024.96 1707.4 1023.83C1707.4 1022.44 1703.76 1016.79 1701.48 1014.66C1700.17 1013.44 1699.45 1012.09 1697.88 1007.92C1694.25 998.187 1693.53 996.188 1692.17 991.625C1691.41 989.104 1690.48 985.975 1690.06 984.671C1688.92 981.151 1685.11 965.071 1684.39 960.769C1684.01 958.726 1683.34 955.206 1682.87 952.946C1682.37 950.687 1681.82 947.731 1681.6 946.428C1681.39 945.124 1680.8 942.169 1680.34 939.909C1679.83 937.649 1679.28 934.694 1679.07 933.39C1678.9 932.086 1678.52 929.609 1678.22 927.957C1677.54 923.872 1674.12 906.402 1673.4 903.403C1672.34 899.014 1669.72 889.757 1668.92 887.541C1667.23 882.934 1665.28 874.59 1664.69 869.331C1664.4 866.724 1664.18 866.202 1663.08 865.29C1662.37 864.725 1661.48 863.377 1661.1 862.204C1660.67 861.074 1659.83 858.684 1659.19 856.902C1656.83 850.514 1654.12 841.039 1652.81 834.521C1652.01 830.566 1651.92 829.262 1652.18 820.179C1652.43 809.619 1652.94 801.796 1653.91 792.148C1654.25 788.932 1654.8 783.065 1655.18 779.11C1656.95 759.684 1658.22 749.298 1659.03 747.994C1659.41 747.342 1660.59 746.777 1663.3 746.082C1667.78 744.908 1678.77 742.822 1685.2 741.953C1687.78 741.605 1691.67 740.997 1693.87 740.649C1697.46 740.041 1700.33 739.606 1710.57 738.259C1712.22 738.042 1713.99 737.737 1714.58 737.607C1715.13 737.433 1718.09 737.042 1721.14 736.694C1724.14 736.347 1728.2 735.912 1730.06 735.695C1731.96 735.478 1734.25 735.086 1735.13 734.869C1736.06 734.608 1738.68 734.087 1741.01 733.696C1749.59 732.175 1755.72 730.436 1757.88 728.915C1758.35 728.568 1759.66 727.133 1760.8 725.786C1763.42 722.527 1763.42 721.267 1760.97 715.921C1757.46 708.359 1750.57 698.32 1744.65 692.192C1741.52 688.976 1732.38 681.588 1726 677.112C1724.94 676.373 1723.63 675.243 1723.04 674.592C1722.45 673.94 1720.84 672.853 1719.45 672.158C1718.05 671.462 1715.51 669.985 1713.82 668.855C1709.98 666.291 1707.4 664.77 1700.5 661.119C1692.98 657.078 1689.13 653.253 1687.27 647.908C1685.79 643.649 1684.86 641.085 1684.23 639.477C1683.42 637.478 1680.55 634.913 1677.38 633.392C1676.11 632.741 1673.61 631.306 1671.88 630.133C1670.15 628.96 1668.29 627.786 1667.78 627.525C1666.17 626.613 1663.72 626.917 1661.69 628.221ZM1557.93 631.219L1559.62 631.524L1557.72 632.045C1549.85 634.262 1542.83 638.303 1537.38 643.779C1535.35 645.778 1533.49 647.43 1533.24 647.43C1532.48 647.43 1532.69 646.213 1533.83 643.866C1535.06 641.345 1535.05 641.345 1534.34 641.345C1533.53 641.345 1529.05 646.039 1527.82 648.212C1526.47 650.559 1525.75 650.385 1525.88 647.69C1526.13 643.431 1529.05 639.998 1535.27 636.782C1537.38 635.696 1539.33 634.827 1539.66 634.827C1539.96 634.827 1541.69 634.218 1543.47 633.523C1545.29 632.784 1547.27 632.219 1547.91 632.219C1548.54 632.176 1549.52 631.915 1550.11 631.567C1551.25 630.915 1555.1 630.741 1557.93 631.219ZM1666.13 633.74C1666.72 634.653 1667.14 634.827 1669.05 634.827C1671.37 634.827 1676.15 636.043 1677.76 637.043C1679.19 637.956 1681.01 641.215 1682.28 645.039C1682.91 646.952 1683.76 649.298 1684.14 650.254C1685.03 652.341 1689.21 658.381 1691.54 660.945C1693.91 663.509 1694.71 664.857 1694.71 666.117C1694.71 668.16 1694.16 668.464 1692.13 667.508C1691.12 667.03 1689.51 666.421 1688.62 666.117C1686.38 665.378 1680.67 661.337 1677.59 658.294C1674.42 655.209 1672.85 654.34 1669.72 654.079C1665.11 653.644 1661.9 655.165 1662.45 657.469C1662.79 658.772 1665.03 662.206 1665.75 662.466C1666.04 662.597 1666.51 663.249 1666.81 663.944C1667.48 665.596 1666.89 666.639 1662.62 671.549C1660.76 673.679 1658.05 677.373 1656.57 679.72C1655.09 682.066 1653.36 684.891 1652.64 685.978C1651.96 687.064 1650.95 688.281 1650.4 688.629C1649.51 689.237 1649.34 689.15 1647.57 687.325C1646.51 686.239 1645.66 684.935 1645.66 684.413C1645.66 683.935 1646.55 682.458 1647.69 681.197C1651.46 676.808 1654.63 672.419 1655.64 670.115C1656.19 668.855 1657.12 665.422 1657.71 662.51C1658.98 655.991 1659.49 654.079 1660.38 652.732C1661.18 651.471 1664.01 650.124 1667.23 649.429C1669.13 649.038 1669.55 648.777 1669.55 648.082C1669.55 646.734 1666.64 646.691 1662.83 648.038C1661.1 648.646 1659.41 649.168 1659.03 649.168C1657.88 649.168 1658.22 647.169 1659.53 646.213C1661.18 644.996 1668.12 641.345 1668.75 641.345C1669.26 641.345 1669.77 640.433 1669.77 639.52C1669.77 638.694 1664.01 639.433 1658.26 641.041C1650.95 643.084 1650.36 643.084 1648.2 641.085C1646.3 639.303 1645.96 637.869 1647.48 637.869C1648.03 637.869 1648.67 638.086 1648.96 638.39C1649.26 638.694 1650.82 638.912 1652.77 638.912C1655.85 638.955 1656.19 638.868 1658.35 637.347C1659.62 636.478 1661.35 635.087 1662.11 634.218C1663.85 632.393 1665.16 632.219 1666.13 633.74ZM1539.88 656.208C1540.17 656.513 1540.38 657.729 1540.42 658.903C1540.42 662.423 1541.44 667.768 1542.2 668.638C1543.47 670.072 1550.19 673.375 1558.06 676.504C1560.55 677.46 1561.23 676.938 1561.61 673.635C1561.95 670.463 1564.06 665.509 1565.33 664.813C1566.81 663.988 1568.92 664.639 1570.36 666.334C1571.67 667.855 1573.36 672.636 1573.36 674.765C1573.36 675.374 1573.53 676.504 1573.74 677.243C1574.04 678.329 1573.83 679.242 1572.47 682.458C1570.87 686.282 1570.83 686.369 1570.83 692.062C1570.83 695.191 1570.61 698.32 1570.36 699.015C1570.15 699.667 1568.16 702.449 1566.01 705.23C1563.85 707.968 1561.44 711.141 1560.68 712.314C1559.2 714.443 1550.74 722.179 1549.85 722.179C1548.71 722.179 1547.19 720.267 1545.96 717.225C1544.31 713.227 1544.31 712.792 1545.71 711.271C1547.15 709.706 1546.72 709.141 1544.23 709.141C1541.4 709.141 1540.21 708.142 1540.3 705.752C1540.42 702.405 1538.31 701.71 1535.14 704.013C1533.45 705.187 1533.07 705.317 1532.18 704.882C1530.95 704.317 1530.95 704.317 1530.07 697.408C1529.22 690.802 1529.43 690.454 1533.62 690.454H1536.58L1537.89 687.499C1538.56 685.891 1539.28 683.674 1539.41 682.501L1539.66 680.458H1538.31C1537.51 680.458 1535.73 681.197 1533.91 682.24C1530.36 684.283 1528.29 685.239 1527.32 685.239C1525.63 685.239 1523.81 681.458 1523.22 676.764C1523.05 675.548 1522.67 673.505 1522.37 672.201C1521.1 667.03 1521.86 665.248 1527.02 661.641C1529.09 660.163 1538.23 655.687 1539.16 655.687C1539.28 655.687 1539.58 655.904 1539.88 656.208ZM1672.43 669.637C1672.94 669.941 1673.95 670.68 1674.67 671.332C1676.4 672.853 1681.52 675.026 1684.99 675.678C1688.83 676.417 1689.09 676.764 1688.28 679.894C1687.9 681.284 1687.27 683.327 1686.89 684.413C1685.83 687.151 1686.26 688.368 1688.75 690.106C1689.89 690.889 1692.6 693.192 1694.8 695.235C1696.95 697.277 1700.04 699.885 1701.6 701.058C1704.94 703.622 1705.45 705.056 1702.87 704.622C1701.98 704.491 1697.29 704.187 1692.39 703.926C1687.52 703.709 1683.21 703.405 1682.87 703.231C1682.03 702.927 1672.98 703.796 1668.92 704.622C1667.14 704.926 1665.03 705.23 1664.18 705.23C1663.38 705.23 1661.99 705.534 1661.18 705.882C1660.17 706.317 1659.58 706.36 1659.41 706.056C1658.94 705.36 1660.08 704.317 1662.79 703.014C1667.99 700.493 1668.71 700.363 1678.01 699.841C1682.91 699.58 1686.55 699.233 1686.13 699.015C1685.71 698.842 1684.82 698.711 1684.18 698.711C1683.55 698.711 1682.37 698.407 1681.6 698.016C1680.84 697.581 1678.43 697.147 1675.94 696.973C1673.61 696.756 1670.44 696.191 1668.96 695.713C1666.89 695.017 1665.2 694.8 1661.52 694.8C1658.86 694.8 1656.45 694.67 1656.07 694.539C1654.92 694.061 1655.3 692.105 1657.29 688.498C1660.51 682.675 1662.07 680.806 1664.56 679.85C1666.47 679.155 1666.85 678.85 1667.27 677.46C1668.45 673.635 1670.65 669.159 1671.33 669.159C1671.41 669.159 1671.92 669.376 1672.43 669.637ZM1581.27 684.37C1585.03 686.586 1589.85 692.019 1589.85 694.061C1589.85 694.496 1589.18 696.147 1588.33 697.755C1587.48 699.363 1585.92 702.318 1584.86 704.361C1582.11 709.706 1581.9 710.011 1580.85 710.011C1580 710.011 1579.75 709.489 1578.56 705.534C1577.84 703.101 1576.45 698.929 1575.48 696.321C1574.46 693.67 1573.57 690.715 1573.45 689.715C1573.28 688.064 1573.45 687.586 1575.01 685.456C1577.13 682.588 1578.01 682.458 1581.27 684.37ZM1642.41 689.628C1643.72 690.324 1647.78 694.713 1647.78 695.452C1647.78 695.756 1647.61 696.147 1647.4 696.278C1647.19 696.451 1646.3 697.842 1645.45 699.493C1644.1 702.014 1641.18 706.447 1636.02 713.878C1635.26 714.965 1633.99 716.834 1633.23 718.051C1627.78 726.568 1620.04 735.565 1614.04 740.345C1610.61 743.039 1609.43 743.865 1603.93 747.298C1600.38 749.471 1595.18 753.6 1588.5 759.467C1586.81 760.988 1584.95 762.596 1584.36 763.117C1583.76 763.596 1582.41 764.812 1581.35 765.812C1580.25 766.768 1578.22 768.463 1576.79 769.549C1575.39 770.636 1573.4 772.157 1572.39 772.983C1571.42 773.808 1569.94 774.895 1569.13 775.46C1568.33 775.981 1566.6 777.242 1565.33 778.198C1563.05 779.893 1558.65 782.804 1555.77 784.543C1550.28 787.846 1542.33 793.235 1539.54 795.494C1535.44 798.884 1528.54 805.707 1528.54 806.403C1528.54 807.359 1530.32 806.968 1533.03 805.403C1535.73 803.839 1536.41 803.969 1535.69 805.838C1532.05 815.181 1526.47 824.612 1523.13 827.089C1520.85 828.741 1518.57 828.741 1514.51 827.089C1511 825.655 1508.08 823.178 1505.33 819.397C1502.37 815.268 1501.57 812.748 1501.1 806.229C1500.64 799.971 1500.98 797.059 1502.5 794.06C1503.68 791.583 1508.33 785.325 1509.56 784.412C1511.63 782.935 1532.31 772.548 1537.42 770.419C1544.86 767.376 1558.82 760.119 1562.58 757.424C1564.23 756.251 1569.43 752.513 1574.21 749.167C1585.5 741.214 1586.93 739.997 1593.02 733.044C1598.18 727.177 1608.03 717.486 1613.95 712.488C1615.69 711.01 1619.24 707.968 1621.78 705.665C1624.35 703.405 1627.36 700.754 1628.5 699.798C1629.64 698.842 1632.56 696.06 1634.92 693.627C1639.45 688.976 1640.29 688.498 1642.41 689.628ZM1481.4 697.016C1481.57 697.451 1481.53 698.059 1481.36 698.32C1481.19 698.581 1480.93 702.666 1480.72 707.36C1480.47 713.835 1480.17 716.703 1479.54 719.137C1478.19 724.135 1472.39 735.608 1468.5 740.953C1466.64 743.517 1464.95 745.734 1464.7 745.864C1463.85 746.429 1463.68 745.647 1464.32 744.213C1464.66 743.431 1465.54 741.562 1466.26 739.997C1468.12 735.956 1468.5 734.913 1468.97 732.435C1469.18 731.219 1469.48 729.871 1469.6 729.437C1470.07 727.959 1468.88 728.741 1468.25 730.306C1467.15 733.174 1465.08 737.129 1464.11 738.259C1463.6 738.867 1462.67 740.171 1462.03 741.171C1460.6 743.517 1459.41 743.648 1458.57 741.562C1457.89 739.954 1457 739.389 1456.28 740.128C1455.65 740.78 1453.87 739.867 1453.49 738.694C1453.2 737.694 1453.87 736.521 1454.8 736.521C1455.14 736.521 1455.4 736.216 1455.4 735.825C1455.4 735.26 1454.68 735.173 1450.36 735.26C1444.06 735.434 1443.85 735.26 1444.19 731.566C1444.87 724.787 1447.15 717.442 1450.03 713.009C1451.68 710.402 1455.48 706.404 1458.14 704.404C1462.29 701.319 1472.18 697.19 1478.44 696.017C1479.88 695.756 1481.15 696.147 1481.4 697.016ZM1596.19 697.625C1596.87 698.451 1596.45 700.145 1594.97 702.362C1593.36 704.752 1590.11 711.445 1588.8 715.095C1587.53 718.572 1586.6 719.789 1585.79 719.094C1584.99 718.398 1583.51 714.139 1583.51 712.488C1583.51 710.836 1585.75 706.751 1589.22 702.014C1592.64 697.277 1594.84 695.93 1596.19 697.625ZM1492.05 702.666C1493.62 703.188 1497.09 706.838 1497.47 708.403C1497.64 709.055 1497.47 710.054 1497.04 710.923C1496.37 712.27 1496.37 712.357 1497.09 712.922C1497.97 713.618 1503.34 713.313 1508.33 712.357C1510.74 711.879 1511.8 711.836 1512.48 712.184C1513.53 712.749 1513.53 713.314 1512.48 716.095C1511.25 719.267 1511.38 720.137 1513.36 722.266C1517.09 726.351 1521.78 732.349 1521.78 733.131C1521.78 733.739 1516.32 737.433 1513.45 738.78C1508.29 741.171 1507.02 741.431 1498.1 741.562L1489.86 741.649L1489.73 742.735C1489.52 744.387 1488.67 744.865 1485.92 744.865C1482.96 744.865 1481.36 744.126 1478.82 741.518C1476.88 739.476 1476.16 737.694 1476.83 736.564C1477.42 735.608 1478.82 735.478 1479.5 736.303C1480 736.912 1480.13 736.868 1480.6 735.651L1481.15 734.348L1484.36 734.608C1488.38 734.913 1488.33 735.304 1485.59 726.047C1484.7 723.048 1484.61 721.745 1484.53 713.096C1484.49 704.231 1484.53 703.405 1485.25 702.579C1485.92 701.797 1486.35 701.71 1488.38 701.971C1489.64 702.101 1491.29 702.449 1492.05 702.666ZM1580.17 735.347C1582.28 736.825 1582.33 738.433 1580.3 740.171C1579.41 740.91 1578.31 741.953 1577.84 742.518C1577.38 743.039 1576.03 744.126 1574.84 744.865C1573.7 745.604 1572.14 746.82 1571.42 747.516C1570.53 748.341 1569.73 748.733 1569.09 748.602C1568.2 748.472 1568.08 748.211 1567.95 746.473C1567.82 744.734 1568.03 744.213 1569.68 741.91C1570.7 740.519 1572.6 738.215 1573.91 736.825C1576.58 734 1577.8 733.696 1580.17 735.347ZM1451 741.692C1453.2 742.822 1456.03 746.342 1458.02 750.384C1459.58 753.557 1460 755.208 1459.29 755.208C1459.07 755.208 1458.48 754.382 1457.93 753.339C1454.47 746.951 1450.58 744.213 1446.01 744.952C1443.73 745.343 1442.46 746.082 1440.13 748.298C1436.88 751.471 1436.96 753.339 1440.85 760.423C1441.61 761.814 1441.61 762.596 1440.85 762.596C1439.96 762.596 1435.52 757.077 1435.52 756.034C1435.52 755.556 1435.73 754.773 1435.95 754.339C1436.24 753.774 1436.24 752.905 1435.9 751.644C1434.97 748.168 1436.33 746.386 1442.84 742.431C1445.88 740.606 1448.33 740.388 1451 741.692ZM1449.6 748.341C1451.08 749.776 1453.2 753.948 1453.83 756.859C1454.34 759.076 1454.3 759.641 1453.7 761.466C1452.94 763.813 1451.76 764.725 1449.52 764.769C1448.33 764.769 1447.7 764.378 1446.26 762.813C1442.88 759.206 1441.95 755.599 1443.22 751.21C1444.19 747.82 1447.49 746.342 1449.6 748.341ZM1628.5 748.037C1628.92 749.254 1628.24 755.382 1627.57 756.164C1627.23 756.555 1626 757.251 1624.78 757.642C1620.04 759.206 1614.46 762.553 1611.63 765.551C1609.39 767.898 1608.84 768.246 1608.63 767.637C1608.46 767.203 1608.46 764.074 1608.54 760.684C1608.84 753.252 1609.3 751.905 1611.75 751.514C1616.36 750.732 1624.4 748.733 1625.79 747.994C1627.23 747.211 1628.2 747.255 1628.5 748.037ZM1499.41 751.557C1502.29 753.6 1505.12 755.729 1505.67 756.207C1506.73 757.251 1508.42 760.771 1508.88 763.074C1509.31 765.117 1512.27 771.592 1513.53 773.287C1514.13 774.069 1514.59 775.025 1514.59 775.373C1514.59 776.112 1513.36 776.937 1512.27 776.937C1511.93 776.937 1509.39 777.85 1506.64 778.937C1501.48 781.023 1497.42 783.282 1495.48 785.064C1494.89 785.673 1494.04 786.064 1493.58 785.977C1492.9 785.847 1492.77 785.238 1492.56 781.24C1492.1 772.635 1490.57 764.725 1488.12 758.163C1485.67 751.514 1485.71 750.949 1489.09 750.036C1490.07 749.776 1491 749.341 1491.17 749.08C1491.42 748.602 1492.9 747.907 1493.7 747.863C1493.96 747.82 1496.49 749.515 1499.41 751.557ZM1468.21 762.205C1468.59 762.726 1468.93 763.465 1468.93 763.856C1468.93 765.03 1467.66 766.507 1466.64 766.507C1466.14 766.507 1465.25 766.985 1464.7 767.637C1464.11 768.246 1462.84 769.115 1461.78 769.593C1459.07 770.81 1453.24 772.592 1451.84 772.592C1449.77 772.592 1447.79 771.114 1447.79 769.549C1447.79 769.376 1449.35 769.071 1451.29 768.941C1455.99 768.506 1458.48 767.29 1461.95 763.639C1464.49 760.988 1464.82 760.771 1466.09 761.031C1466.85 761.162 1467.78 761.727 1468.21 762.205ZM1467.15 770.766C1466.43 771.983 1465.54 772.331 1465.25 771.462C1465.16 771.201 1465.5 770.462 1466.01 769.81C1466.69 768.941 1467.07 768.767 1467.36 769.071C1467.7 769.419 1467.66 769.897 1467.15 770.766ZM1584.44 777.807C1584.61 781.979 1584.95 791.844 1585.2 799.753C1585.62 813.573 1586.51 826.698 1587.32 831.696C1587.53 833 1587.82 835.216 1587.99 836.563C1588.5 841.083 1588.54 841.126 1578.22 823.004C1574.04 815.616 1571.46 808.749 1569.18 798.884C1568.46 795.755 1567.65 792.452 1567.4 791.496C1566.51 788.193 1566.17 784.412 1566.64 783.326C1567.15 782.153 1569.68 779.849 1572.39 778.111C1573.36 777.459 1575.65 775.721 1577.46 774.2C1581.95 770.506 1582.75 769.941 1583.51 770.071C1584.02 770.201 1584.19 771.549 1584.44 777.807ZM1504.44 785.325C1504.44 785.673 1503.51 786.759 1502.33 787.759C1501.14 788.758 1499.58 790.757 1498.78 792.278C1496.32 796.755 1495.94 799.015 1495.99 809.097C1495.99 818.441 1496.32 823.439 1497.51 831.696C1498.48 838.432 1498.48 839.258 1497.59 839.431C1496.28 839.692 1490.74 829.914 1488.67 823.656C1487.91 821.396 1487.83 819.962 1487.78 812.791C1487.78 804.012 1487.83 803.665 1490.36 796.972C1492.39 791.627 1493.66 790.149 1498.99 786.933C1502.54 784.804 1504.44 784.239 1504.44 785.325ZM1502.54 823.395C1503.89 825.351 1511.59 832.304 1512.81 832.739C1513.45 832.913 1514.55 833.391 1515.27 833.738C1515.99 834.086 1518.23 834.999 1520.26 835.737C1522.33 836.52 1523.98 837.302 1523.93 837.563C1523.89 838.084 1520.09 838.128 1518.1 837.693C1515.56 837.085 1516.32 838.823 1520.55 843.039C1523.6 846.081 1524.36 847.08 1524.19 847.776C1523.81 849.297 1525.5 849.644 1532.35 849.384C1535.99 849.253 1538.82 849.34 1539.24 849.557C1540.17 850.122 1540.17 851.817 1539.24 852.643C1537.08 854.599 1528.59 857.337 1524.74 857.337C1522.33 857.337 1516.37 854.903 1514.59 853.165C1513.79 852.382 1511.59 851.035 1509.73 850.166C1505.29 848.08 1502.88 846.037 1502.37 843.951C1502.16 843.082 1501.78 840.083 1501.48 837.345C1501.23 834.608 1500.72 830.696 1500.38 828.654C1499.67 824.177 1499.67 822.874 1500.26 822.265C1500.89 821.613 1501.53 821.918 1502.54 823.395ZM1576.58 856.424C1580.51 864.898 1582.88 874.937 1582.54 881.456C1582.16 888.671 1580.97 901.882 1580.55 903.968C1580.34 905.098 1580.13 907.01 1580.13 908.14C1580.13 909.314 1579.75 912.573 1579.28 915.354C1578.82 918.136 1578.44 920.961 1578.44 921.569C1578.44 922.786 1576.07 933.738 1575.43 935.476C1575.18 936.128 1574.76 936.432 1574.29 936.345C1573.24 936.128 1573.02 931.782 1572.56 899.579C1572.22 874.981 1572.47 853.729 1573.15 851.73C1573.53 850.644 1574.59 852.078 1576.58 856.424ZM1513.36 858.119C1515.31 859.466 1518.02 861.509 1519.33 862.639C1522.88 865.594 1528.33 868.201 1536.83 870.983C1546.72 874.242 1548.37 874.851 1548.5 875.372C1548.75 876.285 1544.91 876.589 1539.37 876.154C1534.08 875.72 1532.43 875.329 1525.08 872.721C1523.17 872.069 1521.95 872.2 1522.41 872.982C1523.13 874.155 1535.86 879.935 1537.72 879.935C1538.18 879.935 1539.28 880.239 1540.09 880.587C1540.93 880.935 1542.92 881.239 1544.53 881.239C1546.39 881.239 1547.7 881.456 1548.25 881.847C1549.01 882.456 1549.01 882.543 1548.33 883.238C1547.74 883.847 1546.64 883.977 1540.89 883.977C1534 884.02 1534.21 884.064 1527.06 881.804C1522.12 880.239 1515.39 876.198 1507.95 870.244C1504.19 867.245 1503.94 864.594 1506.77 857.988C1508.12 854.859 1508.76 854.903 1513.36 858.119ZM1523.3 883.455C1524.99 884.629 1528.21 886.671 1530.49 888.019C1535.77 891.104 1538.78 893.364 1538.44 893.929C1538.14 894.407 1536.66 894.233 1534.46 893.408C1530.53 891.93 1525.67 889.714 1524.27 888.757C1522.41 887.497 1518.4 882.89 1518.4 881.978C1518.4 880.413 1519.2 880.631 1523.3 883.455ZM1562.58 962.116C1561.44 965.115 1554.29 978.935 1553.07 980.543C1552.9 980.76 1551.38 983.498 1549.73 986.54C1545.58 994.189 1539.92 1002.79 1531.5 1014.27C1529.77 1016.61 1527.36 1019.96 1526.13 1021.66C1524.95 1023.39 1523.3 1025.48 1522.54 1026.35C1521.78 1027.22 1519.37 1029.96 1517.25 1032.48C1512.35 1038.26 1501.1 1049.69 1496.41 1053.64C1489.22 1059.64 1480.26 1066.03 1472.31 1070.81C1464.11 1075.72 1461.48 1077.24 1459.2 1078.24C1457.93 1078.85 1455.02 1080.19 1452.73 1081.32C1450.45 1082.41 1448.29 1083.32 1447.95 1083.32C1446.09 1083.32 1448.93 1080.98 1457.21 1075.63C1462.63 1072.15 1472.1 1065.03 1477.93 1060.12C1480.22 1058.16 1482.79 1056.03 1483.64 1055.38C1484.49 1054.73 1487.57 1051.86 1490.45 1049.08C1493.32 1046.3 1496.66 1043.12 1497.89 1042.04C1503.01 1037.52 1521.86 1016.92 1530.32 1006.57C1531.84 1004.71 1534.25 1001.75 1535.6 1000.1C1540.76 993.798 1549.56 980.804 1557.38 967.94C1559.96 963.637 1562.24 960.03 1562.41 959.9C1562.54 959.769 1562.83 959.204 1563 958.639C1563.17 958.075 1563.47 957.814 1563.68 958.031C1563.85 958.205 1563.38 960.03 1562.58 962.116ZM1581.23 976.327C1580.38 978.457 1579.7 980.456 1579.7 980.717C1579.7 980.977 1578.94 983.107 1577.97 985.454C1575.73 991.016 1571.67 1002.32 1569.13 1010.14C1567.06 1016.53 1567.87 1017.4 1572.31 1013.57C1575.81 1010.57 1582.41 1006.44 1582.92 1006.97C1583.38 1007.44 1582.24 1008.79 1577.34 1013.53C1570.44 1020.13 1566.22 1024.91 1564.91 1027.52C1564.31 1028.7 1563.47 1030.35 1562.96 1031.17C1562.45 1032 1561.27 1034.26 1560.26 1036.17C1559.28 1038.08 1557.76 1040.99 1556.87 1042.69C1555.98 1044.34 1553.83 1048.64 1552.01 1052.25C1550.23 1055.81 1548.5 1059.07 1548.16 1059.42C1547.15 1060.51 1547.44 1058.16 1548.75 1054.6C1550.28 1050.56 1550.91 1048.73 1553.91 1039.86C1557.25 1030.04 1558.99 1025.57 1561.23 1020.74C1562.28 1018.48 1563.72 1015.14 1564.4 1013.35C1565.12 1011.57 1566.72 1007.75 1567.99 1004.88C1569.26 1002.01 1570.7 998.361 1571.21 996.753C1571.76 995.145 1572.35 993.711 1572.56 993.581C1572.77 993.407 1572.94 993.016 1572.94 992.668C1572.94 992.364 1573.49 990.843 1574.17 989.365C1574.8 987.844 1575.69 985.628 1576.11 984.454C1576.53 983.237 1577.08 981.977 1577.34 981.629C1577.63 981.282 1578.31 979.891 1578.86 978.587C1579.41 977.283 1580.09 975.893 1580.34 975.545C1580.59 975.197 1581.18 974.154 1581.61 973.242C1583.05 970.417 1582.79 972.286 1581.23 976.327ZM1576.62 978.544C1576.49 979.196 1575.69 981.282 1574.88 983.063C1574.04 984.889 1573.36 986.497 1573.36 986.671C1573.36 986.844 1572.9 987.974 1572.35 989.191C1571.8 990.408 1570.61 993.276 1569.77 995.536C1568.92 997.796 1567.27 1001.62 1566.17 1004.01C1561.78 1013.53 1558.18 1021.52 1557.13 1024.22C1556.49 1025.78 1554.76 1029.56 1553.28 1032.69C1550.4 1038.65 1545.03 1050.25 1545.03 1050.47C1545.03 1051.08 1533.7 1072.42 1531.55 1075.94C1529.98 1078.46 1527.7 1082.15 1526.47 1084.19C1523.81 1088.63 1521.69 1091.54 1521.19 1091.58C1520.55 1091.58 1521.36 1089.23 1523.05 1086.37C1525.63 1081.8 1534.51 1063.07 1536.79 1057.25C1537.97 1054.29 1540.13 1049.25 1541.61 1045.99C1543.09 1042.73 1544.82 1038.69 1545.46 1037.04C1550.07 1025 1557.46 1009.4 1565.2 995.536C1566.6 993.016 1568.92 988.843 1570.4 986.192C1573.28 981.108 1575.86 977.283 1576.45 977.283C1576.66 977.283 1576.75 977.848 1576.62 978.544ZM1463.85 1055.03C1463.85 1055.68 1457.76 1060.81 1453.49 1063.77C1452.35 1064.59 1451.29 1065.37 1451.17 1065.55C1451.04 1065.77 1450.2 1066.2 1449.35 1066.59L1447.74 1067.29L1448.42 1066.2C1448.8 1065.59 1449.6 1064.81 1450.24 1064.38C1450.87 1063.94 1452.94 1062.25 1454.89 1060.59C1457.93 1057.99 1462.63 1054.81 1463.56 1054.68C1463.73 1054.64 1463.85 1054.81 1463.85 1055.03ZM1522.12 1111.88C1517.97 1118.18 1507.91 1130.82 1505.97 1132.17C1504.1 1133.43 1504.61 1131.87 1507.11 1128.87C1508.33 1127.35 1510.28 1124.87 1511.42 1123.31C1512.56 1121.74 1515.22 1118.39 1517.34 1115.87C1519.41 1113.35 1521.82 1110.44 1522.62 1109.44C1524.91 1106.57 1524.61 1108.05 1522.12 1111.88ZM1395.48 1157.81C1398.87 1159.81 1402.16 1164.98 1401.4 1167.03C1401.15 1167.68 1400.43 1166.72 1398.74 1163.51C1398.32 1162.72 1397 1161.64 1395.31 1160.68C1392.73 1159.2 1392.44 1159.16 1388.29 1159.16C1383.69 1159.16 1382.5 1158.72 1383.81 1157.55C1384.91 1156.55 1385.88 1156.38 1389.9 1156.51C1392.99 1156.6 1393.79 1156.77 1395.48 1157.81ZM1585.5 1175.46C1585.62 1176.2 1585.92 1176.89 1586.09 1177.02C1586.3 1177.15 1586.47 1177.54 1586.47 1177.89C1586.47 1178.32 1586.09 1178.11 1585.41 1177.28C1584.36 1175.98 1583.98 1174.15 1584.78 1174.15C1585.03 1174.15 1585.33 1174.76 1585.5 1175.46ZM1448.97 1187.71C1449.65 1188.41 1449.6 1189.8 1448.93 1189.8C1448.12 1189.8 1447.36 1188.89 1447.36 1187.97C1447.36 1187.06 1448.21 1186.93 1448.97 1187.71ZM1423.9 1211.4C1420.01 1214.09 1405.5 1218.74 1405.5 1217.26C1405.5 1215.79 1412.27 1213 1419.24 1211.53C1420.64 1211.22 1422.25 1210.83 1422.84 1210.66C1425.16 1209.88 1425.63 1210.18 1423.9 1211.4Z"/>
<path d="M1564.57 668.811C1563.81 669.768 1563.64 673.201 1564.19 676.286C1564.61 678.72 1564.91 679.459 1565.88 680.198L1567.02 681.067L1567.91 680.198C1569.47 678.546 1570.06 670.637 1568.71 668.942C1568.08 668.16 1565.2 668.073 1564.57 668.811Z" fill="black"/>
<path d="M1676.7 686.325C1676.32 687.325 1676.91 689.15 1677.59 689.15C1678.39 689.15 1679.19 687.586 1678.86 686.543C1678.56 685.543 1677.04 685.369 1676.7 686.325Z" fill="black"/>
<path d="M1480.98 738.259C1481.1 738.476 1481.61 738.694 1482.08 738.694C1482.54 738.694 1482.79 738.476 1482.67 738.259C1482.54 737.998 1482.03 737.824 1481.57 737.824C1481.1 737.824 1480.85 737.998 1480.98 738.259Z" fill="black"/>
<path d="M1446.73 752.774C1446.35 753.339 1445.97 754.773 1445.8 755.99C1445.59 757.946 1445.67 758.294 1446.69 759.337C1447.57 760.249 1448.12 760.466 1449.39 760.336L1450.96 760.206L1450.91 757.337C1450.91 755.078 1450.7 754.165 1449.94 753.122C1448.8 751.47 1447.62 751.34 1446.73 752.774Z" fill="black"/>
<path d="M1571.25 786.759C1569.98 788.324 1572.52 791.322 1574.29 790.366C1575.31 789.801 1575.27 788.019 1574.21 786.933C1573.19 785.89 1571.97 785.803 1571.25 786.759Z" fill="black"/>
<path d="M1559.49 723.353C1559.11 724.091 1559.16 725.221 1559.66 728.568C1559.83 729.741 1560.13 730.045 1561.31 730.393C1562.83 730.827 1565.54 730.393 1566.26 729.654C1567.74 728.133 1563.17 722.614 1560.51 722.614C1560.17 722.614 1559.71 722.961 1559.49 723.353Z" fill="black"/>
<path d="M1364.28 1169.07C1358.61 1172.94 1344.45 1180.54 1336.37 1184.02C1317.85 1192.06 1313.03 1193.67 1291.34 1199.14C1281.66 1201.58 1281.19 1201.66 1263.22 1204.57C1261.62 1204.83 1258.36 1205.27 1256.04 1205.49C1253.71 1205.7 1251.43 1205.96 1250.96 1206.14C1249.44 1206.57 1240.56 1207.57 1231.22 1208.35C1224.79 1208.88 1222 1209.27 1222 1209.62C1222 1209.92 1222.97 1210.22 1224.45 1210.4C1225.76 1210.57 1227.83 1210.96 1228.98 1211.31C1234.05 1212.7 1246.02 1214.13 1256.25 1214.57C1275.28 1215.35 1294.51 1214 1305.93 1211.05C1307.79 1210.53 1309.99 1209.96 1310.83 1209.75C1313.16 1209.18 1318.28 1207.27 1321.36 1205.79C1325.04 1204.1 1335.91 1197.36 1340.6 1193.93C1351.64 1185.8 1367.87 1170.15 1367.2 1168.33C1366.86 1167.37 1366.69 1167.42 1364.28 1169.07Z" fill="black"/>
<path d="M723.416 9.22554C715.075 19.4761 713.883 32.4602 721.033 42.369C724.607 47.836 726.99 46.811 735.331 34.852C743.672 22.893 744.268 18.7927 737.715 10.2506L730.565 3.05176e-05L723.416 9.22554Z" fill="black"/>
<path d="M449.95 8.88414C469.015 19.4764 458.291 34.5106 423.736 44.4194C410.033 48.5197 377.265 52.6199 342.113 55.0117C270.619 59.4536 249.171 64.5789 238.447 78.588C233.084 85.08 222.36 91.2304 211.04 93.9639C196.146 97.7224 191.38 100.798 191.38 107.29C191.38 113.44 188.401 116.173 181.251 116.173C175.293 116.515 163.973 118.565 155.632 121.299C144.908 124.374 138.355 124.716 133.588 122.324C121.673 116.857 124.652 112.073 137.163 116.173C155.632 121.64 159.207 113.782 143.717 101.823L130.609 91.5721L144.312 93.9639C159.803 96.6974 167.548 101.481 167.548 108.315C167.548 110.706 170.527 112.757 174.102 112.757C178.272 112.757 180.06 107.973 178.272 100.798C177.081 93.2805 178.272 90.2053 181.251 91.9137C188.996 96.3557 221.169 86.7885 221.169 80.2964C221.169 76.1962 210.445 75.1712 165.165 75.1712H108.565L106.182 87.8135C104.395 99.4308 103.799 99.0891 103.203 84.3967L102.012 67.9958L130.609 68.3374C146.1 68.6791 175.889 68.6791 197.337 67.9958L236.063 67.3124L194.358 64.9206C171.719 63.5539 137.163 62.1871 118.098 61.8454L82.9466 61.5037L86.5213 80.9798C92.4792 118.224 97.2454 133.258 102.607 133.258C105.586 133.258 107.97 126.766 107.97 118.565C107.97 107.973 109.757 105.581 113.927 109.34C116.906 112.073 119.885 118.907 120.481 124.716C120.481 130.183 122.268 132.916 124.056 130.524C130.609 121.299 134.78 127.449 135.376 146.925C135.376 172.21 150.866 186.902 175.293 185.194C186.613 184.169 191.975 186.219 198.529 193.736C203.891 200.228 214.615 204.67 230.106 207.745C255.129 212.529 271.215 218.679 265.853 221.413C264.065 222.438 257.512 220.388 250.958 216.971C236.659 209.454 235.468 213.895 248.575 224.829C258.107 233.03 280.152 234.738 291.471 228.246C301.004 222.779 289.088 211.845 273.002 211.845C261.086 211.504 261.086 211.162 276.577 206.378C292.067 201.595 293.855 199.545 291.471 187.586C289.684 177.677 292.067 173.918 298.621 172.552C303.983 171.526 311.132 166.06 314.707 160.251C321.856 150 322.452 149.659 335.56 154.442C352.837 161.276 357.008 181.435 343.305 193.736C337.943 198.178 324.24 204.328 312.324 207.062C295.046 211.162 292.663 212.87 298.621 216.971C311.132 225.854 343.901 223.463 358.199 212.529C368.924 205.012 370.711 199.886 368.924 183.485C365.945 162.301 354.029 151.367 330.197 149.317C310.537 147.608 308.153 145.217 315.899 132.916C321.856 122.665 321.261 120.957 303.387 110.365C293.259 104.214 280.747 99.0891 276.577 99.0891C263.47 99.0891 268.236 93.6222 285.514 88.8386C306.962 83.0299 291.471 79.9548 268.236 85.4217C256.916 88.1552 251.554 91.5721 253.341 94.3055C256.916 99.7725 251.554 100.456 240.234 96.3557C227.127 91.2304 242.021 75.5128 265.853 70.0459C298.025 62.1871 326.623 63.2122 331.985 72.4377C336.155 79.9548 336.751 79.6131 339.73 70.0459C343.305 59.4536 341.517 59.7953 414.203 52.9616C442.205 50.2281 471.399 34.8522 471.399 22.5516C471.399 14.0094 457.696 3.41717 446.971 3.41717C443.397 3.41717 445.184 5.80897 449.95 8.88414ZM234.276 102.164C239.638 107.29 243.213 107.973 251.554 104.898C259.895 101.823 267.044 103.189 286.109 110.706C299.812 116.173 310.537 121.299 310.537 121.982C310.537 126.766 290.876 143.508 284.918 143.85C281.343 143.85 283.726 145.217 291.471 146.925C306.962 150.684 308.153 156.151 294.45 164.693C282.535 172.21 267.044 172.552 256.916 165.718C250.958 161.618 250.958 160.593 256.916 160.593C262.874 160.593 262.874 159.567 256.916 155.467C250.362 151.025 250.958 150.684 260.491 152.392C269.427 154.101 268.832 153.417 258.107 148.975C247.979 144.192 246.192 141.8 250.958 136.675C260.491 126.766 258.703 121.299 247.979 126.424C240.83 129.841 239.042 129.499 238.447 124.374C238.447 119.249 237.255 119.59 232.489 126.424L225.935 134.966L215.211 123.007C202.104 108.998 200.316 100.456 211.04 98.0641C223.552 94.9889 227.127 95.6723 234.276 102.164ZM208.061 128.132C218.19 140.775 216.998 141.458 197.337 133.258C177.081 125.057 174.102 119.59 190.188 119.59C196.742 119.59 204.487 123.349 208.061 128.132ZM185.422 133.941C196.146 144.533 196.742 145.217 186.613 147.267C178.272 148.975 179.464 150 193.167 152.05C206.274 154.101 208.061 155.467 202.699 159.226C194.358 165.034 199.72 165.376 215.807 160.593C224.148 157.859 227.127 158.201 227.127 161.618C227.127 168.451 208.657 176.31 187.805 178.702C172.314 180.41 167.548 179.044 156.228 170.501C144.908 161.618 144.312 159.226 150.866 154.784C156.824 150.342 156.824 148.975 151.462 147.95C140.738 145.9 141.929 134.966 153.249 128.474C166.357 120.615 172.314 121.64 185.422 133.941ZM239.042 142.142C239.042 144.875 236.659 146.242 233.084 145.217C230.106 144.192 227.127 141.8 227.127 139.75C227.127 138.041 230.106 136.675 233.084 136.675C236.659 136.675 239.042 139.066 239.042 142.142ZM256.32 172.552C261.086 172.552 270.023 176.993 277.173 182.119L289.684 192.028L274.789 198.861C264.065 203.987 255.724 205.012 239.638 203.303C212.828 200.57 209.253 199.203 209.253 192.369C209.253 185.194 234.872 167.768 242.021 170.501C245.596 171.526 251.554 172.552 256.32 172.552Z" fill="black"/>
<path d="M259.299 137.358L247.979 145.217L261.682 138.725C274.193 132.574 277.768 129.841 273.002 129.841C271.81 129.841 265.852 133.258 259.299 137.358Z" fill="black"/>
<path d="M920.025 8.54221C896.789 14.3509 888.448 28.0183 900.96 40.6607C911.684 51.9363 942.069 54.6698 953.985 45.4443C961.134 40.319 961.134 39.9773 953.985 43.3941C941.473 49.8862 919.429 48.8611 912.28 41.344C902.747 30.7518 905.13 21.1846 919.429 15.7176C950.41 3.07524 987.945 13.3258 995.69 36.2188C999.86 48.8611 1000.46 49.2028 1001.05 38.6105C1002.24 22.5513 990.924 10.934 970.071 6.83378C947.431 2.39187 943.261 2.73356 920.025 8.54221Z" fill="black"/>
<path d="M650.134 25.6264C650.134 34.8519 644.772 49.5444 638.218 58.0866L626.302 73.4624L642.389 63.2118C650.73 57.7449 656.688 55.3531 655.496 58.0866C653.709 60.8201 635.239 70.7289 613.791 79.9544C574.469 97.0387 581.619 98.4055 633.452 83.3713C672.774 72.0957 682.902 61.5034 680.519 35.1936C679.923 31.0934 673.369 23.2346 665.029 18.1093L650.73 8.54215L650.134 25.6264Z" fill="black"/>
<path d="M795.505 23.5765C763.333 30.7519 753.205 35.8772 739.502 51.9364C727.586 66.2872 730.565 65.9455 768.695 48.5195C788.952 38.9523 793.122 37.9273 787.76 43.7359C783.59 47.8361 766.908 57.4033 750.822 64.9204C719.841 78.9295 722.82 82.3464 759.163 73.4626C785.973 67.3122 809.209 51.253 816.954 33.827C820.528 25.9683 822.912 19.4762 821.72 18.7929C820.528 18.1095 808.613 20.5013 795.505 23.5765Z" fill="black"/>
<path d="M870.575 39.294C870.575 42.3692 877.128 53.3031 884.874 64.237C892.619 74.8293 900.364 87.4717 902.151 92.2553C903.939 98.0639 905.13 96.0138 905.726 86.7883C905.726 77.9045 900.364 65.2621 890.831 53.3031C875.341 33.4853 870.575 30.4102 870.575 39.294Z" fill="black"/>
<path d="M548.851 47.8362C530.977 51.2531 511.912 57.4034 507.146 61.5036C502.38 65.6039 492.251 72.7793 485.102 77.2212L471.995 85.4216H495.826C540.51 85.4216 568.512 74.146 584.598 49.5446C591.152 39.6358 591.152 39.6358 548.851 47.8362Z" fill="black"/>
<path d="M1536.07 64.9205C1533.09 71.7542 1527.73 71.7542 1264.98 71.7542C1034.42 71.7542 996.286 72.4376 989.732 76.8795C983.178 81.3214 1014.76 82.0048 1266.18 82.0048H1549.77V73.4626C1549.77 65.2622 1551.56 64.9205 1582.54 64.9205C1600.41 64.9205 1615.31 66.2872 1615.31 68.3373C1615.31 70.0458 1603.39 71.7542 1588.5 71.7542H1561.69V196.469L1640.33 195.444C1683.82 194.761 1718.38 194.761 1716.59 195.786C1714.8 196.469 1676.67 198.52 1631.99 199.886L1549.77 202.278V88.8385H1262.6C1104.12 88.8385 968.88 89.8635 961.73 90.8886C954.581 91.9136 947.431 94.6471 946.24 97.0389C943.857 100.114 1007.01 101.139 1221.49 101.139C1415.72 101.139 1502.7 102.164 1511.04 104.898C1520.58 107.973 1517.6 108.998 1490.19 110.706C1472.32 111.731 1334.69 113.098 1185.15 113.782C976.625 114.123 911.088 115.49 905.131 118.565C899.173 121.982 957.56 123.007 1195.28 123.349C1369.84 123.69 1483.04 125.057 1469.34 126.766C1456.23 128.132 1319.2 129.499 1164.89 129.499L884.278 129.841L852.106 140.091C834.232 145.558 822.912 150.342 825.891 150C829.466 150 838.403 147.95 846.744 145.217C859.255 141.116 914.067 140.433 1177.4 140.775C1351.97 140.775 1480.06 142.141 1463.38 143.508C1447.3 145.217 1307.88 146.583 1153.57 147.267C994.498 147.608 887.853 148.975 906.322 150.342C924.196 152.05 1070.76 153.417 1231.03 153.417C1407.97 153.759 1526.53 155.125 1531.9 157.176C1537.85 159.226 1440.15 160.592 1250.69 160.592C1060.63 160.592 959.943 161.617 959.943 164.009C959.943 166.401 1060.03 167.426 1248.9 167.426H1537.85V208.428H1603.39L1604.58 345.786L1611.37 607.175L1609.94 355.353C1612.92 284.966 1615.9 222.438 1617.09 216.971C1618.29 211.162 1620.07 270.274 1620.07 347.494C1621.26 470.501 1625.49 607.175 1633.23 607.175C1640.98 607.175 1639.14 472.551 1640.33 366.287C1640.93 281.891 1642.71 255.239 1645.1 280.182C1647.48 300 1650.46 356.72 1651.05 406.606C1651.65 457.859 1655.37 611.959 1658.35 607.175C1660.73 602.392 1662.37 426.082 1662.97 360.478C1664.16 287.016 1666.54 246.697 1669.52 256.264C1671.91 264.807 1674 560 1676 587C1676.7 596.441 1685.2 620.843 1685.2 620.843C1685.2 620.843 1689.18 607.175 1690 544C1690.6 450.036 1688.28 520.252 1689.18 488.611C1690.97 425.74 1692.76 341.002 1693.35 300.684L1695.14 227.221L1698.72 280.182C1701.1 309.226 1704.4 360.324 1705 538C1705 645.039 1705 645.039 1705 645.039C1705 645.039 1719.45 672.158 1719 613C1719.6 438.057 1718.38 323.918 1720.76 284.283L1724.34 212.187L1674.29 210.82L1624.24 209.795L1734.46 208.428V607.175C1735.13 633.392 1741.67 677.46 1744.65 677.46C1747.63 677.46 1756.51 677.112 1756.51 620.843L1755.32 210.137L1769.02 209.112C1780.34 208.087 1782.13 206.037 1782.13 191.686C1782.13 182.802 1785.7 173.576 1789.87 171.185C1795.83 167.426 1795.83 166.401 1789.87 165.034C1780.34 162.984 1779.15 105.923 1788.08 105.923C1791.06 105.923 1792.25 103.531 1790.47 100.797C1788.08 98.064 1789.87 95.6722 1793.45 95.6722C1797.62 95.6722 1800 88.8385 1800 78.2462V60.8203L1711.23 63.2121C1648.07 64.9205 1621.86 64.5788 1618.88 61.8453C1616.5 59.7952 1598.62 58.0868 1577.18 58.0868C1544.41 58.0868 1539.05 59.1118 1536.07 64.9205ZM1782.13 81.6631C1782.13 89.1802 1779.74 96.3556 1776.17 97.3806C1772.59 98.7473 1770.21 94.6471 1770.21 87.4717V75.1711H1695.74C1649.86 75.1711 1621.26 73.8043 1621.26 71.7542C1621.26 69.7041 1652.25 68.3373 1701.7 68.3373H1782.13V81.6631ZM1591.48 133.258C1591.48 162.984 1589.09 181.094 1585.52 181.094C1581.94 181.094 1579.56 162.984 1579.56 133.258C1579.56 103.531 1581.94 85.4216 1585.52 85.4216C1589.09 85.4216 1591.48 103.531 1591.48 133.258ZM1682.63 91.2303C1668.33 91.9136 1645.69 91.9136 1631.99 91.2303C1617.69 90.5469 1629.01 89.8635 1657.01 89.8635C1685.01 89.8635 1696.33 90.5469 1682.63 91.2303ZM1729.1 100.456C1718.97 106.606 1717.78 108.998 1723.74 110.365C1729.7 111.39 1729.7 112.756 1724.34 116.173C1720.76 118.565 1714.8 119.248 1711.23 118.223C1699.31 113.782 1704.08 103.189 1720.76 96.3556C1742.21 87.4717 1746.38 89.8635 1729.1 100.456ZM1695.14 104.898C1688.59 119.59 1719.57 129.499 1740.42 118.565C1745.19 116.173 1744.59 118.223 1738.63 123.69C1732.68 129.157 1730.89 133.258 1734.46 133.258C1743.4 133.258 1741.61 159.226 1732.08 163.668C1726.72 166.401 1702.89 167.426 1666.54 167.084L1609.35 166.401L1609.94 131.891C1610.54 109.34 1612.33 100.456 1615.31 105.923L1620.07 114.465L1620.67 104.898C1621.26 95.3305 1621.26 95.3305 1659.99 96.0139C1697.53 96.6972 1698.12 97.0389 1695.14 104.898ZM1770.21 153.759V201.595H1748.76C1736.25 201.595 1729.1 200.228 1731.48 198.178C1733.27 196.128 1742.21 194.761 1749.95 194.761C1763.06 194.761 1764.85 193.394 1764.25 185.194C1761.87 166.743 1764.25 105.923 1767.23 105.923C1769.02 105.923 1770.21 127.449 1770.21 153.759ZM1737.44 177.677C1733.27 181.777 1637.35 181.777 1615.31 177.677C1605.77 175.968 1626.03 174.943 1670.71 174.602C1716.59 174.26 1739.83 175.627 1737.44 177.677Z" fill="black"/>
<path d="M1623.05 134.966C1623.05 146.241 1624.24 150.342 1625.43 144.191C1626.63 138.041 1626.63 128.816 1625.43 123.69C1624.24 118.565 1623.05 123.69 1623.05 134.966Z" fill="black"/>
<path d="M1664.76 125.057C1658.2 133.257 1658.8 133.941 1668.93 132.232C1676.67 131.207 1680.84 132.232 1680.84 135.649C1680.84 138.383 1678.46 139.749 1675.48 138.383C1672.5 137.358 1668.33 138.041 1665.95 140.091C1664.16 142.141 1666.54 144.533 1672.5 145.9C1678.46 147.266 1684.42 145.9 1687.99 142.483C1695.74 134.624 1708.25 135.307 1718.97 144.191C1725.53 149.317 1728.51 150 1728.51 146.925C1728.51 139.408 1721.95 135.307 1702.89 130.524C1693.95 128.474 1685.01 124.032 1683.23 121.298C1677.86 113.781 1673.1 115.148 1664.76 125.057Z" fill="black"/>
<path d="M1691.57 159.567C1695.74 160.592 1701.1 160.251 1702.89 159.226C1705.27 158.2 1701.69 157.175 1695.14 157.517C1688.59 157.517 1686.8 158.542 1691.57 159.567Z" fill="black"/>
<path d="M298.621 71.4123L283.726 73.8041L298.025 78.246C309.345 82.0046 312.92 82.0046 317.09 78.246C327.814 68.3371 324.836 67.3121 298.621 71.4123Z" fill="black"/>
<path d="M422.544 77.2211C450.546 81.663 455.313 81.663 467.228 76.8794C479.144 72.0958 476.761 71.7541 435.652 72.0958L390.968 72.4375L422.544 77.2211Z" fill="black"/>
<path d="M578.64 75.1708C578.64 76.8792 581.023 78.5876 584.002 78.5876C587.577 78.5876 591.747 76.8792 593.535 75.1708C595.322 73.1207 592.939 71.7539 588.173 71.7539C582.811 71.7539 578.64 73.1207 578.64 75.1708Z" fill="black"/>
<path d="M772.866 76.8792C762.142 81.6628 766.908 82.0045 825.295 82.0045C874.15 82.0045 889.044 80.9795 887.257 77.5626C883.086 71.0706 787.165 70.3872 772.866 76.8792Z" fill="black"/>
<path d="M925.386 75.8541C929.557 82.3462 951.005 83.0295 959.942 76.8792C966.496 72.4373 964.708 71.7539 945.047 71.7539C930.153 71.7539 924.195 73.1206 925.386 75.8541Z" fill="black"/>
<path d="M324.836 86.7882C314.112 89.5217 303.983 93.2802 301.6 95.3303C297.43 99.4305 304.579 99.0888 352.242 91.9135C363.562 90.205 383.819 88.8383 396.926 88.4966C415.991 88.4966 418.374 87.8132 408.842 85.4214C390.372 80.9795 345.688 81.6629 324.836 86.7882Z" fill="black"/>
<path d="M662.05 92.9386C637.622 96.6972 598.896 101.822 575.661 104.214L533.956 108.656L600.088 108.998C639.41 109.34 676.348 111.39 692.435 114.123C706.733 116.857 734.14 119.59 753.205 120.615C791.335 121.982 796.101 118.565 772.27 105.923C757.971 98.4056 757.375 98.4056 721.628 103.531C701.967 106.264 685.881 107.973 685.881 107.631C685.881 106.948 700.776 102.506 718.649 97.7222C736.523 92.9386 751.417 88.4967 751.417 87.4717C751.417 83.3715 704.946 86.1049 662.05 92.9386Z" fill="black"/>
<path d="M775.249 93.622C785.973 99.7723 790.739 100.114 845.551 99.4306C879.511 99.0889 888.448 98.0639 888.448 93.9637C888.448 89.8634 877.724 88.8384 827.678 88.8384C774.653 88.8384 768.099 89.5218 775.249 93.622Z" fill="black"/>
<path d="M472.59 96.3555C486.293 98.4056 502.975 98.4056 520.253 96.3555C544.084 93.2803 542.893 92.9386 498.209 92.9386C456.504 92.9386 452.929 93.2803 472.59 96.3555Z" fill="black"/>
<path d="M389.18 108.314C404.67 113.44 426.118 124.374 436.247 132.574C457.695 149.317 492.251 163.667 532.168 172.21C549.446 175.626 569.703 184.169 586.98 194.761C617.366 213.553 622.728 213.553 598.3 195.102L581.618 182.802L596.513 188.269C604.854 191.344 621.536 203.645 634.047 215.604C653.708 234.738 656.092 239.522 654.304 254.556C651.921 270.615 654.304 269.932 664.433 251.481C667.411 247.039 670.986 246.014 678.731 248.064C684.093 249.43 702.563 251.139 718.649 252.164C743.076 253.189 752.013 251.822 765.716 245.672C791.335 234.055 800.867 218.679 791.335 202.62C782.398 186.219 759.758 179.385 728.777 183.143L706.733 185.877L739.501 187.927C766.312 189.294 773.461 191.002 780.611 198.519C791.931 210.137 785.377 224.146 762.141 236.446C727.586 254.897 682.306 247.38 649.538 217.995C638.218 208.087 626.898 198.178 624.515 195.786C618.557 190.319 660.858 198.861 696.009 210.137C719.841 217.654 721.628 217.654 721.628 211.845C721.628 202.961 694.222 185.194 668.603 178.018C656.687 174.601 625.706 168.793 599.492 165.718C526.806 156.492 508.933 152.05 472.59 132.916C440.417 116.515 410.032 106.264 376.073 100.797C367.732 99.4305 373.094 102.847 389.18 108.314Z" fill="black"/>
<path d="M336.156 116.173C363.562 126.082 375.477 133.599 352.838 126.424C320.665 116.857 318.878 132.232 351.05 144.191C395.734 161.276 419.566 210.82 391.564 228.588C385.606 232.346 378.456 235.08 376.073 234.055C373.69 233.371 365.349 236.446 358.2 240.888C339.135 252.847 308.749 256.948 281.939 251.822C265.257 248.747 254.533 242.938 239.638 229.613C228.318 219.704 218.19 212.528 216.403 213.554C211.636 216.287 246.788 246.697 264.066 253.872C273.002 257.631 293.259 261.39 309.941 262.415C335.56 263.781 346.88 262.073 385.606 251.481C413.608 243.964 439.226 239.18 452.929 239.522H474.378L447.567 244.305C397.521 253.531 363.562 279.499 364.753 308.2L365.349 322.893L373.094 306.834C389.18 273.69 427.907 252.847 473.782 252.847C515.487 252.847 539.914 278.474 513.104 293.85C506.55 297.608 504.167 300.683 507.146 300.683C519.062 300.683 542.893 283.941 542.893 276.082C542.893 252.506 497.613 234.396 443.993 236.446C426.119 236.788 411.82 237.472 411.82 237.13C411.82 236.446 431.481 202.961 432.673 202.278C435.056 200.569 503.571 215.604 530.977 224.146C581.023 239.863 612.6 272.665 597.109 293.166C591.152 301.708 591.152 301.708 598.897 295.9C604.259 292.483 609.025 287.699 610.217 285.649C616.175 276.082 622.728 289.408 623.324 311.959C623.324 342.027 609.621 358.087 577.449 364.92C559.575 369.02 553.021 369.02 539.318 364.92C519.657 359.795 507.146 347.494 511.316 337.927C515.487 329.385 538.127 320.501 557.192 319.818C581.023 319.134 563.15 312.642 537.531 312.642C508.338 312.642 490.464 321.526 486.293 337.927C483.91 344.761 481.527 353.986 479.74 358.77C477.357 365.604 478.548 366.287 483.315 362.187C488.677 358.087 491.06 358.087 493.443 361.503C497.613 367.995 527.998 375.854 548.255 375.854C601.876 375.854 637.027 354.67 642.389 318.109C645.964 295.216 638.219 278.474 612.6 255.923C586.385 232.688 502.38 202.961 452.334 199.203C431.481 197.494 427.311 195.444 414.799 181.435L401.096 165.376L421.353 166.743C433.864 167.768 441.61 166.743 441.61 164.351C441.61 162.301 430.29 160.592 414.799 160.592C399.905 160.592 387.989 158.884 387.989 157.175C387.989 155.125 397.521 153.759 408.841 153.759C433.269 153.759 437.439 146.925 413.608 146.583C396.926 146.583 396.926 146.583 410.629 143.166L424.332 140.091L412.416 130.182C396.926 117.882 355.221 105.923 328.41 105.923H308.154L336.156 116.173Z" fill="black"/>
<path d="M459.483 111.048C482.123 118.565 542.297 128.816 580.427 131.549C598.897 132.916 614.387 135.308 614.387 136.674C614.387 139.066 578.044 145.558 548.851 147.95C540.51 148.975 551.234 149.658 572.682 149.658C604.259 150 617.962 148.292 647.155 140.091C666.816 134.283 688.264 129.841 694.818 129.499C704.35 129.499 703.159 128.474 688.86 124.715C676.944 121.299 646.559 119.932 598.301 119.59C543.488 119.59 517.274 117.882 488.08 112.756C443.397 104.898 439.822 104.556 459.483 111.048Z" fill="black"/>
<path d="M802.06 120.615C797.293 126.424 790.144 128.474 768.1 129.157C728.778 130.524 732.353 136.674 772.271 136.674C802.06 136.674 806.23 135.649 812.188 128.132C816.359 122.665 816.954 118.223 813.38 116.173C809.805 114.123 805.634 115.831 802.06 120.615Z" fill="black"/>
<path d="M838.402 115.831C830.061 117.54 828.869 119.248 834.231 120.957C843.168 124.374 870.574 120.615 870.574 116.173C870.574 112.073 855.084 112.073 838.402 115.831Z" fill="black"/>
<path d="M4.89868 142.483C-5.22967 148.292 1.32397 168.11 15.6228 175.627C33.4964 185.194 67.4561 189.636 83.5423 184.852C89.5002 182.802 95.458 182.119 97.2454 182.802C99.0328 183.827 106.182 180.41 114.523 175.627C124.056 169.135 126.439 166.06 121.077 165.034C117.502 164.009 115.715 161.618 118.098 159.567C120.481 157.517 118.098 156.834 112.736 158.201C107.374 159.226 86.5213 161.959 66.8603 164.351C33.4964 168.11 29.3259 167.768 18.006 161.959C9.66496 157.859 7.28182 153.417 9.66496 147.95C13.2397 139.75 11.4523 138.383 4.89868 142.483Z" fill="black"/>
<path d="M668.008 150.342C648.347 154.1 729.374 154.1 754.396 150.342C767.504 148.292 759.759 147.608 727.586 147.608C703.159 147.608 676.349 148.975 668.008 150.342Z" fill="black"/>
<path d="M763.333 158.884L718.649 167.084H774.057L830.061 167.426L825.89 177.677C821.124 191.002 837.21 210.82 859.254 216.97C893.214 227.221 933.132 221.412 948.622 203.986C954.58 197.494 952.793 197.836 937.898 206.037C911.684 220.046 883.682 221.754 860.446 210.478C837.21 199.203 830.657 184.852 842.572 170.843L851.509 160.592H818.145C784.781 160.251 784.185 160.251 802.059 155.467C828.274 148.633 813.975 150 763.333 158.884Z" fill="black"/>
<path d="M458.887 166.401C479.144 186.56 517.274 207.745 551.234 217.654C567.916 222.437 590.556 230.296 601.876 234.738C618.558 242.255 620.941 242.597 615.579 236.788C612.004 233.03 592.343 224.829 571.491 218.679C527.402 205.353 510.721 198.519 494.634 186.56C483.91 178.702 486.889 179.043 529.19 192.027C554.809 199.886 572.086 203.986 568.512 201.253C564.341 198.178 547.063 191.686 529.786 186.219C512.508 181.093 486.293 171.184 471.994 164.351L445.184 152.392L458.887 166.401Z" fill="black"/>
<path d="M882.49 161.276C868.787 164.693 868.787 165.034 879.511 166.401C906.918 169.476 907.513 170.16 894.406 184.852L881.895 198.861L901.555 196.469C920.025 194.419 942.069 183.827 942.069 176.993C942.069 172.21 914.067 157.176 905.13 157.517C900.96 157.517 890.831 159.226 882.49 161.276Z" fill="black"/>
<path d="M325.431 167.426C327.218 169.134 331.984 170.843 334.963 170.843C338.538 170.843 339.134 169.134 337.346 167.426C335.559 165.376 330.793 164.009 327.814 164.009C324.239 164.009 323.643 165.376 325.431 167.426Z" fill="black"/>
<path d="M307.558 177.677C305.175 180.068 306.962 183.144 311.133 184.852C323.644 189.294 332.581 188.611 336.156 183.144C338.539 179.727 336.751 178.702 330.198 180.068C325.432 181.093 318.878 180.068 316.495 177.677C312.92 174.601 311.133 174.601 307.558 177.677Z" fill="black"/>
<path d="M109.757 186.219C100.82 190.661 96.0536 194.761 100.224 194.761C104.395 194.761 115.119 191.003 124.056 186.219C132.992 181.777 137.759 177.677 133.588 177.677C129.418 177.677 118.693 181.435 109.757 186.219Z" fill="black"/>
<path d="M1792.25 183.485C1789.87 184.51 1788.08 192.027 1788.08 200.228C1788.08 208.428 1785.1 215.262 1780.93 216.287C1776.76 217.312 1779.15 218.337 1786.89 218.337C1798.81 218.679 1800 217.312 1800 199.886C1800 180.752 1799.4 179.385 1792.25 183.485Z" fill="black"/>
<path d="M76.989 193.736C53.1576 208.428 36.4756 226.196 36.4756 236.788C36.4756 242.255 29.3261 254.897 20.9851 265.49C7.87787 281.207 5.49473 287.358 8.47365 303.075C11.4526 320.501 40.0503 361.162 46.6039 357.745C47.7955 356.72 44.8166 350.911 38.8587 344.761C26.3472 330.752 20.9851 295.216 29.9219 282.232L36.4756 272.665L48.9871 281.549C55.5407 286.333 63.8817 290.433 67.4564 290.433C71.6269 290.433 68.0522 286.674 60.9028 282.232C41.8376 270.957 46.6039 259.339 72.2227 251.822L93.0752 245.33L68.0522 247.039C47.1997 248.405 42.4334 247.722 42.4334 243.28C43.0292 235.08 64.4775 208.77 81.7552 195.786C100.225 182.118 97.8415 181.093 76.989 193.736Z" fill="black"/>
<path d="M1371.03 194.761L1326.35 196.811L1384.74 197.494C1425.25 197.836 1441.93 199.203 1438.95 201.936C1435.97 204.67 1438.36 204.67 1447.29 201.936C1465.17 196.469 1483.04 197.494 1489.59 203.986C1494.36 209.112 1496.15 209.112 1505.68 205.011C1515.21 200.228 1515.81 200.569 1512.83 209.453C1510.45 216.97 1511.04 217.995 1517.6 214.92C1524.15 211.845 1525.94 212.187 1525.94 216.629C1525.94 219.704 1529.51 222.096 1534.28 222.096C1547.98 222.096 1552.15 241.572 1541.43 251.139C1536.07 255.923 1534.28 259.681 1537.85 259.681C1541.43 259.681 1543.81 271.64 1543.81 290.091C1543.81 340.319 1553.94 328.36 1557.51 274.032L1560.49 223.804L1544.41 215.262C1535.47 210.478 1525.34 203.645 1521.77 199.886C1515.81 194.419 1508.06 193.394 1465.17 193.052C1438.36 193.052 1395.46 193.736 1371.03 194.761Z" fill="black"/>
<path d="M104.395 206.378C77.5848 221.754 78.7764 225.171 107.97 223.121C129.418 221.412 131.801 221.754 128.227 227.563C125.843 231.321 130.61 228.588 138.951 222.096L153.25 210.137L138.355 208.428C122.865 206.378 122.865 206.378 142.525 202.62C166.357 197.494 166.953 194.761 143.121 194.761C130.014 194.761 118.694 198.178 104.395 206.378Z" fill="black"/>
<path d="M158.015 217.654C145.504 226.879 130.609 236.788 124.651 240.205C116.906 244.647 113.927 251.481 113.927 265.148C113.927 280.866 110.948 286.333 99.0327 294.533C90.6917 300.342 78.776 310.592 72.8182 317.426C62.094 329.727 51.3699 355.353 56.732 355.353C58.5193 355.353 65.6687 349.544 72.2224 342.369C85.3297 329.043 84.7339 331.093 68.6477 363.895C62.094 375.854 60.9025 387.813 63.8814 403.189L67.4561 425.399L75.7971 407.289C80.5634 397.38 86.5212 386.105 90.0959 382.688C93.0749 379.271 96.0538 372.779 96.0538 368.679C96.0538 364.579 102.012 347.153 109.161 330.068C121.077 301.025 122.268 299.658 127.035 309.909C132.992 322.893 172.91 348.519 187.209 348.519C194.358 348.519 191.975 345.786 178.868 337.585C138.355 311.959 135.376 285.991 168.144 245.672C181.847 228.929 183.038 225.854 173.506 232.346C166.356 237.13 153.249 248.406 143.717 257.973C133.588 267.54 125.843 272.324 125.843 268.907C125.843 261.048 144.908 239.522 163.378 226.879C181.847 213.895 193.167 201.595 186.613 201.595C183.634 201.595 170.527 208.77 158.015 217.654Z" fill="black"/>
<path d="M383.222 215.604C379.052 223.462 376.669 230.296 378.456 231.321C382.031 233.371 395.138 209.112 392.755 205.011C391.563 202.961 387.393 207.745 383.222 215.604Z" fill="black"/>
<path d="M199.125 222.779C184.23 232.688 167.548 261.048 167.548 275.057C167.548 282.916 171.123 294.875 175.889 301.025L184.23 311.959L193.763 281.891L200.912 305.809L208.062 292.141C215.807 277.449 216.999 234.396 209.849 224.487C206.274 219.021 204.487 218.679 199.125 222.779Z" fill="black"/>
<path d="M1772.59 310.934C1772.59 342.028 1773.79 354.67 1774.38 338.952C1775.57 323.577 1775.57 298.292 1774.38 282.574C1773.79 267.198 1772.59 279.841 1772.59 310.934Z" fill="black"/>
<path d="M457.1 265.148C449.354 276.424 453.525 289.408 467.228 295.9C480.335 302.392 480.335 302.392 470.207 295.216C450.546 282.232 461.27 266.515 492.251 262.073C499.4 261.048 495.23 260.364 482.718 260.023C467.824 259.681 459.483 261.389 457.1 265.148Z" fill="black"/>
<path d="M239.638 269.59C239.042 274.032 243.212 286.333 247.979 297.608C255.128 313.667 262.873 320.501 285.513 332.802C324.835 354.328 367.732 366.287 400.5 364.92L426.714 363.895L407.053 356.72C396.329 352.961 376.668 339.977 362.37 327.677C346.283 313.667 326.622 302.05 307.557 294.533C291.471 288.724 273.002 280.182 267.64 275.74C253.341 265.49 254.532 270.273 270.023 289.408C277.172 298.292 294.45 311.959 307.557 320.159C337.942 338.269 331.389 339.636 298.025 322.21C273.002 309.226 252.149 289.408 244.404 271.64C240.829 263.098 240.234 262.756 239.638 269.59Z" fill="black"/>
<path d="M354.625 275.057C349.263 279.841 345.688 284.282 346.88 285.308C348.667 285.991 354.029 281.891 359.391 276.424C371.903 264.123 368.328 263.098 354.625 275.057Z" fill="black"/>
<path d="M218.785 297.608C213.423 313.667 214.615 330.068 221.764 340.661L228.914 350.228L234.276 338.269C240.234 325.968 235.467 291.8 227.722 288.724C224.743 288.041 221.169 291.8 218.785 297.608Z" fill="black"/>
<path d="M245 317.768C245 320.501 252.15 329.727 259.895 338.269C298.621 378.246 305.77 389.522 298.025 394.989C293.259 398.406 283.726 399.772 273.598 399.089C253.937 397.38 252.746 400.797 268.832 410.023C280.747 416.857 307.558 418.907 320.069 414.123C329.006 410.706 340.326 398.064 340.326 391.572C340.326 388.497 324.836 376.538 306.366 364.579C287.301 352.62 265.853 335.877 258.703 327.677C250.958 319.476 245 315.034 245 317.768Z" fill="black"/>
<path d="M126.439 360.478C126.439 383.713 128.822 397.38 134.78 403.189C142.525 411.048 143.121 408.656 143.717 375.512C143.717 349.203 141.334 337.927 134.78 332.802C127.035 326.993 126.439 329.727 126.439 360.478Z" fill="black"/>
<path d="M161.59 393.622C162.186 421.982 164.569 439.066 170.527 445.9C177.676 455.125 178.272 451.025 177.676 405.239C176.485 367.996 174.697 353.986 169.335 352.62C163.377 351.595 161.59 361.162 161.59 393.622Z" fill="black"/>
<path d="M239.042 684.055C239.042 864.807 237.851 1011.73 236.659 1011.05C231.297 1007.63 227.126 839.863 227.126 608.884C227.126 444.533 225.339 358.77 221.169 358.77C216.998 358.77 215.211 469.818 214.615 684.055C214.019 863.098 211.636 1005.92 209.253 1001.14C206.87 996.355 204.487 887.699 203.891 759.226C203.295 631.094 200.912 526.196 197.933 526.196C187.805 526.196 185.421 568.223 185.421 790.661C185.421 916.401 184.23 1018.57 183.038 1017.88C181.251 1016.86 179.464 906.834 178.272 772.893C177.08 578.132 175.293 529.613 169.335 529.613C163.377 529.613 161.59 579.499 161.59 784.169V1039.07L251.554 1037.02L249.766 720.957C249.17 547.039 249.17 393.622 249.766 379.955C250.958 364.92 249.17 355.353 245 355.353C240.83 355.353 239.042 459.909 239.042 684.055Z" fill="black"/>
<path d="M185.422 405.581C186.017 437.358 188.401 456.15 193.763 462.984C200.912 472.21 202.104 467.426 203.891 415.832C206.274 363.212 205.678 358.77 196.146 358.77C186.613 358.77 185.422 363.212 185.422 405.581Z" fill="black"/>
<path d="M377.265 377.563C377.265 383.03 378.456 385.08 380.244 381.663C381.435 378.588 381.435 373.804 380.244 371.412C378.456 369.362 377.265 371.754 377.265 377.563Z" fill="black"/>
<path d="M467.228 392.938C467.228 401.481 468.419 404.897 469.611 400.456C470.803 396.355 470.803 389.522 469.611 385.08C468.419 380.979 467.228 384.396 467.228 392.938Z" fill="black"/>
<path d="M98.4372 394.647C103.799 413.098 132.993 446.583 158.016 462.984C180.06 478.018 193.167 478.018 172.91 463.326C165.761 458.2 145.504 437.358 127.631 417.54C100.82 387.472 95.4583 383.371 98.4372 394.647Z" fill="black"/>
<path d="M359.987 403.531C352.837 410.706 349.858 416.173 352.837 414.806C359.391 412.756 377.86 392.939 374.881 391.23C373.69 390.547 367.136 396.014 359.987 403.531Z" fill="black"/>
<path d="M84.7337 416.857C84.1379 423.69 88.3084 438.041 93.0747 449.317C112.14 491.344 143.716 519.362 171.718 519.362C188.4 519.362 189.592 513.895 173.506 509.112C166.952 507.061 157.42 501.936 152.653 497.494C140.738 487.244 130.609 467.084 138.354 469.818C146.1 472.893 144.908 469.134 134.78 457.859C129.418 452.05 122.864 447.608 119.885 447.608C116.906 447.608 115.715 445.558 117.502 442.825C119.289 440.091 117.502 437.016 113.331 435.308C108.565 433.599 107.374 434.282 110.948 437.699C114.523 441.116 113.927 441.458 108.565 438.724C104.99 437.016 98.4368 428.474 93.6705 419.932L85.3295 404.898L84.7337 416.857Z" fill="black"/>
<path d="M471.398 413.781C471.398 423.007 505.954 450.683 520.848 452.734C546.467 456.492 567.915 453.075 580.427 443.508C591.747 434.966 591.747 433.941 582.214 425.74C576.852 420.957 569.107 416.857 565.532 416.857C560.17 416.857 560.17 417.882 565.532 420.957C569.703 423.349 572.682 428.132 572.682 432.232C572.682 442.483 561.362 447.608 539.318 447.608C517.274 447.608 492.846 435.991 480.335 419.59C475.569 413.44 471.994 410.706 471.398 413.781Z" fill="black"/>
<path d="M349.858 425.399C314.111 444.191 303.983 487.585 330.197 509.453C345.688 522.779 371.902 529.613 386.201 524.146C402.883 518.337 409.437 509.795 401.692 505.353C396.33 502.278 395.138 502.961 398.117 508.428C402.287 517.995 382.031 524.146 362.966 519.02C319.473 507.745 313.515 475.626 348.071 439.408C359.987 427.107 368.923 416.857 367.732 416.857C366.54 416.857 358.795 420.615 349.858 425.399Z" fill="black"/>
<path d="M267.64 429.157C264.661 430.524 262.874 569.932 262.874 738.724V1045.56H184.826C118.098 1045.56 107.374 1044.87 110.353 1040.43C112.14 1037.36 110.353 1035.31 104.991 1035.31C98.437 1035.31 96.0538 1039.75 96.0538 1052.39C96.0538 1061.62 94.2665 1069.48 91.8833 1069.48C88.9044 1069.48 88.3086 1060.93 88.9044 1050.34C90.096 1039.41 88.3086 1029.5 84.7339 1027.45C79.9676 1024.72 78.1803 1029.84 78.1803 1046.24C78.1803 1060.93 81.1592 1069.82 85.9255 1072.55C96.0538 1077.33 100.224 1151.48 90.096 1151.48C86.5213 1151.48 84.1381 1160.71 84.1381 1173.69V1195.9L176.485 1194.19C237.851 1192.82 268.832 1193.51 268.832 1195.9C268.832 1197.95 283.726 1199.32 304.579 1199.32C338.538 1199.32 340.326 1198.98 340.326 1190.77V1182.23H598.301C815.167 1181.89 1287.97 1173.6 1297.5 1169.5C1308.22 1165.06 850.318 1171.98 634.048 1171.98C499.996 1171.98 377.264 1170.96 361.774 1169.93C288.492 1164.12 357.604 1161.73 610.216 1161.39C761.546 1161.39 1308.26 1154.27 1321.36 1152.9C1336.85 1150.85 888.448 1155.58 802.059 1155.24C729.969 1154.9 600.088 1153.87 513.103 1152.16C358.795 1149.77 357.008 1149.77 435.651 1147.72C479.74 1146.36 610.216 1145.33 724.607 1144.99C847.935 1144.65 1331.01 1135.74 1336.37 1133.69C1342.33 1131.64 891.427 1137.81 775.249 1137.47C678.732 1137.13 548.851 1135.76 486.293 1134.74L373.094 1132.35L486.293 1131.66C760.354 1129.95 1350.25 1120.39 1355.61 1117.66C1358.59 1115.95 881.299 1120.39 742.481 1120.39C611.408 1120.05 473.186 1118.68 435.651 1117.31L367.136 1114.92L468.42 1113.9C524.423 1113.21 578.044 1112.53 587.577 1112.19C597.705 1111.85 692.435 1111.16 799.08 1110.82C906.918 1110.14 1375.54 1105.59 1367.2 1104.23C1358.85 1102.86 822.912 1104.33 651.921 1103.99C448.163 1103.64 340.326 1102.62 340.326 1100.23C340.326 1097.84 453.525 1096.81 668.008 1096.81C882.49 1096.81 1372.52 1093.97 1372.52 1091.58C1372.52 1089.19 882.49 1089.98 668.008 1089.98H340.326V1045.9L277.768 1043.85L274.789 735.308C273.002 565.49 270.023 427.791 267.64 429.157ZM149.674 1055.81C149.674 1057.52 142.525 1059.23 133.588 1059.23H116.906L118.694 1100.57C119.885 1126.88 118.098 1143.62 114.523 1145.67C109.757 1148.41 107.97 1135.08 107.97 1100.91V1052.39H128.822C140.142 1052.39 149.674 1053.76 149.674 1055.81ZM328.41 1193.51L301.004 1191.12C285.514 1190.09 234.872 1189.07 187.805 1189.07H102.012V1174.03C102.012 1165.49 104.991 1157.63 107.97 1156.61C112.14 1155.24 112.736 1159.34 110.353 1168.22L106.182 1182.23L180.06 1182.57C220.573 1182.57 269.427 1183.6 288.492 1184.28L322.452 1185.65V1059.57L237.851 1058.2L152.653 1057.18L328.41 1055.81V1193.51ZM237.851 1078.7C218.786 1079.38 187.805 1079.38 169.335 1078.7C150.27 1078.02 165.761 1077.68 203.295 1077.68C240.83 1077.68 256.32 1078.02 237.851 1078.7ZM296.833 1148.75C296.238 1162.41 295.046 1151.48 295.046 1124.15C295.046 1096.81 296.238 1085.88 296.833 1099.2C298.025 1112.87 298.025 1135.42 296.833 1148.75ZM268.832 1121.07C268.832 1145.33 266.448 1157.97 262.874 1156.61C256.32 1154.21 254.533 1088.95 261.086 1085.54C268.236 1081.09 268.832 1083.14 268.832 1121.07ZM250.958 1154.9H224.743C209.849 1154.9 196.146 1153.19 193.763 1151.14C190.784 1148.41 187.805 1149.09 184.23 1152.85C181.251 1155.92 175.889 1158.31 172.314 1158.31C168.144 1158.31 168.74 1156.26 173.506 1153.19C179.464 1149.09 179.464 1146.01 174.697 1139.52C166.952 1129.95 154.441 1128.59 141.333 1136.1C128.226 1143.62 125.247 1142.26 132.993 1133.03C140.738 1122.44 152.653 1119.7 168.74 1124.49C177.081 1127.22 182.443 1127.22 187.209 1124.49C191.975 1121.75 191.379 1120.73 185.422 1120.73C180.655 1120.73 168.74 1118.34 159.803 1115.6C150.866 1112.87 144.908 1112.19 146.696 1113.9C148.483 1115.6 147.291 1117.65 143.717 1119.02C140.142 1120.39 138.355 1115.6 139.546 1107.06C140.738 1095.44 142.525 1093.39 151.462 1094.76C160.399 1096.13 160.994 1095.44 155.037 1091.34C149.079 1087.24 155.632 1086.56 199.72 1086.56H250.958V1154.9ZM165.165 1141.57C166.952 1143.62 163.378 1148.75 156.228 1152.51L143.717 1159.68V1151.14C143.717 1138.5 155.632 1133.03 165.165 1141.57ZM271.81 1165.15C274.194 1167.2 255.724 1168.56 219.977 1168.56C181.847 1168.56 167.548 1167.54 173.506 1165.15C185.422 1160.71 267.044 1160.71 271.81 1165.15Z" fill="black"/>
<path d="M191.975 1113.21C193.167 1118.34 191.975 1124.15 189.592 1126.54C187.209 1128.59 187.209 1132.69 188.996 1135.76C191.975 1140.21 194.358 1139.86 203.891 1133.03C217.594 1123.12 218.19 1120.73 206.87 1120.73C202.104 1120.73 199.72 1117.65 200.316 1112.19C201.508 1107.4 199.721 1103.64 196.146 1103.64C193.167 1103.64 191.38 1107.74 191.975 1113.21Z" fill="black"/>
<path d="M26.3471 437.699C8.47352 441.458 7.28195 459.226 24.5597 464.693C36.4754 468.451 42.4333 463.667 30.5176 459.567C20.985 456.15 23.3682 444.875 34.6881 441.116C48.9869 436.674 42.4333 433.941 26.3471 437.699Z" fill="black"/>
<path d="M161.59 483.827C161.59 487.585 163.973 492.369 166.952 494.761C170.527 498.519 172.314 497.836 175.293 492.369C177.08 488.61 174.697 483.827 169.931 481.435C163.377 478.36 161.59 478.702 161.59 483.827Z" fill="black"/>
<path d="M188.401 488.611C183.634 492.711 191.379 509.112 197.933 509.112C200.912 509.112 203.295 503.645 203.295 497.153C203.295 485.877 196.146 481.435 188.401 488.611Z" fill="black"/>
<path d="M100.224 507.403C96.0539 529.955 82.3508 541.23 62.0941 538.838C46.0079 537.13 45.4121 537.813 57.9236 544.647C62.6899 547.722 74.6056 550.114 83.5424 550.114C118.694 550.114 135.971 523.463 115.715 500.57L103.799 487.586L100.224 507.403Z" fill="black"/>
<path d="M130.013 532.346C128.226 539.18 125.247 656.036 124.055 791.686C121.672 1030.52 122.268 1038.72 132.396 1038.72C143.12 1038.72 143.716 1029.5 143.716 781.093C143.716 548.747 140.737 490.319 130.013 532.346Z" fill="black"/>
<path d="M104.395 925.968C104.395 973.804 105.586 993.622 106.182 969.362C107.374 945.444 107.374 906.492 106.182 882.232C105.586 858.314 104.395 878.132 104.395 925.968Z" fill="black"/>
<path d="M1751.5 887.541C1751.5 1055.73 1740.41 1104.82 1741.01 1086.37C1742.2 1068.26 1726 744.952 1751.5 748.5C1750.9 730.391 1751.5 850.98 1751.5 887.541Z" fill="black"/>
<path d="M321.261 937.927C315.899 978.588 315.303 1020.62 320.069 1030.87C321.857 1034.97 330.197 1039.07 337.943 1040.09C348.071 1041.8 352.242 1044.53 352.242 1050.34C352.242 1065.72 364.753 1067.77 458.291 1066.74C556 1065.72 582.215 1062.64 494.038 1062.64C438.035 1062.64 436.843 1062.3 440.418 1055.13L443.397 1047.95L430.289 1055.47C419.565 1061.62 413.012 1062.64 398.117 1060.59C374.286 1057.86 371.307 1056.15 382.031 1052.05C388.584 1049.32 387.393 1048.98 376.669 1050.68C364.157 1052.73 362.966 1052.39 365.945 1045.56C367.732 1041.46 367.732 1039.07 365.945 1040.09C360.583 1042.82 340.326 1031.89 340.326 1026.08C340.326 1023.69 337.943 1021.64 335.56 1021.64C333.176 1021.64 330.793 1015.49 331.389 1007.97C331.389 1000.46 333.176 994.305 336.155 994.305C338.538 994.305 340.326 996.014 340.326 998.406C340.326 1000.46 342.113 1001.48 343.901 1000.46C345.688 999.089 343.901 994.647 339.134 990.205C334.368 985.422 330.197 966.287 328.41 943.052L325.431 903.759L321.261 937.927Z" fill="black"/>
<path d="M452.333 1198.29C495.23 1198.97 566.724 1198.97 610.216 1198.29C653.113 1197.95 617.962 1197.27 530.977 1197.27C443.992 1197.27 408.841 1197.95 452.333 1198.29Z" fill="black"/>
<path d="M711.5 1198.29C716.862 1198.97 725.203 1198.97 729.374 1198.29C732.948 1197.27 728.778 1196.58 718.65 1196.58C709.117 1196.58 705.542 1197.27 711.5 1198.29Z" fill="black"/>
<path d="M753.205 1197.95C754.992 1198.97 768.695 1200 784.185 1200C799.676 1200 813.379 1198.97 815.762 1197.95C817.55 1196.92 803.251 1195.9 784.185 1195.9C765.12 1195.9 750.822 1196.92 753.205 1197.95Z" fill="black"/>
<path d="M1716.91 890.555C1719 967.94 1709.97 1015.2 1710.57 996.753C1711.76 978.644 1691.41 747.966 1716.91 751.514C1716.31 733.405 1715.92 854.008 1716.91 890.555Z" fill="black"/>
<path d="M1686.13 856.424C1686.13 901.234 1677.03 884.334 1677.63 865.883C1678.82 847.774 1669.63 766.321 1686.13 753.821C1685.53 735.712 1686.13 819.864 1686.13 856.424Z" fill="black"/>
</svg>
