<svg width="24" height="24" viewBox="0 0 24 24" fill="none" xmlns="http://www.w3.org/2000/svg">
 
<path fillRule="evenodd" clipRule="evenodd" d="M13.3477 1.1711C13.2832 1.18166 13.1461 1.21838 13.043 1.25264C12.9169 1.29458 12.8305 1.31042 12.7793 1.301C12.6681 1.28048 12.686 1.30742 12.8262 1.37108C12.956 1.43006 12.939 1.44614 12.7904 1.40486C12.7417 1.39136 12.6652 1.3481 12.6205 1.3088L12.5391 1.23734V1.36946C12.5391 1.58138 12.6416 1.76378 12.7968 1.8281C12.8588 1.85378 12.8605 1.85894 12.8387 1.95284C12.8262 2.00672 12.8215 2.12072 12.8283 2.20616C12.8369 2.31488 12.8277 2.41136 12.7978 2.52764C12.7496 2.71502 12.7647 2.7521 12.8835 2.73818C12.9403 2.73152 12.9502 2.73938 12.9568 2.79632C12.9609 2.83256 12.9797 2.86808 12.9985 2.87528C13.0197 2.88338 13.0273 2.90522 13.0186 2.93258C13.0096 2.96084 13.0179 2.9819 13.0414 2.9909C13.0621 2.99888 13.0782 3.03236 13.0782 3.06764C13.0782 3.2432 13.2196 3.27668 13.4506 3.1559L13.5642 3.0965L13.6297 3.1649C13.71 3.24872 14.081 3.43658 14.1089 3.40754C14.1199 3.39608 14.1915 3.24356 14.2679 3.06854L14.407 2.7503L14.3402 2.67554C14.3035 2.63444 14.2735 2.58932 14.2735 2.57516C14.2735 2.56106 14.2944 2.57444 14.3199 2.60486L14.3663 2.66018L14.353 2.5886C14.3457 2.54924 14.3617 2.3942 14.3886 2.24402C14.5093 1.5701 14.33 1.29224 13.7708 1.28678L13.5352 1.28444L13.6407 1.2497C13.6987 1.23062 13.8059 1.21322 13.879 1.211C13.9771 1.20806 14.0017 1.20116 13.9728 1.18442C13.9222 1.1552 13.4994 1.1462 13.3477 1.1711ZM14.0807 1.43888C14.221 1.5119 14.3217 1.6835 14.3188 1.84496L14.3172 1.93364L14.2884 1.82696C14.225 1.59182 14.1233 1.49288 13.875 1.42472L13.7227 1.38296L13.8697 1.3943C13.9506 1.40054 14.0455 1.42064 14.0807 1.43888ZM9.8672 1.6391C9.61976 1.7147 9.42032 1.91336 9.36626 2.13824C9.35732 2.1755 9.32276 2.21684 9.2837 2.23706C9.12764 2.31776 9.08648 2.40386 9.10358 2.61416C9.12962 2.93516 8.99894 3.03476 8.5514 3.035C8.21234 3.03524 8.11604 3.10688 8.13476 3.34502C8.14958 3.533 8.13284 3.61304 8.06432 3.6815C7.98704 3.75878 7.99004 3.76448 8.08298 3.71642C8.18222 3.66506 8.20148 3.6299 8.23958 3.43046C8.29286 3.15146 8.32262 3.12968 8.65478 3.1268C8.96912 3.12404 9.09488 3.09026 9.18866 2.98346C9.26444 2.89712 9.27842 2.9156 9.22118 3.02642C9.17414 3.11738 8.98034 3.21026 8.83598 3.2111C8.75918 3.21152 8.74004 3.21788 8.76566 3.23438C8.78498 3.24692 8.8304 3.2573 8.86664 3.25748C8.90768 3.25772 8.92658 3.26732 8.91686 3.2831C8.9 3.3104 8.70446 3.29222 8.60336 3.25394C8.4461 3.19442 8.37224 3.27458 8.31134 3.57086C8.25638 3.83816 8.18798 3.97364 8.06252 4.06382L8.0039 4.10594L8.06252 4.08908C8.28674 4.02458 8.41916 3.88628 8.52074 3.6107C8.54894 3.53408 8.55152 3.53234 8.55308 3.5891C8.55674 3.7274 8.47688 3.89972 8.34998 4.02734L8.22572 4.15238L8.30234 4.13588C8.34446 4.12682 8.4053 4.106 8.43752 4.08968C8.68286 3.96548 8.98268 3.91676 9.21488 3.96344C9.35462 3.99146 9.47588 3.95186 9.60722 3.83528L9.66362 3.78518L9.60992 3.88274L9.55616 3.98036L9.67328 4.19918C9.90602 4.634 10.0303 4.82042 10.2378 5.0462C10.5844 5.42348 10.6779 5.7506 10.6477 6.4805C10.6287 6.93998 10.6001 7.04462 10.5964 6.668C10.5907 6.08024 10.5607 5.65886 10.5204 5.60138C10.5013 5.57414 10.4987 5.57888 10.5085 5.62286C10.5165 5.65874 10.5043 5.7005 10.4754 5.73734C10.4322 5.7923 10.4297 5.79278 10.4297 5.74676C10.4297 5.72 10.4403 5.69156 10.4533 5.68352C10.468 5.6744 10.464 5.65592 10.4425 5.63444C10.4032 5.5952 10.4405 5.47382 10.4836 5.50046C10.4979 5.50934 10.4999 5.50316 10.4886 5.4848C10.4745 5.46212 10.4594 5.46848 10.4278 5.51036C10.3902 5.56028 10.3841 5.56184 10.3701 5.52524C10.3614 5.5028 10.3449 5.48438 10.3333 5.48438C10.3108 5.48438 10.3516 5.56682 10.4004 5.61992C10.4425 5.66576 10.4378 5.70776 10.3945 5.67188C10.3531 5.63756 10.3512 5.6474 10.383 5.73092C10.396 5.76506 10.3989 5.80532 10.3895 5.82032C10.3801 5.83538 10.371 5.85824 10.3695 5.87114C10.3678 5.88398 10.3635 5.92094 10.3599 5.95316C10.3543 6.00212 10.3508 5.99828 10.3386 5.9297C10.3276 5.86886 10.3133 5.84948 10.2831 5.85458C10.2606 5.85836 10.2422 5.85116 10.2422 5.83856C10.2422 5.82596 10.2686 5.82038 10.3008 5.82626C10.3526 5.83562 10.3594 5.82878 10.3594 5.76686C10.3594 5.71076 10.3512 5.69942 10.3184 5.70998C10.2862 5.72036 10.2844 5.71814 10.3101 5.6999C10.3741 5.6543 10.3214 5.59034 10.2555 5.6336C10.2126 5.66162 10.1955 5.66366 10.1854 5.642C10.1748 5.61956 10.1689 5.61968 10.1582 5.6426C10.1392 5.68322 10.1016 5.67932 10.1016 5.63672C10.1016 5.6174 10.1107 5.60156 10.1218 5.60156C10.1329 5.60156 10.1369 5.57522 10.1308 5.543C10.1246 5.51078 10.11 5.48438 10.0984 5.48438C10.0868 5.48438 10.0839 5.51078 10.092 5.543C10.101 5.57912 10.0967 5.60156 10.0807 5.60156C10.0664 5.60156 10.0538 5.58842 10.0528 5.57228C10.0435 5.43278 10.0078 5.35268 10.0078 5.4713C10.0078 5.51942 9.99872 5.5328 9.97268 5.52278C9.95336 5.5154 9.93752 5.51954 9.93752 5.53202C9.93752 5.5445 9.92696 5.5547 9.91406 5.5547C9.90122 5.5547 9.89066 5.53886 9.89066 5.51954C9.89066 5.50022 9.90536 5.48438 9.9233 5.48438C9.95936 5.48438 9.99452 5.41568 9.97004 5.39312C9.96152 5.38532 9.94982 5.3921 9.94406 5.40824C9.9314 5.44376 9.8672 5.44754 9.8672 5.41268C9.8672 5.39906 9.87776 5.39438 9.89066 5.40236C9.90356 5.41034 9.91406 5.40038 9.91406 5.38028C9.91406 5.36024 9.92462 5.3438 9.93752 5.3438C9.95042 5.3438 9.96074 5.32532 9.96044 5.30276C9.96002 5.26838 9.95324 5.27042 9.9185 5.31554C9.89576 5.34512 9.87026 5.36246 9.86186 5.35406C9.85346 5.34566 9.86696 5.31692 9.8918 5.29022C9.9167 5.26358 9.93194 5.23664 9.92576 5.23046C9.91958 5.22428 9.89048 5.24462 9.86102 5.27564C9.7691 5.37248 9.72278 5.40434 9.7403 5.3588C9.7484 5.33762 9.76514 5.32034 9.77756 5.32034C9.78992 5.32034 9.7937 5.30036 9.78596 5.27594C9.77786 5.25044 9.78716 5.21618 9.8078 5.1956C9.8627 5.14064 9.85262 5.09414 9.79676 5.14466C9.7709 5.16806 9.74402 5.1815 9.73706 5.17454C9.71972 5.1572 9.7934 5.08598 9.82868 5.08598C9.84434 5.08598 9.85718 5.06528 9.85718 5.04008C9.85718 4.99448 9.85688 4.99448 9.8144 5.04008C9.7604 5.09804 9.75002 5.09768 9.75002 5.03768C9.75002 5.00858 9.76022 4.99574 9.77582 5.0054C9.79334 5.0162 9.7928 5.00492 9.77414 4.97012C9.75476 4.93382 9.75398 4.91018 9.77162 4.88894C9.7853 4.87244 9.79202 4.8545 9.7865 4.84904C9.78104 4.84352 9.77132 4.79564 9.7649 4.74254C9.7403 4.5386 9.65306 4.31222 9.50948 4.07984C9.43064 3.95234 9.43532 4.03628 9.51596 4.19588C9.6134 4.38896 9.68024 4.65974 9.6773 4.84946C9.67454 5.02814 9.65474 4.98074 9.6113 4.6916C9.50492 3.98354 9.2231 3.8573 8.47388 4.18208C8.0597 4.3616 7.34552 4.56002 7.18796 4.53926C7.07996 4.52504 6.60404 4.26782 6.14066 3.9731C5.55968 3.60362 5.53406 3.59768 4.964 3.70052C4.63796 3.75938 4.5095 3.76214 4.32584 3.71432C4.25036 3.69464 4.18226 3.68498 4.1744 3.69284C4.1438 3.72356 4.29398 3.81806 4.4171 3.8456C4.57802 3.88166 4.5788 3.875 4.39256 4.05308C4.22894 4.20956 4.20668 4.31198 4.36106 4.1978C4.48604 4.1054 4.46528 4.21772 4.29242 4.56878L4.18364 4.78988L4.17104 5.15474C4.15646 5.57648 4.14536 5.6111 3.95276 5.8358C3.65372 6.18476 3.60668 6.50732 3.7793 7.02554C3.88622 7.34648 3.8879 7.42934 3.7934 7.72568C3.65144 8.17082 3.68756 8.43356 3.94154 8.80346C4.14422 9.09866 4.17092 9.1691 4.196 9.47498C4.24262 10.0441 4.41362 10.3068 4.97738 10.6755C5.36726 10.9305 5.48948 11.0763 5.57654 11.3907C5.7293 11.9419 6.14744 12.3454 6.68222 12.4575C7.04618 12.5338 7.0988 12.5593 7.29242 12.7542C7.49114 12.9541 7.54934 12.9782 7.77188 12.9523C7.84148 12.9442 7.9538 12.9312 8.02148 12.9235L8.14454 12.9096L8.29688 13.0428C8.62994 13.3339 8.88326 13.3723 9.26612 13.1895C9.36734 13.1412 9.4553 13.1016 9.46148 13.1016C9.46766 13.1016 9.42842 13.1517 9.37424 13.2129C9.16928 13.4445 9.18044 13.4649 9.51176 13.4647C9.82688 13.4646 9.90176 13.4381 10.0932 13.2591L10.2454 13.1166L10.2988 13.1835L10.3521 13.2503L10.5139 13.1931C10.6445 13.1468 10.675 13.1268 10.6715 13.0894C10.6692 13.0639 10.7159 12.9717 10.7754 12.8845L10.8836 12.7261L10.719 12.4861C10.3084 11.8877 10.2051 11.6287 10.0903 10.9105C10.0675 10.7678 10.0204 10.5987 9.9698 10.477C9.78176 10.025 9.70316 9.81602 9.70316 9.76796C9.70316 9.5438 9.60212 10.0401 9.50408 10.7461C9.38864 11.5772 9.3272 11.809 9.37472 11.2345C9.4979 9.74366 9.76502 8.8634 10.2661 8.29688L10.3387 8.21486L10.2649 8.3438C10.1072 8.61938 9.86018 9.15608 9.78098 9.39536L9.69794 9.64634L9.85544 9.99698C10.1096 10.563 10.1225 10.6007 10.1853 10.9629C10.3162 11.719 10.4172 11.9401 10.9686 12.6791C11.1179 12.8793 11.2962 13.1244 11.3647 13.2239L11.4893 13.4049L11.5677 13.3721C11.6878 13.3219 11.8828 13.1878 11.8828 13.1555C11.8828 13.1396 11.8395 13.0603 11.7865 12.9793C11.382 12.3609 10.9927 11.3616 10.8982 10.6992C10.8707 10.5059 10.791 10.0471 10.7212 9.6797C10.5858 8.96714 10.4919 8.39096 10.5085 8.37434C10.5606 8.32226 10.8334 9.63722 10.981 10.6524C11.0519 11.1395 11.1664 11.5076 11.3771 11.926L11.463 12.0967L12.628 10.9393C13.2687 10.3027 14.0461 9.54026 14.3555 9.24488C14.6649 8.94944 15.0076 8.62208 15.1172 8.51738C15.415 8.23274 15.5058 8.1563 15.5458 8.1563C15.6008 8.1563 15.7564 8.34632 15.9042 8.59394C16.0348 8.81276 16.1087 8.9747 16.414 9.7106L16.5678 10.0813L16.4657 10.2306C16.4095 10.3126 16.3764 10.3749 16.392 10.3689C16.4077 10.3629 16.5285 10.345 16.6606 10.3294L16.9006 10.3008L16.839 10.2188C16.7686 10.125 16.5938 9.78842 16.5938 9.74672C16.5938 9.70634 16.8316 10.0159 16.9449 10.2037C16.9981 10.2922 17.0385 10.3673 17.0346 10.3707C17.0306 10.3741 16.9008 10.3944 16.7461 10.4157C16.5914 10.4371 16.4369 10.4602 16.4028 10.467C16.3572 10.476 16.2858 10.5521 16.1342 10.7533C16.0207 10.9041 15.806 11.1793 15.6573 11.3651C14.7775 12.4635 14.869 12.3339 14.8356 12.5292C14.8003 12.7359 14.8189 12.7689 15.0363 12.8826C15.166 12.9506 15.2578 12.9282 15.2578 12.8284C15.2578 12.7707 15.2964 12.7957 15.3988 12.9199C15.4547 12.9876 15.5136 13.0588 15.5298 13.0782C15.5554 13.1087 15.5449 13.1123 15.4489 13.1055C15.3543 13.0989 15.1138 13.1463 14.6638 13.2604C14.6271 13.2697 14.817 13.2791 15.0857 13.2812C15.5285 13.2847 15.9291 13.3266 15.5977 13.3348C15.5332 13.3364 15.3856 13.3574 15.2695 13.3814L15.0586 13.4251L15.6328 13.4196C16.1151 13.4151 16.2249 13.4076 16.3188 13.3727C16.5478 13.2877 16.5052 13.1628 16.2486 13.1673C16.1382 13.1692 16.1041 13.1638 16.1367 13.1492C16.1625 13.1377 16.2132 13.1276 16.2495 13.1266C16.3308 13.1247 16.31 13.0782 16.2277 13.0782C16.1955 13.0782 16.1746 13.0693 16.1812 13.0586C16.1878 13.0479 16.1463 12.9929 16.0888 12.9365C15.9561 12.8062 15.9248 12.8729 16.377 12.3211C17.8997 10.4627 17.9532 10.3926 17.9532 10.2505C17.9532 9.77708 17.5518 8.47208 17.0851 7.4279C16.4754 6.0638 16.3187 5.46722 16.1832 3.99422C16.1467 3.59774 16.2402 3.56588 17.9297 3.39932C18.3229 3.36056 18.8555 3.3029 19.1133 3.27122C19.3711 3.23954 19.6612 3.20636 19.7578 3.19754C19.9787 3.17732 19.9659 3.18884 19.9393 3.03452C19.9252 2.9528 19.9248 2.83778 19.9382 2.72906L19.9596 2.5547L19.1732 2.55524C18.7407 2.55554 18.2655 2.56538 18.1172 2.57702C17.9689 2.58866 17.6314 2.61602 17.3672 2.6378C16.941 2.6729 16.821 2.67398 16.3042 2.64722L15.7216 2.61704L15.4604 2.69186C14.9464 2.83904 14.7239 2.86532 14.543 2.8001C14.4914 2.78156 14.4492 2.7662 14.4492 2.7662C14.4492 2.7662 14.4462 2.8457 14.4425 2.94308C14.4364 3.1034 14.4414 3.12674 14.4951 3.19052C14.5276 3.22928 14.571 3.3209 14.5914 3.39416C14.6118 3.46742 14.6429 3.57482 14.6605 3.63284C14.7471 3.9179 14.9115 4.5611 14.9509 4.76954C15.0041 5.04992 15.0153 4.97 14.9644 4.673C14.9176 4.40018 14.7895 3.89306 14.6594 3.46598C14.5811 3.20888 14.5564 3.09152 14.5607 2.99612L14.5664 2.86892L14.7285 3.005C14.8176 3.07982 14.9316 3.15338 14.9818 3.16844C15.2175 3.23906 15.3626 3.80342 15.309 4.4414C15.2673 4.93676 15.2452 4.94792 15.2541 4.46912C15.2674 3.7577 15.1603 3.27284 14.9799 3.2279C14.8854 3.20438 14.8706 3.21458 14.9052 3.27926C14.9584 3.37868 14.8849 3.32336 14.7523 3.16406C14.5948 2.97506 14.584 2.96744 14.6461 3.08906C14.745 3.28298 14.952 4.13696 15.0099 4.59008C15.0486 4.89266 15.0615 5.68166 15.0275 5.66798C14.7657 5.56244 13.7344 3.8528 13.7344 3.52442V3.43856L13.8926 3.45116C13.985 3.45848 14.0265 3.45602 13.9922 3.44516C13.96 3.43496 13.8974 3.42554 13.8531 3.42422C13.8067 3.4229 13.7508 3.40142 13.7212 3.37364L13.6699 3.3254L13.6542 3.38774C13.6456 3.422 13.6192 3.47798 13.5955 3.51212C13.5719 3.54632 13.514 3.6428 13.4668 3.72656C13.4197 3.81038 13.3353 3.9437 13.2793 4.02284C13.2192 4.1078 13.1509 4.24712 13.1128 4.36268C13.0149 4.65944 12.864 5.04374 12.8507 5.03042C12.8442 5.02394 12.8657 4.93622 12.8985 4.83548C12.9312 4.7348 12.9811 4.56806 13.0092 4.46498C13.0804 4.20434 13.1524 4.05164 13.2598 3.93332C13.3607 3.82232 13.5575 3.53906 13.5338 3.53906C13.5168 3.53906 13.491 3.5564 13.1227 3.81626C12.7845 4.05488 12.777 4.06328 12.7485 4.2404C12.7005 4.53836 12.6056 4.73156 12.135 5.4896L12.0663 5.6003L12.0105 5.53412C11.817 5.30414 11.5723 4.83404 11.4935 4.54094C11.405 4.2116 11.2795 4.03058 11.1148 3.99452C11.0796 3.98678 11.0363 3.97592 11.0185 3.97028C11.0008 3.9647 10.9353 3.96692 10.8729 3.97514L10.7596 3.9902L10.8613 4.13378C10.9563 4.26782 11.0625 4.45568 11.0625 4.48958C11.0625 4.4978 10.9888 4.39274 10.8988 4.25618C10.8088 4.11956 10.7247 4.00784 10.7119 4.00784C10.699 4.00784 10.7289 4.07018 10.7781 4.14638C11.0865 4.62356 11.4271 5.43416 11.2615 5.29664C11.233 5.27306 11.2266 5.27474 11.2266 5.30576C11.2266 5.32664 11.243 5.3438 11.2631 5.3438C11.2832 5.3438 11.2933 5.35412 11.2855 5.36672C11.2777 5.37932 11.2831 5.41172 11.2975 5.43872C11.3227 5.48576 11.3215 5.4863 11.2691 5.45192C11.236 5.43026 11.2019 5.42378 11.1828 5.4356C11.1608 5.44922 11.1591 5.45996 11.1772 5.47112C11.1915 5.47994 11.2163 5.47922 11.2324 5.46956C11.2537 5.45678 11.2532 5.46248 11.2307 5.4902C11.196 5.53316 11.1328 5.5202 11.1328 5.47016C11.1328 5.45222 11.1226 5.43752 11.1102 5.43752C11.0976 5.43752 11.0935 5.45336 11.1009 5.47268C11.1096 5.49524 11.1004 5.50784 11.0754 5.50784C11.0518 5.50784 11.043 5.4971 11.053 5.48078C11.0634 5.46398 11.0595 5.46008 11.0427 5.47046C11.0043 5.49422 11.0092 5.5313 11.0508 5.5313C11.0701 5.5313 11.086 5.5484 11.086 5.56928C11.086 5.60042 11.0796 5.60204 11.0508 5.57816C11.022 5.55422 11.0157 5.55584 11.0157 5.58698C11.0157 5.60792 11.0288 5.62484 11.0449 5.62466C11.0944 5.62406 11.1397 5.58482 11.1228 5.55734C11.0925 5.50838 11.1723 5.53112 11.2165 5.58398C11.2407 5.61302 11.2462 5.6243 11.2288 5.60912C11.1828 5.56898 11.1127 5.61818 11.1259 5.68142C11.1351 5.72558 11.1334 5.72642 11.1099 5.68946C11.0778 5.63936 11.0353 5.63492 11.0541 5.68364C11.0614 5.70296 11.0559 5.7188 11.0416 5.7188C11.0273 5.7188 11.0157 5.70494 11.0157 5.68808C11.0157 5.67122 11.0002 5.63696 10.9812 5.61194C10.9496 5.57006 10.9485 5.57258 10.9679 5.6426C10.9807 5.68904 10.9804 5.71874 10.9671 5.71874C10.9551 5.7188 10.9453 5.70356 10.9453 5.68502C10.9453 5.66642 10.9336 5.64398 10.9194 5.63516C10.9019 5.62442 10.8986 5.63546 10.9092 5.66894C10.9193 5.70068 10.9149 5.71874 10.8972 5.7188C10.8764 5.7188 10.8768 5.72786 10.8989 5.7545C10.9152 5.77412 10.9226 5.79614 10.9153 5.80346C10.9081 5.81072 10.8848 5.78672 10.8636 5.75012C10.8425 5.71358 10.8308 5.70206 10.8376 5.72462C10.8532 5.77598 10.8084 5.77922 10.7889 5.7281C10.7809 5.70746 10.7892 5.68034 10.8072 5.66774C10.8344 5.64872 10.834 5.6465 10.8047 5.65442C10.7824 5.66048 10.7683 5.6957 10.766 5.75042C10.7641 5.798 10.7565 5.85248 10.7492 5.87156C10.7419 5.89064 10.7461 5.90624 10.7586 5.90624C10.771 5.9063 10.7823 5.87726 10.7836 5.8418L10.7859 5.77736L10.8027 5.83598C10.8119 5.8682 10.8115 5.89784 10.8017 5.90192C10.7919 5.906 10.7896 5.92706 10.7965 5.94878C10.807 5.98184 10.8051 5.98268 10.7848 5.95382C10.7512 5.90636 10.7448 5.91944 10.7158 6.0938C10.692 6.23696 10.691 6.2294 10.6996 5.96714L10.7088 5.68814L10.8279 5.4515C11.0802 4.95032 10.9905 4.42802 10.582 4.01954L10.4414 3.8789L10.4417 3.6563C10.4421 3.34736 10.4419 3.34754 10.6099 3.38768C10.8976 3.45644 10.9922 3.42896 10.9922 3.27656C10.9922 3.2276 11.0035 3.18752 11.0172 3.18752C11.0312 3.18752 11.0359 3.16772 11.028 3.14264C11.0202 3.11792 11.0253 3.09056 11.0395 3.0818C11.0547 3.07238 11.0591 3.03794 11.0503 2.9978C11.0381 2.94206 11.0431 2.92964 11.0782 2.92934C11.1862 2.92844 11.1866 2.89334 11.0805 2.73842C10.9819 2.59442 10.977 2.57918 10.9725 2.40398C10.9699 2.30306 10.9621 2.21132 10.9552 2.2001C10.9483 2.18894 10.959 2.15636 10.9791 2.12768C11.0307 2.05412 11.0248 2.00666 10.9539 1.92236L10.8921 1.84892L10.8308 1.90736C10.7971 1.93952 10.7379 1.97732 10.6992 1.99142L10.6289 2.01698L10.7051 1.95602C10.8538 1.83704 10.7397 1.66844 10.5808 1.77248C10.5366 1.80152 10.5255 1.8029 10.5345 1.77836C10.5745 1.66976 10.0948 1.56962 9.8672 1.6391ZM9.7349 1.8809C9.62468 1.9988 9.57032 2.08814 9.53132 2.21522C9.49592 2.3306 9.49544 2.33102 9.49382 2.24834C9.49094 2.099 9.55868 1.9484 9.66266 1.8731C9.78782 1.78238 9.82334 1.78622 9.7349 1.8809ZM8.98832 2.01956C8.88962 2.0741 8.82758 2.14982 8.76104 2.29682C8.68052 2.47466 8.63912 2.52626 8.543 2.56874L8.47268 2.59976L8.54702 2.60066C8.65346 2.60198 8.7503 2.49554 8.8124 2.30906C8.8511 2.19272 8.88572 2.1374 8.95916 2.07452C9.0599 1.9883 9.06614 1.97648 8.98832 2.01956ZM9.0998 2.12588C9.01916 2.14148 8.91848 2.25674 8.88638 2.37032C8.78756 2.71976 8.6144 2.80466 8.31194 2.65208C8.23922 2.61542 8.1797 2.5886 8.1797 2.59256C8.1797 2.60852 8.29316 2.70728 8.42582 2.80682C8.51312 2.87234 8.5442 2.9057 8.50784 2.8949C8.47562 2.8853 8.39294 2.83544 8.32412 2.78408C8.18978 2.68376 8.18714 2.732 8.32088 2.84456C8.46146 2.96282 8.67332 2.9768 8.8637 2.88032C9.0002 2.81114 9.02414 2.7599 9.0095 2.56802C8.9939 2.36444 9.03932 2.27588 9.19904 2.1983C9.35648 2.1218 9.30734 2.08592 9.0998 2.12588ZM20.0299 2.6621C19.9873 2.77292 20.0203 3.04688 20.0761 3.04688C20.0938 3.04688 20.1232 3.07598 20.1417 3.11156C20.16 3.14714 20.2262 3.2123 20.2887 3.2564C20.3512 3.3005 20.4469 3.37682 20.5014 3.42608C20.6921 3.5984 20.7547 3.46376 20.5747 3.26852C20.4658 3.15044 20.4667 3.14714 20.6202 3.08882C20.782 3.02732 20.793 3.03212 20.8828 3.20366C21.0277 3.48032 21.1566 3.47642 21.0269 3.19928L20.9541 3.04358L21.0775 3.17414C21.1775 3.27992 21.2153 3.3047 21.2763 3.3047C21.3789 3.3047 21.3714 3.266 21.2454 3.14426C21.0709 2.97578 21.0692 2.94866 21.2377 3.0167C21.5216 3.13142 21.5863 3.02762 21.3106 2.8997C21.0626 2.78474 20.9358 2.75204 20.4727 2.68382C20.0004 2.61422 20.0473 2.61656 20.0299 2.6621ZM8.06816 3.07622C7.99514 3.15416 7.96688 3.24872 7.98362 3.359C8.0108 3.53834 8.03762 3.53474 8.03846 3.35156C8.03906 3.2186 8.05058 3.15722 8.08568 3.09962C8.14034 3.00998 8.13584 3.00392 8.06816 3.07622ZM14.2597 3.34934C14.1587 3.47936 14.1408 3.4922 14.0603 3.4922C13.8403 3.4922 13.7283 3.67964 13.9249 3.719C13.9987 3.73376 14.0118 3.77492 13.957 3.82034C13.917 3.85358 13.9099 3.95078 13.946 3.9731C13.9755 3.99128 14.0398 3.91766 14.1324 3.75974L14.2022 3.64052L14.3296 3.65786C14.3998 3.66734 14.4904 3.68246 14.5311 3.6914C14.6017 3.70688 14.6048 3.70454 14.5975 3.64112C14.5923 3.59606 14.5747 3.57224 14.543 3.5672C14.4379 3.55052 14.4286 3.54092 14.4714 3.49364C14.5193 3.44072 14.512 3.33752 14.4609 3.34496C14.4416 3.34778 14.3954 3.3572 14.3582 3.3659L14.2906 3.38168L14.3448 3.30836C14.4474 3.16958 14.3705 3.20666 14.2597 3.34934ZM4.54688 3.5354C4.54688 3.60806 4.69268 3.6797 4.83578 3.67742L4.9805 3.67508L4.8848 3.64484C4.83212 3.62822 4.75832 3.59894 4.7207 3.5798C4.6184 3.52772 4.54688 3.50948 4.54688 3.5354ZM13.7218 3.71486C13.8481 4.14206 14.284 4.87022 14.7391 5.41406C14.8639 5.56328 14.8064 5.53016 14.6398 5.35694C14.1993 4.8989 14.0405 4.65002 13.6444 3.79688C13.6213 3.74732 13.6182 3.76436 13.6238 3.90824C13.6302 4.07054 13.6152 4.121 13.5846 4.04108C13.5768 4.02068 13.5703 3.97694 13.5703 3.94382C13.5703 3.88766 13.5655 3.89036 13.4983 3.98306C13.3913 4.13078 13.3979 4.09292 13.5246 3.83204C13.5873 3.70316 13.639 3.58238 13.6396 3.56372C13.6416 3.50168 13.6792 3.57098 13.7218 3.71486ZM15.5452 3.64694C15.5866 3.69968 15.5959 3.70286 15.6141 3.6704C15.6474 3.611 15.6751 3.62558 15.7287 3.73082C15.7882 3.84734 15.7849 3.85148 15.5421 3.9641C15.3634 4.0469 15.369 4.05032 15.3997 3.87704C15.4513 3.58604 15.4718 3.5537 15.5452 3.64694ZM4.69304 4.02566C4.60868 4.10156 4.56512 4.16084 4.55534 4.21292C4.5374 4.30832 4.56566 4.3094 4.65386 4.21676C4.75394 4.11158 4.78556 4.09988 5.03258 4.07648C5.18648 4.0619 5.2964 4.03688 5.38538 3.9962L5.51456 3.93704L5.60324 4.01342C5.65202 4.05548 5.80508 4.19348 5.94344 4.32014C6.3245 4.6691 6.87362 5.06042 7.04738 5.10686C7.16138 5.13734 7.78106 5.04716 8.40518 4.90916C8.80124 4.82162 8.89178 4.82798 9.00992 4.95164C9.12884 5.07614 9.47078 5.78876 9.5354 6.04688C9.56822 6.17798 9.59216 6.22856 9.62954 6.24584C9.71126 6.28352 9.68816 6.29348 9.53858 6.28502C9.46094 6.28064 9.36338 6.28892 9.3218 6.30344C9.25118 6.32804 9.24872 6.3272 9.28526 6.29066C9.3068 6.26912 9.37496 6.2387 9.4367 6.22304C9.5456 6.19538 9.54734 6.19358 9.49334 6.16472C9.33986 6.08258 9.03692 6.25814 8.97488 6.46514C8.86526 6.83114 9.42842 7.27256 9.88772 7.1807C9.98366 7.1615 9.9818 7.12532 9.88478 7.12394C9.71282 7.1216 9.65258 7.06154 9.82034 7.05974C10.0713 7.0571 10.1599 7.00298 9.94388 6.98432C9.70964 6.96416 9.71294 6.94718 9.95462 6.92822C10.0677 6.91934 10.1797 6.90986 10.2035 6.90722C10.2282 6.90446 10.2621 6.92756 10.2822 6.96098C10.3043 6.99746 10.3057 7.00556 10.2858 6.98234C10.2357 6.92378 10.192 6.95156 10.224 7.02176C10.2434 7.06424 10.2434 7.08632 10.2241 7.10558C10.2049 7.1249 10.2014 7.11854 10.2111 7.08152C10.2187 7.0523 10.2133 7.0313 10.198 7.0313C10.1837 7.0313 10.1718 7.04972 10.1715 7.07228C10.1713 7.10282 10.1662 7.10552 10.1519 7.0829C10.1253 7.0409 10.0719 7.10486 10.0913 7.1555C10.1019 7.1831 10.0937 7.18886 10.0574 7.17938C10.0045 7.16558 9.92144 7.22954 9.9608 7.25384C9.97376 7.26182 9.98438 7.2566 9.98438 7.2422C9.98438 7.2278 9.99512 7.22264 10.0082 7.23074C10.0213 7.23884 10.0264 7.25462 10.0194 7.26584C10.0125 7.27706 10.0254 7.29662 10.0482 7.30934C10.0709 7.32206 10.0808 7.34114 10.0702 7.35176C10.0596 7.36238 10.0374 7.3526 10.0209 7.33004C10.0044 7.30754 9.97364 7.28906 9.95252 7.28906C9.9314 7.28906 9.91406 7.27856 9.91406 7.26566C9.91406 7.23452 9.86186 7.23602 9.78086 7.26944C9.74456 7.28438 9.7076 7.29518 9.69872 7.29332C9.68984 7.29152 9.67592 7.3109 9.66782 7.33646C9.65972 7.36196 9.63638 7.38284 9.61592 7.38284C9.5825 7.38284 9.58268 7.37846 9.61748 7.34C9.6608 7.29212 9.6686 7.2422 9.63284 7.2422C9.61994 7.2422 9.60938 7.25672 9.60938 7.27448C9.60938 7.29224 9.5936 7.3199 9.57422 7.33598C9.53372 7.36958 9.52904 7.3517 9.5621 7.2899C9.58442 7.2482 9.5291 7.1975 9.49664 7.22996C9.48992 7.23668 9.4967 7.2422 9.51176 7.2422C9.55088 7.2422 9.5456 7.30502 9.5051 7.32056C9.48122 7.32974 9.47546 7.3223 9.48578 7.29554C9.49694 7.26638 9.49058 7.26128 9.45854 7.27358C9.42746 7.28546 9.42014 7.28054 9.43016 7.2545C9.44852 7.20668 9.39686 7.21952 9.34538 7.2755C9.30458 7.3199 9.3035 7.3199 9.26996 7.2755C9.22796 7.22 9.2261 7.18958 9.26252 7.15316C9.278 7.13768 9.28052 7.12502 9.26816 7.12502C9.23084 7.12502 9.18968 7.21022 9.20276 7.26032C9.20954 7.28612 9.2033 7.3145 9.18896 7.32332C9.17462 7.3322 9.16442 7.33076 9.16628 7.32014C9.17834 7.25054 9.15224 7.25114 9.0293 7.32332C7.91594 7.9769 5.77958 7.27454 4.75454 5.918C4.6382 5.76398 4.47164 5.48246 4.57406 5.61284C5.43278 6.70622 6.8984 7.47872 8.12114 7.48238C8.55494 7.48364 8.95112 7.37588 9.07658 7.2224C9.09248 7.20296 9.05804 7.21436 9.00002 7.24772C8.40746 7.58858 7.52174 7.40312 6.35156 6.6932C5.54294 6.20252 5.05316 5.74484 4.72592 5.17382C4.6358 5.01656 4.66016 5.03504 4.81886 5.24414C5.20508 5.75306 5.76806 6.2282 6.43364 6.60698L6.52736 6.66032L6.4571 6.60554C5.43218 5.80694 4.47656 4.66148 4.47656 4.23158C4.47656 4.12928 4.68542 3.92834 4.8047 3.9158C4.81118 3.91514 4.7609 3.96458 4.69304 4.02566ZM14.2969 3.95018C14.2969 3.9689 14.3902 4.14848 14.4 4.14848C14.4045 4.14848 14.3912 4.10102 14.3703 4.043C14.3388 3.9551 14.2969 3.90224 14.2969 3.95018ZM12.56 4.20236C12.4216 4.30718 11.9332 4.70306 11.7779 4.83632L11.6847 4.91624L11.8115 5.12414C11.8813 5.2385 11.9675 5.37242 12.0031 5.4218L12.0679 5.5115L12.1541 5.33972C12.2016 5.24528 12.2973 5.07092 12.367 4.9523C12.5458 4.64774 12.6258 4.46642 12.6645 4.27736C12.7056 4.07726 12.7156 4.08452 12.56 4.20236ZM13.6795 4.68404C13.74 4.76972 13.8957 4.95008 14.0256 5.08478C14.2519 5.31956 14.229 5.3246 13.9621 5.09876C13.7175 4.89176 13.4622 4.49828 13.4217 4.26566C13.411 4.20434 13.4278 4.22714 13.4885 4.3559C13.5331 4.4507 13.6191 4.59836 13.6795 4.68404ZM14.532 4.54826C14.5316 4.56836 14.5468 4.60526 14.5657 4.63028C14.5932 4.6667 14.6002 4.6685 14.6008 4.63928C14.6013 4.61918 14.5861 4.58228 14.5672 4.55726C14.5396 4.52084 14.5326 4.51904 14.532 4.54826ZM22.1468 4.83542C21.8814 4.9103 21.8201 4.97102 21.5158 5.46098C21.4077 5.63498 21.3063 5.7932 21.2905 5.81252C21.2746 5.83184 21.0357 6.22208 20.7595 6.6797C20.4832 7.13732 19.9796 7.96526 19.6402 8.51954C19.3009 9.07382 18.9265 9.68558 18.8082 9.8789C17.5793 11.8872 17.4454 12.0987 17.1861 12.4413C17.1439 12.4971 17.1094 12.5565 17.1094 12.5733C17.1094 12.6714 16.4441 15.2279 16.4092 15.2638C16.3905 15.283 15.8236 15.399 15.4721 15.4555C15.1999 15.4993 15.1857 15.4942 14.8491 15.2344C14.532 14.9896 14.53 15.0074 14.8828 14.9421C15.6405 14.8017 16.4532 14.6062 16.4532 14.5643C16.4532 14.5132 16.4158 14.519 15.4618 14.7186C14.4277 14.9349 14.4553 14.9262 14.4654 15.0289C14.4729 15.1065 14.8477 15.4208 15.0753 15.5403C15.3031 15.66 16.3323 15.4516 18.1524 14.9173C18.7187 14.751 18.9234 14.6886 19.9805 14.3601C20.6796 14.1427 21.9921 13.7443 22.1694 13.6957C22.3915 13.6347 22.3036 13.6302 22.0146 13.6877C20.4112 14.0071 17.6335 14.7397 16.957 15.0217C16.8789 15.0543 16.8555 15.0585 16.8867 15.0345C16.9698 14.9704 17.454 14.5766 17.9233 14.1914C18.4075 13.7941 18.8444 13.4532 18.8695 13.4532C18.899 13.4532 20.1259 11.5361 20.9844 10.1485C21.7291 8.94488 22.272 8.07134 22.5576 7.6172C22.6428 7.48184 22.7949 7.23398 22.8958 7.0664C22.9966 6.89882 23.1396 6.6668 23.2135 6.55082C23.5533 6.0176 23.5971 5.81738 23.4411 5.5127C23.2091 5.05982 22.5583 4.71926 22.1468 4.83542ZM22.5703 4.95704L22.6524 4.98866L22.5133 4.9904C22.2585 4.9937 22.1209 5.09996 21.959 5.41874L21.8912 5.5523L22.032 5.61554C22.2086 5.69474 22.1991 5.70638 21.9964 5.6594C21.909 5.63912 21.8098 5.62634 21.7761 5.63102C21.7096 5.64026 21.711 5.6411 21.897 5.70848C22.0497 5.76374 22.0311 5.76788 21.7606 5.73884C21.4833 5.70902 21.4968 5.7173 21.5691 5.6207C21.601 5.57798 21.6871 5.44556 21.7602 5.32646C21.9774 4.97276 22.2676 4.84046 22.5703 4.95704ZM22.6407 5.06252C22.6853 5.0768 22.6671 5.08184 22.5639 5.08364C22.4016 5.0864 22.2888 5.17454 22.1243 5.4269C22.0414 5.55422 21.9844 5.61164 21.9844 5.5679C21.9844 5.54756 22.2022 5.23676 22.2625 5.171C22.3686 5.05526 22.5002 5.01752 22.6407 5.06252ZM13.4716 5.22458C13.6777 5.33102 13.9782 5.74148 14.1163 6.1055C14.3461 6.71096 14.2735 7.07174 13.8032 7.66208C13.6878 7.80698 13.4494 8.11718 13.2735 8.35148C12.9169 8.82632 12.8784 8.8736 12.4012 9.42152C12.038 9.83846 11.6919 10.2069 11.528 10.3509C11.4002 10.4632 11.4124 10.4481 11.8965 9.89066C12.7461 8.91236 13.0164 8.58512 13.1935 8.32034L13.2483 8.23832L13.1808 8.309C13.0975 8.39636 12.8996 8.61692 12.2554 9.3407C11.4249 10.2738 11.1465 10.5705 11.1301 10.54C11.0999 10.4832 10.9909 9.97838 10.8509 9.24614C10.6036 7.95326 10.605 8.0261 10.8152 7.38602C10.8983 7.13288 10.9939 6.82562 11.0278 6.70316C11.1123 6.3971 11.3211 5.75852 11.3449 5.73308C11.3559 5.72138 11.4444 5.7866 11.5474 5.88224C12.118 6.41216 12.2455 6.39308 12.5815 5.72756C12.6472 5.59736 12.6738 5.57162 12.8796 5.4383C13.3178 5.15444 13.3284 5.1506 13.4716 5.22458ZM9.99026 5.30654C9.99026 5.34038 10.0011 5.37476 10.0144 5.38298C10.0288 5.39186 10.0314 5.38634 10.0208 5.36924C10.0105 5.35262 10.0212 5.32592 10.0465 5.30534C10.0704 5.2859 10.0755 5.27738 10.0579 5.28644C10.0404 5.2955 10.018 5.28986 10.0081 5.27396C9.9971 5.25608 9.99026 5.26862 9.99026 5.30654ZM11.1172 5.28032C11.1172 5.297 11.1333 5.32568 11.1529 5.34404C11.1841 5.3732 11.1866 5.37212 11.1724 5.33522C11.1636 5.31206 11.1563 5.28338 11.1563 5.27156C11.1563 5.25968 11.1475 5.25002 11.1367 5.25002C11.126 5.25002 11.1172 5.26364 11.1172 5.28032ZM10.0703 5.37722C10.0564 5.4134 10.1165 5.4773 10.1412 5.45258C10.1495 5.4443 10.1449 5.43752 10.1311 5.43752C10.1173 5.43752 10.1115 5.4164 10.1182 5.39066C10.1321 5.33756 10.09 5.3258 10.0703 5.37722ZM10.1659 5.38106C10.1575 5.3894 10.1661 5.41166 10.185 5.4305C10.2038 5.44934 10.2133 5.47436 10.206 5.48612C10.1988 5.49782 10.2042 5.52602 10.2181 5.54864C10.2388 5.58242 10.2416 5.57648 10.2334 5.51588C10.2217 5.42846 10.1872 5.3597 10.1659 5.38106ZM9.9926 5.61254C9.99986 5.6315 9.99692 5.65244 9.98606 5.65916C9.9752 5.66588 9.9608 5.6504 9.95408 5.62478C9.9401 5.5712 9.97274 5.56082 9.9926 5.61254ZM10.0521 5.6102C10.0721 5.63426 10.0714 5.6483 10.0491 5.66678C10.0268 5.68532 10.0187 5.67746 10.0162 5.63474C10.0123 5.56922 10.016 5.5667 10.0521 5.6102ZM15.9484 5.7899C15.8981 5.84144 15.8112 5.90576 15.7554 5.93282C15.6995 5.95982 15.6583 5.98646 15.6639 5.99198C15.6789 6.00698 15.8664 5.92904 15.969 5.8652C16.0186 5.83436 16.065 5.81504 16.0722 5.82224C16.0992 5.84918 15.8975 6.00986 15.7388 6.08786C15.6483 6.13232 15.6059 6.16178 15.6445 6.15338C15.7549 6.12938 16.0033 6.00752 16.1034 5.92826L16.1944 5.8562L16.246 5.96246L16.2976 6.06878L16.2289 6.1343C15.9063 6.44204 15.3421 6.65558 14.8504 6.65612C14.5656 6.65642 14.4087 6.57386 14.6719 6.56216C14.7478 6.5588 14.7446 6.55628 14.6292 6.52832C14.4393 6.48236 14.4224 6.4454 14.5911 6.44486C14.6677 6.44462 14.7832 6.4292 14.8477 6.4106L14.9649 6.37676L14.8302 6.39032C14.6778 6.40562 14.4844 6.38318 14.4844 6.35012C14.4844 6.33806 14.5187 6.32738 14.5606 6.32648C14.6778 6.32396 14.754 6.28502 14.6458 6.28292C14.5993 6.28202 14.5097 6.27422 14.4466 6.26558L14.332 6.24986L14.466 6.21944C14.6142 6.18578 14.9144 6.04568 14.9898 5.97506C15.0289 5.9384 15.0726 5.9297 15.2172 5.9297C15.4916 5.9297 15.9351 5.79398 15.9991 5.69048C16.0065 5.67854 16.0187 5.67494 16.0263 5.6825C16.0338 5.69 15.9988 5.73836 15.9484 5.7899ZM10.5117 5.76566C10.5029 5.79356 10.5075 5.81252 10.5232 5.81252C10.5378 5.81252 10.5423 5.8244 10.5333 5.83898C10.51 5.87666 10.4725 5.80346 10.4908 5.75594C10.5115 5.702 10.5293 5.71028 10.5117 5.76566ZM11.0391 5.76752C11.0658 5.7863 11.0603 5.78816 11.0158 5.7755C10.9612 5.75996 10.9597 5.76176 10.9924 5.80328C11.0246 5.8442 11.0242 5.84516 10.9866 5.8157C10.9201 5.76356 10.9691 5.71856 11.0391 5.76752ZM21.7197 6.04796C22.1397 6.1841 22.7506 6.6938 22.7578 6.91406C22.758 6.92054 22.6626 6.8336 22.5458 6.72086C22.429 6.60818 22.3103 6.50492 22.282 6.49148C22.252 6.4772 22.2634 6.49388 22.309 6.53126C22.4964 6.68474 22.7733 7.14242 22.7143 7.20134C22.7 7.21562 22.6847 7.22282 22.6803 7.21718C22.6759 7.2116 22.6231 7.142 22.5628 7.06244C22.2665 6.67118 21.5886 6.28484 21.1934 6.28184C21.105 6.28118 21.0928 6.2375 21.1678 6.19064C21.2589 6.13376 21.5467 6.1574 21.8086 6.24314C21.8344 6.2516 21.8002 6.23132 21.7327 6.19814C21.6652 6.16496 21.5361 6.11996 21.4458 6.09818C21.2839 6.05918 21.2311 6.0107 21.334 5.99552C21.4059 5.9849 21.6114 6.01286 21.7197 6.04796ZM4.76018 6.59768C4.82978 6.67502 4.97642 6.82646 5.08598 6.93422C5.26988 7.11506 5.27618 7.12418 5.168 7.05332C4.99514 6.9401 4.68194 6.61478 4.54742 6.40874C4.40276 6.1871 4.39316 6.13316 4.53164 6.3197C4.58768 6.39524 4.69052 6.52034 4.76018 6.59768ZM21.2415 6.53018C21.715 6.63686 22.2592 7.0259 22.4612 7.40204C22.5786 7.62074 22.5251 7.69568 22.4009 7.4864C22.1487 7.06148 21.5333 6.6482 21.0757 6.59642C20.9258 6.57944 20.899 6.55934 20.9707 6.51752C21.0261 6.4853 21.0463 6.48626 21.2415 6.53018ZM21.0559 6.7559C21.0345 6.79778 20.967 6.91118 20.9061 7.00784C20.8452 7.1045 20.5077 7.65296 20.1561 8.22656C19.8045 8.80022 19.4614 9.35918 19.3936 9.4688C19.326 9.57836 19.1253 9.9053 18.9478 10.1953C18.3624 11.1516 17.8684 11.9377 17.6986 12.1831C17.5142 12.4495 17.5104 12.4609 17.5788 12.5344C17.6684 12.6306 17.8456 12.6324 17.9776 12.5383C18.0758 12.4684 18.1087 12.4905 18.1272 12.6384C18.1668 12.9562 18.4604 13.1227 18.6418 12.9303C18.682 12.8877 18.988 12.4157 19.3219 11.8815C20.405 10.1487 21.1645 8.9498 21.2068 8.9063C21.2493 8.86262 21.2475 8.86598 21.0818 9.15236C20.6364 9.92186 19.9612 11.0244 19.0965 12.3943C18.7018 13.0195 18.6709 13.0852 18.6835 13.2712L18.6914 13.3873L18.3047 13.6993C17.8314 14.0812 17.4071 14.4358 17.3886 14.4649C17.381 14.4769 17.3509 14.4519 17.3217 14.4093C17.2335 14.2811 17.1607 14.2408 16.9986 14.2305C16.9177 14.2254 16.8516 14.2142 16.8516 14.2058C16.8516 14.1974 16.8735 14.1116 16.9003 14.0152C16.9271 13.9188 17.0217 13.5506 17.1105 13.1971C17.2606 12.5998 17.2776 12.5484 17.3512 12.4705C17.4669 12.3482 17.6265 12.0981 18.4215 10.793C18.6178 10.4707 18.8599 10.0752 18.9594 9.91406C19.0588 9.75296 19.2804 9.38906 19.4517 9.1055C19.623 8.82188 19.7868 8.55296 19.8157 8.50784C19.8445 8.46272 19.9293 8.32562 20.004 8.20316C20.0787 8.0807 20.1792 7.9172 20.2275 7.83986C20.2757 7.76252 20.413 7.53578 20.5327 7.33598C20.9164 6.6953 20.9268 6.68198 21.0417 6.68042C21.0942 6.6797 21.0944 6.68078 21.0559 6.7559ZM21.2344 6.74036C21.2344 6.7778 20.8485 7.42964 20.313 8.29688C19.9797 8.83664 19.8622 9.02822 19.5589 9.52736C19.4023 9.78518 19.1913 10.128 19.0902 10.2891C18.9891 10.4502 18.8098 10.7403 18.6918 10.9336C18.3592 11.4785 18.1123 11.8623 18.1015 11.8515C18.0927 11.8428 18.4326 11.2563 18.5722 11.0391C18.6013 10.9939 18.681 10.8621 18.7493 10.7461C18.8177 10.6301 18.8968 10.4983 18.9252 10.4532C19.0374 10.2746 19.3546 9.75704 19.3992 9.6797C19.4253 9.63458 19.5339 9.4553 19.6405 9.2813C19.7472 9.10724 19.9179 8.82776 20.0199 8.66018C20.1218 8.4926 20.2927 8.21312 20.3996 8.03906C20.5065 7.86506 20.6605 7.61192 20.742 7.47656C20.8234 7.34126 20.9569 7.12772 21.0388 7.00214C21.1206 6.87662 21.1875 6.76322 21.1875 6.7502C21.1875 6.73724 21.1981 6.72656 21.211 6.72656C21.2238 6.72656 21.2344 6.7328 21.2344 6.74036ZM10.3008 6.83204C10.3008 6.8924 10.2794 6.90842 10.2539 6.8672C10.246 6.8543 10.2111 6.84362 10.1764 6.84344C10.1417 6.84326 10.0869 6.83594 10.0547 6.82718L9.99614 6.81128L10.0547 6.79472C10.1986 6.75398 10.3008 6.76952 10.3008 6.83204ZM21.303 6.96422C21.2587 7.04684 20.5393 8.24576 20.1798 8.83598C19.9953 9.13886 19.7835 9.48692 19.7092 9.60938C18.7978 11.1111 18.2891 11.9293 18.2301 11.9883C18.1843 12.0342 18.4724 11.552 19.3367 10.1367C19.5729 9.75002 19.8397 9.31232 19.9298 9.16406C20.0198 9.01586 20.1292 8.83652 20.1729 8.76566C20.2165 8.69474 20.3773 8.4311 20.5302 8.1797C21.1737 7.12142 21.3031 6.91406 21.32 6.91406C21.3254 6.91406 21.3177 6.93662 21.303 6.96422ZM4.6358 7.21706C5.68424 7.91786 7.3037 8.13668 8.47046 7.73516C8.67674 7.66418 8.6855 7.67912 8.48438 7.75874C7.5719 8.12006 6.64772 8.15318 5.70704 7.85834C5.219 7.70534 4.6055 7.33244 4.40414 7.0664L4.35092 6.99614L4.41962 7.05728C4.45742 7.09094 4.55468 7.16282 4.6358 7.21706ZM9.12698 7.34432C9.11192 7.38356 9.07034 7.39808 9.07034 7.36406C9.07034 7.34126 9.1226 7.28666 9.13376 7.29782C9.13814 7.3022 9.13508 7.32314 9.12698 7.34432ZM9.8024 7.3958C9.78776 7.47224 9.75884 7.44998 9.76484 7.36694C9.77156 7.27448 9.77192 7.27376 9.7937 7.3082C9.80444 7.32512 9.80834 7.36454 9.8024 7.3958ZM9.9692 7.37174C9.96194 7.39058 9.94706 7.40048 9.93608 7.39364C9.9251 7.38686 9.92204 7.36592 9.9293 7.34708C9.9365 7.32824 9.95144 7.31834 9.96236 7.32512C9.97334 7.3319 9.9764 7.3529 9.9692 7.37174ZM9.50504 7.38104C9.49766 7.39298 9.5102 7.40756 9.53294 7.4135C9.56438 7.42172 9.56162 7.4249 9.52148 7.427C9.46994 7.42964 9.4532 7.40624 9.4844 7.37504C9.50732 7.35212 9.52052 7.35596 9.50504 7.38104ZM10.2614 7.4414C10.2467 7.47368 10.2256 7.50002 10.2145 7.50002C10.2033 7.50002 10.2115 7.47368 10.2327 7.4414C10.2538 7.40918 10.2749 7.38284 10.2796 7.38284C10.2843 7.38284 10.276 7.40918 10.2614 7.4414ZM9.63458 7.46378C9.64622 7.45658 9.64964 7.4666 9.6422 7.48604C9.63152 7.51382 9.6221 7.51532 9.59804 7.49312C9.58118 7.47758 9.57356 7.45484 9.581 7.4426C9.58874 7.42988 9.59858 7.43246 9.60398 7.4486C9.60914 7.46414 9.62294 7.47098 9.63458 7.46378ZM9.5705 7.89596C9.54554 7.91666 9.494 7.98056 9.45596 8.03792C9.36206 8.1794 8.99966 8.55572 8.903 8.61212C8.82662 8.65664 8.87576 8.59874 9.43208 7.9886C9.51026 7.90286 9.58358 7.83848 9.59498 7.8455C9.60644 7.85252 9.5954 7.87526 9.5705 7.89596ZM9.62348 8.63906C9.55088 8.78996 9.4859 8.90774 9.47894 8.90084C9.47204 8.89388 9.52712 8.76614 9.60134 8.61698C9.67562 8.46782 9.74066 8.35004 9.74588 8.35526C9.7511 8.36048 9.69602 8.48822 9.62348 8.63906ZM16.3033 8.57102C16.535 8.71238 16.581 8.76098 16.391 8.66372C16.2652 8.59934 16.0312 8.43752 16.0639 8.43752C16.0753 8.43752 16.183 8.49758 16.3033 8.57102ZM10.0073 8.47856C10.006 8.52122 9.92006 8.60678 9.90422 8.58116C9.8951 8.56646 9.90416 8.54804 9.92432 8.5403C9.94448 8.53256 9.96098 8.51156 9.96098 8.49362C9.96098 8.47562 9.97148 8.46098 9.98438 8.46098C9.99728 8.46098 10.0076 8.46884 10.0073 8.47856ZM8.29688 8.53058C7.29278 9.30398 5.27384 9.37724 4.45316 8.67002L4.37114 8.59934L4.53518 8.6792C5.5565 9.17636 6.98732 9.14822 8.08526 8.60936C8.36258 8.47322 8.37956 8.46686 8.29688 8.53058ZM9.89414 8.6564C9.8819 8.67134 9.81722 8.78906 9.75044 8.918C9.60332 9.20174 9.61526 9.12254 9.76544 8.81858C9.8243 8.69948 9.88232 8.60816 9.89438 8.6156C9.908 8.62406 9.90794 8.63954 9.89414 8.6564ZM5.0993 8.68184C5.26634 8.73008 5.66858 8.807 5.95316 8.8451L6.19922 8.87804L6.03518 8.88026C5.74904 8.88422 4.94534 8.72144 4.94534 8.65952C4.94534 8.64182 4.97624 8.64632 5.0993 8.68184ZM8.5547 9.14822C8.5547 9.16178 8.1716 9.48086 8.03534 9.58076C7.4882 9.98204 6.68336 10.2705 6.1289 10.264C6.02708 10.2628 6.05768 10.251 6.36332 10.1734C7.18928 9.96362 7.7699 9.70022 8.3783 9.2591C8.53826 9.14312 8.5547 9.1328 8.5547 9.14822ZM14.0368 9.34262C14.0064 9.37928 13.659 9.65444 13.5996 9.68888C13.5123 9.73958 13.5976 9.65828 13.8059 9.49238C14.0381 9.3074 14.0986 9.26816 14.0368 9.34262ZM8.53838 9.96362C8.28746 10.5444 7.97114 11.0129 7.6535 11.2742C7.48724 11.4109 7.45892 11.4087 7.58864 11.2689C7.7159 11.1318 7.77644 11.0557 7.91138 10.8633L8.0264 10.6992L7.82768 10.8832C7.56614 11.1253 7.24448 11.3661 7.02272 11.4857C6.7937 11.6092 6.79766 11.5974 7.04882 11.4069C7.16162 11.3214 7.30136 11.2089 7.35938 11.157L7.46486 11.0625L7.3358 11.1183C7.1603 11.1942 6.85484 11.2884 6.72656 11.3063C6.63908 11.3185 6.65708 11.3075 6.83204 11.2415C7.60112 10.9515 8.05382 10.5997 8.4728 9.96656C8.6075 9.76298 8.62538 9.7622 8.53838 9.96362ZM6.89066 9.83012C6.89066 9.88094 6.21734 10.0331 6.01172 10.0287C5.90888 10.0266 5.92328 10.021 6.1289 9.98378C6.25784 9.96044 6.4688 9.91526 6.59768 9.8834C6.84362 9.82256 6.89066 9.81404 6.89066 9.83012ZM9.11864 10.8225C8.93648 11.5359 8.5904 12.2421 8.2715 12.5508C8.11082 12.7064 8.1116 12.7021 8.29268 12.4336C8.4842 12.1497 8.94794 11.1716 9.10754 10.7151C9.16904 10.5392 9.17534 10.6005 9.11864 10.8225ZM11.2741 10.9189C11.3596 11.1549 11.3967 11.3341 11.3852 11.456C11.3749 11.5652 11.3571 11.5207 11.3232 11.3018C11.3086 11.2078 11.2603 11.0179 11.2159 10.8799C11.1226 10.5902 11.1654 10.6189 11.2741 10.9189ZM8.3516 11.4082C8.22842 11.7037 8.02796 12.01 7.8359 12.196C7.66976 12.357 7.64978 12.3504 7.78838 12.1802C7.8794 12.0685 8.25404 11.5173 8.3381 11.3715C8.38442 11.2912 8.39192 11.3116 8.3516 11.4082ZM9.83372 11.9967C9.82094 12.222 9.76274 12.5092 9.72146 12.5508C9.70604 12.5663 9.70292 12.5505 9.71216 12.5039C9.7235 12.4468 9.78848 11.7211 9.79988 11.524C9.8015 11.4958 9.8126 11.5413 9.82448 11.625C9.83642 11.7088 9.84056 11.8761 9.83372 11.9967ZM10.1819 11.8309L10.2386 11.9976L10.1525 12.0247C10.1052 12.0396 10.0257 12.078 9.97586 12.11C9.92612 12.142 9.8894 12.1594 9.89438 12.1486C10.0001 11.919 10.0408 11.8726 10.0664 11.9532C10.0746 11.9789 10.0978 12 10.1181 12C10.1553 12 10.1514 11.8569 10.1098 11.6953C10.0802 11.5806 10.1262 11.667 10.1819 11.8309ZM14.4141 11.8617C13.898 11.9457 12.1841 12.2689 11.7246 12.369C11.6196 12.3919 11.6625 12.451 11.7715 12.4335C12.2921 12.3499 13.6848 12.0752 14.2852 11.9377C14.8929 11.7985 14.9272 11.7783 14.4141 11.8617ZM5.3555 12.0853C4.1651 12.2884 1.36748 12.8011 1.12976 12.8596C0.725663 12.9591 2.61212 12.6599 4.39454 12.3418C5.71226 12.1068 5.79194 12.0907 5.7824 12.0616C5.76914 12.0213 5.7113 12.0246 5.3555 12.0853ZM22.1953 12.0369C22.176 12.0413 21.9756 12.0776 21.75 12.1176C21.2238 12.2108 19.9085 12.4972 19.6934 12.5655C19.6515 12.5787 19.6172 12.6034 19.6172 12.6204C19.6172 12.6439 19.7049 12.6328 19.9863 12.5737C20.5908 12.4467 22.2921 12.0509 22.3105 12.033C22.3216 12.0222 22.2488 12.0247 22.1953 12.0369ZM22.5703 12.3985C22.524 12.4133 22.5215 12.4172 22.5586 12.4172C22.5844 12.4172 22.6318 12.4088 22.6641 12.3985C22.7105 12.3836 22.7129 12.3797 22.6758 12.3797C22.65 12.3797 22.6026 12.3882 22.5703 12.3985ZM13.6616 12.5507C12.863 12.6699 11.9297 12.8612 11.9297 12.9058C11.9297 12.9232 11.9476 12.9375 11.9694 12.9375C12.021 12.9375 14.1177 12.5151 14.1307 12.5021C14.1493 12.4835 14.0275 12.4962 13.6616 12.5507ZM17.2331 13.2488C17.0784 13.8477 17.0704 13.888 17.1575 13.6289C17.2324 13.4063 17.3742 12.8292 17.3625 12.795C17.3586 12.784 17.3004 12.9882 17.2331 13.2488ZM6.89066 12.9418C6.48548 13.0136 5.41868 13.2149 4.418 13.4084C2.9174 13.6985 2.48042 13.7863 1.91108 13.912C0.469403 14.2303 1.76978 14.0178 4.35938 13.5118C4.82258 13.4213 5.32286 13.3259 6.45704 13.1117C6.91544 13.0252 7.19534 12.9594 7.19534 12.9381C7.19534 12.8986 7.12958 12.8995 6.89066 12.9418ZM22.2891 12.9742C22.0893 13.0182 21.7149 13.1014 21.457 13.1592C21.1992 13.2171 20.6561 13.3387 20.25 13.4295C18.8296 13.7472 18.5462 13.8217 18.4869 13.8931C18.4619 13.9233 18.4645 13.9264 18.5041 13.914C18.5298 13.9059 18.6036 13.8892 18.668 13.8768C19.6402 13.691 22.9503 12.8823 22.6973 12.8925C22.6726 12.8934 22.4889 12.9302 22.2891 12.9742ZM7.96082 13.0263C7.74536 13.1068 7.72964 13.1353 7.70756 13.4856C7.69106 13.7473 7.64468 13.9446 7.59932 13.9458C7.5218 13.948 6.13736 14.2546 6.14966 14.2668C6.15458 14.2718 6.34064 14.2486 6.56312 14.2155C6.78554 14.1822 7.10054 14.1396 7.26308 14.1206C7.71842 14.0676 8.01878 13.9924 8.0105 13.9336C8.00462 13.8919 7.98926 13.8876 7.8698 13.8947L7.73564 13.9027L7.77362 13.7775C7.7945 13.7087 7.82366 13.6126 7.83842 13.564L7.8653 13.4756L7.92752 13.5405C8.01782 13.6348 8.05514 13.7437 8.07434 13.9688C8.08364 14.0784 8.1017 14.1877 8.11436 14.2118C8.13656 14.2539 8.12522 14.2549 7.81286 14.2385C7.35056 14.2142 7.16462 14.2152 7.1162 14.2423C7.08578 14.2593 7.12544 14.2636 7.25768 14.2575C7.37684 14.2521 7.51556 14.2644 7.65236 14.2927C7.87304 14.3385 7.87376 14.3445 7.66406 14.3877C7.48262 14.4251 6.827 14.5971 6.85628 14.5995C6.8696 14.6007 7.03832 14.5748 7.23128 14.542C7.42418 14.5092 7.71914 14.4777 7.88672 14.4719L8.1914 14.4613L7.93364 14.517C7.62158 14.5843 7.63382 14.5877 8.02736 14.5434C9.20048 14.4111 9.90734 14.2767 11.1438 13.9504C11.6448 13.8183 10.3605 13.9735 9.23738 14.181C8.62538 14.2939 8.65454 14.2939 8.54444 14.1812C8.46956 14.1045 8.4524 14.0686 8.4428 13.9684L8.43122 13.8478L8.62772 13.8644C8.84042 13.8824 8.8664 13.8896 8.7983 13.9118C8.48498 14.014 8.60876 14.0038 9.08552 13.8881C9.32852 13.8292 9.65918 13.749 9.82034 13.7099C10.2267 13.6113 10.993 13.3993 10.9821 13.3884C10.9772 13.3834 10.8588 13.3953 10.719 13.4148C10.5792 13.4342 10.3278 13.4617 10.1602 13.4758C9.78662 13.5072 9.38324 13.5725 8.91152 13.6779C8.71454 13.7218 8.54918 13.7578 8.54402 13.7578C8.53886 13.7578 8.51804 13.7744 8.49776 13.7947C8.44874 13.8437 8.44826 13.7716 8.49578 13.5016C8.51492 13.3929 8.52812 13.3025 8.52506 13.3007C8.43566 13.2465 8.33126 13.1653 8.23832 13.0773L8.12114 12.9664L7.96082 13.0263ZM12.3006 13.0158C12.0971 13.0612 11.9881 13.1016 12.0691 13.1016C12.1072 13.1016 12.5944 12.9828 12.6075 12.9703C12.6277 12.9509 12.5197 12.9669 12.3006 13.0158ZM12.7617 13.1502C12.3524 13.227 12.1875 13.2681 12.1875 13.2933C12.1875 13.3071 12.2158 13.3131 12.252 13.3069C12.3573 13.2891 13.0656 13.1204 13.0762 13.1106C13.0944 13.0938 12.9969 13.1061 12.7617 13.1502ZM13.3711 13.1972C12.7109 13.3106 12.3007 13.4066 12.2859 13.4511C12.2701 13.4982 12.4015 13.4788 13.0547 13.3377C14.1744 13.0957 14.3085 13.0363 13.3711 13.1972ZM11.8395 13.303C11.7834 13.3473 11.6743 13.4019 11.5971 13.4242C11.3879 13.4847 11.3233 13.6434 11.4131 13.8761C11.4403 13.9464 11.4688 14.0682 11.4765 14.1468L11.4905 14.2896L11.3058 14.3061C11.2042 14.3151 11.0314 14.3421 10.9219 14.3659L10.7227 14.4093L10.9219 14.4127C11.0314 14.4145 11.2108 14.4298 11.3203 14.4465L11.5195 14.4769L11.4258 14.5047C11.3742 14.5198 11.2899 14.5416 11.2383 14.5529C11.1656 14.5688 11.2155 14.5745 11.461 14.5781C11.6353 14.5807 11.7511 14.5903 11.7188 14.5996C11.6779 14.6113 11.7204 14.6211 11.8594 14.6319C11.9689 14.6405 12.1008 14.6631 12.1524 14.6821C12.2928 14.734 12.5903 14.73 12.6577 14.6754L12.7113 14.632L12.6585 14.5465C12.6294 14.4994 12.5612 14.4246 12.507 14.3802C12.4135 14.3036 12.4057 14.2872 12.3549 14.0617C12.2892 13.7709 12.009 13.1944 11.9458 13.2206C11.9434 13.2216 11.8956 13.2586 11.8395 13.303ZM18.1035 13.5521C17.9153 13.7354 17.7288 13.9279 17.689 13.9798C17.6143 14.0774 18.0928 13.6242 18.3379 13.3653C18.58 13.1094 18.4576 13.207 18.1035 13.5521ZM7.418 13.3047C7.14104 13.3386 6.29918 13.5024 5.81252 13.6171C5.59982 13.6672 5.38574 13.7154 5.33684 13.7241C5.28788 13.7329 5.25206 13.7442 5.25722 13.7494C5.28836 13.7806 7.52348 13.3453 7.52348 13.3081C7.52348 13.2976 7.51556 13.2907 7.5059 13.2926C7.49624 13.2945 7.45664 13.3 7.418 13.3047ZM18.1506 13.6545C17.9453 13.8423 17.7405 14.0337 17.6953 14.0799L17.6133 14.1637L17.6979 14.0955C18.1357 13.7428 18.5619 13.3509 18.5359 13.325C18.5293 13.3183 18.3559 13.4666 18.1506 13.6545ZM16.3125 13.4224C16.1729 13.437 15.5752 13.5518 15.5578 13.5673C15.5442 13.5795 16.2175 13.5674 16.6758 13.5472C16.7865 13.5424 16.7887 13.5411 16.7156 13.5238C16.6101 13.4988 16.5997 13.4821 16.6726 13.4544C16.7065 13.4415 16.7344 13.4253 16.7344 13.4185C16.7344 13.4055 16.4493 13.408 16.3125 13.4224ZM8.87768 13.4893C8.67458 13.5236 8.59274 13.5459 8.60924 13.5624C8.62562 13.5787 9.05468 13.4982 9.0809 13.4739C9.10676 13.4497 9.11732 13.449 8.87768 13.4893ZM7.16462 13.5495C6.71876 13.6167 6.11072 13.7371 4.6289 14.0513C4.2293 14.1361 3.81848 14.2227 3.716 14.2437C3.39272 14.3101 3.5615 14.3014 4.05254 14.2263C4.75214 14.1193 6.52562 13.7836 7.10156 13.6491C7.47116 13.5628 7.52348 13.5471 7.52348 13.5226C7.52348 13.4948 7.53068 13.4943 7.16462 13.5495ZM12.832 13.5813C12.4623 13.6473 12.3985 13.6632 12.3985 13.6895C12.3985 13.7119 12.4296 13.7073 12.8203 13.6262C13.3343 13.5195 13.3419 13.4904 12.832 13.5813ZM10.5586 13.687C9.6035 13.8125 9.04268 13.9416 8.771 14.0985L8.70704 14.1354L8.78906 14.1217C8.83418 14.1141 8.98712 14.0919 9.1289 14.0723C9.59822 14.0076 10.0363 13.9198 10.5938 13.7791C11.3515 13.5877 11.3498 13.5832 10.5586 13.687ZM11.6485 13.7403C11.683 13.7874 11.6887 13.8037 11.6634 13.7832C11.625 13.752 11.5668 13.6641 11.5846 13.6641C11.5891 13.6641 11.6179 13.6984 11.6485 13.7403ZM7.4414 13.7501C7.01564 13.8027 5.62148 14.0687 5.70716 14.081C5.80874 14.0955 7.52348 13.7869 7.52348 13.754C7.52348 13.7432 7.52084 13.736 7.5176 13.7379C7.51436 13.7398 7.4801 13.7453 7.4414 13.7501ZM20.3438 13.9018C18.8973 14.2042 18.2163 14.3911 17.6439 14.6425C17.3019 14.7928 17.3335 14.7909 17.8862 14.6277C18.1486 14.5503 18.6428 14.4122 18.9844 14.3208C19.5946 14.1574 20.6142 13.8791 20.6602 13.8633C20.7352 13.8376 20.5333 13.8621 20.3438 13.9018ZM11.8157 14.1063C11.8804 14.1835 12.0606 14.5547 12.0333 14.5547C12.0283 14.5547 11.9977 14.5024 11.9654 14.4386L11.9065 14.3225L11.7482 14.3155L11.5899 14.3086L11.5824 14.2037C11.5627 13.9266 11.6383 13.8951 11.8157 14.1063ZM23.0157 14.1205C22.7818 14.1677 22.4502 14.2489 21.6965 14.4435C21.5961 14.4694 21.5187 14.4952 21.5242 14.5008C21.5405 14.5171 22.3594 14.3498 22.7578 14.2489C23.4325 14.0779 23.5726 14.0082 23.0157 14.1205ZM10.7695 14.2031C10.5235 14.2405 10.0662 14.3355 9.8555 14.3931C9.75056 14.4217 10.0831 14.3936 10.4629 14.3416C10.7648 14.3004 11.2969 14.1883 11.2969 14.166C11.2969 14.1444 11.0344 14.1629 10.7695 14.2031ZM16.8649 14.4276C16.8474 14.4977 16.6368 14.9571 16.6269 14.9472C16.6232 14.9435 16.6564 14.8312 16.7007 14.6976C16.745 14.564 16.7813 14.4411 16.7813 14.4246C16.7813 14.3964 16.8141 14.3733 16.86 14.3691C16.8711 14.368 16.8733 14.3944 16.8649 14.4276ZM19.5703 14.6005C18.9682 14.8 18.7942 14.8539 18.293 14.9953C18.0223 15.0718 17.7706 15.1415 17.7336 15.1503C17.6966 15.1591 17.6703 15.1703 17.6751 15.1751C17.7033 15.2033 18.6261 14.9391 19.418 14.676C19.7274 14.5731 19.9647 14.4888 19.9453 14.4885C19.926 14.4882 19.7572 14.5386 19.5703 14.6005ZM4.45316 14.8113C1.96934 15.0202 0.526283 16.5244 1.69682 17.6843C2.25158 18.234 3.87056 18.5675 3.97448 18.1534C4.01252 18.002 3.87818 17.8936 3.58094 17.8361C2.74934 17.675 2.27426 17.3256 2.17838 16.8045C1.92008 15.4 5.47982 14.626 6.61514 15.8398C7.06634 16.3221 6.90026 17.0379 6.22952 17.5015C5.98934 17.6676 5.31344 18 5.216 18C5.1857 18 4.93412 17.1235 4.89902 16.8956C4.83734 16.4955 4.99328 16.2657 5.3264 16.2657C5.66258 16.2657 5.7527 15.9673 5.447 15.8665C5.02382 15.7268 4.41974 15.9981 4.22978 16.413C4.06178 16.7799 4.07558 16.8963 4.49654 18.668C5.02808 20.9048 5.0549 21.1126 4.8584 21.4736C4.55012 22.04 3.53348 22.2653 2.62052 21.9696C1.89518 21.7345 1.79126 21.1398 2.4467 20.9748C2.6426 20.9254 2.7104 20.7491 2.5889 20.6047C2.48606 20.4825 2.30594 20.4307 1.9805 20.4297C0.529223 20.4255 0.259223 21.8379 1.58522 22.4974C2.98022 23.1913 5.0315 22.8335 5.7233 21.7756C6.03758 21.2951 6.02666 20.9874 5.64656 19.6086C5.35784 18.5613 5.33474 18.4684 5.35748 18.4457C5.39372 18.4095 5.93882 18.3518 6.38672 18.3369C8.099 18.2799 9.29474 18.855 9.29234 19.7344C9.29006 20.5459 8.32886 21.0438 6.8633 20.9925C6.40922 20.9766 6.44948 20.9566 6.35102 21.2477C6.23132 21.6019 6.25262 21.6391 6.5981 21.6786C8.33624 21.8778 10.0858 21.084 10.2561 20.0189C10.2762 19.8931 10.288 19.8973 10.3645 20.0578C10.7308 20.8254 11.5242 20.9055 12.1919 20.2423C12.6211 19.8159 12.6802 19.6073 12.4092 19.4761C12.2151 19.3822 12.1297 19.4196 11.9677 19.6695C11.8149 19.9051 11.6951 20.0308 11.5683 20.0884C11.0375 20.3295 10.8583 19.5156 11.098 17.9532C11.3825 16.0989 11.3143 15.3354 10.8393 15.057C10.431 14.8177 10.3114 15.0126 10.1839 16.125C10.1065 16.8003 10.0743 18.7761 10.1365 19.0313C10.1505 19.0884 10.1495 19.0882 10.0969 19.021C9.611 18.4006 9.10358 18.1166 8.2112 17.9654C7.86476 17.9067 7.07678 17.8479 6.83672 17.8628C6.68444 17.8723 6.67448 17.863 6.77366 17.8044C7.22672 17.5368 7.6355 16.9965 7.68512 16.5998C7.82606 15.4731 6.34286 14.6523 4.45316 14.8113ZM2.30864 14.8594C2.24546 14.8755 2.24426 14.8773 2.29688 14.8777C2.3291 14.878 2.38184 14.8697 2.41406 14.8594C2.49284 14.8342 2.40776 14.8342 2.30864 14.8594ZM19.957 15.0345C18.9822 15.2337 18.2578 15.4193 18.2578 15.4699C18.2578 15.4827 18.2815 15.4879 18.3106 15.4816C18.3396 15.4753 18.5163 15.4375 18.7032 15.3976C19.3717 15.2548 20.6147 14.9466 20.6465 14.9157C20.6697 14.8933 20.5311 14.9172 19.957 15.0345ZM14.2149 15.0733C14.1633 15.0834 13.8786 15.139 13.582 15.1968C13.2856 15.2547 12.7213 15.3715 12.3282 15.4566C11.935 15.5416 11.5843 15.6174 11.5488 15.6249C11.5057 15.6342 11.4844 15.6535 11.4844 15.6837C11.4844 15.7375 11.4592 15.741 12.1407 15.5947C12.4049 15.538 12.8215 15.4487 13.0664 15.3962C13.6683 15.2673 14.2803 15.1171 14.3071 15.0918C14.3418 15.0589 14.3156 15.0536 14.2149 15.0733ZM20.9883 15.6378C20.8301 15.6775 20.0232 15.8673 19.6641 15.9493C18.8916 16.1257 18.5628 16.2159 18.6834 16.2181C18.7047 16.2184 19.0475 16.1397 19.4451 16.0429C19.8427 15.9462 20.3631 15.8196 20.6016 15.7615C20.8401 15.7035 21.0668 15.6464 21.1055 15.6347C21.2023 15.6054 21.1075 15.6079 20.9883 15.6378ZM17.9613 15.7911L17.7539 15.9024L17.1984 15.8959C15.5553 15.8769 14.7058 16.5113 15.0267 17.5177L15.0709 17.6565L15.0207 17.71L14.9704 17.7634L14.8831 17.6298C14.4732 17.003 13.6059 16.7575 12.7551 17.0274C11.6295 17.3844 11.4492 18.6773 12.4303 19.3556C13.4536 20.063 14.9446 19.615 15.1247 18.5461C15.1519 18.3846 15.1555 18.3785 15.2814 18.2809C15.3522 18.2259 15.4278 18.159 15.4494 18.1321C15.4862 18.0863 15.4913 18.0857 15.5318 18.1224C15.799 18.3642 16.5307 18.4519 16.9801 18.2959C17.3447 18.1695 17.7271 17.8897 17.9754 17.5679C18.0306 17.4965 18.0823 17.4423 18.0906 17.4474C18.1694 17.4968 18.7792 18.801 18.7494 18.8566C18.6627 19.0187 18.2284 19.2741 17.8945 19.3594C17.368 19.494 16.951 19.4436 16.4209 19.181C16.0861 19.0152 15.9139 19.0135 15.8303 19.1753C15.7482 19.3341 15.8779 19.4898 16.2432 19.671C16.962 20.0277 17.9716 19.9888 18.763 19.5741L18.9375 19.4827V19.6647C18.9375 20.5715 17.9799 21.2341 16.3125 21.4812C15.5524 21.5938 14.887 21.5499 13.4297 21.2913C12.495 21.1253 12.0062 21.1045 11.5078 21.2093C10.8041 21.3573 10.3039 21.8953 10.4521 22.3447C10.5766 22.7219 11.1219 22.7213 11.0748 22.344C11.043 22.0897 11.151 21.9163 11.4216 21.787C11.8591 21.5778 12.3399 21.5965 13.5567 21.87C15.0777 22.2118 16.1145 22.2303 17.3203 21.937C19.3569 21.4419 20.2116 20.3769 19.756 18.9018L19.7099 18.7526L19.8294 18.6241C20.466 17.9403 20.5713 17.265 20.1172 16.7796C19.7186 16.3534 19.1926 16.5541 19.5722 16.9876C19.7975 17.245 19.7884 17.6176 19.5477 17.9871C19.4236 18.1776 19.44 18.1818 19.3034 17.9236C19.2404 17.8045 19.1073 17.5594 19.0075 17.3789C18.2877 16.0764 18.339 16.179 18.3981 16.1603C18.5362 16.1164 18.5847 15.8998 18.4814 15.7884C18.3501 15.6467 18.2289 15.6473 17.9613 15.7911ZM9.38672 15.9038C8.89106 16.0027 8.01158 16.1891 7.95158 16.2079C7.9355 16.213 7.9292 16.2339 7.93736 16.2552C7.95578 16.3032 8.01572 16.2954 8.60156 16.1684C9.79436 15.9099 10.0078 15.8569 10.0078 15.8197C10.0078 15.7843 9.93908 15.7936 9.38672 15.9038ZM22.418 15.8802C21.8538 16.0311 21.3892 16.1704 21.4034 16.1847C21.4174 16.1987 22.1719 15.9985 22.4532 15.906C22.7392 15.8119 22.7216 15.799 22.418 15.8802ZM13.3594 15.9484C12.949 16.0254 11.7826 16.2705 11.6216 16.3136C11.5171 16.3416 11.4801 16.4063 11.5686 16.4063C11.6923 16.4063 13.8333 15.914 13.873 15.8764C13.8958 15.8549 13.7447 15.8761 13.3594 15.9484ZM3.90236 16.2812C3.87656 16.2868 3.6182 16.3384 3.32816 16.396C2.78078 16.5047 2.43722 16.588 2.52134 16.5916C2.62376 16.5961 3.99542 16.3093 4.02812 16.2766C4.04084 16.2639 3.97064 16.2664 3.90236 16.2812ZM22.6407 16.3817C21.8168 16.5543 20.5313 16.8927 20.5313 16.9371C20.5313 16.9988 21.4754 16.7775 22.5586 16.4617C23.1551 16.2879 23.1733 16.2702 22.6407 16.3817ZM17.6679 16.5117C17.9442 17.3439 16.3789 18.2049 15.9796 17.4403C15.725 16.9531 16.1755 16.5382 17.0508 16.454C17.6472 16.3966 17.629 16.3948 17.6679 16.5117ZM5.89454 16.5131C5.44574 16.5949 5.1329 16.6686 5.1458 16.6895C5.1599 16.7124 5.24642 16.6998 5.66018 16.6143C6.32288 16.4773 6.49274 16.404 5.89454 16.5131ZM9.82034 16.7043C9.48452 16.7641 8.00954 17.0731 7.74638 17.1388C7.61582 17.1714 7.55918 17.2528 7.6805 17.2335C7.86746 17.2036 8.29784 17.1153 8.80082 17.0036C9.7661 16.7892 9.89066 16.7568 9.89066 16.7207C9.89066 16.7025 9.88802 16.689 9.88478 16.6907C9.88154 16.6924 9.85256 16.6986 9.82034 16.7043ZM3.70316 16.9019C3.64514 16.9139 3.38252 16.9664 3.1196 17.0186C2.58404 17.1249 2.52062 17.1426 2.5835 17.1679C2.64548 17.193 3.78458 16.9847 3.86816 16.933C3.95222 16.8811 3.8744 16.8664 3.70316 16.9019ZM19.1191 16.9621C19.054 16.972 19.0355 17.001 19.0777 17.0271C19.1067 17.045 19.2891 16.9915 19.2891 16.9651C19.2891 16.9452 19.2372 16.9443 19.1191 16.9621ZM0.870143 17.3092C0.633743 17.3767 0.599123 17.4025 0.773483 17.3813C1.01756 17.3516 1.1738 17.3143 1.1651 17.2878C1.15094 17.2449 1.07696 17.2503 0.870143 17.3092ZM5.9414 17.4403C5.31908 17.5519 4.92146 17.6749 5.25254 17.6535C5.44598 17.641 6.0938 17.472 6.0938 17.4341C6.0938 17.4231 6.08588 17.4153 6.07622 17.4167C6.0665 17.4181 6.0059 17.4288 5.9414 17.4403ZM13.7042 17.5443C14.2219 17.7975 14.4173 18.5557 14.0575 18.9156C13.6107 19.3623 12.7605 18.8897 12.7087 18.1659C12.67 17.6247 13.1964 17.2961 13.7042 17.5443ZM1.69922 18.1743C1.38428 18.2562 1.21412 18.3079 1.2248 18.3186C1.23734 18.3311 1.697 18.2662 1.90832 18.2221C1.99958 18.2031 2.08478 18.1867 2.09768 18.1858C2.12498 18.1837 1.9685 18.1211 1.93364 18.1201C1.92074 18.1198 1.81526 18.1442 1.69922 18.1743ZM6.42188 18.495C6.23546 18.5164 5.76968 18.6042 5.73776 18.6239C5.71208 18.6397 5.71358 18.7032 5.73962 18.7032C5.81486 18.7032 6.6782 18.5016 6.70112 18.4786C6.71396 18.4658 6.63782 18.4702 6.42188 18.495ZM11.3848 18.5108C11.3107 18.5314 11.25 18.5614 11.25 18.5774C11.25 18.5989 11.2923 18.5947 11.4138 18.561C11.5039 18.5361 11.583 18.5157 11.5896 18.5157C11.5962 18.5157 11.6016 18.5051 11.6016 18.4922C11.6016 18.461 11.5469 18.4657 11.3848 18.5108ZM21.4843 18.6021C21.4221 18.6211 21.375 18.6406 21.3799 18.6455C21.3894 18.655 21.6616 18.588 21.6778 18.5721C21.6978 18.5524 21.5939 18.5685 21.4843 18.6021ZM3.83204 18.996C3.56132 19.0516 3.18692 19.1295 3.00002 19.1692C2.81312 19.2089 2.5106 19.2728 2.32778 19.3112C1.46582 19.4922 0.616763 19.7027 0.642923 19.7289C0.682223 19.7682 4.25762 19.0217 4.32104 18.961C4.38866 18.8962 4.2815 18.9039 3.83204 18.996ZM21 19.0635C20.3338 19.2342 20.086 19.3128 20.086 19.3533C20.086 19.3933 20.1318 19.3854 20.4844 19.2853C20.7962 19.1967 21.5157 18.9612 21.5157 18.9477C21.5157 18.9316 21.5067 18.9337 21 19.0635ZM7.51172 19.4571C6.78992 19.6308 6.49088 19.7134 6.72656 19.674C6.8621 19.6514 7.68752 19.4498 7.68752 19.4394C7.68752 19.4248 7.61636 19.4319 7.51172 19.4571ZM8.83598 19.5269C8.19188 19.6606 7.1939 19.9059 6.8438 20.0166C6.59348 20.0956 7.35992 19.9447 7.93364 19.8019C8.27612 19.7166 8.9846 19.5218 8.99804 19.5091C9.01226 19.4959 8.95598 19.502 8.83598 19.5269ZM20.9063 19.9938C20.8225 20.0184 20.6403 20.0718 20.5013 20.1124C20.3623 20.153 20.2531 20.1907 20.2586 20.1961C20.2683 20.2058 21.0958 19.9723 21.1153 19.9543C21.1362 19.935 21.0519 19.9509 20.9063 19.9938ZM14.7774 19.9922C14.7478 20.0049 14.7435 20.0124 14.7657 20.0124C14.785 20.0124 14.8219 20.0033 14.8477 19.9922C14.8772 19.9795 14.8816 19.972 14.8594 19.972C14.8401 19.972 14.8032 19.9811 14.7774 19.9922ZM2.44922 20.0971C2.29208 20.1375 2.36582 20.139 2.543 20.0991C2.62034 20.0816 2.65724 20.0673 2.62502 20.0672C2.5928 20.0671 2.51372 20.0806 2.44922 20.0971ZM14.0742 20.6485C14.0447 20.6611 14.0404 20.6686 14.0625 20.6686C14.0818 20.6686 14.1188 20.6595 14.1445 20.6485C14.1741 20.6358 14.1784 20.6283 14.1563 20.6283C14.1369 20.6283 14.1 20.6374 14.0742 20.6485ZM18.0352 20.6836C17.932 20.7126 17.642 20.7969 17.3907 20.8709C17.1393 20.9448 16.8598 21.0257 16.7695 21.0505C16.4528 21.1379 15.8557 21.3356 15.8819 21.3445C16.0065 21.3871 17.719 20.8931 18.1289 20.6964C18.2968 20.6158 18.2825 20.6139 18.0352 20.6836ZM13.8985 20.6944C13.8663 20.7048 13.7739 20.732 13.6932 20.7549C13.6126 20.7778 13.5507 20.8007 13.5557 20.8057C13.5653 20.8153 13.9969 20.6983 14.0137 20.6816C14.029 20.6664 13.963 20.6737 13.8985 20.6944ZM15.0502 21.0363C14.8007 21.1051 14.5897 21.1686 14.5815 21.1773C14.5732 21.1861 14.5875 21.1875 14.6133 21.1804C14.6391 21.1734 14.6971 21.1606 14.7422 21.1522C14.8417 21.1335 15.5703 20.9287 15.584 20.9156C15.6118 20.8891 15.4605 20.9233 15.0502 21.0363ZM3.98438 21.5748C3.67262 21.6619 3.56882 21.6982 3.62438 21.7008C3.68636 21.7037 4.09724 21.5982 4.20116 21.5528C4.3217 21.5001 4.21166 21.5112 3.98438 21.5748ZM13.0899 22.0062C12.472 22.1655 11.273 22.5543 11.304 22.5852C11.3422 22.6234 13.2416 22.0548 13.3502 21.9726C13.411 21.9265 13.3859 21.9298 13.0899 22.0062ZM6.4688 22.0009C6.43652 22.0064 6.27308 22.0429 6.1055 22.0819C5.93792 22.121 5.76878 22.1556 5.7296 22.1587C5.69024 22.162 5.60648 22.2043 5.5421 22.2535C5.47814 22.3025 5.44688 22.3365 5.47268 22.329C5.49848 22.3215 5.6936 22.2679 5.9063 22.21C6.52142 22.0423 6.7748 21.9481 6.4688 22.0009ZM9.64454 22.1946C8.6639 22.4582 7.35338 22.852 7.30502 22.8977C7.2365 22.9623 9.0029 22.4776 9.76334 22.2231C10.2715 22.053 10.2187 22.0403 9.64454 22.1946ZM14.5195 22.4709C14.2411 22.558 14.0794 22.6157 14.1456 22.6044C14.2412 22.588 14.7166 22.4344 14.6719 22.4343C14.6526 22.4342 14.584 22.4507 14.5195 22.4709Z"/>
</svg>
