<svg width="24" height="24" viewBox="0 0 24 24" fill="none" xmlns="http://www.w3.org/2000/svg">
<path fill-rule="evenodd" clip-rule="evenodd" d="M7.97025 0.068656C6.95453 0.103797 5.46736 0.147752 4.66547 0.166308C2.18957 0.223542 1.67564 0.30548 0.901714 0.766021C-0.179033 1.40923 -0.28015 2.23654 0.554579 3.60558C1.40806 5.00513 1.60812 5.50197 2.00219 7.20114L2.221 8.14431L1.86162 8.36896C1.19325 8.78676 1.20246 9.23704 1.8807 9.29097C1.99558 9.30013 2.08965 9.32936 2.08965 9.35598C2.08965 9.38259 2.19218 9.40439 2.31757 9.40439C2.53422 9.40439 2.5276 9.41443 2.1861 9.60654C1.38118 10.0593 1.59989 10.7625 2.62428 11.0152C2.90595 11.0847 3.03546 11.1003 3.45044 11.1141C3.76474 11.1246 3.38618 12.4019 2.96296 12.7588C2.5289 13.125 2.44426 13.2394 2.44361 13.461C2.44329 13.5896 2.5043 13.7535 2.57908 13.825C2.68356 13.9249 2.71586 14.2142 2.71824 15.0731C2.72182 16.3085 2.75303 16.3825 3.4511 16.8079C3.83248 17.0403 3.84993 16.9579 3.02365 18.8291C1.494 22.2934 1.56618 22.0319 2.12953 22.0651C2.47071 22.0851 2.46529 22.0918 3.09605 20.846C3.3929 20.2596 3.88277 19.3234 4.18449 18.7657C4.48622 18.2079 4.80745 17.5994 4.89827 17.4135L5.06355 17.0755L6.8571 17.0698C8.43671 17.0648 9.71622 17.1082 9.83295 17.1706C9.85419 17.182 9.71763 18.1014 9.52927 19.2137C9.0808 21.8629 9.02683 22.205 8.84844 23.533C8.80108 23.8851 8.85278 23.9331 9.33983 23.9887C9.53729 24.0113 9.67374 23.9999 9.7379 23.9557C9.8336 23.8897 10.2604 22.0958 10.6448 20.1439C10.7518 19.6004 10.9246 18.7228 11.0288 18.1936C11.1329 17.6645 11.2462 17.0777 11.2803 16.8897C11.3425 16.5484 11.343 16.548 11.649 16.5466C11.8176 16.5459 12.3054 16.5298 12.733 16.5108C13.1607 16.4919 13.9745 16.4639 14.5413 16.4485L15.5721 16.4206L15.6391 16.956C15.7374 17.7417 15.7914 18.1325 15.8459 18.4536C15.9194 18.8859 16.0697 19.9721 16.141 20.586C16.2435 21.4694 16.2595 21.4931 16.7609 21.5124L17.1847 21.5288L17.1323 18.9571L17.0799 16.3854L17.62 16.3274C18.0792 16.278 19.6829 16.243 19.6829 16.2824C19.6829 16.2895 19.9036 16.8687 20.1733 17.5695C20.7083 18.9592 21.5407 21.2046 21.9738 22.4256C22.1263 22.8557 22.3114 23.2331 22.3908 23.2756C22.5323 23.3512 23.0456 23.3351 23.1939 23.2503C23.3504 23.161 21.3551 15.8236 21.0093 15.2167C20.8364 14.9132 20.4647 14.5685 20.1295 14.401C19.7732 14.2229 19.8023 14.2035 20.4848 14.165C23.2492 14.009 24.7396 13.3699 23.6317 12.8156C23.0732 12.5362 22.6625 11.3775 22.5425 9.74241C22.4528 8.52066 22.6746 8.00288 23.2885 8.00097C23.769 7.99946 24.0658 7.63512 23.7139 7.4789C23.4315 7.35341 21.5354 7.48725 18.8822 7.81981C16.863 8.07293 15.892 8.1562 14.9584 8.1562H14.1474L14.194 8.0132C14.2196 7.93451 14.3288 7.23825 14.4366 6.46596C14.79 3.93658 15.0003 2.90039 15.3712 1.86333C15.9868 0.141837 14.7215 -0.164978 7.97025 0.068656ZM13.9373 0.904323C14.3505 1.09029 14.3817 1.26576 14.1551 2.12747C13.7899 3.51541 13.582 4.69257 13.3655 6.59597C13.3085 7.09653 13.2425 7.57632 13.2188 7.66214C13.1951 7.74796 13.1504 7.93515 13.1196 8.07821C12.9646 8.79697 12.6091 9.24162 11.9353 9.55917L11.4695 9.77865L11.4104 7.8883C11.3515 6.0085 11.3098 5.43209 11.1209 3.89158C11.0065 2.95867 10.7648 1.45486 10.6853 1.18151L10.6308 0.993741L11.5361 0.887274C12.8616 0.731402 13.5643 0.736389 13.9373 0.904323ZM10.0617 1.07023C10.0627 1.09168 10.1045 1.31987 10.1548 1.57727C10.7364 4.55525 11.1818 9.73365 10.8653 9.83699C10.8233 9.85067 10.5048 9.87804 10.1572 9.89782L9.52548 9.93377L9.51204 7.49775C9.4986 5.04415 9.39315 1.56266 9.32314 1.25573C9.2916 1.11784 9.32151 1.08652 9.50261 1.06779C9.87782 1.02906 10.06 1.02981 10.0617 1.07023ZM8.70668 1.22621C8.7108 1.27626 8.72912 1.3593 8.74732 1.41073C8.76564 1.46211 8.80997 2.09401 8.84573 2.81492C8.8816 3.53582 8.92517 4.17595 8.94262 4.23742C8.96018 4.29889 9.00635 5.61267 9.04547 7.15701L9.11646 9.96485L8.81062 9.99663C8.64252 10.0141 8.3693 10.0426 8.20348 10.0597L7.90219 10.091L7.97155 8.12245C8.03018 6.45611 7.90696 2.90775 7.77777 2.54342C7.69963 2.32306 7.61596 1.24147 7.67329 1.19189C7.79056 1.09035 8.69801 1.12056 8.70668 1.22621ZM4.09952 1.81131C4.53293 4.07546 4.70308 9.00596 4.34955 9.05867C4.25602 9.07265 4.08077 9.09926 3.96015 9.11782C3.58852 9.17499 3.37198 8.80509 3.20204 7.82283C2.89078 6.02438 2.60585 5.16088 1.87864 3.81191C0.85728 1.91714 1.29014 1.17658 3.40189 1.20528L3.98507 1.21323L4.09952 1.81131ZM5.55775 2.56539C6.02443 5.54273 6.07873 5.94581 6.1702 7.11932C6.22244 7.78972 6.25701 8.75951 6.24693 9.27433C6.23685 9.7892 6.21593 9.97645 6.20054 9.69039C6.15925 8.92547 6.16835 8.93632 5.56274 8.93632H5.05423L5.05314 6.55695C5.05238 5.06068 5.00632 3.90741 4.92894 3.44954C4.86131 3.04907 4.76095 2.4406 4.70612 2.09737C4.65117 1.75408 4.58267 1.40743 4.55395 1.327C4.50236 1.18307 4.50811 1.18104 4.92374 1.19699L5.34587 1.21323L5.55775 2.56539ZM7.23035 2.31836C7.51235 4.84862 7.6268 8.35116 7.46911 9.62539L7.40636 10.1325H7.09347H6.78058L6.71252 8.53324C6.67513 7.65368 6.62853 6.84039 6.60891 6.72598C6.5894 6.61157 6.54551 6.21371 6.51159 5.8419C6.47756 5.47002 6.38901 4.70939 6.31477 4.15166C6.24053 3.59387 6.13465 2.79816 6.07938 2.38337C6.0241 1.96864 5.95398 1.52984 5.92364 1.40824L5.86858 1.18725H6.48644H7.10431L7.23035 2.31836ZM21.5923 8.26157C21.2533 9.16879 21.3063 10.5427 21.729 11.7986C21.9646 12.4988 22.035 12.4508 20.9283 12.3453C16.7761 11.9497 8.67504 12.06 6.09368 12.5472C5.62289 12.6361 5.67187 12.6826 5.49489 11.9787C5.43734 11.7499 5.32691 11.4344 5.24952 11.2777C5.09801 10.9712 5.13833 10.9109 5.5015 10.9007C5.62971 10.8971 5.77841 10.8782 5.83184 10.8587C5.91432 10.8286 6.25321 10.8099 6.94965 10.7971C7.02985 10.7956 7.14137 10.7752 7.19741 10.7518C7.25344 10.7284 7.77831 10.6933 8.36377 10.6739C8.94923 10.6544 9.47205 10.6213 9.52548 10.6002C9.57891 10.5791 9.93916 10.5502 10.326 10.5361C10.7128 10.5221 11.0845 10.487 11.1521 10.4583C11.2198 10.4296 11.4391 10.3903 11.6396 10.3709C11.84 10.3516 12.0041 10.3135 12.0041 10.2862C12.0041 10.2589 12.0697 10.2365 12.1499 10.2365C12.2301 10.2365 12.2956 10.2131 12.2956 10.1845C12.2956 10.1559 12.3516 10.1325 12.4198 10.1325C12.7272 10.1325 13.6858 9.32727 13.9902 8.81338C14.04 8.72947 14.1162 8.7206 14.5567 8.74733C14.8368 8.76438 15.3283 8.75591 15.6491 8.7286C17.6515 8.55817 18.0994 8.51405 18.2734 8.46974C18.4597 8.42237 18.7427 8.39366 20.3633 8.25745C20.7642 8.22376 21.1579 8.17621 21.2381 8.15179C21.538 8.0604 21.6541 8.09642 21.5923 8.26157ZM5.61769 10.2376C5.57509 10.258 5.39562 10.2892 5.21885 10.3069L4.8974 10.3391L4.93349 9.97674C4.95322 9.77749 4.98855 9.60718 5.01185 9.59831C5.03515 9.58949 5.18547 9.55911 5.34587 9.53087L5.63741 9.47949L5.66635 9.83994C5.68217 10.0382 5.66028 10.2172 5.61769 10.2376ZM4.5183 9.72942C4.51765 9.7652 4.48925 9.84998 4.45522 9.91788L4.39344 10.0414L4.27737 9.8919C4.19392 9.78451 4.19121 9.73168 4.26751 9.70419C4.42639 9.64713 4.51981 9.65653 4.5183 9.72942ZM3.19652 10.1016C3.22881 10.1705 3.28192 10.2641 3.31465 10.3096C3.40471 10.4353 2.99461 10.4158 2.86726 10.2885C2.79335 10.2146 2.79335 10.1544 2.86726 10.0805C3.0062 9.9416 3.12499 9.94919 3.19652 10.1016ZM4.92103 14.3782L5.1315 14.4981L4.71359 15.3447C4.25504 16.2738 4.18666 16.3546 4.03731 16.1444C3.93771 16.0044 3.89089 14.3348 3.98507 14.2844C4.12813 14.2078 4.72736 14.2679 4.92103 14.3782ZM18.0305 14.5531C18.0305 14.5817 18.0878 14.6051 18.1578 14.6051C18.5453 14.6051 19.2952 15.2192 19.444 15.6582L19.5101 15.8533H19.028C18.7628 15.8533 18.2111 15.8684 17.8021 15.8869L17.0585 15.9205V15.2108V14.5011H17.5445C17.8118 14.5011 18.0305 14.5245 18.0305 14.5531ZM9.91434 14.7916L10.1873 14.917L10.1267 15.5802C10.0932 15.9449 10.0375 16.3519 10.0027 16.4845L9.93948 16.7257L7.69129 16.6988C6.45469 16.684 5.42694 16.6643 5.40721 16.6552C5.36852 16.637 6.13096 15.0073 6.25484 14.8435C6.33753 14.7342 6.36961 14.7306 7.77582 14.6717C9.13369 14.615 9.5853 14.6403 9.91434 14.7916ZM15.3466 15.1537C15.383 15.4554 15.4374 15.7682 15.4675 15.8487L15.5223 15.9952L14.5651 16.0277C14.0387 16.0455 13.1441 16.0751 12.5773 16.0933L11.5466 16.1265L11.5567 15.3932L11.5667 14.6599L12.2956 14.6752C12.6966 14.6836 13.1559 14.6737 13.3162 14.6531C13.4766 14.6325 13.9842 14.6134 14.444 14.6104L15.2803 14.6051L15.3466 15.1537Z" />
</svg>
