<svg width="24" height="24" viewBox="0 0 24 24" fill="none" xmlns="http://www.w3.org/2000/svg">
<path fill-rule="evenodd" clip-rule="evenodd" d="M7.7381 11.47C7.59765 11.6106 7.51876 11.8012 7.51876 12C7.51876 12.1987 7.59765 12.3893 7.7381 12.53L15.2381 20.03C15.3803 20.1625 15.5683 20.2346 15.7626 20.2311C15.9569 20.2277 16.1423 20.149 16.2797 20.0116C16.4171 19.8742 16.4958 19.6888 16.4993 19.4945C16.5027 19.3002 16.4306 19.1121 16.2981 18.97L9.3281 12L16.2981 5.02997C16.4306 4.88779 16.5027 4.69975 16.4993 4.50545C16.4958 4.31114 16.4171 4.12576 16.2797 3.98835C16.1423 3.85093 15.9569 3.77222 15.7626 3.76879C15.5683 3.76537 15.3803 3.83749 15.2381 3.96997L7.7381 11.47Z" fill="black"/>
</svg>
