<svg width="23" height="23" viewBox="0 0 23 23" fill="none" xmlns="http://www.w3.org/2000/svg">
<path d="M21.8222 0.0184302C21.7958 0.0290462 21.7585 0.0496017 21.7393 0.0641207C21.7201 0.0786396 21.6808 0.107782 21.652 0.128858C21.6232 0.149933 21.5968 0.171634 21.5933 0.177046C21.5897 0.18251 21.5868 0.183863 21.5867 0.180116C21.5866 0.176369 21.5679 0.18813 21.5452 0.20624C21.5224 0.22435 21.4939 0.246779 21.4819 0.25599C21.1044 0.546629 20.3505 1.15148 19.9113 1.51628C19.2821 2.03875 19.2038 2.10432 19.1651 2.14127C19.1506 2.15506 19.1035 2.19742 19.0604 2.23536C19.0173 2.27334 18.98 2.30665 18.9776 2.30941C18.9753 2.31217 18.9497 2.33413 18.9209 2.35822C18.786 2.47099 18.9034 2.36171 17.9099 3.29883C16.9989 4.1581 15.6223 5.55614 15.0817 6.17119C14.9919 6.27335 14.8544 6.43232 14.6241 6.70048C14.474 6.87518 14.3212 7.05274 14.2845 7.09499C14.2478 7.1373 14.2165 7.17774 14.215 7.18487C14.2134 7.19205 14.2085 7.19553 14.204 7.19262C14.1996 7.1897 14.196 7.19194 14.196 7.19751C14.196 7.21151 14.0851 7.34452 14.0789 7.33796C14.0761 7.33505 14.0738 7.33927 14.0738 7.34738C14.0738 7.35545 14.0648 7.3696 14.0538 7.37882C13.9872 7.43445 12.641 9.21278 12.3043 9.68988C11.519 10.8027 10.5488 12.3401 9.97281 13.3844C9.84453 13.6169 9.66031 13.95 9.60616 14.0472C9.55698 14.1355 9.27057 14.6595 9.19723 14.7952C9.11881 14.9405 9.12833 14.9393 9.06332 14.8114C9.01943 14.725 8.7998 14.3397 8.74998 14.2617C8.72666 14.2252 8.70762 14.1931 8.70762 14.1903C8.70762 14.1875 8.69055 14.1594 8.66974 14.1277C8.63339 14.0725 8.39975 13.7139 8.28143 13.5317C8.25021 13.4835 8.21258 13.4268 8.19783 13.4056C8.18303 13.3843 8.15724 13.3457 8.14042 13.3198C8.12365 13.2938 8.10525 13.2672 8.09953 13.2607C8.07349 13.2306 7.96592 13.0681 7.96592 13.0586C7.96592 13.0529 7.95512 13.0359 7.94195 13.021C7.92873 13.006 7.91399 12.9869 7.9092 12.9787C7.88868 12.9431 7.85224 12.8899 7.83137 12.8651C7.81899 12.8504 7.80878 12.8359 7.80873 12.8328C7.80864 12.8298 7.79783 12.8143 7.78471 12.7984C7.7716 12.7825 7.75497 12.7603 7.74777 12.7492C7.74057 12.7381 7.72883 12.7212 7.72163 12.7117C7.13984 11.9439 6.64869 11.5219 6.31242 11.5008C6.27883 11.4987 6.22976 11.4942 6.20337 11.4908C6.15272 11.4843 6.06266 11.4853 6.01141 11.493C5.99459 11.4956 5.92194 11.5064 5.84998 11.5171C5.72224 11.5361 5.49511 11.598 5.43706 11.6297C5.42232 11.6378 5.40318 11.6458 5.3945 11.6475C5.37694 11.6511 5.35041 11.6622 5.28935 11.6913C5.17014 11.7481 5.10483 11.7837 4.98178 11.8586C4.9074 11.9039 4.8386 11.9457 4.82893 11.9515C4.81926 11.9573 4.7987 11.9716 4.78316 11.9833C4.76762 11.9951 4.7549 12.0023 4.7549 11.9994C4.7549 11.9966 4.74745 12.0015 4.73828 12.0103C4.72915 12.0192 4.70262 12.0408 4.67939 12.0584C4.6206 12.103 4.37823 12.3004 4.34371 12.3319C4.25562 12.4124 3.94859 12.7201 3.90302 12.7737C3.69207 13.0219 3.59949 13.1388 3.46662 13.3253C3.38332 13.4422 3.3152 13.5427 3.3152 13.5486C3.3152 13.5545 3.3119 13.5593 3.30786 13.5593C3.28191 13.5593 3.28147 13.6065 3.30672 13.6719C3.32093 13.7087 3.33257 13.7418 3.33262 13.7453C3.33262 13.7489 3.34391 13.7779 3.35772 13.8098C3.37153 13.8416 3.41636 13.9525 3.45735 14.0562L3.53182 14.2447L3.56531 14.2556C4.71879 14.6323 5.59617 15.2417 6.22113 16.1003C6.24875 16.1382 6.30561 16.2107 6.34749 16.2614C6.38931 16.312 6.43252 16.3679 6.44342 16.3857C6.49225 16.4649 6.79641 16.9838 6.81658 17.0223C6.82891 17.0458 6.84968 17.0829 6.86275 17.1048C6.91138 17.1861 7.09269 17.606 7.26674 18.0404C7.30482 18.1354 7.39873 18.3706 7.47542 18.563C7.72706 19.1942 7.7895 19.3384 8.09061 19.9838C8.31689 20.4688 8.39053 20.619 8.39748 20.6092C8.40562 20.5977 8.82436 20.2466 9.02609 20.082C9.06929 20.0468 9.21311 19.9226 9.34574 19.806C9.47836 19.6895 9.61385 19.5708 9.6468 19.5422C9.67974 19.5137 9.74431 19.4578 9.79027 19.418C9.83624 19.3781 9.92413 19.302 9.98554 19.2489C10.047 19.1957 10.1254 19.1273 10.1598 19.097C10.1943 19.0666 10.2419 19.0246 10.2656 19.0037C10.2894 18.9828 10.3519 18.9273 10.4047 18.8802C10.4575 18.8332 10.5851 18.7221 10.6883 18.6333C10.8968 18.4539 11.0663 18.306 11.0964 18.2773C11.1085 18.2656 11.1323 18.2095 11.1586 18.1299C11.3346 17.5981 11.9656 16.2694 12.5204 15.2625C12.6055 15.1081 12.7193 14.9009 12.7732 14.8022C12.8272 14.7034 12.8863 14.5957 12.9045 14.5628C12.9228 14.5299 12.98 14.4263 13.0316 14.3326C13.3379 13.7774 13.9272 12.7651 14.2294 12.275C14.2606 12.2244 14.3273 12.1125 14.3776 12.0264C14.4278 11.9403 14.5425 11.7539 14.6325 11.6121C14.7224 11.4704 14.904 11.1824 15.036 10.9723C15.6136 10.0528 16.4386 8.81286 16.9533 8.09066C17.0093 8.01219 17.0899 7.89619 17.1326 7.83291C17.1752 7.76958 17.2653 7.64323 17.3329 7.55211C17.4005 7.46093 17.4635 7.37564 17.4729 7.36248C17.7054 7.0365 17.7651 6.9549 18.1084 6.49337C18.4997 5.96746 19.2082 5.05297 19.3487 4.89248C19.3536 4.88686 19.3928 4.83664 19.4357 4.78096C19.528 4.66132 19.9374 4.16362 20.0683 4.01203C20.1187 3.95364 20.1855 3.87522 20.2167 3.83775C20.8303 3.10004 21.8238 2.01424 22.516 1.32462C22.5639 1.2769 22.6326 1.20841 22.6685 1.17245C22.7046 1.13644 22.7727 1.06988 22.82 1.02445C22.9596 0.890349 23.0002 0.774145 23 0.509213L22.9998 0.36189L22.9535 0.274932C22.9027 0.1797 22.8331 0.121156 22.782 0.130731C22.7596 0.134894 22.6865 0.121884 22.6555 0.108198C22.6459 0.103931 22.6204 0.0986227 22.5988 0.096333C22.446 0.0803049 22.3677 0.0700532 22.3108 0.0585525C22.2748 0.051267 22.212 0.0408591 22.1712 0.035447C22.1304 0.0300349 22.052 0.0194189 21.997 0.0119253C21.8747 -0.00483138 21.8808 -0.00503954 21.8222 0.0184302Z"/>
<path d="M19.8561 7.25607C19.5126 7.25607 19.2342 7.54077 19.2342 7.89191V19.5029C19.2342 20.7299 18.2576 21.7283 17.0575 21.7283H3.42053C2.22044 21.7283 1.24384 20.7299 1.24384 19.5029V5.56026C1.24384 4.33327 2.22044 3.33484 3.42053 3.33484H17.0575C17.4009 3.33484 17.6794 3.05015 17.6794 2.69901C17.6794 2.34786 17.4009 2.06317 17.0575 2.06317H3.42053C1.53442 2.06317 0 3.63193 0 5.56026V19.5029C0 21.4312 1.53442 23 3.42053 23H17.0575C18.9435 23 20.478 21.4312 20.478 19.5029V7.89196C20.478 7.54082 20.1995 7.25607 19.8561 7.25607Z" />
</svg>
