<svg width="200" height="200" viewBox="0 0 200 200" fill="none" xmlns="http://www.w3.org/2000/svg">
<g id="couple">
<path id="guy" fill-rule="evenodd" clip-rule="evenodd" d="M88.1148 0.417511C87.9228 0.68964 87.1876 0.7818 86.4853 0.62379C83.6733 -0.0148355 79.6866 3.72475 79.6815 7.00567C79.6815 8.15124 79.1561 8.83815 77.8272 9.44166C72.4534 11.8798 70.5914 15.378 72.4382 19.5719L73.7747 22.6092L72.3675 24.1652C70.8996 25.7826 71.4327 28.291 73.757 30.7226C74.7651 31.7782 73.4008 32.6209 71.415 32.1688C70.4827 31.956 70.1922 32.0744 70.5181 32.5331C70.7834 32.9062 71.6651 33.22 72.4761 33.2332C73.6635 33.2507 73.5119 33.4219 71.7131 34.1023C68.8557 35.1798 69.0907 36.6677 72.2689 37.6092C74.1612 38.1688 74.6211 38.6056 74.6034 39.8214C74.5857 40.9911 74.7777 41.1952 75.4447 40.7146C75.9222 40.37 76.3113 39.5712 76.3113 38.9369C76.3113 37.4622 84.977 46.5873 90.9167 54.321C96.3637 61.4117 96.7982 63.2486 93.7362 66.2771L91.4826 68.5068L95.9948 68.193C101.432 67.8133 105.07 65.6802 107.611 61.381L109.216 58.6685L110.593 61.3371C115.598 71.0481 115.176 77.2171 108.983 84.9157C102.313 93.2025 97.1848 103.583 95.8053 111.591C95.386 114.027 94.9236 116.586 94.7771 117.279C94.6305 117.971 93.1602 119.977 91.5104 121.734C83.7946 129.964 75.9323 147.374 71.2306 166.642C69.4494 173.95 67.5622 177.093 63.6765 179.224C61.1425 180.613 61.001 181.298 62.9287 182.79C64.9675 184.368 66.3394 187.438 66.8118 191.472L67.216 194.941L71.9329 196.447C77.4785 198.216 78.4891 198.721 77.9661 199.454C77.7539 199.754 77.8903 200 78.2692 200C79.0828 200 80.6492 197.676 79.871 197.621C79.5805 197.601 79.9772 197.362 80.7502 197.09C81.6446 196.776 82.9129 195.027 84.2292 192.299C85.3661 189.936 87.9456 184.842 89.9617 180.98C91.9752 177.117 94.1682 172.508 94.8326 170.737C95.4971 168.969 99.5167 159.488 103.764 149.669C110.499 134.107 111.5 131.334 111.586 128.011C111.656 125.169 112.066 123.681 113.187 122.158C114.9 119.832 115.095 120.56 113.973 125.103C112.995 129.069 113.106 129.084 118.293 125.674C124.854 121.357 125.549 119.307 122.444 113.386C121.019 110.665 120.966 110.393 122.111 111.63C125.693 115.508 127.1 120.295 125.367 122.707C124.44 123.997 125.759 128.891 126.873 128.292C127.227 128.103 127.515 128.211 127.515 128.533C127.515 128.856 129.218 130.719 131.302 132.674C133.384 134.63 134.546 136.047 133.881 135.826C133.214 135.604 134.321 137.114 136.337 139.181C147.843 150.979 179.39 188.753 179.39 190.728C179.39 191.573 183.604 191.233 187.475 190.074C190.029 189.31 190.774 189.227 189.873 189.802C189.152 190.26 188.319 190.636 188.021 190.636C187.293 190.636 187.346 191.893 188.119 192.955C188.66 193.699 189.062 193.68 191.164 192.808C192.495 192.257 193.69 191.805 193.819 191.805C193.948 191.805 192.849 192.852 191.376 194.132C186.707 198.187 189.948 199.636 196.234 196.302C200.612 193.98 201.095 191.775 198.089 187.829C196.583 185.854 196.499 185.474 197.343 184.473C198.718 182.84 198.589 182.658 191.062 175.655C181.646 166.892 175.942 160.82 173.681 157.153C169.924 151.069 150.601 128.211 148.775 127.69C148.383 127.581 146.774 127.203 145.2 126.852C143.063 126.378 142.335 125.926 142.335 125.077C142.335 122.257 140.523 118.379 138.257 116.349C133.745 112.311 129.364 106.302 126.795 100.627C125.382 97.5105 124.086 95.3532 123.912 95.8338C123.738 96.3145 122.972 98.9611 122.212 101.715C121.451 104.467 120.506 107.364 120.11 108.152L119.392 109.583L119.764 108.119C125.463 85.6663 125.158 64.0672 119.071 58.9428C116.494 56.7724 116.28 56.0328 117.674 54.1125C118.19 53.3993 118.968 50.972 119.397 48.7182C119.829 46.4665 120.653 42.8126 121.226 40.6026L122.27 36.5821L127.419 40.9494C136.746 48.8587 137.744 49.1023 148.56 46.1198C151.991 45.174 160.258 43.675 166.927 42.7928C181.28 40.8901 179.554 41.5814 179.001 37.9603L178.544 34.9669L172.397 34.8747L166.253 34.7848L174.262 34.212C181.798 33.6743 182.442 33.7138 185.226 34.8879C189.771 36.806 191.517 36.1322 191.517 32.4629C191.517 29.2456 188.854 28.5807 181.727 30.0181C177.804 30.8082 175.843 30.8257 166.023 30.1651C153.004 29.2895 149.267 29.2676 131.82 29.9545L118.948 30.4614L112.313 28.8264C106.773 27.4614 105.35 27.299 103.673 27.8499C100.942 28.7453 100.659 28.2932 103.347 27.3275C105.257 26.6384 106.33 26.7372 112.97 28.1944C119.508 29.6319 121.022 29.7723 125.11 29.329L129.781 28.8221L125.888 25.1703C121.509 21.0642 120.269 20.6253 111.346 20.0152C108.195 19.8001 104.954 19.2602 104.14 18.8169C102.382 17.8579 101.076 19.1461 98.0387 24.8411L96.2272 28.2361L95.6234 25.8177C95.0575 23.5572 95.1965 23.1688 97.7911 19.8506C100.868 15.9157 101.048 15.3604 99.4965 14.6077C98.1827 13.9691 95.1838 7.73646 95.1788 5.63843C95.1737 2.92592 89.378 -1.35572 88.1148 0.417511ZM91.9525 4.39849C92.7256 5.21048 92.6549 5.22145 91.3184 4.49724C89.9314 3.74669 89.6029 3.86301 86.9906 6.01151C84.9138 7.72109 84.5525 7.89008 85.6288 6.65014C86.4322 5.72182 87.0916 4.62451 87.0916 4.21193C87.0916 2.6428 90.4038 2.7701 91.9525 4.39849ZM89.6686 11.825C90.8914 13.0342 91.8338 13.5631 92.0131 13.1417C92.1773 12.7533 92.2734 14.4629 92.2279 16.9428C92.1774 19.6399 91.811 21.7379 91.3133 22.1702C90.6564 22.7408 90.6135 22.4929 91.1162 20.9742C92.1698 17.7811 89.9895 11.814 87.2634 10.4358C86.6141 10.1066 86.4272 9.8301 86.8516 9.81912C87.2786 9.81034 88.5443 10.7123 89.6686 11.825ZM97.5688 16.0934C97.3237 16.9779 96.6264 18.0313 96.0201 18.4329C93.9989 19.776 93.6857 19.1878 95.4516 17.3641C96.4117 16.3744 97.1974 15.3209 97.1974 15.0247C97.1974 14.7262 97.3818 14.4826 97.6067 14.4826C97.8315 14.4826 97.8164 15.2068 97.5688 16.0934ZM88.4332 29.103C89.4033 31.1374 88.7945 32.1359 85.8259 33.3649C84.2999 33.9991 84.0321 34.517 83.8552 37.1659C83.6961 39.5668 82.3747 41.8601 82.3747 39.7379C82.3747 39.4636 81.6926 38.9567 80.8589 38.6056C79.7068 38.1249 79.6159 37.9625 80.4824 37.9318C81.3338 37.9033 81.6749 37.2603 81.8315 35.4058C82.0261 33.0554 82.1979 32.8711 84.9012 32.0591C87.9228 31.1505 88.1755 30.7116 87.0916 28.2405C86.1669 26.1271 87.3872 26.9106 88.4332 29.103ZM102.586 32.8469C102.586 32.9676 102.132 33.3956 101.576 33.795C100.747 34.3919 100.565 34.3524 100.565 33.5755C100.565 33.0532 101.02 32.6253 101.576 32.6253C102.132 32.6253 102.586 32.724 102.586 32.8469ZM110.274 34.3875C110.714 34.7694 109.749 34.9669 107.437 34.9669C103.769 34.9669 103.387 35.3202 104.719 37.4929C105.434 38.6604 105.403 38.6999 104.345 37.9406C100.611 35.2654 101.796 32.8776 106.576 33.446C108.243 33.6436 109.905 34.0671 110.274 34.3875ZM98.1373 38.9852C98.6072 40.9581 98.7714 42.5734 98.5061 42.5734C97.5663 42.5734 95.8483 38.5638 95.8483 36.3692C95.8483 33.1542 97.0913 34.5741 98.1373 38.9852ZM148.737 34.8879C156.955 35.34 155.955 36.6238 146.966 37.1593C141.82 37.4643 141.66 37.5192 141.582 39.0006C141.506 40.4644 141.483 40.4556 141.046 38.7701L140.592 37.0145L139.44 39.648L138.288 42.2815L138.641 39.2771C139.066 35.656 138.907 35.5682 131.671 35.509C128.829 35.4848 125.14 35.2544 123.472 34.9954C119.728 34.4183 138.694 34.3371 148.737 34.8879ZM180.065 35.8447C180.065 36.4746 180.808 36.7226 182.705 36.7226C184.155 36.7226 185.898 36.8806 186.578 37.0759C187.258 37.2712 186.901 36.8784 185.79 36.2025C183.4 34.7497 180.065 34.5412 180.065 35.8447ZM95.7371 53.3927C98.2711 57.4417 97.3187 57.051 94.2895 52.8001C91.8338 49.3524 88.4306 42.9311 87.3165 39.648C87.1523 39.1652 88.653 41.5353 90.6463 44.915C92.6422 48.2947 94.9337 52.1088 95.7371 53.3927ZM110.322 41.013C111.613 42.7248 110.123 45.8499 107.627 46.675C105.669 47.3224 105.055 48.9618 105.595 52.1089C106.098 55.0474 104.794 54.1037 102.528 49.8901C100.787 46.6531 100.901 45.975 103.597 43.4929C104.893 42.2968 105.954 40.945 105.954 40.4841C105.954 39.0971 109.173 39.4878 110.322 41.013ZM110.363 99.4725C108.061 110.417 105.757 116.869 102.473 121.561C97.3844 128.825 87.0714 147.563 84.7673 153.727C83.4965 157.129 80.447 163.824 77.9913 168.609C72.1931 179.906 70.2175 188.621 72.5696 192.538C73.1027 193.423 73.2846 194.147 72.9789 194.147C63.5047 194.147 81.7937 146.27 101.129 120.459C104.484 115.98 107.288 108.692 109.822 97.8682C112.237 87.5537 112.626 88.7124 110.363 99.4725ZM74.6261 137.171C69.8107 140.887 63.4441 145.969 60.478 148.467C54.7758 153.266 53.1538 154.258 49.3616 155.25C46.7796 155.928 46.7064 156.2 47.6841 161.509C48.1262 163.912 47.9418 164.696 46.2819 167.45C44.1875 170.924 44.7105 175.074 46.9818 173.028C48.5482 171.617 52.5652 164.799 54.4676 160.317C56.5519 155.41 59.4801 153.266 69.8511 149.044C74.7398 147.053 75.4397 146.566 76.2582 144.582C77.14 142.443 80.8387 135.321 82.8118 131.968C83.3323 131.081 83.6733 130.37 83.5723 130.385C83.4687 130.401 79.444 133.453 74.6261 137.171ZM62.3855 188.165C61.951 188.404 61.3876 189.321 61.1324 190.203C60.6094 192.012 59.4674 192.374 59.4674 190.73C59.4674 189.549 51.2338 187.77 49.0888 188.485C47.4997 189.014 47.7852 190.478 49.6876 191.562C52.118 192.944 62.9085 195.255 64.5203 194.74C65.8745 194.305 66.8447 189.328 65.5183 189.628C65.2075 189.701 64.5532 189.301 64.063 188.744C63.5653 188.176 62.8276 187.921 62.3855 188.165Z" fill="#010101"/>
<path id="girl" fill-rule="evenodd" clip-rule="evenodd" d="M95.849 36.3692C95.849 38.5638 97.567 42.5734 98.5068 42.5734C99.189 42.5734 97.4382 35.5265 96.5691 34.7716C96.0587 34.3283 95.849 34.7957 95.849 36.3692ZM105.955 40.4841C105.955 40.945 104.894 42.2968 103.598 43.4929C100.902 45.975 100.788 46.6531 102.529 49.8901C104.795 54.1037 106.099 55.0474 105.596 52.1089C105.055 48.9618 105.669 47.3224 107.627 46.675C110.123 45.8499 111.614 42.7248 110.323 41.013C109.174 39.4878 105.955 39.0971 105.955 40.4841ZM107.622 61.3349C105.508 65.4102 101.425 67.8155 96.0233 68.1754C93.5196 68.34 91.0437 68.7702 90.5207 69.1323C87.0822 71.5068 86.0514 79.9472 88.3985 86.5002L89.7072 90.1499L88.1509 94.4029C82.4083 110.116 64.4402 123.119 43.2989 126.861C31.8794 128.884 28.7112 128.143 20.7302 121.579C13.7951 115.877 10.8695 114.723 8.67903 116.825C6.02878 119.369 6.48608 124.89 9.6315 128.329C13.8709 132.962 12.1605 134.768 5.43507 132.758C1.46097 131.571 0.300357 131.78 0 133.637C0 133.637 1.19223 135.917 1.85003 136.357L5.42748 138.11C7.39558 139.076 11.1802 140.463 13.8406 141.196C18.3199 142.429 18.7141 142.673 19.2067 144.49C20.5508 149.459 25.3814 163.227 26.0483 163.993C29.3681 167.801 34.7798 166.554 34.0825 162.141C33.5746 158.915 34.704 157.864 38.6781 157.864C40.0727 157.864 41.4547 157.528 41.7502 157.118C42.6017 155.939 46.1816 154.089 47.8743 153.955C49.8197 153.802 53.2632 151.969 55.4385 149.93C58.1317 147.409 67.9773 140.294 75.976 135.093C80.0511 132.442 84.2956 129.26 85.4072 128.022C86.5189 126.786 89.0175 124.162 90.9604 122.189C92.9007 120.218 94.6161 118.023 94.7677 117.312C94.9193 116.601 95.3867 114.027 95.8061 111.591C97.1931 103.541 101.683 94.3832 108.696 85.2954C114.78 77.4103 115.454 72.7731 111.788 64.0123C109.57 58.708 109.133 58.4271 107.622 61.3349ZM43.2989 158.854C43.2989 159.126 41.9119 160.723 40.2167 162.409C36.6266 165.971 37.3289 166.598 41.0226 163.131C45.6915 158.746 47.4777 163.026 43.2787 168.534L41.2348 171.214L42.5385 174.192C44.0948 177.749 47.3185 182.658 47.8137 182.228C48.0082 182.059 47.8137 180.523 47.3792 178.816C46.9471 177.108 46.457 175.137 46.2928 174.437C46.1285 173.735 45.5045 172.737 44.9058 172.219C43.9078 171.35 43.9432 170.909 45.3378 166.715C46.5025 163.212 46.702 161.757 46.2018 160.447C45.6132 158.913 43.2989 157.642 43.2989 158.854ZM60.1402 185.077C60.1326 186.363 59.9406 188.404 59.7107 189.611C59.0993 192.821 60.4964 192.356 61.4641 189.027C62.3155 186.086 62.2725 186.084 64.6499 189.268C65.3877 190.256 65.4534 190.223 65.4609 188.88C65.4635 187.958 64.4857 186.552 62.8081 185.077L60.1529 182.735L60.1402 185.077ZM65.5317 195.012C65.5317 196.414 76.3246 200.768 77.4287 199.811C78.3508 199.01 76.931 197.829 74.1923 197.121C72.5779 196.704 70.0641 195.865 68.6063 195.255C65.423 193.925 65.5317 193.934 65.5317 195.012Z" fill="#BFC8CD"/>
</g>
</svg>
