<svg width="1000" height="1000" viewBox="0 0 1000 1000" fill="none" xmlns="http://www.w3.org/2000/svg">
<rect width="1000" height="1000" fill="white"/>
<path fill-rule="evenodd" clip-rule="evenodd" d="M477.145 157.82C433.305 165.735 393.615 202.78 382.738 245.93C381.77 249.768 380.773 251.478 378.945 252.425C366.485 258.883 362.988 266.628 362.488 288.838C361.793 319.91 366.098 329.983 383.563 338.158C401.19 346.405 407.418 342.873 404.79 326.118C402.528 311.705 401.83 277.668 403.535 264.875C404.863 254.925 404.855 254.83 402.685 252.793L400.498 250.738L402.895 244.365C424.605 186.688 488.47 160.055 545.72 184.808C568.188 194.52 588.553 216.37 598.655 241.598L601.715 249.243L598.465 251.955L595.215 254.668L595.085 276.505C594.948 299.433 593.583 318.243 591.24 329.41C588.628 341.86 590.14 344.185 600.445 343.573C617.21 342.575 628.748 330.923 631.825 311.875L632.953 304.903L639.963 303.868C649.21 302.5 650.418 301.055 653.193 288.025C656.275 273.543 655.663 273.078 661.615 294.433C667.773 316.523 669.308 319.35 675.118 319.32C681.093 319.293 680.305 321.668 687.52 281.895C694.443 243.728 694.41 243.89 694.91 244.39C695.59 245.07 696.998 253.548 703.065 293.505C709.81 337.92 710.16 339.533 713.365 340.993C721.073 344.503 722.86 340.225 727.555 307.035C731.323 280.395 732.928 278.878 736.783 298.313C740.778 318.45 747.153 319.265 756.91 300.885C763.723 288.05 762.54 288.8 777.035 288.153C791.418 287.513 794.403 285.668 790.98 279.54L789.478 276.855L774.605 276.585C757.228 276.27 756.858 276.4 752.948 284.145C747.95 294.045 747.975 294.078 742.173 270.598C737.69 252.45 736.415 250 731.468 250C726.433 250 724.463 255.863 718.723 287.893C717.54 294.5 716.398 299.73 716.185 299.518C715.973 299.305 713.813 285.548 711.388 268.95C701.708 202.673 700.908 199.218 695.198 199.22C689.743 199.22 688.718 202.038 684.548 228.515C676.433 280.073 674.315 291.828 673.318 290.83C673.135 290.648 670.715 280.838 667.938 269.03C662.683 246.683 661.59 244.14 657.228 244.14C653.123 244.14 651.363 247.088 647.768 259.985C639.37 290.113 638.718 291.43 636.045 283.638C631.75 271.11 629.228 265.845 625.673 261.99C622.37 258.408 621.355 256.19 618.95 247.295C601.52 182.84 543.013 145.925 477.145 157.82ZM488.075 197.315C435.263 204.648 407.555 251.528 416.825 317.87C429.045 405.343 517.528 434.088 563.213 365.428C584.373 333.628 590.053 271.585 574.718 239.745C560.723 210.685 523.405 192.41 488.075 197.315ZM256.18 250.568C253.308 253.44 253.318 259.398 256.22 274.903C263.128 311.805 260.478 327.145 252.42 296.875C246.735 275.508 240.415 256.325 238.485 254.58C232.648 249.295 226.39 250.918 223.743 258.403C222.448 262.063 222.695 263.47 229.358 290.328C236.493 319.09 237.12 322.638 235.258 323.788C233.31 324.993 231.678 321.903 228.025 310.09C218.18 278.265 213.74 271.733 205.093 276.36C200.018 279.075 200.26 284.193 206.563 307.13C211.803 326.213 213.85 336.348 217.768 362.603C220.903 383.633 223.688 395.083 228.055 404.92C230.03 409.365 230.805 413.263 231.528 422.363C238.248 506.978 250.578 548.408 272.345 559.51C293.528 570.318 344.875 552.895 375.195 524.613C382.09 518.183 381.835 516.58 381.835 566.405V611.208L386.475 611.798C426.618 616.893 454.425 627.395 472.83 644.415L479.57 650.645L484.17 646.575C503.398 629.563 524.545 617.485 550.783 608.53C575.248 600.183 575.99 599.595 584.475 581.89L587.89 574.763V539.823C587.89 510.798 588.118 504.883 589.235 504.883C591.458 504.883 592.395 506.883 594.73 516.603C598.033 530.34 602.35 541.808 606.08 546.748C606.23 546.945 608.24 545.485 610.55 543.503C619.56 535.76 637.425 529.835 640.515 533.56C642.213 535.603 641.498 536.468 635.088 540.135C623.463 546.785 608.843 563.438 597.448 583.008L585.448 604.005C581.818 610.45 576.488 619.115 573.605 623.26C565.075 635.515 567.113 643.068 578.945 643.068C587.31 643.068 589.16 641.365 596.23 627.165C602.86 613.85 602.89 613.808 604.86 614.565C606.098 615.04 606.11 615.71 604.963 619.528C604.233 621.955 602.94 628.025 602.09 633.015C600.916 639.549 599.551 646.046 597.998 652.5C594.413 667.138 596.663 671.863 607.225 671.873C617.408 671.88 618.368 670.22 625.835 639.658C631.465 616.615 633.43 611.555 635.815 613.94C637.038 615.163 635.435 624.88 630.798 644.393C626.395 662.918 627.13 666.998 635.135 668.5C646.648 670.66 648.905 666.603 655.8 631.348C658.67 616.668 659.508 614.258 661.745 614.258C663.833 614.258 663.165 624.938 660.048 641.455L657.955 652.54L660.37 654.955C665.113 659.698 673.805 658.838 676.75 653.335C677.32 652.27 679.293 643.81 681.133 634.538C685.185 614.128 687.985 605.658 693.738 596.395C708.653 572.395 706.79 552.47 687.715 531.958C675.898 519.253 669.675 510.625 656.02 488.023C626.265 438.768 617.003 429.965 584.96 420.475L559.14 412.698L548.458 409.403L539.123 414.09C508.445 429.498 475.765 427.723 449.38 409.215C444.31 405.658 443.505 405.39 440.41 406.225C438.543 406.733 424.928 409.833 410.158 413.12C368.065 422.48 353.895 429.61 329.233 453.823C321.055 461.853 321.338 459.708 326.283 476.28C329.508 487.083 329.595 489.745 326.735 489.745C319.558 489.745 293.42 411.89 298.108 404.475C303.158 396.485 307.705 385.678 309.52 377.35L313.593 358.643C315.428 350.195 321.968 330.278 328.173 314.235C330.735 307.61 329.78 303.64 325.03 301.185C317.295 297.185 307.978 304.888 298.475 323.135C289.265 340.82 288.603 340.188 282.703 308.105C274.598 264.015 271.193 251.48 266.663 249.055C263.275 247.245 258.868 247.88 256.18 250.568ZM753.908 459.668C722.488 463.065 672.99 478.238 675.13 483.81C675.948 485.943 676.875 485.85 698.315 481.523C746.585 471.78 778.768 471.223 793.22 479.878C819.018 495.325 792.19 540.6 722.898 598.563C703.395 614.878 704.305 613.295 712.418 616.743L718.778 619.445L724.013 615.843C752.735 596.06 795.825 553.798 811.753 529.785C843.993 481.18 820.318 452.483 753.908 459.668ZM831.055 550.293V559.57H840.333H849.61V550.293V541.015H840.333H831.055V550.293ZM791.015 592.773V601.563H800.293H809.57V592.773V583.985H800.293H791.015V592.773ZM336.425 591.398C173.738 609.818 127.505 726.498 267.045 766.5C332.44 785.245 440.665 777.02 500.24 748.778L504.873 746.583L499.508 741.883L494.143 737.185L482.8 741.168C376.923 778.348 245.588 761.685 217.578 707.52C193.523 661.005 247.083 617.855 354.493 597.218C365.525 595.098 367.165 594.365 366.508 591.853C365.865 589.39 355.533 589.233 336.425 591.398ZM828.085 604.738C828.063 604.87 827.953 609.045 827.84 614.015L827.638 623.048H836.67H845.703V613.77V604.493H836.915C832.08 604.493 828.108 604.603 828.085 604.738ZM344.728 624.06C275.128 632.6 236.155 677.215 267.248 712.758C299.048 749.108 394.56 754.78 443.355 723.213C474.383 703.143 479.465 668.05 454.255 647.955C431.893 630.13 382.708 619.4 344.728 624.06ZM548.34 624.428C521.26 631.163 493.533 655.448 487.875 677.388C466.728 759.413 659.765 797.185 732.025 725.16C762.663 694.62 754.5 654.548 713.525 634.355C694.688 625.073 694.355 625.175 689.053 642.01C683.61 659.29 677.968 665.04 666.453 665.04H660.953L665.495 669.455C673.348 677.085 675.358 687.44 670.405 694.74C649.213 725.968 566.48 716.105 566.413 682.343C566.398 674.995 578.14 661.62 584.605 661.62C584.678 661.62 585.038 659.803 585.405 657.58L586.073 653.54L578.925 653.145C562.695 652.248 560.255 648.718 558.64 623.78C558.573 622.73 554.01 623.018 548.34 624.428ZM758.79 641.113V654.298H771.485H784.18V641.113V627.93H771.485H758.79V641.113ZM413.76 643.603C443.133 651.115 455.883 670.798 443.673 689.788C440.593 694.578 440.393 694.28 440.09 684.445C439.683 671.248 432.958 661.088 419.385 653.158C414.235 650.148 410.848 648.655 397.218 643.38C388.345 639.948 400.085 640.105 413.76 643.603ZM807.618 656.25V665.04H816.408H825.195V656.25V647.46H816.408H807.618V656.25ZM382.325 659.493C410.188 667.12 411.993 690.995 385.395 700.148C352.223 711.56 314.195 693.545 326.64 672.31C333.848 660.01 361.208 653.713 382.325 659.493ZM356.345 674.105C349.415 678.765 353.09 685.608 362.89 686.293C369.708 686.768 373.315 685.585 375.578 682.128C380.373 674.81 364.9 668.355 356.345 674.105ZM611.63 677.743C601.533 681.81 608.943 692.373 621.903 692.38C634.135 692.388 637.818 682.498 627.228 678.073C623.72 676.605 614.915 676.42 611.63 677.743ZM776.06 687.255L776.243 695.8L785.095 696.083L793.945 696.363V687.538V678.71H784.913H775.88L776.06 687.255ZM529.953 695.46C540.72 713.888 567.958 728.535 604.273 735.428C618.018 738.038 608.355 739.265 590.1 737.23C558.575 733.715 536.158 722.43 527.898 705.92C520.87 691.873 522.628 682.925 529.953 695.46ZM300.685 711.865C306.915 715.043 315.23 717.478 335.963 722.198C360.42 727.765 361.52 728.52 345.165 728.503C318.94 728.475 298.495 720.615 287.623 706.378C282.678 699.9 283.328 699.63 290.605 705.138C294.14 707.813 298.675 710.84 300.685 711.865ZM757.813 716.798V725.585H766.603H775.39V716.798V708.008H766.603H757.813V716.798ZM735.318 745.785C725.243 753.118 717.028 757.623 688.965 771.2C634.54 797.53 597.55 812.918 537.598 834.168C531.69 836.263 530.763 836.91 530.763 838.95C530.763 845.84 580.025 832.565 625.488 813.423C678.743 791 753.483 745.133 742.643 741.525C742.088 741.34 738.79 743.258 735.318 745.785ZM619.14 779.253C610.77 779.778 607.858 780.563 589.355 787.278C456.193 835.605 347.298 839.525 325.633 796.775C322.463 790.52 320.725 790.968 321.033 797.955C321.72 813.478 336.95 828.08 359.988 835.295C416.238 852.92 505.695 836.99 618.165 789.32C636.465 781.565 640.903 777.97 631.535 778.495L619.14 779.253Z" fill="black"/>
</svg>
