<svg width="23" height="24" viewBox="0 0 23 24" fill="none" xmlns="http://www.w3.org/2000/svg">
<path d="M18.1163 8.7381C17.803 8.7381 17.5489 9.01407 17.5489 9.35446V20.61C17.5489 21.7995 16.6579 22.7673 15.5629 22.7673H3.12083C2.02589 22.7673 1.13486 21.7994 1.13486 20.61V7.09419C1.13486 5.90477 2.02589 4.9369 3.12083 4.9369H15.5629C15.8763 4.9369 16.1303 4.66092 16.1303 4.32053C16.1303 3.98014 15.8763 3.70416 15.5629 3.70416H3.12083C1.39997 3.70416 0 5.22489 0 7.09419V20.61C0 22.4793 1.39997 24.0001 3.12083 24.0001H15.5629C17.2837 24.0001 18.6837 22.4793 18.6837 20.61V9.35452C18.6837 9.01412 18.4297 8.7381 18.1163 8.7381Z"/>
<path d="M22.4861 0.557193C21.8021 -0.185882 20.6891 -0.18558 20.0056 0.557193L10.2864 11.1154C10.2734 11.1295 10.1269 11.295 10.0889 11.3878L8.74296 14.6725C8.64737 14.9057 8.69389 15.1787 8.86011 15.359C8.96871 15.477 9.11389 15.5396 9.26157 15.5396C9.33941 15.5396 9.41781 15.5221 9.49207 15.4862L12.5159 14.0241C12.601 13.983 12.7536 13.8237 12.7667 13.8096L22.4861 3.25175C22.8175 2.89177 23.0001 2.41327 23.0001 1.90432C23.0001 1.39542 22.8175 0.916817 22.4861 0.557193ZM21.6837 2.37985L11.9643 12.938C11.9626 12.9398 11.9617 12.942 11.9601 12.9434L10.3806 13.7073L11.0838 11.9915C11.0852 11.9897 11.0871 11.9887 11.0888 11.987L20.808 1.42884C21.0421 1.17447 21.4502 1.17477 21.6838 1.4291C21.8008 1.5558 21.8653 1.72466 21.8653 1.90432C21.8653 2.08398 21.8007 2.25279 21.6837 2.37985Z"/>
</svg>
