<svg width="24" height="24" viewBox="0 0 24 24" fill="none" xmlns="http://www.w3.org/2000/svg">
<path fill-rule="evenodd" clip-rule="evenodd" d="M11.4375 0C11.8125 0 12.1875 0 12.5625 0C12.952 0.0963014 13.327 0.244739 13.6875 0.445313C14.3824 0.956827 15.0855 1.45682 15.7969 1.94531C17.1094 1.96094 18.4219 1.97656 19.7344 1.99219C20.1172 2.0625 20.3438 2.28906 20.4141 2.67188C20.4297 3.53125 20.4453 4.39063 20.4609 5.25C21.648 6.08583 22.8277 6.92958 24 7.78125C24 12.9062 24 18.0313 24 23.1563C23.8281 23.5469 23.5469 23.8281 23.1562 24C15.7187 24 8.28127 24 0.84375 24C0.453125 23.8281 0.171875 23.5469 0 23.1563C0 18.0313 0 12.9062 0 7.78125C1.17231 6.92958 2.352 6.08583 3.53906 5.25C3.55469 4.39063 3.57031 3.53125 3.58594 2.67188C3.65625 2.28906 3.88281 2.0625 4.26562 1.99219C5.57812 1.97656 6.89062 1.96094 8.20312 1.94531C8.9145 1.45682 9.61762 0.956827 10.3125 0.445313C10.673 0.244739 11.048 0.0963014 11.4375 0ZM11.5781 0.84375C12.1822 0.768253 12.7447 0.885441 13.2656 1.19531C13.6094 1.44531 13.9531 1.69531 14.2969 1.94531C12.7656 1.97656 11.2344 1.97656 9.70312 1.94531C10.0469 1.69531 10.3906 1.44531 10.7344 1.19531C11.0047 1.03628 11.2859 0.919097 11.5781 0.84375ZM4.40625 2.8125C9.46875 2.8125 14.5312 2.8125 19.5938 2.8125C19.6016 5.46881 19.5938 8.12503 19.5703 10.7813C17.5156 12.4922 15.4609 14.2031 13.4062 15.9141C12.4688 16.5078 11.5312 16.5078 10.5938 15.9141C8.53908 14.2031 6.48436 12.4922 4.42969 10.7813C4.40625 8.12503 4.39844 5.46881 4.40625 2.8125ZM3.51562 6.28125C3.57794 7.52358 3.57794 8.77359 3.51562 10.0313C2.7119 9.37603 1.91503 8.71195 1.125 8.03906C1.93043 7.45955 2.7273 6.87361 3.51562 6.28125ZM20.4375 6.28125C21.2557 6.85692 22.0682 7.44286 22.875 8.03906C22.085 8.71195 21.2881 9.37603 20.4844 10.0313C20.4375 8.78166 20.4219 7.53164 20.4375 6.28125ZM0.84375 8.95312C3.60653 11.2156 6.35653 13.4969 9.09375 15.7969C6.35958 18.0855 3.61738 20.3668 0.867188 22.6406C0.84375 18.0781 0.835936 13.5157 0.84375 8.95312ZM23.1094 8.95312C23.164 13.5078 23.1718 18.0703 23.1328 22.6406C20.3826 20.3668 17.6404 18.0855 14.9062 15.7969C17.6427 13.5132 20.3771 11.2319 23.1094 8.95312ZM9.75 16.3594C10.9733 17.3307 12.2858 17.4635 13.6875 16.7578C13.8797 16.6422 14.0594 16.5093 14.2266 16.3594C16.9245 18.6339 19.6355 20.8918 22.3594 23.1328C15.4531 23.1641 8.54686 23.1641 1.64062 23.1328C4.3644 20.8965 7.06753 18.6387 9.75 16.3594Z" fill="black"/>
<path d="M12.3548 13.0338C11.8415 13.0338 11.3846 12.9419 10.9839 12.7579C10.5833 12.5761 10.2446 12.3087 9.96782 11.9556C9.69107 11.6047 9.48029 11.1755 9.33548 10.6681C9.19067 10.1607 9.11826 9.58351 9.11826 8.93658C9.11826 8.2981 9.19067 7.71882 9.33548 7.19873C9.4819 6.67865 9.69509 6.23256 9.97506 5.86047C10.255 5.48626 10.5969 5.19873 11.0008 4.99789C11.4063 4.79704 11.8681 4.69662 12.3862 4.69662C12.8656 4.69662 13.2936 4.78858 13.6702 4.97252C14.0483 5.15645 14.3685 5.4186 14.6307 5.75899C14.8946 6.09725 15.0949 6.5 15.2317 6.96723C15.3701 7.43235 15.4385 7.94715 15.4368 8.51163C15.4385 8.90063 15.4127 9.25793 15.3596 9.58351C15.3065 9.90909 15.2228 10.1934 15.1086 10.4366C14.996 10.6776 14.8479 10.8689 14.6645 11.0106C14.4811 11.1501 14.259 11.2294 13.9984 11.2484C13.8117 11.2674 13.6605 11.2495 13.5447 11.1945C13.4288 11.1395 13.3403 11.0581 13.2792 10.9503C13.2196 10.8404 13.181 10.7125 13.1633 10.5666H13.1344C13.0957 10.6934 13.0201 10.8087 12.9075 10.9123C12.7949 11.0137 12.6573 11.093 12.4948 11.1501C12.3339 11.2051 12.1625 11.2252 11.9807 11.2104C11.7908 11.1956 11.6106 11.1374 11.4401 11.0359C11.2711 10.9345 11.1207 10.7875 10.9887 10.5951C10.8584 10.4027 10.7554 10.1649 10.6798 9.88161C10.6058 9.59831 10.568 9.27061 10.5664 8.89852C10.568 8.53066 10.6074 8.21036 10.6846 7.93763C10.7635 7.6649 10.8673 7.43552 10.996 7.24947C11.1263 7.06342 11.2711 6.91755 11.4304 6.81184C11.5897 6.70613 11.7498 6.63848 11.9107 6.60888C12.0925 6.57294 12.2647 6.57294 12.4272 6.60888C12.5897 6.64482 12.7265 6.70296 12.8375 6.7833C12.9501 6.86364 13.0201 6.95032 13.0475 7.04334H13.0813V6.68816H13.8367V9.7833C13.8383 9.92917 13.8632 10.0423 13.9115 10.1226C13.9598 10.203 14.0249 10.2431 14.107 10.2431C14.218 10.2431 14.3105 10.1786 14.3846 10.0497C14.4602 9.92072 14.5165 9.72304 14.5535 9.45666C14.5921 9.19027 14.6114 8.85095 14.6114 8.43869C14.6114 8.04123 14.5712 7.69239 14.4907 7.39218C14.4119 7.08985 14.3009 6.83298 14.1577 6.62156C14.0161 6.40803 13.8512 6.23467 13.6629 6.10148C13.4747 5.96829 13.2703 5.87104 13.0499 5.80972C12.8311 5.74841 12.6058 5.71776 12.3741 5.71776C11.9735 5.71776 11.6235 5.7981 11.3242 5.95877C11.0249 6.11734 10.7755 6.34038 10.576 6.62791C10.3765 6.91543 10.2269 7.25264 10.1271 7.63953C10.029 8.02431 9.97908 8.44397 9.97747 8.89852C9.97908 9.39958 10.0322 9.84355 10.1368 10.2304C10.243 10.6152 10.399 10.9387 10.605 11.2008C10.8109 11.463 11.0652 11.6617 11.3677 11.797C11.6702 11.9323 12.0177 12 12.4103 12C12.5953 12 12.7763 11.982 12.9533 11.9461C13.1303 11.9123 13.2904 11.87 13.4336 11.8192C13.5768 11.7706 13.6919 11.723 13.7788 11.6765L14.0177 12.5962C13.9163 12.6723 13.7788 12.7431 13.605 12.8087C13.4328 12.8763 13.2381 12.9302 13.0209 12.9704C12.8053 13.0127 12.5833 13.0338 12.3548 13.0338ZM12.2438 10.167C12.4401 10.167 12.5961 10.1173 12.712 10.018C12.8294 9.9186 12.9131 9.77167 12.963 9.57717C13.0145 9.38055 13.0386 9.13848 13.0354 8.85095C13.0338 8.59725 13.0088 8.38266 12.9606 8.20719C12.9139 8.0296 12.8327 7.89535 12.7168 7.80444C12.6026 7.71142 12.4433 7.6649 12.2389 7.6649C12.0603 7.6649 11.9083 7.71459 11.7828 7.81395C11.6589 7.91332 11.564 8.05285 11.498 8.23256C11.4336 8.41015 11.4006 8.61945 11.399 8.86047C11.4006 9.08457 11.428 9.29704 11.4811 9.49789C11.5342 9.69662 11.6219 9.85835 11.7442 9.98309C11.8665 10.1057 12.033 10.167 12.2438 10.167Z" fill="black"/>
</svg>
