<svg width="25" height="24" viewBox="0 0 25 24" fill="none" xmlns="http://www.w3.org/2000/svg">
<path d="M23.8485 11.3408C23.1045 10.9685 22.5011 11.3408 22.2609 11.5955C19.7536 14.1522 13.6436 14.4069 11.1363 14.4069C11.0133 14.4069 10.8902 14.4069 10.8317 14.4069V12.2077C10.8317 11.2281 9.54873 10.9391 8.87505 11.4436L1.35904 16.7971C0.784945 17.2036 0.784945 17.9383 1.35319 18.3497C3.66715 20.0101 8.87505 23.762 8.87505 23.762C9.40814 24.2077 10.8317 24.0657 10.8317 22.9979V20.9555C10.8317 20.9555 10.8317 20.9555 10.8375 20.9506C13.3507 21.0093 20.5913 20.4314 24.3406 12.5751C24.5807 12.1097 24.3464 11.5906 23.8485 11.3408ZM11.0777 18.9032C10.3454 18.9032 9.85336 18.8542 9.85336 18.8542C9.12109 18.7318 8.4474 19.202 8.4474 19.824V20.7938L3.92491 17.5759L8.4474 14.3579V15.3277C8.4474 15.891 8.93363 16.2975 9.54873 16.3514C9.60731 16.3514 10.158 16.4004 11.1363 16.4004C13.3975 16.4004 16.8831 16.1946 19.7536 15.1759C16.8831 18.3448 13.2745 18.9032 11.0777 18.9032Z" fill="black"/>
<path d="M2.61276 12.3987C5.12004 9.84196 11.2301 9.58727 13.7374 9.58727C13.8604 9.58727 13.9834 9.58727 14.042 9.58727V11.7865C14.042 12.766 15.3249 13.055 15.9986 12.5505L23.5146 7.20197C24.0887 6.79544 24.0887 6.06074 23.5205 5.64931C21.2065 3.98401 15.9928 0.237075 15.9928 0.237075C15.4597 -0.208639 14.0361 -0.0665978 14.0361 1.00116V3.0436C14.0361 3.0436 14.0361 3.0436 14.0303 3.0485C11.5171 2.99462 4.27647 3.57258 0.533116 11.4289C0.287074 11.8893 0.527258 12.4085 1.01934 12.6534C1.76333 13.0256 2.36672 12.6534 2.61276 12.3987ZM13.796 5.09095C14.5282 5.09095 15.0203 5.13993 15.0203 5.13993C15.7526 5.26238 16.4263 4.79217 16.4263 4.17013V3.20034L20.9488 6.41829L16.4263 9.63625V8.66645C16.4263 8.10319 15.94 7.69666 15.3249 7.64278C15.2664 7.64278 14.7157 7.5938 13.7374 7.5938C11.4761 7.5938 7.99054 7.79952 5.12004 8.81829C7.99054 5.65421 11.5933 5.09095 13.796 5.09095Z" fill="black"/>
</svg>
