<svg width="96" height="96" viewBox="0 0 96 96" fill="none" xmlns="http://www.w3.org/2000/svg">
<path d="M88.8043 96H63.2032C62.0256 96 61.0699 95.0443 61.0699 93.8667V58.3424C61.0699 57.1648 62.0256 56.2091 63.2032 56.2091H73.2512L74.4864 46.6315H63.2032C62.0256 46.6315 61.0699 45.6757 61.0699 44.4981V35.6597C61.0699 31.8507 62.0021 26.7861 70.064 26.7861L75.2619 26.784V18.4629C73.2661 18.2987 70.1451 18.1216 66.7125 18.1216C56.8992 18.1216 51.04 24.1653 51.04 34.288V44.4981C51.04 45.6757 50.0843 46.6315 48.9067 46.6315H39.0848V56.2091H48.9067C50.0843 56.2091 51.04 57.1648 51.04 58.3424V93.8667C51.04 95.0443 50.0843 96 48.9067 96H7.1968C3.2288 96 0 92.7723 0 88.8032V7.1968C0 3.22773 3.2288 0 7.1968 0H88.8043C92.7723 0 96 3.22773 96 7.1968V88.8032C96 92.7723 92.7723 96 88.8043 96ZM65.3365 91.7333H88.8043C90.4203 91.7333 91.7333 90.4192 91.7333 88.8032V7.1968C91.7333 5.5808 90.4203 4.26667 88.8043 4.26667H7.1968C5.5808 4.26667 4.26667 5.5808 4.26667 7.1968V88.8032C4.26667 90.4192 5.5808 91.7333 7.1968 91.7333H46.7733V60.4757H36.9515C35.7739 60.4757 34.8181 59.52 34.8181 58.3424V44.4981C34.8181 43.3205 35.7739 42.3648 36.9515 42.3648H46.7733V34.288C46.7733 21.6843 54.4139 13.8549 66.7125 13.8549C71.7931 13.8549 76.2923 14.2347 77.6757 14.4192C78.736 14.56 79.5275 15.4645 79.5275 16.5333V28.9152C79.5275 30.0928 78.5728 31.0485 77.3952 31.0485L70.064 31.0517C65.8027 31.0517 65.3355 32.5269 65.3355 35.6587V42.3637H76.912C77.5253 42.3637 78.1088 42.6283 78.5141 43.088C78.9195 43.5488 79.1061 44.1611 79.0272 44.7701L77.2416 58.6144C77.104 59.6779 76.1984 60.4747 75.1264 60.4747H65.3355L65.3365 91.7333Z" fill="black"/>
</svg>
