<svg width="24" height="24" viewBox="0 0 24 24" fill="none" xmlns="http://www.w3.org/2000/svg">
<path d="M20.5 0C22.25 0 24 1.375 24 3.25V19.875C24 22.625 22.5 24 20.5 24V23.5H20.4883H20.4765H20.4648H20.453H20.4412H20.4294H20.4176H20.4058H20.3939H20.382H20.3702H20.3583H20.3464H20.3344H20.3225H20.3106H20.2986H20.2866H20.2746H20.2626H20.2506H20.2386H20.2265H20.2145H20.2024H20.1903H20.1783H20.1662H20.154H20.1419H20.1298H20.1176H20.1055H20.0933H20.0811H20.0689H20.0567H20.0445H20.0323H20.0201H20.0078H19.9956H19.9833H19.971H19.9588H19.9465H19.9342H19.9219H19.9095H19.8972H19.8849H19.8725H19.8602H19.8478H19.8355H19.8231H19.8107H19.7983H19.7859H19.7735H19.7611H19.7487H19.7363H19.7239H19.7114H19.699H19.6865H19.6741H19.6616H19.6492H19.6367H19.6242H19.6117H19.5993H19.5868H19.5743H19.5618H19.5493H19.5368H19.5243H19.5117H19.4992H19.4867H19.4742H19.4616H19.4491H19.4366H19.424H19.4115H19.399H19.3864H19.3739H19.3613H19.3488H19.3362H19.3237H19.3111H19.2985H19.286H19.2734H19.2609H19.2483H19.2357H19.2232H19.2106H19.1981H19.1855H19.1729H19.1604H19.1478H19.1353H19.1227H19.1101H19.0976H19.085H19.0725H19.0599H19.0474H19.0348H19.0223H19.0097H18.9972H18.9847H18.9721H18.9596H18.9471H18.9345H18.922H18.9095H18.897H18.8844H18.8719H18.8594H18.8469H18.8344H18.8219H18.8095H18.797H18.7845H18.772H18.7596H18.7471H18.7346H18.7222H18.7097H18.6973H18.6849H18.6724H18.66H18.6476H18.6352H18.6228H18.6104H18.598H18.5856H18.5733H18.5609H18.5486H18.5362H18.5239H18.5115H18.4992H18.4869H18.4746H18.4623H18.45H18.4377H18.4255H18.4132H18.401H18.3887H18.3765H18.3643H18.3521H18.3399H18.3277H18.3155H18.3033H18.2912H18.279H18.2669H18.2548H18.2427H18.2306H18.2185H18.2064H18.1944H18.1823H18.1703H18.1582H18.1462H18.1342H18.1223H18.1103H18.0983H18.0864H18.0744H18.0625H18.0506H18.0387H18.0269H18.015H18.0032H17.9913H17.9795H17.9677H17.9559H17.9442H17.9324H17.9207H17.909H17.8972H17.8856H17.8739H17.8622H17.8506H17.839H17.8274H17.8158H17.8042H17.7926H17.7811H17.7696H17.7581H17.7466H17.7351H17.7237H17.7123H17.7009H17.6895H17.6781H17.6667H17.6554H17.6441H17.6328H17.6215H17.6103H17.599H17.5878H17.5766H17.5655H17.5543H17.5432H17.5321H17.521H17.5099H17.4988H17.4878H17.4768H17.4658H17.4549H17.4439H17.433H17.4221H17.4112H17.4004H17.3896H17.3788H17.368H17.3572H17.3465H17.3358H17.3251H17.3144H17.3038H17.2932H17.2826H17.272H17.2615H17.251H17.2405H17.23H17.2196H17.2092H17.1988H17.1884H17.1781H17.1678H17.1575H17.1472H17.137H17.1268H17.1166H17.1065H17.0964H17.0863H17.0762H17.0661H17.0561H17.0461H17.0362H17.0263H17.0164H17.0065H16.9966H16.9868H16.977H16.9673H16.9576H16.9479H16.9382H16.9286H16.9189H16.9094H16.8998H16.8903H16.8808H16.8714H16.8619H16.8525H16.8432H16.8338H16.8245H16.8153H16.806H16.7968H16.7876H16.7785H16.7694H16.7603H16.7513H16.7423H16.7333H16.7243H16.7154H16.7065H16.6977H16.6889H16.6801H16.6714H16.6626H16.654H16.6453H16.6367H16.6281H16.6196H16.6111H16.6026H16.5942H16.5858H16.5774H16.5691H16.5608H16.5526H16.5444H16.5362H16.528H16.5199H16.5119H16.5038H16.4958H16.4879H16.4799H16.4721H16.4642H16.4564H16.4486H16.4409H16.4332H16.4256H16.4179H16.4104H16.4028H16.3953H16.3879H16.3804H16.3731H16.3657H16.3584H16.3512H16.3439H16.3368H16.3296H16.3225H16.3155H16.3084H16.3015H16.2945H16.2876H16.2808H16.274H16.2672H16.2605H16.2538H16.2472H16.2406H16.234H16.2275H16.221H16.2146H16.2082H16.2019H16.1956H16.1893H16.1831H16.1769H16.1708H16.1647H16.1587H16.1527H16.1468H16.1409H16.135H16.1292H16.1234H16.1177H16.112H16.1064H16.1008H16.0953H16.0898H16.0844H16.079H16.0736H16.0683H16.0631H16.0579H16.0527H16.0476H16.0425H16.0375H16.0325H16.0276H16.0228H16.0179H16.0132H16.0084H16.0038H15.9991H15.9945H15.99H15.9855H15.9811H15.9767H15.9724H15.9681H15.9639H15.9597H15.9556H15.9515H15.9475H15.9435H15.9395H15.9357H15.9318H15.9281H15.9244H15.9207H15.9171H15.9135H15.91H15.9065H15.9031H15.8998H15.8965H15.8932H15.89H15.8869H15.8838H15.8808H15.8778H15.8749H15.872H15.8692H15.8664H15.8637H15.861H15.8584H15.8559H15.8534H15.851H15.8486H15.8463H15.844H15.8418H15.8397H15.8376H15.8355H15.8335H15.8316H15.8297H15.8279H15.8262H15.8245H15.8228H15.8212H15.8197H15.8182H15.8168H15.8155H15.8142H15.813H15.8118H15.8107H15.8096H15.8086H15.8077H15.8068H15.806H15.8052H15.8045H15.8039H15.8033H15.8028H15.8023H15.8019H15.8016H15.8013H15.8011H15.8009H15.8008L15.8008 24V23.5C15.7825 23.5 15.7675 23.4849 15.7675 23.4667V14.5856C15.7675 14.5673 15.7825 14.5523 15.8008 14.5523H18.3128H18.7525L18.8087 14.1162L19.1175 11.7218L19.1902 11.1579H18.6216H15.8008C15.7825 11.1579 15.7675 11.1428 15.7675 11.1245V8.91493C15.7675 8.46075 15.8279 8.04104 16.0432 7.73868C16.2337 7.47123 16.6195 7.19653 17.516 7.19653H17.5162L18.8157 7.196L19.3155 7.1958V6.696V4.61573V4.1552L18.8565 4.11742C18.3462 4.07542 17.5521 4.0304 16.6781 4.0304C15.3474 4.0304 14.2268 4.44264 13.4401 5.25417C12.6553 6.06371 12.26 7.21133 12.26 8.572V11.1245C12.26 11.1428 12.2449 11.1579 12.2267 11.1579H9.7712H9.2712V11.6579V14.0523V14.5523H9.7712H12.2267C12.2449 14.5523 12.26 14.5673 12.26 14.5856V23.4667C12.26 23.4849 12.2449 23.5 12.2267 23.5V24M20.5 0H3.375C1.25 0 0 1.125 0 3.25V19.875C0 21.75 1.25 24 3.375 24H12.2267M20.5 0C20.5 0.5 20.4999 0.5 20.4998 0.5H20.4993H20.4985H20.4973H20.4957H20.4939H20.4917H20.4891H20.4862H20.483H20.4795H20.4756H20.4714H20.4669H20.4621H20.4569H20.4514H20.4456H20.4395H20.433H20.4262H20.4191H20.4117H20.404H20.396H20.3876H20.3789H20.37H20.3607H20.3511H20.3412H20.331H20.3205H20.3097H20.2986H20.2872H20.2755H20.2635H20.2512H20.2386H20.2258H20.2126H20.1991H20.1854H20.1713H20.157H20.1424H20.1275H20.1123H20.0968H20.0811H20.065H20.0487H20.0321H20.0153H19.9981H19.9807H19.9631H19.9451H19.9269H19.9084H19.8896H19.8706H19.8513H19.8318H19.812H19.7919H19.7715H19.7509H19.7301H19.709H19.6876H19.666H19.6441H19.622H19.5997H19.577H19.5542H19.5311H19.5077H19.4841H19.4603H19.4362H19.4119H19.3873H19.3625H19.3375H19.3122H19.2867H19.2609H19.235H19.2088H19.1824H19.1557H19.1288H19.1017H19.0744H19.0468H19.0191H18.9911H18.9629H18.9344H18.9058H18.8769H18.8479H18.8186H18.7891H18.7594H18.7294H18.6993H18.669H18.6385H18.6077H18.5768H18.5456H18.5143H18.4828H18.451H18.4191H18.387H18.3546H18.3221H18.2894H18.2565H18.2234H18.1902H18.1567H18.123H18.0892H18.0552H18.021H17.9866H17.9521H17.9174H17.8825H17.8474H17.8121H17.7767H17.7411H17.7053H17.6694H17.6333H17.597H17.5606H17.524H17.4872H17.4503H17.4132H17.376H17.3386H17.301H17.2633H17.2254H17.1874H17.1492H17.1109H17.0724H17.0338H16.9951H16.9561H16.9171H16.8779H16.8386H16.7991H16.7595H16.7197H16.6798H16.6398H16.5996H16.5593H16.5189H16.4784H16.4377H16.3969H16.3559H16.3149H16.2737H16.2324H16.1909H16.1494H16.1077H16.0659H16.024H15.982H15.9399H15.8976H15.8553H15.8128H15.7702H15.7275H15.6847H15.6418H15.5988H15.5557H15.5125H15.4692H15.4258H15.3823H15.3387H15.295H15.2512H15.2074H15.1634H15.1193H15.0752H15.0309H14.9866H14.9422H14.8977H14.8531H14.8084H14.7637H14.7189H14.674H14.629H14.584H14.5388H14.4936H14.4484H14.403H14.3576H14.3121H14.2666H14.221H14.1753H14.1296H14.0838H14.0379H13.992H13.946H13.9H13.8539H13.8078H13.7616H13.7153H13.669H13.6227H13.5763H13.5298H13.4833H13.4368H13.3902H13.3436H13.297H13.2503H13.2035H13.1568H13.11H13.0631H13.0162H12.9693H12.9224H12.8754H12.8284H12.7814H12.7344H12.6873H12.6402H12.5931H12.546H12.4988H12.4516H12.4044H12.3572H12.31H12.2628H12.2155H12.1683H12.121H12.0737H12.0265H11.9792H11.9319H11.8846H11.8373H11.79H11.7427H11.6954H11.6481H11.6008H11.5536H11.5063H11.459H11.4118H11.3645H11.3173H11.2701H11.2229H11.1757H11.1285H11.0814H11.0342H10.9871H10.94H10.8929H10.8459H10.7989H10.7519H10.7049H10.658H10.6111H10.5642H10.5173H10.4705H10.4238H10.377H10.3303H10.2837H10.2371H10.1905H10.144H10.0975H10.051H10.0046H9.95827H9.91197H9.86573H9.81953H9.77339H9.72729H9.68126H9.63528H9.58936H9.5435H9.4977H9.45196H9.40629H9.36068H9.31513H9.26965H9.22424H9.17889H9.13362H9.08842H9.04329H8.99824H8.95326H8.90836H8.86354H8.81879H8.77413H8.72955H8.68505H8.64063H8.5963H8.55206H8.5079H8.46383H8.41986H8.37597H8.33218H8.28848H8.24488H8.20137H8.15797H8.11466H8.07145H8.02834H7.98533H7.94243H7.89964H7.85695H7.81437H7.7719H7.72953H7.68728H7.64515H7.60312H7.56121H7.51942H7.47775H7.43619H7.39476H7.35344H7.31225H7.27119H7.23025H7.18943H7.14874H7.10818H7.06776H7.02746H6.9873H6.94727H6.90737H6.86761H6.82799H6.78851H6.74917H6.70997H6.67091H6.632H6.59323H6.55461H6.51613H6.4778H6.43963H6.4016H6.36373H6.32602H6.28845H6.25105H6.2138H6.17671H6.13978H6.10301H6.0664H6.02996H5.99369H5.95758H5.92163H5.88586H5.85026H5.81482H5.77956H5.74448H5.70957H5.67483H5.64027H5.60589H5.5717H5.53768H5.50384H5.47019H5.43673H5.40345H5.37036H5.33745H5.30474H5.27222H5.23989H5.20775H5.17581H5.14407H5.11252H5.08117H5.05002H5.01908H4.98833H4.95779H4.92745H4.89733H4.8674H4.83769H4.80819H4.77889H4.74981H4.72095H4.6923H4.66386H4.63564H4.60764H4.57986H4.55231H4.52497H4.49786H4.47097H4.44431H4.41788H4.39167H4.3657H4.33995H4.31444H4.28917H4.26412H4.23932H4.21475H4.19042H4.16632H4.14247H4.11887H4.0955H4.07238H4.04951H4.02689H4.00451H3.98238H3.96051H3.93888H3.91751H3.8964H3.87554H3.85493H3.83459H3.81451H3.79468H3.77512H3.75583H3.73679H3.71803H3.69953H3.6813H3.66334H3.64565H3.62823H3.61109H3.59422H3.57763H3.56131H3.54527H3.52952H3.51404H3.49884H3.48393H3.46931H3.45497H3.44091H3.42715H3.41367H3.40049H3.3876H3.375C2.39645 0.5 1.69191 0.758416 1.23422 1.19136C0.780975 1.62011 0.5 2.28617 0.5 3.25V3.26257V3.27538V3.28843V3.30172V3.31524V3.329V3.34299V3.35722V3.37168V3.38637V3.40129V3.41644V3.43182V3.44743V3.46327V3.47933V3.49562V3.51213V3.52887V3.54582V3.563V3.5804V3.59802V3.61585V3.63391V3.65218V3.67066V3.68936V3.70828V3.72741V3.74675V3.7663V3.78606V3.80603V3.8262V3.84659V3.86718V3.88797V3.90897V3.93017V3.95158V3.97319V3.99499V4.017V4.03921V4.06161V4.08421V4.107V4.12999V4.15318V4.17655V4.20012V4.22388V4.24783V4.27197V4.29629V4.32081V4.34551V4.37039V4.39546V4.42071V4.44615V4.47176V4.49756V4.52353V4.54969V4.57602V4.60253V4.62922V4.65608V4.68311V4.71031V4.73769V4.76524V4.79296V4.82085V4.84891V4.87713V4.90552V4.93407V4.96279V4.99168V5.02072V5.04993V5.0793V5.10882V5.13851V5.16835V5.19835V5.22851V5.25882V5.28928V5.3199V5.35067V5.38159V5.41266V5.44388V5.47525V5.50676V5.53842V5.57023V5.60218V5.63427V5.66651V5.69889V5.73141V5.76407V5.79686V5.8298V5.86287V5.89608V5.92942V5.9629V5.99651V6.03025V6.06412V6.09812V6.13225V6.16651V6.2009V6.23542V6.27005V6.30482V6.3397V6.37471V6.40985V6.4451V6.48047V6.51596V6.55157V6.58729V6.62313V6.65909V6.69516V6.73134V6.76763V6.80404V6.84056V6.87718V6.91391V6.95076V6.9877V7.02476V7.06191V7.09917V7.13654V7.174V7.21157V7.24923V7.287V7.32486V7.36282V7.40087V7.43902V7.47726V7.5156V7.55403V7.59255V7.63116V7.66986V7.70865V7.74752V7.78649V7.82553V7.86467V7.90388V7.94318V7.98256V8.02202V8.06156V8.10118V8.14087V8.18065V8.2205V8.26042V8.30042V8.3405V8.38064V8.42085V8.46114V8.5015V8.54192V8.58241V8.62297V8.66359V8.70428V8.74503V8.78584V8.82672V8.86766V8.90865V8.94971V8.99082V9.03199V9.07322V9.1145V9.15583V9.19722V9.23866V9.28015V9.3217V9.36329V9.40493V9.44662V9.48835V9.53013V9.57195V9.61382V9.65573V9.69769V9.73968V9.78171V9.82379V9.8659V9.90804V9.95023V9.99244V10.0347V10.077V10.1193V10.1617V10.204V10.2464V10.2889V10.3313V10.3738V10.4164V10.4589V10.5015V10.5441V10.5867V10.6293V10.6719V10.7146V10.7573V10.8V10.8427V10.8855V10.9282V10.971V11.0138V11.0566V11.0993V11.1422V11.185V11.2278V11.2706V11.3135V11.3563V11.3992V11.442V11.4849V11.5277V11.5706V11.6134V11.6562V11.6991V11.7419V11.7848V11.8276V11.8704V11.9132V11.9561V11.9989V12.0416V12.0844V12.1272V12.1699V12.2127V12.2554V12.2981V12.3408V12.3835V12.4261V12.4687V12.5113V12.5539V12.5965V12.639V12.6816V12.724V12.7665V12.809V12.8514V12.8937V12.9361V12.9784V13.0207V13.0629V13.1052V13.1473V13.1895V13.2316V13.2737V13.3157V13.3577V13.3996V13.4416V13.4834V13.5252V13.567V13.6088V13.6504V13.6921V13.7337V13.7752V13.8167V13.8581V13.8995V13.9409V13.9821V14.0234V14.0645V14.1057V14.1467V14.1877V14.2286V14.2695V14.3103V14.3511V14.3918V14.4324V14.4729V14.5134V14.5538V14.5942V14.6345V14.6747V14.7148V14.7549V14.7949V14.8348V14.8747V14.9145V14.9541V14.9938V15.0333V15.0728V15.1121V15.1514V15.1907V15.2298V15.2688V15.3078V15.3467V15.3854V15.4241V15.4628V15.5013V15.5397V15.578V15.6163V15.6544V15.6925V15.7304V15.7683V15.806V15.8437V15.8813V15.9187V15.9561V15.9934V16.0305V16.0676V16.1045V16.1413V16.1781V16.2147V16.2512V16.2876V16.3239V16.3601V16.3962V16.4321V16.4679V16.5037V16.5393V16.5748V16.6101V16.6454V16.6805V16.7155V16.7504V16.7852V16.8198V16.8543V16.8887V16.9229V16.9571V16.9911V17.0249V17.0587V17.0923V17.1258V17.1591V17.1923V17.2254V17.2583V17.2911V17.3238V17.3563V17.3886V17.4209V17.453V17.4849V17.5167V17.5484V17.5799V17.6113V17.6425V17.6735V17.7045V17.7352V17.7658V17.7963V17.8266V17.8568V17.8867V17.9166V17.9463V17.9758V18.0052V18.0344V18.0634V18.0923V18.121V18.1495V18.1779V18.2062V18.2342V18.2621V18.2898V18.3173V18.3447V18.3719V18.399V18.4258V18.4525V18.479V18.5053V18.5315V18.5574V18.5832V18.6088V18.6343V18.6595V18.6846V18.7095V18.7342V18.7587V18.783V18.8071V18.8311V18.8548V18.8784V18.9018V18.9249V18.9479V18.9707V18.9933V19.0157V19.0379V19.0599V19.0817V19.1033V19.1247V19.1459V19.1669V19.1877V19.2083V19.2287V19.2488V19.2688V19.2886V19.3081V19.3274V19.3466V19.3655V19.3842V19.4026V19.4209V19.439V19.4568V19.4744V19.4918V19.509V19.5259V19.5427V19.5592V19.5754V19.5915V19.6073V19.6229V19.6383V19.6535V19.6684V19.6831V19.6975V19.7117V19.7257V19.7395V19.753V19.7663V19.7793V19.7921V19.8047V19.817V19.8291V19.8409V19.8525V19.8639V19.875C0.5 20.712 0.781977 21.6394 1.29534 22.347C1.80346 23.0474 2.50965 23.5 3.375 23.5H3.3875H3.40011H3.41283H3.42564H3.43856H3.45158H3.46471H3.47794H3.49126H3.50469H3.51822H3.53185H3.54558H3.55941H3.57333H3.58735H3.60147H3.61569H3.63H3.64441H3.65892H3.67352H3.68821H3.70299H3.71787H3.73285H3.74791H3.76307H3.77831H3.79365H3.80908H3.8246H3.8402H3.8559H3.87168H3.88755H3.90351H3.91956H3.93569H3.9519H3.96821H3.98459H4.00106H4.01762H4.03425H4.05097H4.06777H4.08465H4.10162H4.11866H4.13579H4.15299H4.17027H4.18763H4.20507H4.22259H4.24018H4.25785H4.2756H4.29342H4.31132H4.32929H4.34733H4.36545H4.38364H4.40191H4.42024H4.43865H4.45713H4.47568H4.49429H4.51298H4.53174H4.55056H4.56945H4.58841H4.60744H4.62653H4.64569H4.66492H4.6842H4.70356H4.72297H4.74246H4.762H4.7816H4.80127H4.821H4.84079H4.86064H4.88055H4.90051H4.92054H4.94063H4.96077H4.98097H5.00123H5.02154H5.04191H5.06233H5.08281H5.10334H5.12393H5.14457H5.16526H5.18601H5.2068H5.22765H5.24855H5.2695H5.2905H5.31154H5.33264H5.35378H5.37497H5.39621H5.4175H5.43883H5.4602H5.48162H5.50309H5.5246H5.54615H5.56775H5.58939H5.61107H5.63279H5.65456H5.67636H5.69821H5.72009H5.74201H5.76397H5.78597H5.80801H5.83008H5.85219H5.87434H5.89652H5.91874H5.94099H5.96327H5.98559H6.00794H6.03032H6.05274H6.07519H6.09766H6.12017H6.14271H6.16528H6.18787H6.2105H6.23315H6.25583H6.27853H6.30127H6.32403H6.34681H6.36962H6.39245H6.41531H6.43819H6.46109H6.48402H6.50696H6.52993H6.55292H6.57593H6.59896H6.62201H6.64507H6.66816H6.69126H6.71438H6.73752H6.76067H6.78384H6.80702H6.83022H6.85343H6.87666H6.8999H6.92315H6.94641H6.96969H6.99298H7.01627H7.03958H7.0629H7.08623H7.10956H7.1329H7.15625H7.17961H7.20298H7.22635H7.24972H7.2731H7.29649H7.31988H7.34327H7.36667H7.39007H7.41347H7.43687H7.46027H7.48368H7.50708H7.53048H7.55388H7.57728H7.60068H7.62408H7.64747H7.67086H7.69425H7.71763H7.741H7.76437H7.78774H7.81109H7.83445H7.85779H7.88112H7.90445H7.92777H7.95107H7.97437H7.99766H8.02093H8.0442H8.06745H8.09068H8.11391H8.13712H8.16032H8.1835H8.20667H8.22982H8.25296H8.27608H8.29918H8.32226H8.34533H8.36838H8.39141H8.41441H8.4374H8.46037H8.48332H8.50624H8.52914H8.55202H8.57488H8.59771H8.62051H8.6433H8.66606H8.68879H8.71149H8.73417H8.75682H8.77944H8.80204H8.82461H8.84714H8.86965H8.89213H8.91457H8.93698H8.95937H8.98172H9.00403H9.02632H9.04856H9.07078H9.09296H9.1151H9.13721H9.15928H9.18132H9.20332H9.22528H9.2472H9.26908H9.29092H9.31273H9.33449H9.35621H9.37789H9.39952H9.42112H9.44267H9.46418H9.48564H9.50706H9.52844H9.54977H9.57105H9.59229H9.61347H9.63462H9.65571H9.67675H9.69775H9.7187H9.73959H9.76044H9.78123H9.80197H9.82266H9.8433H9.86388H9.88442H9.90489H9.92531H9.94568H9.96599H9.98625H10.0064H10.0266H10.0467H10.0667H10.0867H10.1066H10.1264H10.1462H10.1659H10.1856H10.2052H10.2247H10.2442H10.2636H10.283H10.3023H10.3215H10.3406H10.3597H10.3788H10.3977H10.4166H10.4354H10.4542H10.4729H10.4915H10.51H10.5285H10.5469H10.5652H10.5835H10.6017H10.6198H10.6378H10.6558H10.6737H10.6915H10.7093H10.7269H10.7445H10.762H10.7795H10.7968H10.8141H10.8313H10.8484H10.8655H10.8824H10.8993H10.9161H10.9328H10.9494H10.966H10.9825H10.9988H11.0151H11.0314H11.0475H11.0635H11.0795H11.0953H11.1111H11.1268H11.1424H11.1579H11.1734H11.1887H11.2039H11.2191H11.2341H11.2491H11.264H11.2788H11.2935H11.3081H11.3226H11.337H11.3513H11.3655H11.3796H11.3936H11.4075H11.4214H11.4351H11.4487H11.4622H11.4757H11.489H11.5022H11.5153H11.5283H11.5413H11.5541H11.5668H11.5794H11.5919H11.6043H11.6166H11.6288H11.6408H11.6528H11.6647H11.6764H11.688H11.6996H11.711H11.7223H11.7335H11.7446H11.7556H11.7665H11.7772H11.7878H11.7984H11.8088H11.8191H11.8293H11.8393H11.8493H11.8591H11.8688H11.8784H11.8879H11.8972H11.9065H11.9156H11.9246H11.9335H11.9422H11.9509H11.9594H11.9678H11.976H11.9842H11.9922H12.0001H12.0078H12.0155H12.023H12.0304H12.0376H12.0448H12.0518H12.0586H12.0654H12.072H12.0785H12.0848H12.091H12.0971H12.1031H12.1089H12.1146H12.1201H12.1256H12.1308H12.136H12.141H12.1459H12.1506H12.1552H12.1597H12.164H12.1682H12.1722H12.1761H12.1799H12.1835H12.187H12.1903H12.1935H12.1965H12.1995H12.2022H12.2048H12.2073H12.2096H12.2118H12.2138H12.2157H12.2175H12.2191H12.2205H12.2218H12.2229H12.2239H12.2248H12.2254H12.226H12.2264H12.2266L12.2267 24M20.5 0L12.2267 24M20.5 0V0.5V0Z" fill="#2D2E2E" stroke="black"/>
</svg>
