<svg width="28" height="70" viewBox="0 0 28 70" fill="none" xmlns="http://www.w3.org/2000/svg">
<g clip-path="url(#clip0_1790_45)">
<path d="M15.7559 2.89648C16.5782 2.89648 17.302 3.11926 17.8906 3.59473H17.8896C18.4973 4.06613 18.8037 4.71661 18.8037 5.49609C18.8037 6.03647 18.6516 6.55672 18.1953 6.8584L18.1963 6.85938C18.087 6.93499 17.9687 6.99417 17.8447 7.04297C18.0578 7.22009 18.1884 7.46747 18.1885 7.76367C18.1885 8.06847 18.0468 8.3983 17.8721 8.70898L17.8652 8.72168C17.7013 8.99485 17.5175 9.31541 17.3145 9.68457C17.117 10.0436 16.937 10.4121 16.7754 10.7891L16.7725 10.7969L16.3164 10.5918L16.7715 10.7969C16.6263 11.1195 16.5645 11.4047 16.5645 11.6562C16.5645 11.8415 16.6126 12.0386 16.7256 12.2529C16.7737 12.3347 16.8379 12.3876 17.0156 12.3877C17.1517 12.3877 17.3588 12.3369 17.6504 12.1768C17.938 12.0187 18.2779 11.7711 18.6719 11.4219C19.438 10.7241 20.2369 9.66438 21.0615 8.2168L21.3857 7.64648L22.3604 8.62109L22.2422 8.9248C21.8335 9.97578 21.3045 10.9087 20.6533 11.7178C20.0087 12.5186 19.3046 13.1559 18.5391 13.6201C17.7862 14.088 17.0153 14.3398 16.2324 14.3398C15.4405 14.3398 14.7627 14.1008 14.3047 13.541L14.2959 13.5303L14.6924 13.2236L14.2959 13.5293C14.0522 13.2138 13.8833 12.8723 13.793 12.5088C13.3123 13.0687 12.85 13.5295 12.4062 13.8877L12.4072 13.8887C11.6855 14.4867 10.9041 14.8163 10.0723 14.8164C9.37514 14.8164 8.76688 14.5763 8.2793 14.0967V14.0977C8.27606 14.0947 8.27275 14.0918 8.26953 14.0889C8.26725 14.0866 8.26498 14.0843 8.2627 14.082V14.0811C7.72339 13.5795 7.50003 12.848 7.5 11.9922C7.5 11.247 7.66599 10.4676 7.98145 9.6582H7.98047C8.25567 8.93581 8.61994 8.23146 9.07129 7.5459L9.27051 7.25293C9.81185 6.46099 10.4218 5.7445 11.1006 5.10449L11.3652 4.8623C11.9874 4.31062 12.6372 3.85859 13.3154 3.51074L13.3203 3.50879C14.1261 3.10587 14.9396 2.89651 15.7559 2.89648ZM15.7002 4.65234C15.3023 4.65234 14.8672 4.79335 14.3877 5.12402L14.3779 5.12988C13.8877 5.45106 13.4017 5.89915 12.9229 6.48438L12.918 6.49023C12.4358 7.06168 12.0067 7.68834 11.6299 8.37012C11.2516 9.05458 10.9562 9.72488 10.7432 10.3818C10.5302 11.0386 10.4316 11.6016 10.4316 12.0762C10.4317 12.3978 10.4906 12.5503 10.5322 12.6104C10.5488 12.6342 10.5621 12.6436 10.5742 12.6494C10.5888 12.6564 10.6228 12.668 10.6885 12.668C10.9627 12.6678 11.3204 12.5412 11.7744 12.1895C12.2489 11.8025 12.7407 11.3136 13.2471 10.7168L13.248 10.7158C13.7807 10.0913 14.2853 9.44811 14.7627 8.78711C15.2451 8.11922 15.6709 7.50876 16.04 6.95508C16.0805 6.89442 16.1226 6.83473 16.1631 6.78613C16.1821 6.76331 16.2123 6.72857 16.251 6.69531C16.2704 6.67867 16.3041 6.65221 16.3486 6.62793C16.3686 6.61707 16.4011 6.6003 16.4443 6.58691L16.4473 6.5791C16.4787 6.45352 16.5031 6.31678 16.5195 6.16895L16.5215 6.14746L16.5254 6.12598C16.5579 5.96326 16.5723 5.82861 16.5723 5.71973C16.5722 5.37259 16.4896 5.11195 16.3516 4.91113L16.3438 4.89941C16.2602 4.7705 16.0971 4.65238 15.7002 4.65234ZM15.0195 -0.5C15.5297 -0.5 16.0223 -0.490633 16.4961 -0.47168C16.9608 -0.453089 17.3996 -0.42379 17.8125 -0.386719L17.8135 -0.387695C18.2377 -0.36925 18.6137 -0.341044 18.9395 -0.303711L19.7695 -0.246094L21.2217 -0.114258L19.9941 0.672852C19.2164 1.17143 18.443 1.46225 17.6807 1.50586L17.6816 1.50684C17.0369 1.54476 16.3826 1.56445 15.7197 1.56445H12.8916C12.594 1.56447 12.2855 1.58178 11.9668 1.61719L11.9395 1.61914C11.6123 1.63732 11.2754 1.66468 10.9287 1.70117C10.5884 1.737 10.2178 1.79146 9.81738 1.86426L8.92773 2.02539L9.26367 1.18652C9.42265 0.789088 9.71096 0.484185 10.0908 0.268555L10.2354 0.188477C10.5757 0.0111776 10.968 -0.116586 11.4033 -0.205078V-0.206055C11.9039 -0.326201 12.4655 -0.404645 13.085 -0.443359C13.6937 -0.481399 14.3386 -0.499991 15.0195 -0.5Z" stroke="black"/>
</g>
<defs>
<clipPath id="clip0_1790_45">
<rect width="28" height="70" fill="white"/>
</clipPath>
</defs>
</svg>
