<svg width="24" height="24" viewBox="0 0 24 24" fill="none" xmlns="http://www.w3.org/2000/svg">
<g id="GMaps">
<g id="GMaps_2">
<mask id="path-1-inside-1_0_1" fill="white">
<path d="M9.22104 6.55788H7.83156C7.6397 6.55788 7.4842 6.71343 7.4842 6.90524C7.4842 7.09709 7.63975 7.2526 7.83156 7.2526H8.8332C8.67602 7.91569 8.07889 8.41048 7.3684 8.41048C6.53841 8.41048 5.86312 7.73518 5.86312 6.90519C5.86312 6.07521 6.53846 5.4 7.3684 5.4C7.73535 5.4 8.08881 5.53355 8.36364 5.77593C8.50759 5.90286 8.72707 5.88907 8.85396 5.74521C8.98084 5.60135 8.96709 5.38182 8.82323 5.25489C8.42139 4.90045 7.90473 4.70524 7.3684 4.70524C6.15535 4.70524 5.1684 5.69219 5.1684 6.90524C5.1684 8.11829 6.15535 9.10524 7.3684 9.10524C8.58145 9.10524 9.5684 8.11829 9.5684 6.90524C9.56844 6.71343 9.41289 6.55788 9.22104 6.55788Z"/>
<path d="M17.5579 2.85264C16.3448 2.85264 15.3579 3.83959 15.3579 5.05264C15.3579 6.26569 16.3448 7.25264 17.5579 7.25264C18.7709 7.25264 19.7579 6.26569 19.7579 5.05264C19.7579 3.83959 18.7709 2.85264 17.5579 2.85264ZM17.5579 6.55788C16.7279 6.55788 16.0526 5.88258 16.0526 5.0526C16.0526 4.22261 16.7279 3.54732 17.5579 3.54732C18.3879 3.54732 19.0632 4.22261 19.0632 5.0526C19.0632 5.88258 18.3879 6.55788 17.5579 6.55788Z"/>
<path d="M21.7465 6.89772C21.9506 6.40521 22.0737 5.93466 22.0737 5.5158C22.0737 3.02576 20.0479 1 17.5579 1C16.7833 1 16.0537 1.19611 15.416 1.54115C14.3165 1.18227 13.1674 1 12 1C9.06184 1 6.29946 2.14417 4.22184 4.22184C2.14417 6.29946 1 9.06184 1 12C1 14.9382 2.14417 17.7005 4.22184 19.7782C6.29946 21.8558 9.06184 23 12 23C14.9382 23 17.7005 21.8558 19.7782 19.7782C21.8558 17.7005 23 14.9382 23 12C23 10.2232 22.5662 8.46114 21.7465 6.89772ZM17.5579 1.69472C19.6649 1.69472 21.3789 3.40883 21.3789 5.51576C21.3789 7.16859 18.8176 10.1864 17.5578 11.5026C16.2981 10.1868 13.7368 7.16975 13.7368 5.51576C13.7368 3.40883 15.4509 1.69472 17.5579 1.69472ZM1.69472 12C1.69472 6.31764 6.31764 1.69472 12 1.69472C12.9085 1.69472 13.8049 1.81245 14.6725 2.04479C13.677 2.87382 13.0421 4.12198 13.0421 5.5158C13.0421 5.91679 13.1553 6.36529 13.344 6.83494L2.04311 14.6586C1.81632 13.8101 1.69472 12.9191 1.69472 12ZM12 22.3053C8.363 22.3053 5.16011 20.4113 3.32547 17.558L6.3228 15.3676C6.49312 15.2432 6.51229 14.996 6.36306 14.8468C6.36138 14.8451 6.35971 14.8435 6.35812 14.8419C6.23823 14.722 6.04891 14.7074 5.91206 14.8074L2.96857 16.9584C2.68773 16.4489 2.44878 15.9133 2.25632 15.3561L13.6394 7.47539C13.8404 7.86486 14.0797 8.2606 14.339 8.64917L7.28895 13.8011C7.11862 13.9256 7.09946 14.1728 7.24869 14.322C7.25036 14.3237 7.25204 14.3253 7.25363 14.3269C7.37351 14.4468 7.56283 14.4614 7.69969 14.3614L9.09029 13.3453L15.0415 21.847C14.0798 22.1447 13.0583 22.3053 12 22.3053ZM15.723 21.6091L9.65133 12.9353L10.9594 11.9793L17.1997 20.894C16.7298 21.1698 16.2364 21.4095 15.723 21.6091ZM17.7875 20.5223L11.5204 11.5694L14.7362 9.21941C15.8857 10.8056 17.2141 12.1473 17.3118 12.2453C17.377 12.3107 17.4656 12.3474 17.5579 12.3474C17.6502 12.3474 17.7387 12.3107 17.8039 12.2453C17.9322 12.1166 20.1816 9.84464 21.3625 7.68976C21.9804 9.03296 22.3052 10.511 22.3052 12C22.3053 15.5385 20.5123 18.6659 17.7875 20.5223Z"/>
</mask>
<path d="M9.22104 6.55788H7.83156C7.6397 6.55788 7.4842 6.71343 7.4842 6.90524C7.4842 7.09709 7.63975 7.2526 7.83156 7.2526H8.8332C8.67602 7.91569 8.07889 8.41048 7.3684 8.41048C6.53841 8.41048 5.86312 7.73518 5.86312 6.90519C5.86312 6.07521 6.53846 5.4 7.3684 5.4C7.73535 5.4 8.08881 5.53355 8.36364 5.77593C8.50759 5.90286 8.72707 5.88907 8.85396 5.74521C8.98084 5.60135 8.96709 5.38182 8.82323 5.25489C8.42139 4.90045 7.90473 4.70524 7.3684 4.70524C6.15535 4.70524 5.1684 5.69219 5.1684 6.90524C5.1684 8.11829 6.15535 9.10524 7.3684 9.10524C8.58145 9.10524 9.5684 8.11829 9.5684 6.90524C9.56844 6.71343 9.41289 6.55788 9.22104 6.55788Z" stroke="black" stroke-width="2" mask="url(#path-1-inside-1_0_1)"/>
<path d="M17.5579 2.85264C16.3448 2.85264 15.3579 3.83959 15.3579 5.05264C15.3579 6.26569 16.3448 7.25264 17.5579 7.25264C18.7709 7.25264 19.7579 6.26569 19.7579 5.05264C19.7579 3.83959 18.7709 2.85264 17.5579 2.85264ZM17.5579 6.55788C16.7279 6.55788 16.0526 5.88258 16.0526 5.0526C16.0526 4.22261 16.7279 3.54732 17.5579 3.54732C18.3879 3.54732 19.0632 4.22261 19.0632 5.0526C19.0632 5.88258 18.3879 6.55788 17.5579 6.55788Z" stroke="black" stroke-width="2" mask="url(#path-1-inside-1_0_1)"/>
<path d="M21.7465 6.89772C21.9506 6.40521 22.0737 5.93466 22.0737 5.5158C22.0737 3.02576 20.0479 1 17.5579 1C16.7833 1 16.0537 1.19611 15.416 1.54115C14.3165 1.18227 13.1674 1 12 1C9.06184 1 6.29946 2.14417 4.22184 4.22184C2.14417 6.29946 1 9.06184 1 12C1 14.9382 2.14417 17.7005 4.22184 19.7782C6.29946 21.8558 9.06184 23 12 23C14.9382 23 17.7005 21.8558 19.7782 19.7782C21.8558 17.7005 23 14.9382 23 12C23 10.2232 22.5662 8.46114 21.7465 6.89772ZM17.5579 1.69472C19.6649 1.69472 21.3789 3.40883 21.3789 5.51576C21.3789 7.16859 18.8176 10.1864 17.5578 11.5026C16.2981 10.1868 13.7368 7.16975 13.7368 5.51576C13.7368 3.40883 15.4509 1.69472 17.5579 1.69472ZM1.69472 12C1.69472 6.31764 6.31764 1.69472 12 1.69472C12.9085 1.69472 13.8049 1.81245 14.6725 2.04479C13.677 2.87382 13.0421 4.12198 13.0421 5.5158C13.0421 5.91679 13.1553 6.36529 13.344 6.83494L2.04311 14.6586C1.81632 13.8101 1.69472 12.9191 1.69472 12ZM12 22.3053C8.363 22.3053 5.16011 20.4113 3.32547 17.558L6.3228 15.3676C6.49312 15.2432 6.51229 14.996 6.36306 14.8468C6.36138 14.8451 6.35971 14.8435 6.35812 14.8419C6.23823 14.722 6.04891 14.7074 5.91206 14.8074L2.96857 16.9584C2.68773 16.4489 2.44878 15.9133 2.25632 15.3561L13.6394 7.47539C13.8404 7.86486 14.0797 8.2606 14.339 8.64917L7.28895 13.8011C7.11862 13.9256 7.09946 14.1728 7.24869 14.322C7.25036 14.3237 7.25204 14.3253 7.25363 14.3269C7.37351 14.4468 7.56283 14.4614 7.69969 14.3614L9.09029 13.3453L15.0415 21.847C14.0798 22.1447 13.0583 22.3053 12 22.3053ZM15.723 21.6091L9.65133 12.9353L10.9594 11.9793L17.1997 20.894C16.7298 21.1698 16.2364 21.4095 15.723 21.6091ZM17.7875 20.5223L11.5204 11.5694L14.7362 9.21941C15.8857 10.8056 17.2141 12.1473 17.3118 12.2453C17.377 12.3107 17.4656 12.3474 17.5579 12.3474C17.6502 12.3474 17.7387 12.3107 17.8039 12.2453C17.9322 12.1166 20.1816 9.84464 21.3625 7.68976C21.9804 9.03296 22.3052 10.511 22.3052 12C22.3053 15.5385 20.5123 18.6659 17.7875 20.5223Z" stroke="black" stroke-width="2" mask="url(#path-1-inside-1_0_1)"/>
</g>
</g>
</svg>
