<svg width="24" height="24" viewBox="0 0 24 24" fill="none" xmlns="http://www.w3.org/2000/svg">
<path fill="#BAC0D2" d="M12 24C18.6274 24 24 18.6274 24 12C24 5.37258 18.6274 0 12 0C5.37258 0 0 5.37258 0 12C0 18.6274 5.37258 24 12 24Z" />
<path fill="black" d="M23.73 14.539L16.393 7.2019L10.2761 7.69015L7.15154 10.5425L7.5525 16.7472L14.4995 23.7385C19.1077 22.7621 22.7384 19.1414 23.73 14.539Z" />
<path fill="white" d="M12.2618 10.897V13.1965H15.8579C15.3479 14.8425 13.8137 16.0382 12.0001 16.0382C9.76992 16.0382 7.96191 14.2302 7.96191 11.9999C7.96181 9.7698 9.76974 7.96178 12 7.96178C13.0422 7.96178 13.9891 8.36008 14.7056 9.00831L16.3929 7.20184C15.2355 6.14158 13.6935 5.49414 12 5.49414C8.40689 5.49414 5.49408 8.40686 5.49408 12C5.49408 15.5932 8.40689 18.5059 12 18.5059C15.5931 18.5059 18.5059 15.5931 18.5059 12C18.5059 11.6236 18.4711 11.2557 18.4093 10.897H12.2618Z" />
</svg>
