<svg width="24" height="24" viewBox="0 0 24 24" fill="none" xmlns="http://www.w3.org/2000/svg">
<g clip-path="url(#clip0_1622_13)">
<rect width="24" height="24" fill="white"/>
<path d="M0.959961 12V23.04H12H23.04V12V0.960022H12H0.959961V12ZM22.1605 12V22.1606H12H1.83942V12V1.83948H12H22.1605V12Z" fill="black"/>
<path d="M4.11289 3.92583C4.00998 3.97261 3.86028 4.10359 3.78544 4.20651L3.63574 4.40298V10.6808V16.9586L3.78544 17.1551C4.09418 17.5668 3.43927 17.5387 11.9532 17.52L19.5876 17.5013L19.7654 17.3703C19.8683 17.2955 19.9899 17.1458 20.0554 17.0241C20.1677 16.8183 20.1677 16.706 20.1583 10.606L20.1396 4.40298L19.9899 4.20651C19.6812 3.8042 20.3174 3.83227 11.8783 3.83227C4.97364 3.83227 4.2813 3.84162 4.11289 3.92583ZM19.2882 10.6715V16.6312H11.8877H4.49649V10.6715V4.71173H11.897H19.2976V10.6715H19.2882Z" fill="black"/>
<path d="M7.48105 6.37709C6.76064 6.73262 6.39576 7.52787 6.61095 8.2857C6.83549 9.06225 7.42491 9.52069 8.23888 9.52069C8.87508 9.52069 9.41773 9.17452 9.73583 8.56638C9.83874 8.37926 9.86681 8.24828 9.86681 7.86469C9.86681 7.46238 9.8481 7.35947 9.71712 7.11621C9.53 6.76069 9.13705 6.40516 8.80959 6.30225C8.66925 6.25547 8.38857 6.21804 8.18274 6.21804C7.88335 6.19933 7.76173 6.23676 7.48105 6.37709ZM8.6599 7.20042C8.91251 7.35947 9.04349 7.6495 9.00607 7.9676C8.98735 8.17343 8.93122 8.25764 8.75346 8.42604C8.56634 8.60381 8.49149 8.63187 8.2763 8.63187C7.70559 8.63187 7.33135 8.18279 7.47169 7.6495C7.52783 7.44367 7.75237 7.1817 7.92078 7.12557C8.1079 7.05072 8.49149 7.08814 8.6599 7.20042Z" fill="black"/>
<path d="M13.422 10.9334L11.4479 12.9075L10.4655 11.9252C9.9322 11.3919 9.46441 10.9521 9.43634 10.9521C9.39892 10.9521 8.58495 11.7568 7.60258 12.7391C6.05885 14.2829 5.82495 14.5448 5.82495 14.6852C5.83431 14.9752 6.10563 15.1904 6.3676 15.1249C6.46115 15.1062 7.06929 14.5355 7.97682 13.6279L9.43634 12.1684L10.4281 13.1601L11.4198 14.1519L13.4033 12.1684L15.3867 10.185L16.3504 11.158C16.8837 11.6913 17.3982 12.1591 17.4918 12.2058C17.8005 12.3368 18.0812 12.1497 18.0812 11.8129C18.0812 11.6351 17.9783 11.5135 16.762 10.2972C16.0323 9.56747 15.4241 8.96869 15.4054 8.96869C15.3867 8.96869 14.5073 9.84815 13.422 10.9334Z" fill="black"/>
</g>
<defs>
<clipPath id="clip0_1622_13">
<rect width="24" height="24" fill="white"/>
</clipPath>
</defs>
</svg>
