<svg width="24" height="24" viewBox="0 0 24 24" fill="none" xmlns="http://www.w3.org/2000/svg">
<rect width="24" height="24" fill="white"/>
<path fill-rule="evenodd" clip-rule="evenodd" d="M11.2247 0.985922C3.52686 1.49069 -1.27966 9.70661 2.01218 16.7332C5.49182 24.1605 15.8436 25.2758 20.7515 18.752C26.4948 11.1179 20.7275 0.362794 11.2247 0.985922ZM13.4097 2.04627C22.0032 3.33321 25.0751 14.1278 18.4377 19.7145C11.9431 25.181 1.9694 20.5155 1.9694 12.011C1.9694 5.92034 7.44287 1.15275 13.4097 2.04627ZM11.535 5.01552C9.2833 5.75419 9.74756 9.03403 12.1038 9.03403C14.8067 9.03403 14.8829 5.05981 12.1813 4.9871C11.8969 4.97941 11.6061 4.99226 11.535 5.01552ZM12.5012 6.00842C13.0343 6.2098 13.3283 6.91703 13.0916 7.4291C12.6206 8.4476 11.1501 8.1847 11.0791 7.06926C11.0298 6.2941 11.7784 5.73569 12.5012 6.00842ZM10.1925 9.8455C9.67096 9.99539 9.51844 10.2991 9.51844 11.188C9.51844 12.0997 9.72997 12.4703 10.3029 12.562L10.5008 12.5937V14.3215V16.0492H10.3432C9.7844 16.0492 9.51844 16.485 9.51844 17.4004C9.51844 18.7714 9.56141 18.7933 12.2447 18.7933C14.4953 18.7933 14.4477 18.8006 14.7653 18.4076L14.9217 18.2141V17.4256C14.9217 16.4284 14.7026 16.0492 14.1262 16.0492H13.9652L13.9649 13.37C13.9645 9.58143 14.0904 9.78194 11.7159 9.78973C10.9766 9.79206 10.291 9.81717 10.1925 9.8455ZM12.9424 13.7442L12.9569 16.7201L13.0986 16.8619C13.2202 16.9836 13.2913 17.0065 13.6027 17.0241L13.9652 17.0447V17.4271V17.8095H12.2331H10.5008V17.4271V17.0447L10.8633 17.0241C11.1748 17.0065 11.2458 16.9836 11.3675 16.8619L11.5092 16.7201L11.5245 14.4561C11.5444 11.5245 11.5611 11.5968 10.8652 11.5968H10.5008V11.1826V10.7684H11.7144H12.9278L12.9424 13.7442Z" fill="black"/>
</svg>
