<svg width="24" height="24" viewBox="0 0 24 24" fill="none" xmlns="http://www.w3.org/2000/svg">
<path d="M16.7144 24H7.28587C3.26827 24 0 20.7317 0 16.7144V7.28587C0 3.26827 3.26827 0 7.28587 0H16.7144C20.7317 0 24 3.26827 24 7.28587V16.7144C24 20.7317 20.7317 24 16.7144 24ZM7.28587 1.33333C4.00373 1.33333 1.33333 4.00373 1.33333 7.28587V16.7144C1.33333 19.9963 4.00373 22.6667 7.28587 22.6667H16.7144C19.9963 22.6667 22.6667 19.9963 22.6667 16.7144V7.28587C22.6667 4.00373 19.9963 1.33333 16.7144 1.33333H7.28587Z" fill="black"/>
<path d="M12.0696 18.6664C8.432 18.6664 5.4728 15.7069 5.4728 12.0696C5.4728 8.432 8.43227 5.4728 12.0696 5.4728C15.7072 5.4728 18.6667 8.43227 18.6667 12.0696C18.6667 15.7069 15.7072 18.6664 12.0696 18.6664ZM12.0696 6.80613C9.1672 6.80613 6.80614 9.1672 6.80614 12.0696C6.80614 14.9717 9.1672 17.3331 12.0696 17.3331C14.9723 17.3331 17.3333 14.972 17.3333 12.0696C17.3333 9.1672 14.9723 6.80613 12.0696 6.80613Z" fill="black"/>
<path d="M18.98 6.49334C19.7186 6.49334 20.3173 5.89459 20.3173 5.156C20.3173 4.41741 19.7186 3.81867 18.98 3.81867C18.2414 3.81867 17.6427 4.41741 17.6427 5.156C17.6427 5.89459 18.2414 6.49334 18.98 6.49334Z" fill="black"/>
</svg>
