<svg width="24" height="24" viewBox="0 0 24 24" fill="none" xmlns="http://www.w3.org/2000/svg">
<path d="M18.0339 14.8067C18.4453 14.8067 18.824 14.9543 19.0938 15.2248L22.5648 18.7093C23.1615 19.3078 23.1424 20.3026 22.5212 20.9257L21.7229 21.7101L21.5295 21.8631C21.1235 22.1801 20.6658 22.4398 20.1727 22.6338C19.715 22.8114 19.2627 22.9262 18.7886 22.9836C18.7505 22.9863 18.6197 23 18.399 23C17.1158 23 12.5059 22.5682 6.99148 17.0368C2.33801 12.3689 0.621568 8.94186 1.06839 5.21143C1.12288 4.75776 1.23458 4.3041 1.4144 3.82857C1.60784 3.32845 1.86667 2.86932 2.18544 2.46211L2.26445 2.33093L3.11722 1.47006C3.41419 1.16944 3.83377 1 4.26969 1C4.68382 1 5.0598 1.15031 5.32953 1.42087L8.80328 4.90261C9.39995 5.50112 9.37815 6.4959 8.75696 7.12174L6.87705 9.00745L7.15223 9.50211L7.15758 9.51179C7.77828 10.6342 8.62539 12.1659 10.2418 13.7846C11.8525 15.403 13.379 16.2528 14.4929 16.873L15.0043 17.157L16.8815 15.274C17.1784 14.9761 17.598 14.8067 18.0339 14.8067Z" stroke="black"/>
</svg>
