<svg width="24" height="24" viewBox="0 0 24 24" fill="none" xmlns="http://www.w3.org/2000/svg">
<path d="M18.0375 1.77189C17.9906 1.89611 18.0633 2.02033 18.2602 2.14455L18.4078 2.2383L18.3094 2.2547C18.1336 2.28517 18.0703 2.3508 18.0703 2.50548C18.0703 2.56642 18.061 2.57111 17.925 2.59689C17.8453 2.61095 17.7703 2.63439 17.7563 2.64845C17.7375 2.6672 17.7492 2.6672 17.7938 2.6508C17.8289 2.63673 17.9602 2.61564 18.0867 2.60392C18.2133 2.58986 18.3985 2.56408 18.4992 2.54298C18.6 2.52423 18.7313 2.50783 18.7875 2.50783C18.8438 2.50783 18.8906 2.49845 18.8906 2.48673C18.8906 2.44455 18.682 2.43752 18.4336 2.47267C18.1195 2.5172 18.1406 2.5172 18.1406 2.46095C18.1406 2.37892 18.2344 2.34611 18.5391 2.32033C18.8977 2.28986 18.9516 2.30627 19.0547 2.45627C19.0969 2.5172 19.125 2.55002 19.118 2.52892C19.1109 2.50548 19.0922 2.44923 19.0781 2.39767C19.0406 2.2758 19.0125 2.24298 18.893 2.18205C18.8367 2.15158 18.75 2.10002 18.7008 2.06252C18.6492 2.02736 18.5391 1.96877 18.45 1.93361C18.3633 1.89845 18.2766 1.85861 18.2578 1.84455C18.2274 1.82111 18.2274 1.82345 18.2578 1.85627C18.2766 1.87736 18.3774 1.9383 18.4828 1.98986C18.5859 2.04377 18.6961 2.11173 18.7266 2.14455L18.7805 2.20314H18.6656C18.4453 2.20314 18.0516 1.92658 18.0774 1.79064C18.0891 1.72736 18.0586 1.7133 18.0375 1.77189Z" fill="black"/>
<path d="M19.0453 2.63674C19.0547 2.67424 19.0852 2.77502 19.1156 2.85705C19.1789 3.02345 19.1883 3.20392 19.1391 3.27189C19.1063 3.31642 19.1016 3.31408 18.8508 3.25314C18.7125 3.21799 18.5484 3.18283 18.4899 3.17345C18.3774 3.15939 18.307 3.12892 18.3328 3.10549C18.3399 3.09845 18.443 3.07033 18.5625 3.04689C18.682 3.02345 18.7828 2.99767 18.7899 2.99299C18.8156 2.96486 18.2484 2.92502 18.0352 2.93908C17.6859 2.96486 17.6391 2.96252 17.5524 2.91799C17.4539 2.86642 17.393 2.86642 17.1516 2.9297C16.6688 3.05158 16.4367 3.15002 16.1016 3.37502C15.9914 3.44767 15.5695 3.70549 15.1641 3.94924C14.2102 4.51877 14.1234 4.57736 13.3734 5.2008C13.2 5.34377 13.1906 5.34845 13.1484 5.30861C13.0102 5.18439 12.8672 4.83049 12.8672 4.61955C12.8672 4.56095 12.8883 4.38986 12.9141 4.2422C12.9727 3.9047 12.9774 3.6797 12.9281 3.51095C12.8906 3.37736 12.757 3.15236 12.7149 3.15236C12.7031 3.15236 12.6656 3.13361 12.6328 3.11252C12.4688 3.00236 12.3445 2.9672 12.1172 2.96486C11.8617 2.96486 11.7938 2.99299 11.482 3.21564C11.0836 3.49924 10.643 3.62345 10.3711 3.52736C10.3219 3.50861 10.275 3.49924 10.2703 3.50392C10.2633 3.51095 10.2727 3.56017 10.2891 3.61877C10.3547 3.85783 10.4695 3.94924 10.6805 3.93283L10.8047 3.92111L10.807 4.11095C10.8094 4.21642 10.8094 4.31017 10.8047 4.32424C10.8024 4.34064 10.8094 4.34064 10.8234 4.32424C10.8422 4.30549 10.9688 3.85783 10.9688 3.81095C10.9688 3.80392 10.9852 3.79689 11.0039 3.79689C11.0953 3.79689 11.3227 3.69142 11.5289 3.55314C11.6531 3.46877 11.7867 3.38908 11.8242 3.37736L11.8945 3.35158L11.8242 3.40314C11.6742 3.51564 11.5242 3.67033 11.4914 3.74533C11.4328 3.88361 11.4914 3.97502 11.6977 4.08049C11.7703 4.11564 11.8711 4.19299 11.9227 4.25158L12.0164 4.35705L12.1055 4.19533C12.232 3.9633 12.368 3.91642 12.4524 4.07814C12.4852 4.13908 12.4922 4.19299 12.4828 4.28674C12.4688 4.43439 12.4195 4.51642 12.2977 4.58205L12.2109 4.62892V4.83517C12.2109 5.06017 12.2484 5.35783 12.2859 5.41408C12.3047 5.4422 12.2977 5.01799 12.2742 4.68986C12.2695 4.64299 12.2836 4.62892 12.3445 4.61252C12.4102 4.59611 12.5133 4.50236 12.5484 4.42502C12.5578 4.40627 12.5672 4.40392 12.5742 4.42033C12.5813 4.43205 12.6352 4.52814 12.6938 4.63127C12.9328 5.04377 13.0781 5.32033 13.0781 5.36017C13.0758 5.39533 12.7805 5.64845 12.7406 5.64845C12.7336 5.64845 12.7266 5.58986 12.7266 5.5172C12.7266 5.39064 12.7289 5.38361 12.8508 5.26877C12.9891 5.13517 12.9633 5.1422 12.7734 5.28517C12.5391 5.46564 12.3164 5.70002 12.2531 5.83596C12.1945 5.96486 12.1945 5.96486 11.9438 6.07736C11.8055 6.14064 11.6883 6.18752 11.6813 6.18283C11.6766 6.1758 11.6649 6.12189 11.6578 6.0633L11.6414 5.95314H11.9156C12.0656 5.95314 12.1875 5.94377 12.1875 5.93205C12.1875 5.89924 12.0586 5.88283 11.8149 5.88283H11.5899L11.5969 6.05392L11.6063 6.22502L11.482 6.25314C11.4117 6.26955 11.2125 6.30236 11.0391 6.32814C10.6149 6.39377 10.3969 6.45471 10.1555 6.57658C9.95392 6.67971 9.81798 6.7758 9.65157 6.93283L9.56486 7.01486L9.31173 6.98908C9.02814 6.95861 8.77736 6.95392 8.63673 6.97736C8.54767 6.99142 8.55704 6.99611 8.76564 7.03361C8.88751 7.05705 9.09376 7.08283 9.22267 7.09221L9.45939 7.10861L9.35157 7.21174C9.20392 7.35705 9.29767 7.30314 9.64923 7.04064C10.132 6.6797 10.2984 6.60705 10.9641 6.48049C11.4516 6.38439 11.6813 6.30705 12.1641 6.07736C12.7055 5.8172 13.1367 5.54299 13.6524 5.13049C14.093 4.77658 14.7234 4.3383 15.1992 4.0547C15.3164 3.98439 15.6211 3.78517 15.8789 3.61174C16.1367 3.44064 16.4133 3.2672 16.4906 3.2297C16.5703 3.1922 16.8117 3.11486 17.0297 3.05627C17.4164 2.95314 17.4234 2.95314 17.5055 2.99064C17.5524 3.01408 17.6531 3.03752 17.7305 3.04455C17.9649 3.06799 17.8922 3.10549 17.5781 3.12189C17.332 3.13361 16.957 3.1922 16.9266 3.22267C16.9219 3.22736 16.9594 3.24377 17.011 3.26017C17.086 3.28127 17.1375 3.28127 17.2758 3.25314C17.3766 3.23205 17.5453 3.22033 17.6719 3.22267C17.8641 3.22736 17.918 3.23674 18.0586 3.30002L18.2227 3.37502L18.1336 3.29767C18.0867 3.25783 18.0469 3.21564 18.0469 3.20627C18.0469 3.19689 18.1055 3.17814 18.1781 3.16408C18.3469 3.12892 18.3844 3.1547 18.3188 3.26486C18.2953 3.30705 18.2484 3.38674 18.2156 3.44533C18.0258 3.78049 17.7609 4.13908 17.407 4.5422C17.1774 4.80002 16.8281 5.13986 16.8094 5.12111C16.8024 5.11642 16.8469 5.04377 16.9055 4.96174L17.0133 4.80939L16.6734 4.98283C16.3359 5.15392 16.0149 5.3508 15.832 5.49611C15.7805 5.53595 15.6961 5.60158 15.6445 5.63908L15.5508 5.70705L15.6445 5.57814C15.6938 5.50783 15.7547 5.42345 15.7781 5.39299C15.832 5.32267 15.825 5.31564 15.7313 5.34142C15.5625 5.39064 15.1875 5.4422 14.8617 5.45861C14.5453 5.47736 14.4984 5.48439 14.3133 5.55939C14.2008 5.60392 14.1094 5.63908 14.1094 5.63439C14.1094 5.63205 14.2711 5.52189 14.468 5.3883C14.925 5.08127 15.2438 4.83517 15.5695 4.53517C15.8063 4.31955 15.9305 4.19299 16.3266 3.77345C16.3945 3.70314 16.486 3.60939 16.5305 3.56486C16.6125 3.48752 16.6172 3.48752 16.6711 3.52267C16.7203 3.55549 16.7297 3.58361 16.7438 3.74299C16.7625 3.94689 16.793 4.06174 16.8352 4.09924C16.8656 4.12267 16.8563 3.9258 16.8164 3.63752L16.8024 3.53908H17.011L16.9781 3.6258C16.9453 3.72189 16.9383 4.01486 16.9664 4.08986C16.9805 4.12502 16.9899 4.11095 17.0016 4.01955C17.0109 3.95392 17.0531 3.81564 17.093 3.71486C17.1516 3.57189 17.1867 3.51564 17.2477 3.47345L17.3297 3.41955L17.1961 3.43361C17.1234 3.44064 17.0039 3.45002 16.9336 3.45705C16.8633 3.46408 16.7578 3.45705 16.6992 3.44299C16.5984 3.4172 16.5961 3.4172 16.4531 3.52736C16.2328 3.69611 15.975 3.92345 15.375 4.47189C14.8242 4.9758 14.1609 5.54064 13.9359 5.69767C13.8258 5.77502 13.3781 6.0258 12.5508 6.48049C12.3703 6.57892 11.8594 6.83908 11.4141 7.05939C10.6594 7.43205 10.5984 7.4672 10.4649 7.60314C10.3594 7.70861 10.3055 7.78361 10.268 7.88439C10.2399 7.95939 10.2211 8.03205 10.2234 8.04142C10.2281 8.05314 10.275 8.00392 10.3313 7.93127C10.3875 7.85861 10.4391 7.80705 10.4461 7.81408C10.4602 7.82814 10.3828 8.32971 10.3594 8.36721C10.3313 8.41174 9.8672 8.53127 9.72657 8.53127C9.65157 8.53127 9.55782 8.51252 9.50157 8.48674C9.3961 8.43752 9.26954 8.29924 9.24611 8.20549C9.20626 8.04142 9.10314 7.98986 9.03048 8.10002L8.99064 8.1633L8.90157 8.06252C8.84532 8.00158 8.79611 7.90783 8.76798 7.81877L8.72345 7.6758L8.72111 7.86095C8.71876 8.08595 8.74689 8.19377 8.86407 8.3883C8.93907 8.51252 8.95314 8.55705 8.95314 8.66955C8.95079 8.77971 8.94845 8.79377 8.92501 8.75392C8.91095 8.72814 8.86407 8.66486 8.82189 8.6133C8.74689 8.51721 8.62032 8.28283 8.56407 8.13283C8.4961 7.94767 8.53595 8.15861 8.61095 8.37189C8.65314 8.49845 8.68126 8.60158 8.66954 8.60158C8.66017 8.60158 8.64376 8.59221 8.63673 8.57814C8.6297 8.56642 8.56642 8.51955 8.50079 8.47502C8.28282 8.32971 8.2547 8.2383 8.27345 7.76486L8.28282 7.54924L8.32736 7.61955C8.35314 7.65705 8.37892 7.68517 8.38361 7.67814C8.40001 7.66174 8.23829 7.32658 8.15626 7.20705C8.04845 7.05002 7.99454 6.91408 7.95704 6.70549C7.90782 6.42892 7.8422 6.31877 7.64064 6.18517C7.59845 6.15705 7.62892 6.16174 7.74611 6.20158C7.91251 6.25783 7.97345 6.25549 8.04142 6.19689C8.07423 6.16877 8.09767 6.18517 8.24064 6.33283C8.3297 6.42658 8.43048 6.54142 8.46564 6.58596L8.52892 6.66799L8.48673 6.5508C8.4047 6.3258 8.40236 6.33517 8.50079 6.32111C8.55001 6.31408 8.60861 6.30236 8.63204 6.29299C8.6672 6.27892 8.67189 6.29064 8.67189 6.38205C8.67189 6.44299 8.68595 6.52033 8.70001 6.55549C8.73517 6.63517 8.92501 6.93752 8.94142 6.93752C8.94611 6.93752 8.90392 6.84142 8.84767 6.72189C8.69532 6.41252 8.70001 6.38674 8.92501 6.21799C9.17345 6.03049 9.21564 5.90627 9.05861 5.80314C8.97892 5.75158 8.94611 5.77971 9.01876 5.83596C9.04689 5.85939 9.07032 5.88752 9.07032 5.89924C9.07032 5.93205 8.91798 6.00939 8.72345 6.0797C8.49376 6.16174 8.36017 6.15939 8.16564 6.07033C8.0297 6.00939 8.01564 6.00705 8.02736 6.04689C8.06954 6.18049 7.68048 6.15939 7.53282 6.02111C7.45314 5.94611 7.46251 5.89924 7.57032 5.82658C7.77189 5.69299 7.81173 5.48908 7.69454 5.1797C7.61251 4.95236 7.63361 4.9383 7.92892 5.03205C7.98986 5.0508 8.03907 5.07424 8.03907 5.08595C8.03907 5.09533 8.01798 5.15158 7.98986 5.21252C7.92189 5.36955 7.95001 5.40236 8.0297 5.25705C8.0672 5.18908 8.1047 5.13283 8.11642 5.13283C8.12579 5.13283 8.14689 5.15861 8.16095 5.19142C8.18439 5.24299 8.1797 5.25939 8.12579 5.31564C8.09064 5.35314 8.06251 5.3883 8.06251 5.39767C8.06251 5.42814 8.21251 5.41408 8.27345 5.37892C8.38361 5.31564 8.42579 5.30158 8.57345 5.28517L8.72345 5.26877L8.71407 5.35783C8.70939 5.42814 8.71642 5.44924 8.74689 5.45627C8.78439 5.4633 8.78673 5.45158 8.77267 5.3508C8.76564 5.28986 8.75626 5.23361 8.75157 5.22892C8.74689 5.22424 8.64142 5.23361 8.51486 5.25002L8.28517 5.27814L8.23829 5.21252C8.11642 5.04142 8.04376 4.99924 7.75782 4.93595C7.71798 4.92892 7.68517 4.89142 7.65236 4.82345C7.59611 4.70627 7.51876 4.64533 7.40157 4.62658C7.27267 4.60549 7.16017 4.63361 7.08048 4.70861C6.98673 4.79767 6.98673 4.85158 7.08048 4.77189C7.12501 4.73439 7.17892 4.71095 7.22579 4.71095L7.30079 4.7133L7.20704 4.76486C7.12736 4.80705 7.12032 4.81642 7.16251 4.82345C7.29845 4.84455 7.34532 5.0508 7.24689 5.20783C7.22111 5.25002 7.11095 5.34845 7.00548 5.4258C6.74532 5.61564 6.70079 5.70002 6.70782 5.98361C6.71251 6.09611 6.70782 6.18752 6.69845 6.18752C6.67501 6.18752 6.53907 5.97189 6.53907 5.93205C6.53673 5.85471 6.46642 6.03049 6.45236 6.14767L6.43829 6.26955L6.39611 6.1758C6.33986 6.05392 6.3422 5.92033 6.39845 5.78908L6.44532 5.68361L6.36329 5.77502C6.31876 5.82424 6.2672 5.90861 6.24611 5.96252L6.21095 6.05861L6.22032 5.95314C6.22736 5.89455 6.23907 5.82424 6.24611 5.8008C6.25314 5.77502 6.24142 5.79142 6.21798 5.83596C6.16642 5.94611 6.16642 6.17346 6.22032 6.28127C6.24376 6.3258 6.30001 6.40314 6.34689 6.45002C6.42189 6.5297 6.42657 6.54377 6.40314 6.59767C6.32579 6.76408 6.39376 6.89533 6.59767 6.98674C6.65626 7.01252 6.70314 7.04064 6.70314 7.04767C6.70314 7.0547 6.64454 7.0547 6.57423 7.05002C6.50392 7.04299 6.44532 7.04533 6.44532 7.05471C6.44532 7.06174 6.49923 7.12736 6.56251 7.20002C6.70314 7.35705 6.85079 7.42033 7.02892 7.39689C7.08751 7.38986 7.21642 7.3758 7.31251 7.36408C7.53048 7.3383 7.5797 7.31252 7.66407 7.18127L7.7297 7.0758L7.89376 7.22814C8.05548 7.38049 8.20314 7.61017 8.20314 7.70627C8.20314 7.73205 8.17032 7.83283 8.13282 7.92892C8.03204 8.1797 8.03673 8.33205 8.14454 8.54767C8.20079 8.65783 8.27579 8.75861 8.38361 8.86174L8.54298 9.01408L8.37657 9.18049C8.16564 9.38439 8.08361 9.53908 8.0672 9.75939L8.05548 9.92111L7.87736 10.0008C7.77892 10.0453 7.51407 10.1695 7.28907 10.2774C6.54845 10.6289 6.15939 10.7836 5.76564 10.8797C5.46095 10.957 4.96876 10.95 4.54689 10.8656C4.10392 10.7742 3.75939 10.7625 3.45704 10.8258C2.9086 10.9383 2.37189 11.3203 1.92423 11.9156C1.72267 12.1875 1.69689 12.2367 1.85392 12.0586C2.04845 11.8336 2.33907 11.5617 2.5547 11.4C2.78204 11.2289 3.15235 11.0367 3.37501 10.9758C3.6047 10.9125 4.10861 10.9195 4.41798 10.9899C5.16329 11.1563 5.53595 11.1445 6.16407 10.9313C6.64454 10.7672 7.31954 10.4274 7.81642 10.1039C7.94532 10.0195 8.05548 9.94689 8.06251 9.94221C8.06954 9.93986 8.09532 9.99142 8.12111 10.0594C8.18439 10.2375 8.34376 10.3899 8.50782 10.4297C8.67892 10.4719 8.99532 10.4461 9.12892 10.3828C9.18517 10.357 9.31407 10.2469 9.4172 10.1391L9.6047 9.94221L9.66329 10.0758C9.78048 10.3406 9.80861 10.4578 9.80861 10.6758C9.80861 10.8633 9.80157 10.8985 9.74532 10.9945C9.67736 11.1117 9.52032 11.2641 9.34923 11.3789C8.85001 11.7164 8.62032 11.9063 8.46329 12.1031C8.21486 12.4172 8.11173 12.682 8.09298 13.0617L8.07892 13.3149L7.99454 13.3781C7.84923 13.4836 7.85626 13.4836 8.09767 13.3711C8.44689 13.2117 8.75392 13.0336 9.19923 12.7383C9.80626 12.3375 9.98204 12.2297 9.95157 12.2789C9.91407 12.3375 9.98439 12.2953 10.1836 12.1383C10.3781 11.9836 10.3547 12.0094 9.91173 12.4594C9.64689 12.7289 9.37736 13.0172 9.31642 13.1016C8.73048 13.8844 7.5797 14.7399 6.26251 15.368C5.8711 15.5555 5.37423 15.7617 4.32423 16.1766C3.6797 16.432 3.33048 16.5961 2.83126 16.8797C2.52423 17.0531 2.55939 17.0578 2.89923 16.8891C3.4172 16.6313 3.90704 16.4297 4.54689 16.207C4.76017 16.1344 4.9547 16.0617 4.98048 16.05C5.0672 16.0055 4.98282 16.0688 4.72267 16.2469C4.58204 16.343 4.26798 16.5563 4.02423 16.7203C3.78282 16.8844 3.58595 17.0227 3.58595 17.0274C3.58595 17.0391 3.75939 16.9477 4.27735 16.6547C4.4836 16.5399 4.79767 16.3641 4.97579 16.2633C5.28517 16.0899 5.87814 15.8086 5.89689 15.825C5.91095 15.8391 5.13986 16.411 4.74611 16.6781C4.21642 17.0344 3.83673 17.2992 3.8086 17.3274C3.79689 17.3391 3.84376 17.318 3.91407 17.2805C3.98439 17.2406 4.18829 17.1328 4.36642 17.0414C4.65939 16.8867 5.26407 16.4977 5.68361 16.193C5.84532 16.0781 6.28126 15.7781 6.35157 15.7383C6.43361 15.6891 6.30704 15.811 6.08204 15.9961C5.83126 16.2024 5.4422 16.4813 4.96173 16.8047C4.80001 16.9125 4.66876 17.0039 4.6711 17.0086C4.67579 17.011 4.73439 16.9945 4.8047 16.9688C4.87501 16.9453 5.08126 16.8774 5.26173 16.8211C6.13361 16.5422 6.8297 16.1485 7.54689 15.5297C7.85861 15.2602 8.4422 14.6742 8.65548 14.4141C8.8922 14.1281 8.8922 14.1258 8.84767 14.25C8.75861 14.4844 8.52657 14.9391 8.32032 15.2813C8.10236 15.6445 7.41329 16.6922 7.28673 16.8539C7.15314 17.0227 7.22345 16.9711 7.44845 16.732C8.06251 16.0852 8.50782 15.511 8.91798 14.8406C8.9672 14.761 9.01173 14.6977 9.01642 14.7024C9.02111 14.707 8.97189 14.8242 8.90626 14.9625C8.45392 15.9328 7.83517 16.6852 6.99611 17.2852C6.7172 17.4844 6.69845 17.4844 6.87892 17.2945C7.04298 17.1211 7.17423 16.9547 7.13439 16.9711C6.99845 17.0297 5.85704 17.8149 5.5547 18.0586C4.65236 18.7875 3.71017 19.718 3.45236 20.1375L3.36798 20.2735L3.26954 20.182C3.21564 20.1328 3.14064 20.0719 3.10314 20.0485C3.06564 20.025 3.01173 19.9852 2.9836 19.9617L2.93204 19.9149L3.12657 19.7016C3.38204 19.4203 3.53204 19.2188 3.95626 18.5836C4.3547 17.986 4.46954 17.8336 4.66876 17.6461C4.87032 17.4563 5.02736 17.3719 5.35548 17.2735C5.85704 17.1235 6.35626 16.8516 6.87892 16.4414C7.12267 16.2516 7.60314 15.8438 7.58439 15.8438C7.57736 15.8438 7.47423 15.9047 7.3547 15.9797C6.82736 16.3125 5.89689 16.7766 5.14454 17.086C4.88673 17.1914 4.54454 17.3367 4.38282 17.407C4.22111 17.4774 4.01251 17.5688 3.92111 17.6086C3.82736 17.6485 3.7547 17.6836 3.75939 17.6906C3.76642 17.6977 4.26329 17.5594 4.64298 17.4445C4.66407 17.4399 4.57736 17.5383 4.45314 17.6649C4.27501 17.8453 4.16251 17.9906 3.92579 18.3516C3.12892 19.568 2.88282 19.8961 2.68595 19.9969C2.61329 20.0344 2.58282 20.0391 2.53829 20.018C2.44923 19.9781 2.2922 19.9875 2.20782 20.0391C2.10704 20.1 2.05079 20.1985 1.97579 20.4375C1.90314 20.6742 1.82814 20.7914 1.64298 20.9555C1.56564 21.0235 1.50001 21.1008 1.49298 21.1313C1.48829 21.1617 1.49064 21.1875 1.50001 21.1875C1.50704 21.1875 1.61485 21.1031 1.73673 20.9977C1.8586 20.8945 1.97579 20.7985 1.99689 20.7867C2.06251 20.7516 2.11407 20.8547 2.11407 21.0235C2.11407 21.15 2.09767 21.1992 1.98985 21.4219C1.88439 21.6422 1.86095 21.675 1.82579 21.6563C1.72501 21.6 1.68282 21.832 1.7461 22.1133C1.80939 22.4039 1.88439 22.5469 1.96876 22.5469C2.03907 22.5469 2.18204 22.3617 2.37189 22.0195C2.42814 21.9164 2.58517 21.6891 2.72111 21.5156C2.95782 21.2063 3.04689 21.075 3.30236 20.6367C3.46173 20.3672 3.56486 20.2266 3.83439 19.9219C4.15079 19.5633 5.64611 18.1195 5.7047 18.1172C5.71407 18.1172 5.64845 18.1945 5.5547 18.2906C5.46329 18.3867 5.36954 18.4875 5.34845 18.518L5.31329 18.5695L5.61564 18.5555C5.89923 18.5438 6.17579 18.4875 6.40782 18.3985C6.49923 18.3633 6.55548 18.2977 5.73048 19.2305C4.94298 20.1235 4.43673 20.7188 4.38985 20.8102C4.36642 20.8547 4.2797 20.9625 4.19532 21.0469C3.85782 21.3891 3.07032 22.343 3.07032 22.411C3.07032 22.4203 3.09845 22.4297 3.13361 22.4297C3.18048 22.4297 3.18985 22.4367 3.1711 22.4555C3.14767 22.4789 2.7047 22.5094 2.1797 22.5235C2.05548 22.5281 2.05548 22.5281 2.13282 22.5492C2.17735 22.5586 3.56017 22.5797 5.20314 22.5938C6.84611 22.6078 8.52892 22.6289 8.94142 22.6383C9.50392 22.6524 8.93439 22.6594 6.66798 22.6641C4.74376 22.6711 3.89064 22.6781 4.32423 22.6899C5.84298 22.725 11.7516 22.7039 11.5641 22.6641C11.5242 22.6547 11.3203 22.6289 11.1117 22.6031C10.7109 22.5586 10.6734 22.5281 11.0133 22.5258C11.1211 22.5235 11.2055 22.5164 11.1984 22.5094C11.1586 22.4719 10.0172 22.4531 7.23048 22.4485C5.52892 22.4461 4.05939 22.4391 3.96329 22.4344L3.7922 22.425L3.9047 22.3735C3.98204 22.3383 4.06876 22.2633 4.1672 22.1555C4.26329 22.0453 4.34532 21.975 4.41095 21.9492L4.51173 21.9094L4.56329 21.9727L4.6172 22.0336L4.86798 21.9516L5.12111 21.8719L5.12814 21.7172C5.13282 21.6328 5.12579 21.4945 5.11407 21.4102C5.10236 21.3258 5.10001 21.2578 5.10939 21.2578C5.11876 21.2578 5.26173 21.3328 5.42814 21.4242C5.5922 21.5156 5.87814 21.6656 6.06095 21.757L6.39611 21.9235L6.43829 21.8742C6.69142 21.5789 8.68595 19.1883 8.96486 18.8461C9.05626 18.7336 9.30939 18.4289 9.5297 18.1641C9.89064 17.7305 10.2399 17.2922 10.3734 17.107C10.4555 16.9922 10.4602 16.9969 10.4461 17.161L10.432 17.3203L10.2024 17.5945C9.63517 18.2813 9.51798 18.4195 9.37501 18.5719L9.22267 18.7336L9.50392 18.5391C9.85548 18.2953 10.0406 18.1477 10.2727 17.925C10.3734 17.8289 10.4602 17.7563 10.4625 17.7633C10.4672 17.7727 10.4789 17.8195 10.4859 17.8711C10.5 17.9625 10.4953 17.9719 10.2844 18.2344C10.1649 18.382 9.91407 18.6586 9.72657 18.8485C9.53907 19.0406 9.39142 19.1953 9.39845 19.1953C9.45001 19.1953 10.132 18.6445 10.4109 18.3774L10.5938 18.2063L10.6172 18.2719C10.6313 18.3094 10.6477 18.3539 10.6547 18.3727C10.6664 18.4078 10.2469 19.05 9.91876 19.493C9.74064 19.732 9.62111 19.8774 9.20157 20.3672C9.17345 20.3977 9.22501 20.3602 9.31407 20.2852C9.62579 20.0133 10.0688 19.4977 10.3758 19.043C10.5094 18.8438 10.6875 18.5414 10.6875 18.5086C10.6922 18.4055 11.2781 19.7836 11.4164 20.2195C11.4445 20.3133 11.475 20.386 11.4797 20.3813C11.4961 20.3625 11.2688 19.5305 11.1539 19.186C11.0836 18.9797 11.1164 19.0031 11.2102 19.2281C11.325 19.5024 11.4469 19.8844 11.5172 20.2008C11.5781 20.4774 11.6016 20.5383 11.6016 20.4235C11.6016 20.0086 11.2969 19.0852 10.9524 18.4547C10.7461 18.0774 10.6477 17.8008 10.6266 17.5406C10.6102 17.3344 10.6359 16.4649 10.6594 16.4883C10.6688 16.4953 10.6969 16.5563 10.7274 16.6242C10.7695 16.725 10.7789 16.7344 10.7813 16.6828C10.7813 16.5891 10.6688 16.2469 10.5914 16.111C10.5539 16.0453 10.4016 15.8391 10.2539 15.6539C9.90939 15.225 9.62579 14.8031 9.45236 14.461C9.22267 14.0086 9.17345 13.7883 9.24376 13.493C9.30704 13.2281 9.39845 13.0805 9.66095 12.818L9.90236 12.5789L10.043 12.7336C10.1227 12.818 10.2656 13.0055 10.3641 13.1531C10.8328 13.8563 11.1305 14.5078 11.4 15.4219C11.4586 15.6235 11.5383 15.8789 11.5781 15.9914C11.6625 16.2328 11.6625 16.2399 11.5992 16.5375C11.5547 16.7602 11.5313 16.8305 11.5313 16.7531C11.5313 16.7203 11.393 16.4485 11.3906 16.4789C11.3906 16.486 11.4117 16.5539 11.4375 16.6266C11.4727 16.732 11.4914 16.8938 11.5195 17.3695C11.5922 18.6375 11.7024 19.2281 12.0117 20.0156C12.0844 20.2031 12.1594 20.4188 12.1758 20.4961C12.1922 20.5735 12.2133 20.6625 12.2203 20.6953C12.2344 20.7469 12.2227 20.7633 12.1102 20.8313C12.0422 20.8711 11.9789 20.9063 11.9695 20.9063C11.9625 20.9063 11.9016 20.8735 11.8359 20.836C11.7703 20.7961 11.6578 20.7469 11.5899 20.7235L11.4609 20.6789L11.5242 20.6508C11.6344 20.6016 11.9578 20.5688 12.0656 20.5945C12.1453 20.6156 12.1641 20.6133 12.1641 20.5875C12.1641 20.5313 12.0211 20.475 11.8711 20.4727C11.6977 20.4727 11.5242 20.5524 11.3367 20.7211C11.1258 20.9086 11.0859 21.0727 11.1844 21.3422C11.2266 21.4594 11.2359 21.532 11.2359 21.8086C11.2383 21.9891 11.2336 22.1789 11.2266 22.2305C11.2172 22.3125 11.2219 22.3242 11.2664 22.3313C11.3203 22.3383 11.3227 22.3266 11.3555 22.0266C11.3719 21.8719 11.4539 21.6938 11.5149 21.6844C11.6344 21.661 11.7563 21.9024 11.7844 22.2211C11.7984 22.3688 11.8219 22.4719 11.8547 22.5352C11.9438 22.7016 11.9649 22.718 12.1055 22.7297L12.2344 22.7391L12.2789 22.6383C12.3047 22.582 12.3469 22.3758 12.3774 22.1836C12.4195 21.893 12.4266 21.7735 12.4149 21.4922C12.3984 21.1102 12.368 20.9649 12.1899 20.3906C12.0117 19.8211 11.9109 19.2961 11.8125 18.4219L11.768 18.0141L11.8828 17.7774C12.1406 17.2524 12.3188 16.7391 12.4313 16.1977C12.4664 16.0383 12.4899 15.9047 12.4852 15.9C12.4805 15.8953 12.4524 15.9774 12.4219 16.0852C12.3188 16.4508 11.7914 17.9063 11.7633 17.9063C11.7563 17.9063 11.7352 17.7188 11.7188 17.4914L11.6906 17.0742L11.7656 16.6875C11.8149 16.432 11.8359 16.2703 11.8242 16.2094C11.8172 16.1578 11.7586 15.9891 11.6953 15.8344C11.6297 15.6797 11.5781 15.5391 11.5781 15.5227C11.5781 15.4945 11.9016 14.9297 11.918 14.9297C11.9297 14.9297 11.8781 15.0985 11.7774 15.3961C11.6109 15.8953 11.7211 15.7266 11.9695 15.1055C12.0516 14.8992 12.1781 14.6133 12.2484 14.4703L12.3774 14.2125L12.2953 13.957C12.2508 13.8164 12.2156 13.6992 12.218 13.6969C12.2203 13.6922 12.2578 13.7672 12.2977 13.8586C12.3399 13.9524 12.4406 14.1797 12.5227 14.3672C13.1578 15.7992 13.8328 17.2195 14.2453 17.9766C14.6906 18.7969 14.9742 19.2258 15.9375 20.5195C16.2141 20.8922 16.6055 21.4242 16.8024 21.6985C17.0016 21.975 17.1774 22.2047 17.1914 22.2117C17.2078 22.2164 17.4 22.1203 17.6227 21.9985C17.843 21.8766 18.0234 21.7805 18.0234 21.7828C18.0234 21.8485 18.1289 22.282 18.15 22.2938C18.1641 22.3031 18.3094 22.3125 18.4758 22.3125H18.7734V22.2445C18.7734 22.2047 18.7828 22.1672 18.7969 22.1602C18.8461 22.1297 19.118 22.2258 19.2727 22.3289C19.3594 22.3875 19.425 22.4414 19.418 22.4508C19.4086 22.4578 18.1406 22.4649 16.5984 22.4672C13.8563 22.4672 12.3281 22.493 12.7383 22.5281C12.8414 22.5375 13.8445 22.5516 14.9649 22.5633L17.0039 22.582L15.8086 22.5961C15.1524 22.6055 14.1539 22.6289 13.5938 22.65C12.2906 22.6992 12.1664 22.7063 12.8438 22.6969C13.1461 22.6922 14.3063 22.6781 15.4219 22.6664C16.5375 22.6524 17.7281 22.6313 18.0703 22.6172C18.4125 22.6055 19.1133 22.5938 19.6289 22.5914C20.1445 22.5914 20.6133 22.582 20.6719 22.5727L20.7774 22.5539L20.6438 22.5492C20.5617 22.5492 20.5078 22.5375 20.5078 22.5211C20.5078 22.507 20.4094 22.4039 20.2922 22.2938C20.1727 22.1836 19.8891 21.9094 19.6617 21.6844L19.2492 21.2766L18.7594 21.4688C18.4899 21.5742 18.2602 21.6656 18.2484 21.675C18.2367 21.682 18.2344 21.6774 18.2414 21.6656C18.2485 21.6539 18.4453 21.5485 18.6774 21.4336C18.9094 21.3164 19.0992 21.2156 19.1016 21.2086C19.1016 21.2016 19.0149 21.1547 18.9094 21.1055C18.8016 21.0586 18.6352 20.9695 18.5391 20.911C18.3328 20.7844 18.075 20.6016 18.1031 20.6016C18.1149 20.6016 18.2555 20.6766 18.4195 20.768C18.5813 20.8617 18.8039 20.9836 18.9141 21.0422L19.1133 21.15L19.0313 21.0469C18.4641 20.3133 18.2016 20.0485 17.5078 19.5117C17.0274 19.1414 16.6125 18.7992 16.3477 18.5555C16.2914 18.5016 16.4789 18.6141 16.6102 18.7102C16.6899 18.7711 16.9055 18.9258 17.0906 19.057C17.2758 19.186 17.468 19.3313 17.5172 19.3805C17.5899 19.4461 17.6016 19.4508 17.5735 19.4063C17.5547 19.3735 17.4563 19.2 17.3555 19.0195C17.1539 18.6586 16.8281 18.1149 16.6805 17.8945C16.5469 17.693 15.9141 16.8563 15.9141 16.8797C15.9141 16.9242 16.1297 17.393 16.207 17.5195C16.2492 17.5875 16.2469 17.5875 16.1672 17.5078C16.0125 17.3555 15.7899 17.0766 15.6445 16.8516C15.3422 16.3852 15.3281 16.336 15.5953 16.6805C15.6938 16.807 15.7899 16.9313 15.8109 16.957L15.8484 17.0039L15.8297 16.957C15.8203 16.9313 15.757 16.7578 15.6867 16.5703C15.6188 16.3828 15.5133 16.0992 15.4547 15.9375C15.1969 15.2367 14.9438 14.686 14.5922 14.0649C14.1563 13.2961 13.568 12.1313 13.2539 11.4235C13.1086 11.0977 12.8672 10.5117 12.8672 10.4883C12.8672 10.4789 13.2633 11.2617 13.7461 12.2274C14.5219 13.7766 14.8734 14.4586 14.8242 14.3086C14.768 14.1469 14.5641 13.2985 14.4867 12.9024C14.318 12.0633 14.1984 11.0836 14.2078 10.6055C14.2102 10.4766 14.2149 10.418 14.2195 10.4766C14.2828 11.3063 14.5102 12.5461 14.7586 13.4063C14.9039 13.9172 15.0211 14.25 15.2695 14.8711C15.4664 15.361 15.9094 16.3242 15.9305 16.3055C15.9352 16.3008 15.9024 16.1977 15.8555 16.0781C15.7242 15.7195 15.5063 15.0024 15.525 14.9836C15.5274 14.9789 15.5977 15.0727 15.6774 15.1899C15.9961 15.6492 16.425 16.125 16.7813 16.4133C17.3109 16.8445 18.0469 17.1985 18.7055 17.3414C19.3945 17.4891 20.2453 17.461 20.9859 17.2617L21.2695 17.1867L20.6953 17.175C20.2195 17.1633 20.0625 17.1516 19.7766 17.1C18.6727 16.9055 17.6531 16.3969 16.6758 15.5578C16.4063 15.3258 15.9328 14.8477 15.8414 14.7141L15.7899 14.6367L15.8695 14.7094C16.1836 15 16.9242 15.3563 17.543 15.5156C18.0516 15.6469 18.8508 15.668 19.3406 15.5649C19.9875 15.4266 20.618 15.1031 21.075 14.6742C21.2742 14.4867 21.5484 14.1797 21.4688 14.2289C21.157 14.4281 20.8945 14.5524 20.5524 14.6602C19.7109 14.925 18.7336 14.9133 17.8524 14.6227C17.0227 14.3508 16.2914 13.8492 15.7078 13.1485C15.3164 12.6774 14.9836 12.15 14.6742 11.5055C14.4305 10.9969 14.2266 10.4039 14.2266 10.2024C14.2266 10.05 14.3274 9.63517 14.7328 8.08596C14.9906 7.11096 15.0469 6.9047 15.0656 6.88595C15.075 6.87658 15.4992 6.7008 16.0078 6.49455C16.5164 6.29064 17.1914 6.01174 17.5078 5.8758L18.082 5.63205L18.3281 5.23361C18.5813 4.82345 18.7055 4.63127 19.1133 4.00783C19.2445 3.80861 19.3664 3.61877 19.3805 3.59064C19.4063 3.54142 19.4063 3.53674 19.3664 3.54611C19.2563 3.57892 19.0336 3.61408 18.9938 3.60236C18.9633 3.59533 18.9727 3.59064 19.0195 3.5883C19.1063 3.58361 19.3406 3.46877 19.3547 3.42189C19.3641 3.39377 19.3594 3.39142 19.3336 3.41252C19.2984 3.44064 19.0172 3.53908 18.975 3.53908C18.9609 3.53908 19.0055 3.48986 19.0711 3.43127C19.1555 3.36095 19.2024 3.29533 19.2211 3.23205C19.2375 3.18283 19.2586 3.14064 19.268 3.14064C19.2774 3.14064 19.2727 3.09142 19.2539 3.02814C19.2117 2.8922 19.0242 2.53595 19.0453 2.63674ZM18.2109 3.07033C18.2109 3.10549 18.1055 3.14064 17.9977 3.14064C17.9227 3.14064 17.9063 3.13361 17.9063 3.09377C17.9063 3.05158 17.9227 3.04689 18.0586 3.04689C18.1477 3.04689 18.2109 3.05627 18.2109 3.07033ZM18.8836 3.60002C18.8766 3.60705 18.8555 3.60939 18.8391 3.60236C18.8203 3.59533 18.8274 3.5883 18.8531 3.5883C18.8789 3.58595 18.893 3.59299 18.8836 3.60002ZM12.6563 5.60392C12.6563 5.6508 12.6422 5.70002 12.6281 5.71408C12.5719 5.75861 12.2977 5.90861 12.2883 5.89689C12.2672 5.8758 12.3375 5.77267 12.4781 5.62502C12.5602 5.53595 12.6281 5.48205 12.6375 5.49611C12.6469 5.50783 12.6563 5.55705 12.6563 5.60392ZM13.7274 6.45002C13.6805 6.58127 13.6805 6.58596 13.7508 6.5508C13.8305 6.50861 14.0016 6.50627 14.093 6.54611L14.1609 6.57424L14.0649 6.65158C14.0133 6.69377 13.9149 6.75471 13.8469 6.78752C13.7789 6.82033 13.7039 6.85549 13.6828 6.86955C13.6195 6.90236 13.6102 6.89533 13.6289 6.82736C13.7039 6.52267 13.2797 7.59377 13.0524 8.27346C12.9375 8.62033 12.9164 8.6672 12.9164 8.58283C12.9141 8.51252 12.9234 8.48674 12.9399 8.49846C12.9609 8.51017 12.9633 8.48908 12.9539 8.42346C12.9445 8.37424 12.9469 8.3508 12.9563 8.37424C12.9703 8.4047 12.9891 8.35549 13.0289 8.19845C13.1508 7.71799 13.4906 6.80392 13.6547 6.52033C13.7086 6.42892 13.7531 6.38674 13.7274 6.45002ZM6.90001 6.51095C6.81329 6.56955 6.79689 6.73595 6.86954 6.8297L6.91876 6.89064L6.85548 6.86252C6.80861 6.84142 6.77111 6.84142 6.68907 6.86252C6.55314 6.90002 6.54611 6.89767 6.4922 6.84377C6.39845 6.75002 6.46173 6.53439 6.59298 6.50861C6.68439 6.4922 6.92579 6.4922 6.90001 6.51095ZM12.7266 6.65158C12.7266 6.6633 12.7055 6.7758 12.6774 6.90236C12.5742 7.40158 12.4969 7.94299 12.4875 8.24064C12.4828 8.34611 12.4734 8.42814 12.4641 8.42111C12.4524 8.41642 12.4453 8.39064 12.4453 8.36721C12.4453 8.34377 12.4149 8.20314 12.3774 8.05783C12.3141 7.81408 12.2625 7.52111 12.2227 7.16486C12.1945 6.91642 12.1899 7.0383 12.2109 7.38752C12.2344 7.73205 12.3117 8.10236 12.3891 8.2547C12.4524 8.37424 12.4078 8.3508 12.3188 8.21486C12.1922 8.02736 12.0141 7.64299 11.925 7.37346C11.8617 7.17892 11.8547 7.14142 11.8852 7.12267C12.1055 6.98674 12.6961 6.63752 12.7102 6.63517C12.7195 6.63283 12.7266 6.6422 12.7266 6.65158ZM11.2617 7.66408C11.5125 7.74846 11.6602 7.91486 11.6859 8.14924L11.6977 8.26174L11.6625 8.17267C11.5828 7.96174 11.4047 7.82345 11.0039 7.65939L10.8399 7.59142L10.9805 7.60549C11.0578 7.61252 11.1844 7.6383 11.2617 7.66408ZM10.8399 8.0133C10.9102 8.03908 11.0274 8.08361 11.0977 8.11174C11.3602 8.21252 11.4797 8.45392 11.4141 8.74924C11.3953 8.8383 11.3813 9.05627 11.3813 9.31642C11.3789 9.71721 11.3742 9.74767 11.3109 9.9258C11.0883 10.5539 10.4695 11.4703 9.89532 12.0281C9.52501 12.3867 9.15939 12.6563 8.40939 13.1203L8.1797 13.261L8.22423 13.1766C8.24767 13.1297 8.31095 12.9633 8.3672 12.8086C8.52423 12.361 8.60157 12.2297 8.85704 11.9766C9.01876 11.8172 9.18517 11.6836 9.44532 11.5078C9.91876 11.1914 10.0289 11.107 10.3945 10.7836C10.5633 10.6336 10.7414 10.4766 10.793 10.432C10.8633 10.3735 10.868 10.3641 10.8164 10.3945C10.7484 10.4367 10.2375 10.711 10.2281 10.711C10.2258 10.711 10.2703 10.6289 10.3266 10.5305C10.5211 10.1906 10.6875 9.72892 10.6875 9.52736C10.6875 9.4758 10.7039 9.41252 10.7227 9.38908C10.7649 9.33517 10.7672 9.25314 10.732 9.21799C10.7156 9.20158 10.7297 9.17345 10.7789 9.12189C10.8656 9.03752 10.8703 8.97189 10.8 8.90627L10.7484 8.85939L10.8 8.80549C10.8281 8.77502 10.8516 8.72814 10.8516 8.70236C10.8516 8.63908 10.7391 8.54767 10.6805 8.56408C10.643 8.57346 10.6383 8.56408 10.6477 8.51721C10.6617 8.44221 10.6102 8.39064 10.5211 8.39064C10.4836 8.39064 10.4531 8.38596 10.4531 8.38127C10.4531 8.36486 10.5492 7.88674 10.5586 7.85861C10.5656 7.8422 10.5938 7.85627 10.6383 7.89611C10.6781 7.93361 10.7672 7.98517 10.8399 8.0133ZM13.0078 8.16095C12.9656 8.38361 12.9492 8.33908 12.9867 8.1047C13.0031 7.99689 13.0219 7.93127 13.0266 7.95705C13.0313 7.98283 13.0242 8.07424 13.0078 8.16095ZM9.14064 8.09064C9.14064 8.09533 9.15704 8.18674 9.17579 8.29689C9.19454 8.40705 9.21095 8.54064 9.21095 8.59689C9.21095 8.7258 9.23907 8.77736 9.32579 8.80783C9.38204 8.82658 9.44298 8.81486 9.69376 8.73049C9.86017 8.67658 10.0805 8.59689 10.1836 8.55705C10.3688 8.48439 10.4859 8.46564 10.5094 8.50549C10.5281 8.53596 10.4836 8.56408 10.3008 8.63439C10.1016 8.71174 9.83204 8.85705 9.64923 8.98361C9.50392 9.08439 9.48282 9.12658 9.61407 9.04689C9.66095 9.02111 9.78517 8.96955 9.89298 8.93205C10.0008 8.89455 10.2211 8.81017 10.3805 8.74455C10.5399 8.67658 10.6852 8.62736 10.7039 8.63439C10.7203 8.64142 10.7344 8.6672 10.7344 8.69064C10.7344 8.7258 10.6664 8.76799 10.4367 8.87111C9.79689 9.16408 9.76642 9.24377 10.3711 9.05158C10.6664 8.95783 10.718 8.9508 10.7274 9.00002C10.7391 9.04924 10.6547 9.09377 10.2891 9.23439C10.1156 9.30002 9.96329 9.3633 9.94923 9.37736C9.90939 9.41721 10.1766 9.39846 10.3477 9.34924C10.5703 9.28596 10.6641 9.27189 10.6641 9.30002C10.6641 9.3797 10.3336 9.49924 10.0031 9.54142C9.75704 9.56955 9.73829 9.57658 9.6047 9.66095C9.47814 9.74064 9.29064 9.79689 9.14767 9.79689C9.06564 9.79689 9.0422 9.78517 8.99767 9.72189C8.9672 9.68205 8.9297 9.60002 8.91329 9.54142L8.88282 9.43361L8.89454 9.58127C8.90626 9.72892 8.96485 9.87892 9.03282 9.93517C9.05392 9.95158 9.10079 9.96095 9.14064 9.95627C9.22267 9.94455 9.2086 9.9633 9.10314 10.0055C9.03985 10.0313 9.01642 10.0289 8.93907 9.99142C8.82423 9.93752 8.78204 9.84846 8.7797 9.66799C8.7797 9.50392 8.85939 9.24142 8.94142 9.14533C8.98595 9.09377 8.99767 9.03517 9.0211 8.81017C9.03517 8.66252 9.04689 8.46564 9.04689 8.37189C9.04689 8.21252 9.0797 8.08596 9.12189 8.08596C9.13126 8.08596 9.14064 8.0883 9.14064 8.09064ZM10.5891 9.6258C10.5609 9.7383 10.4227 10.0242 10.3594 10.1016L10.3125 10.1602V10.0711C10.3125 10.0195 10.2961 9.92111 10.275 9.84846C10.2422 9.74064 10.2422 9.71486 10.268 9.70549C10.2844 9.7008 10.3617 9.66096 10.4414 9.61877C10.5188 9.57892 10.5891 9.54142 10.5984 9.54142C10.6055 9.53908 10.6031 9.57892 10.5891 9.6258ZM11.6484 10.1485C11.6016 10.5867 11.482 11.2172 11.3086 11.9414C11.2641 12.1219 11.175 12.4969 11.1094 12.7735C11.0438 13.05 10.9664 13.3594 10.9406 13.4602L10.8891 13.6453L10.8281 13.5211L10.7649 13.3969L10.8188 13.2633C10.9078 13.0453 11.0766 12.4078 11.2031 11.8031C11.2688 11.4961 11.3789 11.0063 11.4492 10.7133C11.5688 10.2164 11.6438 9.84846 11.6531 9.70549C11.6555 9.67267 11.6625 9.70314 11.6672 9.77345C11.6719 9.84377 11.6649 10.0125 11.6484 10.1485ZM10.7719 12.157C10.7367 12.2836 10.6617 12.5438 10.6008 12.736L10.4906 13.0828L10.4367 13.0172C10.4063 12.9797 10.3828 12.9375 10.3828 12.9235C10.3828 12.9094 10.4602 12.7242 10.5539 12.5133C10.65 12.3024 10.7461 12.0727 10.7719 12.0047C10.8375 11.8125 10.8375 11.8992 10.7719 12.157ZM14.9414 16.8539C15.5719 17.4539 16.1344 17.9672 16.1039 17.918C16.0899 17.8922 16.0031 17.7703 15.9164 17.6485C15.8274 17.5266 15.7594 17.4211 15.7664 17.4141C15.7758 17.4024 16.0313 17.6766 16.2984 17.9883C16.4625 18.1781 16.7578 18.586 16.7578 18.6188C16.7578 18.6258 16.643 18.5344 16.5047 18.4172C16.3641 18.2977 16.1672 18.1313 16.0641 18.0469C15.5203 17.6039 14.8336 16.9336 14.4047 16.4297C14.0531 16.0172 14.0508 15.9914 14.393 16.3242C14.5664 16.493 14.8125 16.732 14.9414 16.8539ZM8.98595 17.5242C8.68829 17.8945 8.27814 18.2977 7.88673 18.607C7.86095 18.6281 8.09532 18.3797 8.40704 18.0586C8.71642 17.7352 9.01173 17.4281 9.05861 17.3719C9.22501 17.1844 9.1711 17.2945 8.98595 17.5242ZM14.5195 17.9672C14.5945 18.0656 14.7305 18.232 14.8219 18.3352C14.9133 18.4383 15.0281 18.5719 15.0774 18.6305C15.3469 18.9539 16.2375 19.8164 16.5867 20.093C17.2359 20.6063 17.7 20.8875 18.2461 21.0961C18.5508 21.211 18.5039 21.211 18.1453 21.0961C17.5781 20.911 17.1633 20.707 16.5938 20.332C15.9094 19.8797 15.3984 19.3641 14.85 18.5742C14.632 18.2578 14.3484 17.7891 14.3742 17.7891C14.3813 17.7891 14.4445 17.8688 14.5195 17.9672ZM3.18282 20.243C3.30704 20.3414 3.31407 20.3719 3.24376 20.5149L3.18048 20.6438L3.06798 20.475C3.00704 20.3836 2.91095 20.2524 2.85236 20.182L2.74689 20.0555L2.80548 20.0039L2.86642 19.9524L2.98595 20.0695C3.05157 20.1328 3.14064 20.2102 3.18282 20.243ZM2.47032 20.1797C2.46564 20.3203 2.43517 20.4844 2.41173 20.4844C2.40001 20.4844 2.39064 20.4586 2.39064 20.4258C2.39064 20.3344 2.34142 20.25 2.27814 20.2336L2.21954 20.2195L2.29454 20.1516C2.40001 20.0578 2.47267 20.0695 2.47032 20.1797ZM2.72814 20.1891C2.74923 20.2453 2.82423 20.3766 2.89454 20.482C2.96485 20.5852 3.02345 20.6766 3.02345 20.6813C3.02345 20.686 2.95782 20.6719 2.87814 20.6485C2.7961 20.625 2.69298 20.5992 2.64611 20.5899L2.55939 20.5781L2.56407 20.4188C2.56407 20.332 2.55704 20.2219 2.54767 20.1727L2.52892 20.086H2.6086C2.68126 20.086 2.69298 20.0953 2.72814 20.1891ZM2.82423 20.7563C2.93907 20.775 3.03751 20.7961 3.0422 20.8008C3.06329 20.8219 2.60392 21.4969 2.44689 21.675L2.33907 21.7992L2.2547 21.6656L2.17267 21.5344L2.25001 21.3774C2.29923 21.2742 2.3297 21.1758 2.33673 21.082C2.34611 20.9813 2.36954 20.911 2.41876 20.8289C2.50079 20.7 2.50548 20.7 2.82423 20.7563ZM11.6625 20.8641L11.8781 20.986L11.8172 21.0188C11.782 21.0352 11.7305 21.0727 11.7024 21.0985C11.6719 21.1266 11.6438 21.1453 11.6391 21.1383C11.6344 21.1336 11.5969 21.0656 11.557 20.9883C11.5172 20.911 11.468 20.8242 11.4469 20.7938C11.4258 20.7656 11.4164 20.7422 11.4258 20.7422C11.4375 20.7422 11.543 20.7961 11.6625 20.8641ZM12.2766 21.1336C12.2695 21.1781 12.2602 21.1735 12.157 21.082L12.0469 20.9813L12.1453 20.9133L12.2461 20.8453L12.2649 20.9649C12.2742 21.0281 12.2789 21.1055 12.2766 21.1336ZM12.1477 21.211C12.2203 21.2766 12.2859 21.3516 12.293 21.3774C12.3094 21.4289 12.1641 21.7008 12.0516 21.8367L11.9883 21.9117L11.8172 21.6563C11.5992 21.3305 11.5969 21.293 11.8008 21.15C11.9625 21.0375 11.9555 21.0352 12.1477 21.211ZM12.3234 21.9188C12.3188 22.043 12.307 22.1531 12.3 22.1602C12.2906 22.1695 12.2274 22.132 12.1547 22.0781L12.0258 21.9797L12.1008 21.9024C12.143 21.8602 12.2086 21.7711 12.2461 21.7078C12.3305 21.5649 12.3375 21.5836 12.3234 21.9188Z" fill="black"/>
<path d="M18.1758 2.7422C18.0211 2.76798 17.857 2.78673 17.8125 2.78908L17.7305 2.79142L17.8008 2.84767C17.8594 2.89689 17.8734 2.89923 17.9063 2.87111C17.925 2.8547 18.0094 2.83361 18.0938 2.82658C18.4524 2.79377 18.743 2.76095 18.8203 2.74923C18.8977 2.73517 18.9 2.73517 18.8438 2.71877C18.743 2.6883 18.4688 2.69767 18.1758 2.7422Z" fill="black"/>
<path d="M11.7914 2.85939C11.7352 2.87111 11.6859 2.88517 11.6813 2.88752C11.6789 2.8922 11.8102 2.89455 11.9719 2.89689C12.3 2.89924 12.4688 2.94377 12.6117 3.0633C12.6492 3.09611 12.6867 3.11955 12.6914 3.11252C12.7125 3.09142 12.5227 2.96486 12.3891 2.91095C12.232 2.84767 11.9602 2.82424 11.7914 2.85939Z" fill="black"/>
<path d="M10.8399 3.24611C10.6992 3.32814 10.5422 3.41486 10.4953 3.43595C10.4461 3.45705 10.4063 3.48517 10.4063 3.49689C10.4063 3.53439 10.5727 3.51564 10.6781 3.46408C10.7742 3.41955 11.1609 3.09142 11.1141 3.09611C11.1047 3.09611 10.9828 3.16408 10.8399 3.24611Z" fill="black"/>
<path d="M19.2914 3.22502C19.2914 3.2508 19.2984 3.25783 19.3055 3.23908C19.3125 3.22267 19.3102 3.20158 19.3031 3.19455C19.2961 3.18517 19.2891 3.19924 19.2914 3.22502Z" fill="black"/>
<path d="M19.3149 3.31877C19.3149 3.34455 19.3219 3.35158 19.3289 3.33283C19.3359 3.31642 19.3336 3.29533 19.3266 3.2883C19.3195 3.27892 19.3125 3.29299 19.3149 3.31877Z" fill="black"/>
<path d="M11.1211 4.29846C11.018 4.34299 10.9359 4.38517 10.9383 4.39455C10.9406 4.40392 10.9758 4.43205 11.018 4.45783L11.0953 4.50471L11.1797 4.40861C11.2242 4.35471 11.2945 4.29142 11.332 4.26564C11.4422 4.19299 11.3414 4.20939 11.1211 4.29846Z" fill="black"/>
<path d="M10.8211 4.68049C10.7484 4.96174 10.7461 4.95939 10.9266 4.98283C11.025 4.99689 11.0391 5.00627 11.0531 5.06721C11.0625 5.11642 11.0578 5.14455 11.0367 5.15861C11.0109 5.17267 11.0156 5.18908 11.0578 5.23361C11.0859 5.26408 11.1094 5.29924 11.1094 5.3133C11.1094 5.32736 11.1258 5.3508 11.1445 5.36721C11.1633 5.38361 11.1797 5.43049 11.1797 5.47033C11.1797 5.51017 11.1961 5.56877 11.2172 5.59924C11.2524 5.64846 11.2688 5.65314 11.3883 5.64142C11.4609 5.63205 11.5711 5.60861 11.632 5.58752L11.7445 5.55002L11.85 5.65783C12.0234 5.84064 12.1969 5.92033 12.1711 5.80549C12.15 5.72111 12.0024 5.40705 11.9602 5.36252C11.9391 5.33908 11.9086 5.32033 11.8899 5.32033C11.8711 5.32033 11.7492 5.37424 11.618 5.43752C11.2828 5.60158 11.2734 5.60158 11.2219 5.41408L11.1797 5.26174L11.243 5.21486L11.3039 5.16564L11.2219 5.17502C11.1516 5.18205 11.1375 5.17502 11.1258 5.12814C11.1164 5.10002 11.1094 5.04611 11.1094 5.0133C11.1094 4.94064 11.0742 4.92189 10.943 4.92189C10.8375 4.92189 10.8399 4.93127 10.8844 4.6758C10.9359 4.39455 10.8961 4.39924 10.8211 4.68049Z" fill="black"/>
<path d="M6.82501 5.02033C6.58595 5.10002 6.43595 5.25939 6.33751 5.53596C6.29532 5.65549 6.31407 5.64846 6.37032 5.52424C6.45704 5.32736 6.5836 5.23127 6.95392 5.07424C7.06642 5.02736 7.10626 4.96877 7.02423 4.96877C6.99611 4.97111 6.90704 4.99221 6.82501 5.02033Z" fill="black"/>
<path d="M7.10157 5.01096C7.10157 5.03439 7.08517 5.07892 7.06407 5.10939L7.02657 5.16799L7.07579 5.11174C7.12032 5.06252 7.14376 4.96877 7.11329 4.96877C7.10626 4.96877 7.10157 4.98752 7.10157 5.01096Z" fill="black"/>
<path d="M8.79142 5.56877C8.77501 5.62736 8.76329 5.67893 8.77032 5.68361C8.77501 5.6883 8.82423 5.70236 8.87814 5.71408C8.9672 5.73518 8.97657 5.73283 8.97657 5.69299C8.97657 5.66486 8.96017 5.64846 8.9297 5.64846C8.89454 5.64846 8.88282 5.63205 8.88282 5.58049C8.88282 5.54299 8.86876 5.50314 8.85236 5.48908C8.82892 5.46799 8.81485 5.48674 8.79142 5.56877Z" fill="black"/>
<path d="M7.83985 6.00002C7.84689 6.01174 7.87267 6.02346 7.89376 6.02346C7.92892 6.02346 7.92892 6.01877 7.89845 6.00002C7.85157 5.96955 7.8211 5.96955 7.83985 6.00002Z" fill="black"/>
<path d="M21.7711 7.81642C20.1024 8.05314 17.9742 8.90627 16.657 9.86486C15.9844 10.357 15.4031 10.9172 15.0961 11.3719L14.9977 11.5195L15.0984 11.4024C15.9609 10.4016 17.1609 9.56252 18.668 8.90627C20.2617 8.21252 21.6938 7.85861 22.9453 7.84924C23.1961 7.84689 23.2453 7.8422 23.1797 7.82345C23.0414 7.78595 22.0266 7.77892 21.7711 7.81642Z" fill="black"/>
<path d="M20.8125 8.34142C19.0125 9.08205 17.4727 10.1883 16.8094 11.2149C16.5211 11.6602 16.3688 12.2203 16.4203 12.6492L16.4391 12.8086L16.4578 12.6586C16.507 12.2906 16.8375 11.6438 17.2242 11.1563C18.0609 10.0992 19.2445 9.17111 20.625 8.48674C20.9016 8.34846 21.1547 8.22424 21.1875 8.21017C21.2203 8.19377 21.2367 8.18205 21.2227 8.18205C21.2109 8.18205 21.0258 8.25236 20.8125 8.34142Z" fill="black"/>
<path d="M20.7422 8.25002C20.7094 8.25939 20.5734 8.30158 20.4375 8.34377C19.6219 8.59221 18.5742 9.07033 17.8641 9.51799C17.3063 9.86955 16.7742 10.336 16.4789 10.732C16.2984 10.9758 16.2516 11.0672 16.3852 10.9102C17.0227 10.1695 17.8477 9.55783 18.9469 9.00705C19.4789 8.73986 20.2008 8.44689 20.7492 8.27346C20.7961 8.25939 20.8359 8.24299 20.8359 8.23596C20.8359 8.22424 20.8125 8.22658 20.7422 8.25002Z" fill="black"/>
<path d="M22.2633 11.5008C21.9211 11.7961 21.1359 12.232 20.5922 12.4336C19.9594 12.6656 19.2117 12.7828 18.675 12.7289C18.1102 12.675 17.7281 12.518 17.4281 12.2203C17.325 12.1172 17.318 12.1125 17.3578 12.1828C17.4305 12.3117 17.7141 12.6047 17.8641 12.7055C18.0563 12.8367 18.3094 12.9539 18.5555 13.0242C18.9469 13.1367 19.7016 13.1227 20.0672 12.9961C20.2055 12.9492 20.2055 12.9703 20.0695 13.0383C19.7227 13.2141 19.0899 13.4367 18.6914 13.5211C18.4149 13.582 18.532 13.582 18.8719 13.5258C19.4531 13.425 20.4211 13.0219 21.0352 12.6211C21.4992 12.3188 22.0617 11.836 22.2961 11.5336C22.3594 11.4563 22.4063 11.3906 22.4016 11.3906C22.3945 11.3906 22.3336 11.4399 22.2633 11.5008Z" fill="black"/>
<path d="M2.57345 12.1406C1.83048 12.2977 1.10392 12.8414 0.675011 13.5586C0.541417 13.7813 0.351574 14.257 0.382042 14.2875C0.38673 14.2945 0.400792 14.2688 0.410167 14.2336C0.445324 14.0883 0.68673 13.6406 0.834386 13.4438C1.15782 13.0172 1.52814 12.7008 1.95704 12.4899C2.32501 12.3094 2.54532 12.2555 2.9672 12.2414C3.55548 12.2203 3.81798 12.293 4.71095 12.7266C5.65782 13.1836 5.88751 13.261 6.52736 13.3477C6.63517 13.3617 6.54142 13.3266 6.28126 13.2539C5.93439 13.1578 5.69064 13.0547 4.92189 12.6703C3.93751 12.1781 3.66329 12.0914 3.08673 12.0961C2.88282 12.0961 2.70704 12.1125 2.57345 12.1406Z" fill="black"/>
<path d="M21.7383 12.3211C21.0563 12.9492 19.6805 13.5563 18.6094 13.7016C18.0563 13.7742 17.5102 13.7133 17.0508 13.5235L16.8867 13.4555L16.9969 13.5563C17.3414 13.875 18.0024 14.0227 18.7219 13.943C19.6055 13.8469 20.4891 13.4531 21.2461 12.818C21.5109 12.5953 21.9305 12.1946 21.9141 12.1805C21.907 12.1735 21.8297 12.2367 21.7383 12.3211Z" fill="black"/>
<path d="M9.63751 12.4899C9.4922 12.5883 9.35157 12.6938 9.32111 12.7242C9.29298 12.7547 9.33048 12.7336 9.40548 12.6797C9.48048 12.6235 9.54611 12.5836 9.55314 12.5906C9.56954 12.607 9.33282 12.8203 9.08204 13.0149C8.46798 13.4906 7.9711 13.7531 7.20235 14.011C6.47579 14.2547 5.96486 14.3461 4.6172 14.4727C3.54142 14.5711 3.23439 14.6227 2.73986 14.7891C2.24767 14.9531 1.71798 15.2578 1.39454 15.5649L1.22579 15.7242L1.07345 15.45C0.98673 15.3 0.895324 15.1195 0.867199 15.0516C0.83673 14.9836 0.808605 14.932 0.803917 14.9391C0.773449 14.9672 1.02189 15.5508 1.13907 15.7289C1.17892 15.7899 1.17892 15.7922 1.06642 15.9399C1.00314 16.0219 0.942199 16.1063 0.928136 16.125C0.904699 16.1602 1.13439 15.9539 1.18829 15.8906C1.21642 15.8602 1.2211 15.8602 1.2422 15.893C1.31954 16.0242 1.52579 16.268 1.76486 16.5141C1.91486 16.6711 2.03907 16.807 2.03907 16.8141C2.03907 16.8235 1.95939 16.9195 1.86329 17.032C1.7672 17.1422 1.68751 17.243 1.68751 17.257C1.68751 17.2735 1.75782 17.2149 1.84689 17.1305C2.12111 16.868 2.12579 16.8633 2.17267 16.9008C2.21017 16.9313 2.21251 16.9289 2.18439 16.8938C2.15861 16.861 2.17735 16.8399 2.34845 16.7156C2.76798 16.4156 3.45235 16.0664 4.11329 15.8203C4.42501 15.7031 4.72501 15.6047 6.08204 15.1641C6.71017 14.9625 7.05236 14.8219 7.40626 14.625C7.60548 14.5149 7.92189 14.3063 7.92189 14.2875C7.92189 14.2828 7.85157 14.3156 7.7672 14.3625C7.5422 14.4797 6.79689 14.8149 6.65626 14.8594C6.62345 14.8688 6.53907 14.9016 6.46876 14.9297C6.24845 15.0164 6.35157 14.9602 6.78048 14.7563C7.2211 14.5477 7.30782 14.5008 7.75782 14.2313C8.14454 13.9992 8.17736 13.9641 7.86329 14.1117C7.40626 14.3274 6.95157 14.5031 6.25782 14.7305C4.90548 15.1758 4.16017 15.4477 3.69376 15.6656C3.15235 15.9211 2.53829 16.3336 2.18439 16.6828C2.08126 16.786 2.06954 16.7906 2.03673 16.7555C2.01798 16.732 1.91954 16.6219 1.81876 16.507C1.62189 16.2867 1.37814 15.9727 1.32189 15.8649L1.28907 15.7992L1.45314 15.682C1.54454 15.6188 1.71095 15.518 1.82345 15.4617C2.55704 15.082 3.17579 14.9016 4.35939 14.7188C5.46564 14.5477 5.58517 14.5289 5.95314 14.4492C7.14611 14.1914 8.19142 13.7555 8.91798 13.2188C9.13361 13.0594 9.66564 12.5649 9.64454 12.5438C9.63986 12.5367 9.69376 12.4899 9.76876 12.4406C9.92345 12.3305 9.95626 12.3047 9.92579 12.307C9.91173 12.307 9.78282 12.3891 9.63751 12.4899ZM9.62111 12.5625C9.61407 12.5742 9.59532 12.586 9.5836 12.586C9.56954 12.586 9.5672 12.5742 9.57423 12.5625C9.58126 12.5485 9.60001 12.5391 9.61173 12.5391C9.62579 12.5391 9.62814 12.5485 9.62111 12.5625Z" fill="black"/>
<path d="M3.04689 13.5375C2.32267 13.6289 1.51642 13.95 1.01954 14.3461C0.862511 14.4703 0.607042 14.7281 0.49923 14.8711C0.344542 15.0774 0.34923 15.0961 0.515636 14.9274C0.787511 14.6531 1.15782 14.4281 1.66407 14.2266C2.58282 13.8586 3.47345 13.786 5.06251 13.943C5.69767 14.0063 6.01876 14.0203 6.3047 13.9969L6.55079 13.9758L6.29298 13.9711C5.97189 13.9688 5.54064 13.9195 5.03907 13.8281C4.24454 13.6852 4.17423 13.65 4.86798 13.7438C5.69298 13.8539 5.72345 13.8516 5.10939 13.7227C4.40157 13.575 4.15782 13.5445 3.6211 13.5352C3.35157 13.5305 3.09142 13.5328 3.04689 13.5375ZM4.32892 13.6781C4.32189 13.6852 4.30079 13.6875 4.28439 13.6805C4.26564 13.6735 4.27267 13.6664 4.29845 13.6664C4.32423 13.6641 4.33829 13.6711 4.32892 13.6781Z" fill="black"/>
<path d="M2.85236 14.2758C2.5336 14.2992 2.19376 14.3649 1.93126 14.4516C1.73204 14.5172 1.30548 14.7281 1.2586 14.7844C1.23517 14.8149 1.23985 14.8149 1.30079 14.7844C1.4836 14.6906 1.96876 14.5383 2.25001 14.4844C2.57579 14.4211 3.07032 14.3906 3.94454 14.3742C4.45548 14.3672 4.87267 14.3578 4.87032 14.3531C4.86095 14.3461 3.73126 14.2758 3.41017 14.2641C3.25548 14.2594 3.0047 14.2641 2.85236 14.2758Z" fill="black"/>
<path d="M11.4867 20.4516C11.4867 20.4774 11.4938 20.4844 11.5008 20.4656C11.5078 20.4492 11.5055 20.4281 11.4984 20.4211C11.4914 20.4117 11.4844 20.4258 11.4867 20.4516Z" fill="black"/>
<path d="M11.7492 22.7039C11.7844 22.7086 11.8406 22.7086 11.8781 22.7039C11.9133 22.6992 11.8828 22.6945 11.8125 22.6945C11.7422 22.6945 11.7117 22.6992 11.7492 22.7039Z" fill="black"/>
<path d="M10.3711 22.7953C8.68126 22.8141 5.36017 22.875 5.37189 22.8891C5.37657 22.8914 6.36095 22.9078 7.55861 22.9219C10.2492 22.9547 13.5609 22.9242 17.6133 22.8305C18.3211 22.8141 18.3094 22.8117 17.0742 22.8094C16.3781 22.807 14.7234 22.8 13.3945 22.7953C12.068 22.793 10.7063 22.7906 10.3711 22.7953Z" fill="black"/>
</svg>
