<svg width="22" height="24" viewBox="0 0 22 24" fill="none" xmlns="http://www.w3.org/2000/svg">
<path fill-rule="evenodd" clip-rule="evenodd" d="M0.398131 0.0452008C-0.0274192 0.176768 -0.143898 0.868953 0.206429 1.18462C0.329311 1.29531 0.364877 1.29868 1.59387 1.31372C2.51148 1.32495 2.86589 1.34583 2.89488 1.39028C2.91693 1.42396 2.98362 1.68125 3.04337 1.96235C3.14225 2.42732 3.49844 4.04317 3.58398 4.41429C3.66436 4.76342 3.93128 5.96862 4.50034 8.55214C4.69222 9.42326 4.94812 10.584 5.06923 11.1321C5.19033 11.6799 5.30965 12.2201 5.33455 12.3325C5.35927 12.4448 5.39359 12.5943 5.41066 12.6644C5.44463 12.8045 5.47183 12.928 5.65251 13.7627C5.71937 14.0719 5.78926 14.3826 5.80794 14.4536C5.84813 14.6071 5.82785 14.7079 5.75654 14.7079C5.51487 14.7079 4.78434 15.2766 4.5544 15.6437C3.96276 16.5889 3.77995 18.516 4.248 18.8736C4.40556 18.9937 19.1275 19.0649 19.5609 18.9475C20.0528 18.8141 20.1562 18.1377 19.7383 17.7863L19.6009 17.6709H12.3237H5.04646V17.5061C5.04646 17.2032 5.21131 16.659 5.37385 16.4262C5.65731 16.0193 5.963 15.899 7.15056 15.7268C7.54001 15.6702 8.00877 15.6017 8.1923 15.5746C8.376 15.5474 8.67635 15.5036 8.86005 15.4771C10.3912 15.2571 10.7008 15.2117 11.6822 15.0654C11.8714 15.0371 12.3539 14.9675 12.7546 14.9109C13.155 14.8541 13.7924 14.7611 14.1706 14.7043C14.8579 14.6011 16.2825 14.3954 18.4192 14.0914C19.6011 13.923 19.7677 13.8718 19.9034 13.6352C19.9791 13.5025 22 3.40487 22 3.15745C22.0002 2.99063 21.8472 2.69921 21.7157 2.61502C21.6367 2.56473 19.8009 2.55103 12.9516 2.55058C6.06934 2.54991 4.2793 2.53666 4.24765 2.48592C4.22559 2.45067 4.11143 1.98525 3.9937 1.45135C3.74563 0.325397 3.71397 0.232448 3.53863 0.111209C3.39441 0.0117477 0.690485 -0.0450549 0.398131 0.0452008ZM20.8021 3.86917C20.8229 3.91138 19.1588 12.3916 19.0901 12.5928C19.0613 12.6779 19.0048 12.7068 18.8174 12.7324C18.4853 12.7778 16.1839 13.1116 15.769 13.1747C15.4752 13.2192 14.9081 13.3009 12.9164 13.5851C12.6226 13.6271 12.2621 13.6823 11.7631 13.7618C11.663 13.7778 11.1713 13.8478 10.6707 13.9174C10.17 13.987 9.60552 14.0676 9.41631 14.0968C9.22727 14.1258 8.92674 14.1702 8.74873 14.1954C8.57072 14.2205 8.35217 14.2537 8.26325 14.2695C7.54819 14.3952 6.89395 14.456 6.86621 14.3992C6.84967 14.3655 6.80503 14.1855 6.76698 13.9991C6.72892 13.813 6.66313 13.5113 6.62098 13.3285C6.57883 13.146 6.41541 12.4102 6.25785 11.6938C6.10029 10.9774 5.82821 9.74746 5.65322 8.96076C5.47841 8.17405 5.24172 7.10513 5.12755 6.58537C5.01321 6.06562 4.83893 5.27913 4.74023 4.83751C4.64154 4.39611 4.56098 3.98816 4.56098 3.93091V3.82696H12.6712C17.1319 3.82696 20.7907 3.84582 20.8021 3.86917ZM5.00627 20.3074C3.41771 21.0344 3.80751 23.9798 5.49247 23.9798C6.87261 23.9798 7.52009 21.9306 6.51802 20.7342C6.13266 20.2739 5.48108 20.09 5.00627 20.3074ZM18.0465 20.2962C17.0732 20.6969 16.6857 22.119 17.2599 23.1832C18.0093 24.573 19.7184 24.1013 19.9784 22.4331C20.1875 21.0912 19.083 19.8693 18.0465 20.2962ZM5.73271 21.5858C6.00266 21.7869 6.05014 22.2409 5.83159 22.529C5.46508 23.0119 4.83609 22.4549 5.06371 21.8491C5.18357 21.5303 5.49442 21.408 5.73271 21.5858ZM18.754 21.6044C19.0649 21.8437 19.0277 22.4531 18.6902 22.6554C18.4265 22.8134 18.1014 22.6201 18.0395 22.2683C17.9408 21.7079 18.3703 21.3092 18.754 21.6044Z" fill="black"/>
</svg>
