<svg width="24" height="24" viewBox="0 0 24 24" fill="none" xmlns="http://www.w3.org/2000/svg">
<rect width="24" height="24" fill="white"/>
<path d="M22.7728 9.20535C20.2012 9.20535 17.6296 9.20535 15.0586 9.20535C14.9435 9.20535 14.8289 9.20535 14.7138 9.20535C13.9389 6.6984 13.162 4.19144 12.3866 1.68448C12.3364 1.52409 12.2872 1.36315 12.237 1.20221C12.2322 1.15112 12.2087 1.11048 12.1773 1.07697C12.1763 1.07642 12.1757 1.07532 12.1747 1.07477C12.1585 1.05829 12.1412 1.04456 12.1203 1.03303C12.1077 1.02534 12.0952 1.0193 12.0821 1.01435C12.0711 1.01051 12.0606 1.00831 12.0496 1.00611C12.0319 1.00227 12.0151 0.999521 11.9963 1.00007C11.9837 1.00007 11.9717 1.00227 11.9591 1.00391C11.9424 1.00666 11.9267 1.01051 11.911 1.016C11.9016 1.0193 11.8927 1.02424 11.8838 1.02918C11.8184 1.06269 11.7687 1.12091 11.7624 1.20166C10.9708 3.7586 10.1802 6.31499 9.38915 8.87138C9.35461 8.98234 9.32008 9.0933 9.28607 9.2048C6.77154 9.2048 4.25649 9.2048 1.74301 9.2048C1.57087 9.2048 1.39874 9.2048 1.22713 9.2048C0.97651 9.2048 0.927852 9.52779 1.10836 9.66566C3.18863 11.2526 5.2689 12.8384 7.34916 14.4258C7.43602 14.4917 7.52287 14.5571 7.6092 14.6235C6.83119 17.1376 6.05266 19.6523 5.27517 22.1664C5.22233 22.3378 5.16844 22.5097 5.1156 22.6816C5.0549 22.8772 5.29296 23.0892 5.46144 22.9607C7.5417 21.3738 9.6225 19.788 11.7028 18.2005C11.8022 18.1242 11.9021 18.0495 12.0015 17.9731C14.0415 19.5298 16.0825 21.0859 18.123 22.6426C18.2627 22.7481 18.4009 22.8552 18.5411 22.9607C18.7085 23.0892 18.9466 22.8783 18.8869 22.6816C18.0911 20.1131 17.2974 17.5458 16.5021 14.9795C16.465 14.8608 16.4284 14.7416 16.3917 14.6241C18.4192 13.0773 20.4471 11.5305 22.4751 9.98315C22.6148 9.87713 22.7529 9.77057 22.8921 9.66456C23.072 9.52833 23.0234 9.20535 22.7728 9.20535ZM14.1561 9.00376C14.21 9.17514 14.2623 9.34707 14.3162 9.519C14.3486 9.62446 14.4349 9.70081 14.5433 9.70081C17.0463 9.70081 19.5482 9.70081 22.0513 9.70081C22.0377 9.71125 22.023 9.72223 22.0099 9.73267L13.8061 10.9653L12.3154 12.4236L12.3269 12.3687L12.3045 12.3824L13.2949 10.6352L12.1977 2.67595C12.8507 4.78467 13.5031 6.89394 14.1561 9.00376ZM9.45612 9.70136C9.56442 9.70136 9.65075 9.62501 9.68319 9.51955C10.3895 7.2378 11.0953 4.9555 11.8011 2.67375L10.7045 10.6357L11.8236 12.6104L10.1593 10.8109L1.98264 9.72718C1.97165 9.71894 1.96066 9.71015 1.94915 9.70191C4.28004 9.70191 6.6104 9.70191 8.94023 9.70191C9.11237 9.70136 9.2845 9.70136 9.45612 9.70136ZM2.58956 10.1902L9.44931 13.4244L11.5291 12.8795L9.4603 14.2033L5.80257 22.0582C6.51884 19.7429 7.23563 17.4282 7.95137 15.1135C8.00422 14.9421 8.05811 14.7702 8.11095 14.5983C8.14548 14.4868 8.08636 14.383 8.00265 14.3192C6.19863 12.9427 4.39409 11.5667 2.58956 10.1902ZM12.1187 17.4579C12.0575 17.4112 11.9424 17.4112 11.8812 17.4579C10.0112 18.8855 8.14078 20.3103 6.27031 21.7368L11.6253 15.6227L12.0423 13.6865L12.4148 15.7957L17.6647 21.689C15.9549 20.385 14.2461 19.0816 12.5357 17.777C12.3971 17.671 12.2574 17.5639 12.1187 17.4579ZM15.9957 14.3187C15.912 14.3824 15.8528 14.4857 15.8874 14.5977C16.656 17.08 17.4235 19.56 18.191 22.0417L14.4501 14.1775L12.8146 13.0372L14.5155 13.5815L21.3873 10.2073C19.7293 11.4717 18.0712 12.7362 16.4137 14.0006C16.274 14.1061 16.1343 14.2132 15.9957 14.3187Z" fill="black"/>
</svg>
