<svg width="800" height="650" viewBox="0 0 800 650" fill="none" xmlns="http://www.w3.org/2000/svg">
<path fillRule="evenodd" clipRule="evenodd" d="M378.714 0.630919C377.242 1.94459 377.389 6.90269 379.025 11.04C381.976 18.5064 380.888 18.6923 369.516 12.6628C362.587 8.9891 360.754 8.61944 361.464 11.04C362.123 13.2977 360.56 13.116 354.511 10.2359C349.566 7.88011 346.572 7.7005 346.572 9.76185C346.572 11.1841 349.942 13.707 355.484 16.4304C361.358 19.3188 361.358 19.2854 355.648 22.4203C347.59 26.8437 351.733 28.4017 360.843 24.3751L365.517 22.3075L375.264 27.8003C386.781 34.2913 386.675 31.7809 376.235 50.8573C371.988 58.6224 368.512 65.1907 368.512 65.4539C368.512 65.9447 380.89 65.2053 386.928 64.3553L390.261 63.8875L393.556 48.5725C397.979 28.0133 398.37 30.0496 386.455 11.5371C384.176 7.99706 382.056 4.05398 381.74 2.77581C381.056 -0.00398808 380.146 -0.649334 378.714 0.630919ZM478.451 5.57858C477.698 8.09314 476.415 9.94146 474.588 11.1486L471.849 12.9552L474.473 14.3774C476.092 15.2567 477.63 17.1531 478.496 19.3356L479.895 22.8693L479.968 20.1542C480.017 18.2662 480.897 16.6769 482.86 14.9246C485.262 12.7818 485.467 12.2994 484.244 11.6875C482.332 10.733 480.733 7.99707 480.099 4.59072L479.579 1.8151L478.451 5.57858ZM229.697 6.86719C227.888 7.88847 228.796 10.6328 230.942 10.6328C232.252 10.6328 232.758 10.0835 232.758 8.66122C232.758 6.48499 231.588 5.79996 229.697 6.86719ZM158.471 13.4877C157.916 14.6928 157.865 15.8436 158.349 16.303C159.678 17.5624 160.788 15.7454 160.067 13.4877L159.414 11.4473L158.471 13.4877ZM254.239 14.3043C254.239 15.3904 254.85 15.9355 256.069 15.9355C257.286 15.9355 257.897 15.3904 257.897 14.3043C257.897 13.2162 257.286 12.6711 256.069 12.6711C254.85 12.6711 254.239 13.2162 254.239 14.3043ZM313.357 13.2162C312.098 14.3378 312.814 15.9355 314.576 15.9355C315.793 15.9355 316.404 15.3904 316.404 14.3043C316.404 12.7317 314.616 12.0926 313.357 13.2162ZM510.541 22.863C510.223 23.6003 510.403 24.5944 510.939 25.0727C512.331 26.3153 514.971 25.1792 514.606 23.4938C514.201 21.6162 511.271 21.163 510.541 22.863ZM92.6365 33.2095C91.8736 35.8326 90.6005 37.6747 88.5504 39.1137C86.6197 40.4733 86.0885 41.2105 87.0339 41.2168C89.0466 41.2293 91.2511 43.5872 92.8144 47.3988L94.132 50.6067L94.1952 47.9188C94.263 45.1703 97.6237 41.2252 99.8984 41.2252C100.53 41.2252 99.662 40.1934 97.9677 38.9299C95.6087 37.1735 94.7522 35.7846 94.3145 33.0152L93.7458 29.3959L92.6365 33.2095ZM353.2 38.4934C351.358 39.1722 351.887 41.883 353.977 42.4762C356.285 43.1299 357.834 41.9582 357.387 39.8948C357.054 38.3535 355.234 37.7436 353.2 38.4934ZM184.764 40.8471C181.494 41.4069 176.072 41.9039 172.711 41.954C163.678 42.0835 162.91 42.5534 155.021 52.7913C151.106 57.8726 146.734 63.3674 145.307 65.0007C142.243 68.5114 142.145 68.9626 144.448 68.9626C145.403 68.9626 148.323 70.2491 150.94 71.8196C158.506 76.3621 160.921 76.0405 176.91 68.3611C179.863 66.9409 190.107 66.5023 194.125 67.6217C197.205 68.4801 198.864 66.1201 196.339 64.4723C193.982 62.9351 194.506 62.436 198.475 62.436C203.671 62.436 203.207 60.8028 196.69 56.1475C190.696 51.8682 190.802 51.5277 198.405 50.6673C212.592 49.0612 208.269 44.4958 193.563 45.5525C187.258 46.0057 187.137 45.9807 189.791 44.7589C192.564 43.4828 194.82 41.4632 194.82 40.254C194.82 39.4144 192.224 39.5669 184.764 40.8471ZM287.607 42.8834C281.705 45.0722 280.308 45.2581 269.613 45.281C262.997 45.2936 256.91 45.7092 255.442 46.248C254.026 46.766 251.017 47.4113 248.756 47.6807C245.477 48.0713 244.67 48.4785 244.785 49.6836C244.864 50.5169 243.57 52.2629 241.908 53.564C234.97 59.0025 233.886 70.3326 238.658 87.5628C242.819 102.59 243.121 108.483 240.09 115.532C239.695 116.451 241.499 118.159 246.402 121.511C253.521 126.375 258.812 131.169 258.812 132.752C258.812 133.276 258.112 133.103 257.179 132.347C252.276 128.389 247.841 128.184 247.841 131.918C247.841 134.968 248.068 135.08 240.83 128.454L234.52 122.677L225.868 127.121C219.954 130.16 216.437 132.568 214.752 134.734C210.483 140.218 210.788 140.876 218.588 143.002L225.445 144.869L220.645 144.445C218.005 144.211 213.795 143.789 211.288 143.507L206.734 142.996L208.127 147.185C216.727 173.031 232.465 204.373 249.884 230.343C255.044 238.039 255.302 238.171 254.167 232.536C253.713 230.291 252.098 220.379 250.577 210.509C247.93 193.324 246.025 183.17 239.177 149.729C237.478 141.429 235.826 132.624 235.505 130.162L234.923 125.688L241.272 130.979L247.621 136.269L247.731 141.014C247.921 149.203 250.453 150.736 257.441 146.895C259.451 145.79 261.389 144.873 261.747 144.861C262.105 144.846 262.22 151.901 262.002 160.539C261.782 169.177 261.379 185.238 261.106 196.232C260.832 207.226 260.418 220.991 260.184 226.824C259.893 234.128 260.022 236.542 260.598 234.575C261.754 230.638 263.317 195.716 263.603 167.475C263.731 154.577 264.19 144.021 264.621 144.021C265.051 144.019 266.902 145.068 268.735 146.348C275.938 151.385 277.694 151.529 279.554 147.233C281.693 142.294 280.326 157.369 277.183 173.388C273.895 190.158 271.646 206.837 272.676 206.837C273.076 206.837 273.654 205.828 273.961 204.594C278.349 186.907 283.217 179.396 293.919 173.799C301.861 169.645 299.641 159.077 288.873 149.783L281.665 143.564V138.082V132.597H277.605C275.372 132.597 273.291 132.965 272.98 133.414C272.639 133.907 273.886 134.228 276.126 134.228H279.837L279.833 137.697C279.816 147.91 276.128 150.303 269.144 144.631C266.423 142.421 263.577 142.578 257.633 145.264C250.282 148.587 249.669 148.083 249.669 138.742C249.669 129.893 249.835 129.746 256.203 132.996C258.391 134.111 261.026 135.03 262.056 135.034C263.088 135.041 264.391 135.456 264.958 135.962C266.743 137.555 271.305 133.763 274.859 127.725C278.857 120.937 279.053 120.858 286.865 122.852C298.073 125.711 300.862 124.592 300.862 117.236C300.862 114.916 301.274 113.017 301.777 113.017C302.28 113.017 302.692 111.956 302.692 110.657C302.692 109.312 303.28 108.095 304.061 107.828C304.817 107.569 305.433 106.428 305.433 105.292C305.433 103.394 305.758 103.229 309.493 103.229C315.117 103.229 315.215 102.579 310.876 94.1708C307.871 88.3501 307.242 86.3953 307.927 85.0231C308.51 83.8578 308.393 81.3766 307.574 77.5484C305.814 69.3134 305.978 66.8991 308.417 65.1469C316.643 59.2364 316.729 51.7575 308.646 45.423C301.618 39.9157 297.083 39.3685 287.607 42.8834ZM435.245 54.6647C435.245 60.8634 431.824 64.9756 425.098 66.8594C421.655 67.8243 421.445 67.9977 423.635 68.0666C429.725 68.2587 433.974 72.1245 434.929 78.3399C435.613 82.7926 437.073 83.2124 437.078 78.9581C437.085 73.2732 442.423 68.265 448.683 68.0666C450.876 67.9977 450.665 67.8243 447.223 66.8594C440.698 65.032 437.073 60.8571 437.073 55.168C437.073 53.8355 436.663 52.5156 436.16 52.2399C435.615 51.9392 435.245 52.9187 435.245 54.6647ZM186.591 59.1967C187.551 59.7669 186.725 59.8525 183.849 59.4787C178.728 58.8166 177.998 58.353 182.098 58.3697C183.816 58.378 185.838 58.7498 186.591 59.1967ZM386.336 66.1723C385.833 66.3624 381.103 66.7905 375.823 67.1289L366.226 67.7387L361.489 77.9369C358.065 85.3093 356.465 90.0564 355.713 95.0688C355.142 98.8845 353.111 109.346 351.199 118.32C349.285 127.294 347.019 138.656 346.161 143.568C345.168 149.234 343.619 154.424 341.92 157.77C338.688 164.131 338.536 163.943 345.011 161.594C358.381 156.744 363.846 148.019 358.452 140.124C355.449 135.728 356.006 134.502 364.305 127.259C373.764 119.005 373.551 119.373 375.32 108.487C376.528 101.067 377.462 98.3144 380.848 92.2139C384.309 85.9755 389.53 70.6543 389.535 66.7195C389.537 65.7212 388.161 65.4873 386.336 66.1723ZM125.148 74.4699C115.571 84.2859 78.7189 138.019 78.7189 142.165C78.7189 147.745 91.9907 152.58 138.597 163.973C175.173 172.912 172.756 171.907 174.382 178.849C175.096 181.903 178.328 192.846 181.562 203.166C193.505 241.268 194.644 254.641 187.64 274.396C177.144 303.996 177.057 315.312 187.081 348.732C190.439 359.935 189.503 359.693 200.188 352.095C209.901 345.192 225.393 333.204 238.7 322.302C247.228 315.314 248.892 312.549 253.68 297.443C258.875 281.048 259.058 277.326 254.925 271.917C251.192 267.028 252.709 266.359 240.6 278.222C228.365 290.206 230.364 289.644 222.585 283.278C219.128 280.451 212.599 275.612 208.075 272.529C198.122 265.745 196.889 264.722 201.674 267.23C208.148 270.622 218.433 276.938 223.596 280.689C229.695 285.123 228.613 285.187 233.863 280.079C236.271 277.734 241.188 273.018 244.789 269.599C253.827 261.019 259.531 245.207 255.314 240.433C245.599 229.441 226.985 199.832 220.6 185.217C219.62 182.974 216.889 176.917 214.527 171.757C206.06 153.24 202.536 140.755 205.777 140.755C207.013 140.755 208.052 139.775 209.025 137.697C209.812 136.014 211.532 133.637 212.842 132.413L215.229 130.191L203.423 130.695C193.647 131.112 190.671 130.951 186.133 129.763C183.074 128.961 177.616 128.32 173.792 128.314C144.951 128.268 129.758 127.507 130.16 126.133C130.383 125.371 136.222 116.336 143.135 106.059C151.405 93.7614 155.438 87.026 154.923 86.364C154.319 85.5912 127.797 73.0435 126.765 73.0435C126.641 73.0435 125.913 73.6847 125.148 74.4699ZM145.18 74.3739C144.265 75.1926 144.389 77.7572 145.372 78.3003C146.978 79.1858 149.21 77.7468 148.929 76.0071C148.653 74.282 146.388 73.2962 145.18 74.3739ZM86.0323 77.1223C86.0323 78.2083 86.6431 78.7535 87.8624 78.7535C89.0793 78.7535 89.6902 78.2083 89.6902 77.1223C89.6902 76.0342 89.0793 75.4891 87.8624 75.4891C86.6431 75.4891 86.0323 76.0342 86.0323 77.1223ZM337.78 76.665C336.881 78.7597 337.857 80.7856 339.891 81.0466C342.47 81.3745 344.485 78.4026 342.865 76.6608C341.459 75.1487 338.431 75.1508 337.78 76.665ZM215.559 82.5441C214.214 83.7429 214.923 86.2178 216.531 85.94C217.41 85.7896 218.131 84.9668 218.131 84.1126C218.131 82.4898 216.641 81.5792 215.559 82.5441ZM66.917 88.6843C66.8702 89.9604 65.6696 91.9068 64.022 93.3751C61.9696 95.2067 61.6116 95.8854 62.6951 95.8854C63.561 95.8854 64.902 97.3223 65.9013 99.3127C67.6143 102.725 67.626 102.732 68.2462 100.524C68.5879 99.3043 69.8353 97.6293 71.0171 96.8002L73.1631 95.2944L70.8931 93.3918C69.6457 92.3454 68.2579 90.3676 67.8133 88.9955C67.0082 86.5268 66.9989 86.5227 66.917 88.6843ZM187.078 99.1226C186.683 100.679 185.166 102.945 183.711 104.16C181.141 106.301 181.12 106.384 182.985 106.913C184.076 107.222 185.616 108.93 186.533 110.85L188.157 114.241L188.817 111.599C189.177 110.148 190.509 108.233 191.775 107.343L194.076 105.729L191.747 103.866C190.465 102.842 189.053 100.718 188.609 99.1498L187.799 96.2927L187.078 99.1226ZM416.327 104.45C415.25 105.123 413.485 106.952 412.402 108.515C410.939 110.626 409.458 111.574 406.614 112.213C404.513 112.685 401.133 113.78 399.104 114.644C395.657 116.117 395.046 116.142 389.659 115.02C382.929 113.619 382.568 113.746 380.275 118.374C378.81 121.332 378.068 121.931 375.615 122.144C373.366 122.341 372.575 122.867 372.166 124.439C371.831 125.73 370.895 126.574 369.617 126.739C368.168 126.927 367.597 127.56 367.597 128.982C367.597 130.191 367.068 130.966 366.24 130.966C365.493 130.966 363.57 132.014 361.962 133.295L359.041 135.625L361.492 139.356C368.632 150.228 358.15 162.058 332.858 171.667C320.029 176.541 307.228 182.552 305.501 184.513C298.803 192.111 308.033 206.541 332.828 227.233L335.274 229.272L340.694 227.91C350.637 225.41 350.347 225.264 354.26 234.779C357.991 243.856 366.083 257.627 378.299 275.691C382.577 282.019 387.061 288.926 388.262 291.039C390.052 294.189 391.066 295.026 393.876 295.678C409.898 299.395 429.898 299.807 453.602 296.906L457.791 296.394L460.626 306.887C462.184 312.66 463.743 319.583 464.091 322.275C465.002 329.34 465.716 330.128 468.119 326.715C470.054 323.971 470.293 317.503 468.604 313.572C468.313 312.898 468.826 311.521 469.743 310.51L471.41 308.675L478.648 312.016C487.904 316.291 489.217 317.442 495.231 326.559C500.902 335.153 503.279 336.374 502.75 330.422C502.498 327.584 502.704 326.836 503.656 327.162C510.497 329.505 510.955 327.962 505.109 322.271C501.416 318.674 494.667 310.325 494.667 309.351C494.667 309.153 495.695 308.762 496.951 308.48C500.403 307.708 499.701 305.893 495.353 304.354C493.216 303.6 487.351 300.492 482.32 297.449C467.548 288.519 470.621 289.471 411.761 275.559C402.821 273.448 402.395 273.243 401.108 270.486C400.373 268.907 397.424 262.477 394.56 256.195C391.693 249.913 387.913 242.298 386.158 239.272C383.492 234.675 382.755 232.194 381.662 224.178C380.16 213.157 377.881 206.309 373.827 200.63C365.889 189.507 364.763 183.555 369.654 178.584C372.306 175.888 379.973 171.924 380.911 172.761C381.112 172.941 379.666 173.722 377.696 174.497C371.597 176.898 368.227 181.078 368.718 185.633C369.102 189.2 370.101 191.054 377.42 201.789C380.956 206.977 382.933 212.743 384.054 221.148C386.306 238.014 391.356 242.455 412.311 245.984C429.53 248.883 434.333 251.625 434.333 258.563C434.333 264.962 427.139 268.003 424.452 262.74C423.31 260.503 421.534 259.967 421.534 261.859C421.534 267.059 431.608 269.609 438.849 266.243C451.182 260.503 452.142 248.605 440.913 240.625C419.573 225.456 418.225 214.815 435.549 198.241C447.066 187.224 448.767 182.362 444.948 171.387C442.966 165.7 443.921 165.721 446.759 171.427C452.17 182.301 450.115 190.783 440.071 199.037C428.805 208.293 427.52 209.41 428.847 208.798C450.3 198.92 457.377 185.612 449.065 170.781C443.645 161.116 443.305 157.743 447.277 153.079C453.712 145.521 454.393 144.46 454.955 141.118C455.716 136.595 453.059 131.158 448.611 128.13C445.624 126.098 445.301 125.498 445.301 121.994C445.301 109.837 426.207 98.2747 416.327 104.45ZM424.681 106.673C426.607 109.129 426.469 111.635 424.281 113.947L422.458 115.872L423.822 112.84C425.587 108.926 425.552 108.446 423.361 106.491C422.355 105.593 421.922 104.86 422.395 104.86C422.87 104.86 423.897 105.676 424.681 106.673ZM421.534 110.21C421.534 110.858 421.122 111.386 420.619 111.386C420.115 111.386 419.706 110.63 419.706 109.707C419.706 108.782 420.115 108.254 420.619 108.531C421.122 108.807 421.534 109.563 421.534 110.21ZM320.226 119.74C320.574 121.929 323.252 122.622 324.061 120.734C324.834 118.94 324 117.913 321.77 117.913C320.389 117.913 320.006 118.366 320.226 119.74ZM261.782 138.848C259.072 139.823 261.026 140.755 265.779 140.755C270.244 140.755 270.769 140.594 269.781 139.531C268.693 138.361 264.2 137.979 261.782 138.848ZM48.2393 147.474C47.3359 154.282 42.536 158.674 35.0565 159.539L30.727 160.04L34.3825 160.621C43.1772 162.022 46.8936 165.639 48.3516 174.213L49.1122 178.69L50.163 173.565C51.7707 165.729 56.4443 161.17 62.9057 161.139C67.619 161.116 68.1667 159.792 63.6874 159.244C55.1384 158.198 50.4485 153.618 50.4017 146.262C50.3712 141.726 48.8922 142.555 48.2393 147.474ZM380.853 153.875C386.081 156.582 385.763 157.068 380.368 154.612C378.384 153.708 374.183 150.732 371.035 148L365.311 143.029L370.797 147.269C373.813 149.6 378.339 152.572 380.853 153.875ZM412.833 152.689C415.772 155.312 414.269 158.305 410.045 158.236L406.327 158.177L406.729 162.519C407.005 165.483 406.795 166.861 406.069 166.861C405.484 166.861 405.844 167.665 406.872 168.647C409.781 171.435 408.143 172.164 401.618 170.988C401.475 170.963 401.878 170.115 402.514 169.106C403.151 168.095 403.726 166.719 403.79 166.047C403.855 165.372 404.209 163.263 404.574 161.356C405.018 159.038 404.908 157.889 404.244 157.889C402.608 157.889 403.12 154.616 404.85 154.034C405.73 153.735 406.994 153.012 407.658 152.427C409.28 150.997 411.038 151.085 412.833 152.689ZM409.011 154.455C407.443 155.345 409.132 157.423 410.927 156.809C411.733 156.533 412.393 155.746 412.393 155.059C412.393 153.722 410.801 153.438 409.011 154.455ZM299.561 159.159C299.898 160.754 300.223 164.056 300.289 166.5C300.352 168.941 300.471 170.938 300.553 170.94C301.297 170.946 311.578 167.247 312.231 166.736C313.289 165.911 310.118 162.793 304.396 159.038C299.119 155.573 298.81 155.579 299.561 159.159ZM336.516 167.793C335.26 168.248 329.5 169.904 323.717 171.473C298.33 178.36 289.748 182.485 285.587 189.797C282.908 194.509 283.235 194.477 289.039 189.484C293.862 185.334 308.236 179.108 331.843 170.948C336.65 169.286 341.464 166.811 339.69 166.913C339.201 166.943 337.773 167.337 336.516 167.793ZM78.7189 175.835C78.7189 176.924 79.3298 177.469 80.549 177.469C81.766 177.469 82.3768 176.924 82.3768 175.835C82.3768 174.747 81.766 174.204 80.549 174.204C79.3298 174.204 78.7189 174.747 78.7189 175.835ZM216.289 195.288C215.517 195.987 213.507 190.712 213.851 188.889C214.162 187.243 214.464 187.635 215.417 190.929C216.067 193.172 216.458 195.133 216.289 195.288ZM212.592 194.329C218.248 200.482 218.204 200.476 218.894 195.275C219.201 192.953 219.851 190.697 220.34 190.261C220.914 189.749 221.103 190.016 220.879 191.015C219.713 196.173 219.685 198.565 220.792 198.187C221.431 197.967 222.529 198.41 223.233 199.168C224.38 200.4 224.312 200.488 222.594 200.001C221.422 199.669 220.27 199.893 219.634 200.576C218.201 202.115 220.797 204.122 225.489 205.102C228.391 205.709 228.618 205.874 226.645 205.939C221.923 206.098 216.694 203.195 215.47 199.736C214.785 197.798 206.683 190.493 204.141 189.519C203.102 189.122 203.479 188.987 205.279 189.112C207.347 189.254 209.039 190.461 212.592 194.329ZM140.411 196.027C136.556 201.44 135.555 201.969 132.344 200.286C114.162 190.762 78.761 193.817 56.4045 206.841C41.7754 215.364 20.2122 238.073 20.2122 244.957C20.2122 247.204 21.724 245.744 24.7851 240.541C40.5912 213.662 70.074 197.034 102.03 196.973C124.132 196.931 135.417 201.004 140.371 210.805C142.386 214.796 144.001 215.099 145.316 211.733C146.652 208.312 147.139 208.51 154.544 215.465C164.3 224.633 171.497 235.487 174.782 245.997C176.116 250.263 177.89 252.567 176.98 248.852C173.535 234.771 163.514 219.604 151.686 210.569C148.553 208.176 147.928 207.18 147.705 204.214C147.085 195.952 143.406 191.821 140.411 196.027ZM206.172 194.279C208.829 195.19 207.785 196.888 204.647 196.76C200.93 196.61 199.837 200.574 202.91 203.057C204.944 204.699 210.436 204.235 212.269 202.265C214.195 200.194 216.266 202.405 218.08 208.468L218.691 210.509L216.32 208.184C214.621 206.52 214.125 205.365 214.562 204.105C215.143 202.441 215.084 202.42 213.453 203.715C209.337 206.975 200.982 206.087 199.332 202.213C197.382 197.637 201.621 192.721 206.172 194.279ZM214.017 206.862C214.017 207.326 213.296 207.932 212.416 208.211C208.939 209.312 207.619 211.133 207.553 214.918C207.504 217.762 207.3 218.274 206.704 217.035C205.091 213.685 205.688 210.106 208.209 208.021C210.661 205.993 214.017 205.323 214.017 206.862ZM204.876 207.906C204.876 208.046 203.537 208.992 201.904 210.008L198.934 211.852L201.499 209.753C203.865 207.817 204.876 207.263 204.876 207.906ZM215.316 212.088C213.336 213.378 214.188 216.014 216.343 215.277C217.16 214.997 218.178 213.994 218.606 213.046C219.32 211.469 219.39 211.515 219.444 213.568C219.475 214.801 219.194 215.839 218.817 215.874C218.44 215.908 217.439 216.056 216.591 216.202C214.387 216.582 211.794 213.775 212.681 211.967C213.072 211.165 213.322 210.216 213.235 209.861C213.149 209.506 213.94 209.627 214.993 210.131C216.79 210.989 216.811 211.11 215.316 212.088ZM463.649 212.407C463.614 213.451 462.399 215.364 460.948 216.657L458.311 219.011L460.523 220.304C461.737 221.014 462.975 222.674 463.27 223.994C463.846 226.559 465.414 226.53 465.414 223.955C465.414 223.102 466.479 221.524 467.78 220.446C469.79 218.781 469.923 218.412 468.662 217.981C467.848 217.702 466.401 215.905 465.447 213.99C464.094 211.273 463.701 210.924 463.649 212.407ZM272.854 215.857C273.16 217.227 275.498 221.123 278.049 224.51C284.052 232.484 283.518 232.739 276.774 225.118C270.373 217.885 266.589 217.662 271.152 224.786C272.835 227.413 272.835 228.048 271.152 228.048C264.49 228.048 287.958 251.391 302.051 258.78C313.099 264.576 316.732 265.06 320.635 261.259C327.202 254.864 330.16 238.777 326.191 231.041C323.326 225.456 312.992 213.157 311.524 213.587C309.048 214.312 309.837 220.41 313.156 226.223C316.664 232.365 317.167 234.575 315.061 234.575C313.467 234.575 293.345 221.158 289.493 217.526C286.823 215.009 284.101 214.274 283.053 215.786C282.311 216.858 284.714 220.845 288.309 224.512C290.886 227.139 290.97 227.355 288.962 226.185C287.694 225.448 284.246 222.261 281.3 219.105C275.332 212.712 271.848 211.371 272.854 215.857ZM85.4917 214.995C35.9951 221.114 7.43431 265.378 21.7427 313.796L24.0596 321.63L20.7551 325.734C16.6386 330.846 10.6124 342.214 9.16842 347.592C7.39918 354.177 7.19791 354.302 5.94119 349.605C1.04301 331.306 2.66248 307.211 9.7137 293.466C12.0891 288.838 11.9838 286.783 9.51712 289.644C0.85346 299.707 -2.66398 328.177 2.21079 348.791C9.63646 380.177 16.4958 395.312 32.4986 415.633L37.3593 421.807L34.1766 425.886C10.3901 456.355 14.1626 514.039 42.8075 557.879L47.1814 564.575L47.4482 591.498C47.7478 621.672 47.7267 621.875 44.2772 622.24C40.7878 622.61 40.5585 624.41 43.8723 625.442C46.8749 626.376 48.0895 629.254 47.4833 633.995L47.1814 636.367L29.3556 636.774C12.2904 637.165 11.5274 637.253 11.5274 638.815C11.5274 640.398 12.1383 640.446 32.1195 640.446C56.278 640.446 61.3518 641.613 61.3518 647.175V649.828H391.821H722.294V647.476C722.294 644.909 723.906 644.149 729.38 644.128C732.092 644.117 732.35 644.337 732.35 646.632C732.35 649.754 734.503 649.475 734.924 646.298L735.214 644.117L744.98 644.113C752.9 644.111 755.919 643.744 760.936 642.177C766.67 640.385 768.184 640.266 781.505 640.577C796.892 640.935 799.998 640.653 800 638.886C800 637.073 797.803 636.774 784.383 636.774H771.659V631.839C771.659 626.95 771.692 626.889 774.922 625.684C778.76 624.254 778.629 622.84 774.568 621.9L771.659 621.228V607.383C771.659 598.874 771.313 593.536 770.763 593.536C769.307 593.536 768.916 596.518 768.682 609.394L768.46 621.58L765.415 622.284C761.968 623.08 762.595 624.784 766.67 625.697C768.767 626.167 768.916 626.551 768.916 631.488V636.774H752.106H735.296L734.681 633.85C733.913 630.198 734.873 626.106 736.813 624.753C738.161 623.813 738.135 623.613 736.508 622.493C734.847 621.347 734.72 620.104 734.639 604.273L734.55 587.281L737.924 591.092C742.577 596.345 752.989 603.035 755.397 602.318C755.949 602.153 753.73 600.317 750.463 598.237C738.706 590.748 735.144 585.364 735.114 575.026C735.102 571.35 735.504 568.115 736.008 567.839C737.423 567.058 737.086 563.673 735.474 562.478C732.448 560.237 729.305 564.287 731.383 567.749C732.015 568.802 732.319 572.53 732.158 577.21L731.893 584.936L726.436 587.878L720.981 590.821L719.34 585.057C716.118 573.733 709.49 563.994 700.632 557.568C696.434 554.521 687.669 550.956 686.272 551.726C685.788 551.994 686.827 552.654 688.582 553.197C704.421 558.09 716.759 573.313 718.329 589.9C718.821 595.092 720.466 597.914 720.466 593.567C720.466 592.511 721.968 591.506 725.495 590.201C728.259 589.177 730.522 588.02 730.522 587.628C730.522 587.235 730.967 587.16 731.512 587.461C732.841 588.194 731.781 621.146 730.379 622.652C729.654 623.431 729.701 624.064 730.552 624.978C731.198 625.672 731.76 628.5 731.807 631.3L731.893 636.367L712.525 636.586L693.16 636.808L692.565 633.276C691.51 627 692.186 625.116 696.071 623.487C700 621.844 707.667 615.367 707.667 613.696C707.667 613.093 705.703 614.277 703.305 616.326C697.529 621.257 694.152 622.867 692.996 621.236C691.514 619.145 691.922 607.65 693.499 607.111C695.249 606.51 695.278 603.014 693.541 601.727C690.073 599.158 686.289 603.517 688.9 607.074C690.3 608.981 690.11 612.301 688.603 612.301C687.18 612.301 679.315 604.217 674.714 598.024C669.083 590.449 665.39 586.034 661.578 582.319C658.14 578.969 658.795 578.975 664.416 582.352C677.838 590.412 691.746 594.699 704.283 594.639C714.641 594.589 716.581 593.164 706.473 593.029C689.373 592.803 674.252 586.565 648.17 568.977C624.25 552.848 604.99 547.639 583.307 551.434C575.631 552.777 560.487 558.547 560.487 560.128C560.487 561.269 560.962 561.137 566.214 558.52C598.746 542.313 641.208 557.63 670.092 595.988C678.449 607.086 685.184 613.932 687.751 613.932C689.242 613.932 689.385 614.929 689.385 625.367V636.799L662.645 636.584L635.905 636.367L635.638 620.459C635.252 597.49 635.261 597.465 644.133 601.176C652.256 604.572 659.212 612.475 661.14 620.497C661.833 623.381 662.444 624.431 663.092 623.853C663.74 623.276 663.695 621.812 662.954 619.179C659.963 608.577 651.496 600.497 640.323 597.577C635.657 596.358 635.477 595.856 635.46 583.95C635.451 576.341 635.214 574.773 634.077 574.773C632.926 574.773 632.706 576.54 632.706 585.786C632.706 595.51 632.528 596.8 631.187 596.8C628.203 596.8 621.969 600.867 618.109 605.33C607.801 617.257 598.882 618.769 598.882 608.592C598.882 605.816 599.303 604.814 600.766 604.116C602.865 603.114 602.816 600.472 600.698 600.472C598.475 600.472 598.491 595.821 600.719 593.526C602.409 591.788 602.474 591.433 601.257 590.639C600.492 590.14 599.612 588.11 599.298 586.128C598.135 578.76 596.181 578.929 596.153 586.398C596.144 589.294 595.793 590.274 594.768 590.274C593.001 590.274 592.991 592.678 594.753 593.854C596.79 595.215 597.033 600.501 595.051 600.365C592.729 600.209 592.306 602.308 594.398 603.615C595.94 604.58 596.193 605.514 595.959 609.415L595.683 614.064L592.184 611.94C589.226 610.146 588.732 610.039 588.996 611.261C589.167 612.057 590.845 613.596 592.724 614.68C596.523 616.873 597.314 619.92 594.552 621.722C593.045 622.706 593.045 622.838 594.552 624.325C595.725 625.482 596.139 627.311 596.139 631.344V636.799L568.028 636.582L539.919 636.367L539.661 613.116C539.376 587.223 539.446 586.579 542.582 585.878C544.953 585.345 550.431 581.592 550.431 580.5C550.431 580.14 548.367 580.815 545.844 581.999C539.612 584.927 539.493 584.639 539.474 566.818C539.462 554.134 539.259 551.929 538.088 551.929C536.918 551.929 536.719 554.247 536.719 567.893V583.856L534.662 583.288C533.53 582.972 531.449 581.991 530.038 581.103C528.627 580.216 527.283 579.658 527.054 579.863C526.109 580.706 530.574 584.512 533.532 585.383L536.719 586.32V611.547V636.774H524.377H512.037V632.725C512.037 630.496 511.215 624.899 510.211 620.284C509.207 615.668 508.383 610.516 508.381 608.832C508.379 606.362 508.042 605.775 506.626 605.775C502.566 605.775 498.618 595.556 501.424 592.312C502.828 590.689 502.837 590.691 502.865 592.41C502.888 593.787 503.598 594.221 506.371 594.553C508.28 594.783 512.991 596.266 516.834 597.851L523.822 600.733L524.604 598.638C525.348 596.648 525.034 596.387 518.355 593.402C510.705 589.986 508.985 588.311 508.023 583.338C506.436 575.147 504.091 573.624 490.448 571.924C485.695 571.331 481.204 570.4 480.466 569.854C479.387 569.057 479.125 569.107 479.125 570.109C479.125 570.796 477.944 573.71 476.497 576.586C473.307 582.931 471.187 589.301 470.45 594.76C469.797 599.603 470.181 600.052 493.981 622.293C501.901 629.692 508.379 635.979 508.379 636.261C508.379 636.545 490.895 636.774 469.528 636.774H430.675V631.142V625.507L435.362 624.93C440.251 624.331 450.836 619.947 451.459 618.264C451.655 617.729 449.013 618.533 445.589 620.052C442.163 621.568 437.471 623.03 435.161 623.297L430.965 623.784L430.363 610.16C430.031 602.669 429.76 587.603 429.76 576.682C429.76 563.988 429.43 556.824 428.847 556.824C428.253 556.824 427.927 568.186 427.918 589.253C427.911 607.09 427.572 622.151 427.164 622.725C425.496 625.07 411.611 620.801 407.249 616.599C406.055 615.451 405.079 614.947 405.079 615.482C405.079 618.485 414.321 623.389 422.369 624.653L427.614 625.478L427.543 630.922L427.476 636.367H407.363H387.251L387.01 610.8C386.717 579.913 386.701 579.992 394.007 576.517C400.878 573.25 404.377 573.204 407.89 576.341C409.638 577.899 410.562 578.311 410.562 577.528C410.562 572.037 401.002 570.773 392.8 575.18C389.879 576.751 387.434 578.035 387.37 578.035C387.218 578.035 387.375 570.911 387.586 568.246C387.794 565.634 393.186 562.156 399.083 560.83C402.355 560.095 403.097 559.669 402.034 559.138C399.938 558.092 393.621 559.604 390.113 561.991L387.075 564.059L387.501 559.83C388.061 554.289 390.279 552.115 396.086 551.428C401.459 550.791 401.934 549.483 396.79 549.483C392.814 549.481 389.764 550.586 387.967 552.674C387.08 553.704 386.846 550.327 386.823 536.157C386.802 522.278 386.542 518.421 385.653 518.684C384.798 518.937 384.447 523.208 384.262 535.511L384.014 551.998L382.002 550.741C379.776 549.35 372.168 549.007 372.168 550.298C372.168 550.747 373.209 551.114 374.482 551.114C378.4 551.114 383.031 553.282 383.523 555.344C384.864 560.98 384.356 566.546 382.826 562.985C382.17 561.463 378.105 559.638 373.839 558.948C369.062 558.178 368.665 559.723 373.366 560.78C381.857 562.687 383.56 564.548 383.862 572.244C384.117 578.731 384.057 578.973 382.519 577.601C377.422 573.05 367.625 571.195 363.607 574.017C360.296 576.339 360.549 577.697 363.883 575.498C367.803 572.912 376.561 574.783 382.453 579.466C383.925 580.635 385.14 636.774 383.691 636.774C383.493 636.774 382.067 635.72 380.52 634.431C369.177 624.976 364.803 623.803 357.752 628.324C354.241 630.574 356.301 627.71 360.2 624.92L363.654 622.447L358.924 617.727L354.195 613.007L346.013 615.108C335.1 617.911 323.713 619.64 316.175 619.642C312.781 619.642 310.02 619.918 310.036 620.254C310.052 620.591 311.042 624.17 312.234 628.209C313.422 632.246 314.209 635.824 313.979 636.156C313.75 636.488 299.203 636.758 281.653 636.753L249.746 636.745L249.163 633.978C248.845 632.455 248.808 621.207 249.084 608.978C249.61 585.529 249.634 585.418 253.921 585.391C255.95 585.378 278.805 579.228 279.662 578.465C281.171 577.116 278.014 577.53 267.883 580.005C261.637 581.529 254.984 583.012 253.097 583.298L249.669 583.82V563.729C249.669 548.017 249.421 543.709 248.527 543.974C247.675 544.229 247.268 549.143 246.926 563.351C246.47 582.423 246.025 584.67 243.296 581.734C242.063 580.408 239.613 580.023 239.613 581.157C239.613 582.154 243.673 585.378 244.93 585.378C245.742 585.378 246.013 591.807 246.013 611.077V636.774H231.44C218.267 636.774 213.479 636.129 217.207 634.853C220.441 633.744 213.762 629.694 204.876 627.372C203.619 627.044 201.017 626.067 199.093 625.2C197.092 624.3 192.004 623.281 187.207 622.821C175.946 621.739 173.331 620.895 171.054 617.606C170.006 616.096 166.364 612.654 162.957 609.96C159.552 607.266 154.328 602.285 151.352 598.891C144.787 591.412 146.035 591.216 139.8 600.712C132.058 612.502 132.051 612.429 141.876 618.055L146.173 620.517L152.133 615.223L158.094 609.929L161.71 612.266C166.28 615.221 168.754 618.324 171.658 624.747C175.117 632.403 177.748 634.072 189.791 636.254C190.797 636.436 184.16 636.628 175.045 636.68L158.471 636.774L157.818 629.024C157.46 624.761 156.837 621.275 156.432 621.275C155.751 621.275 154.228 631.305 154.633 633.117C155.445 636.751 155.351 636.774 139.969 636.774H125.342V605.775V574.773H128.206C134.764 574.773 143.025 570.765 145.576 566.346C146.386 564.94 145.96 565.093 143.512 567.079C138.871 570.847 136.135 572.131 130.982 572.968C125.103 573.921 125.342 574.23 125.342 565.663V558.456L127.855 558.374L130.371 558.293L128.085 557.729C125.932 557.196 125.784 556.801 125.531 550.843L125.265 544.521L129.77 545.056C132.468 545.375 134.958 545.235 135.978 544.705C137.35 543.995 136.657 543.817 132.459 543.796C126.362 543.767 125.342 542.785 125.342 536.94V533.266L129.685 532.704C135.925 531.896 141.796 528.719 141.799 526.153C141.799 525.591 140.633 526.171 139.21 527.441C136.666 529.711 131.441 531.52 127.399 531.53L125.342 531.535V506.583C125.342 486.987 125.096 481.705 124.2 481.972C123.325 482.233 122.95 489.351 122.599 512.408L122.143 542.505L118.394 539.481C114.75 536.543 113.062 536.188 114.087 538.577C114.366 539.222 116.395 540.856 118.597 542.207L122.599 544.665V550.289C122.599 553.382 122.201 556.133 121.712 556.402C119.926 557.386 111.53 553.301 108.012 549.736C105.775 547.468 104.642 546.743 104.944 547.773C105.838 550.826 111.487 555.06 117.109 556.889L122.599 558.675V565.907V573.142L119.173 573.133C111.319 573.115 103.336 567.852 99.3906 560.089C96.9426 555.273 96.0721 556.517 98.403 561.498C101.658 568.453 109.189 573.547 117.848 574.652L122.143 575.201V605.783V636.367L116.283 636.614C109.489 636.9 108.197 636.037 95.721 622.907C84.118 610.693 83.2287 609.296 83.8886 604.346C84.5626 599.294 83.7669 599.421 94.8575 602.592C105.95 605.764 112.147 610.607 114.579 618.011C115.391 620.48 116.086 621.718 116.126 620.766C116.517 611.62 104.942 602.391 89.8797 599.837L84.2045 598.874V594.167C84.2045 588.037 86.0346 587.893 92.2598 593.536C98.4498 599.15 104.261 599.156 107.507 593.553C111.143 587.277 106.498 580.775 98.9225 581.538C94.7662 581.955 90.6192 585.015 90.6075 587.672C90.6052 588.407 89.5357 588.661 87.1767 588.486L83.7482 588.233L83.4908 567.022C83.1678 540.363 83.4791 539.692 96.2008 539.692C98.5808 539.692 100.479 538.443 99.4678 537.541C99.0723 537.188 88.6487 539.663 84.4011 541.119C83.2099 541.526 83.0836 540.897 83.5516 536.846C84.1484 531.697 84.6422 531.171 90.1465 529.807C96.1984 528.306 96.7858 528.022 94.5392 527.669C92.6553 527.372 88.5926 528.145 84.8434 529.509C83.3457 530.056 83.2216 529.645 83.472 524.908L83.7482 519.705L87.4037 519.24L91.0616 518.774L87.4037 518.423L83.7482 518.072L83.5071 492.171C83.2989 469.897 83.0742 466.269 81.9064 466.269C80.3993 466.269 80.4578 464.51 80.5467 506.97L80.5982 530.948L78.5224 529.718C77.3803 529.039 75.6204 526.986 74.6118 525.152C72.6576 521.602 71.8853 521.086 71.1318 522.836C70.3057 524.76 73.1983 528.738 76.9029 530.779C80.4624 532.738 80.4999 532.811 80.5233 537.857L80.549 542.957L76.2055 543.067L71.8643 543.18L76.2055 544.02L80.549 544.861V566.713V588.568L77.5769 588.977C67.268 590.397 68.0449 590.936 57.144 574.854L50.837 565.552L50.5936 502.302C50.4134 456.238 50.6263 438.899 51.3729 438.488C52.1241 438.074 52.1288 437.473 51.3893 436.24C49.2947 432.748 50.1021 414.568 52.4377 412.653C55.7936 409.9 77.0223 401.003 80.2331 401.003C80.4063 401.003 80.549 402.319 80.549 403.925C80.549 407.697 82.653 407.283 83.2918 403.386C83.8395 400.04 86.257 399.56 103.175 399.443C109.039 399.401 113.458 399.036 113.458 398.593C113.458 397.215 107.179 396.703 95.0868 397.094L83.2918 397.474L83.3153 366.808L83.341 336.145L86.0814 339C87.5886 340.57 94.2279 349.014 100.837 357.765C115.887 377.693 123.643 387.069 125.115 387.106C126.006 387.127 126.257 380.87 126.257 358.458V329.781L128.969 333.125C133.542 338.757 143.39 347.629 148.67 350.875L153.683 353.955V364.427C153.683 373.188 153.905 374.897 155.054 374.897C156.196 374.897 156.425 373.266 156.425 365.106C156.425 359.722 156.599 355.317 156.811 355.317C157.024 355.317 160.315 356.817 164.125 358.65C172.877 362.865 173.898 361.031 165.337 356.47C156.367 351.692 156.425 351.763 156.425 345.249C156.425 340.549 156.769 339.184 158.337 337.694L160.252 335.877L158.337 334.963C155.669 333.687 155.929 332.895 159.669 330.926C168.948 326.041 165.812 312.889 155.372 312.898C142.833 312.906 139.421 327.4 150.956 331.663L153.762 332.701L151.796 334.566C149.777 336.487 150.041 338.185 152.365 338.185C153.701 338.185 154.394 347.882 153.137 349.004C151.499 350.466 137.448 338.789 130.09 329.856L126.257 325.201V309.713C126.257 295.509 125.719 291.891 123.849 293.558C123.598 293.784 123.229 299.742 123.027 306.801C122.828 313.86 122.529 319.756 122.365 319.902C120.802 321.298 106.805 294.097 103.795 283.819C97.495 262.295 107.869 244.967 126.341 246.159C143.584 247.273 149.786 267.107 134.481 272.182C130.163 273.615 130.762 274.847 135.375 274.024C155.492 270.434 145.761 242.981 124.453 243.204C92.8355 243.536 90.5608 283.661 119.952 322.528L122.693 326.151L122.625 353.126C122.587 367.963 122.463 380.175 122.349 380.262C122.236 380.348 115.971 372.313 108.431 362.403C100.888 352.493 92.1474 341.489 89.0044 337.947L83.2918 331.508V304.253C83.2918 280.57 83.1116 276.998 81.9204 276.998C80.7316 276.998 80.5444 280.388 80.5163 302.493L80.4835 327.987L76.6899 323.908C69.9804 316.694 62.2341 310.611 56.236 307.841L50.3876 305.143L50.3829 299.22C50.3806 294.306 50.6919 293.061 52.2083 291.902C54.579 290.091 54.5182 288.911 51.9813 287.37C49.9687 286.15 49.964 286.11 51.752 285.519C64.6235 281.265 63.5516 265.984 50.3806 265.984C39.0654 265.984 35.899 279.394 45.9645 284.699L48.8992 286.246L46.8959 287.433C44.5767 288.807 44.2982 291.041 46.2664 292.499C50.28 295.471 47.9912 301.676 41.2395 306.118C38.4733 307.937 34.0385 311.3 31.3799 313.589L26.5496 317.749L25.5737 315.525C21.3964 306.003 19.7652 283.274 22.4471 271.98C30.2496 239.125 62.5174 215.901 99.1378 216.778C108.927 217.014 112.246 216.549 108.202 215.511C104.867 214.652 90.8369 214.335 85.4917 214.995ZM262.772 239.37C261.181 241.07 259.416 244.084 258.85 246.066C258.286 248.045 256.729 252.93 255.391 256.919L252.959 264.173L256.072 269.371C258.045 272.663 259.421 274.191 259.828 273.54C261.611 270.691 266.47 243.014 265.952 238.662L265.667 236.281L262.772 239.37ZM226.657 241.759C227.261 245.564 222.362 247.611 220.415 244.365C218.92 241.87 220.806 239.305 223.905 239.625C225.665 239.806 226.442 240.41 226.657 241.759ZM394.993 245.132C398.412 247.477 405.599 249.267 413.268 249.685L420.162 250.061L411.391 248.53C406.568 247.69 400.654 246.224 398.248 245.276C392.879 243.156 392.058 243.121 394.993 245.132ZM328.983 251.21C328.452 257.122 325.971 261.867 320.792 266.882C316.498 271.04 317.12 271.422 322.851 268.151C335.498 260.934 339.896 251.682 332.521 247.799L329.437 246.174L328.983 251.21ZM226.259 257.621C226.987 258.657 226.987 259.442 226.259 260.478C223.696 264.127 218.166 261.17 220.446 257.369C221.639 255.376 224.78 255.514 226.259 257.621ZM55.9364 270.409C63.1444 276.842 53.0579 286.833 45.3724 280.873C41.5531 277.911 41.2769 273.575 44.7125 270.509C48.4218 267.199 52.2996 267.164 55.9364 270.409ZM295.283 268.381C295.063 268.578 287.897 268.949 279.36 269.208L263.839 269.678L263.563 272.422C263.181 276.192 265.129 276.428 290.523 275.706C310.797 275.131 311.054 275.1 310.544 273.408C310.261 272.466 310.024 270.869 310.017 269.86C310.006 268.149 297.003 266.844 295.283 268.381ZM297.663 278.414L291.265 278.692L291.22 291.509C291.162 308.62 286.528 321.055 273.839 338.143C258.447 358.874 203.338 409.09 158.478 443.264L141.789 455.977L146.135 459.454C148.527 461.367 150.018 462.948 149.451 462.969C148.885 462.988 147.937 462.487 147.347 461.852C143.027 457.207 131.029 455.899 126.098 459.538C123.652 461.342 123.325 461.438 124.429 460.022C125.183 459.053 132.381 453.562 140.427 447.819C197.595 407.006 247.682 363.803 270.371 335.733C283.858 319.05 290.511 301.714 289.723 285.304L289.435 279.335L275.536 279.187L261.635 279.037L260.228 284.749C257.043 297.691 256.795 297.384 264.15 289.607L267.202 286.38L264.916 290.496C263.657 292.76 260.535 297.716 257.979 301.509C255.421 305.304 253.329 308.769 253.327 309.214C253.327 309.656 259.767 304.333 267.64 297.384C288.143 279.283 278.042 292.28 255.66 312.797C198.901 364.828 145.604 395.241 71.6349 417.807C64.4714 419.994 58.609 422.11 58.609 422.509C58.609 428.189 75.3186 447.082 88.9506 456.816C101.988 466.125 111.607 469.652 126.713 470.669C136.053 471.296 142.44 474.046 152.115 481.609C166.919 493.177 173.844 495.205 184.775 491.174C193.551 487.937 202.842 489.013 203.783 493.373C204.649 497.39 163.228 567.741 152.662 580.199C144.247 590.121 144.836 591.633 163.437 607.892C169.133 612.871 173.792 617.341 173.792 617.823C173.792 619.145 178.864 620.313 187.277 620.931C195.803 621.558 195.814 621.549 193.448 615.564C192.695 613.657 192.077 611.915 192.077 611.696C192.077 611.276 192.547 611.38 199.622 613.368L203.968 614.59L206.589 609.569C208.031 606.808 214.438 594.455 220.827 582.116C240.902 543.355 245 535.609 253.619 520.152C258.234 511.871 262.447 504.981 262.98 504.837C263.98 504.572 274.122 531.835 284.904 563.758C300.01 608.488 301.936 614.072 303.135 616.631L304.405 619.35L315.203 618.279C333.642 616.451 357.541 611.384 357.541 609.3C357.541 608.646 354.291 599.417 350.319 588.791C346.348 578.165 341.028 563.595 338.501 556.417C335.971 549.237 331.609 536.89 328.81 528.976C326.008 521.063 323.717 514.248 323.717 513.83C323.717 510.021 356.011 507.419 365.147 510.493C370.378 512.254 373.034 511.485 379.687 506.287C386.015 501.341 386.886 501.116 391.941 503.112C397.097 505.146 400.188 505.224 404.113 503.411C407.752 501.734 407.637 501.654 415.795 511.437C430.81 529.438 446.853 552.808 454.44 567.739C456.642 572.075 458.737 575.523 459.095 575.402C460.256 575.007 473.626 560.521 473.633 559.648C473.637 559.182 471.995 553.913 469.98 547.942C467.967 541.971 464.485 530.384 462.238 522.197C457.88 506.305 456.172 502.064 451.194 494.752C447.408 489.188 447.44 489.533 450.597 488.365C454.854 486.793 462.863 487.118 467.801 489.067C473.424 491.287 475.056 490.89 481.339 485.765C487.375 480.842 497.838 468.738 496.778 467.904C496.371 467.583 491.924 465.937 486.895 464.245C437.986 447.79 392.034 415.612 370.511 382.748C365.299 374.79 364.548 375.822 368.983 384.842C384.817 417.062 415.671 446.125 453.656 464.602C457.356 466.405 459.879 467.881 459.261 467.89C457.969 467.902 454.459 473.645 454.412 475.822C454.384 477.152 454.244 477.135 452.814 475.627C448.437 471.012 435.741 469.139 430.408 472.319C427.111 474.289 426.085 476.056 424.258 482.931L422.755 488.582L419.807 484.754C415.341 478.965 413.511 478.178 405.961 478.804C392.292 479.938 374.171 489.077 373.956 494.948C373.804 499.104 364.578 477.461 358.99 459.834C347.286 422.914 342.428 396.074 338.307 345.526C336.161 319.226 333.034 308.727 322.641 292.946C312.971 278.264 312.498 277.782 307.902 277.976C305.791 278.066 301.183 278.262 297.663 278.414ZM311.171 302.288C311.309 319.32 305.185 332.964 283.638 363.644C270.771 381.967 229.741 434.451 208.723 459.473C204.055 465.035 200.451 469.899 200.715 470.281C202.583 472.977 236.339 491.49 237.499 490.454C237.651 490.32 239.393 485.283 241.372 479.259C249.343 455.003 258.538 433.275 268.117 416.057C274.382 404.796 275.856 403.29 271.592 412.507C259.35 438.966 251.298 458.873 242.847 483.564L239.58 493.108L235.824 491.924C229.444 489.917 221.597 486.055 212.615 480.506C198.246 471.628 191.206 469.496 186.102 472.48C182.388 474.654 183.43 473.326 192.693 464.08C225.304 431.533 266.512 383.069 286.991 353.176C303.785 328.664 308.995 315.498 309.168 297.117C309.233 290.386 309.421 289.287 310.174 291.275C310.684 292.62 311.134 297.576 311.171 302.288ZM354.798 290.285C353.331 290.945 352.407 292.14 352.215 293.625C352.021 295.118 352.264 295.743 352.9 295.392C353.441 295.093 353.886 294.327 353.886 293.69C353.886 290.267 359.86 291.457 361.709 295.248L362.954 297.802L362.989 295.21C363.048 291.008 358.831 288.475 354.798 290.285ZM329.587 299.193C336.982 312.298 338.763 320.335 341.567 353.277C346.366 409.671 353.31 435.081 376.75 482.039C378.533 485.611 378.861 485.867 380.242 484.784C385.903 480.339 399.484 476.511 407.536 477.089L413.326 477.503L411.321 474.537C410.216 472.906 407.195 468.635 404.606 465.045C392.912 448.83 375.018 420.215 376.018 419.324C376.238 419.127 379.53 423.459 383.336 428.952C393.074 443.005 402.343 453.828 419.135 470.755L423.184 474.834L425.114 472.649C428.999 468.259 439.949 467.516 446.893 471.171C452.229 473.98 448.905 471.064 437.099 462.57C387.094 426.602 366.263 396.459 347.916 333.526C341.829 312.641 336.895 302.725 328.321 294.13L324.658 290.459L329.587 299.193ZM322.442 303.437C323.095 305.64 323.846 310.964 324.11 315.266L324.595 323.092L323.209 315.341C322.021 308.689 319.903 300.571 317.785 294.538C317.469 293.642 318.122 294.375 319.233 296.169C320.347 297.965 321.791 301.235 322.442 303.437ZM358.489 305.552C359.994 308.184 379.891 325.694 386.636 330.324C416.397 350.754 448.87 353.532 472.03 337.628C477.951 333.561 477.967 332.118 472.065 334.806C444.941 347.155 394.194 334.345 361.316 306.854C358.182 304.23 357.574 303.95 358.489 305.552ZM47.4646 330.025C47.5185 353.776 47.371 354.413 43.1468 348.655C38.7799 342.705 32.3909 331.822 29.8049 325.932L27.6098 320.934L31.4525 317.196C33.5681 315.139 37.7642 311.705 40.7808 309.566L46.2664 305.676L46.8444 307.858C47.1627 309.057 47.4412 319.034 47.4646 330.025ZM55.2156 308.929C59.6879 310.957 71.3284 321.172 76.2406 327.375C80.0459 332.183 80.0108 332.279 75.2015 330.088C70.1653 327.797 61.3728 325.947 55.5058 325.947H50.3806V316.565C50.3806 311.404 50.6029 307.183 50.8744 307.183C51.1459 307.183 53.1 307.969 55.2156 308.929ZM415.592 313.129C409.488 315.402 391.997 315.554 383.266 313.413C374.89 311.358 375.255 312.409 383.738 314.775C392.708 317.279 401.368 318.094 407.6 317.022C413.137 316.072 421.534 313.031 421.534 311.979C421.534 311.024 420.946 311.137 415.592 313.129ZM160.207 316.901C163.303 319.136 163.303 325.414 160.207 327.651C153.17 332.736 143.568 325.807 147.72 318.639C149.854 314.955 156.28 314.063 160.207 316.901ZM42.4962 353.087L47.6378 360.056L47.6191 386.035L47.6004 412.016L43.5985 415.564L39.5943 419.11L33.1351 410.782C7.42497 377.622 4.37325 356.61 21.3846 329.9L24.8412 324.474L31.0968 335.295C34.537 341.247 39.6668 349.252 42.4962 353.087ZM64.5509 328.482C67.0644 328.916 71.5881 330.454 74.6071 331.895L80.0904 334.514L80.3291 366.468L80.5701 398.422L77.6003 399.004C72.4681 400.009 57.6588 405.727 54.3474 407.981C50.0834 410.884 50.3198 412.239 50.5936 386.645L50.837 363.882L56.587 370.818C59.751 374.632 63.8629 379.661 65.7304 381.996C69.3719 386.553 71.759 387.923 68.9764 383.859C68.0496 382.505 63.5914 376.731 59.0653 371.027L50.837 360.653L50.5538 344.833C50.1864 324.336 48.9554 325.775 64.5509 328.482ZM376.004 333.494C391.927 352.552 412.629 371.633 417.38 371.633C418.955 371.633 417.249 369.797 412.62 366.514C403.862 360.3 393.989 351.245 382.285 338.693C369.767 325.266 367.7 323.555 376.004 333.494ZM496.038 343.143C450.237 356.942 432.425 397.672 465.76 412.39C470.239 414.368 471.454 413.743 467.698 411.393C438.632 393.221 451.293 362.337 494.393 346.274C510.209 340.38 511.15 338.592 496.038 343.143ZM368.512 346.167C368.512 358.241 394.108 399.401 407.354 408.628C412.994 412.557 412.041 410.343 405.334 403.935C391.683 390.889 377.857 369.016 371.253 350.014C370.076 346.625 368.512 344.432 368.512 346.167ZM237.022 351.067C218.283 372.18 150.231 421.285 110.715 442.203C104.935 445.265 100.06 447.867 99.8844 447.988C99.5263 448.237 104.549 454.116 110.715 460.672C116.858 467.2 110.263 462.267 103.098 454.972C95.026 446.756 94.8575 447.679 105.506 441.798C136.748 424.543 158.625 410.418 187.506 388.856C199.084 380.212 203.125 377.033 226.257 358.377C233.35 352.654 239.292 347.974 239.461 347.974C239.629 347.974 238.531 349.367 237.022 351.067ZM428.543 372.178C427.642 372.98 427.927 409.29 428.847 411.201C429.315 412.173 429.659 404.495 429.696 392.234C429.732 380.903 429.624 371.633 429.455 371.633C429.289 371.633 428.877 371.877 428.543 372.178ZM310.118 381.586C309.559 385.759 308.293 394.679 307.305 401.41C304.195 422.607 302.692 442.846 302.692 463.518V483.512L305.206 481.92C312.664 477.202 327.373 476.64 327.373 481.074C327.373 481.868 327.129 481.878 326.278 481.116C320.654 476.097 302.931 483.923 296.198 494.397L293.568 498.492V493.19C293.568 477.935 296.673 444.876 300.043 424.254C305.592 390.295 313.345 357.456 310.118 381.586ZM327.354 422.214C328.662 445.127 330.305 456.758 334.827 475.114L336.703 482.737L340.495 479.282C345.882 474.372 352.664 471.716 357.991 472.428C364.089 473.244 363.947 474.427 357.752 474.427C348.842 474.427 341.424 479.961 336.371 490.379C335.194 492.805 333.853 494.685 333.39 494.558C328.555 493.206 323.046 445.321 324.036 413.24C324.721 390.989 325.896 381.695 326.2 396.108C326.31 401.268 326.83 413.016 327.354 422.214ZM47.3008 418.34C46.9966 419.349 46.7438 421.974 46.7368 424.171L46.7251 428.168L44.118 424.988L41.511 421.807L43.8887 419.213C46.7064 416.141 48.0637 415.794 47.3008 418.34ZM424.843 419.319C425.971 421.942 440.378 428.751 449.268 430.862C457.494 432.817 475.47 432.205 475.47 429.973C475.47 429.219 474.471 429.131 471.583 429.63C458.533 431.884 439.317 427.669 428.229 420.121C424.871 417.834 424.129 417.659 424.843 419.319ZM42.6109 427.671C44.118 429.327 45.8522 431.437 46.463 432.362C47.7735 434.346 48.1714 557.641 46.8679 557.641C45.8405 557.641 38.1925 542.982 33.7272 532.454C17.3922 493.925 18.0334 454.285 35.3935 429.747C39.6153 423.78 39.1777 423.906 42.6109 427.671ZM69.3157 456.641C71.1856 460.097 72.8519 462.804 73.0157 462.658C73.4814 462.24 69.0349 453.807 67.392 451.992C66.5776 451.094 67.4435 453.187 69.3157 456.641ZM59.4351 486.897C57.7314 487.922 56.1845 489.464 55.9973 490.324C55.7234 491.592 56.2945 491.391 58.9951 489.276C60.8276 487.839 62.7255 486.663 63.21 486.663C63.6967 486.663 64.0923 486.298 64.0923 485.849C64.0923 484.581 62.8051 484.871 59.4351 486.897ZM155.51 526.163C155.51 543.063 155.857 555.193 156.341 555.193C158.63 555.193 158.936 498.152 156.652 497.473C155.754 497.206 155.51 503.302 155.51 526.163ZM171.052 506.303C171.052 508.394 174.076 508.156 174.537 506.03C174.747 505.05 174.254 504.612 172.945 504.612C171.637 504.612 171.052 505.136 171.052 506.303ZM347.452 522.765C347.422 530.628 347.338 531.004 346.018 529.087C345.133 527.8 344.864 527.65 345.288 528.68C345.655 529.576 346.226 538.291 346.558 548.044C347.111 564.358 347.658 568.702 348.784 565.711C349.02 565.086 349.381 557.599 349.584 549.074C349.903 535.785 350.235 532.886 351.922 528.749C354.384 522.711 353.818 521.702 351.279 527.602L349.409 531.942L349.362 523.172C349.332 517.897 348.95 514.403 348.4 514.403C347.853 514.403 347.473 517.753 347.452 522.765ZM114.034 528.916C113.371 529.872 115.978 532.005 116.854 531.223C117.188 530.925 116.816 530.102 116.025 529.396C115.171 528.634 114.364 528.439 114.034 528.916ZM264.003 538.506C259.601 546.745 266.083 562.516 273.879 562.532C275.292 562.534 274.986 562.108 272.482 560.59C265.65 556.446 262.018 545.755 265.15 539.007C266.832 535.38 265.894 534.97 264.003 538.506ZM341.258 542.14C341.33 548.069 342.688 551.804 342.741 546.219C342.767 543.75 342.432 540.998 341.999 540.1C341.412 538.88 341.225 539.394 341.258 542.14ZM149.124 544.21C149.117 546.023 148.333 548.867 147.38 550.534C145.51 553.809 146.409 554.73 148.546 551.726C150.296 549.26 151.176 543.656 150.048 542.14C149.367 541.225 149.135 541.745 149.124 544.21ZM752.918 548.982C747.185 550.227 739.132 554.093 736.824 556.712C734.194 559.696 735.614 559.924 738.991 557.06C744.748 552.177 756.291 548.777 763.574 549.815C767.758 550.413 768.352 549.097 764.231 548.36C760.44 547.683 758.376 547.798 752.918 548.982ZM653.934 553.199C652.818 553.898 651.903 555.068 651.903 555.801C651.903 556.883 652.252 556.799 653.768 555.348C657.091 552.163 664.702 554.483 664.702 558.679C664.702 559.94 664.976 560.17 665.706 559.516C669.766 555.895 658.928 550.078 653.934 553.199ZM497.043 554.161C496.741 554.429 496.495 555.35 496.495 556.204C496.495 558.121 499.535 557.852 499.958 555.899C500.244 554.569 498.051 553.261 497.043 554.161ZM65.9223 556.049C65.9223 557.002 72.2504 559.608 72.9806 558.957C73.458 558.529 67.818 555.202 66.608 555.195C66.2289 555.195 65.9223 555.58 65.9223 556.049ZM420.108 562.127C422.994 569.136 421.36 584.213 416.86 592.085C415.889 593.78 415.507 595.169 416.011 595.169C421.976 595.169 425.755 565.918 420.387 561.312C419.734 560.751 419.645 561.008 420.108 562.127ZM437.67 565.801C427.11 576.999 436.088 601.76 454.127 611.194C460.642 614.601 460.541 612.94 453.996 609.014C437.457 599.098 429.849 578.405 438.538 566.979C441.403 563.211 440.834 562.442 437.67 565.801ZM467.876 570.615C459.666 579.092 459.806 578.369 464.48 588.045C467.188 593.649 468.124 594.973 468.138 593.216C468.166 589.626 471.655 579.911 475.135 573.743C478.114 568.457 478.187 568.123 476.834 565.788C475.056 562.718 476.032 562.192 467.876 570.615ZM582.996 567.902C564.969 573.039 555.297 592.469 562.315 609.444C564.421 614.54 564.569 612.901 562.715 604.973C557.698 583.513 572.572 567.162 595.926 568.461C601.777 568.787 603.368 568.677 602.079 568.033C599.16 566.576 587.92 566.498 582.996 567.902ZM71.2535 600.313L80.549 612.289V624.532V636.774H65.4215H50.294L50.5655 631.747C50.8229 626.99 50.9961 626.649 53.7857 625.423C57.2844 623.888 57.1814 622.656 53.5049 622.082L50.837 621.666L50.5959 596.464L50.3549 571.26L56.1564 579.8C59.3462 584.495 66.14 593.726 71.2535 600.313ZM615.795 576.076C618.812 578.724 621.428 580.583 621.61 580.209C622.083 579.234 616.303 574.054 613.052 572.538C611.009 571.586 611.711 572.49 615.795 576.076ZM779.23 576.976C775.799 583.256 768.842 589.428 761.879 592.367C756.335 594.708 754.091 596.633 758.175 595.545C767.969 592.937 777.798 584.666 782.139 575.385C784.404 570.537 782.041 571.832 779.23 576.976ZM747.435 578.497C744.919 579.579 742.35 580.466 741.72 580.472C741.093 580.479 740.578 580.857 740.578 581.314C740.578 582.377 744.54 581.544 749.034 579.535C751.556 578.407 754.14 575.932 752.233 576.469C752.109 576.504 749.949 577.417 747.435 578.497ZM105.003 584.798C109.863 588.77 105.141 597.765 98.9155 596.387C90.8322 594.599 90.1465 585.188 97.9185 582.699C99.9054 582.062 102.646 582.874 105.003 584.798ZM408.227 583.82C407.888 584.309 405.91 585.385 403.832 586.21C401.751 587.035 400.789 587.736 401.695 587.768C403.982 587.849 408.402 585.696 409.053 584.186C409.673 582.741 409.137 582.505 408.227 583.82ZM363.813 586.222C365 587.103 366.851 587.811 367.927 587.793C369.516 587.763 369.282 587.465 366.682 586.195C362.533 584.167 361.068 584.182 363.813 586.222ZM259.531 590.725C255.966 592.45 254.452 597.302 256.418 600.695C258.679 604.595 259.648 604.511 258.054 600.555C254.85 592.607 265.833 587.425 270.719 594.578C272.154 596.677 272.517 596.876 272.519 595.568C272.531 590.815 265.079 588.037 259.531 590.725ZM80.549 594.76V599.248L77.5769 599.242C75.253 599.238 74.1695 598.661 72.5991 596.589C68.4615 591.136 68.8126 590.654 77.1205 590.384L80.549 590.274V594.76ZM574.756 592.517C575.76 596.322 580.937 604.346 583.256 605.685C585.39 606.919 585.423 606.905 584.393 605.188C583.808 604.215 582.914 603.187 582.404 602.907C581.199 602.241 577.377 595.401 576.598 592.517C576.265 591.282 575.582 590.274 575.079 590.274C574.548 590.274 574.412 591.214 574.756 592.517ZM240.68 594.353C240.333 598.924 235.04 606.775 228.166 612.909C220.965 619.337 220.61 619.949 222.685 622.397C224.902 625.006 227.148 623.464 226.491 619.791C225.967 616.871 226.217 616.455 231.021 612.257C237.366 606.712 241.686 599.511 241.19 595.305C240.972 593.482 240.776 593.11 240.68 594.353ZM632.706 618.011V636.774H616.293H599.879L599.272 633.89C598.51 630.264 599.366 626.315 601.334 624.373C602.753 622.973 602.724 622.773 600.866 621.23C599.776 620.321 598.882 619.072 598.882 618.452C598.882 617.37 599.897 617.071 607.243 616.006C610.606 615.518 614.758 612.207 619.942 605.883C622.762 602.443 627.91 599.248 630.632 599.248H632.706V618.011ZM286.236 603.089C284.979 604.735 280.237 609.59 275.7 613.88C266.865 622.23 264.169 625.605 262.056 630.949C260.2 635.642 260.947 635.166 263.998 629.709C265.484 627.052 270.675 621.071 276.212 615.634C281.508 610.436 286.575 605.15 287.469 603.889C289.945 600.395 288.843 599.678 286.236 603.089ZM80.549 603.734C80.549 607.218 80.0974 607.308 78.286 604.183C76.4957 601.094 76.5238 600.879 78.7189 600.879C80.2003 600.879 80.549 601.422 80.549 603.734ZM712.691 604.423C711.121 606.316 707.845 608.711 705.046 610.016C701.098 611.856 700.597 612.301 702.464 612.301C705.39 612.301 712.06 607.813 714.362 604.296C716.869 600.466 715.916 600.539 712.691 604.423ZM289.931 607.473C289.978 610.033 297.08 631.186 297.153 628.98C297.204 627.364 290.996 606.533 290.256 605.841C290.057 605.656 289.91 606.389 289.931 607.473ZM87.9232 619.642C89.6457 621.662 94.0688 626.355 97.7547 630.072L104.455 636.831L94.1016 636.599L83.7482 636.367L83.4908 625.369C83.348 619.248 83.5797 614.726 84.015 615.171C84.4433 615.612 86.2031 617.623 87.9232 619.642ZM568.383 621.085C570.176 623.968 576.965 630.26 576.907 628.986C576.885 628.558 574.587 626.006 571.798 623.314C568.051 619.699 567.159 619.116 568.383 621.085ZM324.724 623.84C326.432 624.354 330.52 626.534 333.809 628.686C337.094 630.835 341.62 633.531 343.865 634.675L347.941 636.756L333.142 636.766C325 636.77 318.159 636.501 317.937 636.162C317.162 634.989 319.1 631.881 320.605 631.881C322.117 631.881 322.023 627.923 320.422 624.202C319.76 622.66 320.574 622.593 324.724 623.84ZM35.005 647.584C35.4918 650.646 50.3806 650.876 50.3806 647.822C50.3806 645.763 50.3268 645.749 42.5477 645.749C34.9442 645.749 34.7218 645.803 35.005 647.584ZM752.462 647.808V649.867L767.774 649.644C782.872 649.424 783.091 649.395 783.379 647.584L783.672 645.749H768.067H752.462V647.808ZM22.5969 647.856C21.7942 649.719 21.8597 649.828 23.7717 649.828C25.5082 649.828 26.9638 647.967 25.9388 647.052C24.9161 646.139 23.1515 646.561 22.5969 647.856Z" fill="black"/>
</svg>
