<svg width="24" height="24" viewBox="0 0 24 24" fill="none" xmlns="http://www.w3.org/2000/svg">
<rect width="24" height="24" fill="white"/>
<path fill-rule="evenodd" clip-rule="evenodd" d="M17.0237 1.45177C16.9289 1.71098 16.8552 1.92736 16.8599 1.93252C16.8647 1.93768 16.9752 1.96058 17.1054 1.98334C17.4384 2.04173 17.4267 2.06584 17.0769 2.04258C16.8451 2.02724 16.7788 2.03049 16.7788 2.05743C16.7788 2.16996 16.6559 2.27013 16.5453 2.24779C16.4853 2.23563 16.4268 2.2357 16.4153 2.24793C16.3971 2.26709 16.1417 3.29842 16.1551 3.29842C16.1579 3.29842 16.3365 3.19168 16.5519 3.06127C16.7674 2.93085 17.02 2.78198 17.1132 2.73052L17.2828 2.63693L17.3383 2.73483C17.3828 2.81308 17.3907 2.85726 17.3781 2.95509C17.3267 3.35384 17.3256 3.32189 17.3908 3.35087C17.4239 3.36558 17.5475 3.42163 17.6653 3.47535C17.9199 3.5915 17.8984 3.60387 17.8638 3.36105L17.8356 3.16277L17.9571 2.88172C18.1512 2.43257 18.0975 2.16932 17.7595 1.914C17.6539 1.83419 17.6081 1.76513 17.4332 1.42081C17.3213 1.20062 17.2223 1.01139 17.213 1.00043C17.2038 0.989401 17.1186 1.19256 17.0237 1.45177ZM16.7775 1.20931C16.6178 1.3046 16.3615 1.45495 16.2079 1.54331C16.0545 1.63167 15.8384 1.76068 15.7278 1.82995L15.5267 1.95585L15.8761 2.01749C16.0683 2.05142 16.3099 2.09956 16.4131 2.12458C16.6222 2.17519 16.6348 2.17173 16.6945 2.04725C16.752 1.92743 17.0834 1.05274 17.0748 1.04348C17.071 1.03931 16.9372 1.11395 16.7775 1.20931ZM15.4722 2.26546C15.6246 2.57104 15.917 3.1439 15.9819 3.26372C16.0318 3.35596 16.0689 3.37986 16.0679 3.31913C16.0675 3.30019 16.1263 3.04522 16.1984 2.75257C16.2706 2.45992 16.3237 2.21414 16.3167 2.20636C16.2976 2.18565 15.6795 2.05693 15.502 2.03678L15.3495 2.0194L15.4722 2.26546ZM6.52316 2.73257C6.41516 2.75236 6.26299 2.79039 6.18498 2.81704L6.04327 2.8656L6.21973 3.05766L6.39619 3.24972L6.56161 3.17769C6.85478 3.0501 7.46249 2.94145 7.66987 2.97962C7.74885 2.99418 7.73365 2.97771 7.54413 2.84362L7.32851 2.69107L7.02404 2.69383C6.8566 2.69538 6.63124 2.71277 6.52316 2.73257ZM16.9153 3.20179C17.0517 3.96847 17.0129 4.9938 16.8394 5.20636C16.8006 5.25386 16.5703 5.36364 15.8528 5.67665L15.3961 5.87585L14.9562 5.88193L14.5163 5.88793L14.2116 6.05334L13.907 6.21875L14.0107 6.28223C14.0677 6.31708 14.1097 6.35073 14.104 6.35688C14.0891 6.37314 13.6722 6.15704 13.579 6.0848C13.5061 6.02832 13.5013 6.02769 13.5142 6.07625C13.8908 7.49008 14.0994 8.96251 14.0027 9.52363L13.9843 9.63023L13.7687 9.39816C13.2397 8.82891 12.8823 8.14846 12.6763 7.31901C12.589 6.96762 12.5813 6.94896 12.5464 7.00643C12.4307 7.19686 11.6594 7.8778 11.1625 8.22813L11.0896 8.27959L11.3995 8.32815C12.0533 8.43058 12.2684 8.60681 12.3071 9.07179C12.3188 9.21211 12.338 9.25558 12.4818 9.46722C13.4493 10.8912 13.4702 12.0007 12.555 13.3357C12.1858 13.8742 12.1978 13.8143 12.3811 14.2066C12.7596 15.0167 13.4047 15.4027 14.2293 15.3124C14.3806 15.2958 14.5794 15.2812 14.6712 15.2798L14.838 15.2773L14.7238 15.2417C13.8358 14.9648 13.5163 14.8495 13.2616 14.714C12.9792 14.5637 12.7974 14.4247 13.0274 14.5348C13.1843 14.6098 13.6467 14.7408 13.6905 14.7224C13.7107 14.714 13.8786 14.5252 14.0635 14.3029C14.2484 14.0805 14.4023 13.9024 14.4055 13.9071C14.4088 13.9117 14.3967 14.0708 14.3788 14.2606C14.3609 14.4504 14.3456 14.6826 14.3447 14.7764C14.3431 14.9709 14.3177 14.9504 14.6477 15.021C14.9415 15.0839 15.428 15.2603 15.6313 15.3778C15.8366 15.4965 15.8001 15.573 15.916 14.7814C15.9702 14.4114 16.032 14.0093 16.0535 13.8878L16.0925 13.6669L16.0805 14.0259C16.0738 14.2233 16.0612 14.4659 16.0525 14.5651L16.0368 14.7453L16.1858 14.853C16.6842 15.2134 17.28 15.4978 18.4161 15.918C19.8738 16.4571 20.2765 16.7515 20.3817 17.3552C20.4444 17.7151 20.1981 18.2046 19.8246 18.4626C19.6752 18.5658 19.7196 18.5609 19.9835 18.4452C21.225 17.9004 21.7303 16.9427 21.2132 16.1144C20.9734 15.7304 20.587 15.4366 19.5822 14.8745C17.9531 13.9631 17.4373 13.491 16.634 12.1758C15.8998 10.9738 15.7735 10.5014 15.7405 8.83477C15.7145 7.52196 15.7411 7.27618 15.9307 7.0721C16.0329 6.96225 17.2118 6.13852 17.7475 5.80269C17.898 5.70832 17.9037 5.68534 17.8711 5.30426C17.8006 4.48025 17.5067 3.75683 17.0449 3.27085C16.9052 3.12389 16.9011 3.12163 16.9153 3.20179ZM5.09595 3.38565C4.85234 3.41541 4.50182 3.51346 4.228 3.62839C3.90853 3.76249 3.91379 3.74595 4.10882 4.00255C4.38205 4.36214 4.33211 4.33895 4.56482 4.21397C4.91404 4.02644 5.33496 3.91136 5.85044 3.86251L6.02145 3.84633L5.90117 3.74121C5.83505 3.68339 5.72425 3.57255 5.65502 3.49486C5.51363 3.33624 5.50863 3.33525 5.09595 3.38565ZM18.0224 3.56075C18.0205 3.80738 18.0062 3.82017 17.8165 3.74588C17.619 3.66862 17.6215 3.64416 17.7899 4.0164C18.2511 5.03523 18.1921 6.11562 17.6127 7.26084C17.2954 7.88798 16.758 8.55754 16.2655 8.93925C16.0745 9.08734 16.0859 9.08904 16.413 8.96116C18.2046 8.26107 19.1157 6.90959 18.8732 5.31183C18.7815 4.70745 18.463 3.96381 18.0877 3.4779L18.0237 3.39505L18.0224 3.56075ZM12.1164 4.00219C12.0428 4.02474 11.8395 4.12321 11.6646 4.2209C11.4897 4.31866 11.3035 4.4066 11.2509 4.41628C11.0421 4.45467 10.8931 4.62722 10.8931 4.83094C10.8931 5.06124 11.0556 5.20198 11.219 5.11327L11.2917 5.07375L11.3299 5.32802C11.3559 5.50092 11.3867 5.60971 11.4261 5.66788C11.4804 5.74762 11.4832 5.77116 11.4684 6.01701C11.4512 6.30096 11.4551 6.30902 11.5834 6.25601C11.6502 6.2283 11.8063 6.35221 11.8063 6.43294C11.8063 6.45641 11.8228 6.48256 11.8431 6.49097C11.8634 6.49946 11.8934 6.55184 11.9097 6.60747C11.9759 6.83183 12.0624 6.85488 12.2986 6.7111C12.4504 6.61871 12.4544 6.61786 12.5104 6.6672C12.5418 6.69491 12.6154 6.72636 12.6738 6.73711C12.7324 6.74785 12.8412 6.77952 12.9157 6.80744L13.0513 6.85813L13.0918 6.75577C13.1142 6.69943 13.1939 6.51232 13.2688 6.33991L13.4052 6.02641L13.3225 5.84347C13.2408 5.66301 13.2395 5.65375 13.2244 5.16289C13.2066 4.58452 13.1802 4.47509 13.0078 4.26642C12.7961 4.01011 12.4376 3.90387 12.1164 4.00219ZM11.2359 4.52026C11.1996 4.55448 11.1547 4.63096 11.1361 4.69027L11.1023 4.79814L11.0583 4.72498C11.0037 4.63435 11.0198 4.58466 11.1268 4.51362C11.2477 4.43339 11.3231 4.43798 11.2359 4.52026ZM20.2291 5.14811C20.2291 5.46769 20.1902 5.66329 20.1228 5.68252C20.0899 5.69185 20.0769 5.72203 20.0769 5.78925C20.0769 5.84079 20.0659 5.89493 20.0524 5.90957C20.0367 5.92667 20.042 5.98054 20.0674 6.06006C20.1115 6.19889 20.1089 6.28563 20.0242 7.50938C19.9682 8.31783 19.9281 8.73807 19.8342 9.49747C19.7455 10.2142 19.7666 10.1463 19.6324 10.1463H19.5187V10.296C19.5187 10.3856 19.5358 10.478 19.5614 10.5264C19.6086 10.616 19.5849 10.7093 19.339 11.402L19.2359 11.6926H19.0602H18.8845V11.9678V12.2431L18.6133 12.6926C18.4642 12.94 18.2872 13.2249 18.2199 13.3259L18.0977 13.5095L17.9161 13.5294C17.7646 13.5459 17.7425 13.5544 17.783 13.5805C17.8396 13.6168 22.0093 13.6422 22.6647 13.6102C23.1088 13.5885 23.1121 13.5533 22.6727 13.5241L22.4086 13.5065L22.2018 13.1725C22.0882 12.9888 21.9118 12.6967 21.8098 12.5233L21.6245 12.2082V11.9504V11.6926H21.452H21.2795L21.1372 11.2992C20.9282 10.7212 20.8997 10.6023 20.95 10.5188C20.9747 10.4777 20.9902 10.3918 20.9902 10.2955V10.139L20.8902 10.1537C20.7978 10.1672 20.7891 10.1627 20.7768 10.0952C20.5895 9.0655 20.3645 6.28612 20.4496 6.05455C20.482 5.96654 20.4845 5.93098 20.4615 5.89083C20.4453 5.86263 20.4321 5.80876 20.4321 5.77109C20.4321 5.732 20.4113 5.69057 20.3836 5.67446C20.3284 5.64229 20.3147 5.56574 20.2908 5.1554C20.2697 4.79298 20.2291 4.78817 20.2291 5.14811ZM3.36076 5.05445C2.91224 5.21753 2.0135 5.75865 2.0135 5.86567C2.0135 5.88072 2.3696 6.22137 2.50138 6.33235C2.53983 6.36472 2.56055 6.35561 2.66628 6.25954C3.0535 5.90787 3.80987 5.50509 4.19533 5.44536C4.25814 5.4356 4.25794 5.43504 4.17494 5.38174C4.12883 5.35219 3.9762 5.25033 3.83572 5.1554C3.6953 5.06046 3.57314 4.98355 3.56437 4.98454C3.55554 4.98546 3.46396 5.01692 3.36076 5.05445ZM9.30063 5.54877C8.56757 5.6934 8.28869 5.97022 8.24335 6.59814C8.214 7.0053 8.17672 7.054 7.81087 7.16265C7.42197 7.27816 7.2709 7.53744 7.42197 7.83002C7.48022 7.94283 7.53348 7.97599 7.5062 7.88254C7.43535 7.63951 7.62856 7.21941 7.81119 7.21941C7.82399 7.21941 7.80931 7.23864 7.77846 7.26211C7.48834 7.48329 7.53472 8.21625 7.8501 8.39382L7.92368 8.43525L7.86075 8.3343C7.77184 8.19166 7.80308 7.87002 7.91576 7.7683C7.95284 7.7348 7.95531 7.7377 7.93849 7.79545C7.83516 8.14967 8.14827 8.50607 8.47866 8.41022C8.64615 8.36166 8.65343 8.3377 8.50061 8.3377C8.2757 8.3377 8.13099 8.16027 8.15788 7.91739C8.16555 7.8479 8.16704 7.84861 8.22913 7.95153C8.43059 8.28546 8.86743 8.31564 9.17976 8.01713C9.30485 7.89766 9.29225 7.9774 9.16528 8.10881L9.06123 8.21654L9.15891 8.17257C9.21262 8.14839 9.29121 8.08428 9.33342 8.02999L9.41026 7.93138L9.46683 8.06555C9.56483 8.29811 9.55834 8.32335 9.38343 8.38725C9.29972 8.41786 9.15131 8.49745 9.05363 8.56418C8.59517 8.8774 7.86698 9.12283 7.14529 9.20737C6.79503 9.24837 6.66131 9.2893 6.18687 9.50065C5.19883 9.94083 5.12745 9.95299 4.66094 9.761C4.30724 9.61545 3.64146 9.46976 3.58931 9.52653C3.55801 9.5606 3.67751 9.63638 3.89508 9.72035L4.13188 9.81175L3.87819 9.81529C3.45084 9.8213 3.45091 9.88074 3.87852 9.99759L4.05121 10.0448L3.97698 10.1163C3.93613 10.1556 3.85241 10.2343 3.79091 10.2912C3.7294 10.348 3.68485 10.4007 3.69186 10.4084C3.71804 10.4368 3.95899 10.338 4.09297 10.2438C4.35309 10.061 4.44564 10.1516 4.20137 10.3499C4.07135 10.4555 4.0216 10.5521 4.11285 10.522C4.20916 10.4901 4.39563 10.4523 4.60125 10.4228C4.71984 10.4058 4.94625 10.3545 5.1044 10.3087C5.26417 10.2625 5.6406 10.1899 5.95124 10.1455C6.63533 10.0479 6.83621 10.0045 7.227 9.87014C7.39443 9.81253 7.78833 9.70247 8.10229 9.62549C8.41624 9.54858 8.79865 9.45421 8.95218 9.41583C9.50826 9.27686 9.73058 9.36112 10.078 9.84257L10.1279 9.91163L10.181 9.77358C10.2795 9.51769 10.2863 9.51175 10.2728 9.693C10.2563 9.91679 10.2452 9.94153 10.1195 10.0356C9.96906 10.1483 9.91847 10.2757 9.93724 10.4949C9.97887 10.9801 10.2694 11.1731 10.7211 11.0156C10.8964 10.9546 10.9405 10.9815 11.0056 11.1895C11.1149 11.5384 10.9957 11.7229 10.4225 12.093C10.0173 12.3546 9.80715 12.5732 9.60393 12.9445C9.1921 13.697 8.56042 14.0572 7.20167 14.3145C6.8807 14.3753 6.56103 14.4382 6.49128 14.4543C6.25331 14.5093 5.42627 14.5203 5.17207 14.472C4.58956 14.3612 4.13954 14.1226 3.65647 13.6683C3.53456 13.5536 3.4274 13.4598 3.41837 13.4598C3.40941 13.4598 3.40824 13.6493 3.41584 13.8809C3.46598 15.4138 4.68789 16.5563 5.75555 16.0685C6.18966 15.8701 6.54674 15.9179 6.81549 16.2104C6.94084 16.3468 6.93974 16.351 6.71664 16.5777C6.44075 16.8581 6.14017 17.0654 5.77095 17.2299C5.36782 17.4094 5.25988 17.4691 5.07056 17.6166C4.83506 17.8001 4.6436 18.0217 3.6388 19.2738C3.06064 19.9941 3.06467 19.9912 2.83579 19.8647C2.64342 19.7585 2.54788 19.7644 2.32278 19.8967C2.1908 19.9743 2.16366 19.9804 2.00713 19.9668L1.83587 19.952V20.0263C1.83587 20.1005 1.83632 20.1007 2.02824 20.1007C2.18931 20.1007 2.2264 20.1094 2.25653 20.1542C2.38552 20.3462 2.16236 20.712 1.87705 20.7764C1.63349 20.8315 1.56712 20.935 1.44352 21.4527C1.33298 21.9157 1.34519 21.9308 1.62771 21.6815C1.73689 21.585 1.98005 21.4185 2.1784 21.3043C2.7524 20.9737 2.94179 20.8402 3.17547 20.6016C4.009 19.7505 4.20806 19.575 5.38984 18.6503C5.97644 18.1912 6.20265 18.0314 6.48757 17.8748C6.92181 17.6362 7.26389 17.4217 7.51874 17.2285C7.78379 17.0275 7.88627 16.9763 8.14561 16.9146C8.58543 16.8101 8.84626 16.6514 9.16144 16.2962C9.26263 16.1822 9.34537 16.0944 9.34537 16.101C9.34537 16.1416 9.07623 16.5352 8.96342 16.6596C8.725 16.9225 8.50424 17.0458 8.16736 17.1044C7.75586 17.176 7.68585 17.3641 7.95538 17.6743C8.25206 18.0157 8.64986 18.0788 9.08383 17.8534C9.36148 17.7091 9.48598 17.706 9.63835 17.8399C9.87112 18.0444 9.88177 18.0497 10.0323 18.0354C10.1935 18.0201 10.3586 17.939 10.4854 17.8127L10.5725 17.726L10.4818 17.864C10.2781 18.1739 9.91587 18.2667 9.60276 18.0891L9.46683 18.012L9.42565 18.0761C9.40298 18.1113 8.90153 18.7971 8.31135 19.6C7.50614 20.6954 7.24193 21.0727 7.25323 21.1114C7.26434 21.1495 7.18588 21.2687 6.95084 21.5706C6.6098 22.0086 6.54797 22.0659 6.31397 22.1604C6.15803 22.2235 6.02197 22.3425 6.02197 22.4158C6.02197 22.4692 5.93663 22.4772 4.80421 22.5303C3.23756 22.6037 1.29116 22.7168 1.27174 22.7354C1.2381 22.7679 3.7181 22.8899 5.90779 22.9635C7.33163 23.0115 13.3016 23.0124 14.4194 22.9649C16.3128 22.8845 18.4639 22.7706 19.5061 22.6956C19.813 22.6734 20.1898 22.6472 20.3433 22.6372C20.6575 22.6168 20.8103 22.5765 20.5843 22.5737C20.5076 22.5728 20.0281 22.5536 19.5187 22.5313C18.4248 22.4832 17.1037 22.4424 15.7958 22.4163L14.8508 22.3975L14.776 22.2706C14.6989 22.1399 14.5716 21.8455 14.5716 21.798C14.5716 21.7833 14.603 21.7712 14.6414 21.7712C14.7105 21.7712 14.712 21.7672 14.7921 21.3777C14.8776 20.9622 14.9897 20.4436 15.1516 19.7141L15.2497 19.2723L15.8303 19.2536C17.2735 19.2073 18.2956 19.0685 18.9399 18.8311C19.9519 18.4583 20.3744 17.569 19.8322 16.9531L19.717 16.8222L19.6599 16.9251C19.3595 17.4669 18.3407 18.0492 17.0578 18.4124C16.5716 18.5501 15.3871 18.8081 15.3684 18.7804C15.3664 18.7776 15.3919 18.6261 15.4249 18.4439C15.458 18.2616 15.5314 17.8208 15.5881 17.4641C15.7084 16.7075 15.676 16.798 15.8154 16.8305C16.1734 16.914 16.537 17.2027 16.6993 17.5324L16.7534 17.6423V17.42C16.7534 16.2306 16.0183 15.4445 14.9014 15.4395C14.3533 15.437 14.0247 15.5718 13.6896 15.9363L13.4799 16.1643L13.2892 15.9547C12.731 15.3412 12.2376 14.4926 12.073 13.863C11.9139 13.2548 11.9359 12.9444 12.1982 12.0967C12.5369 11.0019 12.5697 10.4681 12.3396 9.78899C12.2694 9.58159 12.2643 9.54356 12.279 9.33517C12.3177 8.78748 12.1409 8.63027 11.2197 8.39333C10.5286 8.21555 10.4556 8.18169 10.2767 7.9557C9.95893 7.55433 9.96322 7.52839 10.3647 7.42519C10.4943 7.39189 10.5244 7.32446 10.4739 7.18061C10.4499 7.11197 10.4373 7.03541 10.4462 7.01046C10.4549 6.98551 10.4493 6.91871 10.4338 6.86201C10.4103 6.77691 10.4128 6.74333 10.4481 6.66911C10.4986 6.56272 10.5034 6.56965 10.3029 6.46213C10.2157 6.41534 10.1442 6.35865 10.1436 6.33581C10.1431 6.31305 10.1248 6.26336 10.103 6.2254C10.0812 6.18737 10.0334 6.0988 9.99679 6.02839C9.96016 5.95806 9.90996 5.89189 9.88522 5.88136C9.84774 5.86553 9.85391 5.85591 9.92204 5.82446C10.0741 5.75433 10.1665 5.52015 10.0246 5.56447C9.96802 5.58214 9.88093 5.57726 9.74272 5.5487C9.51333 5.50134 9.54106 5.50134 9.30063 5.54877ZM3.25652 6.33468C2.68726 6.60181 2.64784 6.6578 2.53652 7.35718C2.4993 7.59109 2.50326 7.661 2.54873 7.57257C2.58029 7.51114 2.95828 7.23829 3.10955 7.16767C3.21476 7.11861 3.23022 7.10016 3.24451 7.00707C3.2762 6.80023 3.36466 6.4311 3.40096 6.35398C3.4513 6.24717 3.44493 6.24632 3.25652 6.33468ZM13.009 7.03654C12.9885 7.09479 13.0174 7.13657 13.078 7.13657C13.1164 7.13657 13.127 7.12123 13.1209 7.07471C13.1115 7.00254 13.0307 6.97504 13.009 7.03654ZM1.32967 7.36503C1.25362 7.50513 1.14827 7.70483 1.09567 7.80867L1 7.99762L1.05326 8.11241C1.30772 8.66095 2.08962 9.5425 2.08962 9.28082C2.08962 9.20179 2.25289 8.92115 2.37837 8.78459L2.47047 8.68435L2.40552 8.63805C2.19587 8.48854 1.76501 7.82429 1.60524 7.40426C1.471 7.05132 1.49795 7.05513 1.32967 7.36503ZM20.3925 7.47848C20.3833 7.51821 20.3666 7.5508 20.3554 7.5508C20.3442 7.5508 20.3477 7.51397 20.3634 7.46901C20.3974 7.37097 20.4159 7.37705 20.3925 7.47848ZM20.153 7.71967C20.153 7.75007 20.1416 7.76724 20.1276 7.75784C20.1137 7.74844 20.1022 7.71593 20.1022 7.6856C20.1022 7.6552 20.1137 7.63803 20.1276 7.64743C20.1416 7.65676 20.153 7.68935 20.153 7.71967ZM20.4321 7.69967C20.4321 7.736 20.415 7.7729 20.394 7.78166C20.354 7.79835 20.3444 7.75388 20.3714 7.67726C20.3947 7.61117 20.4321 7.62495 20.4321 7.69967ZM15.2793 7.74173C15.3219 7.77099 15.3037 7.93852 15.248 8.03112C15.228 8.06428 15.1179 8.15638 15.0034 8.23576L14.7951 8.38004L14.8119 8.23463C14.8524 7.88487 15.1033 7.62036 15.2793 7.74173ZM2.80618 8.00518C2.62744 8.27938 2.62946 8.25775 2.75727 8.53492C2.88418 8.80996 3.0283 9.25409 3.0283 9.37016C3.0283 9.50405 3.0548 9.48383 3.15741 9.27177C3.21249 9.15803 3.30296 8.99212 3.35855 8.90306C3.48098 8.70683 3.48091 8.73418 3.35875 8.57648C3.23827 8.42097 3.03843 8.04745 2.99823 7.90282C2.96069 7.76746 2.96134 7.7671 2.80618 8.00518ZM20.153 7.93732C20.153 7.96772 20.1416 7.9926 20.1276 7.9926C20.1137 7.9926 20.1022 7.96772 20.1022 7.93732C20.1022 7.907 20.1137 7.88211 20.1276 7.88211C20.1416 7.88211 20.153 7.907 20.153 7.93732ZM20.4321 7.93732C20.4321 7.96772 20.4207 7.9926 20.4067 7.9926C20.3927 7.9926 20.3813 7.96772 20.3813 7.93732C20.3813 7.907 20.3927 7.88211 20.4067 7.88211C20.4207 7.88211 20.4321 7.907 20.4321 7.93732ZM13.287 7.95096C13.2782 7.97592 13.2832 8.00949 13.2981 8.02568C13.3367 8.06774 13.41 8.02928 13.3998 7.97224C13.3886 7.90869 13.3073 7.89335 13.287 7.95096ZM20.4574 8.15483C20.4574 8.18338 20.4403 8.22219 20.4194 8.24107C20.3795 8.27712 20.3594 8.16366 20.3983 8.12139C20.4298 8.08711 20.4574 8.1028 20.4574 8.15483ZM20.1377 8.17455C20.1563 8.22728 20.1335 8.27584 20.1005 8.25372C20.0703 8.23343 20.0695 8.13065 20.0996 8.13065C20.112 8.13065 20.1292 8.15037 20.1377 8.17455ZM10.3949 8.38046C11.0183 8.48006 11.6012 8.67127 11.7078 8.81109C11.7403 8.85372 11.7373 8.85407 11.6668 8.81533C11.5784 8.76684 10.944 8.59048 10.9266 8.60949C10.9201 8.61656 10.9392 8.67445 10.9691 8.73821C11.0961 9.00909 10.9895 9.39448 10.6974 9.72085C10.4992 9.94224 10.4884 9.86159 10.6665 9.49005C10.9883 8.81908 10.7747 8.50834 9.8782 8.34314C9.6542 8.30186 10.1083 8.33466 10.3949 8.38046ZM20.4456 8.51427C20.4107 8.55238 20.4067 8.54813 20.4067 8.4725C20.4067 8.4262 20.4148 8.37947 20.4248 8.36873C20.4347 8.35791 20.4522 8.37672 20.4637 8.41051C20.4782 8.45327 20.4727 8.4848 20.4456 8.51427ZM20.1096 8.4549C20.1254 8.5446 20.105 8.59394 20.0741 8.54085C20.0455 8.49165 20.0453 8.37912 20.0739 8.37912C20.0863 8.37912 20.1024 8.41326 20.1096 8.4549ZM20.0966 8.7597C20.0818 8.83605 20.0385 8.80303 20.032 8.7105C20.0256 8.61854 20.0272 8.61649 20.0645 8.66852C20.0861 8.69863 20.1005 8.73963 20.0966 8.7597ZM20.4828 8.72429C20.4828 8.77745 20.4726 8.82092 20.4602 8.82092C20.4316 8.82092 20.4001 8.6893 20.4201 8.65402C20.4521 8.59769 20.4828 8.63211 20.4828 8.72429ZM13.6421 8.80692C13.6334 8.83188 13.6384 8.86552 13.6532 8.88171C13.6919 8.92377 13.7651 8.88532 13.755 8.82827C13.7438 8.76465 13.6625 8.74931 13.6421 8.80692ZM20.0769 9.01715C20.0769 9.10325 20.0412 9.12452 20.0162 9.05341C19.9871 8.97106 19.9986 8.90461 20.0388 8.92137C20.0605 8.93049 20.0769 8.97163 20.0769 9.01715ZM20.488 9.07483C20.4728 9.09144 20.4575 9.07342 20.4465 9.02577C20.435 8.97601 20.4404 8.94271 20.4623 8.9278C20.5025 8.90044 20.5258 9.03369 20.488 9.07483ZM20.0515 9.29333C20.0515 9.33722 20.0398 9.3732 20.0255 9.3732C19.9939 9.3732 19.9443 9.24003 19.9634 9.20638C19.9915 9.15683 20.0515 9.21592 20.0515 9.29333ZM20.5589 9.27318C20.5589 9.3093 20.5418 9.35426 20.5209 9.3732C20.4882 9.40268 20.4828 9.39335 20.4828 9.30753C20.4828 9.23706 20.4941 9.20751 20.5209 9.20751C20.544 9.20751 20.5589 9.23324 20.5589 9.27318ZM20.2311 9.55699C20.1841 9.74113 20.1935 9.79062 20.2735 9.7815C20.3329 9.77471 20.3445 9.78482 20.3513 9.8495C20.3604 9.93588 20.2995 9.95355 20.2175 9.88831C20.1698 9.85035 20.1686 9.54017 20.2158 9.45704C20.2501 9.39674 20.2583 9.4504 20.2311 9.55699ZM20.0094 9.54363C20.039 9.59488 20.0099 9.69823 19.9764 9.66083C19.9638 9.64691 19.9455 9.59969 19.9356 9.556C19.9159 9.46927 19.9618 9.46156 20.0094 9.54363ZM20.3432 9.67243C20.3188 9.69886 20.2804 9.6146 20.2823 9.5389C20.2838 9.47521 20.2869 9.47704 20.3212 9.56279C20.3418 9.6139 20.3516 9.66324 20.3432 9.67243ZM20.5843 9.5635C20.5843 9.68352 20.5158 9.69604 20.5032 9.57834C20.4949 9.5015 20.5016 9.48362 20.5386 9.48362C20.5721 9.48362 20.5843 9.50504 20.5843 9.5635ZM19.9862 9.83345C20.0048 9.88612 19.9832 9.92542 19.9358 9.92542C19.9123 9.92542 19.8993 9.89644 19.8993 9.84349C19.8993 9.75662 19.9568 9.74997 19.9862 9.83345ZM20.6097 9.85805C20.6097 9.89955 20.5951 9.92542 20.5716 9.92542C20.5336 9.92542 20.5171 9.81451 20.5498 9.77895C20.5786 9.74764 20.6097 9.78878 20.6097 9.85805ZM1.94641 9.86484C2.08007 10.4044 2.14021 10.4578 2.73084 10.5613C2.96517 10.6025 2.94465 10.6185 2.95582 10.385L2.96484 10.1957L2.78234 10.1876C2.54782 10.1772 2.30563 10.0886 2.09884 9.93772C1.98551 9.85501 1.93842 9.83253 1.94641 9.86484ZM20.2738 10.0635C20.295 10.0635 20.3262 10.0429 20.3431 10.0177C20.3703 9.97709 20.3754 9.98055 20.3872 10.0475C20.4031 10.138 20.3773 10.1527 20.2241 10.1411L20.1115 10.1325L20.135 10.0359L20.1585 9.93927L20.1969 10.0013C20.218 10.0355 20.2527 10.0635 20.2738 10.0635ZM20.6604 10.0911C20.6604 10.1316 20.6435 10.1463 20.597 10.1463C20.5241 10.1463 20.5091 10.0745 20.578 10.0549C20.6557 10.0328 20.6604 10.0348 20.6604 10.0911ZM19.9754 10.1049C20.0023 10.1402 19.9953 10.1463 19.9278 10.1463C19.8743 10.1463 19.8486 10.1329 19.8486 10.1049C19.8486 10.0821 19.87 10.0635 19.8962 10.0635C19.9224 10.0635 19.9581 10.0821 19.9754 10.1049ZM19.7471 10.4363C19.7471 10.4774 19.7326 10.5053 19.7111 10.5053C19.6705 10.5053 19.6473 10.4535 19.6647 10.4018C19.6859 10.3389 19.7471 10.3646 19.7471 10.4363ZM19.9754 10.4363C19.9754 10.4915 19.9627 10.5053 19.912 10.5053C19.8612 10.5053 19.8486 10.4915 19.8486 10.4363C19.8486 10.3811 19.8612 10.3672 19.912 10.3672C19.9627 10.3672 19.9754 10.3811 19.9754 10.4363ZM20.2037 10.4363C20.2037 10.4915 20.1911 10.5053 20.1403 10.5053C20.0896 10.5053 20.0769 10.4915 20.0769 10.4363C20.0769 10.3811 20.0896 10.3672 20.1403 10.3672C20.1911 10.3672 20.2037 10.3811 20.2037 10.4363ZM20.4275 10.4431C20.4341 10.4937 20.4235 10.5053 20.3704 10.5053C20.3173 10.5053 20.3052 10.4921 20.3052 10.4344C20.3052 10.3399 20.4151 10.3478 20.4275 10.4431ZM20.645 10.4109C20.6717 10.4866 20.6622 10.5053 20.597 10.5053C20.5462 10.5053 20.5335 10.4915 20.5335 10.4363C20.5335 10.3568 20.6191 10.3374 20.645 10.4109ZM20.8633 10.4382C20.8633 10.5326 20.7535 10.5247 20.7411 10.4294C20.7345 10.3787 20.7451 10.3672 20.7981 10.3672C20.8513 10.3672 20.8633 10.3804 20.8633 10.4382ZM3.68465 10.8857C3.15261 11.4897 3.09182 12.1072 3.48033 12.9617L3.59912 13.223L3.62893 12.8631C3.65575 12.5392 3.71868 12.0999 3.89839 10.9816C3.96867 10.5446 3.98042 10.5499 3.68465 10.8857ZM4.10752 10.6503C4.0909 10.7074 3.96802 11.7663 3.93853 12.1068C3.7872 13.8526 4.82019 14.6082 6.70346 14.1293L6.99169 14.056L6.79224 13.9829C5.74705 13.6001 4.65392 12.225 4.19715 10.7185C4.16598 10.6156 4.12642 10.5855 4.10752 10.6503ZM19.8309 10.9726C19.8561 11.0193 19.8662 11.0576 19.8531 11.0576C19.8201 11.0576 19.7804 11.0009 19.7478 10.9076C19.7125 10.8067 19.7626 10.8458 19.8309 10.9726ZM20.7827 10.9372C20.7729 10.9915 20.6957 11.0499 20.6702 11.0222C20.6501 11.0004 20.7312 10.8919 20.7677 10.8919C20.7805 10.8919 20.7873 10.9123 20.7827 10.9372ZM20.5286 11.3267C20.5595 11.49 20.5846 11.6391 20.5845 11.6581C20.5843 11.684 20.5007 11.6926 20.2515 11.6926H19.9188L19.9329 11.6167C19.9407 11.5749 19.9671 11.4258 19.9918 11.2854L20.0364 11.0299H20.2545H20.4726L20.5286 11.3267ZM19.6786 11.0986C19.6814 11.1135 19.6636 11.13 19.6392 11.1351C19.6115 11.141 19.5949 11.1274 19.5949 11.099C19.5949 11.0509 19.6698 11.0506 19.6786 11.0986ZM20.9054 11.1002C20.9289 11.1672 20.9013 11.1736 20.8508 11.113C20.8088 11.0624 20.8085 11.0576 20.8476 11.0576C20.8711 11.0576 20.8971 11.0767 20.9054 11.1002ZM20.8317 11.1955C20.872 11.1955 20.8887 11.212 20.8887 11.2515C20.8887 11.2852 20.913 11.3175 20.95 11.3327C20.9837 11.3467 21.019 11.3846 21.0284 11.417C21.0544 11.5063 21.0208 11.518 20.9903 11.4304C20.9649 11.3578 20.9571 11.3546 20.8416 11.3695L20.7198 11.3852L20.6808 11.2525L20.6417 11.1198L20.7082 11.1576C20.7447 11.1783 20.8002 11.1953 20.8317 11.1955ZM19.8141 11.1956C19.8554 11.1956 19.834 11.3339 19.7876 11.3677C19.6925 11.4372 19.5823 11.3561 19.6098 11.237C19.6249 11.1715 19.6361 11.1646 19.7029 11.1791C19.7446 11.1882 19.7947 11.1956 19.8141 11.1956ZM20.981 11.554C21.0107 11.5543 21.0538 11.5857 21.0767 11.6236L21.1182 11.6926H20.9274H20.7365V11.612C20.7365 11.5677 20.7296 11.5119 20.7211 11.4878C20.7081 11.4509 20.7226 11.4525 20.8163 11.4988C20.8771 11.5288 20.9512 11.5536 20.981 11.554ZM19.7975 11.5201C19.7963 11.676 19.7765 11.6926 19.5919 11.6926C19.4958 11.6926 19.4174 11.6833 19.4176 11.6719C19.4186 11.6216 19.4654 11.5881 19.6075 11.5356C19.8041 11.4632 19.7979 11.4637 19.7975 11.5201ZM5.78056 11.7133C5.78666 11.7551 5.80433 11.8949 5.81992 12.024C6.02911 13.7597 7.47094 14.4388 8.8823 13.4665C9.10345 13.3141 9.10332 13.3138 8.83989 13.3524C7.80782 13.5036 6.2752 12.6822 5.862 11.7564C5.80154 11.621 5.76426 11.6013 5.78056 11.7133ZM19.1636 11.9964C19.1636 12.0884 19.1551 12.1068 19.1128 12.1068C19.0705 12.1068 19.0621 12.0884 19.0621 11.9964C19.0621 11.9043 19.0705 11.8859 19.1128 11.8859C19.1551 11.8859 19.1636 11.9043 19.1636 11.9964ZM19.4426 11.9964C19.4426 12.0958 19.4363 12.1068 19.3792 12.1068C19.3138 12.1068 19.2942 12.0344 19.3312 11.9296C19.3651 11.8332 19.4426 11.8796 19.4426 11.9964ZM19.7217 11.9983C19.7217 12.099 19.7158 12.1097 19.6646 12.1018C19.5656 12.0866 19.5708 11.8859 19.6701 11.8859C19.7135 11.8859 19.7217 11.9038 19.7217 11.9983ZM20.0262 11.9964C20.0262 12.0958 20.0198 12.1068 19.9627 12.1068C19.9056 12.1068 19.8993 12.0958 19.8993 11.9964C19.8993 11.897 19.9056 11.8859 19.9627 11.8859C20.0198 11.8859 20.0262 11.897 20.0262 11.9964ZM20.3306 11.9964C20.3306 12.1007 20.3264 12.1068 20.2545 12.1068C20.1826 12.1068 20.1784 12.1007 20.1784 11.9964C20.1784 11.892 20.1826 11.8859 20.2545 11.8859C20.3264 11.8859 20.3306 11.892 20.3306 11.9964ZM20.6097 11.9964C20.6097 12.0958 20.6033 12.1068 20.5462 12.1068C20.4891 12.1068 20.4828 12.0958 20.4828 11.9964C20.4828 11.897 20.4891 11.8859 20.5462 11.8859C20.6033 11.8859 20.6097 11.897 20.6097 11.9964ZM20.9141 11.9964C20.9141 12.0958 20.9078 12.1068 20.8507 12.1068C20.7936 12.1068 20.7872 12.0958 20.7872 11.9964C20.7872 11.897 20.7936 11.8859 20.8507 11.8859C20.9078 11.8859 20.9141 11.897 20.9141 11.9964ZM21.1931 11.9964C21.1931 12.0958 21.1868 12.1068 21.1298 12.1068C21.0727 12.1068 21.0663 12.0958 21.0663 11.9964C21.0663 11.897 21.0727 11.8859 21.1298 11.8859C21.1868 11.8859 21.1931 11.897 21.1931 11.9964ZM21.4722 11.9983C21.4722 12.099 21.4663 12.1097 21.4151 12.1018C21.323 12.0876 21.3157 11.8859 21.4073 11.8859C21.4663 11.8859 21.4722 11.8961 21.4722 11.9983ZM20.6649 12.7201C20.9167 12.8462 21.2185 13.2453 21.2185 13.4522C21.2185 13.4802 21.0225 13.4875 20.2671 13.4875C19.1779 13.4875 19.2563 13.5104 19.3796 13.2269C19.6051 12.7079 20.1847 12.4794 20.6649 12.7201ZM9.72311 14.0004C9.58061 14.2581 9.26555 14.5372 9.04097 14.6047C8.99044 14.6199 8.99551 14.6115 9.06597 14.5629C9.24627 14.4387 9.51989 14.1752 9.65063 13.9998C9.81098 13.7847 9.84222 13.785 9.72311 14.0004ZM11.5524 16.1659C11.9401 16.6956 11.9646 16.7993 11.8523 17.4381C11.7375 18.0916 11.7671 18.386 12.0443 19.3454C12.3556 20.4228 12.3726 20.7157 12.1376 20.9578C11.9407 21.1607 11.9325 21.206 12.0184 21.6213C12.0498 21.7729 12.0533 21.8532 12.0342 21.9803C12.0007 22.2025 12.0019 22.213 12.06 22.213C12.1009 22.213 12.1108 22.1946 12.1108 22.1177C12.1108 21.5235 12.4102 21.5286 12.4356 22.1233L12.4466 22.3787L10.7882 22.3792C9.87606 22.3796 8.67954 22.3917 8.12931 22.4064C7.57907 22.4209 7.12425 22.4279 7.11853 22.4217C7.10256 22.4043 7.42314 22.1578 7.46171 22.1578C7.48061 22.1578 7.50796 22.195 7.52257 22.2406C7.55141 22.3306 7.68806 22.3501 7.98188 22.3063L8.0969 22.2891L8.11859 22.083L8.14035 21.8768L8.34181 22.0202C8.60459 22.2072 8.58731 22.2046 8.67635 22.0688C9.33167 21.0688 11.0907 18.5319 11.4821 18.0222L11.6576 17.7937L11.7087 17.4423C11.791 16.8766 11.7614 16.7426 11.4098 16.0877C11.331 15.9409 11.2608 15.8083 11.2538 15.7931C11.2253 15.7316 11.3324 15.8651 11.5524 16.1659ZM6.49355 16.3117C6.48433 16.391 6.47017 16.4993 6.46205 16.5524L6.44724 16.649L6.57707 16.5121C6.72586 16.3551 6.72632 16.3536 6.64981 16.2751C6.52869 16.1508 6.5118 16.1548 6.49355 16.3117ZM14.0153 16.8182C13.9731 17.0896 13.91 17.4857 13.875 17.6983C13.6371 19.1451 13.2777 21.5993 13.2777 21.777C13.2777 21.789 13.3149 21.7989 13.3602 21.7989C13.5732 21.7994 13.6178 21.8357 13.678 22.0583C13.7504 22.3262 13.8679 22.4486 13.9049 22.2947C13.9177 22.2415 13.921 22.241 13.966 22.2852C14.0538 22.3718 14.0151 22.3807 13.5661 22.3773L13.1187 22.374L13.0439 22.2865C12.9315 22.1553 12.9226 22.1079 12.9224 21.6382C12.9223 21.3665 12.9038 21.0559 12.873 20.8048C12.7946 20.1674 12.7633 19.3994 12.7774 18.4519C12.7928 17.407 12.7778 17.4756 12.9948 17.4558C13.4802 17.4115 13.723 17.1682 13.8724 16.5762C13.9152 16.4069 14.0664 16.1943 14.0832 16.2798C14.0881 16.3044 14.0575 16.5467 14.0153 16.8182Z" fill="black"/>
</svg>
