<svg width="24" height="24" viewBox="0 0 24 24" fill="none" xmlns="http://www.w3.org/2000/svg">
<path fill-rule="evenodd" clip-rule="evenodd" d="M12.0802 16.0058L11.8316 15.8697C10.612 15.2013 9.56249 15.2269 8.70009 15.9461L8.18251 16.3777C8.0467 16.491 7.89516 16.5565 7.73286 16.575C7.64534 16.585 7.55041 16.5259 7.46792 16.4102C7.38543 16.2943 7.33857 16.1543 7.3371 16.0195C7.33068 15.4269 6.98316 14.7616 6.55532 14.5271C6.36567 14.4231 6.19176 14.4212 6.05638 14.5023H6.05634L6.05621 14.5025C6.01954 14.5244 5.98581 14.5525 5.95521 14.5863L5.40027 15.0468L6.32406 17.3669L6.90102 17.4459C7.10883 17.6618 7.33177 17.8353 7.56918 17.9654L7.65557 18.0127C8.05815 18.2333 8.40333 18.2947 8.75197 18.2076L9.41463 18.042C10.1188 17.866 10.8158 17.9899 11.6289 18.4355L12.0802 18.6829V16.0058Z" fill="black"/>
<path fill-rule="evenodd" clip-rule="evenodd" d="M11.4771 16.5128L11.2284 16.3766C10.009 15.7082 8.95945 15.7338 8.09705 16.453L7.57943 16.8847C7.44366 16.9979 7.29212 17.0634 7.12974 17.0819C7.04222 17.0919 6.94733 17.0328 6.86488 16.9171C6.78235 16.8013 6.73553 16.6613 6.73401 16.5264C6.72768 15.9338 6.38012 15.2685 5.95228 15.034C5.52049 14.7974 5.17041 15.0892 5.17041 15.686C5.17041 16.1771 5.35711 16.4935 5.57437 16.9128C5.95761 17.6526 6.42408 18.1752 6.9661 18.4722L7.05249 18.5196C7.45511 18.7402 7.8002 18.8016 8.1488 18.7145L8.81155 18.5489C9.51569 18.373 10.2128 18.4968 11.0258 18.9424L11.4771 19.1898V16.5128Z" fill="black"/>
<path fill-rule="evenodd" clip-rule="evenodd" d="M9.52978 15.9539C9.01862 15.9663 8.55103 16.1486 8.12895 16.5005L7.61142 16.9322C7.45636 17.0615 7.15687 17.2154 6.96918 17.0986C6.79973 16.9932 6.68273 16.7398 6.68039 16.5272C6.67476 16.0031 6.35775 15.2821 5.95215 15.034C6.44909 15.2339 6.78118 15.9509 6.78742 16.5257C6.7892 16.6962 6.88539 16.91 7.02154 16.9948C7.16225 17.0822 7.43222 16.933 7.54718 16.8371L8.0648 16.4055C8.50517 16.0382 8.99352 15.8481 9.5277 15.8351C10.0591 15.8221 10.6393 15.9624 11.2283 16.3766C10.6952 16.1242 10.1201 15.9395 9.52978 15.9539Z" fill="white"/>
<path fill-rule="evenodd" clip-rule="evenodd" d="M11.9197 16.0058L12.1684 15.8697C13.3879 15.2013 14.4374 15.2269 15.2997 15.9461L15.8174 16.3777C15.9531 16.491 16.1047 16.5565 16.2671 16.575C16.3546 16.585 16.4495 16.5259 16.532 16.4102C16.6144 16.2943 16.6612 16.1543 16.6628 16.0195C16.6691 15.4269 17.0167 14.7616 17.4445 14.5271C17.6342 14.4231 17.8081 14.4212 17.9435 14.5023L17.9437 14.5025C17.9804 14.5244 18.0141 14.5525 18.0446 14.5863L18.5995 15.0468L17.6759 17.3669L17.0988 17.4459C16.891 17.6618 16.6681 17.8353 16.4307 17.9654L16.3443 18.0127C15.9417 18.2333 15.5966 18.2947 15.248 18.2076L14.5853 18.042C13.8811 17.866 13.1841 17.9899 12.371 18.4355L11.9197 18.6829V16.0058Z" fill="black"/>
<path fill-rule="evenodd" clip-rule="evenodd" d="M12.5227 16.5128L12.7713 16.3766C13.9909 15.7082 15.0404 15.7338 15.9028 16.453L16.4204 16.8847C16.5562 16.9979 16.7078 17.0634 16.8701 17.0819C16.9575 17.0919 17.0525 17.0328 17.135 16.9171C17.2174 16.8013 17.2643 16.6613 17.2658 16.5264C17.2721 15.9338 17.6197 15.2685 18.0476 15.034C18.4793 14.7974 18.8294 15.0892 18.8294 15.686C18.8294 16.1771 18.6427 16.4935 18.4254 16.9128C18.0422 17.6526 17.5757 18.1752 17.0337 18.4722L16.9473 18.5196C16.5448 18.7402 16.1996 18.8016 15.851 18.7145L15.1883 18.5489C14.4842 18.373 13.787 18.4968 12.974 18.9424L12.5227 19.1898V16.5128Z" fill="black"/>
<path fill-rule="evenodd" clip-rule="evenodd" d="M14.4702 15.9539C14.9813 15.9663 15.4489 16.1486 15.8709 16.5005L16.3886 16.9322C16.5436 17.0615 16.8431 17.2154 17.0308 17.0986C17.2002 16.9932 17.3172 16.7398 17.3195 16.5272C17.3252 16.0031 17.6421 15.2821 18.0478 15.034C17.5508 15.2339 17.2188 15.9509 17.2126 16.5257C17.2107 16.6962 17.1146 16.91 16.9784 16.9948C16.8377 17.0822 16.5677 16.933 16.4527 16.8371L15.9351 16.4055C15.4947 16.0382 15.0065 15.8481 14.4723 15.8351C13.941 15.8221 13.3607 15.9624 12.7716 16.3766C13.3047 16.1242 13.8799 15.9395 14.4702 15.9539Z" fill="white"/>
<path fill-rule="evenodd" clip-rule="evenodd" d="M12.5228 16.5128L12.7937 16.5819C14.1228 16.9209 15.2666 17.8134 16.2063 19.2448L16.7704 20.1039C16.9184 20.3293 17.0836 20.52 17.2604 20.6727C17.344 20.7447 17.4339 20.7685 17.5154 20.7411L17.4574 20.2697L17.9274 19.7742L17.9275 19.7743C18.0827 19.608 18.3013 19.5355 18.5436 19.5973C19.0142 19.7172 19.3956 20.2983 19.3956 20.895C19.3956 21.24 19.2952 21.4227 19.1534 21.584V21.5841C19.1085 21.6353 19.0593 21.6843 19.0078 21.7356L18.4327 22.3345L18.207 22.222C17.9691 22.2759 17.7128 22.268 17.4387 22.1981L17.3446 22.1741C16.9059 22.0623 16.5297 21.8386 16.1499 21.4635L15.6019 20.9225L14.1025 20.1746L13.6698 19.5334C13.4581 19.4451 13.2405 19.3728 13.0146 19.3153L12.5228 19.1899V17.8338L12 17.0592L12.5228 16.5128Z" fill="black"/>
<path fill-rule="evenodd" clip-rule="evenodd" d="M12 17.0591L12.271 17.1282C13.6 17.4671 14.7437 18.3595 15.6835 19.791L16.2476 20.6501C16.3956 20.8756 16.5608 21.0662 16.7376 21.2188C16.8329 21.301 16.9364 21.3204 17.0263 21.2728C17.1162 21.2251 17.1672 21.1238 17.1688 20.9901C17.1758 20.4028 17.5546 20.0246 18.0209 20.1434C18.4913 20.2634 18.8728 20.8445 18.8728 21.4412C18.8728 21.9324 18.6694 22.0946 18.4327 22.3344C18.015 22.7576 17.5066 22.895 16.9159 22.7443L16.8218 22.7203C16.3831 22.6085 16.007 22.3847 15.6271 22.0096L14.9049 21.2967C14.1375 20.5392 13.3779 20.0874 12.4918 19.8614L12 19.736V17.0591Z" fill="black"/>
<path fill-rule="evenodd" clip-rule="evenodd" d="M12.271 17.1282C12.9286 17.2959 13.5286 17.6586 14.0924 18.0986C14.6573 18.5394 15.1741 19.1158 15.6403 19.826C15.9577 20.3094 16.2635 20.9007 16.7377 21.2189C16.3283 20.8656 16.0293 20.2168 15.7267 19.756C15.2532 19.0348 14.7282 18.4491 14.154 18.0012C13.5785 17.5521 12.962 17.2349 12.271 17.1282ZM18.0209 20.1434C18.2347 20.2207 18.4332 20.4249 18.5801 20.6485C18.7835 20.9583 18.9034 21.4467 18.8088 21.8447C18.9903 21.4484 18.9007 20.9353 18.6665 20.5787C18.5085 20.338 18.2827 20.182 18.0209 20.1434Z" fill="white"/>
<path fill-rule="evenodd" clip-rule="evenodd" d="M11.4771 16.5128L11.2061 16.5819C9.87713 16.9209 8.7334 17.8134 7.79361 19.2448L7.22944 20.1039C7.08154 20.3293 6.91634 20.52 6.73948 20.6727C6.65586 20.7447 6.56596 20.7685 6.48451 20.7411L6.54251 20.2697L6.07244 19.7742L6.0724 19.7743C5.91726 19.608 5.69861 19.5355 5.45634 19.5973C4.98571 19.7172 4.60425 20.2983 4.60425 20.895C4.60425 21.24 4.70464 21.4227 4.84643 21.584L4.84648 21.5841C4.89147 21.6353 4.94063 21.6843 4.99204 21.7356L5.56727 22.3345L5.79294 22.222C6.0307 22.2759 6.28701 22.268 6.56115 22.1981L6.65526 22.1741C7.09394 22.0623 7.47011 21.8386 7.85001 21.4635L8.39806 20.9225L9.89742 20.1746L10.3301 19.5334C10.5418 19.4451 10.7594 19.3728 10.9853 19.3153L11.4771 19.1899V17.8338L11.9999 17.0592L11.4771 16.5128Z" fill="black"/>
<path fill-rule="evenodd" clip-rule="evenodd" d="M12.0001 17.0591L11.729 17.1282C10.4 17.4671 9.2563 18.3595 8.31652 19.791L7.75243 20.6501C7.60444 20.8756 7.43929 21.0662 7.26239 21.2188C7.16702 21.301 7.06355 21.3204 6.97373 21.2728C6.88383 21.2251 6.83276 21.1238 6.83116 20.9901C6.82423 20.4028 6.44545 20.0246 5.97924 20.1434C5.50862 20.2634 5.1272 20.8445 5.1272 21.4412C5.1272 21.9324 5.33059 22.0946 5.5674 22.3344C5.98505 22.7576 6.49335 22.895 7.08414 22.7443L7.17816 22.7203C7.61689 22.6085 7.99306 22.3847 8.37296 22.0096L9.09518 21.2967C9.86252 20.5392 10.6221 20.0874 11.5082 19.8614L12.0001 19.736V17.0591Z" fill="black"/>
<path fill-rule="evenodd" clip-rule="evenodd" d="M11.729 17.1282C11.0713 17.2959 10.4714 17.6586 9.90756 18.0986C9.34261 18.5394 8.8259 19.1158 8.35965 19.826C8.04222 20.3094 7.73648 20.9007 7.2623 21.2189C7.67172 20.8656 7.97073 20.2168 8.27326 19.756C8.74679 19.0348 9.27187 18.4491 9.84592 18.0012C10.4215 17.5521 11.038 17.2349 11.729 17.1282ZM5.97916 20.1434C5.76528 20.2207 5.5667 20.4249 5.4198 20.6485C5.21658 20.9583 5.09651 21.4467 5.19109 21.8447C5.00964 21.4484 5.09933 20.9353 5.3334 20.5787C5.49141 20.338 5.71729 20.182 5.97916 20.1434Z" fill="white"/>
<path fill-rule="evenodd" clip-rule="evenodd" d="M13.0225 15.0161V16.4149C13.0225 17.1722 10.9773 17.1722 10.9773 16.4149V15.0161C10.9773 14.2588 13.0225 14.2588 13.0225 15.0161Z" fill="black"/>
<path fill-rule="evenodd" clip-rule="evenodd" d="M11.2108 6.47132H12.7889V14.799C12.7889 15.3835 11.2108 15.3835 11.2108 14.799V6.47132Z" fill="black"/>
<path fill-rule="evenodd" clip-rule="evenodd" d="M11.2108 6.47129H12.7889V12.2501C12.5283 12.2576 12.2653 12.2616 11.9999 12.2616C11.7345 12.2616 11.4715 12.2576 11.2108 12.2501V6.47129Z" fill="black"/>
<path fill-rule="evenodd" clip-rule="evenodd" d="M12 2.56675C16.7084 2.56675 20.7251 3.7607 22.2945 5.43906H23V7.00573C23 9.45729 18.0752 11.4448 12 11.4448C5.92487 11.4448 1 9.45729 1 7.00573V5.43906H1.70555C3.27492 3.7607 7.29171 2.56675 12 2.56675Z" fill="black"/>
<path fill-rule="evenodd" clip-rule="evenodd" d="M12 9.87805C18.0586 9.87805 23 7.88398 23 5.43907C23 2.99416 18.0586 1.00004 12 1.00004C5.94145 1.00004 1 2.99416 1 5.43907C1 7.88398 5.94145 9.87805 12 9.87805Z" fill="black"/>
<path fill-rule="evenodd" clip-rule="evenodd" d="M23 5.43898C23 9.20753 14.3722 10.0013 12 10.0013C9.62782 10.0013 1 9.17974 1 5.43898C1.30554 8.87106 9.77481 9.75464 12 9.75464C14.2252 9.75464 22.7885 8.90612 23 5.43898Z" fill="white"/>
</svg>
