<svg width="20" height="24" viewBox="0 0 20 24" fill="none" xmlns="http://www.w3.org/2000/svg">
<path d="M16.2542 5.45H15.5V4.95948L17 4.96553V9.91754H14.2542V9.425H16.2542H16.7542V8.925V5.95V5.45H16.2542ZM3.75424 5.45H3.25424V5.95V8.925V9.425H3.75424H4.5V9.91754H3V4.96754H5.75424V5.45H3.75424ZM16.2542 14.375H15.5V13.8845L17 13.8905V18.8425H14.2542V18.35H16.2542H16.7542V17.85V14.875V14.375H16.2542ZM3.75625 14.375L3.25424 14.373V14.875V17.85V18.35H3.75424H4.5V18.8425H3V13.8925H5.75424V14.3831L3.75625 14.375ZM19.2542 1.49254V0.992542H18.7542H1.25424H0.754237V1.49254V22.3175V22.8175H1.25424H18.7542H19.2542V22.3175V1.49254ZM8 4.96754H9.5V5.45H8V4.96754ZM11.7542 4.96754H13.2542V5.45H11.7542V4.96754ZM6.75424 9.425H8.25424V9.91754H6.75424V9.425ZM10.5 9.425H12V9.91754H10.5V9.425ZM8 13.8925H9.5V14.3851H8V13.8925ZM11.7542 13.8925H13.2542V14.3851H11.7542V13.8925ZM6.75424 18.35H8.25424V18.8425H6.75424V18.35ZM10.5 18.35H12V18.8425H10.5V18.35ZM0.5 23.3V0.5H19.5V11.9V23.3H0.5Z" />
</svg>
