<svg width="24" height="24" viewBox="0 0 24 24" fill="none" xmlns="http://www.w3.org/2000/svg">
<path d="M9.97021 20.4188C8.54521 20.4188 7.20459 19.8656 6.19209 18.8531C5.18428 17.8453 4.62646 16.5047 4.62646 15.075C4.62646 13.65 5.18428 12.3094 6.19209 11.2969C7.1999 10.2891 8.54053 9.73125 9.97021 9.73125C10.2374 9.73125 10.5093 9.75 10.7718 9.79219C10.9452 9.82031 11.0718 9.96562 11.0718 10.1391V12.8063C11.0718 12.9188 11.0155 13.0266 10.9265 13.0922C10.8327 13.1578 10.7155 13.1766 10.6077 13.1391C10.4015 13.0687 10.1858 13.0359 9.97021 13.0359C8.8499 13.0359 7.93584 13.95 7.93584 15.0703C7.93584 16.1906 8.8499 17.1047 9.97021 17.1047C10.1858 17.1047 10.4015 17.0719 10.6077 17.0016C11.4374 16.725 11.9952 15.9563 11.9999 15.0797V3.92344C11.9999 3.73125 12.1593 3.57188 12.3515 3.57188H14.9577C15.1499 3.57188 15.3093 3.73125 15.3093 3.92344C15.3093 5.96719 16.9733 7.62656 19.0171 7.62656C19.2093 7.62656 19.3687 7.78594 19.3687 7.97813V10.5938C19.3687 10.7859 19.2093 10.9453 19.0171 10.9453C18.0702 10.9453 17.1515 10.7578 16.2843 10.3922C15.9468 10.2469 15.6187 10.0781 15.3093 9.88594V15.1031C15.3046 16.5234 14.7468 17.8547 13.7437 18.8578C12.928 19.6734 11.9015 20.1938 10.7718 20.3625C10.5093 20.4 10.2374 20.4188 9.97021 20.4188ZM9.97021 10.4437C8.73271 10.4437 7.56553 10.9266 6.69365 11.8031C5.81709 12.6797 5.33428 13.8422 5.33428 15.0797C5.33428 16.3172 5.81709 17.4844 6.69365 18.3563C7.57021 19.2328 8.73271 19.7156 9.97021 19.7156C10.2046 19.7156 10.439 19.6969 10.6687 19.6641C11.6483 19.5188 12.5437 19.0641 13.2515 18.3563C14.1233 17.4844 14.6062 16.3266 14.6108 15.0984V9.21094C14.6108 9.075 14.6858 8.95313 14.8077 8.89688C14.9296 8.83594 15.0702 8.85 15.178 8.93438C15.6046 9.2625 16.0687 9.53438 16.5655 9.74531C17.2358 10.0313 17.9437 10.1906 18.6702 10.2328V8.32969C16.5187 8.16094 14.7983 6.43594 14.6249 4.28906H12.703V15.0938C12.6983 16.2703 11.9437 17.3109 10.828 17.6812C10.5468 17.775 10.2608 17.8219 9.96553 17.8219C8.45615 17.8219 7.22803 16.5937 7.22803 15.0844C7.22803 13.575 8.45615 12.3469 9.96553 12.3469C10.1015 12.3469 10.2327 12.3562 10.364 12.375V10.4625C10.2374 10.4484 10.1015 10.4437 9.97021 10.4437Z" fill="black"/>
<path d="M0.703125 2.15626V22.2422C0.703125 22.8234 1.17656 23.2969 1.75781 23.2969H22.2422C22.8234 23.2969 23.2969 22.8234 23.2969 22.2422V17.1938C23.2969 17.0016 23.4563 16.8422 23.6484 16.8422C23.8406 16.8422 24 17.0016 24 17.1938V22.2422C24 23.2125 23.2125 24 22.2422 24H1.75781C0.7875 24 0 23.2125 0 22.2422V2.15626C0 1.96407 0.154688 1.80938 0.342188 1.8047C0.54375 1.80001 0.703125 1.95938 0.703125 2.15626Z" fill="black"/>
<path d="M0 2.17031V1.75781C0 0.7875 0.7875 0 1.75781 0H22.2422C23.2125 0 24 0.7875 24 1.75781V14.8734C24 15.0656 23.8406 15.225 23.6484 15.225C23.4563 15.225 23.2969 15.0656 23.2969 14.8734V1.75781C23.2969 1.17656 22.8234 0.703125 22.2422 0.703125H1.75781C1.17656 0.703125 0.703125 1.17656 0.703125 1.75781V2.17031C0.703125 2.3625 0.54375 2.52187 0.351562 2.52187C0.159375 2.52187 0 2.3625 0 2.17031Z" fill="black"/>
</svg>
