<svg width="24" height="24" viewBox="0 0 24 24" fill="none" xmlns="http://www.w3.org/2000/svg">
<path d="M19.2274 0H4.77257C2.1409 0 0 2.92341 0 6.51618V17.4838C0 21.0773 2.1409 24 4.77257 24H19.2274C21.8591 24 24 21.0766 24 17.4838V6.51618C24 2.92341 21.8591 0 19.2274 0ZM23.0204 17.4845C23.0204 20.3426 21.3189 22.6673 19.2274 22.6673H4.77257C2.68114 22.6673 0.979592 20.3419 0.979592 17.4845V6.51618C0.979592 3.65877 2.68114 1.33337 4.77257 1.33337H19.2274C21.3189 1.33337 23.0204 3.65877 23.0204 6.51618V17.4845Z" fill="black"/>
<path d="M16.3396 11.759L9.55347 6.34884C9.40261 6.22884 9.21502 6.22684 9.06269 6.34551C8.91037 6.46418 8.81633 6.68485 8.81633 6.92419V17.7438C8.81633 17.9825 8.91037 18.2038 9.06221 18.3225C9.13763 18.3812 9.22188 18.4105 9.30612 18.4105C9.39184 18.4105 9.47706 18.3798 9.55347 18.3192L16.3396 12.9104C16.4895 12.791 16.582 12.5717 16.582 12.335C16.582 12.0983 16.49 11.8783 16.3396 11.759ZM9.79592 16.5805V8.08689L15.1229 12.3343L9.79592 16.5805Z" fill="black"/>
</svg>
